<?xml version="1.0" encoding="UTF-8" standalone="no"?>
<!-- Created with Inkscape (http://www.inkscape.org/) -->

<svg
   version="1.1"
   width="5400"
   height="5350"
   viewBox="35 1367 5400 5350"
   id="svg2"
   xmlns:xlink="http://www.w3.org/1999/xlink"
   xmlns="http://www.w3.org/2000/svg"
   xmlns:svg="http://www.w3.org/2000/svg"
   xmlns:rdf="http://www.w3.org/1999/02/22-rdf-syntax-ns#"
   xmlns:cc="http://creativecommons.org/ns#"
   xmlns:dc="http://purl.org/dc/elements/1.1/">
  <metadata
     id="metadata25">
    <rdf:RDF>
      <cc:Work
         rdf:about="">
        <dc:format>image/svg+xml</dc:format>
        <dc:type
           rdf:resource="http://purl.org/dc/dcmitype/StillImage" />
      </cc:Work>
    </rdf:RDF>
  </metadata>
  <defs
     id="defs6" />
  <image
     xlink:href="../../basemap/sfoosm.png"
     style="display:none;opacity:1"
     id="image12"
     height="12816"
     width="9879"
     y="-267"
     x="-534" />
  <path
     style="opacity:1;fill:none;stroke:#000080;stroke-width:5;stroke-linejoin:round;stroke-dasharray:none"
     d="m 634.56,4137.13 63.67,-3.58 78.94,-28.08 83.2,-35.13 171.1,-43.36 71.54,-3.98 26.5,-0.5"
     id="path1" />
  <path
     d="m 1472.6,3866.92 -84.45,-85.06 -13.56,-19.11 -21.57,-136.84 -9.1,-62.59 -14.85,-12.57"
     id="path3786"
     style="fill:none;stroke:#d31345;stroke-width:5;stroke-linecap:butt;stroke-linejoin:round;stroke-miterlimit:4;stroke-dasharray:none;stroke-opacity:1" />
  <path
     d="m 647.84,4460.13 -7.84,-4.63 -9,-2.5 -38,3 -4.5,-0.5 -2,-3.5 -1.5,-21 -2.5,-3.5 -152,8 -246.5,14 -2.5,3.5 4,80 -2,3 -8,0.5 -2.5,-2.5 -1.5,-23.5 2.5,-3 7.5,-0.5 2,-2.5"
     id="path3592"
     style="fill:none;stroke:#d31345;stroke-width:1px;stroke-linecap:butt;stroke-linejoin:miter;stroke-opacity:1" />
  <path
     d="m 582.75,4565.59 -2.75,46.91 3.5,5 32,16 8,9.5 11.5,23.5 18.5,16.5 26.5,13.5 31.5,13 71,18.5 40.5,11 40,-0.5 h 14.5 l 7.5,-0.5"
     id="path3594"
     style="fill:none;stroke:#d31345;stroke-width:1px;stroke-linecap:butt;stroke-linejoin:miter;stroke-opacity:1" />
  <path
     d="m 646,4136.5 -521,28.5"
     id="path3600"
     style="fill:none;stroke:#d31345;stroke-width:1px;stroke-linecap:butt;stroke-linejoin:miter;stroke-opacity:1" />
  <path
     d="m 580,4840.5 23,29.5 6.5,2.5 78,-1 4,3.5 1,13 3.5,2 107,-1 15,-10.5 35,-51.5 3.5,-11 10,-11 19,-29.5"
     id="path3602"
     style="fill:none;stroke:#d31345;stroke-width:1px;stroke-linecap:butt;stroke-linejoin:miter;stroke-opacity:1" />
  <path
     d="m 885,4738 20.5,0.5 6.29,-3.36"
     id="path3604"
     style="fill:none;stroke:#d31345;stroke-width:1px;stroke-linecap:butt;stroke-linejoin:miter;stroke-opacity:1" />
  <path
     d="m 1569.5,3691 7.5,10 15.5,14 5,12.5 2.5,13 -3,61 -2.5,38 -2.5,10 -7,10 -72.5,71.5"
     id="path3606"
     style="fill:none;stroke:#d31345;stroke-width:1px;stroke-linecap:butt;stroke-linejoin:miter;stroke-opacity:1" />
  <path
     d="m 1498.12,3654.21 -57.62,58.29 -107.5,106.5 -57.5,58 -67.83,66.17 -38.67,39.33 -72,74.5 -69.5,72 -21,10.5 -22.5,5 -14,6.5 -28.5,21.5 -137,122.5 -35,29.5 -38,36.5 -25,25.5 -29.5,42.5 -23.5,31.5 -19.81,25.31 -40.12,41.99 -10.39,27.02 -9.35,17.67 -28.06,45.53 -2.49,18.09 -5.2,145.31 4.37,10.39 25.36,31.39 17.05,59.04 3.12,78.99 2.08,7.07 28.9,32.84"
     id="path2818"
     style="fill:none;stroke:#000080;stroke-width:5;stroke-linecap:butt;stroke-linejoin:round;stroke-miterlimit:4;stroke-dasharray:none;stroke-opacity:1" />
  <path
     d="m 3005.5,3553 -11.5,1 -11.5,6"
     id="path3637"
     style="fill:none;stroke:#009ada;stroke-width:5;stroke-linecap:butt;stroke-linejoin:round;stroke-miterlimit:4;stroke-dasharray:none;stroke-opacity:1" />
  <path
     d="m 1472.76,3866.07 54.74,55.93 25.5,24 4.5,2 14.5,-1.5 4,4 13,165 0.5,35 7,61.5 13,181.5 -1.5,12.5 -70,250.5 -21,59.5 -28.5,78 -14.5,20.5 -1.5,7 1,13 -6,20.5 -5.5,11.5 -20,27 -4.5,5 -20,7.5 -5,5 -19.5,33 -3.5,12"
     id="path3608"
     style="fill:none;stroke:#d31345;stroke-width:1px;stroke-linecap:butt;stroke-linejoin:miter;stroke-opacity:1" />
  <path
     d="m 1331.93,3553.04 -103.38,-90.24 -81.67,13.14"
     id="path3864"
     style="fill:none;stroke:#d31345;stroke-width:1px;stroke-linecap:butt;stroke-linejoin:miter;stroke-opacity:1" />
  <path
     d="m 2984.28,3557.03 -38.84,79.39 -36.28,100.25 -4.59,24.28 -1.44,73.4 -4.67,15.06 -12.52,10.78 -14.19,4.13 -99.38,-2.28 -119.39,-7.04 -19.3,-6.99 -75.89,-34.33 -190.08,-67.77 -72.32,-17.94 -686.51,56.28 -12.57,-2.68 -86.76,-84.04 -9.71,-3.43 -61.68,59.97 -6.28,-1.71 -13.14,-11.99 -641.41,99.38 -197.05,12.57 -456.22,25.17"
     id="path3866"
     style="fill:none;stroke:#009ada;stroke-width:5;stroke-linecap:butt;stroke-linejoin:round;stroke-miterlimit:4;stroke-dasharray:none;stroke-opacity:1" />
  <path
     style="fill:none;stroke:#000000;stroke-width:5;stroke-linecap:butt;stroke-linejoin:round;stroke-miterlimit:4;stroke-dasharray:none;stroke-opacity:1"
     id="path3857-3"
     d="m 1512.79,6393.14 0.19,23.56 4.55,6.27 5.97,0.02 99.5,-28.5 10.5,-4.5 4.5,-6 2,-10 -1.5,-7.5 -8.5,-7.5 -11,-0.5 -13,3.5 -30.5,11.5 -13.5,7 -31,10.5 -12,2 -22.5,0.5 -11.5,-11 -5.5,-17.5 -17,-54.5 -15,-62 -8.5,-29.5 -4,-43.5 2.56,-7.86 14.56,-25.64 7.57,-10.15 0.96,-9.22 -2.07,-10.14 -11.62,-25.37" />
  <path
     style="fill:none;stroke:#009ada;stroke-width:5;stroke-linecap:butt;stroke-linejoin:round;stroke-miterlimit:4;stroke-dasharray:none;stroke-opacity:1"
     id="path3610-6"
     d="m 2004.5,1428.99 28,38 28,31 21,17 22,14 16,5 166,-1 71,2 25,5 25,14 21,18 134,219 139,212 13,27 27.63,105.87 28.21,111.37 31.68,89.59 16.33,40.59 7.92,10.39 6.43,7.92 21.28,13.36 11.88,6.93 24.25,12.37 15.84,6.93 8.91,1.98 75.24,-12.37 36.13,-5.94 13.36,7.92 7.42,5.94 4.95,13.36 16.33,158.88 -0.49,29.2 -29.7,100.97 -20.29,61.87 -0.49,16.33 0.49,17.32 18.31,109.88 5.44,26.23 22.77,35.64 8.91,14.35 6.43,22.77 -32.2,164.82 -7.5,36 -9,36.5 -9,43 0.5,17.5 5.5,16 4.5,7.5 21.5,33.5 3,7.5 v 9 l -4,9 -66.5,134.5 -4,7.5 -10,9 -12,6 -11.5,1 -13,-1.5 -20,-12 -27.5,-16.5 -29,-15.5 -27.5,-9.5 -41.5,-10.5 -46.5,-22 -30,-16 -28,-12.5 -51.5,-16 -49,-11 -49.5,-6 -65,-8.5 -46,-4 -63,-9 -49.25,-3.5 -54.75,1.5 -52,5.5 -149.5,32 -187.5,40.5 -80,16.5 -37.5,12 -36.5,16.5 -186,106 -11.54,8.48 -30.46,30.52 -89,89.5 -182,180.5 -6.5,15 -2.5,23 1,30 6.5,88 15.5,201.5 3,45.5 -3.5,13.5 -48,92 -35.5,31.5 -46.5,45.5 -38.5,37.5 -19,18.5 -30.5,23.5 -30,23 -31.5,17 -25,15.5 -17.5,15.5 -13.5,19.5 -10,21 -8.5,35 -3.5,33.5 -4.5,39 -7,17.5 -12,18.5 -53.5,55 -15,10 -20,8.5 -59.5,1 -26.5,-0.5 -14,3.5 -11.5,8.5 -13,16.5 -38,59 -7.5,16 -1.5,16.5 v 16.5 l 2,29.2 3.96,32.67 8.41,41.58 1.98,76.23 4.45,14.35 16.83,38.11 20.29,20.29 17.82,14.85 30.69,25.95 11.38,11.88 11.38,15.84 18.31,27.22 19.3,26.73 22.27,17.82 26.23,22.27 24.73,34.04 17,41 19,28 38,36 41,35 31,25 25,42 19,25 42,34 61,40 25,31 76,111 12,31 23,50 72,149 83,157 20,19 23,11 29,2 39,-2 34,-11" />
  <path
     style="fill:none;stroke:#009ada;stroke-width:5;stroke-linecap:butt;stroke-linejoin:round;stroke-miterlimit:4;stroke-dasharray:none;stroke-opacity:1"
     id="path3083"
     d="m 1415.5,6362.99 28,47 22,30 35,50 50,61 48,59 21,29" />
  <path
     style="fill:none;stroke:#d31345;stroke-width:5;stroke-linecap:butt;stroke-linejoin:round;stroke-miterlimit:4;stroke-dasharray:none;stroke-opacity:1"
     id="path3002"
     d="m 1158.25,4482.49 -9.5,30.25 -43,42 -76.75,46.75 -7,14.5 -11,8.5" />
  <path
     style="fill:none;stroke:#009ada;stroke-width:5;stroke-linecap:butt;stroke-linejoin:round;stroke-miterlimit:4;stroke-dasharray:none;stroke-opacity:1"
     id="path2863-7"
     d="m 2997,3532.5 1.5,12 6,8.5 82.5,41.5 25.5,16 26.5,21 24,25.5 21,19 21,14 39.46,17.32 10.85,3.85 46.2,25.2 85.05,49.7 27.65,20.65 45.85,34.3 11.2,11.2 51.75,43.78 58,35 44,36 56,34 24,31 49,57 163,171 260,278 142,149 14,21 43,79 12,15 55,48 160,140 191,163 213,187 228,200 56,47 27,29 109,180 210,332 23,44 26,60 28,66 17,27 29,35 65,71 79,91 67,91 60,71 27,41 65,63 195,189 121,116 13,21 50,72 35,38 34,33 36,29 30.25,21.25 17.75,6.25 32.25,6.75 41,5 29.75,11.25 24.5,21 19.25,22.75 31.75,40 12.75,27.5 6.25,21.5 16.25,98.5 2.75,20.5 5.75,101.75 2.75,20.75 5.75,18.5 107.25,261.75 60.25,141.25 98.68,240.14 141.07,354.63 189.76,455.39 182.07,413.87 42.61,94.69 39.62,147.41 93.27,348.48" />
  <path
     style="fill:none;stroke:#009ada;stroke-width:5;stroke-linecap:butt;stroke-linejoin:round;stroke-miterlimit:4;stroke-dasharray:none;stroke-opacity:1"
     id="path3057-5"
     d="m 3078.2,3039.18 5.94,-31.68 4.95,-32.17 4.45,-16.83 8.41,-12.37 11.38,-11.88 15.84,-9.9 73.26,-30.19 65.34,-31.18 49.5,-25.24 49.5,-35.14 47.52,-34.65 20.79,-12.37 20.29,-12.37 16.33,-10.89 146.55,-84.06 48.75,-27.5 56,-32 35.75,-20.75 125,-73.25 49.75,-28.5 44,-26.25 45,-27 21,-16 38,-44 28,-54 24,-40 26,-53 25,-29 36,-24 38,-19 45,-8 45,-2 60,11 106,19 25,-2 46,-3 38,7 32,4 30,-2 117,-36 95,-25 153,-31 77,-14 75,-3 83,-1 58,8 h 23 l 24,-3 24,-10 24,-16 17,-20 15,-23 47,-105 16,-47 6,-44 9,-39 13,-34 27,-84 10,-19 31,-32 33,-32 21,-17 298,-193 15,-17 11,-26 3,-20 -4,-27 -16,-56 -57,-172 -3,-38 4,-21 13,-46 18,-49 5,-23 -7,-21 -18,-37 -13,-35 -25,-77 -2,-31 3,-27 11,-28 34,-58 64,-109 54,-85 22,-21 178,-33 54,-12 41,-17 26,-13 33,-25 39,-29 39,-20 71,-39 39,-15 43,-4 36,6 64,16 96,22 50,17 34,12 28,4 31,-1 145.58,-1.17" />
  <path
     style="opacity:1;fill:none;stroke:#d31345;stroke-width:1;stroke-linejoin:round;stroke-dasharray:none;stroke-opacity:1"
     d="m 1533.74,3643.33 0.22,-3.75 -22.86,-29.4 -31.68,-45.71 -31.24,-44.76 -21.68,-29.91 -8.97,-8.16 -24.18,-21.98 -32.04,-20.21 -16.32,-8.82 -6.91,-2.94 -41.75,-6.39 -53.14,8.67 -2.43,3.01 1.62,11.69 2.13,1.54 99.37,-16.02"
     id="path2" />
  <path
     d="m 885.5,4775.5 18,-27.5 39,-60.5 23.5,-39.5 6.5,-6 15,-12.5 20.5,-4.5 8.5,-4.5 6,-5.5 6.5,-14 6,-3.5 35,-21 34.5,-21.5 15,-12.5 20.5,-20.5 9.5,-10.5 7,-19.5 7.5,-32.5 5,-13.5 -2.5,-4 -34.5,2.5 -2,-3 -14,-193.5 4.5,-6.5 -0.5,-10.5 5,-5.5 v -17.5 l -2.5,-2.5 -5,-1 -3.5,-3.5 -2.5,-43 -5,-10.5 -2.5,-55 -2.94,-34.07 3.94,-13.98 24.34,-24.96 77.07,-79.33 133.98,-132.75 72.05,-71.28 34.73,-34.6 48.64,-49.23 13.45,-13.09 5.22,-0.29 9.33,9.04 4.19,0.73 5.73,-5.37 h 3.45 l 23.45,27.05 4.78,13.16 4.09,7.47"
     id="path3596"
     style="fill:none;stroke:#d31345;stroke-width:1px;stroke-linecap:butt;stroke-linejoin:miter;stroke-opacity:1" />
</svg>
