<?xml version="1.0" encoding="UTF-8" standalone="no"?>
<svg
   id="svg2"
   viewBox="-50 -750 4400 6300"
   height="6300"
   width="4400"
   version="1.1"
   xmlns:xlink="http://www.w3.org/1999/xlink"
   xmlns="http://www.w3.org/2000/svg"
   xmlns:svg="http://www.w3.org/2000/svg"
   xmlns:rdf="http://www.w3.org/1999/02/22-rdf-syntax-ns#"
   xmlns:cc="http://creativecommons.org/ns#"
   xmlns:dc="http://purl.org/dc/elements/1.1/">
  <metadata
     id="metadata8">
    <rdf:RDF>
      <cc:Work
         rdf:about="">
        <dc:format>image/svg+xml</dc:format>
        <dc:type
           rdf:resource="http://purl.org/dc/dcmitype/StillImage" />
      </cc:Work>
    </rdf:RDF>
  </metadata>
  <defs
     id="defs6" />
  <image
     xlink:href="../basemap/bneosm.png"
     x="-298"
     y="-841.5"
     width="5391"
     height="7487.5"
     id="image10"
     style="display:none" />
  <text
     style="font-style:normal;font-weight:normal;font-size:144px;line-height:125%;font-family:Sans;-inkscape-font-specification:Sans;letter-spacing:0px;word-spacing:0px;fill:#000000;fill-opacity:1;stroke:none"
     xml:space="preserve"
     id="text3791"
     y="5447.96"
     x="39.45"><tspan
       id="tspan2"
       y="5447.96"
       x="39.45">1985</tspan></text>
  <text
     style="font-style:normal;font-weight:normal;font-size:144px;line-height:125%;font-family:Sans;-inkscape-font-specification:Sans;letter-spacing:0px;word-spacing:0px;fill:#000000;fill-opacity:1;stroke:none"
     xml:space="preserve"
     id="text3791-5"
     y="-543.04"
     x="39.45"><tspan
       id="tspan1"
       y="-543.04"
       x="39.45">1985</tspan></text>
  <path
     d="m 2282.5,2830.5 -31,-15 -17,-12.5 -47.5,-55.5 -2,-19.5 -2.5,-42.5 -13,-44.5 -44.5,-74.5 -27,-45 -13.5,-12.5 -25,-12.5 -10,-14.5 -20,-45.5 -1.5,-13.5 9.5,-17 36,-16 21.97,-4.85 31.97,8.06 29.55,14.79 16,4.5 22.5,-1 41.5,-31.5 10.5,-14 23.5,-57.5 32,-41.5 45.5,-52.5 19.5,-38.5 7,-32.5 -4,-78.5 3.5,-26 26,-52 9.5,-29.5 -4,-38 -12.5,-43 5.5,-26.5 29.5,-38.5 11.5,-80.5 24.5,-75 21,-16 40,-14.5 h 20.5 26 l 19,-13.5 65.5,-95.5 39.5,-60.5 13,-70.5 8.5,-13 62,-45 17,-25.5 7.5,-34"
     id="path2987-6"
     style="fill:none;stroke:#a70532;stroke-width:5;stroke-linecap:butt;stroke-linejoin:round;stroke-miterlimit:4;stroke-dasharray:none;stroke-opacity:1" />
</svg>
