<?xml version="1.0" encoding="UTF-8" standalone="no"?>
<svg
   xmlns:dc="http://purl.org/dc/elements/1.1/"
   xmlns:cc="http://creativecommons.org/ns#"
   xmlns:rdf="http://www.w3.org/1999/02/22-rdf-syntax-ns#"
   xmlns:svg="http://www.w3.org/2000/svg"
   xmlns="http://www.w3.org/2000/svg"
   xmlns:xlink="http://www.w3.org/1999/xlink"
   id="svg2"
   height="8350"
   width="21100"
   viewBox="-10085 -460 21100 8350"
   version="1.1">
  <metadata
     id="metadata8">
    <rdf:RDF>
      <cc:Work
         rdf:about="">
        <dc:format>image/svg+xml</dc:format>
        <dc:type
           rdf:resource="http://purl.org/dc/dcmitype/StillImage" />
        <dc:title></dc:title>
      </cc:Work>
    </rdf:RDF>
  </metadata>
  <defs
     id="defs6" />
  <image
     xlink:href="../basemap/shaosm.png"
     style="display:none"
     id="image10"
     height="8946"
     width="21643.56"
     y="-764.51"
     x="-10416.07" />
  <path
     style="fill:none;stroke:#871c2b;stroke-width:5;stroke-linecap:butt;stroke-linejoin:round;stroke-miterlimit:4;stroke-dasharray:none;stroke-opacity:1"
     id="path2987"
     d="m 833.89,1939.76 6.51,-0.52 68.75,-2.35 23.85,4.11 29,12 22,9 151,35 25,2 30,-4 24,-10 17,-15 29,-31 82,-75 33,-31 15,-24 10,-29 75,-301 20,-60 19.13,-49.94 11.87,-17.06 20,-21 62,-49 25.01,-11 30.99,-3 102,10 41,3 27,-10 125,-66 19.71,-1.25 11.02,1.97 10.97,5.26 17.3,13.03 107,214 39,30 52,19 31,4 25,-4 50,-17 149.26,-57.12 20.65,-5.98 27.09,0.1 45,9 36.31,31.24 40.69,61.76 127,190 23,28 34,28 51,30 77.15,23.2 111.92,32.76 20.7,9.29 30.94,21.48 23.29,13.27 26.47,18.33 14.41,12.63 49.11,66.04 37,45 25,15 11.76,4.01 35.24,3.99 53.58,5.32 50.42,2.68 20,4 8.07,5.41 8.93,13.68 33,58.91 22,21 47.96,27.61 24.71,6.47 63.33,6.91 29.96,6.5 26.88,13.21 19.56,7.31 42.26,0.48 45.55,10.76 32.19,1.53 16,7.56 9.18,7.05 10.73,13.62 11.39,35.38 7.64,12.96 8.86,7.66 12.93,5.42 50.46,6.82 11.27,6.38 9.98,10.02 7.95,15.07 52.22,207.27 12,43 8.98,21.83 24.02,21.17 102,73 10,13 31.27,66.86 18.48,25.8 16.24,58.34 19,20 33,26 14,26 10,38" />
  <path
     style="fill:none;stroke:#871c2b;stroke-width:5;stroke-linecap:butt;stroke-linejoin:round;stroke-miterlimit:4;stroke-dasharray:none;stroke-opacity:1"
     id="path3757"
     d="m 1843,346 -28,20 -18,13 -41,47 -26,30 -14,35 -8.92,43.28 -1.08,33.72 4,41.12 11,35.88 22,43 110,205 20.65,45.95 73.89,145.51 70.46,139.54" />
  <path
     style="fill:none;stroke:#c6afd4;stroke-width:5;stroke-linecap:butt;stroke-linejoin:round;stroke-miterlimit:4;stroke-dasharray:none;stroke-opacity:1"
     id="path3759"
     d="m 2887.39,3393.78 80.71,-3.74 46.19,-2.65 60.04,-0.05 40.21,2.81 100.09,35.56 30.1,5.91 158.26,-2.55 33.85,4.35 36.85,0.09 12.28,2.26 23.32,10.98 31.71,1.25 35,1 30.06,-5.33 51.62,-24.33 65.32,-46.34 48,-31 57.84,-17.04 55.16,-25.96 20.62,-10.85 14.24,-1.45 23.31,4.78 102.83,35.52 40.09,18.02 32.05,7.39 57.58,5.29 49.39,3.28 27.89,-8.61 34,-17.37 70.82,-36 77.18,-37 123.73,-93.01 30.38,-21.88 51.98,-16.3 23.46,-12.85 21.25,-21.59 39.02,-22.88 35.63,-12.81 22.99,-3.51 38,0.88 33.13,-8.92 18.62,-1.15 28.14,6.56 24.77,1.81 26.9,-7.34 106.24,-42.04 28.2,-2.92 28.29,-14.13 18.73,-14.39 8.74,-16.9 0.17,-11.37 -22.09,-47.84 -11.28,-65.4 -12,-61 -18.29,-66.84 -8.71,-22.16 -7.88,-22.23 -7.27,-13.7 -3.85,-15.07 -13,-70.81 6.04,-25.98 15.18,-23.83 49.79,-46.61 18.64,-42.83 3.3,-15.18 4.23,-27.09 29.32,-80.94 9.84,-20.94 28.65,-28.79 104,-109 14.4,-18.43 10.6,-13.57 145,-323 9,-21 -1.53,-21.42 -22.69,-48.81 -64.99,-122.88 -15.29,-33.02 -6.79,-25.14 -2.06,-24.42 -2.17,-179.37" />
  <path
     style="fill:none;stroke:#c6afd4;stroke-width:5;stroke-linecap:butt;stroke-linejoin:round;stroke-miterlimit:4;stroke-dasharray:none;stroke-opacity:1"
     id="path3761"
     d="m 3657.68,3419.34 -31.32,28.68 -20.03,39 -29.93,30.72 -8.72,18.72 -1.31,22.68 4.77,28.68 9.55,57.92 4.31,33.24 -4,30 -9,16 -22,22 -198,88" />
  <path
     style="fill:none;stroke:#87caed;stroke-width:5;stroke-linecap:butt;stroke-linejoin:round;stroke-miterlimit:4;stroke-dasharray:none;stroke-opacity:1"
     id="path3782"
     d="m 1744.41,5911.88 3.59,-77.88 9,-140 8,-61 6,-89 -3,-68 -1,-193 -26,-173 1,-33 3,-42 13,-108 -1,-23 -13.72,-55.86 -18.24,-148.64 2.96,-22.5 15,-30 18,-17 22,-8 198,-62 132,-8 224,-26 47,-1 90.41,0.65 33.04,-6.77 30.73,-13.88 107.48,-89.12 49.34,-59.88 30,-23 28,-13 114.33,-44.34 39.81,-14.63 19.39,-10.92 12.56,-14.87 20.36,-17.72 48.77,-47.16 67.62,-44.27 46.67,-37.26 53.16,-25.69 134.39,-85.83 23.21,-9.1 152.8,-29.82 72.68,3.49 16.02,-2.18 16.56,-9.13 50.64,-48.63 65.43,-42.78 59.04,-25.35 169.95,-63.54 280.59,-66.51 35.24,-14.71 23.46,-22.43 22.64,-49.25 68.67,-143.37 30.62,-59.87 20.68,-17.25 36.07,-12.47 27.12,-4.79 27.41,-3.37 25.87,-5.42 28.24,-12.83 57.76,-28.06 97.48,-37.61 40.24,-14.09 40.01,-10.54 28.5,-8.7 26,-17 16.59,-27.17 17,-16.51 12.57,-4.14 21.78,-7.22 72.06,-17.96 40,-22 18,-6 47.06,-6.43 78.94,-8.57 37.49,-8.37 17.51,-9.63 13,-13 10,-16 8,-37 -1.92,-19.01 3.37,-25.02 8.69,-16.87 27.65,-12.95 23.5,-14.85 58.71,-61.31 42,-21 38,-10 33,-10 45.12,-15.25 21.86,4.37 37.56,17.26 105.46,68.62 49.63,31.8 31,0.53 30.37,-8.27 37.99,-30.3 17.01,-6.76 56,-22" />
  <path
     style="fill:none;stroke:#0094d8;stroke-width:5;stroke-linecap:butt;stroke-linejoin:round;stroke-miterlimit:4;stroke-dasharray:none;stroke-opacity:1"
     id="path3784"
     d="m 5702,1398 2,382 6,25 29.34,63.57 3.66,33.43 -0.36,38.2 4.49,56.1 -0.14,18.7 -0.29,10.16 -4.71,9.84 -121,73 -25.68,13.19 -77.32,26.81 -86.67,21.54 -24.17,3.22 -67.95,-2.77 -17.27,-7.86 -37.94,-29.13 -18.85,-7.57 -49.15,-2.43 -82.73,-1.69 -24.97,1.59 -19.39,12.02 -10.03,15.71 -6.9,33.83 -11.08,19.18 -10.55,9.55 -18.13,6.78 -39.03,5.68 -31.53,12.4 -36.04,26.18 -36.25,39.4 -21.86,26.35 -16.51,29 -1,25 3,41 18,47 15.84,75.06 14.16,67.94 8,49 19.37,40.25 12.45,47.15 2.47,12.84 20.15,40.11 17.93,28.97 35.63,56.67 11.03,25.77 8.26,25.44 3.44,29.3 4.04,14.94 23.4,39.66 18.83,40.9 10.43,47.31 9.3,18.28 12.87,49.29 5.69,35.8 6.71,17.32 19,49 29,51 31,57 5,23 3,38 -8,23 -9.18,32.61 -2.47,24.17 2.65,38.22 13,70 8.68,61.17 13.32,58.83 4.48,30.31 -4.67,48.69 -13.27,25.73 -34.91,38.62 -35.57,27.29 -71.06,34.2 -36.89,19.43 -56.43,68.67 -13.27,20.58 -1.88,22.79 7.32,20.7 15.27,13.13 19.39,7.08 60.28,-3.24 23.27,2.95 19.37,13.18 13.6,20.8 43.91,141.17 16.06,34.25 130.3,399.42 47.38,146.42 13.73,93.68 53.92,358.05 8.34,90.1" />
  <path
     style="fill:none;stroke:#ed6f00;stroke-width:5;stroke-linecap:butt;stroke-linejoin:round;stroke-miterlimit:4;stroke-dasharray:none;stroke-opacity:1"
     id="path3786"
     d="m 3301.01,190.7 22.44,19.39 13.55,15.91 15.94,23.89 46.06,113.11 14.39,65 -0.33,18.36 -8.86,15.06 -23.2,27.58 -21,25 -17,34 -12,53 -3,41 16,58 12,30 8.71,18.88 23.05,27.44 50.35,58.18 49.89,56.49 36,53 70.12,105.1 30.54,46.98 3.22,18.8 -2.24,20.98 -1.99,12.33 -45.47,90.04 -6.49,19.18 -2.74,21.51 0.07,19.94 2.97,16.53 46.1,108.32 23.51,41.16 9.99,7.71 14.1,4.36 18.76,-0.16 20.39,-2.75 115.15,-28.04 57.83,-5.72 55.49,-9.88 32.9,-1.67 68.23,9.69 15.83,9.94 7.75,10.64 7.91,21.49 8.07,37.52 19.01,54.73 38.41,76.75 5.28,17.22 4.15,38.31 2.68,73.91 9.96,37.46 34.57,68.35 69.97,133.54 12.29,32.4 1.17,40.33 -2.04,64.41 2.2,30.66 3.87,28.42 -1.53,19.52 -10.74,88.95 -11.72,88.52 0.46,31.53 7,43 11,17 13.21,6.31 11.79,0.69 27,4 9.13,3.61 13.87,11.39 41.94,59.55 8.52,29.1 10.54,23.35 16.75,13 44.25,29 30,39 26,54 14.62,20.58 19.45,19.5 17.76,23.97 3.93,12.73 4.23,27.23 11,39 18,45 5.24,13.54 -0.7,10.1 -9.07,18.55 -5.21,34.46 0.89,25.14 20.78,62.78 0.42,21.64 -12.93,69.58 1.32,21.48 14.43,51.44 4.71,41.5 20.12,41.56 41,71.24 18,64 12.26,46.74 7.47,22.3 10.51,16.11 15.26,12.61 68.5,44.23 57.06,43.26 24.56,17.35 45.73,18.95 16.78,2.43 62.7,-11.22 22.77,-8.82 54.31,-35.48 53.94,-40.79 12.57,-5.98 31.57,-6.7 24.98,-5.2 20.61,-10.61 32.41,-37.19 23,-20 31,-9.32 48,-16.68 74,-29 33,-1 14.09,-3.06 34.72,-13.76 17.95,-0.16 55.58,6.89 28.67,1.1 228.01,-4.71 39.2,-7.85 13.79,-10.45 12,-27 5.04,-20.79 -0.21,-12.21 -6.3,-17.76 -19.53,-53.24 -5,-17 0.36,-12.06 4.9,-9.46 17.26,-10.79 39.84,-25.72 19.53,-9.07 27.91,-8.72 55.93,1.04 25.74,-7.37 15.53,-9.86 5.95,-8.41 -0.59,-9.61 -17.12,-99.34" />
  <path
     style="fill:none;stroke:#8cc220;stroke-width:5;stroke-linecap:butt;stroke-linejoin:round;stroke-miterlimit:4;stroke-dasharray:none;stroke-opacity:1"
     id="path3839"
     d="m 2642.06,3480.45 86.3,-59.7 39.74,-24.2 22.24,-5.81 48.16,-0.25 73.09,-3.79 77.8,-4.36 69.14,-4.5 20.75,-3.9 16.94,-10.04 13.01,-17.02 6.66,-19.67 0.24,-18.6 -5.29,-16.16 -13.94,-23.07 -19.73,-25.88 -12.29,-28.64 -4.39,-22.89 -2.76,-60.43 4.57,-31.33 8.83,-44.77 11.42,-15.13 21.18,-15.04 103.62,-24.01 29.94,-1.02 151.92,17.22 56.56,3.29 93.77,9.19 52,5.87 64.47,18.77 96.65,5.15 84.32,20.05 177,49.19 41.02,3.44 18.57,-2.64 15.5,-7.36 17.19,-15.18 17.82,-17 27.25,-46 11.08,-12.07 21.05,-11.2 33.96,-8.91 19.94,-4.63 30.62,0.53 74.58,-1.6 48.42,-10.4 34.78,-6.22 39.59,-8.07 29.44,-6.68 30.04,-12 29.62,-12.25 35.54,-17.79 42.62,-22.63 17.8,-11.15 22.59,-16.22 26.75,-20.05 37.02,-11.31 47.07,-21.18 31.59,-6.27 38.26,0.68 29.03,-7.89 84.04,-56.35 60.17,-16.83 44.09,-18.8 53,-20 40.44,-8.19 73.27,-1.8 61.29,11.98 61.19,23.08 44.65,21.44 90.69,36.44 102.47,42.04 117,76 144,92 46.31,32.22 21,20.59 9.63,20.56 14.06,64.63 14.59,67.25 7.53,19.15 13.95,13.27 20.93,7.62 33.01,6.71 92,7 84,-13 21,3 81.02,32.28 18.29,1.24 18.34,-0.33 111.74,-18.21 169.61,-35.17 81.72,-19.56 23.34,-10.56 14.94,-12.68 53.62,-41.05 24.16,-10.99 25.93,-5.01 39.29,-0.95 64.7,-3.02 139.36,-9.72 93.84,-9.75 158.38,-31.71 54.7,-9.27 30.39,-4.17 38.79,-0.77 37.01,8.9 36.47,13.72 37.38,19.09 23.68,23.02 11.97,15.57 22.63,158.12 10.91,31.17 13.29,85.69 13.25,87.52 7.54,19.17 11.32,13.12 16.68,8.42 23.47,5.51 22.92,-3.31 110.33,-41.41 80.23,-21.4 76.63,-20.16 34.85,-0.78 64.35,-16.7 36.99,-16.95 50.75,-17.82 148.2,-53.3 78.14,-19.41 125.87,-21.34 46.76,-7.29 140.24,-7.71 81,-7 30,6 23,13 21.25,24.87 65.75,144.13 16,20 33.38,33 13.44,18.21 133.18,218.79 75,123 58,179" />
  <path
     style="fill:none;stroke:#d40068;stroke-width:5;stroke-linecap:butt;stroke-linejoin:round;stroke-miterlimit:4;stroke-dasharray:none;stroke-opacity:1"
     id="path3788"
     d="m 6256.96,944.45 93.04,-9.45 31,-3 18,9 12,15 16,70 201,407 8,19 -2,18 -4,17 -16,15 -16,6 -85,-1 -23,3 -20,15 -6,15 -4,16 v 136 l -6,105 -7.84,269.86 -8.3,158.62 -2.59,45.23 -6.28,36.29 -18.9,43 -32.1,45 -26,34 -33,30 -77,59 -75,54 -118.21,78.69 -87.33,49.98 -81.5,35.33 -129.96,48 -80.36,29.23 -15.87,11.24 -21.75,40.45 -4.68,13.81 1.43,10.52 19.23,52.75 16,53 6,39 -2,30 -10,40 -44,95 -48.16,97.19 -28.84,60.81 -23,34 -68,49 -22.55,24.5 -5.88,11.72 -3.44,16.78 0.88,100.32 -3,58.69 3,28 10.81,35.07 10.3,58.93 12.59,63.18 43.94,91.54 12.97,28.02 4.38,16.26 5,29 -0.52,22.7 -5.96,16.83 -8.48,11.4 -12.04,8.08 -28,6 -54.17,7.04 -122.72,8.77 -71.4,1.12" />
  <path
     style="fill:none;stroke:#e3002b;stroke-width:5;stroke-linecap:butt;stroke-linejoin:round;stroke-miterlimit:4;stroke-dasharray:none;stroke-opacity:1"
     id="path3860"
     d="m 4283.77,327.98 9.18,35.92 26.05,82.1 45.42,198.64 16.25,94.28 7.53,14.78 18.27,92.3 2.81,20.79 12.8,158.24 6.6,27.97 13.31,44.57 21.99,59.43 89,231 43,115 6,31 2.97,156.45 4.19,93.7 24.84,137.85 11,76 8,97 12,55 61,102 19,47 -3.84,75.19 5.84,36.81 -1.53,56.68 -6.85,25.7 -46.38,94.49 -5.4,12.68 2.1,12.45 14.58,25.34 14.5,13.39 15.99,3.73 50.1,16.83 74.9,29.62 48.7,24.31 20.33,19.19 18.96,37.58 12,23 31,51 16,29 2.3,10.34 -2.03,10.35 -8.04,9.44 -65.23,29.88 -69,39 -79,34 -63.45,35.07 -93.55,43.93 -17.45,12.84 -12.8,15.59 -2.67,12.65 -0.1,59.95 -5.02,13.19 -40.95,61.79 -66.55,100.17 -6.41,14.74 -18.04,68.09 -10,67 -28.96,311.37 -3.69,55.74 -6.85,44.7 -19.57,35.68 -35.68,29.91 -51.82,25.6 -17.49,10.86 -184.93,204.14 -98,119 -114,132 -15.27,23.12 -45.28,73.93 -56.59,80" />
  <path
     style="fill:none;stroke:#944d9a;stroke-width:5;stroke-linecap:butt;stroke-linejoin:round;stroke-miterlimit:4;stroke-dasharray:none;stroke-opacity:1"
     id="path3862"
     d="m 3774.5,4655 -30.5,44 -4.97,19.8 -2.71,26.35 1.67,17.85 6,22 144,321 95,212 87,248 44,159 28,61 2,15 v 36 l 16,47 78,228 -7,35 -14,12 -659,200" />
  <path
     style="fill:none;stroke:#000000;stroke-width:5;stroke-linecap:butt;stroke-linejoin:round;stroke-miterlimit:4;stroke-dasharray:none;stroke-opacity:1"
     id="path3864"
     d="m 5157.02,2689.47 19.92,7 24.55,6.37 19.89,3.07 30.18,-0.97" />
  <path
     style="fill:none;stroke:#461d84;stroke-width:5;stroke-linecap:butt;stroke-linejoin:round;stroke-miterlimit:4;stroke-dasharray:none;stroke-opacity:1"
     id="path3792"
     d="m 5651,3107 31,-63 23,-51 4,-24 -5,-29 -23.53,-56.38 -20.94,-19.41 -48.53,-32.2 -15,-25 -56.78,-119.18 -17.53,-149.35 -10.31,-28.2 -9.22,-25.53 -64.16,-102.73 -26.51,-20.75 -26.35,-9.5 -30.27,-3.59 -22.1,3.41 -195.93,41.44 -31.83,17.99 -36,32 -16.5,15.37 -40.2,19.23 -40.1,29.46 -40.57,25.35 -18.63,24.6 -46,28 -33,1 -282,-126 -33,1 -37,11 -22,11 -42,43 -42,51 -41,31 -132,88 -30,33 -17,41 -30,90 1,46 66,159 7,26 -6,59 v 44 l 60,177 9,28 79.6,123.01 13.92,14.09 34.5,28.92 24.64,3.4 41.13,-3.37 58.22,-22.06 31,-27 27.31,-22.55 112.69,-52.45 105.64,-46.49 14.36,-8.51 38,-27 26,-18 33,-15 82,-21 36,-12 59.1,-11.14 42.9,-1.86 22.93,-6.68 14.42,-10.44 88.65,-73.88 19.32,-18.28 37.13,-21.8 20.28,-13.65 45.54,-41.5 15.95,-8.35 12.94,-0.53 13.17,4.91 54.16,30.53 43.05,14.23 33.07,21.9 40.38,15.54 30.27,1.09 8.66,-6.3 7.08,-12.8 21,-47" />
  <path
     style="fill:none;stroke:#fcd600;stroke-width:5;stroke-linecap:butt;stroke-linejoin:round;stroke-miterlimit:4;stroke-dasharray:none;stroke-opacity:1"
     id="path3794"
     d="m 4365,4023 46,-32 38,-17 72,-23 37,-18 17,-17 8,-22 -2,-25 -19,-36 -12,-71 -17,-49 -14,-17 -68,-58 -35,-26 -35,-39 -32.5,-32.5 -90,-139.5 -10,-31 -59,-175 -0.5,-49.5 6.5,-54.5 -6.5,-24 -67.5,-160 -1,-47.5 30,-89 18,-44.5 31.5,-34 133.5,-88 41.5,-32 40.5,-50 42,-43 27.5,-13.5 36,-10 h 32.5 l 282,126 31,-1.5 42,-25.5 20,-25.5 43.5,-28 43,-31 10,-22 v -45 l -9,-66 1.27,-27.37 1.94,-40.16 -10.2,-65.46 1,-38 9,-23 18,-30 13,-48 3,-57 12,-134 12,-75 8,-118 -1,-258 2,-22 11,-18 136,-206 51.53,-101.54 20.27,-46.89 3.5,-18.98 0.7,-23.58 -8,-27 -71.43,-192.67 -35.4,-79.47 -14.79,-40.78 -9.38,-55.09 -71,-132 -83,-158 -35.35,-105.65 -10.81,-19.49 -22.34,-52.86 -22.5,-23.5 -22,-10 -23.5,-3 -50.31,12.03 -40.57,-2.52 -148.48,35.85 -22.14,-0.57 -39.54,-20.49 -99.45,-7.3" />
  <text
     style="font-style:normal;font-weight:normal;font-size:144px;line-height:125%;font-family:Sans;-inkscape-font-specification:Sans;letter-spacing:0px;word-spacing:0px;fill:#000000;fill-opacity:1;stroke:none"
     xml:space="preserve"
     id="text3866"
     y="7787.96"
     x="-9995.55"><tspan
       id="tspan2"
       y="7787.96"
       x="-9995.55">2010</tspan></text>
  <text
     style="font-style:normal;font-weight:normal;font-size:144px;line-height:125%;font-family:Sans;-inkscape-font-specification:Sans;letter-spacing:0px;word-spacing:0px;fill:#000000;fill-opacity:1;stroke:none"
     xml:space="preserve"
     id="text3870"
     y="-253.04"
     x="-9995.55"><tspan
       id="tspan1"
       y="-253.04"
       x="-9995.55">2010</tspan></text>
</svg>
