<?xml version="1.0" encoding="UTF-8" standalone="no"?>
<svg
   version="1.1"
   id="svg1"
   width="750"
   height="1150"
   viewBox="0 0 750 1150"
   xmlns:xlink="http://www.w3.org/1999/xlink"
   xmlns="http://www.w3.org/2000/svg"
   xmlns:svg="http://www.w3.org/2000/svg">
  <defs
     id="defs1" />
  <image
     width="768.3"
     height="1280.5"
     preserveAspectRatio="none"
     xlink:href="../basemap/skgosm.png"
     id="image1"
     x="0"
     y="-56.1"
     style="display:none" />
  <path
     style="fill:none;stroke:#0f0a68;stroke-width:5;stroke-linejoin:round;stroke-opacity:1"
     d="m 125.63,246.62 193.19,134 99.11,67.84 42.43,24.29 20.1,13.96 5.86,9.21 33.5,57.79 3.35,12.56 9.49,70.35 -2.23,12.28 -4.19,9.49 -10.05,10.89 -47.18,44.39 -5.3,6.98 -0.56,14.24 5.86,83.19 13.4,66.72 -0.84,6.98 -5.58,29.59 -2.23,20.1 1.4,9.21 5.03,10.05 12.28,12.28 5.86,13.96 9.49,32.94 4.47,5.58 15.08,11.45 8.93,1.68 70.35,-10.05"
     id="path1" />
  <text
     x="89.45"
     y="206.96"
     id="text3019"
     xml:space="preserve"
     style="font-style:normal;font-weight:normal;font-size:144px;line-height:125%;font-family:Sans;-inkscape-font-specification:Sans;letter-spacing:0px;word-spacing:0px;fill:#000000;fill-opacity:1;stroke:none"><tspan
       x="89.45"
       y="206.96"
       id="tspan1">2025</tspan></text>
</svg>
