<?xml version="1.0" encoding="UTF-8" standalone="no"?>
<svg
   id="svg2"
   viewBox="-1760 -2520 8600 7300"
   height="7300"
   width="8600"
   version="1.1"
   xmlns:xlink="http://www.w3.org/1999/xlink"
   xmlns="http://www.w3.org/2000/svg"
   xmlns:svg="http://www.w3.org/2000/svg"
   xmlns:rdf="http://www.w3.org/1999/02/22-rdf-syntax-ns#"
   xmlns:cc="http://creativecommons.org/ns#"
   xmlns:dc="http://purl.org/dc/elements/1.1/">
  <metadata
     id="metadata24">
    <rdf:RDF>
      <cc:Work
         rdf:about="">
        <dc:format>image/svg+xml</dc:format>
        <dc:type
           rdf:resource="http://purl.org/dc/dcmitype/StillImage" />
      </cc:Work>
    </rdf:RDF>
  </metadata>
  <defs
     id="defs6" />
  <image
     xlink:href="../basemap/berosm.png"
     id="image12"
     height="7397.14"
     width="8424.52"
     y="-2537.86"
     x="-1488.33"
     style="display:none" />
  <path
     style="fill:none;stroke:#408335;stroke-width:5;stroke-linecap:butt;stroke-linejoin:round;stroke-miterlimit:4;stroke-dasharray:none;stroke-opacity:1"
     id="path4196"
     d="m 933.41,1478.68 19.33,-5.48 21.9,-3.87 23.81,-6.54 24.83,-8.28 53.79,-20.62 17.39,-4.51 25.12,-4.51 40.26,2.58 51.54,4.83 80.53,7.73 16.75,-3.22 13.53,-9.02 8.86,-12.11 10.5,-22.69 14.12,-27.81 26.34,-84.01 7.52,-13.34 31.89,-47.09 16.66,-13.07 18.21,-5.65 26.07,0.94 63.69,9.31 14.58,-1.74 14.62,-5.43 10.5,-7.33 51.61,-44.34 15.95,-14.09 17.02,-13.53 9.8,-5.78 19.82,-1.65 25.51,3.4 9.08,5.84 10.9,12.85 11.92,16.43 9.73,15.76 10.88,8.08 10.98,2.19 18.52,-0.04 10.88,1.85 9.45,4.03 12.14,6.14 12.88,3.83 15.85,4.34 33.97,-2.7 11.6,-3.87 6.63,-4.11 16.75,-14.44 11.02,-6.7 6.23,-1.84 8.98,-0.61 22.69,-2.29 10.79,-3.11 10.33,-4.91 14.82,-5.15 12.88,-0.64 10.63,2.58 13.53,8.05 12.56,12.56 35.75,38.33 8.05,14.82 3.22,14.82 12.24,20.29 4.37,10.98 9.15,10.64 9.22,4.92 17.32,10.18 19.63,12.14 12.41,8.74 10.78,2.44 14.14,0.61 14.15,2.69 22.68,5.22 23.63,5.88 24.33,16.16 35.68,23.71 23.27,11.63 73.95,25.45 103.22,27.62 42.66,12.67" />
  <path
     style="fill:none;stroke:#408335;stroke-width:5;stroke-linecap:butt;stroke-linejoin:round;stroke-miterlimit:4;stroke-opacity:1;stroke-dasharray:none"
     id="path8905"
     d="m 933.41,1478.68 -15.66,-0.68 -13.25,-4.25 -13.5,-8.75 -8.75,-11.5 -7.79,-18.62" />
  <text
     style="font-style:normal;font-weight:normal;font-size:144px;font-family:Sans;-inkscape-font-specification:Sans;fill:#000000;fill-opacity:1;stroke:none"
     xml:space="preserve"
     id="text2838"
     y="4677.96"
     x="-1670.55"><tspan
       id="tspan2"
       y="4677.96"
       x="-1670.55"></tspan></text>
  <text
     style="font-style:normal;font-weight:normal;font-size:144px;font-family:Sans;-inkscape-font-specification:Sans;fill:#000000;fill-opacity:1;stroke:none"
     xml:space="preserve"
     id="text2838-3"
     y="-2313.04"
     x="-1670.55"><tspan
       id="tspan1"
       y="-2313.04"
       x="-1670.55">1890</tspan></text>
  <path
     d="m 892.91,1228 9.25,49.04 6.44,27.7 1.29,22.55 -10.95,38.01 -19.97,41.87 -4.51,27.7"
     id="path3631"
     style="fill:none;stroke:#408335;stroke-width:5;stroke-linecap:butt;stroke-linejoin:round;stroke-miterlimit:4;stroke-dasharray:none;stroke-opacity:1" />
</svg>
