<?xml version="1.0" encoding="UTF-8" standalone="no"?>
<!-- Created with Inkscape (http://www.inkscape.org/) -->

<svg
   version="1.1"
   id="svg2"
   width="3150"
   height="2050"
   viewBox="0 0 3150 2050"
   xmlns:xlink="http://www.w3.org/1999/xlink"
   xmlns="http://www.w3.org/2000/svg"
   xmlns:svg="http://www.w3.org/2000/svg">
  <defs
     id="defs6" />
  <image
     width="3331"
     height="2220.67"
     preserveAspectRatio="none"
     style="display:none;image-rendering:optimizeSpeed"
     xlink:href="../basemap/lyaosm.png"
     id="image10"
     x="-60"
     y="-50" />
  <path
     style="fill:none;stroke:#71b338;stroke-width:5;stroke-linejoin:round;stroke-dasharray:none;stroke-opacity:1"
     d="m 1244.29,187.75 137.46,-0.68 23.65,2.99 16.97,6 16.25,14.52 6.14,14.73 1.09,23.59 -1.19,26.89 18.03,103.96 10.78,26.75 48.25,77.89 3.25,11.21 1.16,25.64 1.14,162.83 1.54,13.81 101.71,240.25 67.96,145 3.5,14.83 -0.99,18.15 -3.25,15.61 -7.76,15.02 -13.29,24 -58.49,91.85 -10.16,22.38 -21.89,61.87 -8.05,35.76 -4.2,40.64 -1.82,66.01 3.88,32.53 9.38,22.48 12.95,12.01 18.31,7.35 19.38,2.8 87.75,-3.95 15.21,2.85 11.58,7.27 6.06,10.2 4.36,15.75 10.06,140.3 10.33,36.01 1.13,18.85 -3.66,19.29 -19.01,64.51 0.98,17.16 8.36,13.7 12.82,8.64 12.03,3.26 24.82,-1.48 17.62,-1.7 13.72,-4.28 99.39,-59.59 30.41,-12.66 31.76,-7.37 40.75,-2.2"
     id="path980" />
  <path
     style="fill:none;stroke:#de4c8a;stroke-width:5;stroke-linejoin:round;stroke-dasharray:none;stroke-opacity:1"
     d="m 138.11,260.08 -7.02,55.68 -9.84,34.23 -0.57,16.53 4.12,18.68 75.89,165.47 9.74,9.72 13.62,6.61 82.22,20.95 73.61,0.27 22.6,4.79 133.44,57.19 138.57,50.42 10.59,11.88 5.98,12.56 0.91,12.77 -3,16.51 -11.44,38.31 -0.57,19.33 4.04,15.55 9.68,8.23 408.3,138.93 14.44,1.45 12.45,-3.62 311.91,-161.34 535.59,-244.35 25.76,-7.59 143.02,-22.87 174.87,-26.55 53.32,-12.78 49.02,-15.56 187.02,-37.85 382.76,-76 30.78,-8.26 22.56,-9.74"
     id="path377" />
  <text
     x="89.45"
     y="206.96"
     id="text2838-3"
     xml:space="preserve"
     style="font-style:normal;font-weight:normal;font-size:144px;font-family:Sans;-inkscape-font-specification:Sans;fill:#000000;fill-opacity:1;stroke:none"><tspan
       x="89.45"
       y="206.96"
       id="tspan1">2025</tspan></text>
</svg>
