<?xml version="1.0" encoding="UTF-8" standalone="no"?>
<svg
   viewBox="0 -200 1800 2100"
   height="2100"
   width="1800"
   id="svg2"
   version="1.1"
   xml:space="preserve"
   xmlns:xlink="http://www.w3.org/1999/xlink"
   xmlns="http://www.w3.org/2000/svg"
   xmlns:svg="http://www.w3.org/2000/svg"
   xmlns:rdf="http://www.w3.org/1999/02/22-rdf-syntax-ns#"
   xmlns:cc="http://creativecommons.org/ns#"
   xmlns:dc="http://purl.org/dc/elements/1.1/"><metadata
     id="metadata8"><rdf:RDF><cc:Work
         rdf:about=""><dc:format>image/svg+xml</dc:format><dc:type
           rdf:resource="http://purl.org/dc/dcmitype/StillImage" /></cc:Work></rdf:RDF></metadata><defs
     id="defs6" /><image
     style="display:none"
     y="-607.2"
     x="0"
     id="image10"
     xlink:href="../basemap/trnosm.png"
     preserveAspectRatio="none"
     height="2622.4"
     width="1907.2" /><path
     style="fill:none;stroke:#0c54a0;stroke-width:5;stroke-linejoin:round;stroke-opacity:1"
     d="m 1684.75,1780 -164.5,-123.75 -35,-20 -34.75,-15.75 -38.75,-12 -267.25,-52.5 -22.25,-7.5 -27.75,-13.75 -23,-16.75 -137,-152.5 -47.75,-59.5 -18.25,-33.25 -13.5,-34 -10.5,-33 -6.75,-41.75 -3.25,-49.25 -1,-50 2,-21.75 6,-25.25 48.5,-146.75 11,-22 14.25,-16 12.25,-11.5 8,-14.5 4.5,-16.75 -3.5,-16 -11,-17.75 -27.25,-39.5 -13,-9.25 -40,-14 -14.5,-8.5 -14.75,-15 -10.5,-19.5 -2.25,-19.75 1.5,-15.25 2.75,-17.25 8.25,-16.75 28,-57.5 21.25,-45 98,-201.75 86.5,-178.75 14.75,-27 17,-25 79.75,-105.75"
     id="path1" /><path
     id="path817"
     d="m 109.5,306.25 111.25,31 16.25,3.75 444.25,-25.5 240.5,-14.5 13.5,5.25 8,5.75 3.5,6.75 0.5,8.75 -3.5,11.25 -29.75,61.5 -2.25,9 1.25,9.75 2,8.5 2,5.75 5.75,5.75 152.5,77.75 2,2.5 v 3.5 l -22.5,43.75 -4.25,13 -49.5,179 -67.25,243.25 -59.73,219.1"
     style="opacity:1;fill:none;fill-rule:nonzero;stroke:#de4d14;stroke-width:5;stroke-linecap:butt;stroke-linejoin:round;stroke-miterlimit:4;stroke-dasharray:none;stroke-opacity:1" /><text
     x="89.45"
     y="6.96"
     id="text3652"
     xml:space="preserve"
     style="font-style:normal;font-weight:normal;font-size:144px;font-family:Sans;-inkscape-font-specification:Sans;fill:#000000;fill-opacity:1;stroke:none"><tspan
       x="89.45"
       y="6.96"
       id="tspan1">2025</tspan></text></svg>
