<?xml version="1.0" encoding="UTF-8" standalone="no"?>
<svg
   viewBox="0 0 2100 1650"
   height="1650"
   width="2100"
   id="svg2"
   version="1.1"
   xmlns:xlink="http://www.w3.org/1999/xlink"
   xmlns="http://www.w3.org/2000/svg"
   xmlns:svg="http://www.w3.org/2000/svg"
   xmlns:rdf="http://www.w3.org/1999/02/22-rdf-syntax-ns#"
   xmlns:cc="http://creativecommons.org/ns#"
   xmlns:dc="http://purl.org/dc/elements/1.1/">
  <metadata
     id="metadata8">
    <rdf:RDF>
      <cc:Work
         rdf:about="">
        <dc:format>image/svg+xml</dc:format>
        <dc:type
           rdf:resource="http://purl.org/dc/dcmitype/StillImage" />
      </cc:Work>
    </rdf:RDF>
  </metadata>
  <defs
     id="defs6" />
  <image
     xlink:href="../basemap/hb_osm.png"
     width="2429.01"
     height="1766.55"
     preserveAspectRatio="none"
     id="image10"
     x="-150"
     y="-6.55"
     style="display:none" />
  <path
     id="path836"
     d="m 1666.33,1474.09 17.64,1.15 82.07,16.87 126.18,8.63 16.87,15.15 42.19,-1.53 18.03,5.18"
     style="opacity:1;fill:none;fill-rule:nonzero;stroke:#9f184c;stroke-width:1;stroke-linecap:butt;stroke-linejoin:round;stroke-miterlimit:4;stroke-dasharray:none;stroke-opacity:1" />
  <path
     id="path838"
     d="m 1666.33,1474.09 -23.78,0.38 -17.07,7.86 -25.89,3.84 -68.46,30.49 -22.24,3.07 -60.98,-16.11 -18.6,-1.73 -165.68,24.93 -45.45,1.73 -30.87,-1.34 -264.82,-42.57 -25.89,-10.16 -57.91,-30.87 -22.63,-2.88 -104.7,-2.88 -31.26,-5.94 -40.08,-9.59 -15.15,-1.15 -20.71,4.03 -141.13,42.19 -17.45,3.07 -20.71,1.73 -43.72,1.73 -25.5,4.41 -74.02,15.34 -31.45,10.55 -89.17,31.45 -28,4.6 -27.42,2.68"
     style="opacity:1;fill:none;fill-rule:nonzero;stroke:#9f184c;stroke-width:5;stroke-linecap:butt;stroke-linejoin:round;stroke-miterlimit:4;stroke-dasharray:none;stroke-opacity:1" />
  <path
     style="fill:none;stroke:#0097ba;stroke-width:5;stroke-linejoin:round;stroke-dasharray:none;stroke-opacity:1"
     d="m 1548.02,108.12 27.26,21.96 16.85,17.42 16.85,23.86 12.5,19.5 10.03,25.94 11.74,52.07 15.53,37.87 14.01,25.75 15.34,20.83 20.07,16.28 47.52,39.38 58.88,71 16.47,27.45 7.57,21.02 0.95,16.66 -1.14,22.15 -4.54,23.48 -50.93,103.19 -37.49,81.04"
     id="path1" />
  <text
     style="font-style:normal;font-weight:normal;font-size:144px;line-height:125%;font-family:Sans;-inkscape-font-specification:Sans;letter-spacing:0px;word-spacing:0px;fill:#000000;fill-opacity:1;stroke:none"
     xml:space="preserve"
     id="text3791-5"
     y="206.96"
     x="89.45"><tspan
       id="tspan1"
       y="206.96"
       x="89.45">2015</tspan></text>
</svg>
