<?xml version="1.0" encoding="UTF-8" standalone="no"?>
<svg
   id="svg2"
   height="20550"
   width="18050"
   viewBox="-4650 -7450 18050 20550"
   version="1.1"
   xmlns:xlink="http://www.w3.org/1999/xlink"
   xmlns="http://www.w3.org/2000/svg"
   xmlns:svg="http://www.w3.org/2000/svg"
   xmlns:rdf="http://www.w3.org/1999/02/22-rdf-syntax-ns#"
   xmlns:cc="http://creativecommons.org/ns#"
   xmlns:dc="http://purl.org/dc/elements/1.1/">
  <metadata
     id="metadata8">
    <rdf:RDF>
      <cc:Work
         rdf:about="">
        <dc:format>image/svg+xml</dc:format>
        <dc:type
           rdf:resource="http://purl.org/dc/dcmitype/StillImage" />
      </cc:Work>
    </rdf:RDF>
  </metadata>
  <defs
     id="defs6" />
  <image
     xlink:href="../../basemap/lonosm.png"
     style="display:none"
     id="image12"
     height="20602.4"
     width="18289.88"
     y="-7482.57"
     x="-4725.03" />
  <path
     style="fill:none;stroke:#ee9bac;stroke-width:5;stroke-linecap:butt;stroke-linejoin:round;stroke-miterlimit:4;stroke-opacity:1;stroke-dasharray:none"
     id="path3616"
     d="m 2581.56,2623.52 -13.64,-118.95 -0.71,-37.48 5.66,-48.79 13.44,-31.82 11.31,-12.02 21.92,-16.26 19.8,-16.26 38.18,-45.25 28.28,-26.87 22.63,-9.19 20.51,-8.49 12.02,-7.78 22.63,-28.28 13.44,-4.95 16.26,-1.41 28.28,12.73 16.26,5.66 38.89,4.95 37.48,6.36 26.87,2.12 23.33,0.71 23.33,4.24 19.09,0.71 21.21,15.56 26.87,-2.83 13.44,-4.24 13.02,-7.28 12.44,-16.76 31.82,-21.33 70.71,-20.38 61.52,-15.76 23.13,-1.91 44.58,-12.76 23.63,0.83 52.81,-20.29 42.5,-24 25,-15.5 38,-23.62 40.5,-17.88 20,-0.5 21.5,12 46.5,46.5 31,31 10,16.5 18.5,18 21.5,37.5 8,6 8.5,0.5 35,-9 22,-1.5 66.5,23 19.98,7.52" />
  <text
     style="font-size:144px;font-style:normal;font-weight:normal;line-height:125%;letter-spacing:0px;word-spacing:0px;fill:#000000;fill-opacity:1;stroke:none;font-family:Sans;-inkscape-font-specification:Sans"
     xml:space="preserve"
     id="text3019"
     y="-7243.04"
     x="-4560.55"><tspan
       id="tspan1"
       y="-7243.04"
       x="-4560.55">1865</tspan></text>
  <text
     style="font-size:144px;font-style:normal;font-weight:normal;line-height:125%;letter-spacing:0px;word-spacing:0px;fill:#000000;fill-opacity:1;stroke:none;font-family:Sans;-inkscape-font-specification:Sans"
     xml:space="preserve"
     id="text3019-6"
     y="12997.96"
     x="-4560.55"><tspan
       id="tspan2"
       y="12997.96"
       x="-4560.55"></tspan></text>
  <path
     style="fill:none;stroke:#0086c7;stroke-width:5;stroke-linecap:butt;stroke-linejoin:round;stroke-miterlimit:4;stroke-opacity:1;stroke-dasharray:none"
     id="path3899-1"
     d="m 3986.32,1789.52 9.18,3.48 9,8 9.5,12.5 4,11.5 -0.5,27 -1,25 -2.5,31 -2.5,43.5 1.5,95.5 -3,17.5 -6.5,15 -15,18.5 -5.5,18 -1,44 0.16,18.67 -8.16,17.33 -24.5,30 -9,30.5" />
  <path
     style="fill:none;stroke:#0086c7;stroke-width:5;stroke-linecap:butt;stroke-linejoin:round;stroke-miterlimit:4;stroke-dasharray:none;stroke-opacity:1"
     id="path3628-0-3"
     d="m 4018,1828.5 6.03,-10.27 14.51,-11.39 14.95,-5.34 13.41,-2.43 124.09,9.93 23.5,-1 31.5,-4 70,4.5 52.5,3 27,3.5 31,15.5 25.5,25 15,21.5 8.5,20.5 7,30.5 4,40 8.5,33.5 12.5,31.5 9.75,22.75 5.25,17.75 8,19.25 9.5,22.75 -1.5,17 -10,18 -17.5,22" />
  <path
     style="fill:none;stroke:#8bb7e0;stroke-width:5;stroke-linecap:butt;stroke-linejoin:round;stroke-miterlimit:4;stroke-opacity:1;stroke-dasharray:none"
     id="path4595-7"
     d="m 3542.6,2410.35 20.26,15.98 88.14,42.91 14.25,3.5 29.25,-3.75 21,-3 53.5,4.5 51,-2.5 15,-1.5 28,-13 22,-9 15,0.5 21,9 22.5,24.5 36,31 90.5,77 68,49.5 91.5,64.5 94,62 38,22.5" />
  <path
     style="fill:none;stroke:#0086c7;stroke-width:5;stroke-linecap:butt;stroke-linejoin:round;stroke-miterlimit:4;stroke-opacity:1;stroke-dasharray:none"
     id="path3628-0"
     d="m 3383,1886 21.5,1 48.5,11.5 69,3 22,-2.5 58,-22 120.97,-50 105.66,-37.21 24.78,-8.38 38.22,-3.89 32.88,2.99 38.39,5.21 23.43,3.81" />
  <path
     style="fill:none;stroke:#00afa9;stroke-width:5;stroke-linecap:butt;stroke-linejoin:round;stroke-miterlimit:4;stroke-opacity:1;stroke-dasharray:none"
     id="path4319"
     d="m 3981.5,2354 44.5,13.49 15.5,-0.49 20,-1.5 54.5,-4.5 48,-6.5 34,-2 71.5,-3.5 77,-4.5 25.5,-0.5 23,3 42,15 29,15.5 22.5,15.5 21,10 11.5,2.5 15,-2 13,4.5 32.5,7 10,2.5 31,-1.5 17,-0.5 39.5,-8.5 36,1.5 26,-8.5" />
  <path
     style="fill:none;stroke:#0086c7;stroke-width:5;stroke-linecap:butt;stroke-linejoin:round;stroke-miterlimit:4;stroke-opacity:1;stroke-dasharray:none"
     id="path3038"
     d="m 3386.75,1885.99 -34.13,1.26 -20.22,2.95 -13.48,-2.53 -29.92,-13.48 -42.56,-6.74" />
  <path
     style="fill:none;stroke:#8bb7e0;stroke-width:5;stroke-linecap:butt;stroke-linejoin:round;stroke-miterlimit:4;stroke-opacity:1;stroke-dasharray:none"
     id="path4595-7-7"
     d="m 4361.5,2785 109.5,65.5 25,10.5 46.5,6.5 55,4.26" />
  <path
     d="m 3982.92,2349.22 44.6,13.52 32.64,-2.17 55.05,-4.42 44.7,-6.11 36.58,-2.47 72.13,-3.48 84,-4.56 L 4363,2333 l 132.5,-142.5 15.5,-18"
     id="path8099"
     style="fill:none;stroke:#0086c7;stroke-width:5;stroke-linecap:butt;stroke-linejoin:round;stroke-miterlimit:4;stroke-dasharray:none;stroke-opacity:1" />
  <path
     d="m 3745.43,2330.6 0.58,12.16 1.5,34.5 -2,33.25 -0.75,11.75 8.25,35.75 9.5,34 10,24.5 2.5,23 12.5,26.5 7,22.5 -1,29 -6,26.5 -0.5,25.5 22.5,64.5 8.5,26.5 1,53 4,54.5 -5.5,39 -12.5,25.5 -29.5,35 -12,29.5 -6.37,29.5 -8.87,30 -9.98,13.67 -21.74,14.38 -33.09,8.92 -19.34,6.64 -22.1,-1.62 -25,-9.5 -23,-0.5 -36,6.5 -22,2 -24,-4.5 -32,-23 -25.5,-22 -24.5,-25 -22.6,-32.64 -8.92,-12.87 -18.5,-52 -6.75,-9.5"
     id="path3893-1"
     style="fill:none;stroke:#8bb7e0;stroke-width:5;stroke-linecap:butt;stroke-linejoin:round;stroke-miterlimit:4;stroke-dasharray:none;stroke-opacity:1" />
</svg>
