<?xml version="1.0" encoding="UTF-8" standalone="no"?>
<!-- Created with Inkscape (http://www.inkscape.org/) -->

<svg
   version="1.1"
   id="svg1"
   width="6600"
   height="4050"
   viewBox="25 0 6600 4050"
   xmlns:xlink="http://www.w3.org/1999/xlink"
   xmlns="http://www.w3.org/2000/svg"
   xmlns:svg="http://www.w3.org/2000/svg">
  <defs
     id="defs1" />
  <image
     width="6776.62"
     height="4185.56"
     preserveAspectRatio="none"
     xlink:href="../basemap/lbaosm.png"
     id="image1"
     x="0"
     y="-99.31"
     style="display:none" />
  <text
     style="font-style:normal;font-weight:normal;font-size:144px;line-height:125%;font-family:Sans;-inkscape-font-specification:Sans;letter-spacing:0px;word-spacing:0px;fill:#000000;fill-opacity:1;stroke:none"
     xml:space="preserve"
     id="text3817"
     y="206.96"
     x="114.45"><tspan
       id="tspan1"
       y="206.96"
       x="114.45">1990</tspan></text>
  <path
     style="fill:none;fill-opacity:0.25;stroke:#ed1b2d;stroke-width:5;stroke-linejoin:round"
     d="m 1719.03,3922.14 5.4,-12.15 15.42,-18.51 12.34,-8.29 20.05,-11.37 107.19,-60.92 18.7,-5.98 17.74,-2.51 16,0.39 14.84,2.31 20.24,8.48 25.45,16.39 17.54,7.71 103.72,39.33 20.43,2.12 17.35,-0.96 13.3,-4.05 51.67,-23.13 13.88,-10.02 11.95,-10.99 315.39,-322.72 14.84,-10.22 11.95,-7.33 11.57,-6.55 40.68,-14.46 13.3,-8.1 16.19,-13.88 13.88,-16.58 10.22,-21.21 6.36,-26.03 0.39,-20.24 -4.63,-21.98 -5.98,-24.1 -1.54,-20.05 -10.41,-267.97 -2.89,-113.36"
     id="path4" />
  <path
     style="fill:none;fill-opacity:0.25;stroke:#ed1b2d;stroke-width:5;stroke-linejoin:round"
     d="m 2668.68,2844.3 2.89,70.94 2.7,8.68 7.52,7.71 9.64,5.21 11.95,1.74 12.53,-3.08 8.48,-6.94 37.4,-48.39 11.76,-8.1 13.88,-3.86 19.86,-1.16 117.98,-27.57 29.69,-5.78 38.36,-10.22 21.98,-7.33 21.78,-11.57 29.11,-17.54 16.58,-7.33 18.51,-6.55 23.33,-5.4 18.51,-6.55 15.23,-8.68 18.12,-14.27 17.93,-21.78 31.23,-46.07 3.86,-6.17 8.68,-9.25 19.47,-12.72 26.41,-11.18 14.27,-3.47 21.98,-0.77 42.03,4.82 24.1,-0.77 38.36,-7.71 132.83,-26.03 18.31,-1.16 h 21.98 l 32,3.86 28.72,8.1 34.12,14.65 76.15,29.88 28.34,13.69 27.57,17.16 32.77,28.72 31.62,26.99 21.98,14.27 16.58,6.36 19.86,3.47 16.19,0.96 33.93,-3.86 22.17,1.35 18.89,5.01 12.72,5.98 131.86,69.21 22.75,8.87 17.93,2.89 21.21,0.77 21.01,-3.66 26.03,-9.06 22.36,-11.37 24.1,-15.42 11.95,-2.12 14.46,1.74 21.4,8.87 9.45,1.35 8.48,-0.77 15.81,-5.59 15.42,-11.95 9.06,-5.59 48,-14.46 48.57,-6.59 18.22,-4.42 17.39,-6.9 34.23,-6.07 36.71,-10.77 16.84,-1.1 22.91,3.59 18.49,8.83 121.46,69.28 18.77,4.97 14.08,0.28 16.84,-1.1 57.97,-16.56 16.29,-9.66 16.84,-17.67 14.35,-21.81 20.7,-41.41 14.91,-18.49 20.98,-17.94 25.95,-13.25 28.71,-9.11 44.44,-8.56 104.62,-5.8 150.16,-35.88 34.5,-4.14 40.85,1.1 201.78,28.71 48.58,14.63 57.69,28.43 22.91,6.9 40.58,9.66 110.41,24.84 28.98,12.7 21.53,12.7 68.18,51.89 21.25,11.59 21.81,7.73 110.97,24.57 36.16,3.86 253.4,17.94"
     id="path5" />
</svg>
