<?xml version="1.0" encoding="UTF-8" standalone="no"?>
<svg
   version="1.1"
   id="svg1"
   width="6600"
   height="4050"
   viewBox="25 0 6600 4050"
   xmlns:xlink="http://www.w3.org/1999/xlink"
   xmlns="http://www.w3.org/2000/svg"
   xmlns:svg="http://www.w3.org/2000/svg">
  <defs
     id="defs1" />
  <image
     width="6577.31"
     height="3986.25"
     preserveAspectRatio="none"
     xlink:href="../basemap/lbaosm.png"
     id="image1"
     x="0"
     y="100"
     style="display:none" />
  <path
     style="fill:none;fill-opacity:0.25;stroke:#ed1b2d;stroke-width:5;stroke-linejoin:round;stroke-opacity:1"
     d="m 2012.52,781.37 56.18,4.89 30.19,0.35 35.25,-5.93 48.68,-12.21 25.47,-2.44 34.9,1.22 52.69,8.55 25.3,9.07 26.35,13.96 104.17,75.9 27.22,25.65 63.34,59.5 20.94,16.93 32.45,20.94 19.89,18.5 18.15,24.95 24.95,46.41 6.46,18.5 9.77,50.95 9.77,24.08 11.69,21.46 16.4,20.41 14.66,13.78 98.58,65.08 19.19,15.18 16.23,17.1 10.47,20.76 60.9,121.79 18.32,27.57 12.04,13.96 20.41,18.67"
     id="path1" />
  <path
     style="fill:none;fill-opacity:0.25;stroke:#ed1b2d;stroke-width:5;stroke-linejoin:round;stroke-opacity:1"
     d="m 2635.26,2744.86 -26.52,-54.44 -3.32,-16.4 -5.06,-29.66 -6.63,-19.72 -26.7,-71.54 -51.47,-107.31 -79.91,-176.41 -2.27,-19.19 1.74,-17.97 5.93,-18.84 10.47,-19.02"
     id="path2" />
  <text
     style="font-style:normal;font-weight:normal;font-size:144px;line-height:125%;font-family:Sans;-inkscape-font-specification:Sans;letter-spacing:0px;word-spacing:0px;fill:#000000;fill-opacity:1;stroke:none"
     xml:space="preserve"
     id="text3817"
     y="206.96"
     x="114.45"><tspan
       id="tspan1"
       y="206.96"
       x="114.45">2025</tspan></text>
</svg>
