<?xml version="1.0" encoding="UTF-8" standalone="no"?>
<svg
   id="svg2"
   height="5350"
   viewBox="-1842, 16, 5400, 5350"
   width="5400"
   version="1.1"
   xmlns:xlink="http://www.w3.org/1999/xlink"
   xmlns="http://www.w3.org/2000/svg"
   xmlns:svg="http://www.w3.org/2000/svg"
   xmlns:rdf="http://www.w3.org/1999/02/22-rdf-syntax-ns#"
   xmlns:cc="http://creativecommons.org/ns#"
   xmlns:dc="http://purl.org/dc/elements/1.1/">
  <metadata
     id="metadata8">
    <rdf:RDF>
      <cc:Work
         rdf:about="">
        <dc:format>
image/svg+xml</dc:format>
        <dc:type
           rdf:resource="http://purl.org/dc/dcmitype/StillImage" />
      </cc:Work>
    </rdf:RDF>
  </metadata>
  <defs
     id="defs6" />
  <g
     id="rt"
     style="opacity:0.25">
    <path
       style="fill:none;stroke:#cccccc;stroke-width:8;stroke-linecap:butt;stroke-linejoin:round;stroke-miterlimit:4;stroke-dasharray:none;stroke-opacity:1"
       id="subway-53rd"
       d="m 727.5,2313.5 25,-6.5 53.5,31 196,110 107,82 123.54,31.27 58.46,-27.27 7.36,-3.03 30.23,-32.2 15.32,-7.45 82.09,-6.31 5.83,-2.21" />
    <path
       style="fill:none;stroke:#cccccc;stroke-width:8;stroke-linecap:butt;stroke-linejoin:round;stroke-miterlimit:4;stroke-dasharray:none;stroke-opacity:1"
       id="subway-qblocal"
       d="m 1645.87,2469.75 -24.67,-14.56 -113.4,-72.49 -5.8,-0.44 -3.93,2.79 -53.07,81.94 -15.48,15.8" />
    <path
       style="fill:none;stroke:#cccccc;stroke-width:8;stroke-linecap:butt;stroke-linejoin:round;stroke-miterlimit:4;stroke-dasharray:none;stroke-opacity:1"
       id="subway-60th"
       d="m 796,2261 17,-2 41.92,27.88 23.3,3.27 154.81,85.07 201.97,118.78 18.3,16.85" />
    <path
       style="fill:none;stroke:#cccccc;stroke-width:8;stroke-linecap:butt;stroke-linejoin:round;stroke-miterlimit:4;stroke-dasharray:none;stroke-opacity:1"
       id="subway-concourse"
       d="m 1219.5,1348 21.5,-55.5 16.5,-12.5 48,-10 25,9 117.5,47 12.5,-7 34.5,-80 40,-54.5 13.5,-19 15.5,-26.5 23,-89.5 47.5,-43 79.5,-132 31.5,-75.5 19.5,-39 52.5,-89 45.5,-39 20,-64.5 12.5,-6.5 14,1 75.5,37" />
    <path
       style="fill:none;stroke:#cccccc;stroke-width:8;stroke-linecap:butt;stroke-linejoin:round;stroke-miterlimit:4;stroke-dasharray:none;stroke-opacity:1"
       id="subway-14th"
       d="m 521,2671 288,160 75,44 123,103 101,82 14,10 28,0 77.31,-10.37 4.19,1.64 2.44,3.05 14.07,38.69 11,67 4.71,29.07 3.8,4.16 5.11,2.27 78.37,-15.49 73,-16 17,-1 71,59 187,140 10,20 0,13 -46,70 -6,28 -2,32 11,28 13,23 5,22" />
    <path
       style="fill:none;stroke:#cccccc;stroke-width:8;stroke-linecap:butt;stroke-linejoin:round;stroke-miterlimit:4;stroke-dasharray:none;stroke-opacity:1"
       id="subway-8th"
       d="m 1486,702 -42,20 -45,21 -35,32 -30,46 -12,21 -30,59 -40,144 11,30 4,6 -12,97 1,33 -27,99 -11,42 -21,37 -26,76 -20,54 -33,51 -12,22 0,32 -15,29 -509,926 -55,101 36,86 -24,49 -19,50 -22,74 -3,30 2,36 -12,23 -45,71 0,0 0,0" />
    <path
       style="fill:none;stroke:#cccccc;stroke-width:8;stroke-linecap:butt;stroke-linejoin:round;stroke-miterlimit:4;stroke-dasharray:none;stroke-opacity:1"
       id="subway-culver"
       d="m 809,4260 70,479 3,26 -20,180 -7,68 -1,117 -3,26 2,20 -2,9 -28,7 -29,-4 -10,-3 -3,-17" />
    <path
       style="fill:none;stroke:#cccccc;stroke-width:8;stroke-linecap:butt;stroke-linejoin:round;stroke-miterlimit:4;stroke-dasharray:none;stroke-opacity:1"
       id="hm-downtown"
       d="m 160.5,2787.5 -7,51.5 2.5,18.5 -1.5,15 -9,17.5 -10,39.5 -6.5,52.5 -3,23.5 5.46,11.01 21.54,6.49 45.87,12.61 191.24,74.15 11.62,4.51 9.16,3.87 8.45,3.89 4.13,-1.73 5.05,-11.07 -0.73,-4.09 -7.71,-5.08 -10.37,-5.97 -11.43,-5.53 -153.58,-43.57 -30.09,-9.09 -47.64,-9.4" />
    <path
       style="fill:none;stroke:#cccccc;stroke-width:8;stroke-linecap:butt;stroke-linejoin:round;stroke-miterlimit:4;stroke-dasharray:none;stroke-opacity:1"
       id="subway-cranberry"
       d="m 443,3092 0,19 54,40 33,52 72,74 28,12 45,15 20,2 10,11 0,47 0.5,51 -6.5,15.5" />
    <path
       style="fill:none;stroke:#cccccc;stroke-width:8;stroke-linecap:butt;stroke-linejoin:round;stroke-miterlimit:4;stroke-dasharray:none;stroke-opacity:1"
       id="subway-steinway"
       d="m 696,2430.5 42,23 20.5,1.5 52,30 24.5,13 118.5,62.5 72,39 37.5,21.5 71,19 26,-2 39.5,-21 2.5,-9.5 -12,-27.5 10.5,-36.5 20,-30 13,-14.5 25,15.5" />
    <path
       style="fill:none;stroke:#cccccc;stroke-width:8;stroke-linecap:butt;stroke-linejoin:round;stroke-miterlimit:4;stroke-dasharray:none;stroke-opacity:1"
       id="subway-broadway"
       d="m 799,2261 -81,156 -9,41 -9,48 -9,74 -32,210 -8,19 -45,70 -68,106" />
    <path
       style="fill:none;stroke:#cccccc;stroke-width:8;stroke-linecap:butt;stroke-linejoin:round;stroke-miterlimit:4;stroke-dasharray:none;stroke-opacity:1"
       id="subway-montague"
       d="m 539,2983 -80,124 -8,2 -10.24,-5.06 -4.51,2.81 -20.25,41.25 -17,32 2,34.5 3.5,20.5 6.13,27.78 18.94,17.34 96.43,45.88 55,24 90,35 11,16 14,5 62,2" />
    <path
       style="fill:none;stroke:#cccccc;stroke-width:8;stroke-linecap:butt;stroke-linejoin:round;stroke-miterlimit:4;stroke-dasharray:none;stroke-opacity:1"
       id="subway-manhattanbr"
       d="m 539,2982 2,12 31,28 31,16 10,16 94,224 52,133" />
    <path
       style="fill:none;stroke:#cccccc;stroke-width:8;stroke-linecap:butt;stroke-linejoin:round;stroke-miterlimit:4;stroke-dasharray:none;stroke-opacity:1"
       id="subway-4th"
       d="m 809,3515 -8,18.5 -55.5,112 -57.5,92.5 -52,79 -144,184 -137,179 -61,78 -96,308 -4.5,15.5" />
    <path
       style="fill:none;stroke:#cccccc;stroke-width:8;stroke-linecap:butt;stroke-linejoin:round;stroke-miterlimit:4;stroke-dasharray:none;stroke-opacity:1"
       id="subway-seabeach"
       d="m 314,4231 c 1,4 6,17 6,17 l 53,18 59,22 151,122 26,47 132,105 15,21 7,18 35,248 16,101 -6,51 -20,82 -6,16 -5,25 5,47" />
    <path
       style="fill:none;stroke:#cccccc;stroke-width:8;stroke-linecap:butt;stroke-linejoin:round;stroke-miterlimit:4;stroke-dasharray:none;stroke-opacity:1"
       id="subway-canarsie"
       d="m 1683,3603 8,26 -4,40 -3,16 35,171 28,143 -8,25 -47,97" />
    <path
       style="fill:none;stroke:#cccccc;stroke-width:8;stroke-linecap:butt;stroke-linejoin:round;stroke-miterlimit:4;stroke-dasharray:none;stroke-opacity:1"
       id="subway-park"
       d="m 826,2489 -14,7 -105,194 -33,56 0,34 -9,36 -54,84 -18,29 -7,25 -53,73 -14,25 -3,16 -19,27 -31,15" />
    <path
       style="fill:none;stroke:#cccccc;stroke-width:8;stroke-linecap:butt;stroke-linejoin:round;stroke-miterlimit:4;stroke-dasharray:none;stroke-opacity:1"
       id="subway-joralemon"
       d="m 471,3107 -16,9 -29.5,46.5 -31.5,54.5 -4.57,14.48 1.9,9.4 10.63,20.47 24.08,22.77 47.96,33.88 79,59 31,8 90.43,19.38 14.69,1.62" />
    <path
       style="fill:none;stroke:#cccccc;stroke-width:8;stroke-linecap:butt;stroke-linejoin:round;stroke-miterlimit:4;stroke-dasharray:none;stroke-opacity:1"
       id="subway-jerome"
       d="m 1285,1683 27,-47 29,-50 35,-48 9,-17 28,-87 3,-11 -11,-64 7,-20 31,-67 36,-81 7,-19 13,-12 72,-132 33,-62 54,-74 18,-37 20,-48 47,-79 35,-62 39,-29 23,-20 13,-20 15,-37 47,-53 25,-31 35,-62" />
    <path
       style="fill:none;stroke:#cccccc;stroke-width:8;stroke-linecap:butt;stroke-linejoin:round;stroke-miterlimit:4;stroke-dasharray:none;stroke-opacity:1"
       id="subway-pelham"
       d="m 1368,1551 9,-1 34,34 117,63 45,27 13,-4 39,-24 9,-31 4,-21 31,-27 14,-8 49,-19 77,-95 22,-18 36,-26 15,-44 1,-30 11,-11 61,-6 36,-5 53,-21 122,-46 144,-22 85,-92 58,-39 61,-63 15,-23 13,-44 29,-20" />
    <path
       style="fill:none;stroke:#cccccc;stroke-width:8;stroke-linecap:butt;stroke-linejoin:round;stroke-miterlimit:4;stroke-dasharray:none;stroke-opacity:1"
       id="subway-westside"
       d="m 707,2424 20,-37 8,-25 18,-38 12,-31 5,-33 -5,-56 -1,-119 12,-54 32,-67 54,-86 26,-48 36,-67 5,-14 2,-32 5,-19 97,-173 123,-222 102,-185 127,-229 20,-36 20,-36 14,-20 49,-23 13,-14 57,-108 72,-74 16,-11 51,-89 46,-111" />
    <path
       style="fill:none;stroke:#cccccc;stroke-width:8;stroke-linecap:butt;stroke-linejoin:round;stroke-miterlimit:4;stroke-dasharray:none;stroke-opacity:1"
       id="subway-seventh"
       d="m 710,2420 -98,182 -57,100 -31,69 -27,65 -16,116 -7,52 -39,72 -13,18 -16,53 -13,36 -12.5,49 6,20.5 9,11" />
    <path
       style="fill:none;stroke:#cccccc;stroke-width:8;stroke-linecap:butt;stroke-linejoin:round;stroke-miterlimit:4;stroke-dasharray:none;stroke-opacity:1"
       id="subway-broad"
       d="m 435,3174.5 -8.5,14 -6,30.5 6,29 7.06,25.34 6.9,11.78" />
    <path
       style="fill:none;stroke:#cccccc;stroke-width:8;stroke-linecap:butt;stroke-linejoin:round;stroke-miterlimit:4;stroke-dasharray:none;stroke-opacity:1"
       id="subway-ashland"
       d="m 758.06,3408.71 13.94,32.29 5.4,8.4 14.6,15 10.42,6.54 6.58,44.06" />
    <path
       style="fill:none;stroke:#cccccc;stroke-width:8;stroke-linecap:butt;stroke-linejoin:round;stroke-miterlimit:4;stroke-dasharray:none;stroke-opacity:1"
       id="subway-clark"
       d="m 439.5,3066 4,13 22.5,14 20.5,25 5.5,8.5 -24,31.5 -21.5,29.5 -5,16 3.5,12.5 42.5,42.5 11.5,9.5 94.5,41 60,22 3,6.5 11,42 4,13.5 6.5,7 36,19 57,32 12,11 39.42,71.22" />
    <path
       style="fill:none;stroke:#cccccc;stroke-width:8;stroke-linecap:butt;stroke-linejoin:round;stroke-miterlimit:4;stroke-dasharray:none;stroke-opacity:1"
       id="subway-epkwy"
       d="m 907.34,3694.07 76.66,22.93 94.5,26 55.5,4.5" />
    <path
       style="fill:none;stroke:#cccccc;stroke-width:8;stroke-linecap:butt;stroke-linejoin:round;stroke-miterlimit:4;stroke-dasharray:none;stroke-opacity:1"
       id="subway-livonia"
       d="m 1131,3746.5 231.5,16.5 62.5,8.5 12,22 3.5,13 21.5,24 39.5,46.5 10,5.5 95,-17 101.5,-21 170,-33 47.5,-9" />
    <path
       style="fill:none;stroke:#cccccc;stroke-width:8;stroke-linecap:butt;stroke-linejoin:round;stroke-miterlimit:4;stroke-dasharray:none;stroke-opacity:1"
       id="subway-nostrand"
       d="m 1136,3745.5 -5.5,85.5 2,35 18,233.5 20,223.5" />
    <path
       style="fill:none;stroke:#cccccc;stroke-width:8;stroke-linecap:butt;stroke-linejoin:round;stroke-miterlimit:4;stroke-dasharray:none;stroke-opacity:1"
       id="subway-42nd"
       d="m 818.5,2484 -104,-59.5" />
    <path
       style="fill:none;stroke:#cccccc;stroke-width:8;stroke-linecap:butt;stroke-linejoin:round;stroke-miterlimit:4;stroke-dasharray:none;stroke-opacity:1"
       id="subway-jamaica"
       d="m 433,3177 19,-26 23,-31 17,-17 16,-13 20,-23 50,-90 10,-14 11,-3.5 159,68.5 224,91 32,12 14,16 93,43 154,115 72,55 320,239 56,43 107,-19 24,-6 187,-77 7,-9 -20,-76 4,-8 23,-11 50,-17 88,-17 54,-3 24,-9 43,-18 44,-10 62,-2 23,-12 43,-38 30,-19 31,-8 22.99,-6.03 45.01,-13.47 29.5,-9.5 49,-6.5 28,-0.59 30.5,3.59 31.5,8 28,0.5 32,-7 38.5,-15 48,-25.5 27.5,-13.5 14,-7.5" />
    <path
       style="fill:none;stroke:#cccccc;stroke-width:8;stroke-linecap:butt;stroke-linejoin:round;stroke-miterlimit:4;stroke-dasharray:none;stroke-opacity:1"
       id="subway-bg"
       d="m 397,3261.5 -7.5,-12.5 -2.46,-8.53 2.56,-8.87" />
    <path
       style="fill:none;stroke:#cccccc;stroke-width:8;stroke-linecap:butt;stroke-linejoin:round;stroke-miterlimit:4;stroke-dasharray:none;stroke-opacity:1"
       id="subway-cs"
       d="m 624.98,4120.53 16.02,0.97 11,0.5 64,50.5 82.5,65 9,8 4.5,34" />
    <path
       style="fill:none;stroke:#cccccc;stroke-width:8;stroke-linecap:butt;stroke-linejoin:round;stroke-miterlimit:4;stroke-dasharray:none;stroke-opacity:1"
       id="subway-stillwell"
       d="m 645,4804.5 66.5,55.5 15,11.5 6.5,16 18,132.5 19.5,22 9.5,25 -1,33 -2.5,29.5" />
    <path
       style="fill:none;stroke:#cccccc;stroke-width:8;stroke-linecap:butt;stroke-linejoin:round;stroke-miterlimit:4;stroke-dasharray:none;stroke-opacity:1"
       id="subway-brighton"
       d="m 822.5,3529.5 14.5,32 76,142.5 82,148 6,126 -35,155 31,216 52,357 39,276 1,48 -65,130 -91,27 -63,-6 -21.1,4.67" />
    <path
       style="fill:none;stroke:#cccccc;stroke-width:8;stroke-linecap:butt;stroke-linejoin:round;stroke-miterlimit:4;stroke-dasharray:none;stroke-opacity:1"
       id="subway-145th"
       d="m 1304.7,1425.61 -21.7,40.39" />
    <path
       style="fill:none;stroke:#cccccc;stroke-width:8;stroke-linecap:butt;stroke-linejoin:round;stroke-miterlimit:4;stroke-dasharray:none;stroke-opacity:1"
       id="subway-westend"
       d="m 493,4001 0.22,11.12 5.78,7.88 127.5,101.5 13.5,11 -14,21.5 -4,86 -11,98 -53,242 -23,101 5,37 13,17 92,69.5" />
    <path
       style="fill:none;stroke:#cccccc;stroke-width:8;stroke-linecap:butt;stroke-linejoin:round;stroke-miterlimit:4;stroke-dasharray:none;stroke-opacity:1"
       id="subway-franklin"
       d="m 1070,3577 2,14 -67.5,257.5 -4.59,6.85 -4.54,8.01" />
    <path
       style="fill:none;stroke:#cccccc;stroke-width:8;stroke-linecap:butt;stroke-linejoin:round;stroke-miterlimit:4;stroke-dasharray:none;stroke-opacity:1"
       id="subway-westfarms"
       d="m 926,1761 12,-4 82,44 91,-26 156,-280 22,-37 35,-6 50,-1 14,1 130,44 14,7 27,-11 55,6 196,-132.5 1.5,-82 34.5,-83.5 17,-34 32,-24 21,-8 29,-5 15,-16" />
    <path
       style="fill:none;stroke:#cccccc;stroke-width:8;stroke-linecap:butt;stroke-linejoin:round;stroke-miterlimit:4;stroke-dasharray:none;stroke-opacity:1"
       id="subway-wakefield"
       d="m 2070.5,1044 13.5,-35 14,-32 4.5,-214 3,-125 1.5,-71 17,-40 22,-35.5 100.5,-243 46.5,-82" />
    <path
       style="fill:none;stroke:#cccccc;stroke-width:8;stroke-linecap:butt;stroke-linejoin:round;stroke-miterlimit:4;stroke-dasharray:none;stroke-opacity:1"
       id="subway-flushing"
       d="m 1254.5,2512.5 24.5,14.5 31,37 26.5,30 8,3.5 38,6.5 114.5,19 30,5.5 9.5,-3 39,-16.5 50,-17 22,-2 38,-4.5 77,-12 50.5,-6 286.5,-40 79,-11 72,-27 153.5,-61 27.5,-14.5 19.5,-12 40,-11.5 47,-22" />
    <path
       style="fill:none;stroke:#cccccc;stroke-width:8;stroke-linecap:butt;stroke-linejoin:round;stroke-miterlimit:4;stroke-dasharray:none;stroke-opacity:1"
       id="subway-lexington"
       d="m 826,2490 15,-3 119,-214 68,-122 70,-129 177,-319 12,-22" />
    <path
       style="fill:none;stroke:#cccccc;stroke-width:8;stroke-linecap:butt;stroke-linejoin:round;stroke-miterlimit:4;stroke-dasharray:none;stroke-opacity:1"
       id="subway-astoria"
       d="m 1280.5,2527 16.5,2 44.5,-49.5 18.5,-28.5 62,-103 61,-99.5 40.5,-47.5 65.5,-69 6,-7" />
    <path
       style="fill:none;stroke:#cccccc;stroke-width:8;stroke-linecap:butt;stroke-linejoin:round;stroke-miterlimit:4;stroke-dasharray:none;stroke-opacity:1"
       id="subway-smith"
       d="m 699.17,3429.76 -32.17,66.24 -43,89 -28,55 -9,23 9,16 91,67 33,16 103,64 2,12 -46.5,74 0.25,9.5 52.25,41 11.5,79.25 1.75,13.25 -5.27,10.63 -48.98,25.37 -3.5,8.5 10,67 1,5 9.87,80.99" />
    <path
       style="fill:none;stroke:#cccccc;stroke-width:8;stroke-linecap:butt;stroke-linejoin:round;stroke-miterlimit:4;stroke-dasharray:none;stroke-opacity:1"
       id="subway-stfelix"
       d="m 801.46,3470.76 13.55,6.33 7.49,52.41" />
    <path
       style="fill:none;stroke:#cccccc;stroke-width:8;stroke-linecap:butt;stroke-linejoin:round;stroke-miterlimit:4;stroke-dasharray:none;stroke-opacity:1"
       id="subway-149th"
       d="m 1398,1477 -9,-9 5,-9 6.08,-3.2" />
    <path
       style="fill:none;stroke:#cccccc;stroke-width:8;stroke-linecap:butt;stroke-linejoin:round;stroke-miterlimit:4;stroke-dasharray:none;stroke-opacity:1"
       id="el-pologrounds"
       d="m 1287.5,1299.5 20.5,-35.5 47,-9.5 68,29 18.51,-8.35" />
    <path
       style="fill:none;stroke:#cccccc;stroke-width:8;stroke-linecap:butt;stroke-linejoin:round;stroke-miterlimit:4;stroke-dasharray:none;stroke-opacity:1"
       id="el-thirdbronx"
       d="m 1501.5,1510.5 35.5,-26 28,-34 21.5,-42.5 26.5,-10 14,-35.5 32.5,-109 26,-52 37,-65.5 16.5,-33 20.5,-49 22,-61.5 9.5,-24 43.5,-62 -7.5,-28.5 -0.5,-53.5 15.5,-37.59" />
    <path
       style="fill:none;stroke:#cccccc;stroke-width:8;stroke-linecap:butt;stroke-linejoin:round;stroke-miterlimit:4;stroke-dasharray:none;stroke-opacity:1"
       id="el-webster"
       d="m 1840.35,788.83 6.15,-12.83 29.5,-34 59.5,-45.5 42,-32.5 16.5,-11.5 20.5,-26.5 22.5,-40.5 17.5,-47 19,4 38.53,11.76" />
    <path
       style="fill:none;stroke:#cccccc;stroke-width:8;stroke-linecap:butt;stroke-linejoin:round;stroke-miterlimit:4;stroke-dasharray:none;stroke-opacity:1"
       id="hm-parklane"
       d="m 179.5,2800 -14.5,3.5 -7.5,9.5" />
    <path
       style="fill:none;stroke:#cccccc;stroke-width:8;stroke-linecap:butt;stroke-linejoin:round;stroke-miterlimit:4;stroke-dasharray:none;stroke-opacity:1"
       id="hm-columbus"
       d="m 114,3010.5 24,8" />
    <path
       style="fill:none;stroke:#cccccc;stroke-width:8;stroke-linecap:butt;stroke-linejoin:round;stroke-miterlimit:4;stroke-dasharray:none;stroke-opacity:1;marker-start:none"
       id="hm-grove"
       d="m 126,3006.5 -8.25,5.6 -61.77,-25.76" />
    <path
       style="fill:none;stroke:#cccccc;stroke-width:8;stroke-linecap:butt;stroke-linejoin:round;stroke-miterlimit:4;stroke-dasharray:none;stroke-opacity:1"
       id="subway-myrtle"
       d="m 1847,3098 -11,45 -26,33 -168,56 -46,59 -29,7 -230,29 -148.5,25 -233,35 -33,5 -77,-2 -130,-8" />
    <path
       d="m 1958.01,1113.43 11.49,-1.43 8,2.5 16,4 26,-4.5 43.5,-41 9,-31"
       id="subway-180th"
       style="fill:none;stroke:#cccccc;stroke-width:8;stroke-linecap:butt;stroke-linejoin:round;stroke-miterlimit:4;stroke-dasharray:none;stroke-opacity:1" />
    <path
       style="fill:none;stroke:#cccccc;stroke-width:8;stroke-linecap:butt;stroke-linejoin:round;stroke-miterlimit:4;stroke-dasharray:none;stroke-opacity:1"
       id="subway-rutgers"
       d="m 530.98,2834.96 4.02,23.04 49,32 77,33 49,21 5,9 -25,61 -18,53 8,63 2,19 30.5,58.46 -7.03,114.69" />
    <path
       style="fill:none;stroke:#cccccc;stroke-width:8;stroke-linecap:butt;stroke-linejoin:round;stroke-miterlimit:4;stroke-dasharray:none;stroke-opacity:1"
       id="subway-fulton"
       d="m 699.03,3432.02 5.97,13.98 10,9 69,34 16,4 33,-6 32,15 66,35 139,38 32,9 82,7 232,16" />
    <path
       style="fill:none;stroke:#cccccc;stroke-width:8;stroke-linecap:butt;stroke-linejoin:round;stroke-miterlimit:4;stroke-dasharray:none;stroke-dashoffset:0;stroke-opacity:1;marker-start:none"
       id="hm-newark"
       d="M 55.98,2986.34 2.18e-4,2963 -61.5,2937 l -14,-11 -17.5,-31.5 -12.5,-22.5 -23.5,-30 -49,-53 -15.5,-19.5 -24.5,-25.5 -31.5,-15 -62.5,-26 -103.5,-34 -29.5,-12.5 -14.5,-3.5 -105.5,-4 -73.5,-3.5 -55.5,-4.5 -87,-14 -55,-4 -78.5,-2 -46,4 -85.5,6.5 -104.5,10.5 -55.5,8.5 -16,5.5 -47.5,37 -24.5,24.5 -20,10 -22.5,17.5 -31,27.5" />
    <path
       style="fill:none;stroke:#cccccc;stroke-width:8;stroke-linecap:butt;stroke-linejoin:round;stroke-miterlimit:4;stroke-dasharray:none;stroke-opacity:1"
       id="subway-crosstown"
       d="m 830.93,3487.54 325.07,-50.54 2,-7 -17,-123 -4,-41 2,-54 -22,-187 -4,-28 26,-42 1,-11 -10.07,-23.25 -31.93,-73.75 -8,-29 -13,-121 10,-46 61,-45 65.88,-36.8 34.18,-14.62" />
    <path
       style="fill:none;stroke:#cccccc;stroke-width:8;stroke-linecap:butt;stroke-linejoin:round;stroke-miterlimit:4;stroke-dasharray:none;stroke-opacity:1"
       id="subway-qbexpress"
       d="m 2953.08,3132.15 -248.08,92.3 -26.5,-4.72 -4.5,-8.73 -34,-81.41 -42,-22.59 -58.66,-32.46 -12.84,-10.79 -54.25,-51.25 -153.25,-90 -32,-37.5 -151.5,-76.25 -116.25,-56.5 -24.75,-21.5 -9.25,-46.75 -26.5,-30.25 -44,-33 -60.75,-35.25 -203,-113.75 -19.5,-7 -16.75,3.5 -17.75,0.5 -56.5,-12 -33,0.25 -19.75,6.25 -39.75,10.5 -18.81,9.95" />
    <path
       style="fill:none;stroke:#cccccc;stroke-width:8;stroke-linecap:butt;stroke-linejoin:round;stroke-miterlimit:4;stroke-dasharray:none;stroke-opacity:1"
       id="subway-sixth"
       d="m 742.81,2287 8.19,25.5 40.23,23.05 3.45,12.31 -201.68,367.14 -33.69,58.14" />
    <path
       style="fill:none;stroke:#cccccc;stroke-width:8;stroke-linecap:butt;stroke-linejoin:round;stroke-miterlimit:4;stroke-dasharray:none;stroke-opacity:1"
       id="hm-midtown"
       d="m 684.5,2537.5 -100.5,184 -20,41 -98,20.5 -6.5,27 -136.5,-4.5 -116,-3 -23.5,-1.5 -15,-4 -7.5,-7.5 1,-21 5.5,-22 8.5,-6 14,-1 42.5,2" />
    <path
       style="fill:none;stroke:#cccccc;stroke-width:8;stroke-linecap:butt;stroke-linejoin:round;stroke-miterlimit:4;stroke-dasharray:none;stroke-opacity:1"
       id="subway-dyre"
       d="m 2539,368 -49,90 -69,107 -91,142 -48,72 -36,59 -30,40 -58,62 -55,57 -17,26 -19.54,36" />
    <path
       d="m 684,3459.25 13.03,-5.29 18.48,0.95"
       id="subway-schermerhorncurve"
       style="fill:none;stroke:#cccccc;stroke-width:8;stroke-linecap:butt;stroke-linejoin:round;stroke-miterlimit:4;stroke-dasharray:none;stroke-opacity:1" />
    <path
       style="fill:none;stroke:#cccccc;stroke-width:8;stroke-linecap:butt;stroke-linejoin:round;stroke-miterlimit:4;stroke-dasharray:none;stroke-opacity:1"
       id="subway-hillside"
       d="m 2954.5,3135 58.5,-29.5 19.5,2.5 37.5,-9.5" />
    <path
       d="m -287,4150 -15.5,12 -9,23.5 -8,28 0.5,19.5 11,73 -4.5,22 -8,20.5 3.5,62 7,20.5 11.5,19.5 18.5,33 8,16.5 0,20 -9,15.5 -23,17.5 -16,23.5 -33,77 -16,31.5 -19,34 -28,45 -19.5,32.5 -7,23 -17,52 -11,23.5 -20,29 -47,45.5 -78.5,76.5 -136,130 -92.5,88.5 -38,53.5 -26.5,34 -22.5,23.5"
       id="sirt-main"
       style="fill:none;stroke:#cccccc;stroke-width:8;stroke-linecap:butt;stroke-linejoin:round;stroke-miterlimit:4;stroke-dasharray:none;stroke-opacity:1" />
    <path
       d="m 1218,2484.5 4.5,8.5 0,30.5 4.5,8.5 15,10 10.53,1.52 15.86,0.36"
       id="subway-11th"
       style="fill:none;stroke:#cccccc;stroke-width:8;stroke-linecap:butt;stroke-linejoin:round;stroke-miterlimit:4;stroke-dasharray:none;stroke-opacity:1" />
    <path
       d="m 1416,3607 237,18 48,-6 30,7 24,19 10,40 4,20 13,11 207,-39 60,-13"
       id="subway-pitkin"
       style="fill:none;stroke:#cccccc;stroke-width:8;stroke-linecap:butt;stroke-linejoin:round;stroke-miterlimit:4;stroke-dasharray:none;stroke-opacity:1" />
    <path
       d="m 2048,3664 70,-12 14,-16 30,-27 28,-6 174,-12 55,-14 44,-16 43,-31 48,-24 49,-8"
       id="subway-liberty"
       style="fill:none;stroke:#cccccc;stroke-width:8;stroke-linecap:butt;stroke-linejoin:round;stroke-miterlimit:4;stroke-dasharray:none;stroke-opacity:1" />
    <path
       d="m 2781,4932 -7,37 -19,22 -59,33 -68,33 -103,41 -70,28"
       id="subway-rockpark"
       style="fill:none;stroke:#cccccc;stroke-width:8;stroke-linecap:butt;stroke-linejoin:round;stroke-miterlimit:4;stroke-dasharray:none;stroke-opacity:1" />
    <path
       d="m 2400.47,3580.97 20.53,6.03 74,201 52,144 9,29 75,371 66,343 10,40 69,208 13,26 26,18 32,6 101,-15 54,-19 62,3 86,-8 72,-12 70,-56 35,-29 25.91,-37.21 64.45,-47.1"
       id="subway-rockaway"
       style="fill:none;stroke:#cccccc;stroke-width:8;stroke-linecap:butt;stroke-linejoin:round;stroke-miterlimit:4;stroke-dasharray:none;stroke-opacity:1" />
  </g>
  <path
     d="m 408.38,2186.14 c 55.78,25.8 85.45,112.76 130.29,143.62"
     id="Weehawken_Ferry"
     style="fill:none;stroke:#00ffff;stroke-width:5;stroke-linecap:butt;stroke-linejoin:round;stroke-miterlimit:4;stroke-dasharray:none;stroke-opacity:1" />
  <path
     d="m 410.51,2186.85 c 90.51,69.69 -177.41,860.39 -26.69,911.45"
     id="West_Shore_Ferry"
     style="fill:none;stroke:#00ffff;stroke-width:5;stroke-linecap:butt;stroke-linejoin:round;stroke-miterlimit:4;stroke-dasharray:none;stroke-opacity:1" />
  <path
     d="m 247.49,2746.37 c 119.67,57.72 67.27,214.36 144.07,312.82"
     id="Hoboken_Ferry"
     style="fill:none;stroke:#00ffff;stroke-width:5;stroke-linecap:butt;stroke-linejoin:round;stroke-miterlimit:4;stroke-dasharray:none;stroke-opacity:1" />
  <path
     d="m 203.44,2869.07 c 63.13,4.13 128.35,139.78 196.85,148.24"
     id="Pavonia_Ferry"
     style="fill:none;stroke:#00ffff;stroke-width:5;stroke-linecap:butt;stroke-linejoin:round;stroke-miterlimit:4;stroke-dasharray:none;stroke-opacity:1" />
  <path
     d="m 151.25,3173.49 c 98.2,9.3 159.04,-65.4 227.29,-54.85"
     id="Communipaw_Ferry"
     style="fill:none;stroke:#00ffff;stroke-width:5;stroke-linecap:butt;stroke-linejoin:round;stroke-miterlimit:4;stroke-dasharray:none;stroke-opacity:1" />
  <image
     xlink:href="../../basemap/nycosm.png"
     x="-1280"
     y="-2048"
     width="7168"
     height="8448"
     id="basemap"
     style="display:none;fill:#ff0000" />
  <text
     style="font-style:normal;font-weight:normal;font-size:144px;line-height:125%;font-family:Sans;-inkscape-font-specification:Sans;letter-spacing:0px;word-spacing:0px;fill:#000000;fill-opacity:1;stroke:none"
     xml:space="preserve"
     id="year-bot"
     y="5273.96"
     x="-1752.55"><tspan
   id="tspan2"
   y="5273.96"
   x="-1752.55">1957</tspan>
</text>
  <path
     d="m 405.53,3276.71 c 37.66,83.79 -372.04,117 -692.61,859.28"
     id="Staten_Island_Ferry"
     style="fill:none;stroke:#00ffff;stroke-width:5;stroke-linecap:butt;stroke-linejoin:round;stroke-miterlimit:4;stroke-dasharray:none;stroke-opacity:1" />
  <path
     d="m -286.7,4135.81 c 155,-79.09 279.61,59.04 412.86,85.3"
     id="Brooklyn_and_Richmond_Ferry"
     style="fill:none;stroke:#00ffff;stroke-width:5;stroke-linecap:butt;stroke-linejoin:round;stroke-miterlimit:4;stroke-dasharray:none;stroke-opacity:1" />
  <path
     style="fill:none;stroke:#ff6600;stroke-width:5;stroke-linecap:butt;stroke-linejoin:round;stroke-miterlimit:4;stroke-dasharray:none;stroke-opacity:1"
     id="PSCT_E7:_City_Subway"
     d="m -1342.49,2757.85 -14.38,-15.51 -88.12,-34.84 -97,-38.5 -14,-11.5 -2.5,-17 10,-22 -2,-9.5 -6,-9.5 -29.5,-14.5 -15,-8.5 -5.5,-9 -6,-17.5 0.5,-19.5 12.5,-20.5 13,-11 1,-10 1,-10.5 -6,-23.5 -5.5,-18 -4.5,-19.5 3,-28.5 14,-39 27.5,-33.5 13,-23 29,-55 6.5,-16.5 -2.5,-18 -10,-44 4,-15 9,-25 24.5,-45 6.5,-12.5 -0.5,-13.5 -1.31,-6.29" />
  <path
     style="fill:none;stroke:#00ffff;stroke-width:5;stroke-linecap:butt;stroke-linejoin:round;stroke-miterlimit:4;stroke-dasharray:none;stroke-opacity:1"
     id="Howland_Hook_Ferry"
     d="m -1613.67,4156.58 c -9.56,-13.22 7.19,-27.87 -0.17,-42.58" />
  <path
     style="fill:none;stroke:#00ffff;stroke-width:5;stroke-linecap:butt;stroke-linejoin:round;stroke-miterlimit:4;stroke-dasharray:none;stroke-opacity:1"
     id="Bergen_Point_Ferry"
     d="m -969.79,4198.58 c -3.28,-37.17 6.67,-36.45 4.63,-70.12" />
  <text
     style="font-style:normal;font-weight:normal;font-size:144px;line-height:125%;font-family:Sans;-inkscape-font-specification:Sans;letter-spacing:0px;word-spacing:0px;fill:#000000;fill-opacity:1;stroke:none"
     xml:space="preserve"
     id="year-top"
     y="222.96"
     x="-1752.55"><tspan
   id="tspan1"
   y="222.96"
   x="-1752.55">1957</tspan>
</text>
</svg>
