<?xml version="1.0" encoding="UTF-8" standalone="no"?>
<!-- Created with Inkscape (http://www.inkscape.org/) -->

<svg
   version="1.1"
   id="svg1"
   width="9250"
   height="4400"
   viewBox="0 0 9250 4400"
   xml:space="preserve"
   xmlns:xlink="http://www.w3.org/1999/xlink"
   xmlns="http://www.w3.org/2000/svg"
   xmlns:svg="http://www.w3.org/2000/svg"><defs
     id="defs1" /><image
     width="9731"
     height="5307.82"
     preserveAspectRatio="none"
     xlink:href="../basemap/yiwosm.png"
     id="image1"
     x="-50"
     y="-900"
     style="display:none" /><path
     style="fill:none;stroke:#d70d19;stroke-width:5;stroke-linejoin:round;stroke-opacity:1"
     d="m 113,3854.5 12.5,43.25 28.25,57.25 27.75,50.75 16.5,53.75 16.75,92.5 16.75,95 8,14.5 11,10.25 12,6.5 20,1 23.5,-1.75 259,-46.75 15.75,-7.5 17.5,-15 39.75,-40 44.75,-31.5 87.5,-52.25 128.75,-53.75 32.5,-5.25 464.25,-2.5 27.25,-7.25 22,-11.5 19.75,-16.75 16.25,-24 8.5,-27.75 2,-28.75 -5,-46.25 -34.5,-170.25 -6.75,-71.75 2.5,-20 5,-15.5 13.25,-13.25 48.75,-30.75 40.25,-33.75 80.5,-71.25 29.5,-18.5 20.5,-7.25 30,-7.5 220,-38.5 26,-11.25 291,-163.75 23,-17.25 17,-19.75 9.75,-16.75 7.25,-21.25 14.25,-85.75 6.75,-20.25 10.75,-15.5 11,-11.75 19.75,-13.25 183.25,-74.25 154.5,-19 26.25,-9 185.25,-79.75 48.75,-27.25 122.75,-83 117.5,-78.5 30.75,-15.25 32.5,-12.5 153.25,-45.25 207,-72 42.5,-20 57,-35.75 11.25,-5 19,-3 18.25,3 23.75,7.25 17.75,-0.25 15.75,-3.75 20.75,-12.75 80.5,-85.75 90.75,-83.5 19.5,-14 30,-15.5 76.25,-36.25 90.75,-51 21,-9.25 34.25,-12 44.75,-21.25 123.25,-64.75 120.75,-61.5 17,-11.75 62.5,-64.5 27.25,-33 97.5,-98 20.5,-14.5 54.75,-35.75 27.25,-14.75 39.5,-15.25 20.25,-9.75 21,-16 85.75,-84.25 21.75,-19.25 178.25,-128.25 87.25,-60.75 45.25,-39 102.75,-71.5 87.25,-54.25 59.25,-35 11.75,-10.5 12.5,-16.5 8.5,-16 77.25,-162.5 13.25,-19 16.5,-20.25 18.25,-14.75 179,-143.25 14.25,-14.75 16,-19.75 78.75,-124.25 20.25,-28 15,-14.75 24.5,-20.75 67.25,-68 20.5,-28.5 10,-7.25 19.75,-4.75 17,4.75 56,29.75 76.5,29.25 24,7.25 11.25,0.75 125.25,6.75 24.25,-3 70,-16 214.5,-69.25 21.25,-3.5 19.5,3.25 16.25,11.25 7.75,12 4.5,13.75 2,17.25 -0.25,47.25 -3.25,57.75 3.75,26.75 6,22.25 7.75,21 10.5,22.75 21,33.75 21.75,22.25 18.75,18.25 22,16.75 22,11.75 225,114.25 67,40.5 119.5,72.75 146.5,89 28,23 21.75,21.75 70.75,75.25 10,6.75 15.5,5.75 84.5,21.75 361.5,63.25 82.5,15 13,3.5 12.75,7.5 58.75,47.25 18.25,7.75 16.75,4.5 47.75,6 40.75,3 24.25,-1.25 136.25,-18 21.25,4.25 20.5,12 9.75,15 6.75,16.75 59.5,239.25 2.75,24.75 1.5,24.75 -6,54.25 -7.75,30.5 -11.25,28 -18.75,43 -14,20.75 -181.75,267.75 -7,19.25 -23.5,112.75 -17.5,87.5 2.5,29.25 8.75,30 8.75,20 26,41.5 19,41.75 47.75,106.25 9.75,11.5 16.75,11.75 35,15 19.75,16.25 30.25,30.75 16.5,12.75 44,22.25 22,9.25 26,2.5 75,-8.5 31.25,-2.25 122.75,2.25 17.5,8.5 6.75,11.5 3,14 5.5,66.5"
     id="path1" /><path
     style="fill:none;stroke:#d70d19;stroke-width:5;stroke-linejoin:round;stroke-opacity:1"
     d="m 6172.35,474.43 -18.55,7.26 -16.62,2.12 -17.85,-2.65 -19.8,-11.31 -49.14,-43.31 -122.33,-86.8 -82.73,-57.81 -13.08,-14.85 -15.38,-24.22 -53.56,-124.1"
     id="path2" /><text
     x="89.45"
     y="206.96"
     id="text3652"
     xml:space="preserve"
     style="font-style:normal;font-weight:normal;font-size:144px;font-family:Sans;-inkscape-font-specification:Sans;fill:#000000;fill-opacity:1;stroke:none"><tspan
       x="89.45"
       y="206.96"
       id="tspan1">2025</tspan></text></svg>
