<?xml version="1.0" encoding="UTF-8" standalone="no"?>
<svg
   version="1.1"
   id="svg2"
   width="2000"
   height="2950"
   viewBox="0 0 2000 2950"
   xmlns:xlink="http://www.w3.org/1999/xlink"
   xmlns="http://www.w3.org/2000/svg"
   xmlns:svg="http://www.w3.org/2000/svg"
   xmlns:rdf="http://www.w3.org/1999/02/22-rdf-syntax-ns#"
   xmlns:cc="http://creativecommons.org/ns#"
   xmlns:dc="http://purl.org/dc/elements/1.1/">
  <metadata
     id="metadata8">
    <rdf:RDF>
      <cc:Work
         rdf:about="">
        <dc:format>image/svg+xml</dc:format>
        <dc:type
           rdf:resource="http://purl.org/dc/dcmitype/StillImage" />
      </cc:Work>
    </rdf:RDF>
  </metadata>
  <defs
     id="defs6" />
  <image
     xlink:href="../basemap/bhzosm.png"
     style="display:none;stroke-width:1;stroke-miterlimit:4;stroke-dasharray:none"
     y="-233.33"
     x="-267.33"
     id="image10"
     preserveAspectRatio="none"
     height="3490.66"
     width="2538.67" />
  <path
     style="opacity:1;fill:none;fill-opacity:0.02;fill-rule:nonzero;stroke:#eb7303;stroke-width:5;stroke-linecap:butt;stroke-linejoin:round;stroke-miterlimit:4;stroke-dasharray:none;stroke-opacity:1"
     d="m 99.83,2084.73 33.06,28.27 20.12,31.62 11.02,10.06 30.67,10.06 68.52,27.79 58.93,4.79 17.73,-5.75 27.79,-25.87 13.9,-6.23 40.25,-7.67 47.91,-34.02 9.1,-13.9 13.42,-25.87 14.85,-11.02 18.69,-4.31 20.12,4.31 22.52,4.31 19.17,-3.35 17.25,-15.81 12.46,-38.81 12.46,-20.6 35.94,-46.48 40.25,-23.96 30.67,-19.17 66.12,-31.62 18.21,-2.87 15.81,4.31 31.14,13.9 21.08,3.83 19.64,-4.31 15.33,-12.46 69.48,-66.6 24.44,-29.23 15.81,-5.75 17.25,-0.48 31.14,8.62 52.23,-5.75 46.96,-21.56 22.04,-3.35 57.98,11.5 21.08,-1.44 16.77,-7.19 27.79,-32.1 20.6,-21.56 42.16,-18.21 18.69,-0.48 30.19,13.42 15.33,3.35 31.62,-2.4 14.85,6.23 6.71,12.94 v 15.33 l -19.64,66.12 2.87,9.58 9.1,10.54 11.98,6.23 24.92,-6.71 11.98,-3.83 36.41,-4.79 29.23,-1.44 15.81,0.96 30.19,-12.94 32.58,-5.27 26.83,0.48 30.67,3.83 16.77,-4.79 25.39,-18.69 24.44,-15.33 24.44,-35.46 4.31,-15.33 -4.79,-21.56 -13.9,-9.58 -31.14,-17.25 -9.58,-10.54 -8.15,-19.64 4.31,-20.12 4.31,-23.96 3.35,-13.9 17.25,-33.54 3.35,-34.5 11.02,-12.46 13.9,-14.37 3.83,-16.77 -5.75,-19.64 -12.46,-15.33 -19.64,-67.56 v -17.25 l 5.75,-32.58 -1.44,-15.81 -29.71,-70.43 -11.02,-13.9 -146.62,-122.66 -22.04,-27.79 -12.46,-32.1 -7.19,-19.64 3.83,-16.77 13.42,-31.62 1.92,-17.25 -4.31,-22.04 -13.9,-23.96 -12.46,-15.81 -23.48,-9.1 -39.77,-2.87 -11.98,-8.15 -11.98,-12.46 -10.54,-16.29 -2.4,-25.87 4.31,-23 26.35,-51.27 7.67,-34.98 -2.4,-23.48 -6.71,-27.79 -21.56,-30.19 -14.85,-20.12 -18.21,-29.23 -37.85,-30.67 -7.19,-9.58 -2.87,-20.12 -3.35,-38.81 -6.71,-20.12 -58.93,-123.62 -8.62,-9.1 -45.04,-21.56"
     id="path4506" />
  <path
     style="opacity:1;fill:none;fill-opacity:0.02;fill-rule:nonzero;stroke:#bcd646;stroke-width:5;stroke-linecap:butt;stroke-linejoin:round;stroke-miterlimit:4;stroke-dasharray:none;stroke-opacity:1"
     d="m 1394.95,1703.33 -7.43,-1.65 -5.93,-3.05 -7.54,-17.29 0.68,-29.47 -5.42,-9.83 -17.62,-20.33 -7.45,-31.51 -13.21,-21.01 -3.73,-32.86 -38.96,-64.71 -20.67,-24.73 -19.65,-66.74 7.11,-39.3 -4.4,-14.57 -16.94,-26.77 -1.69,-17.28 11.18,-35.91 -1.36,-12.87 -33.54,-102.32"
     id="path4559" />
  <path
     style="opacity:1;fill:none;fill-opacity:0.02;fill-rule:nonzero;stroke:#bcd646;stroke-width:5;stroke-linecap:butt;stroke-linejoin:round;stroke-miterlimit:4;stroke-dasharray:none;stroke-opacity:1"
     d="m 1095.5,397.66 -7.19,6.23 -20.12,32.1 -68.52,149.97 v 19.17 l 17.73,40.25 -4.79,45.52 2.87,15.33 64.68,64.21 23,66.12 74.57,209.02"
     id="path4561" />
  <path
     style="opacity:1;fill:none;fill-opacity:0.02;fill-rule:nonzero;stroke:#bcd646;stroke-width:5;stroke-linecap:butt;stroke-linejoin:round;stroke-miterlimit:4;stroke-dasharray:none;stroke-opacity:1"
     d="m 1110.34,388.09 47.44,-27.79 81.45,-104.45 5.27,-2.4 10.06,3.83 -1.92,12.94 13.84,17.86 22.47,10.35"
     id="path4563" />
  <path
     style="opacity:1;fill:none;fill-opacity:0.02;fill-rule:nonzero;stroke:#bcd646;stroke-width:5;stroke-linecap:butt;stroke-linejoin:round;stroke-miterlimit:4;stroke-dasharray:none;stroke-opacity:1"
     d="m 1526.24,1546.17 20.12,-6.71 11.02,-6.71 6.71,-12.46 14.37,-88.64 -8.15,-39.77 -22.04,-72.83 2.4,-36.89"
     id="path4569" />
  <path
     style="opacity:1;fill:none;fill-opacity:0.02;fill-rule:nonzero;stroke:#bcd646;stroke-width:5;stroke-linecap:butt;stroke-linejoin:round;stroke-miterlimit:4;stroke-dasharray:none;stroke-opacity:1"
     d="m 1556.42,1147.05 19.64,-70.91 -2.4,-23 -6.71,-26.35 -2.4,-14.37 13.9,-45.52 v -12.94"
     id="path4571" />
  <path
     style="opacity:1;fill:none;fill-opacity:0.02;fill-rule:nonzero;stroke:#bcd646;stroke-width:1;stroke-linecap:butt;stroke-linejoin:round;stroke-miterlimit:4;stroke-dasharray:none;stroke-opacity:1"
     d="m 1550.68,1282.17 0.48,-15.81 -12.46,-34.02 v -19.17 l 17.73,-66.12"
     id="path4599" />
  <path
     style="opacity:1;fill:none;fill-opacity:0.02;fill-rule:nonzero;stroke:#bcd646;stroke-width:1;stroke-linecap:butt;stroke-linejoin:round;stroke-miterlimit:4;stroke-dasharray:none;stroke-opacity:1"
     d="m 1208.37,1131.12 -30.64,-85.54"
     id="path4601" />
  <path
     style="opacity:1;fill:none;fill-opacity:0.02;fill-rule:nonzero;stroke:#bcd646;stroke-width:1;stroke-linecap:butt;stroke-linejoin:round;stroke-miterlimit:4;stroke-dasharray:none;stroke-opacity:1"
     d="m 1095.49,397.67 14.85,-9.58"
     id="path4603" />
  <path
     style="opacity:1;fill:none;fill-opacity:0.02;fill-rule:nonzero;stroke:#bcd646;stroke-width:5;stroke-linecap:butt;stroke-linejoin:round;stroke-miterlimit:4;stroke-dasharray:none;stroke-opacity:1"
     d="m 1216.47,285.07 2.64,-33.54"
     id="path4636" />
  <path
     style="opacity:1;fill:none;fill-opacity:0.02;fill-rule:nonzero;stroke:#bcd646;stroke-width:1;stroke-linecap:butt;stroke-linejoin:round;stroke-miterlimit:4;stroke-dasharray:none;stroke-opacity:1"
     d="m 1219.11,251.53 -3.11,-9.1 -21.08,-39.53 -20.84,-22.28 -62.77,-33.3 -23,-1.44 -15.33,-3.35 -24.44,-20.36 -45.04,-12.94 -21.08,-26.59 -17.73,-13.66 -7.43,4.31 7.91,10.54 6.95,9.82 -6.47,5.03 9.1,11.26 5.03,-3.59 5.51,0.48 7.67,-6.47 4.07,0.24"
     id="path4638" />
  <path
     style="opacity:1;fill:none;fill-opacity:0.02;fill-rule:nonzero;stroke:#bcd646;stroke-width:1;stroke-linecap:butt;stroke-linejoin:round;stroke-miterlimit:4;stroke-dasharray:none;stroke-opacity:1"
     d="m 1217.69,246.5 6.61,6.44 2.03,5.93 31.34,17.79"
     id="path4674" />
  <path
     style="opacity:1;fill:none;fill-opacity:0.02;fill-rule:nonzero;stroke:#bcd646;stroke-width:1;stroke-linecap:butt;stroke-linejoin:round;stroke-miterlimit:4;stroke-dasharray:none;stroke-opacity:1"
     d="m 1288.95,298.43 23.01,9.06 12.87,4.65 5.25,11.02 54.12,113.33 7.03,21.18 3.22,39.1 2.96,19.26 6.18,8.39 38.2,30.92 19.06,30.41 14.57,19.74 21.34,29.81 6.95,28.54 2.54,24.39 -7.88,35.91 -26.26,50.82 -4.24,22.45 2.37,25.58 2.2,18.97 17.11,41.93 17.87,43.03 14.99,13.81 28.99,0.88 7.05,4.03 4.54,5.26 6.77,1.38 5.84,-0.4 3.66,4.01"
     id="path4676" />
  <path
     style="opacity:1;fill:none;fill-opacity:0.02;fill-rule:nonzero;stroke:#bcd646;stroke-width:1;stroke-linecap:butt;stroke-linejoin:round;stroke-miterlimit:4;stroke-dasharray:none;stroke-opacity:1"
     d="m 1551.44,941.59 7.01,-6.98 9.74,-3.39 4.49,1.78 0.93,3.3 -4.91,5 -4.33,2.22 0.29,4.45 5.14,4.29"
     id="path4680" />
  <path
     style="opacity:1;fill:none;fill-opacity:0.02;fill-rule:nonzero;stroke:#bcd646;stroke-width:1;stroke-linecap:butt;stroke-linejoin:round;stroke-miterlimit:4;stroke-dasharray:none;stroke-opacity:1"
     d="m 1462.14,1747.35 -16.26,-4.35 -57.6,-15.25 -6.44,2.37 -4.74,6.1 -20.33,74.54 -0.34,7.79 7.62,17.36 -3.9,16.01 0.51,2.71 91.63,23.53 13.74,24.75 0.17,3.73 -3.22,12.37 1.02,3.22 32.36,8.81 3.56,-1.86 4.24,-15.08 4.74,-4.24 86.23,-50.82 2.54,3.39 -2.71,10.67 -3.9,2.03 -16.26,-4.07"
     id="path4760" />
  <path
     style="opacity:1;fill:none;fill-opacity:0.02;fill-rule:nonzero;stroke:#bcd646;stroke-width:1;stroke-linecap:butt;stroke-linejoin:round;stroke-miterlimit:4;stroke-dasharray:none;stroke-opacity:1"
     d="m 1394.95,1703.33 19.42,4.36 2.2,3.13 -5.17,20.84 -2.8,1.27"
     id="path4762" />
  <path
     style="opacity:1;fill:none;fill-opacity:0.02;fill-rule:nonzero;stroke:#bcd646;stroke-width:1;stroke-linecap:butt;stroke-linejoin:round;stroke-miterlimit:4;stroke-dasharray:none;stroke-opacity:1"
     d="m 1445.88,1743 2.71,-1.69 5.08,-21.34 -2.03,-4.07 -13.21,-3.39 -49.3,-50.31 -14.4,-10.33"
     id="path4764" />
  <path
     style="opacity:1;fill:none;fill-opacity:0.02;fill-rule:nonzero;stroke:#bcd646;stroke-width:1;stroke-linecap:butt;stroke-linejoin:round;stroke-miterlimit:4;stroke-dasharray:none;stroke-opacity:1"
     d="m 1453.67,1880.73 -3.88,15.22 1.5,2.74 69.12,17.96 2.88,-1.19 3.9,-16.6"
     id="path4766" />
  <path
     style="opacity:1;fill:none;fill-opacity:0.02;fill-rule:nonzero;stroke:#bcd646;stroke-width:1;stroke-linecap:butt;stroke-linejoin:round;stroke-miterlimit:4;stroke-dasharray:none;stroke-opacity:1"
     d="m 1364.06,1835.92 14.49,23.14"
     id="path4768" />
  <path
     style="opacity:1;fill:none;fill-opacity:0.02;fill-rule:nonzero;stroke:#bcd646;stroke-width:1;stroke-linecap:butt;stroke-linejoin:round;stroke-miterlimit:4;stroke-dasharray:none;stroke-opacity:1"
     d="m 1374.05,1681.34 -5.93,5.17 -22.02,9.83 -9.83,9.83 -21.85,-1.61 -0.51,-3.05 4.91,-7.12 21.01,-0.17 h 10.16"
     id="path4811" />
  <path
     style="opacity:1;fill:none;fill-opacity:0.02;fill-rule:nonzero;stroke:#bcd646;stroke-width:1;stroke-linecap:butt;stroke-linejoin:round;stroke-miterlimit:4;stroke-dasharray:none;stroke-opacity:1"
     d="m 1368.12,1686.51 23.89,-10.08 9.66,-0.17 4.24,-1.19 1.02,-2.88 -0.17,-6.95 -4.4,-3.39 -16.77,-1.86"
     id="path4813" />
  <path
     style="opacity:1;fill:none;fill-opacity:0.02;fill-rule:nonzero;stroke:#bcd646;stroke-width:1;stroke-linecap:butt;stroke-linejoin:round;stroke-miterlimit:4;stroke-dasharray:none;stroke-opacity:1"
     d="m 1541.09,2002.32 -8.15,31.86 0.24,3.11 2.64,0.96 17.97,-11.02 0.48,-2.87 -26.83,-44.8 13.18,-53.18 5.51,-2.64 14.13,3.83 44.32,-26.11 1.47,-4.51 -72.62,-125.34 2.4,-5.75 38.57,-21.8 1.68,-5.99 -31.38,-51.51 v -8.38 l 6.47,-24.2 -2.64,-3.83 -38.57,-7.43 -2.4,-4.79 1.44,-56.3"
     id="path4860" />
  <path
     style="opacity:1;fill:none;fill-opacity:0.02;fill-rule:nonzero;stroke:#bcd646;stroke-width:1;stroke-linecap:butt;stroke-linejoin:round;stroke-miterlimit:4;stroke-dasharray:none;stroke-opacity:1"
     d="m 1526.24,1546.17 -75.7,27.31 -9.82,5.75 -9.34,12.46 -3.11,12.94 -1.92,13.18 v 22.28 l -3.35,11.98 -21.56,14.61 -16.05,3.35 -6.47,-0.48 -0.96,-4.55 2.64,-3.59 h 2.87 l 7.67,2.4"
     id="path4862" />
  <path
     style="opacity:1;fill:none;fill-opacity:0.02;fill-rule:nonzero;stroke:#bcd646;stroke-width:1;stroke-linecap:butt;stroke-linejoin:round;stroke-miterlimit:4;stroke-dasharray:none;stroke-opacity:1"
     d="m 1409.33,1683.45 -0.96,-7.43 2.16,-11.98 3.83,-6.47"
     id="path4864" />
  <path
     style="opacity:1;fill:none;fill-opacity:0.02;fill-rule:nonzero;stroke:#bcd646;stroke-width:1;stroke-linecap:butt;stroke-linejoin:round;stroke-miterlimit:4;stroke-dasharray:none;stroke-opacity:1"
     d="m 1435.44,1709.56 v 5.27 l -5.27,21.32 -3.98,1.74"
     id="path4866" />
  <path
     style="opacity:1;fill:none;fill-opacity:0.02;fill-rule:nonzero;stroke:#bcd646;stroke-width:1;stroke-linecap:butt;stroke-linejoin:round;stroke-miterlimit:4;stroke-dasharray:none;stroke-opacity:1"
     d="m 1450.53,1573.48 -14.97,4.79 -5.63,4.31 -4.79,8.86 -0.72,6.11 2.04,2.28 4.31,1.44 5.15,-0.72 3.59,-13.3 9.7,-9.22 8.38,-3.23 77.26,11.74 3.47,4.07 3.23,9.7 6.47,10.06 34.74,26.95 12.34,22.88 4.07,4.19 15.09,8.5 1.56,2.4 -2.28,6.47 -3.83,2.76 -62.83,-1.97 -4.58,4.34 -13.94,53.64 -8.39,5 -0.51,2.29 13.94,23.78"
     id="path4868" />
  <path
     style="opacity:1;fill:none;fill-opacity:0.02;fill-rule:nonzero;stroke:#bcd646;stroke-width:1;stroke-linecap:butt;stroke-linejoin:round;stroke-miterlimit:4;stroke-dasharray:none;stroke-opacity:1"
     d="m 1113.7,865.55 -2.4,7.19 -148.77,52.71 -2.16,7.67 21.32,57.98 -2.16,8.62 -7.19,14.85 -11.5,8.62 -28.27,5.03 -50.31,8.38 -9.58,9.1 -9.82,35.7 -0.72,55.1 29.95,105.17 7.19,9.34 44.8,16.53 12.7,9.82 46.96,50.31 11.26,28.27 20.84,14.61 8.62,26.59 -1.92,9.82 -15.33,18.21 -4.31,12.46 v 31.62 l -11.26,41.45 v 12.94 l 57.74,97.98 5.27,1.68 18.93,-5.75 15.57,1.68 11.74,4.31 34.26,18.93 13.42,17.49 23.48,45.52 7.43,5.27 22.52,2.87 24.68,-7.91 19.64,-8.86 13.66,-4.55 38.87,2.07"
     id="path4562" />
  <path
     style="opacity:1;fill:none;fill-opacity:1;fill-rule:nonzero;stroke:#bcd646;stroke-width:1;stroke-linecap:butt;stroke-linejoin:round;stroke-miterlimit:4;stroke-dasharray:none;stroke-opacity:1"
     d="m 1123.28,893.34 7.91,2.87 4.31,-2.64 v -5.99 l -8.38,-5.51 -36.41,-1.92"
     id="path4564" />
  <path
     style="opacity:1;fill:none;fill-opacity:1;fill-rule:nonzero;stroke:#bcd646;stroke-width:1;stroke-linecap:butt;stroke-linejoin:round;stroke-miterlimit:4;stroke-dasharray:none;stroke-opacity:1"
     d="m 1192.04,1705.49 4.79,9.58 v 9.58 l 2.64,11.02 12.94,7.91 12.94,4.79 38.57,8.62 13.42,9.1 36.65,65.64 4.55,1.92 7.55,0.96 5.15,3.39 1.86,3.38 0.35,4.98 -1.17,4.37 -2.79,3.25 -0.41,3.5 4.55,8.5 -0.18,1.62 -1.44,0.78 -13.48,-3.47 -2.28,1.3 -31.74,126.27 -4.79,2.64 -17.25,-4.07 -39.53,23.24 v 5.27 l 48.15,12.7 3.83,-2.87 9.34,-36.89"
     id="path4566" />
  <path
     style="opacity:1;fill:none;fill-opacity:1;fill-rule:nonzero;stroke:#bcd646;stroke-width:1;stroke-linecap:butt;stroke-linejoin:round;stroke-miterlimit:4;stroke-dasharray:none;stroke-opacity:1"
     d="m 1313.98,1831.74 -0.24,5.75 -2.4,5.99 -0.17,5.23 1.95,3.9 3.01,2.61 1.44,5.75 -1.32,5.25"
     id="path4568" />
  <path
     style="opacity:1;fill:none;fill-opacity:1;fill-rule:nonzero;stroke:#bcd646;stroke-width:1;stroke-linecap:butt;stroke-linejoin:round;stroke-miterlimit:4;stroke-dasharray:none;stroke-opacity:1"
     d="m 1316.13,1855.22 4.79,1.68 5.03,-1.2 3.52,-1.7"
     id="path4572" />
  <path
     style="opacity:1;fill:none;fill-opacity:1;fill-rule:nonzero;stroke:#bcd646;stroke-width:1;stroke-linecap:butt;stroke-linejoin:round;stroke-miterlimit:4;stroke-dasharray:none;stroke-opacity:1"
     d="m 1346.1,1696.33 1.9,9.88 6.95,9.1"
     id="path4574" />
  <path
     style="opacity:1;fill:none;fill-opacity:1;fill-rule:nonzero;stroke:#bcd646;stroke-width:1;stroke-linecap:butt;stroke-linejoin:round;stroke-miterlimit:4;stroke-dasharray:none;stroke-opacity:1"
     d="m 1430.89,1872.71 2.87,5.03 -4.07,15.69 -95.23,56.42 -34.62,-9.22 -1.56,-3.95"
     id="path4576" />
  <path
     style="opacity:1;fill:none;fill-opacity:1;fill-rule:nonzero;stroke:#bcd646;stroke-width:1;stroke-linecap:butt;stroke-linejoin:round;stroke-miterlimit:4;stroke-dasharray:none;stroke-opacity:1"
     d="m 1332.27,1850.75 5.7,-1.53 22.7,5.42"
     id="path4578" />
  <path
     style="opacity:1;fill:none;fill-opacity:1;fill-rule:nonzero;stroke:#bcd646;stroke-width:1;stroke-linecap:butt;stroke-linejoin:round;stroke-miterlimit:4;stroke-dasharray:none;stroke-opacity:1"
     d="m 1451.64,1715.9 27.61,6.61 2.37,2.54 1.19,6.1 -15.75,61.15 -0.17,6.95 7.79,17.79 5.59,3.39 29.98,16.09 14.74,-1.69 30.66,-12.37 11.86,8.47"
     id="path4580" />
  <path
     style="opacity:1;fill:none;fill-opacity:1;fill-rule:nonzero;stroke:#bcd646;stroke-width:1;stroke-linecap:butt;stroke-linejoin:round;stroke-miterlimit:4;stroke-dasharray:none;stroke-opacity:1"
     d="m 1527.44,1979.56 -27.35,-45.64 -0.17,-4.74"
     id="path4582" />
  <path
     style="opacity:1;fill:none;fill-opacity:1;fill-rule:nonzero;stroke:#bcd646;stroke-width:1;stroke-linecap:butt;stroke-linejoin:round;stroke-miterlimit:4;stroke-dasharray:none;stroke-opacity:1"
     d="m 1504.15,1914.1 18.63,-73.86 -3.56,-4.91"
     id="path4584" />
  <path
     style="opacity:1;fill:none;fill-opacity:1;fill-rule:nonzero;stroke:#bcd646;stroke-width:1;stroke-linecap:butt;stroke-linejoin:round;stroke-miterlimit:4;stroke-dasharray:none;stroke-opacity:1"
     d="m 1507.55,1637.93 -0.52,31.38 1.86,2.2 3.05,2.03 28.63,7.62 1.74,5.73"
     id="path4586" />
  <path
     style="opacity:1;fill:none;fill-opacity:1;fill-rule:nonzero;stroke:#bcd646;stroke-width:1;stroke-linecap:butt;stroke-linejoin:round;stroke-miterlimit:4;stroke-dasharray:none;stroke-opacity:1"
     d="m 1580.38,1853.11 -3.22,14.4 -2.37,3.56"
     id="path4588" />
  <path
     style="opacity:1;fill:none;fill-opacity:1;fill-rule:nonzero;stroke:#bcd646;stroke-width:1;stroke-linecap:butt;stroke-linejoin:round;stroke-miterlimit:4;stroke-dasharray:none;stroke-opacity:1"
     d="m 1591.06,1875.14 3.47,2.12"
     id="path4590" />
  <path
     style="opacity:1;fill:none;fill-opacity:1;fill-rule:nonzero;stroke:#bcd646;stroke-width:1;stroke-linecap:butt;stroke-linejoin:round;stroke-miterlimit:4;stroke-dasharray:none;stroke-opacity:1"
     d="m 1394.95,1703.33 2.16,4.07 -7.98,34.49"
     id="path4592" />
  <path
     style="opacity:1;fill:none;fill-opacity:1;fill-rule:nonzero;stroke:#bcd646;stroke-width:1;stroke-linecap:butt;stroke-linejoin:round;stroke-miterlimit:4;stroke-dasharray:none;stroke-opacity:1"
     d="m 1354.95,1715.31 10.3,17.49"
     id="path4650" />
  <path
     style="opacity:1;fill:none;fill-opacity:1;fill-rule:nonzero;stroke:#bcd646;stroke-width:1;stroke-linecap:butt;stroke-linejoin:round;stroke-miterlimit:4;stroke-dasharray:none;stroke-opacity:1"
     d="m 1411.4,1731.65 -51.43,202.63"
     id="path4654" />
  <path
     style="opacity:1;fill:none;fill-opacity:1;fill-rule:nonzero;stroke:#bcd646;stroke-width:1;stroke-linecap:butt;stroke-linejoin:round;stroke-miterlimit:4;stroke-dasharray:none;stroke-opacity:1"
     d="m 1336.27,1706.16 -8.99,24.01 -24.75,30 -10,7.46 -46.44,0.34 -4.75,3.56 -27.8,104.92 12.54,21.69 -1.86,6.27 -75.59,43.56 -117.8,27.49 -77.18,-4.31 -33.73,-11.71 -1.45,-4.86 -0.34,-12.16 -13.56,-3.09 -3.73,1.36 -42.03,43.39 -12.88,21.7 -33.22,17.97 -2.03,9.15 4.41,10.17 v 4.75 l -16.95,11.53 -21.69,47.8 -25.08,116.61 1.69,5.42 45.76,30.51 -1.02,19.32 -12.54,6.78 -2.37,3.39 3.05,12.2 -13.9,18.98 -18.31,28.14 -12.54,7.46 -12.2,14.24 -2.71,13.22 -5.08,6.78 -18.31,7.46 -16.27,12.88 -39.66,90.85 -2.03,16.95 -5.08,3.39 -22.03,-1.69 -4.41,-7.12 v -7.46 l 5.76,-3.73 h 23.39 l 6.78,-5.42"
     id="path5059" />
  <path
     style="opacity:1;fill:none;fill-opacity:1;fill-rule:nonzero;stroke:#bcd646;stroke-width:1;stroke-linecap:butt;stroke-linejoin:round;stroke-miterlimit:4;stroke-dasharray:none;stroke-opacity:1"
     d="m 919.92,1959.44 -25.69,-8.25 -4.24,0.17"
     id="path5061" />
  <path
     style="opacity:1;fill:none;fill-opacity:1;fill-rule:nonzero;stroke:#bcd646;stroke-width:1;stroke-linecap:butt;stroke-linejoin:round;stroke-miterlimit:4;stroke-dasharray:none;stroke-opacity:1"
     d="m 1224.24,1904.41 28.08,-17.92 28.04,-109.74 12.18,-9.12"
     id="path5063" />
  <path
     style="opacity:1;fill:none;fill-opacity:1;fill-rule:nonzero;stroke:#bcd646;stroke-width:1;stroke-linecap:butt;stroke-linejoin:round;stroke-miterlimit:4;stroke-dasharray:none;stroke-opacity:1"
     d="m 1401.29,1798.77 58.37,-35.04 0.34,-1.53 -2.2,-2.2 -89.32,-23.56 -3.23,-3.64"
     id="path5069" />
  <text
     style="font-style:normal;font-weight:normal;font-size:144px;line-height:125%;font-family:Sans;-inkscape-font-specification:Sans;letter-spacing:0px;word-spacing:0px;fill:#000000;fill-opacity:1;stroke:none"
     xml:space="preserve"
     id="text3019"
     y="206.96"
     x="89.45"><tspan
       id="tspan1"
       y="206.96"
       x="89.45">2020</tspan></text>
  <path
     style="fill:#383837;stroke:#bcd646;stroke-width:1;stroke-linejoin:round;stroke-dasharray:none;stroke-opacity:1"
     d="m 1411.4,1731.65 1.4,2.59"
     id="path1" />
  <path
     style="fill:none;stroke:#bcd646;stroke-linejoin:round"
     d="m 1310.98,1826.34 2.13,-3.25 10.52,2.13 4.41,-1.14 26.91,-108.77"
     id="path4" />
</svg>
