<?xml version="1.0" encoding="UTF-8" standalone="no"?>
<svg
   id="svg2"
   version="1.1"
   width="14950"
   height="9100"
   viewBox="-2050 -1200 14950 9100"
   xmlns:xlink="http://www.w3.org/1999/xlink"
   xmlns="http://www.w3.org/2000/svg"
   xmlns:svg="http://www.w3.org/2000/svg"
   xmlns:rdf="http://www.w3.org/1999/02/22-rdf-syntax-ns#"
   xmlns:cc="http://creativecommons.org/ns#"
   xmlns:dc="http://purl.org/dc/elements/1.1/">
  <metadata
     id="metadata8">
    <rdf:RDF>
      <cc:Work
         rdf:about="">
        <dc:format>image/svg+xml</dc:format>
        <dc:type
           rdf:resource="http://purl.org/dc/dcmitype/StillImage" />
      </cc:Work>
    </rdf:RDF>
  </metadata>
  <defs
     id="defs6" />
  <image
     xlink:href="../basemap/glaosm.png"
     style="display:none"
     y="-1259.33"
     x="-2084.89"
     id="image10"
     preserveAspectRatio="none"
     height="9287.26"
     width="15162.86" />
  <path
     style="fill:none;fill-rule:evenodd;stroke:#f47321;stroke-width:5;stroke-linecap:butt;stroke-linejoin:round;stroke-miterlimit:4;stroke-dasharray:none;stroke-opacity:1"
     d="m 2417,1555.5 1.5,16.5 11,25 16,43.5 20,53.5 13.54,17 15.33,9.77 27.73,7.58 31.9,12.14 29,15.5 24.5,16 41.5,11.5 87,0.5 h 57 l 14.85,3.68 15.54,-0.92 50.53,-26.38 6.79,-6.31 3.09,-6.27 18.2,-60.3 5,-22.5 21.5,-95 -2,-12.5 -8,-18 -16.5,-11.5 -16.58,-5.38 -21.42,-22.94 -157.5,-90.18 -23.5,1 -50,-19 -17.5,-4 -17,-0.5 -17.11,6.74 -13.39,12.76 -32,50.5 -11.5,4 -21.5,3 -35.5,-1 -15.89,10.88 -12.42,14.09 -14.93,22.52 -5.48,15.14 -1.77,14.53 v 15.34"
     id="path4163" />
  <path
     style="fill:none;fill-rule:evenodd;stroke:#24457a;stroke-width:5;stroke-linecap:butt;stroke-linejoin:round;stroke-miterlimit:4;stroke-dasharray:none;stroke-opacity:1"
     d="m 5270.5,1564.5 -131,18.5 -19,-1 -39.5,-12.5 -108,-57.5 -22.5,-5.5 -30.5,5.5 -38,13 -9.5,-1.5 -17,-3.5 -21,-12.5 -22.5,-3.5 -24.5,7 -42,17.5 -43.5,8.5 -122.5,25.5 -20.5,11 -117,66.5 -18.5,7.5 -29,4.5 -127.5,-4 -37,-10.5 -23.5,-5.5 -30,1 -108.5,16 -21.5,8.5 -21,14 -49,44.5 -19,9.5 -34.5,8 -277.5,-9.5 -18,-4.5 -40.5,-10.5 -20,-0.5 -87.5,3.5 -19.5,-2.5 -130,-32 -66,2.5 -72.5,4 -46.5,-12.5 -40.5,-6.5 -26.5,-2.5 -27,-9.5 -15.5,-19.5 -13.5,-17 -13.5,-9.5 -25.5,-7 -198.5,-42 -20,-2 -77,11.5 -22.5,3.5 -21.5,10.5 -29.5,-1 -59.5,-1 -16.5,-5.5 -13.5,-9 -16,-23.5 -16,-24 -28,-24.5 -25.5,-16 -17.5,-37 -7.5,-21.5 -13.5,-27 -1.5,-13.5 2.5,-35 -4,-13.5 -16,-22 -37.5,-16 -41.5,-11 -38,-1.5 -32,1.5 -38.5,7.5 -20,-0.5 -58,-21 -336,-135 -26.5,-21.5 -41.5,-34 -19,-23.5 -47.5,-28.5 -34,-27 -30.5,-19 -58.5,-45 -16.5,-29.5 -15,-39.5 -13,-17 -21.5,-10.5 -41,-10 L 1233,680 l -51.5,-59.5 -28.5,-20 -39,-16.5 -108.5,-27.5 -43.5,-12 -40,0 -45.5,-9.5 -81.5,6 -33.5,-5 -26,-12.5 -61,-42.5 -29,-8 -34.5,4 -43.5,19 -33,3 -31,-3.5 -106.5,-31 -27,-16 -21,-26.5 -12,-26 -17.5,-63 -14,-18.5 -49,-15.5 -71.5,0 -31.5,-4 -34,-14.5"
     id="path4165" />
  <path
     style="fill:none;fill-rule:evenodd;stroke:#24457a;stroke-width:5;stroke-linecap:butt;stroke-linejoin:round;stroke-miterlimit:4;stroke-dasharray:none;stroke-opacity:1"
     d="m 2329.5,1288 -10.5,-11.5 -10.5,-20 0.5,-18.5 31,-79.5 12.5,-42 -1.5,-24 -6.5,-30.5 -10,-20.5 -26,-25 -48,-32 -22,-25.5 -18,-18 -41.5,-20.5 -32,-8 -37,3 -35,5 -62.5,23 -29.5,-1 -74,-14.5 -45.5,-2.5 -36.5,5 -55.5,17 -30.5,3 -40,-2.5 -24.5,-10 -42.5,-29 -69.5,-29.5 -50,-8.5 -57.5,-25.5 -40,-20"
     id="path4167" />
  <path
     style="fill:none;fill-rule:evenodd;stroke:#24457a;stroke-width:5;stroke-linecap:butt;stroke-linejoin:round;stroke-miterlimit:4;stroke-dasharray:none;stroke-opacity:1"
     d="m 2195,928.5 -19,-22.5 -9,-41.5 -3,-41 3.5,-23 12.5,-13 116.5,-65 27,-9 24.5,-9 19.5,-20.5 61.5,-102 8,-24 2,-34 -7,-38.5 -37,-109.5"
     id="path4169" />
  <path
     style="fill:none;fill-rule:evenodd;stroke:#24457a;stroke-width:5;stroke-linecap:butt;stroke-linejoin:round;stroke-miterlimit:4;stroke-dasharray:none;stroke-opacity:1"
     d="m 2500.5,1529.5 24,18 33,11.5 47.5,14.5 52.5,21.5 21.5,23.5 20.5,7 61.5,2.5 18,7 90,13.5 84.5,17.5 43,11 35.5,33 59.25,56.25 70.25,34.25 19,22 46.5,64.5 5.5,19 4.5,50 17,46.5 5,20.5 5.5,37.5 6.5,19 15,10.5 97.5,16 63,14.5 37,15 26,19.5 89.5,86.5 20.5,12.5 33.5,12.5 40.5,11 53.5,8 49.5,-6.5 88.5,-17 69,-1.5 51,2.5 45,13 87.5,40 27.5,22.5 26,26 27,48.5 13.5,33 23,38.5 36.5,46 37,36 80.5,66.5 27.5,28 58.5,87.5 45,48 41.5,28.5 36,27 20,24.5 20.5,42 14,16 48.5,30 20,6 41.5,-9.5"
     id="path4171" />
  <path
     style="fill:none;fill-rule:evenodd;stroke:#24457a;stroke-width:5;stroke-linecap:butt;stroke-linejoin:round;stroke-miterlimit:4;stroke-dasharray:none;stroke-opacity:1"
     d="m 2886.5,1633 -20,116 -6.5,64 -14,29.5 -7.5,30.5 -8,14.5 -23,17.5 -15.5,11.5 -10,24 -2.5,19.5 6,24 6,14 23.5,15 69,17.5 16,14.5 4,24.5 -6,19 -33.5,25.5 -8.5,18.5 -1.5,18"
     id="path4173" />
  <text
     xml:space="preserve"
     style="font-style:normal;font-weight:normal;font-size:180px;line-height:125%;font-family:Sans;-inkscape-font-specification:Sans;letter-spacing:0px;word-spacing:0px;fill:#000000;fill-opacity:1;stroke:none;stroke-width:2px;stroke-linecap:butt;stroke-linejoin:round;stroke-opacity:1"
     x="-1960.55"
     y="-993.04"
     id="text4177"><tspan
       id="tspan1"
       x="-1960.55"
       y="-993.04"
       style="font-size:144px">2015</tspan></text>
  <path
     id="path4175-5"
     d="m 2505,2191.5 18.5,-33.5 19,-34 23,-29 34,-28 139,-86.5 27.5,-18 5.68,-8.7 20.32,-37.3"
     style="fill:none;fill-rule:evenodd;stroke:#24457a;stroke-width:5;stroke-linecap:butt;stroke-linejoin:round;stroke-miterlimit:4;stroke-dasharray:none;stroke-opacity:1" />
  <path
     style="fill:none;fill-opacity:0.25;stroke:#24457a;stroke-width:5;stroke-linejoin:round;stroke-opacity:1"
     d="m 12105.78,213.3 -114.07,34.9 -26.61,18.54 -88.11,38.82 -227.26,91.6 -271.97,106.65 -112.54,44.06 -48.2,14.61 -182.12,35.55 -58.02,11.78 -40.13,5.02 -41.66,1.31 -42.53,-2.62 -41.22,-8.29 -42.75,-13.96 -171.43,-76.12 -73.72,-22.25 -78.3,-13.52 -47.11,-2.18 -48.42,3.27 -55.83,6.98 -57.14,8.72 -38.39,2.4 -44.06,-1.31 -28.14,-4.58 -38.17,-9.81 -27.48,-11.34 -23.99,-10.69 -26.61,-15.92 -28.57,-20.28 -20.94,-18.32 -17.45,-18.54 -15.7,-20.94 -10.69,-19.19 -23.12,-53 -19.41,-37.08 -18.97,-33.15 -29.44,-37.3 -13.3,-19.19 -12.21,-22.03 -10.03,-26.17 -8.72,-29.44 -10.03,-32.28 -12.65,-28.79 -20.28,-30.97 -11.56,-14.18 -33.15,-29.01 -18.76,-13.3 -15.27,-8.51 -54.53,-23.77 -78.3,-20.07 -81.79,-25.08 -51.47,-10.25 -44.06,-10.47 -50.38,-16.79 -36.42,-12 -37.3,-6.76 -41.66,-2.84 -425.3,0.44 -34.24,3.71 -43.84,6.98 -141.77,34.46 -41.88,12 -31.19,4.8 -46.46,3.05 -88.99,1.74 -21.37,-2.4 -169.9,-30.32 -39.26,-8.51 -65.21,-20.07 -40.57,-10.91 -159.21,-27.48 -35.99,-9.38 -43.84,-18.1 -48.42,-15.7 -25.74,-4.36 -56.92,-1.53 -20.28,-1.96 -35.77,-10.25 -47.25,-11.7 -53.25,-4.75 -40.25,0.5 -106.75,17.5 -180.5,12.25 -31.75,-1.5 -39,-8.75 -27,-10.5 -36,-20.25 -28,-23.75 -55.75,-46 -25.5,-15 -38.25,-15.25 -29.5,-7.25 -83.25,-10 -117.25,-25.75 -25.75,-3.75 -175,-10.5 -34.75,3 -44.25,6.5 -74,16.25 -54.75,20.5 -58,31.25 -85.5,46.25 -33.25,13.25 -55.75,17 -113.5,34 -47,7.75 -269.75,39.75 -30.75,0.5 -28,-2 -51.5,-5.5 -29.75,0.75 -30.75,4.25 -40.25,10.75 -40,16.75 -123.75,62.25 -86.75,52.5 -35.5,14.5 -66.75,24.25 -31,16.75 -27.5,21.25 -14.25,12.75 -14.75,18 -35.5,45.5 -61.25,87.25 -23.5,27.25 -25.25,20 -30.75,18.5 -138.75,56.75 -47,28 -43.25,34.5 -44.25,42.25 -70.5,67.5 -41.25,30 -28.75,17.5 -43.75,20.5 -92.75,40 -42,13.75 -91.75,19.5 -48.5,18 -212.5,87.75 -130.75,63.75 -52.5,18.25 -203.5,54.75 -48.5,17.25 -26.75,13.25 -31,19 -138,96.5 -26.5,20.75 -23.25,25.75 -33,48.5 -23.5,35.75 -11.25,31 -5,27.75 2,35 11.5,51.25 5.75,28.5 1,16.25 -3.75,20.5 -101.75,264.75 -6.38,23.25"
     id="path1" />
  <path
     id="path4487"
     d="m 10625.79,280.55 31.44,70.99 3.93,11.79 6.55,30.65 3.14,4.71 2.36,0.78 4.45,-0.26 23.32,-8.91 146.43,1.04 3.93,3.14 4.45,14.67 -1.31,12.05 3.93,7.86 4.71,2.36 9.16,-3.14 19.12,-10.22 4.19,-0.52"
     style="fill:none;fill-rule:evenodd;stroke:#880c04;stroke-width:1;stroke-linecap:butt;stroke-linejoin:round;stroke-dasharray:none;stroke-opacity:1" />
  <path
     id="path4489"
     d="m 11004.19,472.44 1.71,11.65 36.41,104.53 6.29,7.33 4.97,2.88 6.29,1.57 7.86,-2.36 107.14,-22.79 73.61,-16.25 98.24,-39.03 15.97,-3.93 53.96,-16.25 12.84,-4.97 4.19,-4.19 6.81,-19.65 8.9,-4.19 23.06,-5.77 161.1,-62.61 42.44,-17.55 13.36,-14.93 17.03,-12.58 20.96,-0.26 15.98,-6.81 18.86,-0.26 60.12,-22.13 1.97,-2.23"
     style="fill:none;fill-rule:evenodd;stroke:#880c04;stroke-width:5;stroke-linecap:butt;stroke-linejoin:round;stroke-miterlimit:4;stroke-dasharray:none;stroke-opacity:1" />
  <path
     style="fill:none;fill-rule:evenodd;stroke:#880c04;stroke-width:1;stroke-linecap:butt;stroke-linejoin:round;stroke-miterlimit:4;stroke-dasharray:none;stroke-opacity:1"
     d="m 10895.61,417.56 39.29,-12.84 12.57,-10.48 20.17,-3.93 4.71,3.14 1.31,6.03 3.41,6.29 v 10.48 l 2.62,3.67 16.45,15.25 5.04,10.25 3,27.03"
     id="path4491" />
  <path
     id="path4495-6"
     d="m 11824.28,321.67 1.57,-4.32 11,-7.73 17.94,-0.26 6.42,-2.88 76.24,-63.27 9.96,-1.44 135.3,-41.92 1.31,-3.41 -4.84,-12.18 -7.6,-25.28 0.65,-3.01 2.1,-2.23 38.25,-11.65"
     style="fill:none;fill-rule:evenodd;stroke:#880c04;stroke-width:1;stroke-linecap:butt;stroke-linejoin:round;stroke-miterlimit:4;stroke-dasharray:none;stroke-opacity:1" />
  <path
     style="fill:none;fill-opacity:0.25;stroke:#24457a;stroke-width:5;stroke-linejoin:round;stroke-dasharray:none;stroke-opacity:1"
     d="m 11359.01,511.16 -27.72,2.09 -23.13,-3.08 -312.45,-116.59 -28.99,-12.95 -46.58,-24.68 -52.13,-38.86 -36.09,-33.31 -30.54,-37.01 -282.53,-370.44 -14.19,-31.46 -23.44,-84.82 -38.86,-77.42 -9.25,-27.76 -95,-355.02 -12.03,-27.45 -15.73,-24.37 -16.96,-17.27 -28.99,-27.14 -13.57,-19.43 -8.33,-20.97 -3.7,-24.06 1.23,-20.97 3.7,-19.74 12.03,-25.29 15.73,-18.82 30.84,-31.77 12.34,-19.74 7.4,-23.13 3.39,-20.36 -0.31,-16.35 -1.85,-18.82"
     id="path2" />
  <path
     style="fill:none;fill-opacity:0.25;stroke:#24457a;stroke-width:5;stroke-linejoin:round;stroke-dasharray:none"
     d="m 5270.5,1564.5 30.86,-1.26 22.27,-3.89 22.8,-8.31 23.33,-9.72 18.56,-5.3 18.92,-1.94 20.33,1.59 39.07,4.24 19.98,-0.53 18.56,-3.01 19.98,-7.25 15.2,-9.02 16.79,-10.78 82.73,-69.12 18.56,-11.84 35.89,-17.85 15.38,-9.55 9.55,-7.95 11.49,-11.84 20.51,-28.81 12.37,-12.02 50.2,-39.6 10.08,-11.67 41.19,-57.1 12.55,-12.9 20.68,-12.9 53.74,-18.56 23.16,-3.89 24.4,0.71 117.03,23.69 27.22,9.72 20.15,13.97 12.55,10.61 32.7,30.94 19.45,10.96 21.04,6.89 19.45,2.83 17.85,-1.41 171.12,-26.69 219.73,-2.3 23.16,3.71 21.39,9.9 41.37,20.86 18.21,5.48 22.27,5.83 23.86,2.47 304.41,-7.6 18.92,-2.83 18.03,-6.54 21.57,-12.02 20.68,-11.31 20.51,-8.31 212.31,-58.34 23.69,-2.83 21.92,2.47 20.51,7.6 40.3,22.8 15.91,8.13 18.21,4.07 39.42,0.71 45.79,6.54 20.15,0.35 19.8,-4.95 16.79,-7.25 61.16,-41.9 23.16,-11.67 20.51,-4.95 19.98,0.18 55.15,11.31 17.5,0.71 26.16,-1.59 27.58,-4.77 48.08,-9.55 21.74,-7.96 17.5,-8.66 68.59,-56.04 9.02,-10.61 6.89,-14.14 11.84,-28.11 8.31,-10.61 11.49,-6.19 11.14,-2.83 15.56,1.59 17.85,8.84 49.67,33.23 18.21,7.6 24.93,7.78 30.76,6.19 21.39,1.41 287.26,-3.71 196.4,-27.93 50.91,-13.44 41.9,-14.85 53.74,-23.86 23.16,-12.9 54.45,-39.95 25.63,-24.22 21.04,-24.22 53.39,-77.6 18.03,-18.92 19.62,-16.62 30.58,-20.15 38.71,-16.44 96.34,-39.42 52.5,-13.08 38.36,-5.48 32.7,-1.94 156.8,-1.24 24.22,-1.94 22.63,-5.13 24.04,-7.25 113.31,-44.72 24.57,-4.95 91.04,-7.6 18.03,-3.71 22.27,-8.66 70.18,-31.47 61.7,-20.33 49.5,-24.22 23.69,-14.67 28.46,-19.45 17.15,-9.9 28.12,-12.57"
     id="path3" />
  <path
     style="fill:none;fill-opacity:0.25;stroke:#24457a;stroke-width:5;stroke-linejoin:round;stroke-opacity:1"
     d="m 2587.33,1580.05 17.61,6.83 57.51,21.18 16.56,10.44"
     id="path4" />
  <path
     style="fill:none;fill-opacity:0.25;stroke:#24457a;stroke-width:5;stroke-linejoin:round;stroke-opacity:1;stroke-dasharray:none"
     d="m 2866.5,1749 -8.79,19.83 -10.98,11.15 -65.26,25.36 -34.87,8.96 -37.71,6.34 -84.39,-1.53 -29.95,-3.28 -320.28,-56.4 -410.78,-73.24 -18.58,-1.53 -35.85,-1.09 -35.42,2.4 -29.08,4.81 -46.57,8.53 -39.35,13.77 -36.29,16.18 -35.2,23.39 -57.5,45.47 -32.14,18.36 -20.55,5.68 -16.83,1.31 -20.99,0.44 -89.41,-0.22 -29.51,3.72 -27.33,6.12 -30.61,11.81 -25.8,15.3 -50.06,41.32 -29.73,17.49 -31.92,13.12 -272.62,53.56 -23.83,8.53 -29.51,13.34 -30.39,17.71 -27.55,9.84 -81.98,22.08 -34.54,13.99 -25.58,16.61 -21.64,17.49 -164.84,140.13 -22.74,22.52 -38.7,45.04 -21.86,21.21 -105.16,76.73 -35.2,21.86 -30.61,16.18 -82.2,34.98 -69.08,27.55 -21.21,12.9 -26.67,19.02 -18.36,16.83 -13.34,16.61 -22.3,28.86 -33.45,36.07 -36.29,47.22 -75.42,112.81 -125.92,148 -92.26,138.6 -31.92,66.9 -17.71,29.73 -33.45,41.54 -23.17,42.41 -11.37,29.95 -20.33,54.44 -29.51,49.19 -15.96,18.8 -30.17,27.55 -142.54,131.83 -20.11,22.74 -19.46,27.76 -90.95,155.87 -73.89,182.55 -8.96,36.73 -2.62,25.58 0.87,35.63 5.47,28.86 11.37,40.23 4.59,26.67 1.31,28.64 -0.22,21.42 -4.81,25.36 -15.3,50.94 -4.81,35.42 3.28,34.54 11.15,38.04 8.31,35.42 5.25,32.36 3.28,27.98 -0.22,32.57 -2.4,31.92 -8.74,64.93 -3.06,61.87 2.4,38.26 4.37,36.07 16.83,69.74 24.27,65.15 69.08,162 29.73,55.75 60.34,84.61 19.89,32.79 15.52,32.36 33.67,75.2 12.46,43.07 32.14,133.58 62.52,259.94 84.82,242.01 10.06,43.94 28.64,144.29 3.72,31.92 -0.22,19.02 -6.34,21.64 -33.23,92.26 -7.43,34.98 -6.78,34.76 0.44,15.74 5.03,17.05 10.06,18.58 12.24,13.12 126.14,130.95 7.87,11.59 11.81,24.7 28.2,44.6 45.47,59.9 54.65,61.87 19.24,27.11 17.05,30.39 14.65,32.57 6.78,21.86 7,28.64 3.72,23.17 1.53,22.08 1.31,34.54 -2.62,39.13 -6.12,47.22 -7.65,34.76 -74.99,246.16 -17.93,57.93 -1.53,18.58 1.53,17.05 7.87,26.23 21.21,43.07 12.68,29.08 4.37,20.55 1.75,17.71 -2.19,21.86 -4.59,22.52 -7.87,23.61 -7.43,17.27 -10.28,16.4 -4.81,7 -7.43,18.36"
     id="path5" />
  <path
     style="fill:none;fill-opacity:0.25;stroke:#24457a;stroke-width:5;stroke-linejoin:round;stroke-dasharray:none;stroke-opacity:1"
     d="m 1439.16,1823.93 -33.23,-7.65 -59.03,-29.29 -55.53,-37.6 -37.38,-30.17 -31.7,-31.04 -47.66,-57.06 -195.23,-330.55 -177.52,-300.38 -112.37,-192.82 -22.52,-33.67 -15.74,-16.61 -17.27,-16.18 -26.45,-17.27 -28.64,-12.68 -33.67,-10.28 -39.79,-5.25 -29.08,1.31 -42.85,0.22 -32.57,-2.62 -117.18,-31.92 -27.76,-2.84 -29.29,2.19 -35.63,4.15 -33.89,0.22 -41.1,-6.12 -28.86,-9.18 -26.67,-10.93 -47.44,-23.17 -83.07,-20.55 -46.13,-16.61 -60.12,-25.36 -28.64,-6.12 -31.92,-4.59 -118.71,-2.4 -26.67,3.28 -43.29,8.74 -25.14,1.09 -33.01,-2.19 -24.49,-5.25 -50.5,-17.05 -28.64,-5.68 -61.21,-1.31 -27.33,-3.94 -50.06,-14.21 -19.46,-1.97 -83.07,1.31 -7.65,-0.87 -11.15,-4.59 -29.08,-14.21 -63.84,-16.4 -94.88,-25.36 -40.01,-11.81 -38.7,-16.83 -105.37,-55.09 -19.02,-4.37 -16.83,-0.66 -15.08,3.06 -16.61,5.25 -12.02,1.09 -26.45,-5.47 -19.02,-8.09 -12.9,-10.06 -24.49,-25.36 -16.18,-10.06 -22.52,-8.09 -16.4,-2.84 -19.46,1.97 -26.45,4.15 -12.9,-2.4 -10.93,-3.5 -13.12,-10.93 -132.05,-135.76 -17.93,-15.52 -18.36,-12.24 -23.61,-8.31 -15.3,-4.59 -14.21,-0.44 -9.62,1.31 -10.06,3.94 -11.81,6.34 -11.59,13.12 -16.18,17.93 -11.15,6.34 -12.02,5.03 -15.52,2.4 -18.36,-1.09 -15.52,-6.78 -18.8,-16.18 -23.83,-24.27 -5.47,-12.02 -3.28,-13.12 -1.09,-17.49 -4.15,-10.49"
     id="path6" />

  <text
     x="-1960.55"
     y="7797.96"
     id="text3652-1"
     xml:space="preserve"
     style="font-style:normal;font-weight:normal;font-size:144px;font-family:Sans;-inkscape-font-specification:Sans;fill:#000000;fill-opacity:1;stroke:none"><tspan
       x="-1960.55"
       y="7797.96"
       id="tspan2"></tspan></text>
</svg>
