<?xml version="1.0" encoding="UTF-8" standalone="no"?>
<svg
   version="1.1"
   width="10400"
   height="9200"
   viewBox="-2350 -1900 10400 9200"
   id="svg2"
   xmlns:xlink="http://www.w3.org/1999/xlink"
   xmlns="http://www.w3.org/2000/svg"
   xmlns:svg="http://www.w3.org/2000/svg"
   xmlns:rdf="http://www.w3.org/1999/02/22-rdf-syntax-ns#"
   xmlns:cc="http://creativecommons.org/ns#"
   xmlns:dc="http://purl.org/dc/elements/1.1/">
  <metadata
     id="metadata8">
    <rdf:RDF>
      <cc:Work
         rdf:about="">
        <dc:format>image/svg+xml</dc:format>
        <dc:type
           rdf:resource="http://purl.org/dc/dcmitype/StillImage" />
      </cc:Work>
    </rdf:RDF>
  </metadata>
  <defs
     id="defs6" />
  <image
     xlink:href="../basemap/mowosm.png"
     id="image10"
     height="9312.22"
     width="10452.5"
     y="-1900.46"
     x="-2386.03"
     style="display:none" />
  <text
     x="-2260.55"
     y="-1693.04"
     id="text6965"
     xml:space="preserve"
     style="font-style:normal;font-weight:normal;font-size:144px;line-height:125%;font-family:Sans;-inkscape-font-specification:Sans;letter-spacing:0px;word-spacing:0px;fill:#000000;fill-opacity:1;stroke:none"><tspan
       x="-2260.55"
       y="-1693.04"
       id="tspan1">1930</tspan></text>
  <text
     x="-2260.55"
     y="7197.96"
     id="text6965-9"
     xml:space="preserve"
     style="font-style:normal;font-weight:normal;font-size:144px;line-height:125%;font-family:Sans;-inkscape-font-specification:Sans;letter-spacing:0px;word-spacing:0px;fill:#000000;fill-opacity:1;stroke:none"><tspan
       x="-2260.55"
       y="7197.96"
       id="tspan2"></tspan></text>
  <path
     style="fill:none;stroke:#278bc2;stroke-width:5;stroke-linejoin:round;stroke-opacity:1"
     d="m 2895.6,1886.49 -10.22,-36.37 -5.25,-31.81 -17.14,-58.96 -23.79,-81.35 -11.77,-25.07 -4.35,-20.21 2.81,-31.21 6.4,-31.98 8.19,-28.4 15.35,-35.05 20.72,-42.21 59.35,-112.56 60.38,-124.33 9.72,-26.09 7.16,-33.77 9.21,-52.19 -1.02,-26.61 -11.51,-174.22 6.4,-40.42 15.86,-145.82 6.4,-26.61 10.23,-25.58 22,-29.93 58.84,-73.93 197.5,-220.27 46.3,-53.21 77.26,-95.42 94.14,-105.4 69.84,-80.33 27.12,-34.79 109.49,-134.05 36.33,-49.12 20.47,-34.28"
     id="path1" />
</svg>
