<?xml version="1.0" encoding="UTF-8" standalone="no"?>
<svg
   version="1.1"
   id="svg2"
   width="2275"
   height="2475"
   viewBox="0 0 2275 2475"
   xmlns:xlink="http://www.w3.org/1999/xlink"
   xmlns="http://www.w3.org/2000/svg"
   xmlns:svg="http://www.w3.org/2000/svg"
   xmlns:rdf="http://www.w3.org/1999/02/22-rdf-syntax-ns#"
   xmlns:cc="http://creativecommons.org/ns#"
   xmlns:dc="http://purl.org/dc/elements/1.1/">
  <metadata
     id="metadata8">
    <rdf:RDF>
      <cc:Work
         rdf:about="">
        <dc:format>image/svg+xml</dc:format>
        <dc:type
           rdf:resource="http://purl.org/dc/dcmitype/StillImage" />
      </cc:Work>
    </rdf:RDF>
  </metadata>
  <defs
     id="defs6" />
  <g
     id="rt"
     style="opacity:0.25">
    <path
       style="fill:none;fill-rule:nonzero;stroke:#cccccc;stroke-width:8;stroke-linecap:butt;stroke-linejoin:round;stroke-miterlimit:4;stroke-dasharray:none;stroke-opacity:1"
       d="m 1529.5,462.49 -4.8,28.69 -14.43,22.37 -21.44,15.4 -89.98,42.58 -12.68,12.38 -10.57,19.93 -2.08,28.93"
       id="path5160-3-6" />
    <path
       id="path5160-6"
       d="m 5003.5,-172.5 -175.5,108.5 -32,22 -28,29.5 -23,27.5 -55.5,85.5 -29.5,37.5 -28.5,24 -41,32.5 -47.5,25 -70.5,20 -57,6 -102.5,-1 -49.5,11 -131,32 -56,17.5 -40,18.5 -29,21.5 -294,225 -38,38.5 -29.5,40 -29.5,60 -11,39.5 -16.5,104 -10.5,37 -14.5,33.5 -31,44 -24.5,25.5 -81,65 -54,36.5 -60,26.5 -59,20.5 -56,10.5 -145,9.5 -44,8 -42,16 -26,17 -103.5,102 -36,30.5 -40,8.5 -35,-3 -63,-35.5 -69.5,-70 -135.5,-112 -135,-96 -153,-92.5 -136,-105 -42,-39 -62.5,-37 -105,-55.5 -268.5,-183 -17.5,-21 -10,-30.5 -1,-44 22.5,-64 -7.5,-50.5 -14,-16 -14.21,-12.18 -19.96,-8.68 -140.33,-32.14 -34,4 -31.5,-8 -53,-30 -101.5,-62.5 -47.5,-41 -79,-35.5 -54,-12.5 -418.5,0.5 -75.5,-15 -51.5,-23 -40.5,-33.5 -30,-50.5 -10,-40 -0.5,-57.5 8.5,-91 5.5,-47 20,-54.5 77.5,-179.5 10,-57.5 -6,-60 -74.5,-226 -13.5,-55 -13,-417.5 -13,-48.5 -30.5,-45 -49,-37.5 -177.5,-61 -175,-25.5 -46,-15.5 -35,-24.5 -431.5,-377 -382.82,-334.84 -20.48,-24.47 -11.16,-25.6 -4.63,-19.33 -3.27,-21.78 1.63,-21.51 3.54,-23.42 11.44,-27.78 16.61,-28.59 301.99,-546.24 324.04,-581.64 58.27,-106.47 10.35,-11.98 20.42,-14.7 13.62,-5.45 39.21,-6.26 18.24,-1.09 74.34,-13.34 21.78,-8.99 22.33,-14.43 411.72,-301.44 215.39,-157.39"
       style="fill:none;fill-rule:nonzero;stroke:#cccccc;stroke-width:8;stroke-linecap:butt;stroke-linejoin:round;stroke-miterlimit:4;stroke-dasharray:none;stroke-opacity:1" />
    <path
       id="path1003"
       d="m 562.4,825.91 23.91,-7.05 19,-15.8 13.88,-28.61 2.14,-20.92 -3.63,-124.7 2.35,-99.71 -5.55,-131.31 5.12,-57.22 48.68,-203.91 -0.64,-16.44 -8.33,-49.75 -0.36,-43.28 3.35,-21.63 7.26,-17.51 16.65,-21.14 20.28,-11.96 18.15,-5.55 61.92,1.07 69.18,1.92 22.42,11.1 13.67,12.17 37.15,44.84 23.27,18.79 56.23,22.69"
       style="fill:none;fill-rule:nonzero;stroke:#cccccc;stroke-width:8;stroke-linecap:butt;stroke-linejoin:round;stroke-miterlimit:4;stroke-dasharray:none;stroke-opacity:1" />
    <path
       id="path5295"
       d="m 2035,828.5 -47,-23.5 -24,-2.5 -22.5,2.5 -35,19.5 -80.64,83.98 -24.71,18.8 -260.9,148.47 -40,7.25 -44.5,-11.25 -67.75,-41.5 -100.14,-65.35 -23.97,-14.05 -134.02,-110.82 -28.28,-14.67 -27.05,-6.54 -354.08,22.45 -23.2,-1.51 -66.12,-13.62 -173.01,-0.78 -20.86,4.24 -17.68,4.6 -24.75,13.79 -13.08,11.31 -88.03,85.56 -17.32,15.2 -15.56,13.08 -19.8,12.02 -33.59,15.56 -46.32,14.5 -16.26,8.13 -32.53,18.74 -22.27,18.03 -16.62,19.8 -128.69,193.39 -26.16,33.59 -38.18,32.53 -127.28,78.14 -47.02,22.27 -38.54,14.14 -43.84,9.55 -120.92,13.08 -36.42,7.42 -65.41,18.03 -22.27,8.84 -32.53,18.74"
       style="fill:none;fill-rule:nonzero;stroke:#cccccc;stroke-width:8;stroke-linecap:butt;stroke-linejoin:round;stroke-miterlimit:4;stroke-dasharray:none;stroke-opacity:1" />
    <path
       id="path966"
       d="m 1581.07,-199.81 -69.9,91.19 -24.31,31.71 -20.08,34.12 -10.72,26.42 -11.93,29.14 -11.78,20.08 -15.7,16.61 -20.84,18.57 -50.88,42.12 -58.13,45.75 -14.65,12.83 -10.72,12.23 -19.48,33.22 -9.66,12.68 -6.04,10.27 -14.49,16.46 -31.71,37.59 -4.98,13.59 -0.91,8.91 -2.72,19.33 -4.23,21.59 1.81,8.91 9.36,14.65 0.6,6.34 -3.99,10.31 -20.28,98.22 -1.28,20.28 -5.34,61.28 9.39,35.87 2.14,31.82 -3.59,46.75 -3.02,47.11 6.49,50.58 1.81,18.27 -4.23,12.53 -9.36,7.55 -13.89,4.53 -15.1,-1.21 -17.14,-3.03"
       style="opacity:1;fill:none;fill-rule:nonzero;stroke:#cccccc;stroke-width:8;stroke-linecap:butt;stroke-linejoin:round;stroke-miterlimit:4;stroke-dasharray:none;stroke-opacity:1" />
    <path
       id="path883"
       d="m 729.21,841.56 -32.46,-6.72 -22.07,-6.3 -19.97,-9.11 -16.81,-17.86 -8.41,-19.27 -8.16,-28.77"
       style="opacity:1;fill:none;fill-rule:nonzero;stroke:#cccccc;stroke-width:8;stroke-linecap:butt;stroke-linejoin:round;stroke-miterlimit:4;stroke-dasharray:none;stroke-opacity:1" />
    <path
       id="path879"
       d="m 1560.42,1026.05 20.48,18.71 7.68,2.1 9.91,0.74 h 11.02 l 9.41,-4.21 15.48,-10.9 26.7,-24.86"
       style="opacity:1;fill:none;fill-rule:nonzero;stroke:#cccccc;stroke-width:8;stroke-linecap:butt;stroke-linejoin:round;stroke-miterlimit:4;stroke-dasharray:none;stroke-opacity:1" />
    <path
       id="path4508"
       d="m 1780.55,941.82 18.53,-4.35 h 13.31 l 14.36,5.6 12.26,8.41 28.37,27.67 30.47,30.47 134.51,239.59"
       style="opacity:1;fill:none;fill-rule:nonzero;stroke:#cccccc;stroke-width:8;stroke-linecap:butt;stroke-linejoin:round;stroke-miterlimit:4;stroke-dasharray:none;stroke-opacity:1" />
    <path
       style="opacity:1;fill:none;fill-rule:nonzero;stroke:#cccccc;stroke-width:8;stroke-linecap:butt;stroke-linejoin:round;stroke-miterlimit:4;stroke-dasharray:none;stroke-opacity:1"
       d="m 1246.69,227.1 11.56,8.76 11.21,15.06 2.8,11.91 v 9.81 l -4.2,14.01 -5.25,7.71 -8.06,10.51 -6.66,12.26 -2.8,13.31 -3.15,14.71 2.45,10.86 6.66,16.46 20.32,19.27 14.36,10.16 83.37,222.43 15.76,31.53 21.02,54.99 8.41,23.12 7.36,32.58 15.41,40.98 19.9,39.12 7.07,12.72 65.15,112.09 295.99,516.32 14.01,10.86 15.76,4.9 24.17,-3.5 91.07,-25.57 14.36,-1.4 98.08,-0.7"
       id="path4506" />
    <path
       id="path4512"
       d="m 1263.89,950.85 24.8,9.14 23.77,1.31 56.05,-10.16 75.09,-41.52 20.97,-7.53 h 8.76 l 8.2,2.61 15.08,11.55"
       style="opacity:1;fill:none;fill-rule:nonzero;stroke:#cccccc;stroke-width:8;stroke-linecap:butt;stroke-linejoin:round;stroke-miterlimit:4;stroke-dasharray:none;stroke-opacity:1" />
    <path
       id="path4510"
       d="m 1443.6,909.62 11.56,-9.04 4.4,-5.24 2.09,-8.67 1.24,-10.34 -5.73,-29.7"
       style="opacity:1;fill:none;fill-rule:nonzero;stroke:#cccccc;stroke-width:8;stroke-linecap:butt;stroke-linejoin:round;stroke-miterlimit:4;stroke-dasharray:none;stroke-opacity:1" />
    <path
       style="fill:none;fill-rule:nonzero;stroke:#cccccc;stroke-width:8;stroke-linecap:butt;stroke-linejoin:round;stroke-miterlimit:4;stroke-dasharray:none;stroke-opacity:1"
       d="m 1825.37,1487.78 396.5,731.34 16.65,42.28 8.54,41.85 5.12,49.96 -0.43,43.56 -5.12,40.57 -154.16,901.91 -3.84,29.04 -0.43,34.16"
       id="path1" />
    <path
       style="fill:none;stroke:#cccccc;stroke-width:8;stroke-linejoin:round;stroke-opacity:1;stroke-dasharray:none"
       d="m 536,50 -107.55,4.22 -39.21,10.89 -57.46,27.78 -48.47,15.79 -41.12,7.62 -33.22,0.54 -332.48,2.18 -25.6,-5.99 -46.56,-16.07 -65.08,-17.16 -35.94,-5.72 -36.49,3.81 -584.64,67.8 -57.73,6.54 -37.85,0.82 -37.85,-2.18 -30.5,-5.99 -24.78,-8.17 -18.24,-14.98 -22.33,-28.59 -13.89,-9.53 -29.68,-13.62 -62.9,-8.99 h -45.75 l -17.97,3.54 -16.88,7.35 -19.06,16.07 -28.86,33.49 -11.71,23.15 -9.26,28.59 -111.64,341.74 -159.3,485.52 -17.97,45.47 -16.34,35.13 -18.52,35.67 -27.5,42.21 -311.52,472.99 -115.46,173.19 -140.78,227.37 -68.62,84.41 -40.03,35.13 -59.36,50.65 -145.14,160.39 -15.25,24.24 -10.89,21.51 -8.44,34.04 -4.08,26.96 v 36.22 l 35.13,157.94 56.09,261.41 6.21,64.58"
       id="path4" />
    <path
       id="path5160-3"
       d="m 1500.25,1082.96 39.72,8.66 33.86,13.1 27.86,16.62 30.46,29.36"
       style="fill:none;fill-rule:nonzero;stroke:#cccccc;stroke-width:8;stroke-linecap:butt;stroke-linejoin:round;stroke-miterlimit:4;stroke-dasharray:none;stroke-opacity:1" />
  </g>
  <image
     xlink:href="../basemap/amsosm.png"
     style="display:none"
     width="14423.82"
     height="15041.98"
     preserveAspectRatio="none"
     id="image10"
     x="-6386.05"
     y="-4483.03" />
  <path
     style="opacity:1;fill:none;fill-rule:nonzero;stroke:#c71919;stroke-width:5;stroke-linecap:butt;stroke-linejoin:round;stroke-miterlimit:4;stroke-dasharray:none;stroke-opacity:1"
     d="m 791.67,524.49 9.46,-12.61 -2.1,-77.41 3.5,-4.55 20.32,-0.35 12.61,-5.96 23.82,-1.4 11.91,6.66 64.02,-24.36 46.7,-22.26 47.04,-21.24 1.65,-4.41 -17.91,-43.33 1.75,-5.95 67.95,-27.32 19.97,1.4 11.21,8.41 31.18,3.5 2.94,-0.08 1.84,-1.59 1.57,-2.64"
     id="path4627" />
  <path
     style="opacity:1;fill:none;fill-rule:nonzero;stroke:#c71919;stroke-width:5;stroke-linecap:butt;stroke-linejoin:round;stroke-miterlimit:4;stroke-dasharray:none;stroke-opacity:1"
     d="m 613.51,528.65 181.03,-3.17 9.04,-2.39 16.99,7.71 203.69,-84.59 13.84,-7.18 2.63,0.35 11.87,11.03 4.6,-0.26 18.21,-14.93 1.09,-5.04 52.67,-39.89 11.52,-6.3 -0.04,-3.11 -7.75,-10.99 0.39,-4.38 4.42,-5.08 1.01,-12.52 11.69,-26.45 -0.57,-26.71 1.28,-5.75 12.74,-26.38 28.59,-29.86 5.98,-10.44 12.92,-4.38 4.25,0.72 8.55,7.33 3.62,-1.43 4.79,-4.96 0.53,-5.19 -10.09,-8.14 -3.34,0.28 -5.99,8.48 -1.09,2.85"
     id="path4667" />
  <path
     style="opacity:1;fill:none;fill-rule:nonzero;stroke:#c71919;stroke-width:1;stroke-linecap:butt;stroke-linejoin:round;stroke-miterlimit:4;stroke-dasharray:none;stroke-opacity:1"
     d="m 958.74,1404.03 3.16,-3.01 13.06,-32.08 2.65,-9.58 1.53,-11.73 1.4,-101.12 -2.4,-19.09 -14.36,-53.58 -9.01,-33.82 -4.03,-24.72 -1.43,-45.25 0.02,-15.26"
     id="path4545" />
  <path
     style="opacity:1;fill:none;fill-rule:nonzero;stroke:#c71919;stroke-width:5;stroke-linecap:butt;stroke-linejoin:round;stroke-miterlimit:4;stroke-dasharray:none;stroke-opacity:1"
     d="m 959.81,1402.82 -4.47,3.59 -26.36,-9.72"
     id="path4547" />
  <path
     style="opacity:1;fill:none;fill-rule:nonzero;stroke:#c71919;stroke-width:1;stroke-linecap:butt;stroke-linejoin:round;stroke-miterlimit:4;stroke-dasharray:none;stroke-opacity:1"
     d="m 1444.6,248.12 67.43,18.39 10.33,7 14.71,10.33 23.99,14.01 25.57,11.21 13.31,3.15 9.98,-0.35 119.8,-22.42 14.71,-0.17 26.1,4.2 52.02,20.14"
     id="path4582" />
  <path
     id="path909"
     d="m 1444.6,248.12 -82.77,-16.51 -40.5,-6.56 -38.64,-7.93 -3.96,-1.86 -3.59,1.24 -5.08,12.51 -6.94,-0.25 -11.79,-8.17 -18.78,-1"
     style="opacity:1;fill:none;fill-rule:nonzero;stroke:#c71919;stroke-width:5;stroke-linecap:butt;stroke-linejoin:round;stroke-miterlimit:4;stroke-dasharray:none;stroke-opacity:1" />
  <path
     style="opacity:1;fill:none;fill-rule:nonzero;stroke:#c71919;stroke-width:5;stroke-linecap:butt;stroke-linejoin:round;stroke-miterlimit:4;stroke-dasharray:none;stroke-opacity:1"
     d="m 1822.55,313.62 20.32,9.11 14.01,11.56 335.4,287.23 4.55,-0.17 7.18,-8.93 h 3.68 l 17.34,14.89 -1.05,4.2 -10.68,4.38 h -5.6 l -15.41,-14.36"
     id="path4586" />
  <path
     id="path4625"
     d="m 392.96,552.28 52.83,-17.52 27.43,-3.32 24.03,-1.1 116.27,-1.68"
     style="opacity:1;fill:none;fill-rule:nonzero;stroke:#c71919;stroke-width:1;stroke-linecap:butt;stroke-linejoin:round;stroke-miterlimit:4;stroke-dasharray:none;stroke-opacity:1" />
  <path
     style="opacity:1;fill:none;fill-rule:nonzero;stroke:#c71919;stroke-width:5;stroke-linecap:butt;stroke-linejoin:round;stroke-miterlimit:4;stroke-dasharray:none;stroke-opacity:1"
     d="m 392.96,552.28 -4.42,-1.52 -20.31,-61.92 -4.21,-1.61 -32.2,11.02 -1.61,3.84 1.11,10.03 -1.36,2.23 -157.65,52.26"
     id="path4669" />
  <path
     style="opacity:1;fill:none;fill-rule:nonzero;stroke:#c71919;stroke-width:5;stroke-linecap:butt;stroke-linejoin:round;stroke-miterlimit:4;stroke-dasharray:none;stroke-opacity:1"
     d="m 392.96,552.28 -2.44,4.79 8.05,24.89 -0.99,2.85 -18.08,5.7 -7.18,4.33 -200.75,65.89 -3.22,-0.87 -109.12,-71.62"
     id="path4671" />
  <path
     id="path4584"
     d="m 1227.76,224.55 -2.35,7.61 7.74,5.76 13.25,-0.99 10.86,-1.08 3.88,-5.49 1.98,-1.61"
     style="opacity:1;fill:none;fill-rule:nonzero;stroke:#c71919;stroke-width:5;stroke-linecap:butt;stroke-linejoin:round;stroke-miterlimit:4;stroke-dasharray:none;stroke-opacity:1" />
  <path
     id="path911"
     d="m 1014.45,307.32 -92.7,34.57 -7.85,-0.91 -9.66,-3.77 -11.63,-9.21 -29.74,-9.21 -27.93,5.13 -88.78,24.46 -16.91,3.93 -51.18,-1.21 -23.25,-4.38 -1.66,-2.27 9.66,-40.01 -2.72,-3.93 -174.53,-44.54 -4.68,-6.79 -6.95,4.08 -62.66,-11.02 -9.06,0.45 -75.34,-12.98"
     style="opacity:1;fill:none;fill-rule:nonzero;stroke:#c71919;stroke-width:5;stroke-linecap:butt;stroke-linejoin:round;stroke-miterlimit:4;stroke-dasharray:none;stroke-opacity:1" />
  <path
     id="path913"
     d="m 473.94,253.26 3.77,7.25 7.85,-4.53"
     style="opacity:1;fill:none;fill-rule:nonzero;stroke:#c71919;stroke-width:5;stroke-linecap:butt;stroke-linejoin:round;stroke-miterlimit:4;stroke-dasharray:none;stroke-opacity:1" />
  <path
     id="path915"
     d="m 468.81,300.97 8.91,-40.46"
     style="opacity:1;fill:none;fill-rule:nonzero;stroke:#c71919;stroke-width:5;stroke-linecap:butt;stroke-linejoin:round;stroke-miterlimit:4;stroke-dasharray:none;stroke-opacity:1" />
  <path
     id="path917"
     d="m 480.89,249.19 19.78,-79.11 4.38,-3.02 216.66,55.86 8.3,-2.11 3.47,2.11 42.43,131.05 3.02,1.96 3.47,-0.91 2.57,1.81 14.34,50.73 -0.15,18.72 3.38,3.63"
     style="opacity:1;fill:none;fill-rule:nonzero;stroke:#c71919;stroke-width:5;stroke-linecap:butt;stroke-linejoin:round;stroke-miterlimit:4;stroke-dasharray:none;stroke-opacity:1" />
  <path
     id="path919"
     d="m 1028.95,361.01 5.13,2.32 13.59,31.41 4.53,20.08 4.23,7.4 12.23,14.19 3.02,0.45"
     style="opacity:1;fill:none;fill-rule:nonzero;stroke:#c71919;stroke-width:5;stroke-linecap:butt;stroke-linejoin:round;stroke-miterlimit:4;stroke-dasharray:none;stroke-opacity:1" />
  <path
     id="path921"
     d="m 1073.94,436.71 4.83,3.02 3.77,6.04 4.23,11.02 55.86,42.12 6.95,3.62 19.33,1.36 42.43,2.42 18.42,-3.62 51.18,-14.04 132.11,-44.84 7.7,-8.15 11.63,-8 31.1,-31.86 10.27,-5.89 3.77,-6.49 2.87,-7.55 60.69,-62.81 13.14,-11.47 10.57,-6.19 19.02,-4.83 30.5,-4.53 1.81,-4.98 -26.57,-37.44 -0.45,-7.55"
     style="opacity:1;fill:none;fill-rule:nonzero;stroke:#c71919;stroke-width:5;stroke-linecap:butt;stroke-linejoin:round;stroke-miterlimit:4;stroke-dasharray:none;stroke-opacity:1" />
  <path
     id="path923"
     d="m 659.35,56.54 0.3,16.76 3.77,17.97 4.53,4.98 56.01,-1.81 4.53,3.77 15.1,-0.3 3.17,3.92 -0.15,22.04 33.37,22.65 38.05,35.48 8.45,10.12 7.7,11.93 4.08,10.12 4.08,11.93 16.46,87.87 4.08,4.83"
     style="opacity:1;fill:none;fill-rule:nonzero;stroke:#c71919;stroke-width:5;stroke-linecap:butt;stroke-linejoin:round;stroke-miterlimit:4;stroke-dasharray:none;stroke-opacity:1" />
  <path
     id="path925"
     d="m 1040.02,523.26 -99.85,43.74 -1.51,2.11 -1.51,11.47 -3.62,3.02 -12.08,3.93 -10.57,6.04 -9.2,1.74 -5.55,5.55 h -7.47 l -10.04,5.98 -9.82,3.42 -8.75,5.34 -13.24,4.91 -35.44,15.59 -9.18,1.71 -14.31,-3.63 -14.69,-1.04 -0.3,-7.7 -9.36,-0.76 -201.41,2.57 -4.53,2.72 1.96,62.81 -3.02,4.38 -36.08,3.77 -116.26,4.38 -69.45,22.8"
     style="opacity:1;fill:none;fill-rule:nonzero;stroke:#c71919;stroke-width:5;stroke-linecap:butt;stroke-linejoin:round;stroke-miterlimit:4;stroke-dasharray:none;stroke-opacity:1" />
  <path
     id="path927"
     d="m 1068.44,442.22 0.22,-5.81"
     style="opacity:1;fill:none;fill-rule:nonzero;stroke:#c71919;stroke-width:5;stroke-linecap:butt;stroke-linejoin:round;stroke-miterlimit:4;stroke-dasharray:none;stroke-opacity:1" />
  <path
     style="opacity:1;fill:none;fill-rule:nonzero;stroke:#c71919;stroke-width:5;stroke-linecap:butt;stroke-linejoin:round;stroke-miterlimit:4;stroke-dasharray:none;stroke-opacity:1"
     d="m 1012.7,313.27 -1.27,-3.86 5.12,-29.68 24.34,-61.92"
     id="path929" />
  <path
     id="path933"
     d="m 1040.89,217.81 2.35,-4.7 35.66,-91.6 15.16,-29.89 10.68,-24.77 -7.47,-2.99 -9.61,24.13 6.41,3.63"
     style="opacity:1;fill:none;fill-rule:nonzero;stroke:#c71919;stroke-width:5;stroke-linecap:butt;stroke-linejoin:round;stroke-miterlimit:4;stroke-dasharray:none;stroke-opacity:1" />
  <path
     id="path935"
     d="m 1039.4,528.69 -76.44,-178.93 -1.71,-14.52 1.71,-13.45 45.48,-114.45 -1.92,-5.34 1.28,-4.48 4.27,-1.07 3.42,2.35 1.92,6.19 7.9,4.06 5.12,-1.92 14.09,-34.16 -3.2,-16.23 -37.79,-36.09 -21.14,0.43 -7.9,0.85 -3.63,-7.69 -15.59,4.27 2.56,8.11 16.65,-4.7"
     style="opacity:1;fill:none;fill-rule:nonzero;stroke:#c71919;stroke-width:5;stroke-linecap:butt;stroke-linejoin:round;stroke-miterlimit:4;stroke-dasharray:none;stroke-opacity:1" />
  <path
     id="path937"
     d="m 1008.44,207.35 8.97,-2.35"
     style="opacity:1;fill:none;fill-rule:nonzero;stroke:#c71919;stroke-width:5;stroke-linecap:butt;stroke-linejoin:round;stroke-miterlimit:4;stroke-dasharray:none;stroke-opacity:1" />
  <path
     id="path939"
     d="m 1071.9,602.08 7.64,6.04 18.15,5.98 15.8,1.07 14.31,-1.92 63.63,-14.09 41.85,-14.31 49.11,-26.69 20.92,-4.7 0.85,-6.83 76.65,-31.17 3.84,-5.98 6.83,-2.35 2.78,0.64 7.05,15.16 3.42,1.5 114.66,-46.12 8.75,-1.92 52.74,1.92 92.88,-22.21 4.7,-3.42 6.62,-27.12 6.19,-9.39 39.93,-0.21"
     style="opacity:1;fill:none;fill-rule:nonzero;stroke:#c71919;stroke-width:5;stroke-linecap:butt;stroke-linejoin:round;stroke-miterlimit:4;stroke-dasharray:none;stroke-opacity:1" />
  <path
     id="path941"
     d="m 1371.85,457.38 5.98,2.78 16.44,47.61"
     style="opacity:1;fill:none;fill-rule:nonzero;stroke:#c71919;stroke-width:5;stroke-linecap:butt;stroke-linejoin:round;stroke-miterlimit:4;stroke-dasharray:none;stroke-opacity:1" />
  <path
     id="path943"
     d="m 1413.05,443.8 10.69,-0.52 5.55,7.69 16.01,-4.7 12.38,1.71 7.9,24.55 8.75,19.22 30.11,78.15 214.59,219.07 17.94,14.95 16.01,7.26 41.42,12.38 15.8,4.48 52.53,16.01 20.07,9.61 14.31,2.99"
     style="opacity:1;fill:none;fill-rule:nonzero;stroke:#c71919;stroke-width:5;stroke-linecap:butt;stroke-linejoin:round;stroke-miterlimit:4;stroke-dasharray:none;stroke-opacity:1" />
  <path
     id="path945"
     d="m 1152.14,607.48 5.34,2.99 -0.21,17.72 2.35,14.09 -4.91,48.68 3.2,2.99 106.97,8.75 10.04,5.98 127.26,-29.25 11.96,4.7 4.7,12.6"
     style="opacity:1;fill:none;fill-rule:nonzero;stroke:#c71919;stroke-width:5;stroke-linecap:butt;stroke-linejoin:round;stroke-miterlimit:4;stroke-dasharray:none;stroke-opacity:1" />
  <path
     id="path949"
     d="m 1225.41,232.16 -48.5,59.52 -4.7,14.09 -1.92,20.5 -5.77,25.84 v 9.18 l 2.78,5.55 10.04,13.45 1.71,8.97 21.14,10.46 13.45,1.07 1.28,1.71 19.84,85.47 -8.68,15.44 7.21,33.39 4.06,12.38 25.84,50.82 2.35,8.97 21.35,92.88 -1.71,4.48"
     style="opacity:1;fill:none;fill-rule:nonzero;stroke:#c71919;stroke-width:5;stroke-linecap:butt;stroke-linejoin:round;stroke-miterlimit:4;stroke-dasharray:none;stroke-opacity:1" />
  <path
     id="path951"
     d="m 1274.91,708.69 -5.98,11.96 -90.96,52.95 -7.47,-0.85 -2.56,2.78 -4.7,64.27 -7.69,5.12 -12.6,14.31"
     style="opacity:1;fill:none;fill-rule:nonzero;stroke:#c71919;stroke-width:5;stroke-linecap:butt;stroke-linejoin:round;stroke-miterlimit:4;stroke-dasharray:none;stroke-opacity:1" />
  <path
     id="path953"
     d="m 1213.63,400.8 28.4,-0.43 10.04,-3.2 15.59,-23.06 16.87,-3.42 24.98,15.16 12.38,-3.84 88.4,50.18 4.27,6.41 9.18,4.7"
     style="opacity:1;fill:none;fill-rule:nonzero;stroke:#c71919;stroke-width:5;stroke-linecap:butt;stroke-linejoin:round;stroke-miterlimit:4;stroke-dasharray:none;stroke-opacity:1" />
  <path
     id="path955"
     d="m 1445.3,446.27 43.99,-40.35 50.6,-3.84 4.7,4.48 63.2,30.11 2.35,4.06 -0.21,25.62 3.63,3.84"
     style="opacity:1;fill:none;fill-rule:nonzero;stroke:#c71919;stroke-width:5;stroke-linecap:butt;stroke-linejoin:round;stroke-miterlimit:4;stroke-dasharray:none;stroke-opacity:1" />
  <path
     id="path958"
     d="m 1457.68,447.98 -2.78,-10.46"
     style="opacity:1;fill:none;fill-rule:nonzero;stroke:#c71919;stroke-width:5;stroke-linecap:butt;stroke-linejoin:round;stroke-miterlimit:4;stroke-dasharray:none;stroke-opacity:1" />
  <path
     id="path960"
     d="m 1149.58,502.53 -2.14,4.17 5.98,6.62 -5.34,61.28 7.26,27.33 -3.2,5.55"
     style="opacity:1;fill:none;fill-rule:nonzero;stroke:#c71919;stroke-width:5;stroke-linecap:butt;stroke-linejoin:round;stroke-miterlimit:4;stroke-dasharray:none;stroke-opacity:1" />
  <path
     id="path962"
     d="m 1079.54,608.12 -10.04,0.43"
     style="opacity:1;fill:none;fill-rule:nonzero;stroke:#c71919;stroke-width:5;stroke-linecap:butt;stroke-linejoin:round;stroke-miterlimit:4;stroke-dasharray:none;stroke-opacity:1" />
  <path
     id="path964"
     d="m 1022.74,693.96 -5.76,4.06 -78.15,4.48 -104.84,23.06 -2.99,5.34 11.96,47.62 -1.49,19.64 0.43,15.37 -4.27,7.47 0.43,51.88 2.99,3.42 69.39,0.64 15.37,-1.5"
     style="opacity:1;fill:none;fill-rule:nonzero;stroke:#c71919;stroke-width:5;stroke-linecap:butt;stroke-linejoin:round;stroke-miterlimit:4;stroke-dasharray:none;stroke-opacity:1" />
  <path
     id="path968"
     d="m 1153.42,513.32 6.07,-5.77 9.42,-3.66"
     style="opacity:1;fill:none;fill-rule:nonzero;stroke:#c71919;stroke-width:5;stroke-linecap:butt;stroke-linejoin:round;stroke-miterlimit:4;stroke-dasharray:none;stroke-opacity:1" />
  <path
     style="opacity:1;fill:none;fill-rule:nonzero;stroke:#c71919;stroke-width:5;stroke-linecap:butt;stroke-linejoin:round;stroke-miterlimit:4;stroke-dasharray:none;stroke-opacity:1"
     d="m 949.33,1054.78 -3.5,-202.72 -2.48,-55.75 4.73,-4.03 72.51,-4.03 2.63,-3.68 -4.03,-56.4 6.48,-64.45 13.31,-20.14 5.43,-17.51 27.5,-18.57 v -5.43 l -32.75,-75.66 0.88,-3.15 44.14,-19.44 1.4,-3.68 -13.84,-31.52 -11.21,-9.28 -2.45,-3.85 -0.31,-4.55"
     id="path4549" />
  <path
     id="path898"
     d="m 1284.75,209.93 c 13.27,-22.41 24.52,-30.8 33.45,-46.78"
     style="opacity:1;fill:none;fill-rule:nonzero;stroke:#00ffff;stroke-width:5;stroke-linecap:butt;stroke-linejoin:round;stroke-miterlimit:4;stroke-dasharray:none;stroke-opacity:1" />
  <path
     id="path900"
     d="m 1589.73,221.76 c 3.55,-14.38 -2.68,-52.91 -61.05,-107.3"
     style="opacity:1;fill:none;fill-rule:nonzero;stroke:#00ffff;stroke-width:5;stroke-linecap:butt;stroke-linejoin:round;stroke-miterlimit:4;stroke-dasharray:none;stroke-opacity:1" />
  <path
     id="path902"
     d="m 1236.56,179.07 c 8.97,-16.61 22.07,-13.58 31.46,-23.6"
     style="opacity:1;fill:none;fill-rule:nonzero;stroke:#00ffff;stroke-width:5;stroke-linecap:butt;stroke-linejoin:round;stroke-miterlimit:4;stroke-dasharray:none;stroke-opacity:1" />
  <path
     id="path904"
     d="m 549.08,-446.23 c -8.53,29.33 10.59,21.87 4.5,50.32"
     style="opacity:1;fill:none;fill-rule:nonzero;stroke:#00ffff;stroke-width:5;stroke-linecap:butt;stroke-linejoin:round;stroke-miterlimit:4;stroke-dasharray:none;stroke-opacity:1" />
  <path
     id="path906"
     d="m -400.87,-650.94 c -4.54,20.82 1.12,34.06 -5.03,46.88"
     style="opacity:1;fill:none;fill-rule:nonzero;stroke:#00ffff;stroke-width:5;stroke-linecap:butt;stroke-linejoin:round;stroke-miterlimit:4;stroke-dasharray:none;stroke-opacity:1" />
  <path
     id="path908"
     d="m -1268.45,-1132.67 c 0.45,19.3 -3.44,23.41 -3.18,48.99"
     style="opacity:1;fill:none;fill-rule:nonzero;stroke:#00ffff;stroke-width:5;stroke-linecap:butt;stroke-linejoin:round;stroke-miterlimit:4;stroke-dasharray:none;stroke-opacity:1" />
  <path
     style="fill:none;stroke:#c71919;stroke-width:1;stroke-linejoin:round;stroke-miterlimit:4;stroke-dasharray:none;stroke-opacity:1"
     d="m 961.89,1401.02 -34.86,94.22 -30.78,76.8 -16.64,33.93 -4.26,14.57 -10.47,16.26"
     id="path1579" />
  <path
     style="fill:none;stroke:#c71919;stroke-width:5;stroke-linejoin:round;stroke-miterlimit:4;stroke-dasharray:none;stroke-opacity:1"
     d="m 509.2,2296.77 69.66,66.77 11.09,8.75 19.01,18.94 17.16,20.17"
     id="path33622" />
  <path
     style="fill:none;stroke:#c71919;stroke-width:1;stroke-linejoin:round;stroke-miterlimit:4;stroke-dasharray:none;stroke-opacity:1"
     d="m 503.07,1996.26 -90.86,198.77 -2.95,11 -0.06,11.33 3.43,12.69 5.88,9.6 9.83,7.79 53.51,25.03 9.49,6.7 17.86,17.6"
     id="path33626" />
  <path
     style="fill:none;stroke:#c71919;stroke-width:5;stroke-linejoin:round;stroke-miterlimit:4;stroke-dasharray:none;stroke-opacity:1"
     d="m 864.89,1636.8 -16.42,39.92 -7.83,25.03 -4.54,8.62 -6.46,8.02 -3.76,2.01 -4.62,0.74 -6.37,-0.31 -48.26,-11.41 -4.96,-2.87 -17.19,-25.15 -5.38,-4.92 -17.99,-4.53 -77.41,-17.26 -13.59,2.18 -9.64,5.33 -6.19,6.53 -12.22,27.27 0.53,9.95 11.73,38.01 v 7.41 l -2.74,8.32 -24.49,52.77 -84.02,183.8"
     id="path1581" />
  <path
     style="fill:none;stroke:#c71919;stroke-width:5;stroke-linejoin:round;stroke-opacity:1"
     d="m 1234.76,487.97 10.95,6.41 -1.05,4.22"
     id="path537" />
  <path
     style="fill:none;stroke:#00ffff;stroke-width:5;stroke-linejoin:round;stroke-opacity:1"
     d="m 1236.56,179.07 c 24.08,-53.07 -117.83,-185.56 -79.98,-317"
     id="path1520" />
  <path
     style="fill:none;stroke:#00ffff;stroke-width:5;stroke-linejoin:round;stroke-opacity:1"
     d="m 1107.7,-3.77 c 34.25,-13.1 72.12,-45.85 97.58,-50.25"
     id="path1585" />
  <path
     style="fill:none;stroke:#00ffff;stroke-width:5;stroke-linejoin:round;stroke-opacity:1"
     d="m 1107.7,-3.77 c 48.99,-18.46 33.35,-71.6 48.88,-134.16"
     id="path1587" />
  <path
     style="fill:none;stroke:#00ffff;stroke-width:5;stroke-linejoin:round;stroke-opacity:1"
     d="m 1702.42,278.57 c 22.5,-3.39 38.5,-22.1 63.83,-24.02"
     id="path1589" />
</svg>
