<?xml version="1.0" encoding="UTF-8" standalone="no"?>
<svg
   version="1.1"
   id="svg2"
   width="1075"
   height="675"
   viewBox="0 0 1075 675"
   xmlns:xlink="http://www.w3.org/1999/xlink"
   xmlns="http://www.w3.org/2000/svg"
   xmlns:svg="http://www.w3.org/2000/svg"
   xmlns:rdf="http://www.w3.org/1999/02/22-rdf-syntax-ns#"
   xmlns:cc="http://creativecommons.org/ns#"
   xmlns:dc="http://purl.org/dc/elements/1.1/">
  <metadata
     id="metadata8">
    <rdf:RDF>
      <cc:Work
         rdf:about="">
        <dc:format>image/svg+xml</dc:format>
        <dc:type
           rdf:resource="http://purl.org/dc/dcmitype/StillImage" />
      </cc:Work>
    </rdf:RDF>
  </metadata>
  <defs
     id="defs6" />
  <image
     xlink:href="basemap/bd_osm.png"
     width="1235"
     height="823.33"
     preserveAspectRatio="none"
     id="image10"
     x="-25"
     y="-23.33"
     style="display:none" />
  <path
     style="color:#000000;fill:none;stroke:#066740;stroke-width:5;stroke-linejoin:round;stroke-dasharray:none;stroke-opacity:1"
     d="m 954.05,498.83 -43.39,43.2 -8.06,13.12 19.91,12.78 c 0.11,0.07 0.2,0.14 0.3,0.22 l 47.26,41.45 26.23,-13.62 3.1,-3.76 1.64,-7.02 -2.04,-9.21 c 0,-0.01 0,-0.01 -0.01,-0.02 l -2.71,-12.75 c -0.07,-0.31 -0.07,-0.63 -0.02,-0.94 l 4.36,-25.41 -47.62,-38.91 -19.89,-14.79 -18.3,-10.23 c -0.05,-0.03 -0.11,-0.06 -0.16,-0.1 l -44.51,-34.57 -13.56,-3.85 -19.71,20.9 -6.03,10.21 c -0.6,1.01 -1.83,1.47 -2.94,1.1 l -50.98,-16.99 -54.49,-4.85 c -1.35,-0.12 -2.35,-1.29 -2.27,-2.64 l 1.58,-26.24 -12.78,-17.99 c -0.25,-0.35 -0.4,-0.76 -0.45,-1.19 l -0.54,-5.14 -2.68,-23.29 -3.62,-10.07 -17.22,-28.51 -10.01,-15.71 c -0.09,-0.14 -0.17,-0.29 -0.23,-0.45 l -23.32,-61.02 -0.75,-17.23 11.24,-40.07 8.68,-21.42 -0.54,-9.22 -4.61,-8.41 -8.14,-5.97 -15.19,-2.44 -62.64,-2.17 -2.71,-1.9 -3.53,-7.59 -0.81,-15.46 -6.24,-15.73 -10.58,-21.69 -22.51,-26.84"
     id="path463" />
  <path
     style="opacity:1;fill:none;fill-rule:nonzero;stroke:#fdc900;stroke-width:5;stroke-linecap:butt;stroke-linejoin:round;stroke-miterlimit:4;stroke-dasharray:none;stroke-opacity:1"
     d="m 55.54,273.63 131.8,-65.63 90.58,-18.17 11.93,2.71 24.68,10.03 32.27,0.27 275.53,64 11.93,-0.81 27.12,-9.49 7.86,-5.15 3.25,-5.69 -2.71,-6.51 -6.78,-2.44 -6.24,1.36 -2,3.85 0.81,8.81 23.23,60.78 9.89,15.52 0.03,0.05 17.36,28.75 0.21,0.45 3.8,10.58 0.13,0.56 2.71,23.59 v 0.02 l 0.47,4.5 12.91,18.18 0.46,1.6 -1.48,24.7 52.36,4.66 0.57,0.12 49.34,16.44 0.8,11.12 -14.79,20.51 74.65,74.03 3.71,-1.03 14.62,-26.64 41.82,-40.75 10.67,-1.82 45.86,37.25 0.88,2.36 -4.53,26.38 2.61,12.27 2.17,9.75 -0.01,1.11 -1.9,8.14 -0.51,1.02 -3.8,4.61 -0.78,0.63 -28.2,14.64 -2.8,-0.34 -48.4,-42.46 -21.81,-14"
     id="path836" />
</svg>
