<?xml version="1.0" encoding="UTF-8" standalone="no"?>
<svg
   version="1.1"
   width="5200"
   height="3725"
   viewBox="-1250 -2500 5200 3725"
   id="svg2"
   xmlns:xlink="http://www.w3.org/1999/xlink"
   xmlns="http://www.w3.org/2000/svg"
   xmlns:svg="http://www.w3.org/2000/svg"
   xmlns:rdf="http://www.w3.org/1999/02/22-rdf-syntax-ns#"
   xmlns:cc="http://creativecommons.org/ns#"
   xmlns:dc="http://purl.org/dc/elements/1.1/">
  <metadata
     id="metadata37">
    <rdf:RDF>
      <cc:Work
         rdf:about="">
        <dc:format>image/svg+xml</dc:format>
        <dc:type
           rdf:resource="http://purl.org/dc/dcmitype/StillImage" />
      </cc:Work>
    </rdf:RDF>
  </metadata>
  <defs
     id="defs6" />
  <image
     xlink:href="../timelines/basemap/berosm.png"
     id="image12"
     height="7397.14"
     width="8835.47"
     y="-4812.86"
     x="-4484.28"
     style="display:none" />
  <g
     id="rt"
     style="opacity:0.25">
    <path
       style="fill:none;stroke:#cccccc;stroke-width:8;stroke-linejoin:round;stroke-opacity:1;stroke-dasharray:none"
       d="m -903.49,-1156.57 22.71,53.28 19.57,58 11.01,42.8 12.23,46.12 2.97,22.19 -1.4,47.69 -2.8,12.23 -21.14,66.39 -4.89,26.21 -2.27,34.07 2.1,67.79 -5.07,104.82 -4.02,23.24 -11.01,31.1 -51.19,141.34"
       id="path1" />
    <path
       style="fill:none;stroke:#cccccc;stroke-width:8;stroke-linecap:butt;stroke-linejoin:round;stroke-miterlimit:4;stroke-dasharray:none;stroke-opacity:1"
       id="path2818"
       d="m -1358.77,-76.57 9.02,-29.41 29.63,-50.01 34.49,-58.67 3.46,-15.58 0.46,-76.56 4.28,-26.19 -2.96,-28.16 -0.14,-44.35 1.26,-47.88 2.45,-13.08 18.4,-42.35 2.44,-15.53 -0.41,-114.01 -1.39,-73.11 -0.09,-57.75 5.9,-72.72 28.17,-51.76 9.17,-19.65 8.52,-14.41 18.34,-14.41 16.38,-18.34 15.07,-24.9 5.24,-16.38 v -26.86 l -11.35,-96.02 -0.22,-15.1 4.37,-25.8 -1.31,-98.27 2.62,-36.69 7.86,-24.9 7.21,-20.31 11.79,-16.38 48.48,-48.48 25.55,-12.45 30.14,-20.31 109.41,-109.41 35.38,-36.69 6.55,-15.72 17.03,-41.27" />
    <path
       style="fill:none;stroke:#cccccc;stroke-width:8;stroke-linecap:butt;stroke-linejoin:round;stroke-miterlimit:4;stroke-dasharray:none;stroke-opacity:1"
       id="path3617"
       d="m -1296.92,-1736.37 17.38,7.24 30.28,14.82 43.16,40.59 97.92,90.84 76.66,71.51 114.03,106.3 27.06,27.06 47.67,50.89 28.99,36.08 43.16,57.98 35.73,47.12 3.78,11.44 13.96,136 11.6,122.4 9.66,88.9 7.84,83.94 -1.79,20.08 -3.25,9.46 -7.1,9.52 -8.26,14.22 -17.07,36.08 -12.88,47.03 -5.15,31.57 0.52,53.83 3.63,20.93 -2.4,161.16 -4.1,19.33 0.41,43.67 v 57.34 l -2.58,23.19 -14.17,98.57 3.87,46.38 10.95,94.7 7.89,68.67 12.91,58.31" />
    <path
       style="fill:none;stroke:#cccccc;stroke-width:8;stroke-linecap:butt;stroke-linejoin:round;stroke-miterlimit:4;stroke-dasharray:none;stroke-opacity:1"
       id="path3615"
       d="m -2485.32,-1295.43 3.59,-19.03 1.25,-16.68 5.91,-15.99 9.34,-10.63 9.99,-5.15 8.72,-2.08 9.05,0.53 13.48,3.81 15.14,9.02 19.97,3.87 14.4,-1.06 14.81,-4.14 13.42,0.34 12.44,3.57 21.26,9.66 14.23,7.62 17.67,1.8 22.53,-4.9 76.81,-20.46 28.2,-5.95 22.29,-0.04 35.67,5.38 59,9.21 153.57,17.68 38.3,2.34 40.19,0.35 29.49,-2.51 12.1,-0.2 70.66,3.85 h 52.18 l 34.14,6.44 24.48,2.58 12.37,5.21 10.16,6.82 9.04,9.88 5.8,13.53 2.58,16.75 3.22,42.52 9.66,22.55 10.31,13.53 19.33,23.19 6.01,11.59 3.66,20.62 -1.16,17.72 5.55,24.42 -0.36,17.41 -1.65,17.25 2.13,23.05 0.51,23.6 -1.39,8.03 -6.85,16.69 -7.09,23.19 2.58,28.99 11.6,55.4 5.8,35.43 7.09,44.45 -4.51,21.9 -1.93,19.97 14.17,70.86 16.11,23.84 47.03,57.98 17.39,17.39 21.9,19.33 15.46,8.37 56.05,-0.64 44.45,-15.46 81.82,-16.11 175.87,-28.99 17.39,0.64 28.35,-4.51 17.39,-7.73 10.31,-16.11 12.5,-8.3 9.9,-2.79 9.79,0.26 14.2,-1.41 10.96,-6.13 11.66,-11 6.88,-8.31 4.46,-13.2 3.28,-18.06 5.92,-11.59 12.88,-12.88 14.82,-5.15 17.7,0.92 20.31,0.37 16.11,4.51 20.24,8.72 8.75,8.03 5.77,15.36 -4.2,12.55 -11.02,23.07 -0.54,5.07 4.19,11.27 7.28,6.86 15.89,1.18 52.85,18.05 73.5,23.97 22.34,1.19 18.33,9 56.03,13.17 62.37,11.94 30.28,15.46 86.33,65.71 32.21,39.94 22.55,54.76 13.53,44.45 7.09,68.29 7.09,48.96 17.39,30.92 12.88,33.5 23.62,48.93 1.82,15.87 -1.43,18.42 2.4,23.71 8.76,48.68 4.33,38.23 -1.62,38.75 -4.61,25.73 -18.46,33.5 -3.87,12.24 1.29,22.55 12.88,44.45 11.87,45.53 13.05,36.76 20.18,35.61 17.95,20.8 17.74,13.66 39.05,30.6 46.84,16.85 42.8,7.87 50.8,0.41 48.32,-3.22 21.9,2.58 25.12,14.82 21.26,19.33 15.46,24.48 34.14,41.23 16.17,14.32" />
    <path
       style="fill:none;stroke:#cccccc;stroke-width:8;stroke-linecap:butt;stroke-linejoin:round;stroke-miterlimit:4;stroke-dasharray:none;stroke-opacity:1"
       id="path3621"
       d="m 1577.58,-1349.37 -14.18,-5.49 -30.28,-8.37 -32.21,-3.87 -31.77,-0.42 -25.87,3.03 -28.04,5.77 -48.32,16.75 -31.53,10.01 -32.89,14.47 -92.12,43.16 -16.11,12.24 -7.73,14.17 -28.99,93.41 -3.22,21.9 -0.6,23.55 3.18,41.52 -1.5,17.35 -4.3,13.57 -7.09,12.88 -56.69,47.67 -25.12,16.11 -12.64,1.58 -38.72,-1.01 -13.96,3.48 -11.24,7.12 -20.07,18.47 -21.9,25.12 -48.32,59.27 -29.63,32.21 -28.99,21.26 -70.02,32.96 -180.18,73.58 -11.25,1.61 -8.79,-0.62 -9.67,-5.07 -6.24,-8.8 -10.08,-22.52 -15.9,-43.15 -11.15,-13.97 -14.28,-12.74 -14.76,-11.57 -13.63,-14.13 -23.15,-36.15 -10.31,-14.93 -7.22,-6.05 -25.31,-11.87 -63.71,-34.22 -37.77,-16.95 -48.84,-7.98 -160.8,-26.42 -194.51,-32.34 -70.61,-11.39 -148.05,-24.14 -26.88,-8.2 -50.65,-25.36 -47.09,-25.06 -16.29,-6.78 -6.26,-0.03 -5.66,2.72 -5.8,4.51 -54.08,43.38 -23,13.55 -25.11,10.59 -16.6,3.44 -13.55,0.19 -36.55,-4.98 -14.23,0.18 -25.03,5.21 -47.4,4.87 -31.46,0.42 -40.4,3.42 -4.68,-0.07 -17.72,-3.87 -15.78,-9.34 -12.88,-17.39 -6.76,-22.87 -12.56,-39.62 -6.84,-20.49 -12.96,-28.38" />
    <path
       style="fill:none;stroke:#cccccc;stroke-width:8;stroke-linecap:butt;stroke-linejoin:round;stroke-miterlimit:4;stroke-dasharray:none;stroke-opacity:1"
       id="path3592"
       d="m -1211.47,-2234.19 -22.31,2.12 -8.04,2.68 -19.98,13.22 -20.8,17.16 -7.53,8.12 -6.95,11 -8.73,22.36 -2.07,11.17 0.07,13.28 2.76,14.06 3.51,10.43 5.28,8.15 14.48,8.97 16.37,17.09 8.91,15.8 5.63,17.14 11.8,47.74 7.79,32.98 6.05,17.2 9.46,10.4 16.18,9.22 16.68,2.77 25.8,2.25 60.53,14.5 44.45,9.02 51.77,5.44 6.73,1.9 4.12,5.23 41.1,127.23 9.02,18.04 18.04,23.19 66.35,83.1 31.06,41.78 13.03,10.83 17.7,7.95 15.52,9.66 35.94,33.04 18.98,10.96 7.7,7.7 2.9,8.5 1.31,9.77 0.5,16.52 2.89,12.71 11.99,11.75 21.51,44.3 36.72,76.02 12.24,53.15 8.05,21.9 17.72,35.75 17.32,35.59 3.99,17.76 5.41,5.39 16.49,12.74 12.65,3.82 10.82,7.8 7.27,6.71 3.41,14.31 12.88,12.72 8.51,8.97 7.69,8.19 19.87,21.64 8.51,15.98 3.41,14.95 5.09,5.82 11.03,7.84 2.52,4.6 0.34,8.06 -1.61,22.23 -3.87,19.97 -7.09,24.8 -51.75,112.17 -13.29,27.93 0.01,5.52 1.55,5.23 3.95,4.06 62.56,28.88 14.62,16.78 6.82,22.58 11.22,13.34 1.51,12.82 12.73,37.04 21.01,54.79 6.2,14.13 0.72,12.17 -5.16,14.84 -2.55,12.18 0.39,11.72 4.51,22.23 0.32,29.63 6.76,33.82 10.63,43.81 18.04,65.39 27.63,80.74" />
    <path
       style="fill:none;stroke:#cccccc;stroke-width:8;stroke-linecap:butt;stroke-linejoin:round;stroke-miterlimit:4;stroke-dasharray:none;stroke-opacity:1"
       id="path3627"
       d="m -2104.15,-1159.66 17.39,9.02 16.11,7.09 9.02,10.95 4.51,18.04 15.46,30.28 19.33,42.52 14.17,21.26 14.17,8.37 16.11,5.15 31.57,-7.09 33.5,4.51 14.82,12.24 67,65.71 20.62,16.11 25.77,7.73 86.33,-9.02 342.73,-36.72 11.6,2.58 10.31,10.31 28.35,36.08 25.12,19.97 54.76,41.23 15.46,3.22 8.73,11.88 21.76,15.14 13.96,8.41 21.9,11.92 108.55,36.72 57.66,21.58 42.01,15.41 11.84,-0.46 12.3,3.64 40.54,-0.46 7.74,-4.56 5.01,-7.29 4.1,-30.52 -0.46,-14.58 9.11,-51.93 19.13,-58.31 7.29,-15.49 23.23,-29.61 6.83,-3.64 11.84,-2.28 20.5,-7.74 24.6,-4.1 49.65,-4.1 5.92,-5.01 6.38,-7.74 5.01,-3.19 11.39,-1.37 8.66,2.73 h 9.11 l 24.6,17.31 20.04,8.66 17.31,4.1 19.59,0.46 17.31,-6.83 31.43,-16.4 5.01,-8.2 2.02,-10.05 3.25,-49.5 -2.86,-11.5 -5.65,-9.19 -1.2,-3.94 0.8,-4.67 2.37,-3.79 24.35,-17.96 3.03,-4.73 0.17,-5.39 -1.58,-7.07 -24.78,-19.6 -14.1,-15 -3.03,-4.72 -0.04,-7.56 4.51,-10.74 4.62,-10.2 0.33,-8.57 -10.87,-38.63 1.2,-7.1 7.91,-14.31 11.84,-11.84 3.93,-7.76 2.61,-19.98 -1.16,-19.45 -3.1,-23.42 -1.82,-81.54 1.37,-30.52 4.1,-36.44 16.4,-116.16 1.37,-33.25 -3.19,-27.79 -9.57,-27.33 -4.56,-75.16 -3.39,-33.86 -8.45,-22.17" />
    <path
       style="fill:none;stroke:#cccccc;stroke-width:8;stroke-linejoin:round;stroke-miterlimit:4;stroke-dasharray:none;stroke-opacity:1"
       id="path3629"
       d="m -1300.98,-803.82 43.65,-15.69 33.26,-10.5 7.01,-0.45 5.89,0.99 6.67,4.6 21.75,15.6 37.24,20.85 97.69,33.43 12,-5.65 31.03,-15.4 7.41,-0.97 39.3,18.68 8.7,2.25 13.85,-6.76 15.46,2.25 31.89,4.83 43.16,1.93 20.29,2.58 14.17,-1.93 25.12,6.44 h 10.31 l 12.88,-0.64 12.88,3.22 45.74,15.46 14.82,1.29 27.7,-4.51 16.75,-4.51 h 51.54 51.54 l 45.1,-3.87 19.33,0.64 20.62,-3.87 24.48,-5.15 63.11,0.01 38,-3.86 16.11,1.29 90.19,-22.55 9.66,-5.15 h 7.09 l 14.17,3.22 7.73,-7.73 16.75,-23.84 18.68,-37.36" />
    <path
       style="fill:none;stroke:#cccccc;stroke-width:8;stroke-linecap:butt;stroke-linejoin:round;stroke-miterlimit:4;stroke-dasharray:none;stroke-opacity:1"
       id="path3625"
       d="m -2098.51,110.97 12.24,-13.01 16.26,-14.92 27.06,-30.92 34.14,-29.63 22.55,-14.82 31.57,-11.6 18.04,-3.87 26.41,-0.64 137.86,16.11 18.68,0.64 24.48,-9.66 40.59,-28.35 9.02,-11.6 31.57,-53.47 14.82,-28.35 3.22,-16.11 12.24,-39.94 11.6,-17.39 16.11,-10.31 16.75,-11.6 17.39,-8.37 31.57,-4.51 35.43,-5.8 16.11,-9.66 28.99,-28.35 23.19,-38.65 7.73,-21.26 2.58,-21.26 -1.29,-22.55 -5.8,-18.04 -10.95,-32.21 -0.64,-10.95 9.02,-19.97 1.29,-16.75 2.58,-108.23 2.58,-17.39 11.6,-18.04 81.82,-47.67 29.05,-17.61 26.31,-5.83 6.28,-5.3 2.51,-7.22 4.31,-6.85 25.55,-25.42 9.69,-16.87 31.59,-46.64 5.67,-5.5 13.65,0.68" />
    <path
       style="fill:none;stroke:#cccccc;stroke-width:8;stroke-linecap:butt;stroke-linejoin:round;stroke-miterlimit:4;stroke-dasharray:none;stroke-opacity:1"
       id="path3633"
       d="m -864.24,-703.55 -13.31,14.82 -14.82,15.46 -12.24,9.66 -9.66,30.28 -41.87,51.54 -53.47,73.44 -37.36,46.38 -13.53,15.46 -24.48,36.72 -86.97,115.32 -88.26,116.6 -98.57,128.2 -28.35,28.99 -26.41,21.26 -89.55,49.61 -63.78,38.01 -57.34,29.63 -85.68,50.89 -60.56,35.43 -109.52,63.78 -55.4,28.99 -27.06,10.95 -29.63,7.73 -21.9,-2.58 -34.14,-15.46 -128.84,-93.41 -70.86,-49.61 -16.11,-7.09 -22.55,-1.93 -19.97,1.93 -83.75,27.06 -14.17,5.8 -35.43,24.48 -59.91,38.65 -28.35,26.41 -28.35,43.81 -44.45,63.78 -14.17,21.9 -19.86,20.84" />
    <path
       style="fill:none;stroke:#cccccc;stroke-width:8;stroke-linecap:butt;stroke-linejoin:round;stroke-miterlimit:4;stroke-dasharray:none;stroke-opacity:1"
       id="path3635"
       d="m -463.99,1727 -47.5,-235.5 -33,-148 -2,-18.5 -40.5,-187 -6,-27 -103,-277 -35.32,-99 -30.28,-95.99 -27.7,-73.44 -83.75,-233.85 -64.42,-180.38 -26.41,-74.09 -30.28,-78.6 -20.62,-59.91 -4.83,-34.14 -1.61,-27.7 -0.32,-20.62 7.41,-25.45 34.47,-95.02 37.04,-116.93 20.94,-54.44 28.35,-83.75 12.56,-34.79 5.48,-26.09 1.61,-17.72 2.25,-53.79 1.29,-29.96 5.15,-20.94 18.15,-26.57 19.57,-12.76 19.92,-18.6 25.15,-59.97 0.64,-13.85 -4.51,-11.6 -38.84,-48 -2.85,-8.98 -1.17,-8.93 4.5,-63.45 2.69,-24.6 5.88,-8.18 9.2,-4.19 26.6,-2.24 17.15,-2.9 12.71,-8.72 3.94,-7.78 -1.78,-27.93 5.7,-11.39 12.99,-15.78 6.16,-7.68 7.29,-3.61 16.03,-1.63 6.44,-2.99 5.2,-6.51 15.68,-50.2 -0.57,-13.16 -9.77,-25.47 -14.95,-25.39 -29.5,-35.9 -52.97,-53.22 -12.81,-20.69 -10.34,-56.56 -4.74,-42.5 6.26,-24.24 27.88,-33.78 18.87,-15.01 25.38,-8.91 62.29,-5.24 12.01,-2.24 17.47,-9.88 8.51,-11.13 4.94,-20.26 -4.37,-30.96 -5.15,-33.5 0.35,-16.77 6.06,-24.31 13.28,-15.11 78.85,-75.77 65.21,-60.31 46.1,-48.42 52.72,-50.14 33.25,-38.65 36.08,-56.94 76.27,-121.26 137.51,-212.09 45.96,-68.11 12,-29 19.5,-17 134.5,-205 24,-31.5 97.5,-152.5 45,-52.5 188,-169.5 166.5,-151 38.5,-29.5 30,-14 382.5,-150.5 53.5,-27 39.5,-21.5" />
    <path
       style="fill:none;stroke:#cccccc;stroke-width:8;stroke-linecap:butt;stroke-linejoin:round;stroke-miterlimit:4;stroke-dasharray:none;stroke-opacity:1"
       id="path3637"
       d="m -1014.77,-61.26 -1.29,24.48 -12.88,35.43 -25.12,53.47 -14.82,26.41 -37.36,47.67 -59.91,65.07 -52.83,58.62 -55.4,52.18 -19.33,25.12 -11.6,18.04 -46.38,47.67 -26.41,33.5 -25.77,38.01 -20.62,40.59 -28.35,68.29 -19.33,68.93 -12.24,43.16 -9.66,23.84 -18.04,25.12 -13.88,11.16 -18.5,7 -232.79,70.74" />
    <path
       style="fill:none;stroke:#cccccc;stroke-width:8;stroke-linecap:butt;stroke-linejoin:round;stroke-miterlimit:4;stroke-dasharray:none;stroke-opacity:1"
       id="path3639"
       d="m -633.76,-1646.39 -0.11,-15.03 -7.7,-43.23 -21.55,-40.52 -99.82,-94.01 -98.58,-88.28 -10.88,-5.27 -45.1,-2.58 -32.21,-3.22 -103.08,-17.39 -49.61,-9.02 -68.93,-3.22 -55.4,3.22 -67,3.87 -137.22,7.09 -34.79,-0.64 -18.04,-4.51 -85.04,-46.38 -31.24,-22.23 -12.88,-19.65 -31.57,-73.44 -34.47,-85.68 -9.66,-21.58 -9.02,-20.94 -25.77,-46.71 -15.14,-21.58 -15.45,-12.24 -28.02,-11.6 -18.68,-6.76 -150.27,-52.58 -10,-4.5 -15,-11 -240,-270.5 -24,-34.5 -28,-53.5 -21.5,-21 -17.5,-9 -28.5,-7.5 -43.5,-11 -19.5,-13.5 -18.5,-21 -12.5,-34" />
    <path
       style="fill:none;stroke:#cccccc;stroke-width:8;stroke-linecap:butt;stroke-linejoin:round;stroke-miterlimit:4;stroke-dasharray:none;stroke-opacity:1"
       id="path3641"
       d="m 81.05,-795.03 51.54,18.68 68.29,44.45 75.37,45.1 23.19,14.17 21.9,21.9 57.98,24.48 52.83,39.3 37.36,41.87 23.84,20.62 76.02,55.4 101.14,74.73 152.68,109.52 115.96,83.1 55.4,41.23 50.25,26.41 41.87,9.02 30.28,1.93 57.34,-5.15 52.18,4.51 38.01,7.09 36.08,1.29 65.71,3.22 149.46,6.44 81.82,5.8 82.46,11.6 317.5,52.82 237.5,39 33,11.5 29,15 36.5,30 28.5,38.5 22,52.5 27,43 23,22.5 38.5,27 38.5,13 89,15 30.5,13.5 25.5,18.5 23.5,29" />
    <path
       style="fill:none;stroke:#cccccc;stroke-width:8;stroke-linecap:butt;stroke-linejoin:round;stroke-miterlimit:4;stroke-dasharray:none;stroke-opacity:1"
       id="path3643"
       d="m -130.25,-313.47 24.8,-1.93 15.78,4.19 37.36,16.11 27.06,7.73 19.33,-1.29 120.47,-27.7 38.01,-7.73 18.04,3.87 92.77,99.85 34.14,30.92 29.63,30.28 50.89,54.11 86.97,91.48 35.43,32.21 26.41,18.68 30.92,28.99 45.74,48.96 158.8,183.08 61.29,63.67 181.91,205.49 98.57,109.52 50.89,57.98 90.54,95.5 12,22 16,26.5 57.5,151 95,239 7.5,27.5 60.5,211.5 12.5,31.5 29,60 64.5,165 8.5,32.5 3,34.5 -1.5,29.5 -5.5,34.5 -41.5,156 -6,44.5 -4.5,124 0.5,141" />
    <path
       style="fill:none;stroke:#cccccc;stroke-width:8;stroke-linecap:butt;stroke-linejoin:round;stroke-miterlimit:4;stroke-dasharray:none;stroke-opacity:1"
       id="path3645"
       d="m 922.67,473.93 19.36,33.45 4.49,21.66 -1.05,23.3 -8.89,28.68 -29.63,42.52 -42.52,48.32 -17.39,11.6 -25.77,13.53 -12.88,16.75 -11.6,21.9 -23.28,21.36 -33,18.5 -52.5,14.5 -116,26 -21,10 -17,13 -68.5,56 -25.5,20.5 -15.73,11.21 -37.75,20.56 -386.62,283.48 -14.16,18.54 -5.06,18.54 -1.69,12.13 3.03,16.18 8.09,16.18 10.79,12.13 14.49,7.75 16.85,6.07 40.45,6.07 65.39,24.94 38.43,10.45 38.43,3.03 24.94,-0.67 24.61,-6.4 151.91,-62.7" />
    <path
       style="fill:none;stroke:#cccccc;stroke-width:8;stroke-linecap:butt;stroke-linejoin:round;stroke-miterlimit:4;stroke-dasharray:none;stroke-opacity:1"
       id="path3647"
       d="m 474.67,-5.21 25.12,15.46 30.92,1.29 29.63,-9.02 165.57,-48.32 8.37,-0.64 12.88,3.22 117.25,41.87 13.53,14.82 25.12,47.03" />
    <path
       style="fill:none;stroke:#cccccc;stroke-width:8;stroke-linecap:butt;stroke-linejoin:round;stroke-miterlimit:4;stroke-dasharray:none;stroke-opacity:1"
       id="path3649"
       d="m 942.25,-1867.97 -193.79,364.94 -50.89,95.99 -26.41,47.67 -9.02,26.41 -12.24,50.89 3.22,39.3 10.95,51.54 14.82,63.13 15.46,30.92 5.8,26.41 -3.87,28.35 -14.82,28.35 -36.08,27.06 -39.67,12.34 -31.19,-0.1 -118.54,-5.15 -39.94,4.51 -25.12,5.15 -33.5,10.95 -30.28,19.97 -47.03,41.23 -85.04,71.51 -15.46,11.6 -23.19,10.95 -34.14,9.66 -41.23,-0.64 -31.48,-11.46 -85.31,-25.33 -103.21,-27.63 -73.96,-25.44 -23.27,-11.63 -35.68,-23.71 -24.33,-16.16 -23.63,-5.88 -22.68,-5.22 -14.15,-2.69 -14.14,-0.61 -10.78,-2.44 -12.41,-8.74 -19.63,-12.14 -17.32,-10.18 -9.22,-4.92 -9.15,-10.64 -4.37,-10.98 -12.24,-20.29 -3.22,-14.82 -8.05,-14.82 -35.75,-38.33 -12.56,-12.56 -13.53,-8.05 -10.63,-2.58 -12.88,0.64 -14.82,5.15 -10.33,4.91 -10.79,3.11 -22.69,2.29 -8.98,0.61 -6.23,1.84 -11.02,6.7 -16.75,14.44 -6.63,4.11 -11.6,3.87 -33.97,2.7 -15.85,-4.34 -12.88,-3.83 -12.14,-6.14 -9.45,-4.03 -10.88,-1.85 -18.52,0.04 -10.98,-2.19 -10.88,-8.08 -9.73,-15.76 -11.92,-16.43 -12.56,-9.99 -11.71,-5.3 -13.61,-1.99 -19.13,0.81 -14.12,3.98 -9.57,3.67 -11.43,7.69 -15.95,14.09 -51.61,44.34 -10.5,7.33 -14.62,5.43 -14.58,1.74 -63.69,-9.31 -26.07,-0.94 -18.21,5.65 -16.66,13.07 -31.89,47.09 -7.52,13.34 -26.34,84.01 -14.12,27.81 -10.5,22.69 -8.87,12.1 -13.53,9.02 -16.75,3.22 -80.53,-7.73 -51.54,-4.83 -40.26,-2.58 -25.12,4.51 -17.39,4.51 -53.79,20.62 -24.83,8.28 -23.81,6.54 -21.9,3.87 -19.33,5.48 -50.57,23.51 -58.95,30.6 -16.43,7.09 -31.89,19.65 -15.14,18.68 -25.45,32.21 -20.62,36.4 -10.95,19.33 -34.79,31.89 -38.97,42.33 -18.22,41 -13.67,32.34 -29.15,41 -46.89,39.98 -64.72,86.49 -112.09,143.02 -131.42,173.3 -130.78,168.79 -24.48,34.14 -9.66,19.33 -7.73,24.48 -7.09,56.05 -9.02,23.19 -14.82,19.97 -15.46,16.11 -22.52,16.74 -21.82,18.92 -133.41,102.64 -98.67,52.62 -15,14 -13.5,15.5 -34,45 -123,167.5 -17.5,14 -24,14 -67,11 -104.5,17.5 -213.5,27.5 -78,13.5 -22.5,-1.5 -90,-11.5 -64.5,-4.5" />
    <path
       style="fill:none;stroke:#cccccc;stroke-width:8;stroke-linecap:butt;stroke-linejoin:round;stroke-miterlimit:4;stroke-dasharray:none;stroke-opacity:1"
       id="path3651"
       d="m 653.12,-1242.76 -21.02,-97.71 -5.47,-46.01 -12.76,-55.12 -26.88,-119.81 -11.84,-31.89 -20.04,-36.9 -21.87,-32.34 -25.05,-30.98 -155.22,-201.05" />
    <path
       style="fill:none;stroke:#cccccc;stroke-width:8;stroke-linecap:butt;stroke-linejoin:round;stroke-miterlimit:4;stroke-dasharray:none;stroke-opacity:1"
       id="path3653"
       d="m 605.71,-974.66 51.59,-14.27 41.55,-10.31 25.12,-0.64 23.19,5.15 31.57,9.02 26.41,16.75 27.7,4.51 134,8.37 83.75,2.58 86.97,5.15 101.79,5.8 54.76,0.64 57.34,-4.51 74.73,-14.17 253.82,-38.01 294.01,-47.9 361.5,-54 28.5,-7.5 56.5,-19.5 35.5,-8.5 99,-17.5 124,0.5 205,-31 363.5,-55 141,-22 47.5,0.5 13,1.5" />
    <path
       style="fill:none;stroke:#cccccc;stroke-width:8;stroke-linecap:butt;stroke-linejoin:round;stroke-miterlimit:4;stroke-dasharray:none;stroke-opacity:1"
       d="m -729.81,-1516.41 -53.68,12.74 -27.06,8.37 -47.03,30.28 -65.71,47.67 -54.11,41.87 -32.21,22.55 -23.19,14.82 -30.28,4.51 -141.08,28.35 -48.96,10.31 -101.79,23.19 -86.33,18.68 -120.47,24.48 -54.11,14.82 -38.01,1.29 -17.39,5.15 -22.55,12.24 -9.66,16.11 -4.51,21.26 3.22,36.72 9.02,54.76 12.88,68.29 6.44,27.7 1.29,22.55 -10.95,38.01 -19.97,41.87 -4.51,27.7 1.29,36.08 7.09,21.26 19.33,28.35 29.63,32.21 42.52,50.89 24.48,33.5 25.12,29.63 77.31,96.63 46.38,55.4 21.26,18.68 25.77,12.88 30.92,5.8 h 79.24 l 43.16,-1.29 37.36,-5.8 47.67,-1.29 33.12,1.18 13.67,-2.45 16.35,-7.11 35.43,-13.53 32.86,-4.51 19.97,1.93 21.9,9.66 23.19,15.46 16.11,22.55 16.75,45.74 19.33,22.55 15.74,8.86 15.1,3.35 37.44,-0.62 53.47,3.22 36.72,8.37 38.65,15.46 26.41,15.46 38.01,26.41 30.28,14.82 41.23,16.75 33.5,-1.29 97.28,-13.53 36.08,-8.37 22.55,-6.44 77.95,-16.75 106.94,-26.41"
       id="path365" />
    <path
       style="fill:none;stroke:#cccccc;stroke-width:8;stroke-linecap:butt;stroke-linejoin:round;stroke-miterlimit:4;stroke-dasharray:none;stroke-opacity:1"
       d="m -195.96,-296.4 66.35,-16.75 23.84,-14.17 15.46,-19.97 8.37,-32.86 18.68,-156.55 8.37,-56.05 8.37,-46.38 13.53,-27.7 23.19,-32.21 28.99,-35.43 11.6,-37.36 16.75,-65.07 44.45,-74.09 6.44,-22.55 -5.15,-34.14 -24.48,-67 -28.35,-67.64 -18.68,-14.17 -52.18,-20.62 -26.41,-12.88 -28.99,-40.59 -65.71,-112.74 -21.9,-28.35 -76.02,-50.89 -58.62,-37.36 -28.99,-10.95 -41.23,-26.41 -51.54,-42.52 -25.12,-13.53 -21.26,-9.02 -53.47,-3.22 -66.35,2.58 -38.01,1.93 -33.49,-0.58"
       id="path3631" />
    <path
       style="fill:none;stroke:#cccccc;stroke-width:8;stroke-linecap:butt;stroke-linejoin:round;stroke-miterlimit:4;stroke-dasharray:none;stroke-opacity:1"
       id="path3657"
       d="m -1777.53,-735.11 -20.15,2.14 -24.19,-8.09 -16.35,-8.35 -11.68,-10.63 -15.77,-21.35 -4.92,-9.11 -8.68,-36.91 -4.51,-18.11 -9.64,-14.79 -9.99,-9.64 -30.08,-20.51 -16.93,-15.41 -8.82,-11.51 -9.05,-16.66 -10,-9.18 -23.89,-6.23 -24.8,-1.57 -101.04,28.04 -56.88,12.73 -11.28,0.46 -12.79,-1.5 -10.53,-5.22 -27.71,-21.3 -28.07,-29.36 -12.93,-21.18 -4.8,-19.23 -4.43,-75.26 1,-13.41 2.8,-11.81 21.56,-55.52 4.39,-18.35 -1.68,-20.47 -5.21,-12.26 -10.83,-10.88 -13.04,-7.45 -106.21,-22.02 -30.92,-11.92 -31.24,-15.94 -24.8,-9.18 -25.93,-6.76" />
    <path
       style="fill:none;stroke:#cccccc;stroke-width:8;stroke-linecap:butt;stroke-linejoin:round;stroke-miterlimit:4;stroke-dasharray:none;stroke-opacity:1"
       id="path3659"
       d="m -624.58,-1565.16 8.91,20.26 7.09,10.63 5.8,5.8 13.15,5.12" />
    <path
       style="fill:none;stroke:#cccccc;stroke-width:8;stroke-linecap:butt;stroke-linejoin:round;stroke-miterlimit:4;stroke-dasharray:none;stroke-opacity:1"
       id="path4387"
       d="m -861.37,-1927.08 -143.16,-125.63 -156.19,-142.73 -104.43,-91.77 -26.12,-26.83 -21.84,-33.15 -155.38,-211.31 -31,-52.5 -92,-126.5 -81.5,-114.5 -14.5,-29 -7,-30.5 0.5,-26 13,-180 6.5,-143 16,-242 -4,-29 9,-35.5 2.5,-66.5 -2.5,-39 -6,-33 -119,-411.5 -87.5,-310 -18,-41.5 -16.5,-29 -22.5,-30 -48,-51.5 -53.5,-102" />
    <path
       style="fill:none;stroke:#cccccc;stroke-width:8;stroke-linecap:butt;stroke-linejoin:round;stroke-miterlimit:4;stroke-dasharray:none;stroke-opacity:1"
       id="path4389"
       d="m 170.6,-320.24 -218.57,-242.89 -12.34,-21.16 -1.37,-19.59 6.83,-19.59 8.34,-15.66" />
    <path
       id="path4164"
       d="m -70.99,-2376 4.5,-24 -6,-26 -11,-17 -28,-28 -20,-29 -267,-324.5 -29.5,-31.5 -73.5,-78.5 -64,-61.5 -91.5,-90 -36.5,-31 -37.5,-22.5 -25.5,-10.5 -419.5,-148.5 -56,-22 -59,-21.5 -42,-28.5 -93,-41.5 -21.5,-1 -27,7.5 -22,18 -11,23 -12,61 -16.5,26.5 -21,16 -26.5,10.5 -25.5,-0.5 -21,-4.5 -19,-13.5 -15.5,-23.5 -6.5,-28"
       style="fill:none;fill-rule:evenodd;stroke:#cccccc;stroke-width:8;stroke-linecap:butt;stroke-linejoin:round;stroke-miterlimit:4;stroke-dasharray:none;stroke-opacity:1" />
    <path
       id="path874-2"
       d="m 3449.01,-1259 108.11,11.54 25.74,-0.48 29.56,-6.67 28.12,-15.73 25.74,-24.79 15.25,-22.4 66.26,-184 17.16,-35.28 30.03,-58.16 51.96,-82.94 18.11,-22.4 22.4,-17.64 28.12,-19.07 16.68,-19.07 11.44,-29.56 2.38,-26.22 -0.95,-88.19 4.29,-37.18 12.87,-32.42 16.68,-20.5 118.22,-85.81 18.11,-22.88 33.47,-59.91"
       style="fill:none;fill-rule:nonzero;stroke:#cccccc;stroke-width:8;stroke-linecap:butt;stroke-linejoin:round;stroke-miterlimit:4;stroke-dasharray:none;stroke-opacity:1" />
    <path
       d="m 6.91,-819.15 13.16,13.65 4.54,8.9 3.04,13.6 0.13,20.88"
       id="path3632"
       style="fill:none;stroke:#cccccc;stroke-width:8;stroke-linecap:butt;stroke-linejoin:round;stroke-miterlimit:4;stroke-dasharray:none;stroke-opacity:1" />
    <path
       style="fill:none;stroke:#cccccc;stroke-width:8;stroke-linecap:butt;stroke-linejoin:round;stroke-miterlimit:4;stroke-dasharray:none;stroke-opacity:1"
       id="path3623"
       d="m -1047.82,-754.99 -66.15,37.27 -32.72,15.8 -6.46,5.81 -1.95,7.95 1.04,59.45 -2.48,8.97 -8.32,8.96 -5.15,9.66 -1.93,16.11 18.04,78.6 16.67,69.61" />
    <path
       style="fill:none;stroke:#cccccc;stroke-width:8;stroke-linecap:butt;stroke-linejoin:round;stroke-miterlimit:4;stroke-dasharray:none;stroke-opacity:1"
       id="path427"
       d="m 47.89,-801.87 -85.52,-25.24 -103.13,-27.8 -74.34,-25.36 -28.04,-11.63 -34.33,-23.96 -22.19,-14.65 -21.48,-7.18 -22.3,-5.13 -13.65,-2.34 -14.82,-0.67 -12.35,-3.21 -12.47,-8.95 -19.65,-11.77 -17.45,-10.32 -9.94,-5.58 -10.05,-11.78 -4.52,-11.88 -12.41,-20.5 -3.19,-15.09 -7.44,-13.39 -35.39,-37.48 -11.67,-12.1 -12.13,-7.04 -9.06,-2.19 -11.35,-0.17 -13.87,5.09 -10.73,5.22 -13.4,3.7 -22.49,1.92 -7.51,0.72 -4.86,1.03 -10.04,5.94 -17.8,15.05 -7.41,4.91 -12.71,3.93 -34.92,2.89 -18.83,-5.14 -12.47,-3.92 -12.3,-6.61 -8.53,-3.2 -10.12,-1.56 -18.08,0.29 -12.48,-2.94 -12.35,-9 -10.1,-16.86 -12.19,-16.3 -10.17,-7.99 -10.12,-3.91 -13.26,-0.9 -17.01,-0.11 -11.86,3.27 -13.43,5.69 -8.9,4.54 -15.62,13.88 -53.11,45.56 -10.8,7.22 -15.46,5.36 -15.42,1.87 -64.09,-9.34 -24.83,-0.98 -15.93,4.97 -15.42,11.84 -31.39,46.49 -7.72,13.32 -26.27,84.4 -20.76,42.76" />
    <path
       style="fill:none;stroke:#cccccc;stroke-width:8;stroke-linejoin:round;stroke-dasharray:none;stroke-opacity:1"
       d="m -3717.17,903.47 -46.65,-4.06 -121.96,-18.11 -37.46,-2.44 -47.55,0.45 -42.25,2.79 -91.34,6.84 -28.06,1.48 -21.74,-2.2 -29.09,-8.14 -21.79,-9.69 -23.6,-17.95"
       id="path1100" />
  </g>
  <path
     id="path848"
     d="m -702.23,-1051.58 1.85,-5.06 -1.69,-8.6 1.01,-3.03 21.57,-2.36 9.44,-3.2 9.1,-6.4 h 2.7 l 10.28,12.47 -0.51,4.72 -13.31,4.89 -34.55,3.03 -7.25,3.54 -12.81,1.18 -2.53,-1.18 -11.46,-110.22 4.21,-4.21 95.73,39.1 42.13,1.85 11.29,-32.53 -0.17,-7.75 -3.88,-17.02 -17.19,-33.88 1.01,-7.08 10.95,-22.92 25.45,-42.13 13.48,-24.61 50.35,-79.47 0.89,-39.48 10.37,-65.55 11.2,-102.25 -3.81,-41.71 -8.8,-24.22 -1.68,-30.6 -7.63,-94.62 -2.62,-21.21 -9.06,-23.12 -7.63,-14.3 -5.72,-2.62 -52.44,21.21 -23.83,4.77 -30.75,-26.93 10.73,-52.2 -9.06,-37.42 -0.24,-46.72 12.16,-8.1 20.97,-3.81 21.45,-6.2 0.95,-10.01 -10.25,-27.65 -6.2,-42.19 -6.91,-13.11 -0.95,-45.76 63.88,-18.35 28.6,-16.68"
     style="opacity:1;fill:none;fill-rule:nonzero;stroke:#e2001a;stroke-width:5;stroke-linecap:butt;stroke-linejoin:round;stroke-miterlimit:4;stroke-dasharray:none;stroke-opacity:1" />
  <path
     id="path850"
     d="m -627.8,-1983 -8.82,-11.2 -45.05,-31.7 -14.06,-24.07 -25.98,-76.51 -4.05,-11.92 -26.93,-25.98 -7.15,-5.24 -17.4,-30.51 -27.89,-35.04 -30.27,-21.21 -7.87,-0.72 -12.63,-6.91 -15.02,-21.45"
     style="opacity:1;fill:none;fill-rule:nonzero;stroke:#e2001a;stroke-width:5;stroke-linecap:butt;stroke-linejoin:round;stroke-miterlimit:4;stroke-dasharray:none;stroke-opacity:1" />
  <path
     id="path852"
     d="m -515.77,-1849.52 1.91,-6.67 42.66,-17.88 35.28,-41.47 73.41,-23.36 19.07,-27.65 -0.24,-51.96 -2.38,-27.89 3.34,-21.45 28.6,-132.28 4.53,-10.25 12.16,-57.2 -1.43,-13.11 -18.83,-49.1 -0.71,-10.01 16.92,-56.97 4.77,-6.67 0.72,-11.44 -1.43,-3.58 -17.88,-5.24 -6.67,-0.48 -9.06,-5.48 -89.38,29.08 -6.67,6.2 -38.85,14.3"
     style="opacity:1;fill:none;fill-rule:nonzero;stroke:#e2001a;stroke-width:5;stroke-linecap:butt;stroke-linejoin:round;stroke-miterlimit:4;stroke-dasharray:none;stroke-opacity:1" />
  <path
     id="path854"
     d="m -498.14,-1091.1 -16.68,-16.45 0.24,-5.96 14.54,-16.45 37.18,-49.58 30.27,-52.91 11.44,-30.03 35.51,-98.91 30.75,-87.47 27.65,-108.92 -10.49,-68.88 0.95,-4.05 32.89,-19.54 2.15,-5.24 29.08,-116.55 22.4,-16.68 13.11,-6.2 0.24,-3.81 -21.93,-36.71 -0.95,-34.32 -1.67,-7.39 -5.01,-3.58"
     style="opacity:1;fill:none;fill-rule:nonzero;stroke:#e2001a;stroke-width:5;stroke-linecap:butt;stroke-linejoin:round;stroke-miterlimit:4;stroke-dasharray:none;stroke-opacity:1" />
  <path
     style="opacity:1;fill:none;fill-rule:nonzero;stroke:#e2001a;stroke-width:5;stroke-linecap:butt;stroke-linejoin:round;stroke-miterlimit:4;stroke-dasharray:none;stroke-opacity:1"
     d="m -964,-1116.38 -13.93,-3.09 -3.1,-3.81 1.43,-4.53 63.4,-31.94 141.82,-69.36 8.58,2.62 32.54,44.28 1.78,12.69 5.31,3.5"
     id="path7891" />
  <path
     style="opacity:1;fill:none;fill-rule:nonzero;stroke:#e2001a;stroke-width:5;stroke-linecap:butt;stroke-linejoin:round;stroke-miterlimit:4;stroke-dasharray:none;stroke-opacity:1"
     d="m -925.49,-1155.93 -1.91,7.39 -0.5,5.95"
     id="path856" />
  <path
     id="path858"
     d="m -731.48,-1169.52 1.1,7.71"
     style="opacity:1;fill:none;fill-rule:nonzero;stroke:#e2001a;stroke-width:5;stroke-linecap:butt;stroke-linejoin:round;stroke-miterlimit:4;stroke-dasharray:none;stroke-opacity:1" />
  <path
     id="path860"
     d="m -630.44,-1126.92 20.28,14.13 3.1,12.16 15.49,-2.38 22.17,29.32 4.29,2.15 1.91,-0.95 37.66,-31.22 h 3.34 l 20.74,22.4 h 4.77 l 18.56,-16.16 29.82,-39.85 4.29,-0.48 5.24,2.38 5.48,-1.91 62.92,-83.18 157.55,-225.24 11.68,-12.16 66.74,-47.19 107.97,-37.9 14.54,-8.82 24.07,-18.59 7.15,-16.68 5.48,-2.86 75.79,8.58 31.46,0.24 15.25,-10.96 29.08,-16.92 27.65,-25.26 10.96,-10.25 212.84,-124.66 68.41,-43.38 19.07,-4.77 55.77,-11.2 5.01,-9.53 9.53,-2.62 1.91,-3.1 -1.19,-3.81 -2.15,-1.67 -11.2,0.95 -2.38,5.01 1.91,10.25"
     style="opacity:1;fill:none;fill-rule:nonzero;stroke:#e2001a;stroke-width:5;stroke-linecap:butt;stroke-linejoin:round;stroke-miterlimit:4;stroke-dasharray:none;stroke-opacity:1" />
  <path
     id="path864"
     d="m -588.3,-1125.07 10.95,8.57 -0.63,5.85 -13.59,7.63"
     style="opacity:1;fill:none;fill-rule:nonzero;stroke:#e2001a;stroke-width:5;stroke-linecap:butt;stroke-linejoin:round;stroke-miterlimit:4;stroke-dasharray:none;stroke-opacity:1" />
  <path
     id="path866"
     d="m -427.35,-1145.92 6.67,0.24 35.51,20.74 18.83,7.39 83.42,-2.62 32.65,-5.48 25.74,-13.35 62.21,-30.51 45.76,-19.78 18.83,-7.87 55.77,-20.26 19.78,-42.43 35.51,-19.54 28.36,-21.21 66.02,-32.18 67.21,-40.28 163.51,-139.91 5.01,-1.91 33.13,2.62 12.63,3.58 10.96,0.24 3.1,-3.34 0.24,-17.88 1.43,-1.91 8.1,-2.86 1.19,-4.53 -6.91,-19.54 v -7.39 l 44.81,-62.45 19.54,-26.22 -1.19,-5.24 -66.74,-29.79 -126.56,-183.05 1.91,-11.44"
     style="opacity:1;fill:none;fill-rule:nonzero;stroke:#e2001a;stroke-width:5;stroke-linecap:butt;stroke-linejoin:round;stroke-miterlimit:4;stroke-dasharray:none;stroke-opacity:1" />
  <path
     id="path868"
     d="m 99.16,-1327.78 7.15,1.91 8.34,12.87 56.25,29.56 10.73,1.67 98.2,-9.53 31.22,-0.95 166.13,-16.68 52.91,-6.91 22.88,-8.58 31.7,-17.88 64.12,-23.12 38.85,-14.06 3.34,-5.96 12.87,-29.08 7.39,-3.34 26.22,11.92 7.15,1.67 11.68,-3.1 90.33,-45.05 7.87,-10.49 13.82,-31.46 7.39,-2.15 35.51,10.73 10.96,10.49 5.24,22.64 5.24,3.58 16.68,-2.62 34.8,-14.78 123.23,-53.15 14.06,-5.01 15.73,1.19 2.15,5.48 -11.2,47.67 1.19,4.77 5.24,3.34 115.36,26.22 35.04,-5.24 5.01,3.81 13.59,109.64 18.11,41 7.15,7.63 10.01,3.81 140.62,48.15 4.53,9.3 -7.39,5.96"
     style="opacity:1;fill:none;fill-rule:nonzero;stroke:#e2001a;stroke-width:5;stroke-linecap:butt;stroke-linejoin:round;stroke-miterlimit:4;stroke-dasharray:none;stroke-opacity:1" />
  <path
     id="path870"
     d="m -774.38,-1229.11 28.33,-12.93 98.09,-18.54 18.54,-0.67 7.08,-2.02 21.91,41.46 6.4,3.37 16.18,-2.02 78.88,22.92 31.35,17.53 46.96,34.33"
     style="opacity:1;fill:none;fill-rule:nonzero;stroke:#e2001a;stroke-width:5;stroke-linecap:butt;stroke-linejoin:round;stroke-miterlimit:4;stroke-dasharray:none;stroke-opacity:1" />
  <path
     id="path872"
     d="m -41.94,-1217.43 162.5,47.87 28.31,-5.39 224.15,9.78 12.47,10.45 49.89,0.67 21.57,-1.35 32.7,-7.42 112.92,9.44 159.44,-7.75 12.47,-6.74 3.71,-6.4 12.81,-97.75 6.74,-7.75 10.79,-3.37 41.46,-2.7 12.13,-8.43 62.7,-124.38 4.04,-21.57 -1.45,-12.44"
     style="opacity:1;fill:none;fill-rule:nonzero;stroke:#e2001a;stroke-width:5;stroke-linecap:butt;stroke-linejoin:round;stroke-miterlimit:4;stroke-dasharray:none;stroke-opacity:1" />
  <path
     id="path874"
     d="m 928.87,-1440.23 3.79,-8.87"
     style="opacity:1;fill:none;fill-rule:nonzero;stroke:#e2001a;stroke-width:5;stroke-linecap:butt;stroke-linejoin:round;stroke-miterlimit:4;stroke-dasharray:none;stroke-opacity:1" />
  <path
     id="path876"
     d="m 875.7,-1496.53 -4.47,-5.72 11.8,-17.19 41.8,-47.53 17.86,-32.36 12.81,-25.28 17.53,-75.17 3.37,-26.97 53.26,-100.11 2.02,-6.4 -2.02,-11.8 -9.78,-36.4"
     style="opacity:1;fill:none;fill-rule:nonzero;stroke:#e2001a;stroke-width:5;stroke-linecap:butt;stroke-linejoin:round;stroke-miterlimit:4;stroke-dasharray:none;stroke-opacity:1" />
  <path
     id="path878"
     d="m -726.84,-1246.08 2.7,-7.42 -5.73,-14.49 0.34,-7.08 7.42,-6.07 19.21,-27.3 31.01,-32.02 97.08,-44.83 43.15,-13.48 64.72,13.15 84.94,21.24 77.19,44.83 81.57,63.03 57.64,89.66 47.5,111.73 -1.55,10.21 5.96,5.14 7.75,35.73 -27.64,103.14 -24.61,65.06"
     style="opacity:1;fill:none;fill-rule:nonzero;stroke:#e2001a;stroke-width:5;stroke-linecap:butt;stroke-linejoin:round;stroke-miterlimit:4;stroke-dasharray:none;stroke-opacity:1" />
  <path
     id="path880"
     d="m -142.69,-877.32 -11.12,-5.73 1.01,-6.07 17.19,-7.42"
     style="opacity:1;fill:none;fill-rule:nonzero;stroke:#e2001a;stroke-width:5;stroke-linecap:butt;stroke-linejoin:round;stroke-miterlimit:4;stroke-dasharray:none;stroke-opacity:1" />
  <path
     id="path882"
     d="m -127.52,-924.17 7.42,-1.35 44.83,14.16 74.83,30.34 45.5,-72.13 49.21,9.1 18.88,-30.67 24.27,-50.22 -0.67,-19.89 -4.72,-33.03 3.03,-94.38 -9.44,-29.66 -25.62,-72.47 -42.47,-74.49 -12.81,-34.04 -36.74,-165.17 -5.39,-9.44 -6.4,-1.01"
     style="opacity:1;fill:none;fill-rule:nonzero;stroke:#e2001a;stroke-width:5;stroke-linecap:butt;stroke-linejoin:round;stroke-miterlimit:4;stroke-dasharray:none;stroke-opacity:1" />
  <path
     id="path884"
     d="m 132.7,-1102.14 6.07,14.16 -2.02,43.15"
     style="opacity:1;fill:none;fill-rule:nonzero;stroke:#e2001a;stroke-width:5;stroke-linecap:butt;stroke-linejoin:round;stroke-miterlimit:4;stroke-dasharray:none;stroke-opacity:1" />
  <path
     id="path886"
     d="m -134.42,-1505.11 -6.25,-5.23 -174.27,-91.01 -13.48,-1.01 -4.72,3.37"
     style="opacity:1;fill:none;fill-rule:nonzero;stroke:#e2001a;stroke-width:5;stroke-linecap:butt;stroke-linejoin:round;stroke-miterlimit:4;stroke-dasharray:none;stroke-opacity:1" />
  <path
     id="path888"
     d="m -328.42,-1551.8 -4.04,1.01 -25.28,-16.52 -112.25,-20.22 -161.8,-16.18 -66.4,-10.11 -208.31,-26.63 -37.08,3.71 -241.01,206.29"
     style="opacity:1;fill:none;fill-rule:nonzero;stroke:#e2001a;stroke-width:5;stroke-linecap:butt;stroke-linejoin:round;stroke-miterlimit:4;stroke-dasharray:none;stroke-opacity:1" />
  <path
     id="path890"
     d="m -475.04,-1593.6 -7.08,5.73"
     style="opacity:1;fill:none;fill-rule:nonzero;stroke:#e2001a;stroke-width:5;stroke-linecap:butt;stroke-linejoin:round;stroke-miterlimit:4;stroke-dasharray:none;stroke-opacity:1" />
  <path
     id="path892"
     d="m 375.88,-1738.69 -1.19,6.67"
     style="opacity:1;fill:none;fill-rule:nonzero;stroke:#e2001a;stroke-width:5;stroke-linecap:butt;stroke-linejoin:round;stroke-miterlimit:4;stroke-dasharray:none;stroke-opacity:1" />
  <path
     id="path894"
     d="m 403.29,-1511.79 0.08,14.59 15.51,44.16 80.56,175.28 2.02,14.83 6.74,126.07 -7.75,237.97 4.38,14.16 3.37,32.02 7.08,24.61 3.71,22.92 5.06,15.84 5.73,27.3 55.28,142.92 v 11.12 l -33.37,180.33 -3.03,10.45 -79.21,120.67 -17.19,23.6 -6.07,15.17 v 11.8 l 8.76,56.97 -0.67,8.43 -14.16,47.86 -23.6,40.79 -16.61,17.89 1.15,6.1 7.42,7.04"
     style="opacity:1;fill:none;fill-rule:nonzero;stroke:#e2001a;stroke-width:5;stroke-linecap:butt;stroke-linejoin:round;stroke-miterlimit:4;stroke-dasharray:none;stroke-opacity:1" />
  <path
     id="path896"
     d="m -765.8,-1226.48 1.21,-8.13"
     style="opacity:1;fill:none;fill-rule:nonzero;stroke:#e2001a;stroke-width:5;stroke-linecap:butt;stroke-linejoin:round;stroke-miterlimit:4;stroke-dasharray:none;stroke-opacity:1" />
  <path
     id="path898"
     d="m -622.35,-1263.27 38.76,-15.17 4.38,-6.74 9.1,-2.7 7.75,0.67"
     style="opacity:1;fill:none;fill-rule:nonzero;stroke:#e2001a;stroke-width:5;stroke-linecap:butt;stroke-linejoin:round;stroke-miterlimit:4;stroke-dasharray:none;stroke-opacity:1" />
  <path
     id="path900"
     d="m -497,-1392.46 115.32,-174.18 6.4,-3.71"
     style="opacity:1;fill:none;fill-rule:nonzero;stroke:#e2001a;stroke-width:5;stroke-linecap:butt;stroke-linejoin:round;stroke-miterlimit:4;stroke-dasharray:none;stroke-opacity:1" />
  <path
     id="path902"
     d="m 19.32,-1587.1 1.48,-17.96 -6.07,-32.7 -64.38,-43.15 3.03,-5.39"
     style="opacity:1;fill:none;fill-rule:nonzero;stroke:#e2001a;stroke-width:5;stroke-linecap:butt;stroke-linejoin:round;stroke-miterlimit:4;stroke-dasharray:none;stroke-opacity:1" />
  <path
     id="path904"
     d="m 19.78,-1597.64 5.02,7.68"
     style="opacity:1;fill:none;fill-rule:nonzero;stroke:#e2001a;stroke-width:5;stroke-linecap:butt;stroke-linejoin:round;stroke-miterlimit:4;stroke-dasharray:none;stroke-opacity:1" />
  <path
     style="opacity:1;fill:none;fill-rule:nonzero;stroke:#e2001a;stroke-width:5;stroke-linecap:butt;stroke-linejoin:round;stroke-miterlimit:4;stroke-dasharray:none;stroke-opacity:1"
     d="m 454.54,-185.62 69.6,26.46 49.58,35.99 15.97,20.26 7.39,3.1 92.24,-11.92 45.52,0.71 20.02,6.2 h 21.21 l 26.69,13.82 40.28,9.06 23.83,-0.95 46.24,-12.16 15.49,1.43 10.01,7.63 8.45,9.23 34.04,50.22 15.18,16.18 12.47,-13.15 31.35,-46.52 27.98,-60 2.07,-3.55 38.71,0.18 3.37,-3.37 0.34,-27.3 -5.39,-14.83 -4.72,-2.7 -3.31,-2.29 -19.27,35.66 -9.73,14.65"
     id="path906" />
  <path
     id="path910"
     d="m 565.82,267.49 10.49,10.96 20.5,40.04 4.77,0.71 15.25,-12.39 18.83,-10.49 36.71,-39.33 17.64,-15.49 190.92,-113.45 3.58,-4.77 1.43,-10.96 23.12,-42.66 2.86,-1.67 61.73,21.69 40.28,1.19 39.8,5.24 7.87,3.1 37.9,22.4 28.6,19.78 12.39,10.96 8.58,0.48 39.8,25.5"
     style="opacity:1;fill:none;fill-rule:nonzero;stroke:#e2001a;stroke-width:5;stroke-linecap:butt;stroke-linejoin:round;stroke-miterlimit:4;stroke-dasharray:none;stroke-opacity:1" />
  <path
     id="path916"
     d="m 970.37,88.53 2.34,31.18 20.74,62.69 1.43,9.06 -2.15,15.97 -2.62,71.27 5.72,29.08 2.15,12.39 9.53,27.65 43.38,108.45 29.79,55.77 -0.24,3.81 -58.16,41.47 -1.91,7.15 21.69,23.83 21.69,18.59 h 31.46 l 22.4,-3.1 17.16,-10.25 9.06,-0.71 16.68,13.35 58.16,-0.71 40.76,10.49 32.65,21.93 50.05,10.49 24.79,19.54 11.2,3.1 48.86,0.95 42.66,16.21 5.72,9.53 4.05,27.41 23.83,57.92 26.69,39.09 11.68,9.77 39.09,60.54 6.2,17.16 2.86,20.26 -1.19,16.68 -5.01,18.11 -8.58,15.02 -0.48,8.1 89.62,92.72 56.01,66.98 -0.48,12.63"
     style="opacity:1;fill:none;fill-rule:nonzero;stroke:#e2001a;stroke-width:5;stroke-linecap:butt;stroke-linejoin:round;stroke-miterlimit:4;stroke-dasharray:none;stroke-opacity:1" />
  <path
     id="path918"
     d="m 1091.64,117.56 -5.48,31.46 2.62,10.01 10.25,91.53 11.44,64.83 35.04,118.22 13.59,70.79 -8.82,10.25 -0.71,5.24 3.58,3.1 9.06,-2.38 -3.1,-16.21"
     style="opacity:1;fill:none;fill-rule:nonzero;stroke:#e2001a;stroke-width:5;stroke-linecap:butt;stroke-linejoin:round;stroke-miterlimit:4;stroke-dasharray:none;stroke-opacity:1" />
  <path
     id="path922"
     d="m 1046.51,-83.17 48.88,7.42 62.02,-3.37 30.34,6.74 8.76,28.99 6.07,2.7 19.55,-1.69 12.13,5.73 27.3,12.47 10.11,3.03 15.17,-2.7 127.75,-47.86 6.4,-4.04 72.47,-26.29 3.37,4.04 -11.46,147.3 2.7,3.37 61.01,3.71 25.28,-10.79 22.92,-5.73 38.43,2.02 1.35,-2.02 -0.34,-10.79 -3.03,-2.36 -6.74,-0.34 -3.03,4.04 0.67,8.43 -3.03,1.69"
     style="opacity:1;fill:none;fill-rule:nonzero;stroke:#e2001a;stroke-width:5;stroke-linecap:butt;stroke-linejoin:round;stroke-miterlimit:4;stroke-dasharray:none;stroke-opacity:1" />
  <path
     id="path924"
     d="m 1271.67,-21.15 5.06,6.4 70.45,35.39 30,19.21 48.88,18.88 19.89,6.07 19.89,-5.73 5.73,-5.06 9.78,-0.34 4.04,-4.38"
     style="opacity:1;fill:none;fill-rule:nonzero;stroke:#e2001a;stroke-width:5;stroke-linecap:butt;stroke-linejoin:round;stroke-miterlimit:4;stroke-dasharray:none;stroke-opacity:1" />
  <path
     id="path926"
     d="m 1496.84,-98 6.4,-3.71 67.41,3.71 93.03,11.8 21.24,9.44 36.07,33.37 117.98,53.26 21.24,1.01 195.84,95.05"
     style="opacity:1;fill:none;fill-rule:nonzero;stroke:#e2001a;stroke-width:5;stroke-linecap:butt;stroke-linejoin:round;stroke-miterlimit:4;stroke-dasharray:none;stroke-opacity:1" />
  <path
     id="path928"
     d="m 1099.15,-183.89 10.73,-19.61 2.36,-40.11 46.18,-58.99 23.26,-21.57 55.62,-28.31 19.21,-17.19 6.4,-30.67 5.39,-55.95 2.7,-35.73 112.92,-254.15 -2.7,-23.26 3.03,-8.76 12.13,-21.24 -16.18,-52.25 -3.37,-23.93 1.69,-8.43 8.76,-22.25 -1.01,-4.04 -7.08,-11.46 -6.07,-13.48 -1.01,-1.01 -15.17,2.7"
     style="opacity:1;fill:none;fill-rule:nonzero;stroke:#e2001a;stroke-width:5;stroke-linecap:butt;stroke-linejoin:round;stroke-miterlimit:4;stroke-dasharray:none;stroke-opacity:1" />
  <path
     id="path930"
     d="m 408.48,-60.9 8.32,7.56 -0.28,4.66 -12.82,12.03 -17.19,95.05 -36.74,49.21 -0.51,5.73 13.31,41.12 3.2,2.19 10.28,-2.87 5.22,-17.53 1.01,-19.55 -9.94,-32.86 0.67,-7.58"
     style="opacity:1;fill:none;fill-rule:nonzero;stroke:#e2001a;stroke-width:5;stroke-linecap:butt;stroke-linejoin:round;stroke-miterlimit:4;stroke-dasharray:none;stroke-opacity:1" />
  <path
     id="path932"
     d="m 77.76,-1312.48 2.36,-7.42"
     style="opacity:1;fill:none;fill-rule:nonzero;stroke:#e2001a;stroke-width:5;stroke-linecap:butt;stroke-linejoin:round;stroke-miterlimit:4;stroke-dasharray:none;stroke-opacity:1" />
  <path
     id="path934"
     d="m 134.05,-1167.2 6.4,-6.74"
     style="opacity:1;fill:none;fill-rule:nonzero;stroke:#e2001a;stroke-width:5;stroke-linecap:butt;stroke-linejoin:round;stroke-miterlimit:4;stroke-dasharray:none;stroke-opacity:1" />
  <path
     id="path936"
     d="m 321.8,-1166.86 -5.39,126.4 -14.49,88.65 2.36,5.39 10.45,0.34 31.35,-19.55 -0.67,-5.06 -35.73,-6.4 -2.36,-2.36"
     style="opacity:1;fill:none;fill-rule:nonzero;stroke:#e2001a;stroke-width:5;stroke-linecap:butt;stroke-linejoin:round;stroke-miterlimit:4;stroke-dasharray:none;stroke-opacity:1" />
  <path
     id="path938"
     d="m 868.31,-1494.39 2.92,-7.87"
     style="opacity:1;fill:none;fill-rule:nonzero;stroke:#e2001a;stroke-width:5;stroke-linecap:butt;stroke-linejoin:round;stroke-miterlimit:4;stroke-dasharray:none;stroke-opacity:1" />
  <path
     id="path940"
     d="m 502.81,-1161.47 4.38,5.39"
     style="opacity:1;fill:none;fill-rule:nonzero;stroke:#e2001a;stroke-width:5;stroke-linecap:butt;stroke-linejoin:round;stroke-miterlimit:4;stroke-dasharray:none;stroke-opacity:1" />
  <path
     id="path942"
     d="m -118.11,-1055.13 9.63,3.89 -5.22,11.46"
     style="opacity:1;fill:none;fill-rule:nonzero;stroke:#e2001a;stroke-width:5;stroke-linecap:butt;stroke-linejoin:round;stroke-miterlimit:4;stroke-dasharray:none;stroke-opacity:1" />
  <path
     id="path944"
     d="m -108.48,-1051.25 15.84,-8.26 24.77,-2.87 5.73,-14.16 2.7,-0.67 37.08,9.78 92.02,-12.47 43.15,7.42 24.61,-5.73"
     style="opacity:1;fill:none;fill-rule:nonzero;stroke:#e2001a;stroke-width:5;stroke-linecap:butt;stroke-linejoin:round;stroke-miterlimit:4;stroke-dasharray:none;stroke-opacity:1" />
  <path
     id="path946"
     d="m -111.34,-983.49 4.38,5.39 37.42,20.9 35.06,9.1 11.46,9.44 15.84,24.94 37.42,44.49 16.52,12.47 25.28,45.84 21.42,6.78 2.38,5.96 -3.34,11.68 119.17,91.76 121.32,188.06 5.96,1.91 42.19,-17.88 44.81,1.43 25.98,15.25 96.53,70.31 3.24,7.99"
     style="opacity:1;fill:none;fill-rule:nonzero;stroke:#e2001a;stroke-width:5;stroke-linecap:butt;stroke-linejoin:round;stroke-miterlimit:4;stroke-dasharray:none;stroke-opacity:1" />
  <path
     id="path948"
     d="m 1524.82,-114.52 -19.89,-9.44 -4.72,2.7 1.01,8.76 19.55,-0.67 24.61,-6.4 396.74,-144.94 20.9,1.35 24.94,7.42 23.6,-2.7 15.84,-9.78 77.19,-59.33 47.19,-115.28 5.73,-2.02 10.79,6.74 19.55,-1.35 85.28,21.57 52.92,63.37 173.59,13.15 74.83,6.74 50.56,1.35 20.22,-6.74 19.89,-8.43 44.49,-11.46 68.09,3.71 13.15,-3.37 22.92,-22.25 8.43,-2.02 9.1,1.69 34.38,20.22 5.39,-0.67 7.08,-7.75 7.75,1.01 7.42,9.44 18.54,10.45 13.82,14.16 34.38,9.1 25.28,0.34 35.73,34.38 19.89,7.42 36.4,9.44 17.86,-3.37 20.9,-7.08 h 13.48 l 17.53,12.47 38.09,29.66"
     style="opacity:1;fill:none;fill-rule:nonzero;stroke:#e2001a;stroke-width:5;stroke-linecap:butt;stroke-linejoin:round;stroke-miterlimit:4;stroke-dasharray:none;stroke-opacity:1" />
  <path
     id="path950"
     d="m 2124.81,-18.79 19.55,1.69 17.86,-2.7 242.69,-58.31 90.67,-3.71 145.95,52.25 45.51,27.3 12.47,6.4 13.15,3.37 21.57,-6.4 5.06,1.01 4.38,7.08 18.88,14.83 13.82,51.24 18.88,38.76"
     style="opacity:1;fill:none;fill-rule:nonzero;stroke:#e2001a;stroke-width:5;stroke-linecap:butt;stroke-linejoin:round;stroke-miterlimit:4;stroke-dasharray:none;stroke-opacity:1" />
  <path
     id="path1520"
     d="m 3463.03,-1265.62 22.94,0.51 6.12,-2.29 13.25,-6.88 36.71,-56.33 51.74,-79.02 67.04,-62.45 9.18,-13 71.88,-137.65 8.67,-14.27 -2.55,-26.76 3.82,-26.51 0.76,-22.18 25.24,-67.29 11.47,-16.31 55.57,-70.35 9.43,-12.74 20.39,-39.51 10.45,-15.29"
     style="opacity:1;fill:none;fill-rule:nonzero;stroke:#e2001a;stroke-width:5;stroke-linecap:butt;stroke-linejoin:round;stroke-miterlimit:4;stroke-dasharray:none;stroke-opacity:1" />
  <path
     style="opacity:1;fill:none;stroke:#00ffff;stroke-width:5;stroke-linejoin:round"
     d="m 1101.33,502.87 c 11.26,-1.12 20.07,-13.29 31.76,-13.73"
     id="path941" />
  <path
     id="path897"
     d="m -3068.9,1412.09 -1.8,-83.99 -20.55,-20.19 -1.44,-5.41 1.08,-7.93 3.24,-6.85 54.43,-54.07 5.05,-9.73 3.97,-19.47 v -23.07 l -0.72,-29.56 -5.41,-5.77 -121.12,2.16 -14.78,-4.33 -62.36,32.08 -7.21,8.29 -9.73,11.54 -9.73,5.41 -10.45,0.72 -11.9,-3.97 -56.24,-31.36 -10.09,0.36 -18.02,9.01 -14.42,6.49 -11.54,0.36 -62,-9.73 -36.77,-15.5 -41.09,-18.75 -29.92,-1.44 -97.33,-109.59 -15.14,-28.12 -59.58,-65.03 0.51,-5.86 8.67,-8.92 -1.27,-3.82 -3.57,-3.31 -22.69,-2.8 -4.84,-3.82 -3.57,-17.33 -21.92,-27.27 -13.76,-3.06 -3.82,-3.57 -9.69,-43.08"
     style="fill:none;fill-rule:nonzero;stroke:#e2001a;stroke-width:5;stroke-linecap:butt;stroke-linejoin:round;stroke-miterlimit:4;stroke-dasharray:none;stroke-opacity:1" />
  <path
     id="path899"
     d="m -3326.47,874.77 -34.92,10.2 -117.25,16.06 -71.63,-26.76 -17.84,-5.1 -6.12,-5.61 -3.82,-20.9 -7.65,-12.49 -18.1,-17.33 -74.69,-60.92 -14.27,-13 h -7.39 l -33.14,51.49 -6.12,5.61 -67.04,15.8 -3.82,-24.22 13.76,-3.31 6.88,23.71"
     style="fill:none;fill-rule:nonzero;stroke:#e2001a;stroke-width:5;stroke-linecap:butt;stroke-linejoin:round;stroke-miterlimit:4;stroke-dasharray:none;stroke-opacity:1" />
  <path
     id="path901"
     d="m -3810.27,787.59 -2.55,-12.24 3.82,-77.23 5.35,-61.69 -4.08,-6.37 9.94,-47.16 0.76,-8.67 -4.08,-7.14 -9.69,-5.1 -8.67,2.29 -4.33,3.06 -7.9,9.18 -6.88,-1.02 -12.74,-11.73 -33.9,-10.45 4.08,-15.8 2.29,-122.1 -0.25,-19.12 5.35,-5.61 33.14,-2.04 1.27,-39.25 2.04,-3.06 -0.51,-26.51 -11.19,-40.76 10.99,-3.24"
     style="fill:none;fill-rule:nonzero;stroke:#e2001a;stroke-width:5;stroke-linecap:butt;stroke-linejoin:round;stroke-miterlimit:4;stroke-dasharray:none;stroke-opacity:1" />
  <path
     id="path933"
     d="m -3885.21,553.34 -78.77,-23.35 -5.41,0.36 -21.27,30.28 -3.42,12.44 -6.13,2.34 -42.72,-14.96"
     style="fill:none;fill-rule:nonzero;stroke:#e2001a;stroke-width:5;stroke-linecap:butt;stroke-linejoin:round;stroke-miterlimit:4;stroke-dasharray:none;stroke-opacity:1" />
  <path
     id="path935"
     d="m -3558.43,1137.4 22.53,25.77 60.02,133.38 15.5,43.08 20.91,45.24 -0.72,9.73"
     style="fill:none;fill-rule:nonzero;stroke:#e2001a;stroke-width:5;stroke-linecap:butt;stroke-linejoin:round;stroke-miterlimit:4;stroke-dasharray:none;stroke-opacity:1" />
  <path
     id="path937"
     d="m -3812.82,775.36 -81.59,17.06 -9.91,0.36 -13.34,5.23 -8.29,3.79 -32.08,30.46 -21.99,16.58 -17.12,6.49 -26.68,14.06 -36.23,1.8 h -33.52 l 7.39,74.26 20.37,-21.27 85.79,-75.34"
     style="fill:none;fill-rule:nonzero;stroke:#e2001a;stroke-width:5;stroke-linecap:butt;stroke-linejoin:round;stroke-miterlimit:4;stroke-dasharray:none;stroke-opacity:1" />
  <path
     id="path939"
     d="m -4086.18,945.45 -94.99,105.98 -12.62,15.86 -19.29,18.2 -22.17,66.69 -18.02,7.21 0.18,4.51 7.93,5.05 5.05,-1.98 4.87,-14.78"
     style="fill:none;fill-rule:nonzero;stroke:#e2001a;stroke-width:5;stroke-linecap:butt;stroke-linejoin:round;stroke-miterlimit:4;stroke-dasharray:none;stroke-opacity:1" />
  <path
     id="path941-3"
     d="m -3700.15,738.91 58.75,-93.51 103.23,-73.67"
     style="fill:none;fill-rule:nonzero;stroke:#e2001a;stroke-width:5;stroke-linecap:butt;stroke-linejoin:round;stroke-miterlimit:4;stroke-dasharray:none;stroke-opacity:1" />
  <path
     style="fill:none;stroke:#e2001a;stroke-width:5;stroke-linejoin:round;stroke-opacity:1"
     d="m 403.71,-36.65 7.4,12.74 4.07,12.94 33.83,59.44 95.2,108.35 19.44,21.33 13.9,16.75 -14.13,14.55 -1.87,5.5 -0.35,47.95 4.65,4.58"
     id="path949" />
  <path
     style="fill:none;stroke:#e2001a;stroke-width:5;stroke-linejoin:round;stroke-dasharray:none;stroke-opacity:1"
     d="m 132.06,-1581.14 14.03,2.07 117.97,34.86 79.41,29.33"
     id="path4941" />
  <path
     style="fill:none;stroke:#e2001a;stroke-width:5;stroke-linejoin:round;stroke-dasharray:none;stroke-opacity:1"
     d="m -213.56,-1144.38 -7.05,-11.71 5.5,-2.76"
     id="path4696" />
  <path
     style="fill:none;stroke:#e2001a;stroke-width:5;stroke-linejoin:round;stroke-opacity:1"
     d="m -979.6,-1127.81 -10.57,4.96 -20.21,-2.52 -2.46,-3.53 1.13,-11.35 -15.27,-29.88 -4.37,-2.4 -53.88,7.4 -43.37,-0.64 -44.09,-2.48"
     id="path544" />
</svg>
