<?xml version="1.0" encoding="UTF-8" standalone="no"?>
<svg
   version="1.1"
   id="svg2"
   width="600"
   height="1300"
   viewBox="0 0 600 1300"
   xmlns:xlink="http://www.w3.org/1999/xlink"
   xmlns="http://www.w3.org/2000/svg"
   xmlns:svg="http://www.w3.org/2000/svg"
   xmlns:rdf="http://www.w3.org/1999/02/22-rdf-syntax-ns#"
   xmlns:cc="http://creativecommons.org/ns#"
   xmlns:dc="http://purl.org/dc/elements/1.1/">
  <metadata
     id="metadata8">
    <rdf:RDF>
      <cc:Work
         rdf:about="">
        <dc:format>image/svg+xml</dc:format>
        <dc:type
           rdf:resource="http://purl.org/dc/dcmitype/StillImage" />
      </cc:Work>
    </rdf:RDF>
  </metadata>
  <defs
     id="defs6" />
  <image
     xlink:href="../timelines/basemap/ccuosm.png"
     style="display:none"
     y="-1064.25"
     x="-686.5"
     id="image10"
     preserveAspectRatio="none"
     height="3741"
     width="2494" />
  <path
     style="fill:none;fill-rule:nonzero;stroke:#f2f2f2;stroke-width:8;stroke-linecap:butt;stroke-linejoin:round;stroke-miterlimit:4;stroke-dasharray:none;stroke-opacity:1"
     d="m 890.5,2042.5 49.5,45 4,10.5 -2,13 -4,9 -12.5,7.5 -123.5,18.5 -40,14.5 h -15.5 l -28.5,-7 -17.5,2.5 -37.5,14.5 -36.5,5.5 -17,-6 -11.5,-6.5 -20.5,-27.5 -23,-11 -9,-12 -16.5,-14 -18,-7 -28,-2.5 -23,-7.5 -59.5,-32.5 -64,-45.5 -27,-5 -36,-17.5 -35,-27 -46,-15.5 -43.5,-36.5 -6,-9.5 -6,-21 -28,-21 -5,-10.5 -0.5,-10.5 4,-15.5 13.5,-12 12.5,-16 11.5,-46 4.5,-44.5 -2.5,-34.5 2,-64 15,-209 -3,-32.5 13,-60 -4.5,-33 -3,-47.5 -10.5,-42 7,-64 2,-33 40,-232.5 18.5,-84 9,-111.5 10,-34.5 76.5,-42 6,-9 44.5,-143.5 76,-306 4.5,-6 71,-38.5 232,-80.5 52,-19 20.5,-17 13,-23 1,-20.5 -15.5,-222 6.5,-67 -6,-72 22,-88 8.34,-38.18 -0.06,-29.82 -8.3,-19.91 -19.58,-21.55 -31.78,-30.29 -23.44,-12.13 -180.13,-58.43 -27.16,-4.51 -75.69,4.04 -84.4,7.4"
     id="path4506" />
  <path
     style="fill:none;stroke:#f2f2f2;stroke-width:8;stroke-linejoin:round;stroke-dasharray:none;stroke-opacity:1"
     d="m -11.35,342.13 8.01,-14.76 6.02,-3.88 10.48,-1.22 39.61,8.66 27.03,10.65 48.1,20.59 58.37,8.74 31.87,7.56 24.7,11.38 5.95,9.14 3.56,20.03 -0.07,15.88 -16.81,55.64 -35.8,110.26 2.58,12.74 9.53,13.24 17.12,15.44 14.13,9.49 30.68,9.04 21.96,1.94 20.99,-4.52 16.79,-11.62 17.76,-17.11 19.37,-45.85 10.33,-10.01 17.11,-6.46 16.15,0.97 92.03,34.87 15.44,5.49 23.26,-1.88 16.05,-3.95 42.87,-23.24 42.26,-18.02 52.77,-25.75 60.65,-16.69 24,-2.92 39.42,3.62 35.45,9.22 37.62,3.01 29.06,7.59 33.73,5.66 12.23,-2.21 5.88,-7.32 1.59,-7.85 -4.27,-20.82 -29.79,-124.34 -4.77,-18.67 2.78,-10.73 8.74,-11.92 170.82,-108.45 12.31,-2.78 61.97,13.11 8.34,5.56 88.19,143.41 11.52,5.56 10.73,-1.59 36.94,-22.25"
     id="path302" />
  <path
     style="opacity:1;fill:none;fill-rule:nonzero;stroke:#027af4;stroke-width:5;stroke-linecap:butt;stroke-linejoin:round;stroke-miterlimit:4;stroke-dasharray:none;stroke-opacity:1"
     d="m 216.01,612.15 117.59,39.79 5.15,1.12"
     id="path825" />
  <path
     id="path829"
     d="m 543.34,84.63 -109.24,317.38 -57.6,143.41 -12.31,21.85 0.4,14.7 -20.26,67.93 -5.56,3.18"
     style="opacity:1;fill:none;fill-rule:nonzero;stroke:#027af4;stroke-width:5;stroke-linecap:butt;stroke-linejoin:round;stroke-miterlimit:4;stroke-dasharray:none;stroke-opacity:1" />
  <path
     style="opacity:1;fill:none;fill-rule:nonzero;stroke:#027af4;stroke-width:5;stroke-linecap:butt;stroke-linejoin:round;stroke-miterlimit:4;stroke-dasharray:none;stroke-opacity:1"
     d="m 338.76,653.06 2.78,7.15 -27.01,134.67 -9.14,21.45 25.82,12.31 6.36,5.96 63.96,12.31 -18.27,58.79 63.76,52.24 0.92,3.03 -5.49,25.97"
     id="path830" />
  <path
     id="path835"
     d="m 442.44,986.95 -12.44,66.47 1.4,24.3 -5.62,36.52 22.19,78.65 -1.4,35.67"
     style="opacity:1;fill:none;fill-rule:nonzero;stroke:#027af4;stroke-width:5;stroke-linecap:butt;stroke-linejoin:round;stroke-miterlimit:4;stroke-dasharray:none;stroke-opacity:1" />
  <path
     style="opacity:1;fill:none;stroke:#00ffff;stroke-width:5;stroke-linejoin:round"
     d="m 125.56,361.92 c 39.61,13.53 43.72,-19.9 70.59,-9.45"
     id="path841" />
  <path
     style="opacity:1;fill:none;stroke:#00ffff;stroke-width:5;stroke-linejoin:round"
     d="m 125.56,361.92 c 57.68,21.67 -6.46,93.92 28.71,102.75"
     id="path843" />
  <path
     style="opacity:1;fill:none;stroke:#00ffff;stroke-width:5;stroke-linejoin:round"
     d="m 90.16,582.65 c -42.52,-26.32 73.2,-205.02 35.4,-220.73"
     id="path846" />
  <path
     style="opacity:1;fill:none;stroke:#00ffff;stroke-width:5;stroke-linejoin:round"
     d="m 90.16,582.65 c -29.35,-19.2 -40.79,-46.16 -75.17,-64.43"
     id="path848" />
  <path
     style="opacity:1;fill:none;stroke:#00ffff;stroke-width:5;stroke-linejoin:round"
     d="m 125.56,361.92 c 44.28,16.4 -21.5,132.73 7.7,151.63"
     id="path850" />
  <path
     style="opacity:1;fill:none;stroke:#00ffff;stroke-width:5;stroke-linejoin:round"
     d="m 125.56,361.92 c 48.48,13.95 77.81,-155.24 42.69,-164.31"
     id="path902" />
  <path
     style="opacity:1;fill:none;stroke:#00ffff;stroke-width:5;stroke-linejoin:round"
     d="m 168.25,197.62 c 34.15,7.41 57.16,-72.82 95.6,-50.6"
     id="path904" />
  <path
     style="opacity:1;fill:none;stroke:#00ffff;stroke-width:5;stroke-linejoin:round"
     d="m 263.85,147.02 c -18.16,-11.02 25.94,-68.07 47.37,-47.28"
     id="path906" />
  <path
     style="opacity:1;fill:none;stroke:#00ffff;stroke-width:5;stroke-linejoin:round"
     d="m 311.22,99.74 c -25.72,-23.18 74.25,-108.58 110.55,-81.89"
     id="path908" />
</svg>
