<?xml version="1.0" encoding="UTF-8" standalone="no"?>
<svg
   viewBox="2400 0 725 1550"
   height="1550"
   width="725"
   id="svg2"
   version="1.1"
   xmlns:xlink="http://www.w3.org/1999/xlink"
   xmlns="http://www.w3.org/2000/svg"
   xmlns:svg="http://www.w3.org/2000/svg"
   xmlns:rdf="http://www.w3.org/1999/02/22-rdf-syntax-ns#"
   xmlns:cc="http://creativecommons.org/ns#"
   xmlns:dc="http://purl.org/dc/elements/1.1/">
  <metadata
     id="metadata8">
    <rdf:RDF>
      <cc:Work
         rdf:about="">
        <dc:format>image/svg+xml</dc:format>
        <dc:type
           rdf:resource="http://purl.org/dc/dcmitype/StillImage" />
      </cc:Work>
    </rdf:RDF>
  </metadata>
  <defs
     id="defs6" />
  <g
     id="rt"
     style="opacity:0.25"
     transform="translate(-2600,-5100)">
    <path
       style="fill:none;stroke:#cccccc;stroke-width:8;stroke-linecap:butt;stroke-linejoin:round;stroke-miterlimit:4;stroke-dasharray:none;stroke-opacity:1"
       d="m 6765.88,5736.86 -10.78,18.49 -2.74,12.28 1.43,9.65 4.82,8.44 7.24,7.35 11.51,24.34 8.99,17.32 15.9,20.61 2.96,6.36 0.99,9.21 -2.3,21.16 -3.4,13.71 -6.58,13.27 -25.22,43.09 -13.71,16.78 -6.14,14.25 -1.86,11.73 -4.71,33.66 -3.84,10.42 -7.24,10.53 -7.68,6.14 -10.2,6.36 -9.1,3.95 -13.05,2.63 -23.79,2.74 -17.98,-0.55 -8.88,-1.64 -7.46,-4.06 -5.59,-5.92 -8.66,-10.09 -8.77,-7.78 -33.99,-20.28 -10.53,-3.51 -39.91,-7.57 -43.53,-2.52 -8.99,-3.07 -28.07,-18.86 -6.36,-5.59 -19.74,-21.38"
       id="path2" />
    <path
       style="fill:none;stroke:#cccccc;stroke-width:8;stroke-linecap:butt;stroke-linejoin:round;stroke-miterlimit:4;stroke-dasharray:none;stroke-opacity:1"
       d="m 7112.4,5057.58 -16.67,43.4 -6.92,16.35 -14.44,21.62 -14.48,15.75 -8.87,4.85 -30.81,17.28 -18.29,18.68 -33.1,38.27 -17.21,19.28 -7.32,20.62 1.98,15.41 9.72,22.07"
       id="path829" />
    <path
       style="fill:none;stroke:#cccccc;stroke-width:8;stroke-linecap:butt;stroke-linejoin:round;stroke-miterlimit:4;stroke-dasharray:none;stroke-opacity:1"
       d="m 6968.65,5323.17 41.05,24.39 31.45,27 9.77,11.3 10.59,20.67 3.11,15.81 -0.93,11.73 -7.16,26.31 -6.6,24.21 -0.07,0.38 -4.66,10.22 0.83,13.18 2.66,15.12 -1.29,7.51 -6.43,12.08 -12.17,11.87 -29.64,18.09 -0.05,0.03 -30.45,19.57 -13.07,2.97 -10.78,-0.6 -21.82,-4.68 -0.09,-0.02 -12.58,-2.2 h -0.88 l -15.41,2.83 -1.19,0.57 -12.26,10.69 -0.16,0.15 -15.41,16.04 -0.52,0.81 -7.43,9.57 -2.8,12.8 0.87,19 -2.29,10.05 -10.94,12.36 -21.52,13.48 -25.05,15.85 -29.45,24.55 -12.66,9.55 -16.11,3.98 -20.92,-0.52 -47.55,3.44 -15.92,-6.15 -12.7,-12.08 -5.5,-14.2 -0.03,-14 6.09,-19.62 1.1,-13.55 -6.68,-19.1 -14.68,-22.02 -14.03,-17.11 -16.92,-10.57 -12.54,-11.66 -8.77,-16.69 -3.56,-18.9 -1.53,-31.53 -2.07,-32.48 0.94,-14.59 10.38,-23.18 6.64,-9 10.02,-6.44 11.56,-0.08 17.87,5.84 10.68,0.29 10.67,-6.45 23.35,-27.35 11.95,-13.22 16.8,-11.98 11.11,-10.39 4.56,-11.61 -1.29,-25.72 -6.08,-16.34 -13.13,-10.52 -47.95,-19.17 -15.79,-7.56 -9.91,-10.01 -2.66,-11.23 4.23,-27.57 4,-12.12 5.56,-7.01 7.97,-3.5 10.82,-2.22 11.89,1.44 20.84,2.01 14.98,-6.26 30.89,-28.98 12.12,-6.63 21.25,-8.08 47.06,-0.68 12.33,-2.65 21.44,-8.63 23.59,-9.37 9.23,-6.76 15.46,-26.98 7.97,-8.6 9.48,-5.77 12.69,-1.32 13.96,0.82 27.18,13.95 9.16,9.59 7.74,13.36 2.97,17.36 -1.94,12.26 -10.97,22.4 -21.2,41.44 -3.92,17.15 0.79,33.32 3.43,13.95 5.08,10.02 9.29,10.28 12.63,12"
       id="path837" />
    <path
       id="path842"
       d="m 7086.76,5725.55 9.16,25.38 21.5,18 27,14 28,27.5 16.5,23.5 14.5,8.5 20,4.5 27.5,-3.5 58.5,-17 30.5,-5 27.5,3 24,6.5 7.5,9 84.5,255.5 12,33.5 12,16 22.5,23 7.5,12 4,10.5 5.5,21 22.5,61 4.5,14 1.5,31.5"
       style="fill:none;stroke:#cccccc;stroke-width:8;stroke-linecap:butt;stroke-linejoin:round;stroke-miterlimit:4;stroke-dasharray:none;stroke-opacity:1" />
    <path
       id="path836"
       d="m 6212.58,5447.06 74.5,24.16 0.11,0.03 29.24,8.03 45.06,16.36 0.11,0.04 126.56,39.7 0.06,0.02 12.08,3.45 0.25,0.06 8.05,1.44 0.44,0.04 h 85.43 l 0.64,-0.08 25.89,-6.9 0.31,-0.11 21.57,-8.92 0.24,-0.12 15.42,-8.41 13.42,-1.92 13.86,0.55 31.51,8.8 35.53,14.61 0.72,0.18 12.37,1.15 0.89,-0.08 14.67,-4.03 0.71,-0.32 10.93,-7.19 0.47,-0.4 9.78,-10.64 0.28,-0.36 16.95,-27 7.38,-10.93 5.57,-2.78 11.68,-3.72 7.46,2.57 21.83,9.64 38.05,26.61 0.43,0.24 18.98,8.34 0.37,0.13 12.08,3.16 0.37,0.07 18.98,2.01 0.06,0.01 20.31,1.69 11.16,4.78 17.79,17.27 5.56,16.68 14.89,51.27 0.38,0.77 16.48,34.51 15.27,16.12 17.75,28.42 3.47,19.83 -0.33,19.31 -1.4,6.61 -4.37,7.87 -10.1,6.8 -29.75,13 -8.89,7.85 -5.12,10.56 -6.61,23.05 -7.5,43 3.5,17 12,16.5 16.5,13 7.5,16 3.5,31.5 -3,17.5 -116.5,528.5"
       style="fill:none;stroke:#cccccc;stroke-width:8;stroke-linecap:butt;stroke-linejoin:round;stroke-miterlimit:4;stroke-dasharray:none;stroke-opacity:1" />
    <path
       style="fill:none;stroke:#cccccc;stroke-width:8;stroke-linecap:butt;stroke-linejoin:round;stroke-miterlimit:4;stroke-dasharray:none;stroke-opacity:1"
       d="m 6625.17,5898.7 -3.97,42.35 2.12,25.28 28.11,100.23 13.08,29.7 35.36,51.97 37.12,56.57 35.71,51.97 27.22,27.58 36.06,26.16 33.23,18.03 45.96,13.08 29.7,6.01 45.96,1.41 45.61,0.35 82.73,-18.38 35,-2.47 175.72,-7.07 90.86,-5.66 42.43,-1.06 36.42,3.18 39.95,9.55 25.81,3.54 17.68,1.06 20.86,-2.47 19.45,-4.95 18.38,-10.96 25.81,-17.68 14.14,-6.01 16.97,-4.6 31.82,-3.18 19.45,1.41 36.06,8.84 24.75,13.08 30.4,20.91 425.1,307.04 59.15,43.93 62,52 49,47.5 61,53.5 31,25.5 37,23 55,34.5 34,23.5 81,50 85,48.5 53.5,29 108.5,49.5 159,62 123,47.5 128,38 70,18 89,17.5 75,11 77,7 73,-2 68.5,-5 47,2 45,10.5 59.5,21.5 51.5,28 40,13 48.5,23 49.5,12 71.5,2 62,-19.5 60.5,-28 52,-36.5 30,-31 30.5,-50.5 31.5,-55 86.5,-144 21,-41 5,-29.5 -2,-53 -10,-42 -19.5,-40 -65.5,-69.5 -14.5,-29.5 v -22.5 -17 l 12.5,-24 16,-20 43,-23.5 44.5,-14.5 30,1 94,6.5 46.5,-1.5 52,-13.5 46.5,-27.5 96,-74 29.5,-37 83,-124 27.5,-33 74,-77.5 699.5,-729.5 229,-236 69,-59 13,-18 4,-19.5 -8.5,-47.5"
       id="path1" />
    <path
       style="fill:none;stroke:#cccccc;stroke-width:8;stroke-linecap:butt;stroke-linejoin:round;stroke-miterlimit:4;stroke-dasharray:none;stroke-opacity:1"
       d="m 7265.9,109.43 -45.5,44 -33.5,49.5 -11,18.5 -4.5,20 -4.5,39.5 -8,37 -43,89.5 -17.5,26.5 -18.5,13.5 -23.5,11.5 -95.5,32.5 -40.5,6 -34.5,15 -111.5,90 -25,22 -20,26 -10,25.5 -11,28.5 -51,287 -13,39 -349,716 -9,41 -0.5,38.5 14,266.5 2,21 14,43 19.5,32.5 204.5,230.5 25,38 93.5,210.5 18.5,39 23.5,25.5 61.5,41.5 31.5,36 19,36 10.5,40 3,162.5 2.5,20.5 61,184 9.5,30.5 6,64 0.5,25.5 21,123 43.5,126 35.5,54 17,47 40.5,119 8,23.5 v 31.5 l -8.5,32.5 -15.5,33.5 -9,29 0.5,31.5 9.37,33.7"
       id="path869" />
    <path
       id="path890"
       d="m 7043.03,4058.74 11.65,34.46 1.96,22.54 -0.73,16.09 -3.59,14.61 -14.77,22.9 -0.18,0.32 -11.75,26 -0.11,0.3 -6.25,20.5 -0.08,0.34 -4.49,28.17 -6.44,28.49 -8.39,21.47 -22.66,45.32 -62.91,106.1 -44.2,64.43 -0.12,0.19 -15.5,27.5 -0.17,0.36 -10.5,28.5 -0.11,0.39 -5.75,30 -0.04,0.45 -0.25,25 0.06,0.57 6.98,31.4 14.99,109.65 0.03,0.15 22,110 0.07,0.27 26,81.75 0.3,0.62 17.25,26 0.52,0.57 20.25,16.25 0.19,0.14 39.75,26.25 h 0.01 l 29.45,19.3 18.11,21.29 9.55,17.13 11.14,28.72 15.17,55.71 4.2,33.38 6.26,77.22 -0.25,27.71 -5.75,15.8 -11.22,16.59 -18.58,20.31 -54.39,52.9 -34.44,29.7 -0.17,0.16 -17.5,18.25 -0.14,0.15 -51.5,63.5 -0.1,0.14 -24.81,35.23 -23.5,19.79 -0.49,0.56 -6.75,10.5 -0.22,0.42 -7,17.5 -0.17,0.75 -1,13.75 0.07,0.78 5.25,21.25 0.18,0.5 20.15,41.29 6.06,22.3 -2.39,20.35 -8.85,18.18 -14.63,13.17 -15.24,13.49 -15.39,13.68 -23.06,8.25 -37.25,5.46 -25.5,3.75 -0.35,0.08 -23.5,7 -0.58,0.25 -19.5,11.75 -0.01,0.01 -12.75,7.75 -0.74,0.69 -9.25,13 -0.31,0.58 -22.75,61.5 -5.91,24.12 -17.75,22.75 -20.75,13.5 -45.75,22.75 -45.25,7.75 -17,-2.25 -18.25,-6.75 -15.25,-7 -12.25,-2 -13.25,2.25 -12,6.5 -16.25,15.5 -74,132.5 -72.5,106 -15,34.5 -8,12 -14,14.5 -19.5,12 -89,41 -38,10.5 -79.5,4 -43.5,10.5 -45.5,13.5 -130,62 -37,10.5 -35,3.5 -76,-10 -50.5,-3 -31.5,-6 -79,-28 -40,-5.5 -58.5,2.5 -123.5,11.5 -29,7.5 -33.5,13.5 -37,24 -32.5,39 -60,93.5 -16,27.5 -111,112 -35.5,35.5 -92.5,123 -14.5,15 -17.5,9.5 -28,9 -77,16.5 -29.5,16.5 -22.5,26.5 -28,33.5 -19,16.5 -71.5,55.5 -22.5,24.5 -16.5,24 -27.5,60.5 -22.5,30 -29,24 -87.5,44 -113.5,61.5 -29,26.5 -16,20.5 -72,114.5 -37,47.5 -36,38.5 -57,59.5 -19,32 -27.5,60.5 -42.5,94.5 -24,44.5 -43.5,120 -15.5,20.5 -11.5,17.5 -96,100.5 -135.5,128 -22.5,33 -36,140.5 2.5,37 14,71 21.5,34 49.5,45.5 16,31 41,196.5 2,29.5 -7.5,51"
       style="fill:none;stroke:#cccccc;stroke-width:8;stroke-linecap:butt;stroke-linejoin:round;stroke-miterlimit:4;stroke-dasharray:none;stroke-opacity:1" />
    <path
       id="path919"
       d="m 5186.4,3520.93 51,91 4.5,20 -3,24.5 -39,89.5 -14,21 -20.5,16.5 -62.5,32 -19.5,19 -10.5,31 1,23 8.5,25 16,18.5 27,21.5 94.5,53.5 30,17 22.5,20 29,39 27.5,28.5 219,188 20,10.5 23,2.5 22,-5 19.5,-12 41,-30.5 38,-17.5 30,-8.5 19.5,-1.5 23,7 24,14.5 46,32.5 19.5,8.5 28.5,6 80.5,13.5 20,9 14,14 48,50 19,28.5 11.5,27 22.5,30 13,12 27,18.5 26.5,8 57,10.5 71,16.5 22,8.5 195,115 21.5,17 25.5,28.5 16.5,30 7.5,24 32,142.5 11.5,36 34,79 5,20.5 8.5,14.5 15.5,10.5 18,1.5 19,-5 27.5,-15.5 36,-48 17.5,-11.5 23,-4.5 h 32.5 l 34.5,2 32,12.5"
       style="opacity:1;fill:none;fill-rule:nonzero;stroke:#cccccc;stroke-width:8;stroke-linecap:butt;stroke-linejoin:round;stroke-miterlimit:4;stroke-dasharray:none;stroke-opacity:1" />
    <path
       style="opacity:1;fill:none;fill-rule:nonzero;stroke:#cccccc;stroke-width:8;stroke-linecap:butt;stroke-linejoin:round;stroke-miterlimit:4;stroke-dasharray:none;stroke-opacity:1"
       d="m 6881.65,4871.43 -9.5,34.5 -28.25,46.75 -37,49.75"
       id="path818" />
    <path
       style="fill:none;stroke:#cccccc;stroke-width:8;stroke-linecap:butt;stroke-linejoin:round;stroke-miterlimit:4;stroke-dasharray:none;stroke-opacity:1"
       d="m 4278.27,6036.53 293.9,-59.18 0.16,-0.03 41.26,-5.6 954.08,-185.24 0.17,-0.03 34.5,-4.25 0.36,-0.02 325.75,7.5 h 0.04 l 128.74,5 296.47,9.5 87.23,1.25 h 0.04 l 151.75,4.25 0.14,0.01 23.75,2 0.4,0.07 34.75,8.75 24.76,-0.95"
       id="path852" />
    <path
       style="opacity:1;fill:none;fill-rule:nonzero;stroke:#cccccc;stroke-width:8;stroke-linecap:butt;stroke-linejoin:round;stroke-miterlimit:4;stroke-dasharray:none;stroke-opacity:1"
       d="m 6765.65,5054.18 -25.25,26.25 -68,40.75 -23,22.5 -18.75,28.5 -11,25.5 -9.25,37 -4.75,30.75 -8.75,23 -8.75,9.25 -11.25,9.5 -13.5,5.25 -38.25,6.5 -22,6.5 -17.25,9.75 -25,21.25 -46.25,41 -30,14 -34,12.75 -26.75,9 -9.25,5.25 -19.25,14.5 -27.5,24.25 -19.75,19.25 -9.25,11.5 -7.25,14.5 -11.75,34.5 -3,20.75 -0.25,28 11.5,112.5 2.25,48 0.75,15.75 -3,27.5 2.5,15.25 6.25,12.5 14.25,13.25 17,13.5 118.5,80.25 37.24,33.43"
       id="path820" />
    <path
       style="opacity:1;fill:none;fill-rule:nonzero;stroke:#cccccc;stroke-width:8;stroke-linecap:butt;stroke-linejoin:round;stroke-miterlimit:4;stroke-dasharray:none;stroke-opacity:1"
       d="m 6372.4,5804.18 -22.5,-7.25 -15.38,-13.38 -12.25,-18.5 -5.25,-20.75 0.38,-15.5 2.25,-8.75 8.38,-26.25 1.88,-14.12 -0.88,-16.75 -18.5,-96.25 -6.5,-16.25 -28.25,-69.88 -9.56,-10.94 -55.56,-17.94 -77.69,-29.83 -27.4,-14.32 -24.57,-18.92 -13.61,-11.31 -16.26,-20.15 -12.73,-22.98 -8.31,-20.51 -12.02,-44.9 -24.93,-114.55 -10.98,-27.53 -16,-30.75 -15,-24.5 -25.5,-28.75 -30.5,-25 -34.75,-20.75 -114.5,-61.25 -32.25,-10.5 -25.5,-4.25 -158.25,-10.5 -378.5,-63.5 -28,-11 -25,-14.5 -44.5,-30 -247,-185.5 -61,-51 -56.25,-50 -19,-14 -22.75,-10.25 -17.25,-5 -32.25,-6.75 -268.75,-30.75 h -28.75 l -18.5,3 -19.25,5.25 -56.5,17.25 -49,10.5 -43,4.25 -70.75,4.25 -34.75,-2.75 -20.5,-5.5 -14.75,-5.75 -71.25,-29 -26.75,-5 -31.25,-1.25 -28,-4.5 -27.25,-9 -19,-9.25 -106.25,-57.75 -18.5,-14.75 -16.25,-19 -14.5,-26 -6,-21.25 -56.25,-283.25 -8.5,-25 -16,-26.25 -11.75,-16 -19.75,-18.5 -140.25,-111.5 -23,-15.25 -74.5,-38.5 -26.75,-19 -106.75,-108.25 -23.5,-18.5 -29.25,-15.75 -32,-12.25 -26.25,-4.25 -134.25,-15.5 -29,-8 -39.75,-16.75 -38.25,-23.25 -140.25,-126.25 -17,-18.75 -16,-28.75 -78,-157.5"
       id="path892" />
    <path
       id="path1190"
       d="m 4650,1745 -14,65 -1.5,21 4,26.5 48.5,169.5 13.5,29.5 19,23 27,20 41.5,32.5 19.5,24 15,24 219.5,431.5 21.5,36 15.5,16.5 17.5,12 28.5,10 20.5,12.5 19,17.5 12,21 14.5,34 11,21 8,11.5 95,110 30.5,31.5 16.5,12.5 20,12.5 308.5,145.5 18,13.5 10.5,11.5 68.5,76.5 23,23.5 35,35.5 20,20.5 20,28 15,33 42,93 11,17.5 13.5,12.5 23,11 18,11.5 9,13 9,19 2.5,15 -2,14.5 -11.5,50 -1,23.5 5,23 22.5,54 9.5,29 6,21.5 45,165.5 12,26 8.5,16.5 19.5,21 48.5,36 15.5,17.5 11,17.5 39,82 5,10 12,11.5 17,14 191,119.5 203,145.5 33.5,27 20,23.5 21.5,31.5 31,56 62,109.5 12,27.5"
       style="opacity:1;fill:none;fill-rule:nonzero;stroke:#cccccc;stroke-width:8;stroke-linecap:butt;stroke-linejoin:round;stroke-miterlimit:4;stroke-dasharray:none;stroke-opacity:1" />
    <path
       id="path831"
       d="m 6458.78,4294.85 -11.48,-17.02 -3.39,-9.19 3.01,-18.68 4.82,-17.47 -1.51,-12.35 -5.42,-12.65 -14.16,-14.16 -31.03,-25 -10.54,-11.15 -25,-32.23 -9.94,-8.13 -13.25,-3.61 -22.59,-2.11 -13.25,-8.74 -10.84,-13.86 -3.61,-16.27 0.3,-13.56 3.61,-18.98 -3.61,-16.27 -8.13,-12.95 -18.98,-23.5 -4.82,-16.27 -1.21,-15.97 3.61,-18.98 7.83,-12.05 24.1,-31.33 7.53,-20.48 1.21,-31.33 -10.54,-27.41 -1.21,-13.86 -3.61,-24.7 6.02,-18.07 8.13,-12.65 11.15,-10.84 48.2,-15.66 32.23,-10.54 28.92,-12.35 35.55,-17.17 18.07,-15.06 18.38,-20.18 11.15,-21.99 6.63,-32.23 2.71,-16.57 12.35,-18.38 7.23,-13.56 2.71,-18.68 -9.94,-28.92"
       style="opacity:1;fill:none;fill-rule:nonzero;stroke:#cccccc;stroke-width:8;stroke-linecap:butt;stroke-linejoin:round;stroke-miterlimit:4;stroke-dasharray:none;stroke-opacity:1" />
  </g>
  <image
     xlink:href="../basemap/cphosm.png"
     y="-5214.15"
     x="-2575"
     id="image10"
     preserveAspectRatio="none"
     height="9514.15"
     width="12368.4"
     style="display:none" />
  <path
     style="fill:none;stroke:#30a659;stroke-width:5;stroke-linejoin:round;stroke-dasharray:none;stroke-opacity:1"
     d="m 2462.32,1476.79 8.23,4.83 4.29,-0.54 7.87,-9.3 h 4.47 l 26.48,17.36 4.65,0.36 8.95,-5.01 29.88,-20.58 41.69,-28.45 11.27,-9.48 15.57,-8.05 7.69,-6.44 5.01,-8.23 4.47,-12.7 5.37,-6.26 4.29,-14.14 8.23,-15.03 26.12,-34 12.53,-23.08 104.85,-130.26 12.53,-25.05 6.98,-20.76 2.68,-25.77 -0.18,-28.45 -1.79,-13.24 0.89,-17.18 1.43,-50.1 -2.68,-21.29 -6.26,-19.15 -8.23,-16.64 -38.11,-74.08 -9.84,-19.5 -6.8,-13.42 -14.85,-32.74 -7.69,-19.68 -0.72,-20.93 -3.6,-20.53 2.78,-2.99 12.27,0.63 40.87,-8.48"
     id="path3" />
  <path
     style="fill:none;stroke:#30a659;stroke-width:5;stroke-linejoin:round;stroke-dasharray:none;stroke-opacity:1"
     d="m 2730.79,726.27 -3.8,-3.67 -1.77,-12.02 -6.71,-17.46 -1.77,-14.42 0.51,-13.92 3.8,-15.19 6.8,-16.82 10.74,-11.45 11.27,-17.18 9.3,-16.82 11.63,-31.31 9.13,-34.35 3.04,-27.73 0.89,-25.23 1.97,-19.5 6.08,-31.13 6.98,-17.36 11.81,-15.21 13.6,-24.33 34,-50.28 11.81,-16.64 37.22,-55.11 11.99,-20.04 22.01,-29.52 15.39,-17.89 27.02,-23.26 12.7,-15.21 25.41,-26.48 13.78,-17.89 23.08,-35.25"
     id="path4" />
</svg>
