<?xml version="1.0" encoding="UTF-8" standalone="no"?>
<svg
   viewBox="0 0 550 1200"
   height="1200"
   width="550"
   id="svg2"
   version="1.1"
   xmlns:xlink="http://www.w3.org/1999/xlink"
   xmlns="http://www.w3.org/2000/svg"
   xmlns:svg="http://www.w3.org/2000/svg"
   xmlns:rdf="http://www.w3.org/1999/02/22-rdf-syntax-ns#"
   xmlns:cc="http://creativecommons.org/ns#"
   xmlns:dc="http://purl.org/dc/elements/1.1/">
  <metadata
     id="metadata8">
    <rdf:RDF>
      <cc:Work
         rdf:about="">
        <dc:format>image/svg+xml</dc:format>
        <dc:type
           rdf:resource="http://purl.org/dc/dcmitype/StillImage" />
      </cc:Work>
    </rdf:RDF>
  </metadata>
  <defs
     id="defs6" />
  <image
     xlink:href="basemap/czwosm.png"
     width="853"
     height="1279.5"
     preserveAspectRatio="none"
     id="image12"
     x="-140"
     y="-60"
     style="display:none" />
  <path
     id="path857"
     d="m 482.24,1041.08 -8.88,4.4 -2.56,4.82 1.8,27.12 -3.03,5.29 -14.33,13.22 -5.98,3.54 -24.68,8.12 -17.57,11.75 -13.64,9.88 -2.5,3.92 -4.96,2.1 -56.59,1.49 -11.39,-6.33 -39.66,-36.52 -14.44,-2.74 -2.37,-4.09 3.98,-47.74 0.77,-5.93 -20.09,-12.53 -14.28,-27.47 -20.46,-19.24 -15.38,-43.3 3.83,-9.44 35.11,13.84 14.32,3.45 13.89,-1.21 53.12,-21.15 1.31,-5.96 -6.74,-4.96 -41.35,-40.68 -94.21,-95.8 -25.85,-45.48 -54.96,-65.43 -3.71,-7.63 -1.09,-11.12 1.53,-36.42 3.71,-12.87 -0.87,-8.07 -2.4,-12.65 2.84,-87.68 1.74,-82.44 -0.65,-35.99 -2.62,-14.39 -8.72,-52.34 -1.09,-10.25 -14.18,-81.57 0.65,-10.25 12,-53.65 4.58,-6.11 16.79,-9.38 9.16,-2.18 5.67,-3.49 6.98,-9.6 78.52,-51.04"
     style="fill:none;stroke:#dc2b18;stroke-width:5;stroke-linejoin:round" />
  <path
     style="fill:none;stroke:#dc2b18;stroke-width:5;stroke-linejoin:round;stroke-opacity:1"
     d="m 317.59,910.37 7.28,-1.14 19.35,-7.68 47.01,-24.85"
     id="path858" />
</svg>
