<?xml version="1.0" encoding="UTF-8" standalone="no"?>
<svg
   version="1.1"
   id="svg2"
   width="2400"
   height="1425"
   viewBox="0 0 2400 1425"
   xmlns:xlink="http://www.w3.org/1999/xlink"
   xmlns="http://www.w3.org/2000/svg"
   xmlns:svg="http://www.w3.org/2000/svg"
   xmlns:rdf="http://www.w3.org/1999/02/22-rdf-syntax-ns#"
   xmlns:cc="http://creativecommons.org/ns#"
   xmlns:dc="http://purl.org/dc/elements/1.1/">
  <metadata
     id="metadata8">
    <rdf:RDF>
      <cc:Work
         rdf:about="">
        <dc:format>image/svg+xml</dc:format>
        <dc:type
           rdf:resource="http://purl.org/dc/dcmitype/StillImage" />
      </cc:Work>
    </rdf:RDF>
  </metadata>
  <defs
     id="defs6" />
  <g
     id="rt"
     style="opacity:0.25">
    <path
       id="path836"
       d="m 2542.73,305.61 -13.23,1.59 -16.4,-1.59 -13.23,-1.59 -418.98,-204.73 -11.64,-3.7 -17.74,2.44 -45.5,1 -16,-5 -21.5,-14.5 -26.5,-24 -16,-4.5 -39.69,7.34 -175.31,66.16 -94.24,39.21 -86.12,33.13 -11.6,10.67 -14.36,36.48 -12.18,21.8 -8.56,5.96 -79.01,0.26 -20.37,2.03 -118.99,35.09 -19.28,6.57 -12.95,0.24 -100.66,-54.63 -18.5,-5.18 -103.38,13.58 -7.79,6.77 -5.25,9.5 -1.5,63.5 -13.25,25 -7.5,9.5 -11.5,3.5 -14.61,-6.18 -39.16,-32.76 -20.5,-21.19 -25.18,-21.54 -256.33,-133.11 -11.23,-11.1 -66.44,-33.56 -28.9,-20.04 -33.53,-4.8 -67.42,-22.36 -31.02,-5.33 -8.81,-4.66 -13.52,-23.26 -5.39,-12.04 -1.65,-11.9 0.54,-12.21 77.25,-208.28 25.88,-134 16.92,-29.19 11.21,-43.76 0.18,-23.92 -8.45,-22.77 -15.54,-14.3 -29.93,-8.64 -69.11,-17.31 -187.49,-43.74 -33.3,-17.79 -10.04,-9.76 -2.45,-13.06 6.92,-38.06 2.92,-16.9 14.61,-73.82 19.33,-56.09 7.08,-27.5 6.81,-53.64 0.82,-23.96 0.54,-45.47 3,-13.34 10.35,-17.43 4.08,-13.34 3.54,-23.69 16.88,-53.1 10.62,-69.17 5.17,-13.34 8.71,-11.44 32.4,-19.61 24.51,-19.88 6.26,-8.99 17.97,-38.94 28.05,-39.76 15.79,-17.16 13.62,-8.17 60.45,-13.89 125.53,-1.63 202.05,-1.09 17.16,-3.81 148.68,-61.27 9.53,-0.54 8.71,2.18 28.59,15.79 10.62,2.18 54.46,0.27 68.89,13.89 15.52,9.26 40.85,37.03 10.35,4.36 11.71,1.36 13.93,-3.3 45.39,-21.88"
       style="fill:none;fill-rule:nonzero;stroke:#cccccc;stroke-width:8;stroke-linecap:butt;stroke-linejoin:round;stroke-miterlimit:4;stroke-dasharray:none;stroke-opacity:1" />
    <path
       id="path838"
       d="m 1374.96,-1429.97 -2.18,66.16 -6.5,16.22 -11.78,11.59 -47.5,22 -38.5,10.5 -57.04,27.98 -9.76,14.28 -14.05,12.27 -64.3,31.88 -48.23,22.55 -32.92,20.28 -60.43,43.12 -8.99,21.89 -1.21,17.91 12.41,45.96 -2,136.88 -5,19.5 -40.5,117.5 -28,69 -35,144 -3,27.5 10.5,39 4.86,56 19.54,40.72 11.18,37.18 -1.68,9.23 -25.95,37.22 -0.46,23.22 -14.5,37.41 -14.95,33.95 -13.23,38.31 1.18,11.83 10.31,12.73 187.19,181.68 9.5,18 4.5,20.5 0.5,19 -5,17.5 -61,152.5 -1.5,138.5 -4,9.5 -14.49,14.11 -8.5,14.11 -2.5,26.27 v 42.5 l -0.05,17.86 12.13,32.23 -1.14,55.74 -3.41,36.78 -4.17,48.16 -6.12,9.02 -95.51,44.07 -28.44,1.9 -67.5,22.37 -7.96,6.07 -16.69,28.06 -58.02,31.47 -23.89,9.86 -30.52,26.36 -15.02,13.41 -9.12,3.75 -33.79,-8.85 -46.39,-22.79 h -19.04 l -29.23,10.99 -34.32,8.85 -8.58,9.12 -42.37,58.45 -137.56,230.33 -10.46,9.92 -32.98,14.21 -9.12,10.46 -27.62,46.12 -13.68,32.45 -10.46,25.21 -43.44,33.52"
       style="fill:none;fill-rule:nonzero;stroke:#cccccc;stroke-width:8;stroke-linecap:butt;stroke-linejoin:round;stroke-miterlimit:4;stroke-dasharray:none;stroke-opacity:1" />
    <path
       id="path840"
       d="m 1510.5,123.5 -25,-29 -13,-7 -13.5,-3.5 -31.5,1 -12,-4.5 -34,-17.5 -20.5,-4 -130,1 -10,-1 -11,-5 -6.5,-4 -32,-34 -4.5,-7 -2,-17 -4,-244 3.5,-26.5 v -57 l -6,-26 -2,-174.5 9,-48.5 4.5,-39.5 6.5,-116.5 -2,-47.5 4,-65.5 7.5,-24 20.5,-19.5 24,-12 61,-30 13,-12.5 9.5,-12.5 7.5,-16.5 80,-349 13.5,-20.5 17.5,-13 72,-33 33.5,-5.5 21,2 83,21 h 18.5 l 22.5,-3.5 26.5,-7 40,-15 30.5,-6 29,2 33,4.5 27,-6.5 30,-9.5 183,-94.5 24.5,-11 80.5,-20 43.5,-16.5 105,-23 29,-3 47.5,-19.5 17.5,-2 103.5,19 31.5,-5.5 23,-7.5 48,-31.5 17,-12.5 128,-146.5 18.5,-14.5 17.5,-5.5 220.5,-0.5 16,-4 34.5,-20.5 21,-6.5 34,-0.5 57.5,-14.5 42,-37.5 136.5,-82 24.5,-9 502,2.5 36.5,-2.5 106.5,-27 28.5,-0.5 255.5,2 27,-4 23,-12 367.5,-229 24.5,-9 33.5,0.5 88,33 26,4 122,5.5 46,10.5 h 18 l 23.5,-5.5 73.5,-39 30.5,-9.5 95,-9.5 31.5,11.5 115,35 25.5,1.5 37.5,-11 92,-30 88.5,-2 21,-6 82.5,-46.5 118.5,-46.5 31,-8 29.5,-12.5"
       style="fill:none;fill-rule:nonzero;stroke:#cccccc;stroke-width:8;stroke-linecap:butt;stroke-linejoin:round;stroke-miterlimit:4;stroke-dasharray:none;stroke-opacity:1" />
    <path
       style="fill:none;fill-rule:nonzero;stroke:#cccccc;stroke-width:8;stroke-linecap:butt;stroke-linejoin:round;stroke-miterlimit:4;stroke-dasharray:none;stroke-opacity:1"
       d="m 114.96,1333.54 -27.76,20.95 -23.06,7.78 -31.37,-10.19 -40.19,-39.72 -22.02,-32.68 -50.56,-32.68 -91,-44 -30,-4.5 -58.5,-0.5 -48,-21.5 -80.5,-9 -80.66,-21.25 -45.12,-21.64 -32.72,-6.26 -35.5,5.15 -123.5,49 -12.5,10 -20,26.5 -85.5,142.5 -65,57.5 -61.03,43.9 -56.06,31.1 -42.91,16 -102,44.5 -23.5,-2.5 -20,-13 -13,-18.5 -3.5,-14 -1.5,-60 -14,-33.5 -17,-22 -17,-6 -34,3.5 -17,-7 -41.5,-17.5 -58,-14 -52.5,-6.5 -92.9,16.64 -63.98,25.36 -25.62,9.5 -57.5,2 -32,-5 -18,3.5 -23,12 -20.5,16 -15.52,18.82 -9.98,61.68 -14.5,29.5 -1,18.5 2.5,33 -1,23.5 -3.5,12.5 -16.5,12.5 -64,28.5 -58,-3.5 -30,-10.5 -45,-11 -45.5,-22.46 -24,-0.54 -129.5,-8 -29,-4.5 -21.5,-16 -123.5,-124 -24,-11.5 -92,-15 -16,-6.5 -20.5,-17 -96,-99.5 -28.5,-19 -28,-8.5 -28,-2 -75,9.5 -17,10.5 -26.5,18.5 -29,11 -69.5,1 -11.5,4 -76.5,36 -17,19.5 -20.5,27 -21,11 -86,23.5 -41.5,4 -20.5,10.5 -107,79.5 -47,56 -37.5,22.5 -15,14.5 -11.5,22 -21,80 -16.5,26.5 -15.5,15.5 -37.5,20 -16,12 -17.5,20 -34.5,93.5 -25,41 -18,27 -18.5,16.5 -21.5,12 -26.5,5.5 -59,-2.5 -30.5,-13.5 -118.5,-56.5 -25,-3.5 -59,2 -30,-6 -69.5,-23.5 -33.5,-7 -76.5,-8.5 -44.5,2"
       id="path841" />
  </g>
  <image
     xlink:href="../timelines/basemap/dlcosm.png"
     y="-8065.42"
     x="-4612.58"
     id="image10"
     preserveAspectRatio="none"
     height="10240.42"
     width="10765.58"
     style="display:none" />
  <path
     style="opacity:1;fill:none;fill-rule:nonzero;stroke:#4ca9ec;stroke-width:5;stroke-linecap:butt;stroke-linejoin:round;stroke-miterlimit:4;stroke-dasharray:none;stroke-opacity:1"
     d="m 66.11,1346.16 9.26,6.35 11.83,1.98 12.24,-2.24 28.04,-19.31 23.54,-21.35 16.4,-34.46 10.84,-25.66 24.5,-43.65 12.26,-10.31 33.06,-17.72 10.84,-14.02 132.52,-215.84 47.35,-65.86 15.08,-10.05 15.87,-4.23 19.04,-4.76 21.43,-8.73 12.43,2.12 9.26,3.44 14.55,9.26 7.14,3.97 17.46,-1.85 26.98,10.32 11.64,1.32 9.79,-6.35 36.5,-34.39 11.37,-6.08 39.68,-16.93 34.92,-22.75 15.08,-22.75 10.05,-10.58 19.84,-6.61 54.75,-16.93 20.63,-0.26 93.37,-43.64 4.23,-5.03 2.12,-12.43 4.5,-75.91 -0.79,-57.4 -2.38,-71.68 -0.53,-29.36 4.7,-14.27 10.64,-18 11.64,-16.4 3.17,-11.64 1.59,-126.7 1.85,-9.79 15.05,-36.98"
     id="path829" />
  <path
     style="opacity:1;fill:none;fill-rule:nonzero;stroke:#4ca9ec;stroke-width:5;stroke-linecap:butt;stroke-linejoin:round;stroke-miterlimit:4;stroke-dasharray:none;stroke-opacity:1"
     d="m 1024.59,202.95 22.59,8.99 251.55,-32.01 23.01,-0.53 19.57,-8.46 29.62,-7.94 17.46,6.08 15.87,2.91 14.55,-3.17 39.41,7.94 44.44,1.06 67.19,-27.24 27.24,-55.02 23.28,-24.86 89.14,-1.85 9.79,7.14 32.53,79.62 74.86,17.99 69.83,-8.46 100.78,17.46 11.9,-0.53 19.04,-2.65 13.23,1.32 16.14,8.46 9.52,9.79 6.08,12.7 65.86,44.44 10.84,3.44 89.67,-0.79 13.75,3.17 12.96,5.82 10.58,8.73 5.82,2.91 35.18,3.97 11.9,-0.79 13.23,-6.61"
     id="path825" />
</svg>
