<?xml version="1.0" encoding="UTF-8" standalone="no"?>
<svg
   viewBox="0 0 1125 875"
   height="875"
   width="1125"
   id="svg2"
   version="1.1"
   xmlns:xlink="http://www.w3.org/1999/xlink"
   xmlns="http://www.w3.org/2000/svg"
   xmlns:svg="http://www.w3.org/2000/svg"
   xmlns:rdf="http://www.w3.org/1999/02/22-rdf-syntax-ns#"
   xmlns:cc="http://creativecommons.org/ns#"
   xmlns:dc="http://purl.org/dc/elements/1.1/">
  <metadata
     id="metadata8">
    <rdf:RDF>
      <cc:Work
         rdf:about="">
        <dc:format>image/svg+xml</dc:format>
        <dc:type
           rdf:resource="http://purl.org/dc/dcmitype/StillImage" />
      </cc:Work>
    </rdf:RDF>
  </metadata>
  <defs
     id="defs6" />
  <image
     xlink:href="basemap/flrosm.png"
     width="1461.6"
     height="1218"
     preserveAspectRatio="none"
     id="image10"
     x="-65"
     y="-178"
     style="display:none" />
  <path
     id="path842"
     d="m 380.59,60 24.41,22.03 15.59,12.71 6.1,8.47 29.32,14.41 7.46,5.25 2.2,5.76 0.85,5.25 3.56,3.9 11.19,8.64"
     style="opacity:1;fill:none;fill-rule:nonzero;stroke:#60449c;stroke-width:1;stroke-linecap:butt;stroke-linejoin:round;stroke-miterlimit:4;stroke-dasharray:none;stroke-opacity:1" />
  <path
     id="path844"
     d="m 481.27,146.44 44.75,28.81 34.92,26.44 25.25,10.68 73.9,47.29 11.02,5.76 13.9,5.25 17.29,3.73 4.41,0.34 8.31,-2.54 107.12,55.59 13.73,47.12 -6.44,14.75 1.53,4.58 9.32,5.42 6.61,9.83 14.07,50.85 20,27.46 26.1,-0.68 2.69,-2.15 0.9,-3.94 -15.08,-62.28 5.92,-2.62 13.9,-10.19 16.93,-2.2 11.7,-18.58 86.85,-26.98 4.13,-8.95 4.4,-0.69 12.66,6.19 0.28,2.62 -51.61,89.47 0.69,3.44 5.09,2.89 1.93,0.07 3.3,-1.79 43.7,-76.8 -1.1,-3.72 -4.82,-2.89 -0.55,-5.3"
     style="opacity:1;fill:none;fill-rule:nonzero;stroke:#60449c;stroke-width:5;stroke-linecap:butt;stroke-linejoin:round;stroke-miterlimit:4;stroke-dasharray:none;stroke-opacity:1" />
  <path
     id="path846"
     d="m 875,58.98 -9.66,-2.71 -3.39,2.88 -8.14,29.15 -11.36,26.44 -10.17,17.63 -7.97,11.86 -14.92,17.46 -7.63,6.61 13.56,36.44 52.71,16.95 38.81,75.76 28.98,84.75 0.59,5.87 -6.84,11.17 -15.9,2.05 -6.63,4.99 -7.94,5.36 -8.97,4.43 15.68,66.28 -22.54,0.51 -16.95,-23.56 -38.47,-24.41 -45.93,21.69 -14.75,9.83 -6.27,10.68 -3.05,0.51 -2.71,-2.03 v -7.29 l -1.86,-4.41 -5.08,-4.58 -5.93,0.68 -4.41,1.53 -4.07,5.25 -5.42,0.68 -31.86,-13.73 -13.05,13.73 -11.36,21.02 -5.08,4.58 -81.19,14.24"
     style="opacity:1;fill:none;fill-rule:nonzero;stroke:#5696ce;stroke-width:5;stroke-linecap:butt;stroke-linejoin:round;stroke-miterlimit:4;stroke-dasharray:none;stroke-opacity:1" />
  <path
     id="path848"
     d="m 585.85,507.29 -83.22,13.56 -3.05,1.36 -2.71,3.22 -15.25,32.37"
     style="opacity:1;fill:none;fill-rule:nonzero;stroke:#5696ce;stroke-width:1;stroke-linecap:butt;stroke-linejoin:round;stroke-miterlimit:4;stroke-dasharray:none;stroke-opacity:1" />
  <path
     id="path850"
     d="m 481.61,557.8 -20.17,45.08 -8.47,12.37 -11.69,13.73 -10,8.64 -8.47,6.1 -18.64,5.25 -53.05,5.93 -14.07,2.54 -33.9,12.37 -15.25,5.42 -55.08,12.37 -12.88,3.56 -14.41,7.12 -11.53,9.49 -76.1,101.69 -4.41,4.07 -15.08,5.76 -4.92,-1.36 -29.49,-23.22"
     style="opacity:1;fill:none;fill-rule:nonzero;stroke:#5696ce;stroke-width:5;stroke-linecap:butt;stroke-linejoin:round;stroke-miterlimit:4;stroke-dasharray:none;stroke-opacity:1" />
  <path
     id="path852"
     d="m 806.69,163.9 37.97,35.59 5.08,2.2 6.95,1.53 3.73,4.75 7.63,13.73"
     style="opacity:1;fill:none;fill-rule:nonzero;stroke:#5696ce;stroke-width:5;stroke-linecap:butt;stroke-linejoin:round;stroke-miterlimit:4;stroke-dasharray:none;stroke-opacity:1" />
</svg>
