<?xml version="1.0" encoding="UTF-8" standalone="no"?>
<svg
   viewBox="0 0 1675 1375"
   height="1375"
   width="1675"
   id="svg2"
   version="1.1"
   xmlns:xlink="http://www.w3.org/1999/xlink"
   xmlns="http://www.w3.org/2000/svg"
   xmlns:svg="http://www.w3.org/2000/svg"
   xmlns:rdf="http://www.w3.org/1999/02/22-rdf-syntax-ns#"
   xmlns:cc="http://creativecommons.org/ns#"
   xmlns:dc="http://purl.org/dc/elements/1.1/">
  <metadata
     id="metadata8">
    <rdf:RDF>
      <cc:Work
         rdf:about="">
        <dc:format>image/svg+xml</dc:format>
        <dc:type
           rdf:resource="http://purl.org/dc/dcmitype/StillImage" />
      </cc:Work>
    </rdf:RDF>
  </metadata>
  <defs
     id="defs6" />
  <image
     xlink:href="../timelines/basemap/fnjosm.png"
     width="2359.29"
     height="2097.14"
     preserveAspectRatio="none"
     id="image10"
     x="-99.29"
     y="-572.14"
     style="display:none" />
  <g
     id="rt"
     style="opacity:0.25">
    <path
       id="path4506"
       d="m 1291.95,-121.46 -37.11,129.03 -3.23,23.81 12.5,229.12 3.8,30.5 23.8,76.6 3.62,22.24 -3.43,24.89 -45.43,129.1 -18.74,89.65 -11.82,24.76 -116.94,98.13 -13.27,5.6 -30.99,-2.72 -70.01,-7.41 -10.61,1.93 -53.14,29.76 -13.45,2.6 -86.32,-16.77"
       style="fill:none;fill-rule:evenodd;stroke:#cccccc;stroke-width:8;stroke-linecap:butt;stroke-linejoin:round;stroke-miterlimit:4;stroke-dasharray:none;stroke-opacity:1" />
    <path
       id="path4508"
       d="m 620.92,338.81 32.11,13.02 241.34,118.05 15.15,0.35 12.2,-5.61 91.18,-82.74 4.71,-10.77 13.76,-70.8 49.9,-116.07 29.53,-50.62 75.69,-86.06 27.12,-21.15 83.69,-22.58 136.7,-70.77 199.02,-73.57 216.93,-42.32 162.58,-16.39"
       style="fill:none;fill-rule:evenodd;stroke:#cccccc;stroke-width:8;stroke-linecap:butt;stroke-linejoin:round;stroke-miterlimit:4;stroke-dasharray:none;stroke-opacity:1" />
  </g>
  <path
     style="opacity:1;fill:none;fill-rule:nonzero;stroke:#800080;stroke-width:5;stroke-linecap:butt;stroke-linejoin:round;stroke-miterlimit:4;stroke-dasharray:none;stroke-opacity:1"
     d="m 1607.57,331.37 -63.67,-12.64 -135.3,602.05 -94.1,272.94 -9.83,19.19 -12.64,14.98 -16.85,13.11 h -14.98 l -25.75,7.49 -16.85,0.47 -522.93,-14.51 -0.47,14.51 527.15,14.98 23.41,-3.75 15.45,-5.62 15.45,-14.04"
     id="path819" />
  <path
     style="opacity:1;fill:none;fill-rule:nonzero;stroke:#800080;stroke-width:5;stroke-linecap:butt;stroke-linejoin:round;stroke-miterlimit:4;stroke-dasharray:none;stroke-opacity:1"
     d="m 719.94,1299.53 5.62,-12.64 61.33,-34.64"
     id="path821" />
  <path
     style="opacity:1;fill:none;fill-rule:nonzero;stroke:#800080;stroke-width:5;stroke-linecap:butt;stroke-linejoin:round;stroke-miterlimit:4;stroke-dasharray:none;stroke-opacity:1"
     d="m 815.91,1252.24 17.32,14.04 h 8.9 l 7.02,-0.94 1.87,-3.75 55.24,-439.6 -96.91,-17.79 20.6,-107.21 -6.09,-53.84 v -15.45 l 4.68,-6.09 6.55,-8.43 113.76,-31.83 -23.88,-88.01 -1.87,-155.9 5.62,-12.64 L 1057.01,206.38 952.61,92.15 939.04,74.82"
     id="path823" />
  <path
     style="opacity:1;fill:none;fill-rule:nonzero;stroke:#800080;stroke-width:5;stroke-linecap:butt;stroke-linejoin:round;stroke-miterlimit:4;stroke-dasharray:none;stroke-opacity:1"
     d="M 924.99,493.36 682.55,381.77 l -36.08,-7.94 -30.79,-3.97 -37.08,0.99 -24.17,10.26 -18.21,2.98 -433.36,269.23 -8.57,11.82 -5.96,15.89 -27.48,85.41"
     id="path858" />
  <path
     style="opacity:1;fill:none;fill-rule:nonzero;stroke:#800080;stroke-width:5;stroke-linecap:butt;stroke-linejoin:round;stroke-miterlimit:4;stroke-dasharray:none;stroke-opacity:1"
     d="M 89,677.38 103.56,665.47 541.19,393.02 554.44,381.1"
     id="path860" />
  <path
     style="opacity:1;fill:none;fill-rule:nonzero;stroke:#800080;stroke-width:5;stroke-linecap:butt;stroke-linejoin:round;stroke-miterlimit:4;stroke-dasharray:none;stroke-opacity:1"
     d="m 948.87,581.37 29.96,109.25 9.93,18.87 61.24,98.65 11.26,10.26"
     id="path862" />
</svg>
