<?xml version="1.0" encoding="UTF-8" standalone="no"?>
<svg
   viewBox="0 0 2475 2400"
   height="2400"
   width="2475"
   id="svg2"
   version="1.1"
   xmlns:xlink="http://www.w3.org/1999/xlink"
   xmlns="http://www.w3.org/2000/svg"
   xmlns:svg="http://www.w3.org/2000/svg"
   xmlns:rdf="http://www.w3.org/1999/02/22-rdf-syntax-ns#"
   xmlns:cc="http://creativecommons.org/ns#"
   xmlns:dc="http://purl.org/dc/elements/1.1/">
  <metadata
     id="metadata8">
    <rdf:RDF>
      <cc:Work
         rdf:about="">
        <dc:format>image/svg+xml</dc:format>
        <dc:type
           rdf:resource="http://purl.org/dc/dcmitype/StillImage" />
      </cc:Work>
    </rdf:RDF>
  </metadata>
  <defs
     id="defs6" />
  <image
     xlink:href="../timelines/basemap/gojosm.png"
     style="display:none"
     width="2806.88"
     height="2619.75"
     preserveAspectRatio="none"
     id="image10"
     x="-128.5"
     y="-113.38" />
  <path
     id="path817"
     d="m 803.05,1774.45 44.54,6.71 8.85,-1.83 13.42,-5.8 45.76,-38.44 100.98,-73.22 164.14,-115.02 12.51,-12.51 13.42,-16.48 88.17,-131.19 11.9,-25.02 105.56,-257.49 92.44,-222.41 0.61,-9.76 -3.05,-14.03 -23.49,-78.41 0.31,-8.85 12.81,-69.56 0.31,-10.98 -6.71,-18 -0.61,-15.86 2.75,-24.1 3.66,-11.29 4.27,-6.41 17.69,-9.46 66.81,-41.8 24.71,-9.76 28.37,-9.15 9.46,-0.3 14.03,6.1 206.24,138.81 14.34,5.8 17.39,3.66 18.61,-1.83 20.75,-6.1 46.37,-17.09"
     style="fill:none;fill-rule:nonzero;stroke:#f2f2f2;stroke-width:8;stroke-linecap:butt;stroke-linejoin:round;stroke-miterlimit:4;stroke-dasharray:none;stroke-opacity:1" />
  <path
     id="path819"
     d="m 1118.81,371.36 172.98,137.9 36.61,23.49 74.14,42.71 32.34,14.34 39.05,13.42 18.92,1.83 14.65,-2.08 69.9,-43.17 26.1,-11.87 46.81,-15.1 11,-5.61 10.57,-9.49 59.76,-81.55 3.67,-11.22 1.29,-11 -2.59,-11.43 -6.47,-14.88 -7.55,-6.9 -54.58,-40.99 -8.84,-3.02 h -14.67 l -61.48,14.02"
     style="fill:none;fill-rule:nonzero;stroke:#f2f2f2;stroke-width:8;stroke-linecap:butt;stroke-linejoin:round;stroke-miterlimit:4;stroke-dasharray:none;stroke-opacity:1" />
  <path
     style="fill:none;stroke:#f2f2f2;stroke-width:8;stroke-linejoin:round;stroke-dasharray:none"
     d="m 2543.42,53.73 -186.69,468.45"
     id="path1" />
  <path
     style="fill:none;stroke:#340d71;stroke-width:5;stroke-linejoin:round;stroke-miterlimit:4;stroke-dasharray:none;stroke-opacity:1"
     d="m 1017.69,294.84 -11.86,10.01 -10.76,4.15 -43.48,22.66 -9.92,40.14 -2.76,2.36 -4.24,0.67 -33.97,-5.02 -8.36,-0.53 -4.33,1.54 -52.26,32.38 -58.54,28.64 -3.82,-1.67 -32.08,-67.66 -7.4,-12.29 -5.69,-4.97 -5.56,-1.7 -18.02,-1.03 -7.46,-2.51 -8.82,-5.32 -8.41,-9.04 -55.81,-113.3 0.27,-5.98 18.13,-39.74 2.45,-5.72 23.39,-10.08 16.16,-13.48 6.24,-9.32 15.99,-15.22 50.51,-27.34 37.09,-2.72 58.32,-18.85 3.36,1.06 4.95,9.78 3.65,10.8 5.1,19.67 6.34,6.16 1.67,22.11 2.17,4.31 1.87,1.53 12.49,0.23 6.43,4.08 11.36,17.35 27.9,42.16 76.76,91.11 32.6,35.31 122.44,86.56 h 4.78 l 10.89,-14.57 4.02,-4.59 30.38,-18.52 28.21,-13.54 38.83,-12.96 29.07,-2.84 6.56,-0.14 53.89,17.01 32.75,17.13 42.33,51.59 11.8,8.79 10.41,6.71 7.63,3.24 8.33,1.39 76.11,62.23 -0.46,4.4 -7.87,2.31 -8.79,-1.62 -4.16,-5.09 0.23,-2.31 3.93,-5.32 0.23,-6.48"
     id="path947" />
  <path
     style="fill:none;stroke:#340d71;stroke-width:5;stroke-linejoin:round;stroke-miterlimit:4;stroke-dasharray:none;stroke-opacity:1"
     d="m 1554.57,595.2 8.83,1.36 2.84,-2.39 0.61,-4.32 -1.83,-5.08 -7.81,-1.18 -2.64,11.62 -58.76,75.76 -20.3,13.93 0.16,6 13.26,18.78 -9.85,55.01 -0.27,14.89 28.24,89.74 3.04,4.24 37.41,16.03 3.26,4.32 -0.15,7.96 2.27,5.35 -4.95,7.36 -6.3,18.64 -6.63,14.93 0.07,13.1 -5.34,20.64 3.28,12.14 -0.19,3.45 -16.46,58.71 -1.11,7.64 -5.72,78.71 -47.03,113.22 -0.86,8.53 0.03,16.89 -2.95,11.99 -5.02,14.14 -72.56,89.07 -28.74,30.01"
     id="path967" />
  <path
     style="fill:none;stroke:#340d71;stroke-width:5;stroke-linejoin:round;stroke-miterlimit:4;stroke-dasharray:none;stroke-opacity:1"
     d="m 1550.28,897.72 -5.51,3.65 -1.57,4.47 0.83,4.75 3.9,3.97"
     id="path969" />
  <path
     style="fill:none;stroke:#340d71;stroke-width:5;stroke-linejoin:round;stroke-miterlimit:4;stroke-dasharray:none;stroke-opacity:1"
     d="m 1552.88,907.21 215.96,-0.18 11.01,4.76 8.74,0.24 6.13,-3.59 3.38,-7.12 -1.28,-7.4 -5.55,-6.31 -14.99,-7.31 -4.24,-5.59 -0.32,-7.49 1.83,-19.37 8.26,-12.31 7.49,-6.72 7.09,-0.95 12.79,4.34 8.22,-0.93 7.88,-3.57 27.98,-20.71 1.45,-3.55 -0.92,-3.22 -6.41,-10.64 -1.85,-7.46 1.78,-10.71 4.9,-20.65 13.73,3.34 8.2,3.66 h 4.12 l 38.14,8.17 96.1,-35.48 67,-40.2 50.44,-30.73"
     id="path971" />
  <path
     style="fill:none;stroke:#340d71;stroke-width:5;stroke-linejoin:round;stroke-miterlimit:4;stroke-dasharray:none;stroke-opacity:1"
     d="m 1887.81,645.85 18.21,5.2 2.67,3.78 -30.43,102.93"
     id="path975" />
  <path
     style="fill:none;stroke:#340d71;stroke-width:5;stroke-linejoin:round;stroke-miterlimit:4;stroke-dasharray:none;stroke-opacity:1"
     d="m 1985.45,1027.69 -2.24,-10.78 -12.29,-51.18 -4.96,-8.36 -7.79,-6.47 -1.89,-4.44 -10.7,-86.98 -17,-22.02 6.4,-39.84 -1.79,-2.3 -17.75,-3.58 -3.63,20.8 1.19,1.94 17.96,3.79"
     id="path981" />
  <path
     style="fill:none;stroke:#340d71;stroke-width:5;stroke-linejoin:round;stroke-miterlimit:4;stroke-dasharray:none;stroke-opacity:1"
     d="m 1985.44,1027.69 -0.65,11.71 -24.74,147.06 -24.11,32.6 -9.29,55.34 -3.16,3.63 -16.39,4.29 -72.52,-11.05 -9.5,22.68 -9.4,82.41 -18.56,109.49 -19.3,62.7 3.58,10.17"
     id="path985" />
  <path
     style="fill:none;stroke:#340d71;stroke-width:5;stroke-linejoin:round;stroke-miterlimit:4;stroke-dasharray:none;stroke-opacity:1"
     d="m 1145.28,1176 133.91,191.41 6.81,16.02 v 3.08 l -22.12,17.46 -5.92,0.73 -28.54,20.72 0.29,16.27 3.52,3.39 8.91,5.61 1.43,2.43 -0.37,5.18 -52.33,75.96 -20.82,14.74 -7.1,14.36 -201.47,140.09 -33.26,-16.22 -239.69,-38.97"
     id="path1007" />
  <path
     style="fill:none;stroke:#340d71;stroke-width:5;stroke-linejoin:round;stroke-miterlimit:4;stroke-dasharray:none;stroke-opacity:1"
     d="m 688.54,1648.28 -18.9,-2.45 -4.98,3.64 -14.43,96.42 -3.36,3.57 -95.97,-14.34"
     id="path1009" />
  <path
     style="fill:none;stroke:#340d71;stroke-width:5;stroke-linejoin:round;stroke-miterlimit:4;stroke-dasharray:none;stroke-opacity:1"
     d="m 961.49,1703.47 -6.14,9.03 -91.29,63.08 -4.51,6.21 -2.65,10.89 -3.32,24.72 -2.22,4.58 -85.59,60.26 -72.59,80.11 -93.88,109.32 -7.19,3.36 -27.58,14.45 -7.63,7.99 -2.9,8.79 -12.88,45.09 -8.72,61.14 -3.7,9.03 -5.99,8.03 -8.86,6.59 -75.22,47.22 -68.04,29.56 -72.91,15.55 -127.7,8.33 -15.54,-1.15 -31.93,-3.13 -63.88,-13.27"
     id="path1123" />
  <path
     style="fill:none;stroke:#340d71;stroke-width:5;stroke-linejoin:round;stroke-dasharray:none;stroke-opacity:1"
     d="m 2129.94,659.53 86.97,-48.8 40.72,-17.12 21.51,-12.72 31.46,-33.78 1.85,-3.47 -2.31,-3.93 -168.41,-62.46 -16.19,18.51 -28.45,19.2 -15.61,2.92"
     id="path2" />
  <path
     style="fill:none;stroke:#340d71;stroke-width:5;stroke-linejoin:round;stroke-dasharray:none;stroke-opacity:1"
     d="m 1985.12,1033.55 303.87,-75.62 3.76,-5.56 -14.56,-58.56 -6.53,-5.06 1.8,-3.84 9.93,-0.2 15.67,-2.36 74.78,-30.5 19.61,-8.08 11.37,-0.09 15.36,7.14"
     id="path3" />
  <path
     style="fill:none;stroke:#340d71;stroke-width:5;stroke-linejoin:round;stroke-dasharray:none;stroke-opacity:1"
     d="m 2278.19,893.8 5.2,-9.1"
     id="path4" />
</svg>
