<?xml version="1.0" encoding="UTF-8" standalone="no"?>
<svg
   version="1.1"
   id="svg2"
   width="1400"
   height="2025"
   viewBox="0 0 1400 2025"
   xml:space="preserve"
   xmlns:xlink="http://www.w3.org/1999/xlink"
   xmlns="http://www.w3.org/2000/svg"
   xmlns:svg="http://www.w3.org/2000/svg"
   xmlns:rdf="http://www.w3.org/1999/02/22-rdf-syntax-ns#"
   xmlns:cc="http://creativecommons.org/ns#"
   xmlns:dc="http://purl.org/dc/elements/1.1/"><metadata
     id="metadata8"><rdf:RDF><cc:Work
         rdf:about=""><dc:format>image/svg+xml</dc:format><dc:type
           rdf:resource="http://purl.org/dc/dcmitype/StillImage" /></cc:Work></rdf:RDF></metadata><defs
     id="defs6" /><image
     xlink:href="basemap/gsvosm.png"
     y="-179.78"
     x="-300"
     id="image12"
     style="display:none;image-rendering:optimizeSpeed"
     preserveAspectRatio="none"
     height="2727.11"
     width="1888" /><path
     style="fill:none;stroke:#d20a11;stroke-width:5;stroke-linejoin:round;stroke-opacity:1"
     d="m 1208.58,935.49 -67.45,175.8 5.16,12.2 14.46,16.95 4.44,3.02 8.12,7.5 39.68,14.31 4.02,-2.45 13.53,-36.03 -0.63,-2.78 -81.36,-32.43"
     id="path855" /><path
     style="fill:none;stroke:#d20a11;stroke-width:5;stroke-linejoin:round;stroke-opacity:1"
     d="m 1208.58,935.49 39.2,-99.58 -7.21,-53.43 -2.79,-6.77 1.91,-9.08 29.64,-27.21 2.14,-6.67 -1.44,-25.93 -6.45,-61.47 18.11,-44.38 14.18,-54.73 9.6,-62.22 6.89,-51.7 19.01,-69.41 -2.54,-35.39 -8.57,-16.24 -21.06,-38.97 -8.94,-23.5 -46.4,-87.23 -7.97,-6.8 -166.19,-83.58 -182.05,-8.93"
     id="path857" /><path
     style="fill:none;stroke:#d20a11;stroke-width:5;stroke-linejoin:round;stroke-dasharray:none;stroke-opacity:1"
     d="m 59.59,1967.43 18.66,-1.18 41.09,-6.38 39.2,-12.28 14.17,-16.06 20.55,-23.14 25.51,-43.45 5.9,-19.13 20.78,-30.23 4.01,-12.99 1.65,-98.24 29.76,-56.44 59.75,-71.56 33.3,-25.03 38.73,-23.14 69.67,-25.98 h 5.67 l 14.41,-8.97 221.04,-88.32 152.09,20.55 6.38,-2.36 22.91,-12.52 4.72,-5.9 0.47,-4.72 -1.18,-5.43 -12.75,-32.59 -24.86,-134.08 1.54,-4.49 22.88,0.92 2.54,-0.56 1.27,-2.18 -2.53,-17.2 1.25,-9.6 23.04,-78.23 3.76,-2.92 21.46,4.93 9.02,-9.52 12.69,1.17 7.6,3.92 19.37,2.09 12.69,12.94 5.09,1.25 5.68,-1.84 15.7,-21.62 33.4,-31.64 58.03,56.94 9.43,-8.43 6.02,-12.46"
     id="path1" /><path
     style="fill:none;stroke:#d20a11;stroke-width:5;stroke-linejoin:round;stroke-dasharray:none;stroke-opacity:1"
     d="m 1135.11,1123.75 11.18,-0.26"
     id="path2" /><path
     style="fill:none;stroke:#d20a11;stroke-width:5;stroke-linejoin:round;stroke-dasharray:none;stroke-opacity:1"
     d="m 700.05,1178.43 43.22,7.08 98.48,67.54 4.49,-0.24 19.13,-19.13 6.91,-0.09"
     id="path3" /><path
     style="fill:none;stroke:#d20a11;stroke-width:5;stroke-linejoin:round;stroke-dasharray:none;stroke-opacity:1"
     d="m 368.49,274.42 -81.47,-4.01 -82.18,21.02 -39.44,21.02 -24.09,27.16"
     id="path4" /></svg>
