<?xml version="1.0" encoding="UTF-8" standalone="no"?>
<svg
   id="svg2"
   viewBox="0 0 3975 3225"
   height="3225"
   width="3975"
   version="1.1"
   xmlns:xlink="http://www.w3.org/1999/xlink"
   xmlns="http://www.w3.org/2000/svg"
   xmlns:svg="http://www.w3.org/2000/svg"
   xmlns:rdf="http://www.w3.org/1999/02/22-rdf-syntax-ns#"
   xmlns:cc="http://creativecommons.org/ns#"
   xmlns:dc="http://purl.org/dc/elements/1.1/">
  <metadata
     id="metadata37">
    <rdf:RDF>
      <cc:Work
         rdf:about="">
        <dc:format>image/svg+xml</dc:format>
        <dc:type
           rdf:resource="http://purl.org/dc/dcmitype/StillImage" />
      </cc:Work>
    </rdf:RDF>
  </metadata>
  <defs
     id="defs6" />
  <g
     id="rt"
     style="opacity:0.25">
    <path
       d="m 2873.5,2973.29 7.25,1.95 54,15.75 21.52,13.19 14.98,8.31 12,2.75 19.5,-0.5 15,-3.5 16.68,-12.33 11.16,-12.49 23.09,-58.12 7.97,-32.7 4.36,-94.61 -1,-24 -1.78,-43.04 -5.74,-102.81 -8.63,-94.6 -4.85,-21.05 -23,-119.5 -14,-81.5 -7,-27 -11.81,-11.3 -114.19,-96.2 -73.11,-58.06 -18.05,-14.84 -17.85,-1.04 -25.29,9.77 -49.49,18.89 -23.23,3.77 -63,-19 -63,-34.5 -25.5,-18 -27,-27.5 -39.5,-34.5 -34.5,-44 -25.5,-46 -1,-12 5.5,-25.5 10.5,-19 35.5,-47 25.5,-27 9.5,-13.5 3.5,-22.5 3,-37.5 0.5,-32 -1,-27 -5.5,-12 -20,-18 -27,-13.5 -19,-2.5 -32,1 -16.5,-3.5 -30,-14 -16.5,-15 -34.5,-15.5"
       id="path3592"
       style="fill:none;stroke:#cccccc;stroke-width:8;stroke-linecap:butt;stroke-linejoin:round;stroke-miterlimit:4;stroke-dasharray:none;stroke-opacity:1" />
    <path
       d="m 3991.5,3258.49 26.5,-55 19.5,-43.5 17,-36 3.5,-12 -1.5,-26.5 -6.5,-15 -42.31,-53.67 -14.89,-8.12 -13.28,-2.57 -20.66,3.06 -40.54,11.45 -31.81,-1.65 -45.5,-17.5 -15,-3.5 -19.5,-6.5 -12.93,-9.56 -14.07,-16.44 -16.5,-23.5 -8,-4.5 -19,-3 -40.5,-1 -36.5,-1.5 -11.5,-2 -8.5,-3.5 -17,-14.5 -16.5,-24 -14,-28.5 -10.5,-14 -14,-8.5 -49,-12.5 -34,6.5 -72,14.5 -5.5,3.5 -28,31 -5,19 -2,37 -12.5,32 -29.04,18.61 -42.96,1.89 -34.5,10 -13,0.5 -52.5,22 -33.5,10 -16.5,4.5 -26.5,3.5 -40.5,3 -36,-4.5 -63.5,-20 -18,-10 -46.5,-13 -21,-8 -13,-13 -36,-47 -23,-16 -9,-4.5 -26.5,-7 -52.5,-12 -26,-3 -22,13 -31.64,38.2 -17.39,7.2 -48.58,-2.82 -24.96,1.65 -23.81,2.27 -39.11,30.52 -43.56,11.52"
       id="path2818"
       style="fill:none;stroke:#cccccc;stroke-width:8;stroke-linecap:butt;stroke-linejoin:round;stroke-miterlimit:4;stroke-dasharray:none;stroke-opacity:1" />
    <path
       id="path852"
       d="m 2746.05,3575.1 13.33,20.85 11.28,9.23 19.82,5.47 10.94,1.37 18.8,-1.37 12.99,-6.49 13.33,-15.72 20.16,-20.51 8.89,-14.35 21.53,-12.99 18.45,-20.16 16.06,-12.3 18.8,-4.78 37.25,-1.03 68.01,-14.35 36.57,2.73 14.7,-5.47 20.51,-14.01 12.64,-15.04 5.47,-14.35 -0.34,-16.4 -8.2,-16.4 -187.28,-306.21 -1.71,-22.56 7.52,-15.72 44.51,-51.14"
       style="fill:none;fill-rule:nonzero;stroke:#cccccc;stroke-width:8;stroke-linecap:butt;stroke-linejoin:round;stroke-miterlimit:4;stroke-dasharray:none;stroke-opacity:1" />
    <path
       d="m 2236.5,-828.51 3.5,25.5 12.5,30.5 19,38 11.5,30.5 2,27.5 -2.5,50 -2.5,28.5 7,28 11.5,25.5 28,31.5 105,97 107.5,99.5 88.5,80.5 23,16 17.5,9 68,10.5 20,6.5 16,6 15.5,10.5 20.5,20 13,20.5 9,24 5,23.5 -1,26.5 -11,61 -14.5,81 -10,36.5 -18,67 -5.5,34 -0.5,16.5 4.5,23.5 8,20.5 14,16.5 13,13.5 13,8.5 49,20.5 16,9 12.5,8 71.5,88.5 10.5,9 12.5,9 10,5 14,5 62,2.5 20.5,0.5 39.5,9.5 20.5,8.5 15,5.5 72,44 34,20.5 24.5,12.5 17.17,6.13 101.33,11.87 20.5,11 15,17 9,17 5,25 8.5,22 12.5,17 121.5,86.5 14.5,12.5 14.5,18 9,18.5 3,21.5 v 19 l -4.5,17.5 -12.5,17 -22.5,18.5 -7,17.5 0.5,22 13,27.5 4,20.5 -1.5,13 -12.5,19.5 -21.5,15.5 -31,21 -35,22 -9,9 -23.5,36.5 -47,73 -45,70.5 -97,103.5 -16,24.5 -31,48.5 -36.5,48 -19,17.5 -99,79.5 -14,14 -31.5,59 -12.5,25.5 -4,21.5 v 23 l 56,305 5,19.5 21,36.5 13.5,37 2.5,16 -1,29.5 -6,24 -38,82.5 -13.5,28 -2.5,21 2.5,23.5 34.5,97 10.5,18 19,22 33.5,35 21.5,20.5 7,15 5.06,23.41 0.24,22.8 -0.59,25.62 -3.49,52.45 2.37,19.27 35.28,177.3 -1.19,15.42 -4.74,13.93 -14.53,22.24 -13.05,10.38 -16.6,5.93 -100.21,-4.45 -20.46,0.3 -16.31,2.96 -35.58,13.64 -28.62,21.21"
       id="path3602"
       style="fill:none;stroke:#cccccc;stroke-width:8;stroke-linecap:butt;stroke-linejoin:round;stroke-miterlimit:4;stroke-dasharray:none;stroke-opacity:1" />
    <path
       d="m 6.48,2759.98 -47.26,44.77 -15.5,17 -25.25,16.5 -22,8.1 -26.79,5.27 -28.62,-1.16 -41.31,-14.73 -22.94,-18.19 -21.1,-21.87 -23.77,-39.86 -12.81,-56.55 2.87,-40.49 24.57,-69.65 6.1,-40.67 -4.56,-36.77 -32.28,-101.08 4.54,-17.75 14.09,-17.14 19.02,-7.24 64,-15.05"
       id="path4516"
       style="fill:none;stroke:#cccccc;stroke-width:8;stroke-linecap:butt;stroke-linejoin:round;stroke-miterlimit:4;stroke-dasharray:none;stroke-opacity:1" />
    <path
       d="m 2887.5,2938.99 -16.5,-9 -11.5,-10 -8.82,-14.11 -16.76,-34.32 -7.76,-26.9 -3.37,-40.76 16.52,-45 14.65,-21.4 21.15,-28.05 29.64,-44.97 9.24,-20 21.5,-49.5 10.28,-26.67 1.52,-19.8 -1.74,-25.97 -8.06,-22.55 -9.5,-23.5 -14.5,-38 -20.5,-48 -20,-31 -22.41,-29.39 -32.09,-37.11 -36,-29 -52.5,-27 -143,-63 -27,-16.5 -25,-19 -15,-18.5 -12,-23.5 -32.5,-58 -11.5,-18 -15,-22.5 -18.5,-27.5 -14.5,-23 -14.5,-27.5 -7.5,-11 -7.58,-9.87 -75.42,-42.13 -49.5,-25.5 -50.5,-18 -37,-14.5 -30.5,-7 -49,-7.5 -30.8,0.41 -24.64,5.01 -213.35,70.59 -310.41,94.2 -47.81,19.29 -32,23.5 -60.88,46.62 -37.02,23.89 -18.91,7.23 -24.09,4.74 -71.44,1.93 -21.43,4.84 -33.46,14.88 -29.48,18.38 -40.2,25.99 -36.59,35.99 -49,46.5 -35,42 -12.5,8.5 -44,21 -44,3.5 -38,-4 -36,4 -49.5,17.5 -34.5,14.5 -101.5,59 -19.5,19.5 -13.5,29 -21,27.5 -28,27.5 -65,46 -150.5,88.5 -100.5,59.5 -29,11 -98.5,24.5 -31.5,5 -12,6 -42.5,21.5 -40,27.5 -27.4,16.04 -83.49,11.71 -19.11,10.44 -48.48,38.36"
       id="path3606"
       style="fill:none;stroke:#cccccc;stroke-width:8;stroke-linecap:butt;stroke-linejoin:round;stroke-miterlimit:4;stroke-dasharray:none;stroke-opacity:1" />
    <path
       d="m 245.01,1240.97 18,-71 14,-29 23,-76 38,-126 23,-41 140,-310 31,-48 31,-29 67,-36 19,-10 29,-31 40,-43 29,-19 29,-3 38,9 66,26 53,17 36,4 77,1 47,19 33,2 91.49,-0.78 104.08,-10.94 85.43,22.72 22,13 16,13 26,51 39,60 36,42 22,36 12,26 17,79 22,93 18,41.84 16.43,34.85 81.1,118.72 44.73,55.32 44.73,55.28 122.35,159.65 68.1,93.07 87.25,109.63 64.8,80.15 26.5,26 16,17 37.5,30.5 26.5,25 41.5,42.5 20,15.5 37,18.5 30.5,20 23.5,27 26,26.5 11,15 27.5,42.5 17.5,36 21.5,34.5 13.5,27 15.5,31.5 5,20 5.5,43.5 3,21 3.5,12.5 10.5,13.5 14.5,9 36.5,17 89,38.5 57.5,29.5 34,26.5 33,36.5 26.5,33.5 19.5,31 17.5,41 8.5,19.5 16,42 36.71,79.88 29.89,75.83 12.54,25.41 11.36,49.39 8.5,47 4.5,6 12,2.5 26,-0.5 19,-1 13.07,-5 19.73,-8.65 37.7,-30.85 29.5,-22.5 13.06,-16.56 4.68,-12.58"
       id="path3600"
       style="fill:none;stroke:#cccccc;stroke-width:8;stroke-linecap:butt;stroke-linejoin:round;stroke-miterlimit:4;stroke-dasharray:none;stroke-opacity:1" />
    <path
       style="fill:none;stroke:#cccccc;stroke-width:8;stroke-linecap:butt;stroke-linejoin:round;stroke-miterlimit:4;stroke-dasharray:none;stroke-opacity:1"
       d="m 3063.86,2536.54 8.69,22.29 6.04,11.36 8.7,7.73 15.95,6.52 11.12,1.21 12.81,-2.9 11.84,-6.52 13.29,-16.92 7.25,-9.67 6.52,-5.32 10.87,-6.28 13.05,-1.93 9.91,1.69 26.1,14.26 106.09,71.53"
       id="path2" />
    <path
       style="fill:none;stroke:#cccccc;stroke-width:8;stroke-linecap:butt;stroke-linejoin:round;stroke-miterlimit:4;stroke-dasharray:none;stroke-opacity:1"
       d="m 3998.79,2729.72 -16.8,-36.23 -7.89,-25.88 -4.56,-20.68 -6.05,-22.94 -19.5,-28 -28,-40 -5.5,-4.5 -56.5,-41 -25,-12.5 -52,-22 -16,-9.5 -15.5,-7.5 -27,-10 -17.5,-9 -12,-11 -12,-24 -5,-25 2.5,-36 -9.5,-84 -8.5,-27.5 -14,-27 -14.5,-23.5 -18.5,-21.5 -25,-22 -84.5,-57.5 -42.5,-23 -21,-3.5 -61.5,1.5 -16,3.5 -12.5,10.5 -15.5,20 -18,11 -17.5,8 -67.6,20.16 -21.94,1.26 -36.1,-1.55 -71.45,-0.41 -22.14,0.34 -18.25,4.47 -13.71,11.72 -9.72,14.08 -2.6,14.92 -3.27,53.96 -7.73,32.54 -2.47,40.51"
       id="path3594" />
    <path
       d="m 4361.96,2565.38 16.26,-14.14 7.07,-12.02 13.44,-29.7 1.41,-18.38 -2.12,-22.63 -8.49,-12.02 -19.8,-21.21 -32.53,-24.75 -12.73,-15.56 -12.73,-17.68 -26.16,-43.13"
       id="path3598"
       style="fill:none;stroke:#cccccc;stroke-width:8;stroke-linecap:butt;stroke-linejoin:round;stroke-miterlimit:4;stroke-dasharray:none;stroke-opacity:1" />
    <path
       style="fill:none;stroke:#cccccc;stroke-width:8;stroke-linecap:butt;stroke-linejoin:round;stroke-miterlimit:4;stroke-dasharray:none;stroke-opacity:1"
       d="m 3047,1737.99 6.61,16.55 7.95,16.99 236.63,234.8 28.61,18.56 17.56,3.87 48.03,-0.77 15.23,1.81 19.11,7.49 60.42,46.48 23.24,19.37 10.59,14.98 4.65,11.1 1.55,12.91 -2.32,16.53 -7.23,12.14 -62.49,65.33 -23.5,24.92 -15.12,8.01 -85.98,37.06 -14.82,11.56 -12.16,22.53 -7.41,16.6 v 105.25 l -5.04,17.79 -10.97,11.56 -32.61,23.72 -13.05,18.68 -18.38,33.5 -1.78,11.41 3.24,35.68"
       id="path1" />
    <path
       style="fill:none;stroke:#cccccc;stroke-width:8;stroke-linecap:butt;stroke-linejoin:round;stroke-miterlimit:4;stroke-dasharray:none;stroke-opacity:1"
       d="m 4114.47,709.23 -31.82,4.24 -12.02,3.54 -25.46,21.21 -23.33,16.97 -33.94,7.07 -29.7,3.54 -62.23,23.33 -17.68,5.66 -12.73,15.56 -43.84,130.81 -9.19,53.74 -19.09,38.18 -26.87,38.18 -14.85,11.31 -19.09,13.44 -42.43,25.46 -33.23,32.53 -16.26,18.38 -21.92,37.48 -12.02,47.38 2.83,24.04 4.24,19.8 v 16.26 l -9.19,14.85 -101.82,112.43 -36.77,18.38 -18.38,12.02 -76.37,59.4 -47.38,14.85 -57.98,-3.54 -19.8,1.41 -28.99,14.85 -58.66,16.25"
       id="path3614" />
    <path
       d="m 2766.73,3136.72 22.63,5.66 24.04,1.41 6.36,-2.12 9.9,-10.61 33.23,-53.03 10.61,-14.14 7.07,-8.49 11.31,-16.97"
       id="path3611"
       style="fill:none;stroke:#cccccc;stroke-width:8;stroke-linecap:butt;stroke-linejoin:round;stroke-miterlimit:4;stroke-dasharray:none;stroke-opacity:1" />
    <path
       d="m 3475.49,2842.94 28.72,-5.8 13.79,3.85 16.17,11.41 20.4,21.31 15.1,4.54 21.85,-0.83 16.57,-1.47 7.4,-0.97 55,-29.5 183,-100.5 82.5,-48.5 15.67,-3.4 15.25,2.72 12.94,6.72 6.13,8.46 34,49.75 3.5,5.25 9,5.5 16.5,4 33.78,-3.93 23.57,-13.43 20.36,-15.01 20.05,-41.52 37.49,-36.25 23.91,-18.66 17.32,-17.32 18.38,-13.79 53.03,-22.98 91.22,-36.42 14.14,-7.07 28.99,-4.95 25.46,2.83 23.33,20.51 41.72,48.79 3.9,24.44 0.09,23.51 -5.64,21.87 -7.63,16.91 -5.95,12.77 -10.22,15.75 -24.19,13.38 -27.42,22.3"
       id="path3596"
       style="fill:none;stroke:#cccccc;stroke-width:8;stroke-linecap:butt;stroke-linejoin:round;stroke-miterlimit:4;stroke-dasharray:none;stroke-opacity:1" />
    <path
       style="fill:none;stroke:#cccccc;stroke-width:8;stroke-linecap:butt;stroke-linejoin:round;stroke-miterlimit:4;stroke-dasharray:none;stroke-opacity:1"
       id="path3616"
       d="m 1055.25,2200.99 9.5,-8.75 5.75,-4.75 14,0.5 16.5,7.5 12,9.5 7,15 5.49,14.51 2.74,28.18 -2.27,37.21 -0.52,23.28 3.23,21.1 16.69,49.87 6.1,14.16 14.31,17.4 25.34,13.57 42.13,16.67 23.19,1.14 24.07,0.87" />
  </g>
  <image
     xlink:href="../basemap/hkgosm.png"
     style="display:none"
     x="-3204.11"
     y="-5573.33"
     width="9998.23"
     height="9373.34"
     id="image12" />
  <path
     style="fill:none;stroke:#3852a4;stroke-width:5;stroke-linecap:butt;stroke-linejoin:round;stroke-miterlimit:4;stroke-dasharray:none;stroke-opacity:1"
     id="path3784"
     d="m 2431.39,2955.23 1.47,10.8 -11.3,1.96 -0.98,-10.31 47.15,-7.86 33.4,-31.43 12.28,-24.07 8.84,-3.93 44.2,10.31 64.83,-20.63 58.94,2.95 33.4,2.46 12.77,-10.8 35.36,10.8 -0.49,11.79 39.29,10.31 31.43,23.08 36.83,51.08 7.86,7.37 23.57,5.89 1.96,5.4 7.86,3.93 12.28,3.44 29.96,19.65 68.76,9.33 36.34,23.08 51.08,-4.91 24.07,-17.19 4.91,-5.4 35.85,-10.31 36.34,-14.24 26.52,-10.8 45.18,18.66 12.28,-4.91 24.56,-22.59 29.96,-20.14 8.35,-15.22 6.88,-23.08 -1.96,-41.75 33.89,-41.25 23.08,-7.37 78.58,-15.72 37.82,-5.89 27.01,2.46 30.45,13.75 5.4,16.21 18.66,53.04 12.28,21.12 8.84,4.91 38.8,4.42 31.92,0.49 24.56,-7.86 12.77,5.89 11.3,12.28 23.57,35.36 11.79,8.35 18.66,9.33 12.77,0.98 23.08,41.75 28.49,12.77 h 9.82 l 6.88,-13.75 0.58,-6.45" />
  <path
     style="fill:none;stroke:#3852a4;stroke-width:5;stroke-linecap:butt;stroke-linejoin:round;stroke-miterlimit:4;stroke-dasharray:none;stroke-opacity:1"
     id="path3786"
     d="m 3183.31,3022.02 15.22,43.22 -15.72,16.7 -1.96,13.75 9.33,30.45 13.75,12.28 31.92,19.65 h 15.72 l 4.42,-6.88 0.98,-21.12 -34.38,-73.18 v -8.84 l 17.68,-8.84 -13.75,-33.4" />
  <path
     id="path4513"
     d="m 2771.75,2885.49 11.61,4.07 0.3,9.82"
     style="fill:none;fill-rule:evenodd;stroke:#3852a4;stroke-width:5;stroke-linecap:butt;stroke-linejoin:round;stroke-miterlimit:4;stroke-dasharray:none;stroke-opacity:1" />
  <path
     id="path4515"
     d="m 3424.76,2840.16 0.6,-8.04 27.98,-4.76 1.79,7.14"
     style="fill:none;fill-rule:evenodd;stroke:#3852a4;stroke-width:5;stroke-linecap:butt;stroke-linejoin:round;stroke-miterlimit:4;stroke-dasharray:none;stroke-opacity:1" />
  <path
     style="opacity:1;fill:none;fill-rule:nonzero;stroke:#00ffff;stroke-width:5;stroke-linecap:butt;stroke-linejoin:round;stroke-miterlimit:4;stroke-dasharray:none;stroke-opacity:1"
     d="m 2918.44,2894.14 c 10.36,-46.94 93.62,-76.78 106.65,-100.43"
     id="path846" />
  <path
     style="opacity:1;fill:none;fill-rule:nonzero;stroke:#00ffff;stroke-width:5;stroke-linecap:butt;stroke-linejoin:round;stroke-miterlimit:4;stroke-dasharray:none;stroke-opacity:1"
     d="m 3025.09,2793.71 c -35.77,43.54 99.57,69.52 98.77,172.22"
     id="path848" />
  <path
     id="path871"
     d="m 1133.78,458.55 -19.56,-3.87 -11.31,2.83 -17.68,14.85 -152.74,-0.71 -48.73,8.88 -27.86,0.19 -31.36,7.14 -36.78,15.41 -48.4,30.97 -49.42,32.87 -54.11,38.66 -42.77,35.59 -35.6,24.53 -44.71,39.9 -33.15,36.74 -48.47,57.94 -29.33,31.87"
     style="fill:none;stroke:#dab006;stroke-width:5;stroke-linecap:butt;stroke-linejoin:round;stroke-miterlimit:4;stroke-dasharray:none;stroke-opacity:1" />
  <path
     id="path859"
     d="m 401.82,832.32 -13.7,14.32 -29.98,46.34 -24.69,44.39 -3.21,10.37 -50.5,168.46 -7.73,24.07 -20.46,40.6 -17.68,62.93 3.75,5.8 12.6,3.24 11.93,-0.56 31.82,-10.61 16.26,-7.78 3.54,-8.49 -5.63,-31.08 4,-27.64"
     style="fill:none;stroke:#dab006;stroke-width:1;stroke-linecap:butt;stroke-linejoin:round;stroke-miterlimit:4;stroke-dasharray:none;stroke-opacity:1" />
  <path
     id="path857"
     d="m 312.14,1166.7 9.22,-25.86 13.03,-25.73"
     style="fill:none;stroke:#dab006;stroke-width:1;stroke-linecap:butt;stroke-linejoin:round;stroke-miterlimit:4;stroke-dasharray:none;stroke-opacity:1" />
  <path
     id="path3618"
     d="m 334.39,1115.11 4.79,-12.22 0.29,-11.4 -12.96,-21.98 -0.16,-12.67 3.35,-9.46 -0.74,-8.16 -18.02,-16.73 -0.67,-8.09"
     style="fill:none;stroke:#dab006;stroke-width:1;stroke-linecap:butt;stroke-linejoin:round;stroke-miterlimit:4;stroke-dasharray:none;stroke-opacity:1" />
  <path
     id="path875"
     d="m 689.96,567.11 -0.07,-20.77 14.6,-40.45 2.61,-14.18 5.59,-13.97 -5.22,-16.54 -16.69,-31.01 0.36,-14.62 25.17,-26.87 11.37,-7.52 0.59,-8.5 -17.09,-32.55 -4.24,-18.38 8.35,-23.8 -2.05,-10.86 -5.71,-7.85 -15.43,-12.65 -20.51,-19.8 -11.75,-21.94 -4.8,-1.5 -52.97,26.83 -5.72,-0.54 -10.29,-20.95 -1.66,-17.21 4.46,-12.95 5.03,-23.52 7.24,-27.43 13.43,-27.16 18.96,-27.67 16.6,-17.84 5.19,-2.08 5.39,2.9 9.75,32.58 9.96,14.73 v 6.85 l -26.35,45.86 -0.83,9.34 -1.04,17.43 0.62,2.9 6.64,19.09"
     style="fill:none;stroke:#dab006;stroke-width:5;stroke-linecap:butt;stroke-linejoin:round;stroke-miterlimit:4;stroke-dasharray:none;stroke-opacity:1" />
  <path
     id="path867"
     d="m 272.81,1410.87 -3.82,4.61 -52.09,-1.96 -6.36,2.12 -4.24,45.25 -9.19,10.61 -24.75,16.26 -10.28,7.58 -8.43,23.95 0.15,8.7 4.42,12.8 16.26,31.11 3.67,9.48 -6.05,6.96 -28.48,-7.88"
     style="fill:none;stroke:#dab006;stroke-width:5;stroke-linecap:butt;stroke-linejoin:round;stroke-miterlimit:4;stroke-dasharray:none;stroke-opacity:1" />
  <path
     id="path853"
     d="m 155.91,1576.37 -62.91,-15.76 -26.33,-31.18 -2.81,-8.29 5.96,-8.63 14.14,-19.8 11.31,-21.21 9.87,-17.66 2.22,-19.46 21.86,-43.49 21.92,-57.98 15.24,-43.89 -1.26,-58.71"
     style="fill:none;stroke:#dab006;stroke-width:5;stroke-linecap:butt;stroke-linejoin:round;stroke-miterlimit:4;stroke-dasharray:none;stroke-opacity:1" />
  <path
     id="path3624"
     d="m 166.43,1231.57 15.29,0.02 52.15,12.22"
     style="fill:none;stroke:#dab006;stroke-width:1;stroke-linecap:butt;stroke-linejoin:round;stroke-miterlimit:4;stroke-dasharray:none;stroke-opacity:1" />
  <path
     id="path849"
     d="m 265.76,1250.59 7.39,15.93 1.03,61.44"
     style="fill:none;stroke:#dab006;stroke-width:1;stroke-linecap:butt;stroke-linejoin:round;stroke-miterlimit:4;stroke-dasharray:none;stroke-opacity:1" />
  <path
     id="path3620"
     d="m 274.18,1327.95 -0.74,66.69 -0.62,16.23 -0.41,12.59 5.32,5.88 5.98,1.49 17.29,-8.85"
     style="fill:none;stroke:#dab006;stroke-width:5;stroke-linecap:butt;stroke-linejoin:round;stroke-miterlimit:4;stroke-dasharray:none;stroke-opacity:1" />
  <path
     style="fill:none;stroke:#dab006;stroke-width:5;stroke-linecap:butt;stroke-linejoin:round;stroke-miterlimit:4;stroke-dasharray:none;stroke-opacity:1"
     id="path3626"
     d="m 167.75,1233.48 -2.63,-3.17 -1.89,-33.17 0.59,-33.23 4.15,-14.21 2.82,-24.94 -8.81,-22.83 -16.23,-14.63 -22.18,-8.95 -14.85,-7.78 -4.24,-10.61 10.61,-14.14 12.02,-9.19 14.85,-0.71 44.55,16.26 9.9,3.54 22.63,-6.36 34.65,-9.9 23.33,-13.44 11.31,-17.68 4.46,-9.07 -0.24,-27.89 3.77,-4.67 20.67,5.23 2.78,6.94 -9.32,32.97 -5.08,2.08 -12.35,-3.84 -6.74,1.25" />
  <path
     style="fill:none;stroke:#dab006;stroke-width:5;stroke-linecap:butt;stroke-linejoin:round;stroke-miterlimit:4;stroke-dasharray:none;stroke-opacity:1"
     id="path3622"
     d="m 274.18,1327.95 -3.83,4.19 -23.2,0.28 -4.16,3.74 -0.16,23.15 3.72,2.95 h 23.63 l 4.21,-4.1" />
  <path
     id="path863"
     d="m 145.74,1087.29 20.34,3.27 14.76,-2.35 11.01,-5.62 5.52,-0.04 27.3,33.27 19.91,0.75"
     style="fill:none;stroke:#dab006;stroke-width:5;stroke-linecap:butt;stroke-linejoin:round;stroke-miterlimit:4;stroke-dasharray:none;stroke-opacity:1" />
  <path
     id="path3630"
     d="m 244.59,1116.57 17.57,0.66 15.44,5.98"
     style="fill:none;stroke:#dab006;stroke-width:1;stroke-linecap:butt;stroke-linejoin:round;stroke-miterlimit:4;stroke-dasharray:none;stroke-opacity:1" />
  <path
     style="fill:none;stroke:#dab006;stroke-width:1;stroke-linecap:butt;stroke-linejoin:round;stroke-miterlimit:4;stroke-dasharray:none;stroke-opacity:1"
     id="path3632"
     d="m 163.81,1163.91 -6.83,2.07 -3.02,7.83 2,9.5 -9.36,25.54 1.59,9.78 16.14,0.3" />
  <path
     id="path5856"
     d="m 690.78,430.19 -42.34,-85.75 -9.54,-11 -42.57,-83.81"
     style="opacity:1;fill:none;fill-rule:nonzero;stroke:#dab006;stroke-width:5;stroke-linecap:butt;stroke-linejoin:round;stroke-miterlimit:4;stroke-dasharray:none;stroke-opacity:1" />
  <path
     style="fill:none;stroke:#dab006;stroke-width:1;stroke-linecap:butt;stroke-linejoin:round;stroke-miterlimit:4;stroke-dasharray:none;stroke-opacity:1"
     d="m 1133.78,458.54 -19.56,-3.87 -11.31,2.83 -17.68,14.85 -152.74,-0.71 -48.73,8.88 -27.86,0.19 -31.36,7.14 -36.78,15.41 -48.4,30.97 -49.42,32.87 -54.11,38.66 -42.77,35.59 -35.6,24.53 -44.71,39.9 -33.15,36.74 -48.47,57.94 -29.33,31.87"
     id="path871-5" />
  <path
     style="fill:none;stroke:#dab006;stroke-width:5;stroke-linecap:butt;stroke-linejoin:round;stroke-miterlimit:4;stroke-dasharray:none;stroke-opacity:1"
     d="m 401.82,832.31 -13.7,14.32 -29.98,46.34 -24.69,44.39 -3.21,10.37 -50.5,168.46 -7.73,24.07 -20.46,40.6 -17.68,62.93 3.75,5.8 12.6,3.24 11.93,-0.56 31.82,-10.61 16.26,-7.78 3.54,-8.49 -5.63,-31.08 4,-27.64"
     id="path859-3" />
  <path
     style="fill:none;stroke:#dab006;stroke-width:1;stroke-linecap:butt;stroke-linejoin:round;stroke-miterlimit:4;stroke-dasharray:none;stroke-opacity:1"
     d="m 312.14,1166.69 9.22,-25.86 13.03,-25.73"
     id="path857-5" />
  <path
     style="fill:none;stroke:#dab006;stroke-width:5;stroke-linecap:butt;stroke-linejoin:round;stroke-miterlimit:4;stroke-dasharray:none;stroke-opacity:1"
     d="m 334.39,1115.1 4.79,-12.22 0.29,-11.4 -12.96,-21.98 -0.16,-12.67 2.61,-17.61 -18.02,-16.73 -2.12,-7.78"
     id="path3618-6" />
  <path
     style="fill:none;stroke:#dab006;stroke-width:1;stroke-linecap:butt;stroke-linejoin:round;stroke-miterlimit:4;stroke-dasharray:none;stroke-opacity:1"
     d="m 614.54,120.41 -13.43,27.16 -7.24,27.43 -5.03,23.52 -4.46,12.95 1.66,17.21 10.29,20.95 5.72,0.54 52.97,-26.83 4.8,1.5 11.75,21.94 20.51,19.8 15.43,12.65 5.71,7.85 2.05,10.86 -8.35,23.8 4.24,18.38 17.09,32.55 -0.59,8.5 -11.37,7.52 -25.17,26.87 -0.36,14.62 16.69,31.01 5.22,16.54 -5.59,13.97 -2.61,14.18 -14.6,40.45 0.07,20.77"
     id="path875-2" />
  <path
     style="fill:none;stroke:#dab006;stroke-width:1;stroke-linecap:butt;stroke-linejoin:round;stroke-miterlimit:4;stroke-dasharray:none;stroke-opacity:1"
     d="m 272.81,1410.86 -3.82,4.61 -52.09,-1.96 -6.36,2.12 -4.24,45.25 -9.19,10.61 -24.75,16.26 -10.28,7.58 -8.43,23.95 0.15,8.7 4.42,12.8 16.26,31.11 3.67,9.48 -6.05,6.96 -28.48,-7.88"
     id="path867-9" />
  <path
     style="fill:none;stroke:#dab006;stroke-width:1;stroke-linecap:butt;stroke-linejoin:round;stroke-miterlimit:4;stroke-dasharray:none;stroke-opacity:1"
     d="m 155.91,1576.37 -62.91,-15.76 -26.33,-31.18 -2.81,-8.29 5.96,-8.63 14.14,-19.8 11.31,-21.21 9.87,-17.66 2.22,-19.46 21.86,-43.49 21.92,-57.98 15.24,-43.89 -1.26,-58.71"
     id="path853-1" />
  <path
     style="fill:none;stroke:#dab006;stroke-width:5;stroke-linecap:butt;stroke-linejoin:round;stroke-miterlimit:4;stroke-dasharray:none;stroke-opacity:1"
     d="m 167.75,1233.47 13.09,-0.27 55.15,12.02"
     id="path3624-2" />
  <path
     style="fill:none;stroke:#dab006;stroke-width:5;stroke-linecap:butt;stroke-linejoin:round;stroke-miterlimit:4;stroke-dasharray:none;stroke-opacity:1"
     d="m 267.81,1250.87 6.36,13.44 v 63.64"
     id="path849-7" />
  <path
     style="fill:none;stroke:#dab006;stroke-width:1;stroke-linecap:butt;stroke-linejoin:round;stroke-miterlimit:4;stroke-dasharray:none;stroke-opacity:1"
     d="m 274.18,1327.94 -0.74,66.69 -0.62,16.23 -0.41,12.59 5.32,5.88 5.98,1.49 17.29,-8.85"
     id="path3620-0" />
  <path
     d="m 167.75,1233.47 -2.63,-3.17 -1.89,-33.17 0.59,-33.23 4.15,-14.21 2.82,-24.94 -8.81,-22.83 -16.23,-14.63 -22.18,-8.95 -14.85,-7.78 -4.24,-10.61 10.61,-14.14 12.02,-9.19 14.85,-0.71 44.55,16.26 9.9,3.54 22.63,-6.36 34.65,-9.9 23.33,-13.44 11.31,-17.68 4.46,-9.07 -0.24,-27.89 3.77,-4.67 20.67,5.23 2.78,6.94"
     id="path3626-9"
     style="fill:none;stroke:#dab006;stroke-width:1;stroke-linecap:butt;stroke-linejoin:round;stroke-miterlimit:4;stroke-dasharray:none;stroke-opacity:1" />
  <path
     d="m 274.18,1327.94 -3.83,4.19 -23.2,0.28 -4.16,3.74 -0.16,23.15 3.72,2.95 h 23.63 l 4.21,-4.1"
     id="path3622-3"
     style="fill:none;stroke:#dab006;stroke-width:1;stroke-linecap:butt;stroke-linejoin:round;stroke-miterlimit:4;stroke-dasharray:none;stroke-opacity:1" />
  <path
     d="m 288.32,1008.33 4.03,-0.78 13.91,5.47 5.59,-3.07"
     id="path3628"
     style="fill:none;stroke:#dab006;stroke-width:1;stroke-linecap:butt;stroke-linejoin:round;stroke-miterlimit:4;stroke-dasharray:none;stroke-opacity:1" />
  <path
     style="fill:none;stroke:#dab006;stroke-width:1;stroke-linecap:butt;stroke-linejoin:round;stroke-miterlimit:4;stroke-dasharray:none;stroke-opacity:1"
     d="m 145.74,1087.28 20.34,3.27 14.76,-2.35 11.01,-5.62 5.52,-0.04 27.3,33.27 19.91,0.75"
     id="path863-6" />
  <path
     style="fill:none;stroke:#dab006;stroke-width:5;stroke-linecap:butt;stroke-linejoin:round;stroke-miterlimit:4;stroke-dasharray:none;stroke-opacity:1"
     d="m 244.59,1116.56 17.57,0.66 14.85,4.95"
     id="path3630-0" />
  <path
     d="m 163.81,1163.9 -6.83,2.07 -3.02,7.83 2,9.5 -9.36,25.54 1.59,9.78 16.14,0.3"
     id="path3632-6"
     style="fill:none;stroke:#dab006;stroke-width:1;stroke-linecap:butt;stroke-linejoin:round;stroke-miterlimit:4;stroke-dasharray:none;stroke-opacity:1" />
</svg>
