<?xml version="1.0" encoding="UTF-8" standalone="no"?>
<svg
   viewBox="0 0 1500 1575"
   height="1575"
   width="1500"
   id="svg2"
   version="1.1"
   xmlns:xlink="http://www.w3.org/1999/xlink"
   xmlns="http://www.w3.org/2000/svg"
   xmlns:svg="http://www.w3.org/2000/svg"
   xmlns:rdf="http://www.w3.org/1999/02/22-rdf-syntax-ns#"
   xmlns:cc="http://creativecommons.org/ns#"
   xmlns:dc="http://purl.org/dc/elements/1.1/">
  <metadata
     id="metadata8">
    <rdf:RDF>
      <cc:Work
         rdf:about="">
        <dc:format>image/svg+xml</dc:format>
        <dc:type
           rdf:resource="http://purl.org/dc/dcmitype/StillImage" />
      </cc:Work>
    </rdf:RDF>
  </metadata>
  <defs
     id="defs6" />
  <image
     xlink:href="../timelines/basemap/lejosm.png"
     style="display:none"
     y="-192.48"
     x="-190"
     id="image10"
     preserveAspectRatio="none"
     height="6112.48"
     width="8407" />
  <path
     id="path839"
     d="m 690.06,86.07 -1.32,-21.72 2.11,-3.44 h 3.17 l 2.9,2.65 0.79,16.68 -10.56,9 12.41,64.88 8.71,12.71 4.75,5.03 42.52,67.53 7.39,10.06 19.01,32.57 -10.3,231.99 3.43,37.34 9.24,20.13 4.49,4.24 2.64,11.12 10.03,8.21 5.28,6.09 -0.26,15.36"
     style="opacity:1;fill:none;fill-rule:nonzero;stroke:#ee1d23;stroke-width:5;stroke-linecap:butt;stroke-linejoin:round;stroke-miterlimit:4;stroke-dasharray:none;stroke-opacity:1" />
  <path
     id="path841"
     d="m 987.78,304.45 -52.39,71.35 -22.71,10.06 -1.32,3.97 5.81,19.6 8.19,61.71 1.06,8.47 -2.11,6.09 -15.05,16.15 -8.19,17.74 -5.02,5.56 -4.49,10.86 -2.38,6.62 -16.64,16.15 -4.75,4.24 -7.39,8.74 -5.02,9.27 -12.15,16.15 -9.24,7.94 -27.46,11.39 0.53,7.94 6.07,11.65 2.11,8.47 -2.11,9 -3.96,6.89 0.79,3.71 5.55,6.36 1.58,3.71 -0.53,18.27 -4.75,6.62 2.9,24.36 0.26,25.69 -5.02,13.51 -4.49,4.24 -85.03,1.59 -4.49,13.51 -2.11,2.65 -12.68,51.38 -16.9,25.42 -21.13,37.87 -45.95,59.06 -10.56,17.74 -54.14,74.15 v 5.56 l 3.17,8.74 -1.32,6.62 -3.96,10.06 0.53,8.74 4.49,19.07 5.81,6.09 13.2,4.77 13.2,9.8 30.37,7.95 48.33,7.42 55.36,5.35"
     style="opacity:1;fill:none;fill-rule:nonzero;stroke:#ee1d23;stroke-width:5;stroke-linecap:butt;stroke-linejoin:round;stroke-miterlimit:4;stroke-dasharray:none;stroke-opacity:1" />
  <path
     id="path843"
     d="m 809.95,762.71 -11.62,28.34 -0.26,24.1 7.13,10.86 13.73,110.43 2.38,9.53 11.09,83.95 -99.03,0.26 -12.41,126.59 -8.98,29.93 -1.85,11.39 2.38,5.03 5.02,2.12 52.02,5.03 4.49,3.97 1.06,6.36 -9.51,94.01 2.11,7.15 12.41,10.86 1.06,2.91 -0.26,3.71 -30.9,51.38 -0.79,5.03 2.38,4.5 28.78,2.65 9.51,-5.03"
     style="opacity:1;fill:none;fill-rule:nonzero;stroke:#ee1d23;stroke-width:5;stroke-linecap:butt;stroke-linejoin:round;stroke-miterlimit:4;stroke-dasharray:none;stroke-opacity:1" />
  <path
     id="path845"
     d="m 832.4,1029.93 14,102.75"
     style="opacity:1;fill:none;fill-rule:nonzero;stroke:#ee1d23;stroke-width:5;stroke-linecap:butt;stroke-linejoin:round;stroke-miterlimit:4;stroke-dasharray:none;stroke-opacity:1" />
  <path
     id="path848"
     d="m 774.04,460.54 -59.42,2.12 -20.07,5.3 -29.58,-108.58 1.85,-17.21 2.11,-12.45 11.88,-6.89 7.39,-2.65 27.99,-38.93 17.16,-40.25 0.26,-36.81"
     style="opacity:1;fill:none;fill-rule:nonzero;stroke:#ee1d23;stroke-width:5;stroke-linecap:butt;stroke-linejoin:round;stroke-miterlimit:4;stroke-dasharray:none;stroke-opacity:1" />
  <path
     id="path850"
     d="m 832.4,1029.93 111.44,-1.06 -2.64,-296.61 3.7,-11.92 3.17,-1.59 10.83,-0.26 2.16,-2.62 -1.31,-18.35 -3.17,-1.5 -10.27,-0.19 -11.02,-5.43 -5.44,-30.97"
     style="opacity:1;fill:none;fill-rule:nonzero;stroke:#ee1d23;stroke-width:5;stroke-linecap:butt;stroke-linejoin:round;stroke-miterlimit:4;stroke-dasharray:none;stroke-opacity:1" />
  <path
     id="path852"
     d="m 929.84,659.43 -6.87,-23.57 -24.3,-79.98 -5.28,-10.59 -4.23,-2.65"
     style="opacity:1;fill:none;fill-rule:nonzero;stroke:#ee1d23;stroke-width:5;stroke-linecap:butt;stroke-linejoin:round;stroke-miterlimit:4;stroke-dasharray:none;stroke-opacity:1" />
  <path
     id="path854"
     d="m 893.4,545.29 -2.11,-9.8"
     style="opacity:1;fill:none;fill-rule:nonzero;stroke:#ee1d23;stroke-width:5;stroke-linecap:butt;stroke-linejoin:round;stroke-miterlimit:4;stroke-dasharray:none;stroke-opacity:1" />
  <path
     id="path856"
     d="m 896.04,525.16 -115.67,-86.6 -5.81,-10.06"
     style="opacity:1;fill:none;fill-rule:nonzero;stroke:#ee1d23;stroke-width:5;stroke-linecap:butt;stroke-linejoin:round;stroke-miterlimit:4;stroke-dasharray:none;stroke-opacity:1" />
  <path
     id="path858"
     d="m 811.8,699.15 -4.75,-6.62 -23.5,-4.77 -12.94,-8.74 -30.63,-11.65 -13.2,-15.1 -18.22,-6.09 -9.77,2.12 -39.88,-0.79 -38.03,-8.74 -29.05,-4.24 -2.64,-33.37 -7.13,-33.63 -19.54,-76.27 -24.56,-41.31 -9.24,-6.62 -74.73,-83.16 -10.03,-18.8 -53.61,-88.45 3.17,-5.56 14.79,0.26"
     style="opacity:1;fill:none;fill-rule:nonzero;stroke:#ee1d23;stroke-width:5;stroke-linecap:butt;stroke-linejoin:round;stroke-miterlimit:4;stroke-dasharray:none;stroke-opacity:1" />
  <path
     id="path860"
     d="m 943.84,1028.87 4.75,457.63 10.03,21.19"
     style="opacity:1;fill:none;fill-rule:nonzero;stroke:#ee1d23;stroke-width:5;stroke-linecap:butt;stroke-linejoin:round;stroke-miterlimit:4;stroke-dasharray:none;stroke-opacity:1" />
  <path
     id="path862"
     d="m 991.9,690.15 5.81,-2.38 51.76,-1.32 122.27,10.86 h 29.84 l 92.69,-3.44 15.32,0.53 38.29,-0.79 15.84,-2.65 39.08,-1.32 10.3,-3.71 12.41,0.53 10.3,-6.89"
     style="opacity:1;fill:none;fill-rule:nonzero;stroke:#ee1d23;stroke-width:5;stroke-linecap:butt;stroke-linejoin:round;stroke-miterlimit:4;stroke-dasharray:none;stroke-opacity:1" />
  <path
     id="path864"
     d="m 1049.47,686.44 -3.96,-133.74 -2.9,-13.24 -24.82,-16.42 -16.11,-3.44 -23.24,1.06 -77.37,-1.06"
     style="opacity:1;fill:none;fill-rule:nonzero;stroke:#ee1d23;stroke-width:5;stroke-linecap:butt;stroke-linejoin:round;stroke-miterlimit:4;stroke-dasharray:none;stroke-opacity:1" />
  <path
     id="path866"
     d="m 774.57,436.44 -3.17,-7.42 -19.01,-18.8 -5.55,-10.86 -9.77,-37.34 -3.17,-1.85 -7.39,3.44 -22.71,-0.79 -9.24,-3.71 -28.26,-10.86"
     style="opacity:1;fill:none;fill-rule:nonzero;stroke:#ee1d23;stroke-width:5;stroke-linecap:butt;stroke-linejoin:round;stroke-miterlimit:4;stroke-dasharray:none;stroke-opacity:1" />
  <path
     id="path868"
     d="m 668.94,329.71 -11.09,-0.26 -7.92,-4.5 -12.94,-38.4 -15.32,-9.8 -20.07,-2.91 -21.65,-14.04 -11.88,-11.39 -5.28,-2.38 -96.65,-1.06 -10.56,4.24 -47.27,-1.59"
     style="opacity:1;fill:none;fill-rule:nonzero;stroke:#ee1d23;stroke-width:5;stroke-linecap:butt;stroke-linejoin:round;stroke-miterlimit:4;stroke-dasharray:none;stroke-opacity:1" />
  <path
     id="path870"
     d="m 591.83,634.53 -15.32,-1.59 -12.41,7.94 -7.92,9.27 -76.85,7.15 -138.11,29.4 -19.81,1.59 -153.16,-1.59 0.79,35.22"
     style="opacity:1;fill:none;fill-rule:nonzero;stroke:#ee1d23;stroke-width:5;stroke-linecap:butt;stroke-linejoin:round;stroke-miterlimit:4;stroke-dasharray:none;stroke-opacity:1" />
  <path
     id="path872"
     d="m 171.42,687.24 -12.15,-7.42 -6.07,-15.1 -4.23,-2.12 -31.69,12.18 -33.01,6.89 -19.01,-0.53 -6.07,-3.71"
     style="opacity:1;fill:none;fill-rule:nonzero;stroke:#ee1d23;stroke-width:5;stroke-linecap:butt;stroke-linejoin:round;stroke-miterlimit:4;stroke-dasharray:none;stroke-opacity:1" />
  <path
     id="path874"
     d="m 708.55,646.19 25.62,-1.06 7.13,-2.65 9.24,-6.89 8.45,-8.74 h 5.02 l 8.45,12.45 34.59,-14.83"
     style="opacity:1;fill:none;fill-rule:nonzero;stroke:#ee1d23;stroke-width:5;stroke-linecap:butt;stroke-linejoin:round;stroke-miterlimit:4;stroke-dasharray:none;stroke-opacity:1" />
  <path
     id="path876"
     d="m 807.05,692.53 h 9.51 l 40.11,-4.57 11.95,1.87 6.35,2.25 8.59,7.68"
     style="opacity:1;fill:none;fill-rule:nonzero;stroke:#ee1d23;stroke-width:5;stroke-linecap:butt;stroke-linejoin:round;stroke-miterlimit:4;stroke-dasharray:none;stroke-opacity:1" />
  <path
     id="path878"
     d="m 883.56,699.76 5.04,2.62 35.67,-5.06 11.02,-6.93"
     style="opacity:1;fill:none;fill-rule:nonzero;stroke:#ee1d23;stroke-width:5;stroke-linecap:butt;stroke-linejoin:round;stroke-miterlimit:4;stroke-dasharray:none;stroke-opacity:1" />
  <path
     id="path880"
     d="m 956.57,696.02 21.29,-3.18 14.05,-2.68"
     style="opacity:1;fill:none;fill-rule:nonzero;stroke:#ee1d23;stroke-width:5;stroke-linecap:butt;stroke-linejoin:round;stroke-miterlimit:4;stroke-dasharray:none;stroke-opacity:1" />
  <path
     style="fill:none;stroke:#ee1d23;stroke-linejoin:round;stroke-width:5;stroke-miterlimit:4;stroke-dasharray:none;stroke-opacity:1"
     d="m 750.02,404.28 25.38,-2.38"
     id="path881" />
</svg>
