<?xml version="1.0" encoding="UTF-8" standalone="no"?>
<!-- Created with Inkscape (http://www.inkscape.org/) -->

<svg
   version="1.1"
   id="svg2"
   width="525"
   height="550"
   viewBox="0 0 525 550"
   xmlns:xlink="http://www.w3.org/1999/xlink"
   xmlns="http://www.w3.org/2000/svg"
   xmlns:svg="http://www.w3.org/2000/svg">
  <defs
     id="defs6" />
  <image
     width="1084"
     height="1445.33"
     preserveAspectRatio="none"
     style="display:none;image-rendering:optimizeSpeed"
     xlink:href="basemap/iarosm.png"
     id="image10"
     x="-10"
     y="-135" />
  <path
     style="fill:none;stroke:#cc0000;stroke-width:5;stroke-linejoin:round;stroke-dasharray:none;stroke-opacity:1"
     d="m 225.35,86.86 -16.36,-17.88 -3.05,-0.65 -4.58,0.44 -91.38,85.06 -0.87,4.36 1.09,4.14 5.67,6.32 0.44,2.84 -0.65,2.4 -4.36,4.36 v 3.05 l 1.09,2.62 2.18,2.62 v 3.71 l -2.18,4.58 -50.38,46.89 -0.87,3.27 2.18,3.49 121.27,131.08 7.2,5.02 89.86,49.07 2.4,3.71 -1.53,17.88 3.27,5.89 11.34,11.78 15.27,9.81 7.85,10.91 3.27,1.53 4.14,-1.31 58.45,-42.75 5.23,-0.44 5.45,1.31 11.12,11.56 4.8,2.62 20.28,1.96 36.21,6.76"
     id="path1" />
  <path
     style="fill:none;stroke:#cc0000;stroke-width:5;stroke-linejoin:round;stroke-dasharray:none;stroke-opacity:1"
     d="m 109.98,153.82 -11.72,10.52 -0.22,3.49 1.09,3.49 13.25,12.6"
     id="path2" />
</svg>
