<?xml version="1.0" encoding="UTF-8" standalone="no"?>
<svg
   viewBox="0 0 1350 525"
   height="525"
   width="1350"
   id="svg2"
   version="1.1"
   xmlns:xlink="http://www.w3.org/1999/xlink"
   xmlns="http://www.w3.org/2000/svg"
   xmlns:svg="http://www.w3.org/2000/svg"
   xmlns:rdf="http://www.w3.org/1999/02/22-rdf-syntax-ns#"
   xmlns:cc="http://creativecommons.org/ns#"
   xmlns:dc="http://purl.org/dc/elements/1.1/">
  <metadata
     id="metadata8">
    <rdf:RDF>
      <cc:Work
         rdf:about="">
        <dc:format>image/svg+xml</dc:format>
        <dc:type
           rdf:resource="http://purl.org/dc/dcmitype/StillImage" />
      </cc:Work>
    </rdf:RDF>
  </metadata>
  <defs
     id="defs6" />
  <image
     xlink:href="../timelines/basemap/innosm.png"
     width="5038"
     height="3893"
     preserveAspectRatio="none"
     id="image10"
     x="-189"
     y="-1768"
     style="display:none" />
  <path
     style="fill:none;stroke:#f2f2f2;stroke-width:8;stroke-linejoin:round;stroke-opacity:1;stroke-dasharray:none"
     d="m 593.2,429.02 17.02,-0.55 9.7,2.2 30.38,11.16 11.35,3.66 10.07,-0.37 10.07,-4.58 12.26,-12.08 5.67,-16.11 -1.1,-11.9 -4.03,-16.11 -4.21,-19.95 0.37,-20.5 23.24,-121.35 6.77,-16.29 12.26,-16.84 124.46,-125.38 12.08,-6.96 13.54,-2.75 156.12,11.71 255.69,19.22 158.32,10.43 168.2,11.53 35.87,4.58 25.62,-0.55 27.27,-4.94 96.46,-21.23 115.67,-23.06 25.81,-1.28 54.73,3.48 28.74,-2.38 24.89,-5.67 29.47,-12.26 74.31,-34.78 25.99,-17.94 211.4,-188.52 42.65,-35.51 21.23,-14.28 22.7,-13.54 37.89,-14.83 38.8,-11.53 29.28,-4.76 90.97,5.67 h 35.87 l 28.92,-4.94 30.02,-10.25 66.44,-32.4 183.03,-89.5 30.16,-20.75 85.68,-64.71 28.21,-19.15 23.04,-11.13 206.3,-58.5 33.91,1.29 63.42,6.99 29.51,-2.85 24.33,-9.58 18.12,-13.98 19.41,-24.85 251.08,-394.48 89.3,-132.53 35.72,-33.65 38.57,-26.4 27.44,-13.46 18.9,-6.99 34.17,-10.09 26.92,-15.79 38.31,-25.88 205.26,-191.8 58.76,-54.36 26.66,-19.15 23.04,-9.32 23.3,-6.21 28.21,-1.29 34.17,-1.55 19.93,-2.33 19.41,-6.99 54.36,-27.44"
     id="path1" />
  <path
     id="path817"
     d="m 689.25,-43.75 5.25,10.25 5,24.5 -1.5,15.5 -13,35.5 -23.75,55 -2.25,9.75 v 18.5 l -14.25,28.5 -3.25,11.25 -2,28"
     style="opacity:1;fill:none;fill-rule:nonzero;stroke:#f2f2f2;stroke-width:8;stroke-linecap:butt;stroke-linejoin:round;stroke-miterlimit:4;stroke-dasharray:none;stroke-opacity:1" />
  <path
     id="path819"
     d="m 686.25,470.75 -6.25,-15.5 -29.25,-0.75 v -19.25 l -2.25,-18.5 -47,2.5 v -38.5 l 0.75,-26 -12.75,-63.25 -13.25,-24 8,-8 8,-14.25 4.75,0.25 8.75,9 20,-4.5 6.75,-4.5 63,12.75 3.25,2.25 5.5,0.75 6.5,-34.75 5,-12.25 7,-14.25 15.5,-18 4.5,-57.25 5,-9.25 14.5,-14.75 v -4 l -6.25,-6.25 -6.25,-4.25 -16,-16.25 h -4.25 l -2.75,21.25 3.75,4.25 9,16.75 0.5,7.75 2.75,4.75"
     style="opacity:1;fill:none;fill-rule:nonzero;stroke:#a30b2e;stroke-width:5;stroke-linecap:butt;stroke-linejoin:round;stroke-miterlimit:4;stroke-dasharray:none;stroke-opacity:1" />
  <path
     id="path827"
     d="m 698.75,260.5 -4.25,25 -3,2.5 -4.25,22.5 -52,7.25 -3.5,-3.75 1.25,-23.25 -3.25,-10.25 -3,-1.75 -37.25,12.75"
     style="opacity:1;fill:none;fill-rule:nonzero;stroke:#a30b2e;stroke-width:5;stroke-linecap:butt;stroke-linejoin:round;stroke-miterlimit:4;stroke-dasharray:none;stroke-opacity:1" />
  <path
     id="path821"
     d="m 125.5,222.75 4.5,0.75 6.25,8 11.25,0.75 5.25,2.75 0.25,2.75 -3.25,2.75 -6.5,-0.25 -9,3 -7,5.5 -4.5,12 -0.75,17 30.5,1.75 13.5,4.75 12.75,13.5 6.75,13.25 120.5,-13.25 18,-1.25 63.25,-11.75 h 35.5 l 7.75,-2 25.5,-0.25 17,-7.5 39,-9.5 36.25,32.5 28,-30.5"
     style="opacity:1;fill:none;fill-rule:nonzero;stroke:#a30b2e;stroke-width:5;stroke-linecap:butt;stroke-linejoin:round;stroke-miterlimit:4;stroke-dasharray:none;stroke-opacity:1" />
  <path
     id="path823"
     d="m 122,277.75 -35.25,0.25 -25,5.75"
     style="opacity:1;fill:none;fill-rule:nonzero;stroke:#a30b2e;stroke-width:5;stroke-linecap:butt;stroke-linejoin:round;stroke-miterlimit:4;stroke-dasharray:none;stroke-opacity:1" />
  <path
     id="path829"
     d="m 704.25,261.25 7,1.25 2.25,2.75 6.5,10.5 10.5,8.5 12,5.25 12.5,1.75 18.5,14.5 17.75,8.25 36,6.75 33,12.5 34,15.75 3.25,5.25 22.5,39 40.5,-15.25"
     style="opacity:1;fill:none;fill-rule:nonzero;stroke:#a30b2e;stroke-width:5;stroke-linecap:butt;stroke-linejoin:round;stroke-miterlimit:4;stroke-dasharray:none;stroke-opacity:1" />
  <path
     id="path831"
     d="m 755,291.25 9.25,-1 57.75,-24.25 -6.5,-12.25 -0.5,-8 -11.5,-45.5 40.25,-18.5 8.25,-19.25 7.25,-12 31,-24.25 20,-2.5 14,0.75 12.25,4.25 50,25 h 3.75 l 26.75,-29.25 10,-0.25 6.75,7 12.5,7.25 13.75,0.75 20.25,0.25 53.5,5.5 2,17 5,20.5"
     style="opacity:1;fill:none;fill-rule:nonzero;stroke:#a30b2e;stroke-width:5;stroke-linecap:butt;stroke-linejoin:round;stroke-miterlimit:4;stroke-dasharray:none;stroke-opacity:1" />
  <path
     id="path833"
     d="m 589.5,291.5 -34.5,12.5 -6.75,-6"
     style="opacity:1;fill:none;fill-rule:nonzero;stroke:#a30b2e;stroke-width:5;stroke-linecap:butt;stroke-linejoin:round;stroke-miterlimit:4;stroke-dasharray:none;stroke-opacity:1" />
  <path
     style="fill:none;stroke:#a30b2e;stroke-width:5;stroke-linejoin:round;stroke-opacity:1"
     d="m 1133.75,145 13.9,-0.59 45.82,-10.32 47.7,-27.98 5.97,-13.18 0.9,-9.1 46.07,2.4"
     id="path306" />
</svg>
