<?xml version="1.0" encoding="UTF-8" standalone="no"?>
<svg
   id="svg2"
   viewBox="0 0 1350 1425"
   height="1425"
   width="1350"
   version="1.1"
   xmlns:xlink="http://www.w3.org/1999/xlink"
   xmlns="http://www.w3.org/2000/svg"
   xmlns:svg="http://www.w3.org/2000/svg"
   xmlns:rdf="http://www.w3.org/1999/02/22-rdf-syntax-ns#"
   xmlns:cc="http://creativecommons.org/ns#"
   xmlns:dc="http://purl.org/dc/elements/1.1/">
  <metadata
     id="metadata8">
    <rdf:RDF>
      <cc:Work
         rdf:about="">
        <dc:format>image/svg+xml</dc:format>
        <dc:type
           rdf:resource="http://purl.org/dc/dcmitype/StillImage" />
      </cc:Work>
    </rdf:RDF>
  </metadata>
  <defs
     id="defs6" />
  <image
     xlink:href="basemap/jrsosm.png"
     x="-109"
     y="-205"
     width="1722"
     height="1722"
     id="image10"
     style="display:none" />
  <path
     style="fill:none;stroke:#d91a21;stroke-width:5;stroke-linecap:butt;stroke-linejoin:round;stroke-miterlimit:4;stroke-dasharray:none;stroke-opacity:1"
     id="path3006"
     d="m 738.5,897.5 -8.5,10 -24.5,30.5 -12.5,16 -37,11 -34.5,-2 -7.5,6 -18,32 -23.5,30.5 -25,33.5 -28,55 -13,36.5 -11.23,16.94 -12.45,8.1 -16.8,1.78 -9.09,-1.98 -13.83,-4.74 -3.56,0.2 -17.59,5.34 -5.14,6.32 -2.96,9.48 2.96,18.77 -2.77,9.09 -12.25,16.4 -3.75,8.3 -1.98,20.35 -4.94,8.1 -7.11,4.54 -14.03,3.56 -5.14,3.75 -5.93,13.63 -7.9,7.31 -22.13,7.31 -8.69,0.2 -5.73,-3.36 -13.04,-11.07 -5.93,-0.59 -6.52,1.38 -16.01,18.38 -6.72,2.77 -9.48,1.98 -7.9,5.53 -5.34,11.66 -3.56,13.04 -4.74,4.35 -15.41,-2.96 -5.14,-5.73 -5.34,-35.37 -3.95,-9.48 3.16,-19.56 -3.16,-8.69 -5.53,-4.15 -19.36,-0.4 -6.13,-5.93 -10.87,-17.19 -8.5,-6.13 -8.5,-1.58 -22.92,0.2 -19.17,8.89 -15.61,1.58 -13.63,-1.19 -5.93,-2.57 -2.37,-3.75 -1.58,-10.47" />
  <path
     style="fill:none;stroke:#d91a21;stroke-width:5;stroke-linecap:butt;stroke-linejoin:miter;stroke-miterlimit:4;stroke-dasharray:none;stroke-opacity:1"
     id="path3776"
     d="m 737.5,898.5 6,-8 1.5,-8.5 0.5,-9 7.5,-5.5 8.5,-0.5 9.5,5.5 21.5,8.5 7.5,-1 12.5,-4" />
  <path
     style="fill:none;stroke:#d91a21;stroke-width:5;stroke-linecap:butt;stroke-linejoin:round;stroke-miterlimit:4;stroke-dasharray:none;stroke-opacity:1"
     id="path3778"
     d="m 810.42,876.09 15.91,2.47 26.87,18.03 30.41,10.25 4.95,5.3 36.06,8.84 32.17,24.4 19.45,9.19 43.13,30.76 12.73,12.37 17.68,8.84 6.36,1.41 17.32,14.14 3.54,2.47 3.54,-1.77 32.53,-20.86 4.6,-6.72 2.47,-11.31 -2.12,-7.07 -11.67,-20.15 -0.35,-12.73 1.77,-9.55 -9.55,-55.86 -4.24,-79.55 4.6,-11.31 56.92,-57.98 11.67,-13.44 9.19,-14.85 20.51,-41.01 2.47,-13.44 1.06,-20.51 -5.67,-16.94 1.77,-16.01 -9.5,-31 -0.5,-24.5 -21.5,-21 -17,-32 -21,-13.5 -4.5,-12 -5.5,-22 2.5,-40.5 7,-2.5 31,11 27,-3 41.5,11 40,-11.5 8,-8 -0.5,-17 -25,-19 -7.5,-11 1,-19 29.5,-21.5 9.5,-14.5 -4.5,-20 -5.17,-8.57 -9.53,-6.75 -17.48,-2.52 -7.47,-2.91 -14.23,-23.12 -17.98,-20.75 -2.17,-7.11 v -21.74 l -11.66,-26.87 6.13,-32.21 5.93,-5.73 25.09,-0.79 24.3,3.95 13.04,-2.96 8.3,-7.11 2.17,-7.9 -0.99,-39.72" />
</svg>
