<?xml version="1.0" encoding="UTF-8" standalone="no"?>
<svg
   version="1.1"
   id="svg1"
   width="800"
   height="825"
   viewBox="0 0 800 825"
   xmlns:xlink="http://www.w3.org/1999/xlink"
   xmlns="http://www.w3.org/2000/svg"
   xmlns:svg="http://www.w3.org/2000/svg">
  <defs
     id="defs1" />
  <g
     id="g1"
     style="opacity:0.25"
     transform="translate(-490,-715)">
    <path
       style="fill:none;stroke:#cccccc;stroke-width:8;stroke-linejoin:round;stroke-dasharray:none;stroke-opacity:1"
       d="m 782.08,1249.79 -22.72,-29.07 -10.75,-21.74 -46.17,-118.47 -2.44,-17.34 4.4,-20.52 5.13,-12.7 24.92,-41.04 19.3,-33.22 9.28,-11.24 12.46,-12.7 22.23,-17.83 19.3,-9.04 87.45,-36.15 39.57,-30.78 103.33,-66.2 12.95,-5.13 14.17,-3.18 15.63,-1.71 40.79,1.71 12.21,-0.49 14.9,-2.69 86.23,-18.32 13.68,-6.11 9.53,-6.84 12.7,-13.19 10.75,-9.28 28.58,-17.1 22.47,-16.37 8.55,-10.99 5.62,-12.21 0.24,-19.05 -4.15,-13.19 -8.55,-11.97 -8.79,-8.55 -15.14,-5.62 -13.44,-1.71 -12.7,2.69 -22.96,5.13 h -17.1 l -14.9,-3.18 -17.34,-8.06 -16.61,-15.39 -8.55,-12.46 -4.15,-11.73 -3.91,-17.59 -17.34,-142.66 -6.6,-20.52 -64.24,-172.21 -7.82,-15.88 -13.19,-19.3 -21.01,-20.03 -23.69,-13.68 -21.74,-9.28 -29.56,-3.91 -189.8,-1.22"
       id="path1" />
  </g>
  <image
     width="1712"
     height="1712"
     preserveAspectRatio="none"
     xlink:href="../timelines/basemap/lggosm.png"
     id="image1"
     x="-644"
     y="-765"
     style="display:none" />
  <path
     style="fill:none;stroke:#f04d22;stroke-width:5;stroke-linejoin:round;stroke-dasharray:none;stroke-opacity:1"
     d="m 201.92,179.71 -4.48,-0.14"
     id="path5" />
  <path
     style="opacity:1;fill:none;stroke:#dc1820;stroke-width:5;stroke-linejoin:round;stroke-dasharray:none;stroke-opacity:1"
     d="m 735.94,61.38 -20.17,5.1 -14.44,4.25 -105.12,74.54 -119.56,38.44 -7.01,-12.95 -4.25,-1.49 -52.24,17.84 -54.79,25.48 -25.27,16.35 -3.82,0.85 -4.67,-0.21 -14.23,-3.82 -12.32,1.06 -9.77,3.19 -7.22,6.58 -4.25,7.64 -0.42,6.16 28.88,36.53 1.7,4.88 -0.42,8.28 -5.52,41.41 0.64,6.16 11.47,32.07 1.7,14.65 -0.85,11.47 -3.19,15.29 -5.73,12.53 2.12,8.71 28.46,28.46 1.49,4.25 -1.06,6.37 -35.04,47.78 -1.49,3.82 1.49,5.31 37.37,42.47 5.1,3.4 6.8,-0.42 3.19,2.12 2.97,15.08 -3.4,20.17 -6.58,58.61 -3.4,16.56 -8.28,14.65 -9.34,10.41 -11.89,10.19 -12.1,6.16 -52.88,17.41 -21.87,1.7 -16.56,0.64 -82.61,-4.03 -68.38,-19.75"
     id="path2" />
  <path
     style="opacity:1;fill:none;stroke:#dc1820;stroke-width:5;stroke-linejoin:round;stroke-dasharray:none;stroke-opacity:1"
     d="m 358.37,212.58 28.46,14.44 3.19,-0.42 5.1,-7.22 3.19,-1.27 8.28,-2.34 8.28,-6.37 21.66,-15.5 15.29,-4.25 24.85,-5.95"
     id="path3" />
  <path
     style="opacity:1;fill:none;stroke:#dc1820;stroke-width:5;stroke-linejoin:round;stroke-dasharray:none;stroke-opacity:1"
     d="m 617.41,130.23 7.68,4.84 7.64,24.21 18.48,33.98 46.08,1.06 3.61,2.55 3.61,9.98"
     id="path4" />
</svg>
