<?xml version="1.0" encoding="UTF-8" standalone="no"?>
<svg
   version="1.1"
   width="1950"
   height="1325"
   viewBox="-750 -550 1950 1325"
   id="svg2"
   xmlns:xlink="http://www.w3.org/1999/xlink"
   xmlns="http://www.w3.org/2000/svg"
   xmlns:svg="http://www.w3.org/2000/svg"
   xmlns:rdf="http://www.w3.org/1999/02/22-rdf-syntax-ns#"
   xmlns:cc="http://creativecommons.org/ns#"
   xmlns:dc="http://purl.org/dc/elements/1.1/">
  <metadata
     id="metadata8">
    <rdf:RDF>
      <cc:Work
         rdf:about="">
        <dc:format>image/svg+xml</dc:format>
        <dc:type
           rdf:resource="http://purl.org/dc/dcmitype/StillImage" />
      </cc:Work>
    </rdf:RDF>
  </metadata>
  <defs
     id="defs6" />
  <image
     xlink:href="../basemap/lonosm.png"
     x="-8150.03"
     y="-11717.57"
     width="18289.88"
     height="20602.4"
     id="image12"
     style="display:none" />
  <g
     id="rt"
     style="opacity:0.25">
    <path
       style="fill:none;stroke:#cccccc;stroke-width:8;stroke-linecap:butt;stroke-linejoin:round;stroke-miterlimit:4;stroke-dasharray:none;stroke-opacity:1"
       d="m -19.95,-2240.13 -2.55,40.13 7.29,31.76 12.36,26.43 12.57,11.64 9.33,1.24 54.16,-34.26 17.36,-8.03 28.69,-9.62 21.74,-0.16 47.5,-1.17 74.53,-9.76 20.76,-0.97 20.95,3.78 43.36,15.95 22.9,11.17 29,11.5 18.48,7.64 43.88,20.52 7.31,8.21 4.33,18.14 5,62.5 -1,21.5 -11.5,38 -10,44.5 1,9 18.5,38 5.06,13.53 -4.81,21.87 5.37,17.14 -6.19,25.19 -12.64,12.57 -24.55,29.86 -20.02,41.84 -34.59,29.05 -22.12,32.45 -9.85,20.27 -4.21,16.81 -0.34,23.69 -30.45,41.81 -34.66,58.41 -46.24,73.74 -69.67,101.51 -33.92,51.71 -17.66,28.96 -23.02,25.74 -22.13,47.9 -23.29,20.01 -52.55,30.26 -35.23,37.34 -36.84,65.53 -24,41.44 -1.33,25.11 -3,33.07 -16.62,41.52 -14.11,14.03 -33.77,61.28 -18.65,51.44 -20.64,26.53 -26.07,21.63 -16.99,21.5 -4.78,19.95 -51.14,80.67 -12.13,24.43 -33.73,44.04 -45.16,73.75 -12.82,12.91 -34.5,8.5 -73,6.5 -17,10 -13,11.5 -8.93,14.53 -3.26,18.46 9.68,47.61 -0.49,110.47"
       id="path1200" />
    <path
       d="m 527.25,3.59 -25.75,10.16 -9.91,4.54 -11.7,11.35 -9.43,12.26 -32.53,17.68 -71.77,37.83 -17.68,20.15 -10.27,25.91 -9.4,21.86 -17.45,21.52 -19.45,15.91 -13.79,9.55 -13.44,20.51 -20.86,31.47 -37.32,51.71 -14.5,13.5 -19.5,14 -21,11 -30.5,9.5 -400,124 -18.5,1 -22,-1 -17.5,-6 -13.5,-5.5 -29,-21 -32.5,-18.5 -30.5,-4 -34.5,5 -40.5,13 -257,70 -12,5 -25,12.5 -220,156 -16,16.5 -97.5,98.5 -24.5,17 -20.5,7.5 -30.5,2.5 -18.5,-2.5 -11.5,1 -13.5,5"
       id="path3899"
       style="fill:none;stroke:#cccccc;stroke-width:8;stroke-linecap:butt;stroke-linejoin:round;stroke-miterlimit:4;stroke-dasharray:none;stroke-opacity:1" />
    <path
       d="m -563,-1554 -6,18.5 1.5,20 8.5,12.5 12,10.5 18,29 6,17 -3,10.5 -23,25 -15.5,22 -4,20 -11.5,19.5 -66,50.5 -10.5,14.5 -4,17 -3.5,13.5 -15.5,12 -7.5,12.5 -2,24 -3.5,20.5 -9.5,27.5 2,26.5 -3,17 -2.5,17 -2.5,26.5 -10.5,18 -6,12.5 0.5,17 5.5,15 13.5,14 9.5,18 17,32.5 6.5,33 7,50.5 4,51 12,39 24,40 21,27 18,28 4,22.5 -2,30.5 -9,25 -25.5,56 -45,47.5"
       id="path3632"
       style="fill:none;stroke:#cccccc;stroke-width:8;stroke-linecap:butt;stroke-linejoin:round;stroke-miterlimit:4;stroke-dasharray:none;stroke-opacity:1" />
    <path
       d="m -318,-1165.5 -14,31 -17.5,65 -16.5,48 -27.5,52.5 -79.5,129.5 -40.5,68 -23.5,48.5 -44,107.5 -8.26,22.14 -24.74,54.61 -47,49.75 -69.5,67 -33.5,35.5 -40,36.5 -44,28 -56,19.5 -228.5,71 -242,79 -117.5,38.5 -46.5,22.5 -64.5,43.5"
       id="path4570"
       style="fill:none;stroke:#cccccc;stroke-width:8;stroke-linecap:butt;stroke-linejoin:round;stroke-miterlimit:4;stroke-dasharray:none;stroke-opacity:1" />
    <path
       d="m 1176,-1114 -28.5,42 -22,46.5 -18,43 -16.5,40.5 -18,83.5 -8,69.5 -6.5,57 -5.5,18.5 -15.5,37.5 -7.5,15.5 -23.5,35 -6.5,31 -10,57.5 -11.5,79.5 -6,43 1,56 -2,13 -8.5,16 -26.5,17.5 -15.5,12 -12.5,26.5 -25,52.5 -17.5,37.5 -20.5,30.5 -8,14.75 -9,14.75 -5,12.25 -0.5,11.75 3.5,10 7.5,8.25 10.5,5.75 12,3.75 111.75,9.75 32.25,6.25 31,14.25 20.5,17.75 25.5,31.75 21.5,36.5 38,42.5 42.5,39 35,28 43,19.5 54,15.5 33.5,2.5 36,-4.5 30.5,8"
       id="path4622"
       style="fill:none;stroke:#cccccc;stroke-width:8;stroke-linecap:butt;stroke-linejoin:round;stroke-miterlimit:4;stroke-dasharray:none;stroke-opacity:1" />
    <path
       d="m -85.02,-807.43 29.52,23.43 14,30 19,65 8.5,45 v 42.5 l -4,46 4.5,40.5 15.5,52 27,42.5 34,37 46,27.5 53.5,24.5 31.5,21.5 35.5,29.5 58.5,66 55,59.5 29.16,30.38 24.75,20.15 28.99,18.38 23.69,20.86 16.26,23.33 13.62,35.26 5.42,18.34 2.08,20.84 -4.76,19.09"
       id="path4716"
       style="fill:none;stroke:#cccccc;stroke-width:8;stroke-linecap:butt;stroke-linejoin:round;stroke-miterlimit:4;stroke-dasharray:none;stroke-opacity:1" />
    <path
       d="m -102,-1436 -1,79.5 v 23.5 l -10.5,40 -7.5,13 -12.5,13.75 -13.75,9 -15.75,5 -24.5,5.25 -71,48.25 -41.5,28.25 -18.25,20 -9.25,16.75 -15.25,57 2.25,33.75 6,22.5 42.5,80.5 26.5,53 18,19 19.5,15.5 22.5,8 169,52 165.5,51 91,9.5 28,-2.75 21.75,10 18.5,22.25 12.25,31 15.5,16.5 25.5,10.5 26.5,18.5 27.5,30.5 20.5,10 38,12.5 28,15 46.5,28.5 13,17 14.29,21 18.88,18.83 22.33,15.17 9.62,6.92 9.46,13.02"
       id="path4714"
       style="fill:none;stroke:#cccccc;stroke-width:8;stroke-linecap:butt;stroke-linejoin:round;stroke-miterlimit:4;stroke-dasharray:none;stroke-opacity:1" />
    <path
       d="m 750.1,-474.45 -21.09,24.45 -16,15 -20.5,10 -29.5,1 -29,-8.5 -24.5,-17.5"
       id="path3878"
       style="fill:none;stroke:#cccccc;stroke-width:8;stroke-linecap:butt;stroke-linejoin:round;stroke-miterlimit:4;stroke-dasharray:none;stroke-opacity:1" />
    <path
       d="m 212.67,797.29 85.54,-80.87 37.71,-34.79 34.87,-44.08 23.21,-42.54 14.5,-49.21 6.25,-47.29 1.96,-89.71 4.92,-143.71 1.08,-59.79 2.42,-21.79 10.08,-36.42 11.83,-33.17 26.74,-51.07 22.34,-29.72 19.94,-18.44 39.24,-38.89 25.1,-55.51 27.22,-74.58 29.34,-89.1 38.89,-104.3 6.72,-10.96 51.97,-86.62 15.55,-29.17 17.45,-31.74 10.84,-33.11 10.84,-43.72 11.06,-38.98 4.08,-37.72 -7.01,-73.09 7.44,-48.32 15.01,-38.55 45.77,-96.28 30.59,-50.75 22.81,-46.55 18.44,-71.85 14.14,-64.92 0.23,-40.17 -1.33,-37.12 -10.02,-43.98 -17.84,-41.85 -13.06,-35.68 -13.54,-31.84 -24.5,-67.84 -22.75,-40 -10,-11.96 -77.72,-52.77"
       id="path3055"
       style="fill:none;stroke:#cccccc;stroke-width:8;stroke-linecap:butt;stroke-linejoin:round;stroke-miterlimit:4;stroke-dasharray:none;stroke-opacity:1" />
    <path
       style="opacity:1;fill:none;stroke:#cccccc;stroke-width:9;stroke-linejoin:round;stroke-dasharray:none"
       d="m 344,-967 55.82,81.89 29.18,76.05 19.16,36.84 27.71,40.38 12.38,14.15 30.65,30.36 45.69,37.14 145.61,116.72 65.73,53.64 27.41,28.59 19.45,25.94 21.81,35.37 14.74,19.16 18.57,15.03 12.67,7.96 22.4,8.55 21.81,2.06 45.61,-5.55 30.53,-1.67 48.46,6.98 196.75,31.78 18.24,5.52 22.93,12.3"
       id="path1" />
  </g>
  <path
     d="m 299.75,229 6,-10.25 15.25,-20.25 3.75,-19 2.75,-6.75 6.75,-5.75 3.75,-11.5 1.5,-4.75 7,-5.25 6.5,-1 2.25,1.5 -0.75,16.75 15.25,32 1.75,2.75 4.5,3.25 8.75,23.75 3.5,2.25"
     id="path6724"
     style="fill:none;stroke:#a2c66b;stroke-width:5;stroke-linecap:butt;stroke-linejoin:round;stroke-miterlimit:4;stroke-dasharray:none;stroke-opacity:1" />
  <path
     style="fill:none;fill-rule:evenodd;stroke:#a2c66b;stroke-width:5;stroke-linecap:butt;stroke-linejoin:round;stroke-miterlimit:4;stroke-dasharray:none;stroke-opacity:1"
     d="m 517.83,356.92 -6.72,13.79 0.35,4.24 5.66,2.83 21.92,3.89 22.27,2.12 55.15,13.44 20.86,-1.77 33.59,5.66 13.08,6.01 8.49,8.84 7.07,13.79 6.72,7.42 14.5,9.19 13.08,2.12 20.51,2.83 13.08,3.89 5.3,5.3 3.54,10.25 15.2,9.55 21.21,18.38 15.56,11.31 11.67,7.42 19.45,7.78 19.09,4.24 18.03,1.41 10.61,-2.12 8.84,-4.6 7.42,1.41 25.81,12.02 4.6,-1.06 6.01,-10.25 13.79,-14.85 13.79,-8.84 16.26,1.41 8.49,6.36 53.39,49.5 8.84,10.96 5.66,16.62 21.21,55.51 1.77,6.72 12.37,19.45 10.96,21.21 7.42,12.02 8.13,8.84"
     id="path4370" />
  <path
     style="fill:none;stroke:#a2c66b;stroke-width:1;stroke-linecap:butt;stroke-linejoin:round;stroke-miterlimit:4;stroke-dasharray:none;stroke-opacity:1"
     d="m -649.85,-493.66 -20.96,21.6 -7.91,9.44 -1.03,14.61 2.25,10 3.87,5.39"
     id="path910" />
  <path
     style="fill:none;stroke:#a2c66b;stroke-width:5;stroke-linecap:butt;stroke-linejoin:round;stroke-miterlimit:4;stroke-dasharray:none;stroke-opacity:1"
     d="m -673.63,-432.61 7.63,10.61 16,9.5 17,12 8.4,11.2"
     id="path908" />
  <path
     style="fill:none;stroke:#a2c66b;stroke-width:1;stroke-linecap:butt;stroke-linejoin:round;stroke-miterlimit:4;stroke-dasharray:none;stroke-opacity:1"
     d="m -624.6,-389.3 8.1,10.8 19,27 67,51 66.5,53.5 46,43.5 48.5,50 19.5,16.5 26,9 25,3.5 19.5,14 31,29.5 20.5,12 9.5,6 41.5,19 29.25,3.75 141.25,54.25 18,2.5 34,16 14.5,13.5 20.5,9.5 16,14.5 35,39.5 85.5,124.5 13,9 17,1 19.5,-5.5 15.5,-22.5 5,-4 5.75,2.5"
     id="path4556" />
  <path
     style="fill:none;stroke:#a2c66b;stroke-width:1;stroke-linecap:butt;stroke-linejoin:round;stroke-miterlimit:4;stroke-dasharray:none;stroke-opacity:1"
     d="m 1059,-331.5 -21.5,-8.5 -23,-2 -37,1.5 -32.5,6.5 -42,16.5 -35.5,24 -85,66.5 -43,29 -14.5,4 -11.5,5 v 6.5 l 4,6 16.3,17.93"
     id="path916" />
  <path
     style="fill:none;stroke:#a2c66b;stroke-width:5;stroke-linecap:butt;stroke-linejoin:round;stroke-miterlimit:4;stroke-dasharray:none;stroke-opacity:1"
     d="m 733.8,-158.57 3.7,4.07 1,8.75 -4.75,6.75 -9,4 -3.25,4.5 -2.5,7 7.75,32.75 0.92,1.16"
     id="path914" />
  <path
     style="fill:none;stroke:#a2c66b;stroke-width:1;stroke-linecap:butt;stroke-linejoin:round;stroke-miterlimit:4;stroke-dasharray:none;stroke-opacity:1"
     d="m 727.67,-89.59 4.83,6.09 5,5.75 20.25,14.25 2.75,7.75 -0.75,8.5"
     id="path4558" />
  <path
     d="m 291.25,214.5 2.75,4.25 0.75,7.5 27,15 9.75,-1 13.75,-4 10,-0.5 34.5,-9.5 24,-4.25 25.75,-10 11,1.25 11.5,2.75 h 9 l 14.75,-3 16.5,0.25 12.75,2.75 26.5,-0.75 20.76,0.12 9.39,2.73 12.35,6.4 5.75,1.5 3,-2 9.5,-19.5 5.43,-19.94 2.31,-50.28"
     id="path6210"
     style="fill:none;stroke:#a2c66b;stroke-width:5;stroke-linecap:butt;stroke-linejoin:round;stroke-miterlimit:4;stroke-dasharray:none;stroke-opacity:1" />
  <path
     d="m 609.99,134.28 1.01,-19.03 5,-19.25 8.75,-17.5 16.75,-17.75 14.75,-11 30.5,-20.75 13.5,-10.5 89.5,-97.75 20.25,-23.75 24,-39"
     id="path6212"
     style="fill:none;stroke:#a2c66b;stroke-width:1;stroke-linecap:butt;stroke-linejoin:round;stroke-miterlimit:4;stroke-dasharray:none;stroke-opacity:1" />
  <path
     d="m 584,224.5 4.32,3.54 0.22,4.08 -6.5,11.81 -12.37,20.64 -16.57,28.89 -35.27,63.46"
     id="path6726"
     style="fill:none;stroke:#a2c66b;stroke-width:5;stroke-linecap:butt;stroke-linejoin:round;stroke-miterlimit:4;stroke-dasharray:none;stroke-opacity:1" />
</svg>
