<?xml version="1.0" encoding="UTF-8" standalone="no"?>
<svg
   viewBox="0 0 1200 1150"
   height="1150"
   width="1200"
   id="svg2"
   version="1.1"
   xmlns:xlink="http://www.w3.org/1999/xlink"
   xmlns="http://www.w3.org/2000/svg"
   xmlns:svg="http://www.w3.org/2000/svg"
   xmlns:rdf="http://www.w3.org/1999/02/22-rdf-syntax-ns#"
   xmlns:cc="http://creativecommons.org/ns#"
   xmlns:dc="http://purl.org/dc/elements/1.1/">
  <metadata
     id="metadata8">
    <rdf:RDF>
      <cc:Work
         rdf:about="">
        <dc:format>image/svg+xml</dc:format>
        <dc:type
           rdf:resource="http://purl.org/dc/dcmitype/StillImage" />
      </cc:Work>
    </rdf:RDF>
  </metadata>
  <defs
     id="defs6" />
  <g
     id="rt"
     style="opacity:0.25"
     transform="translate(-5,100)">
    <path
       style="fill:none;stroke:#cccccc;stroke-width:8;stroke-linejoin:round;stroke-dasharray:none;stroke-opacity:1"
       d="m 299.85,617.01 37.06,-102.18 21.36,-42.92 2.72,-15.08 -2.72,-18.43 -7.33,-14.45 -11.93,-13.4 -41.04,-30.99 -10.68,-17.17 -4.82,-20.1 7.12,-45.44 -0.42,-15.49 -4.19,-17.17 -8.38,-23.03 -0.21,-15.7 3.14,-16.12 7.12,-13.82 12.35,-16.96 22.19,-43.13 3.56,-15.7 -1.05,-17.17 -5.65,-31.41 v -88.99 l 3.56,-88.57 -3.14,-31.62 -5.86,-21.98 -12.98,-45.02 -0.21,-27.64 20.31,-113.27 30.78,-155.99 -0.42,-23.87 -3.35,-25.13 -26.59,-129.4 -2.09,-38.94 1.26,-28.89 5.44,-21.15 10.68,-20.31 14.24,-23.24 5.03,-16.33 2.72,-21.15 -1.05,-56.95 -4.19,-24.08 -9.21,-42.5 -9.84,-18.01 -10.05,-9.84 -44.81,-26.17 -19.47,-18.22 -15.49,-21.78 -5.86,-18.63 -7.33,-59.04 -3.35,-15.7 -39.99,-75.17 -4.61,-20.94 -4.19,-29.1 -11.31,-96.94 -7.75,-19.68 -9.63,-18.22 -69.51,-103.43 -6.07,-22.82 -12.35,-88.78 -1.88,-100.08"
       id="path1" />
    <path
       style="fill:none;stroke:#cccccc;stroke-width:8;stroke-linejoin:round;stroke-dasharray:none;stroke-opacity:1"
       d="m 299.85,617.01 -23.03,62.39 -1.88,19.89 2.51,40.83 5.03,15.08 24.92,58 0.84,17.59 -1.47,15.91 -31.2,70.98 -31.62,69.51 -3.98,19.89 2.93,25.96 8.17,20.31 12.98,17.59 18.84,14.45 18.63,6.91 54.44,7.33 24.08,9.63 19.47,17.59 13.4,21.78 4.4,18.22 0.42,21.78 -2.3,15.7 -34.97,121.44 -9.84,23.45 -56.53,92.55 -35.18,82.29 -19.05,27.22 -57.37,68.47 -33.29,40.2 -16.75,15.49 -55.49,40.83 -28.89,11.73 -37.27,11.93 -15.08,11.1 -11.1,15.28 -17.17,37.48 -7.75,37.06 -7.75,45.64 -2.93,15.49 -11.93,30.36 -11.52,8.58 -13.82,2.72 -15.49,-2.72 -12.98,-6.91 -23.24,-16.12 -13.61,-4.19 -16.12,-2.3 -18.84,1.88 -113.27,17.17 -151.59,53.18 -13.19,6.7 -37.27,24.92 -14.87,5.03 -45.02,7.54 -20.94,-0.63 -169.18,-42.71 -13.19,-0.21 -11.52,1.47 -15.91,5.23 -74.33,36.01 -148.24,39.57 -84.59,53.81 -17.38,17.17 -54.44,73.07 -54.23,61.35 -20.94,20.73 -11.31,5.86 -15.28,2.3 -16.12,-4.61 -9.84,-6.49 -8.79,-12.98 -14.45,-23.24 -14.03,-11.73 -13.4,-5.65 -24.92,-3.35 -57.79,-3.14 -12.35,-4.82 -38.94,-20.1 -74.12,-24.29 -16.75,-11.93 -36.22,-24.5 -18.43,-7.33 -31.83,-9.84 h -108.88 l -16.54,-2.72 -11.93,-6.7 -12.77,-10.05 -10.89,-18.01 -2.3,-15.49 2.72,-19.05 3.35,-17.17 6.07,-15.91 15.08,-14.87 26.38,-22.19 6.91,-15.28 1.68,-16.75 -5.65,-15.49 -10.68,-11.73 -12.14,-6.28 -9.84,-2.72 -72.86,0.63 -23.24,3.56 -55.28,4.19 -17.8,6.49 -14.03,14.03 -7.12,13.61 -12.14,35.59 -9.21,11.1 -13.19,10.05 -15.49,5.86 -27.22,6.7 -15.49,-0.42 -13.82,-4.61 -41.25,-32.45 -12.56,-19.26 -16.75,-43.13 -0.42,-12.35 3.56,-15.7 9.84,-22.61 23.45,-83.33 0.84,-15.08 -2.51,-15.7 -2.93,-23.66 1.88,-18.43 7.12,-54.23 6.49,-29.52 0.63,-27.64 3.35,-13.4 27.43,-47.95 3.35,-15.7 -0.42,-15.08 -2.72,-12.56 -8.58,-12.35 -9.63,-10.47 -15.91,-16.75 -6.49,-15.08 -1.88,-15.49 0.63,-21.57 3.77,-12.98 5.86,-20.94 1.26,-16.96 -2.72,-22.61 -4.82,-12.77 -12.56,-14.03 -12.56,-7.96 -13.82,-4.61 -13.82,-0.21 -112.23,25.75 -46.69,10.47 -108.04,-6.07 -9.63,0.21 -24.5,5.23 -138.82,31.41"
       id="path2" />
  </g>
  <image
     xlink:href="../timelines/basemap/luxosm.png"
     style="display:none"
     y="-3384.35"
     x="-3026.1"
     id="image10"
     preserveAspectRatio="none"
     height="6340.85"
     width="4373" />
  <path
     id="path836"
     d="m 54.57,1075.09 70.57,10.21 7.99,-1.81 7.03,-4.73 5.79,-7.56 4.28,-9.64 3.35,-13.43 6.47,-50.11 33.59,-37.75 4.33,0.1 29.82,26.7 29.48,9.15 36.73,17.56 3.5,-0.32 2.17,-2.49 14.03,-30.02 2.64,-13.07 -0.08,-8.42 -3.72,-15.25 -0.91,-6.76 1.99,-9.1 6.83,-12.13 19.7,-19.21 0.69,-15.55 -3.01,-14.48 -13.01,-39.08 -15.92,-32.88 -3.11,-5.03 -17.15,-2.57 -7.23,-2.15 -13.47,-7.51 -2.62,-3.85 0.57,-5.86 5.64,-15.1 9.67,-29.1 4.32,-14.52 -1.74,-5.84 -69.75,-131.53 -4.58,-42.16 -2.83,-3.49 -33.09,-2.63 -13.98,-7.39 -11.44,-7.24 -5.49,-11.19 v -3.86 l 2.44,-4.88 42.1,-45.36 9.76,-5.49 2.24,-0.2 2.03,1.22 4.47,12.81 1.63,0.81 3.05,0.41 21.76,-5.08 8.54,-0.41 56.34,-12.81 16.47,-6.1 52.27,-11.8 33.76,-8.75 28.47,-10.58 31.53,-13.63 31.73,-17.9 20.54,-13.42 22.17,-16.88 25.22,-22.98 60.81,-57.76 84,-78.1 6.1,-9.97 12.54,-11.56 13.78,-6.77 13.78,-0.7 14.48,0.47 5.37,-2.57 5.14,-4.55 5.84,-8.88 5.72,-2.8 6.66,-0.7 14.48,3.62 9.81,-0.23 21.96,-3.62 22.54,-7.94 11.21,-7.12 32,-23.59 15.42,-7.59 15.18,-4.67 13.66,-2.57 93.9,-12.61 16.82,-0.35 45.55,1.99 10.39,2.22 8.06,5.37 11.56,11.56 0.58,2.8 -0.7,3.62 -4.2,6.66 -0.47,4.67 1.05,7.71 10.16,33.17 -0.7,5.84 -3.04,6.19 -3.62,7.71 -3.97,3.62 -14.6,7.82"
     style="opacity:1;fill:none;fill-rule:nonzero;stroke:#622181;stroke-width:5;stroke-linecap:butt;stroke-linejoin:round;stroke-miterlimit:4;stroke-dasharray:none;stroke-opacity:1" />
</svg>
