<?xml version="1.0" encoding="UTF-8" standalone="no"?>
<svg
   id="svg2"
   viewBox="0 -550 750 1425"
   height="1425"
   width="750"
   version="1.1"
   xmlns:xlink="http://www.w3.org/1999/xlink"
   xmlns="http://www.w3.org/2000/svg"
   xmlns:svg="http://www.w3.org/2000/svg"
   xmlns:rdf="http://www.w3.org/1999/02/22-rdf-syntax-ns#"
   xmlns:cc="http://creativecommons.org/ns#"
   xmlns:dc="http://purl.org/dc/elements/1.1/">
  <metadata
     id="metadata8">
    <rdf:RDF>
      <cc:Work
         rdf:about="">
        <dc:format>image/svg+xml</dc:format>
        <dc:type
           rdf:resource="http://purl.org/dc/dcmitype/StillImage" />
      </cc:Work>
    </rdf:RDF>
  </metadata>
  <defs
     id="defs6" />
  <g
     id="rt"
     style="opacity:0.25">
    <path
       style="fill:none;stroke:#cccccc;stroke-width:8;stroke-linecap:butt;stroke-linejoin:round;stroke-miterlimit:4;stroke-dasharray:none;stroke-opacity:1"
       id="path3784"
       d="m -879.41,-2269.52 13.58,-44.23 6.43,-3.77 6.68,-2.74 22.11,9.31 28.72,25.19 90.89,29.26 45.5,12.5 47,-7 81.5,-15.5 66,6 82,21.5 19.5,17 41,32 65,48.5 12.5,14 33,53 15,21 45.5,31 37,16 47,16 103,44.5 99.5,23 94.5,20.5 55,9 48.94,6.05 6.5,4.55 2.65,7.44 -1.09,40.46 -16,114.5 -27.5,199 -31,198 -46,326.5 -37,251 -16.5,73 -16.5,62.5 -3,36 15.5,69.5 8.5,12 13.5,3 50,1.5" />
    <path
       style="fill:none;stroke:#cccccc;stroke-width:8;stroke-linecap:butt;stroke-linejoin:round;stroke-miterlimit:4;stroke-dasharray:none;stroke-opacity:1"
       id="path2999"
       d="m -463.43,-978.53 19.43,5.53 322.87,79.28 10.66,-2.35 12.34,-6.12 10.97,-1.39 36.56,4.39 28.92,8.66 5.09,7.78 28.9,110.04 9.23,10.18 183.46,32.53 278,32 26,-2 129,20 29.83,4.43 26.22,3.01 9.66,4.94 7.28,7.66 3.65,13.96 -35.67,205.22 -6.89,23.51 0.48,68.36 26.55,78.95 9.52,10.91 102.48,49.56 7.86,9.94 9.43,30.56 9.38,10.15 313.22,57.83 83.09,74.96 3.87,9.13 4.04,55.9 41,44 183.44,65.65 66.61,32.35 95.7,10.35 11.34,13.96 6.72,16.74 7.2,10.95 10.28,6.19 11.72,2.81 41,2 133.04,-22.84 13.14,1.9 10.52,7.29 44.1,65.07 69.42,47.19 37.81,14.55 9.27,10.56 13.86,45.34" />
  </g>
  <image
     xlink:href="../timelines/basemap/mexosm.png"
     id="image10"
     height="6684.46"
     width="12414"
     y="-5714.46"
     x="-8062.77"
     style="display:none" />
  <path
     id="path844"
     d="m 229.5,-484.5 h -43 l -16.97,-1.06 -5.09,4.35 -0.79,7.33 3.36,15.88 9.5,33 61.5,209 14,49 2,17 v 15 l -18.5,64.5 -35.5,112.5 -34,52.5 -44,62.5 -15,18.5 -36.01,26.67 -3.08,6.17 -0.41,17.16 -0.05,6.86"
     style="fill:none;stroke:#1e4584;stroke-width:1;stroke-linecap:butt;stroke-linejoin:round;stroke-miterlimit:4;stroke-dasharray:none;stroke-opacity:1" />
  <path
     id="path838"
     d="m 67.45,232.36 -0.45,60.14 6.5,16.5 41.49,39.19"
     style="fill:none;stroke:#1e4584;stroke-width:5;stroke-linecap:butt;stroke-linejoin:round;stroke-miterlimit:4;stroke-dasharray:none;stroke-opacity:1" />
  <path
     id="path832"
     d="m 114.99,348.19 111.51,105.31 25.18,20.18 55.16,14.65 23.41,20.48 9.75,25.19 34.5,92 6.07,14.84 13.63,15.41 21.2,13.32"
     style="fill:none;stroke:#1e4584;stroke-width:1;stroke-linecap:butt;stroke-linejoin:round;stroke-miterlimit:4;stroke-dasharray:none;stroke-opacity:1" />
  <path
     id="path3786"
     d="m 415.4,669.56 20.6,12.94 183,95.5 44.5,24.5 26.61,6.7"
     style="fill:none;stroke:#1e4584;stroke-width:5;stroke-linecap:butt;stroke-linejoin:round;stroke-miterlimit:4;stroke-dasharray:none;stroke-opacity:1" />
</svg>
