<?xml version="1.0" encoding="UTF-8" standalone="no"?>
<svg
   version="1.1"
   width="3850"
   height="4600"
   viewBox="0 -100 3850 4600"
   id="svg2"
   xmlns:xlink="http://www.w3.org/1999/xlink"
   xmlns="http://www.w3.org/2000/svg"
   xmlns:svg="http://www.w3.org/2000/svg"
   xmlns:rdf="http://www.w3.org/1999/02/22-rdf-syntax-ns#"
   xmlns:cc="http://creativecommons.org/ns#"
   xmlns:dc="http://purl.org/dc/elements/1.1/">
  <metadata
     id="metadata8">
    <rdf:RDF>
      <cc:Work
         rdf:about="">
        <dc:format>image/svg+xml</dc:format>
        <dc:type
           rdf:resource="http://purl.org/dc/dcmitype/StillImage" />
      </cc:Work>
    </rdf:RDF>
  </metadata>
  <defs
     id="defs6" />
  <g
     id="rt"
     style="opacity:0.25">
    <path
       style="fill:none;stroke:#cccccc;stroke-width:8;stroke-linejoin:round;stroke-opacity:1;stroke-dasharray:none"
       d="m 5409.16,2047.97 -356.66,11.71 -20.97,4.3 -32.12,0.98 -22.8,-3.93 -42.12,-10.51 -279.38,-87.11 -121.58,-36.61 -27.36,-3.86 -27.44,3.56 -42.25,11.76 -139.96,48.28 -222.92,76.24 -321.99,111.41 -285.01,100.68 -185.9,65.82 -45.19,14.15 -30.77,6.1 -27.86,2.33 -26.76,0.79 -128.24,-19.05 -164.05,-27.46 -75.27,-12.65 -73.19,-35.87 -21.24,-15.84 -17.59,-23.65 -9.3,-25.3 -8.66,-24.86 -20.74,-25.46 -39.05,-31.05 -21.18,-13.19 -74.92,-23.36 -20.41,-8.89 -16.57,-13.23 -24.45,-31.37 -17.4,-28.22 -9.56,-26.4 -17.44,-67.43 -9.01,-18.3 -9.27,-32.11 -33.41,-89.61 -11.3,-54.88 -18,-41.84 -12.58,-22.9 -15.13,-30.82 -23.08,-78.58 -2.58,-16.75 -1.26,-31.04 -5.72,-15.86 -13.06,-23.59 -6.27,-8.14 -27.24,-35.48 -63.51,-80.65 -14.47,-13.42 -16.31,-10.93 -26.66,-5.74 -44.81,2.59 -82.14,6.39 -26.9,0.69 -30.94,-0.53 -26.24,8.36 -36.53,22.62 -15,15.37 -11.47,13.73 -24.23,48.48 -11.15,43.25 -13.94,114.43 -11.6,48.85 -13.98,19.66 -26.96,28.92 -17.24,11.58 -16.93,9.97 -45.45,20.86 -28.17,10.74 -20.09,3.45 -181.02,26.04 -25.64,12.47 -19.44,16.91 -13.76,15.19 -38.32,63.87 -13.32,32.22 -27.47,47.76 -13.45,57.37 0.01,19.23 4.24,14.12 18.44,45.03 7.37,29.1 7.62,49.3 7.54,65.27 8.62,25.74 12.15,24.75 -0.62,8.7 -3.52,14.84 -7.02,11.33 -13,11.94 -25.32,10.21 -40.73,11.45 -61.84,30.58 -28.7,23.99 -110.48,86.94 -20.76,13.14 -20.33,15.55 -11.21,16.51 -8.7,16.02 -7.61,18.98 -3.51,19.19 -0.19,14.68 0.68,30.72 -2.22,16.63 -20.91,62.03 -7.58,14.3 -11.24,14.98 -10.59,10.09 -78.03,55.46 -15.26,14.48 -20.85,22.09 -38.14,44.48 -13.81,21.35 -11.82,24.71 -25.9,59.6 -12.15,15.85 -95.34,100.53 -70.65,69.13 -14.8,21.2 -28.23,43.26 -40.63,69.6 -8.75,10.66 -12.46,12.2 -13.82,8.67 -48.01,25.79 -103.02,54.32 -18.96,7.7 -159.59,51.6 -16.42,7.24 -35.85,21.36 -26.43,15.69 -18.01,5.96 -27.35,1.8 -139.88,-11.76 -29.65,1.07 -42.77,4.37 -40.66,12.78 -71.79,26.81 -21.32,11.57 -15.01,16.75 -10.34,20.04 -10.62,25.26 -9.16,12 -10.59,9.2 -16.85,9.42 -17.66,5.24 -20.17,1.77 -147.92,5.66 -20.45,-2.42 -192.67,-47.64 -22.27,-0.42 -100.27,4.18 -66.69,-3.34 -23.19,2.73 -19.21,7.33 -15.09,11.68 -28.69,25.73 -19.03,12.6 -71.89,31.88 -28.06,15.86 -15.47,11.09 -16.47,17.39 -30.96,41.01 -11.6,9.88 -49.93,23.27 -12.7,10.37 -11.78,15.13 -7.56,15.29 -4.44,18.41 -9.87,66.13 -5.83,16.68 -19.84,34.91 -28.36,53.38 -11.79,13.2 -9.13,8.71 -57.9,33.47 -10.99,12.45 -9.48,12.25 -20.8,33 -9.3,11.18 -13.57,12.86 -85.88,68.12 -25.96,25.09 -44.81,43.39 -63.24,63.71 -20.93,19.76 -15.35,10.35 -19.69,8.63 -42.22,15.09 -22.24,11.89 -20.53,19.52 -12.58,25.25 -12.38,35.79 -13.49,16.93 -24.16,22.97 -28.65,15.84 -41.6,23.39 -19.99,5.51 -31.31,2.69 -46.63,-1.25 -20.63,3.88 -18.28,7.2 -20.35,14.46 -121,85.4 -27.97,22.62 -50.22,71.43 -18.01,28.56 -11.04,32.33 -26.48,79.9 -12.06,18.58 -9.01,13.14 -180.33,131.78"
       id="path24379-2" />
    <path
       style="fill:none;fill-rule:nonzero;stroke:#cccccc;stroke-width:8;stroke-linecap:butt;stroke-linejoin:round;stroke-miterlimit:4;stroke-dasharray:none;stroke-opacity:1"
       d="m -1725.41,671.49 171.27,69.89 33.79,19.58 397.06,228.1 22.66,16.9 17.66,23.04 39.17,49.15 16.51,13.06 23.04,11.14 26.88,0.77 21.5,-4.99 93.7,-55.68 30.72,-14.98 23.04,-4.61 25.34,3.84 31.1,14.59 96.39,82.94 20.35,11.52 28.03,3.46 27.26,-2.3 238.85,-61.44 54.14,-19.2 52.99,-21.5 14.98,-11.9 13.82,-18.05 6.14,-14.59 11.14,-58.37 8.83,-24.58 14.59,-23.42 23.04,-23.42 19.58,-13.44 46.08,-19.58 23.42,-3.46 56.45,-6.14 19.2,-4.22 26.5,-12.29 16.51,-7.3 17.66,-0.77 21.12,3.46 67.97,20.35 31.87,19.2 18.43,6.14 16.13,0.77 20.74,-2.69 28.42,-11.52 15.36,-1.92 19.58,1.54 14.21,2.69 76.8,41.09 22.27,7.68 34.93,4.75 25.25,12.49 39.37,27.42 16.02,19.01 7.87,17.92 1.36,16.56 -4.34,22.27 -13.03,29.05 -1.63,23.35 1.63,10.59 8.42,19.55 27.97,37.47 14.66,11.68 18.19,9.78 17.38,3.26 99.38,-8.15 17.11,-6.79 72.5,-43.17 23.62,-8.42 20.64,-1.36 210.44,11.13 27.15,-0.27 162.65,-14.12 21.72,1.63 22.81,9.5 12.76,9.78 125.99,123.28 18.74,10.59 20.91,8.42 18.74,2.99 30.14,-4.62 185.73,-53.22 30.68,-0.81 23.08,2.17 48.06,24.98 10.32,8.15 13.31,15.48 40.46,53.76 17.66,11.57 24.15,7.1 25.4,-0.56 82.67,-6.21 45.18,-2.65 27.73,5.88 16.83,11.18 15.74,14.59 65.66,83.71 31.49,40.7 14.05,24.99 5.73,16.82 1.26,32.4 2.49,14.69 23.38,79.36 14.92,29.88 12.1,22.66 18.24,41.86 11.56,55.94 33.34,88.88 8.69,31.09 9.23,19.01 17.65,67.34 9.23,26.07 13.85,24.17 27.15,34.21 15.21,12.49 19.28,8.69 75.49,23.08 19.55,11.95 60.82,47.79 26.34,21.18 21.18,20.36 13.85,24.17 8.96,26.34 13.58,42.63 14.39,23.35 96.67,145 119.47,173.51 12.22,24.17 7.06,19.82 2.44,21.18 2.99,86.08 6.52,58.11 8.96,85.8 7.87,25.25 15.75,32.58 6.52,26.34 0.27,27.15 -33.4,125.18 -48.6,153.69 -18.19,41.82 -11.68,17.92 -73.86,97.48 -101.82,136.31 -26.61,34.21 -26.61,24.44 -24.44,34.21 -27.15,47.52 -12.76,24.44 -5.43,23.35 -18.74,94.76 -10.86,23.62 -95.31,133.05 -36.39,42.63 -19.82,17.92 -36.93,19.82 -106.71,45.07 -44.26,16.02 -23.89,14.39 -20.64,20.09 -31.77,46.43 -45.62,81.73 -23.35,36.39 -14.12,14.39 -54.58,40.46 -14.66,19.01 -10.86,17.38 -10.05,24.17 -6.79,23.62 -4.07,64.9 -14.66,189.53 -10.32,25.25 -40.19,78.74 -13.3,16.02 -43.45,36.11 -29.87,20.09 -24.98,19.55 -28.51,31.5 -130.06,153.69 -16.02,21.18 -11.95,19.55 -8.15,23.62 -11.4,62.18 -6.79,70.87 -66.8,402.68 -64.62,385.58 v 39.1 l 2.72,38.56 7.06,158.03 11.4,46.16 19.55,31.5 27.15,47.25 13.58,47.79 21.18,103.18 18.46,148.26 -2.17,50.51 -10.86,43.99 -15.21,48.33"
       id="path1006-1" />
    <path
       style="fill:none;stroke:#cccccc;stroke-width:8;stroke-linejoin:round;stroke-opacity:1;stroke-dasharray:none"
       d="m 1953.37,1108.7 194.71,216.64 62.78,80.06 51.67,66.8 44.24,90.55 25.6,57.79 11.65,30.7"
       id="path2-7" />
    <path
       style="fill:none;stroke:#cccccc;stroke-width:8;stroke-linejoin:round;stroke-opacity:1;stroke-dasharray:none"
       d="m 2360.6,1661.49 -10.22,-36.37 -5.25,-31.81 -17.14,-58.96 -23.79,-81.35 -11.77,-25.07 -4.35,-20.21 2.81,-31.21 6.4,-31.98 8.19,-28.4 15.35,-35.05 20.72,-42.21 59.35,-112.56 60.38,-124.33 9.72,-26.09 7.16,-33.77 9.21,-52.19 -1.02,-26.61 -11.51,-174.22 6.4,-40.42 15.86,-145.82 6.4,-26.61 10.23,-25.58 22,-29.93 58.84,-73.93 197.5,-220.27 46.3,-53.21 77.26,-95.42 94.14,-105.4 69.84,-80.33 27.12,-34.79 109.49,-134.05 36.33,-49.12 20.47,-34.28 88,-128.75 99.86,-154.49 125.54,-191.39 13.39,-27.86 16.02,-44.99 152.47,-439.77 74.7,-212.34 28.91,-84.42 70.61,-219.5"
       id="path1-0" />
    <path
       style="fill:none;stroke:#cccccc;stroke-width:8;stroke-linejoin:round;stroke-dasharray:none;stroke-opacity:1"
       d="m 700.97,4992.65 9.98,-10.64 15.74,-19.51 7.98,-16.41 5.32,-15.96 2,-18.18 -0.44,-19.73 -16.63,-85.13 0.22,-13.52 8.87,-39.91 4.43,-8.2 7.32,-9.09 29.26,-19.29 7.76,-14.19 2.66,-12.19 -0.44,-29.49 2.22,-11.97 33.92,-91.34 4.66,-17.29 1.11,-19.07 -10.86,-51.88 -3.99,-19.73 2,-13.3 22.39,-54.09 18.62,-24.61 12.42,-36.8 27.71,-61.19 8.2,-17.74 5.54,-21.95 0.22,-12.86 -3.55,-20.62 -7.98,-20.62 -49.64,-66.95 -21.53,-26.66 -5.89,-13 -1.9,-13.54 3.32,-18.46 4.78,-12 9.58,-11.04 12.18,-10.09 17.06,-5.74 46.04,-14.86 14.48,-10.44 8.33,-13.28 3.13,-11.74 0.1,-17.3 -13.4,-44.03 0.49,-20.74 4.01,-17.22 13.3,-28.07 5.97,-7.98 27.93,-26.25 129.88,-176.82 5.96,-14.5 0.47,-15.54 -4.51,-16.79 -38.89,-88.8 -1.24,-21.11 2.3,-12.17 3.43,-13.28 8.92,-12.79 80.75,-84.62 34.22,-41.91 188.23,-227.49 61.41,-65.23 23.28,-12.86 19.07,-5.76 17.07,-0.44 17.29,2.44 11.31,3.99 12.86,9.53 124.59,75.38 56.53,33.7 11.31,3.99 15.74,2.44 13.08,-1.33 17.74,-5.76 11.08,-7.32 11.75,-9.75 12.19,-17.74 15.3,-26.6 12.86,-13.97 11.31,-7.54 15.08,-4.66 17.51,-0.67 46.56,5.76 34.81,1.77 14.19,-0.67 17.74,-8.87 12.64,-7.32 14.63,-3.1 22.83,-3.55 -3.3,1.26 84.49,-20.54 35.11,-7.84 24.93,-9.88 27.28,-16.3 43.74,-42.17"
       id="path433" />
    <path
       style="fill:none;stroke:#cccccc;stroke-width:8;stroke-linecap:butt;stroke-linejoin:round;stroke-miterlimit:4;stroke-dasharray:none;stroke-opacity:1"
       id="path3798"
       d="m 2299,3527.36 -19.5,25.5 -16,20 -13.4,14.72 -15.37,7.93 -21.65,1.11 -45.45,-11.31 -85.45,-16.83 -32.62,-0.58 -20.02,-1.01 -173.29,3.36 -27.56,9.99 -49.84,13.79 -18.73,0.22 -26.45,-8.66 -184.1,-112.18 -16.47,-7.59 -27.83,-0.99 -24.7,7.22 -16.85,10.73 -19.25,15.4 -17.84,7.12 -19.36,2.84 -19.71,-2.35 -89.89,-54.31 -15.4,-17.29 -26.59,-53.5 -22.23,-30.83 -20.31,-23.19 -54.83,-51.05 -45.68,-25.69 -30.42,-25.9 -62.08,-60.11 -16.83,-7.13 -28.87,-3.99 -17.03,-5.72 -13.64,-8.96 -13.88,-15.59 -9.95,-20.59 -23.27,-50.26 -13.68,-16.19 -50.96,-53.71 -19.15,-31.04 -12.54,-11.75 -14.22,-6.25 -20.35,-2.73 -26.02,0.15 -15.31,-8.22 -19,-23.78 -43.48,-75.19 -18.02,-22.84 -13.99,-38.94 -9.26,-59.86 -15.1,-39.32 -13.01,-28.97 -20.64,-85.58 -15.66,-71.9 -21.69,-84.84 -4.55,-32.44 1.96,-20.2 5.44,-27.43 13.89,-25.87 60.37,-95.89 79.46,-127.46 35.22,-53.41 12.78,-25.98 12.09,-34 32.21,-130.6 4.04,-27.02 18.54,-65.06 5.66,-12.96 7.42,-8.47 10.77,-6.39 9.72,-3.36 13.67,-4.62 57.61,-2.36 102.02,-4.52 24.76,5.33 20.61,7.57 15.67,-0.05 52.67,-11.51" />
    <path
       style="fill:none;fill-rule:nonzero;stroke:#cccccc;stroke-width:8;stroke-linecap:butt;stroke-linejoin:round;stroke-miterlimit:4;stroke-dasharray:none;stroke-opacity:1"
       d="m 2752.72,1593.02 15.69,42.42 1.4,13.39 -5.21,23.45 -5.32,19.18 0.26,21.01 2.28,14.36 18.11,34.38 4.05,11.07 11.66,82.65 v 16.83 l 6.52,23.35 8.69,14.93 8.96,11.95 33.94,26.61 26.34,27.7 12.76,23.08 12.22,34.21 13.31,38.29 4.89,16.56 0.54,16.84 -2.99,22.27 -7.33,16.56 -29.6,43.17 -10.32,18.74 -6.52,19.28 -1.09,19.01 3.26,26.07 11.13,18.46 17.92,16.56 31.95,26.45 40.72,21.18 41.23,20.43 26.53,18.51 12.79,18.28 2.57,14.15 -2.67,18.7 -10.57,28.63 -16.09,40.54 -10.04,14.49 -22.55,28.73 -9.15,15.27 -4.58,20.52 -0.38,13.93 5.59,22.85 4.35,15.29 1.93,14.16 -0.23,10.94 -6.32,33.99 -1.87,23.29 6.6,102.5 4.34,13.96 15.04,33.74 0.35,11.58 -3.3,13.51 -6.94,11.56 -14.51,15.95 -20.12,13.67 -20.82,15.95 -10.84,13.35 -13.42,28.99 -8.9,8.73 -92.2,58.74 -58.41,33.35 -15.38,13.5 -16.49,22.62 -17.18,27.69 -9.85,12.82 -14.32,9.63 -224.95,108.5 -33.64,27.17 -14.94,14.58 -18.54,24.45 -15.82,38.36 -28.79,41.08 -14.5,23.39 -23.17,47.31 -11.78,14.94"
       id="path659" />
    <path
       style="fill:none;fill-rule:nonzero;stroke:#cccccc;stroke-width:8;stroke-linecap:butt;stroke-linejoin:round;stroke-miterlimit:4;stroke-dasharray:none;stroke-opacity:1"
       d="m 4713.23,2811.93 -91.78,-83.33 -14.98,-9.6 -26.11,-4.99 h -28.03 l -117.65,9.57 -51.23,-0.53 -30.8,-5.2 -52.61,-20.74 -48,-13.44 -25.48,-0.37 -25.26,6.69 -20.3,14.41 -56.45,57.98 -18.05,20.35 -26.26,11.75 -24.43,4.32 -24.96,0.43 -18.43,-1.54 -36.1,-19.97 -15.24,-1.39 -10.86,2.11 -26.51,11.95 -20.93,7.58 -47.04,5.47 -30.72,-0.38 -32.64,-13.82 -314.88,-185.47 -52.99,-53.76 -94.08,-50.3 -37.41,-21.15 -19.32,-15.35 -18.32,-8.73 -38.61,-8.53 -98.69,-41.47 -36.48,-11.34 -42.24,-8.24 -25.54,-16.12 -28.45,-14.12"
       id="path1067" />
    <path
       id="path1779"
       d="m 1373.56,2090.56 -35.11,20.98 -62.22,30.21 -12.38,6.89 -6.23,8.38 -6.46,14.17 -2.38,10.3 -0.35,13.61 0.84,9.73 9.05,29.85 1.32,20.08 -4.86,16.8 -10.71,17.88 -16.57,9.91 -17,4.5 -23.5,-4 -30.5,-11 -31.05,-11.15 -65.71,-21.18 -26.2,2.99 -25.8,12.22 -25.57,34.46 -24.19,68.35 -4.22,36.1 9.6,30.72 37.63,71.81 15.36,11.52 19.2,5.38 29.18,-0.77 16.9,4.99 32.26,29.57 81.41,62.59 11.18,17.22 4.28,17.4 -2.02,18.76 -9,18.34 -10.59,12.38 -64.51,49.15 -175.01,173.94 -27.88,20.94 -17.81,22.28 -65.63,57.33 -55.43,54.22 -24.58,29.57 -97.15,118.66 -19.58,20.74 -22.29,17.07 -84.79,45.78 -11.4,11.62 -61.66,89.14 -18.03,26.1 -17.25,12.29 -19.86,9.76 -25.46,3.54 -124.8,-1 -23.81,4.99 -89.47,29.57 -13.82,8.45 -15.36,15.74 -65.66,127.11 -12.67,8.06 -18.05,3.84 -16.13,-3.07 -39.94,-26.11 -30.34,-5.38 -26.5,8.45 -46.85,26.11 -14.51,12.42 -155.22,166.91 -19.58,13.06 -24.19,0.77 -32.26,-6.14 -38.02,8.06 -65.14,18.69 -23.18,2.69 -24.15,4.05 -15.83,6.54 -32.9,16.29 -21.34,13.01 -24.01,24.47 -13.03,13.04 -10.47,7.31 -58.98,12.44 -19.19,13.19 -32.39,17.22 -35.15,15.91 -17.52,14.69 -23.97,26.79 -9.31,16.3 -1.76,11.19 -1.83,27.6 -3.68,71.97 -1.72,28.67 2.79,12.68 6.46,12.84 24.56,26.07"
       style="fill:none;stroke:#cccccc;stroke-width:8;stroke-linecap:butt;stroke-linejoin:round;stroke-miterlimit:4;stroke-dasharray:none;stroke-opacity:1" />
    <path
       style="fill:none;stroke:#cccccc;stroke-width:8;stroke-linecap:butt;stroke-linejoin:round;stroke-miterlimit:4;stroke-dasharray:none;stroke-opacity:1"
       d="m 1126.61,1684.01 77.54,-17.79 18.52,-5.07 11.58,-8.2 14.87,-16.05 8.17,-13.75 12.28,-65.6 7.47,-16.01 59.33,-71.37 13.97,-6.97 17.43,-2.64 15.86,1.43 68.95,12.35 12.66,-1.17 17.04,-8.89 35.07,-49.34 10.45,-11.09 10.41,-6.01 12.37,-2.81 13.94,2.52 34.44,20.61 13.91,3.47 94.68,13.62 10.1,0.53 75.33,-7.18 38.88,-5.02 27.34,-6.05 22.98,-6.97 16.08,-6.99 30.76,-21.47 19.24,-9.1 16.32,-2.84 92.24,-2.8 23.17,7.72 34.92,22.14 20.48,8.31 24.53,3.52 71.03,1.97 20.76,-3.65 22.84,-8.82 35.66,-11.65 24.04,-0.9 29.36,6.36 25.21,5.63 99.66,1.39 16.65,7.81 18.88,11.67 12.48,13.32 10.83,17.97 29.45,46.2 12.95,12.38 13.42,9.34 35.62,14.04 18.29,10.18 21.53,12.02 43.84,13.65 14.13,6.84 10.77,8.84 5.42,9.38"
       id="path3001" />
    <path
       d="m 3127.61,4205.06 -27.11,-282.2 4,-27.5 17.49,-37.19 17.09,-31.44 5.88,-22.12 -0.89,-26.09 -6.12,-30.96 -25.94,-116.2 -11,-57.5 -2,-15.5 -0.33,-15.04 5,-14.41 7.31,-11.7 11.37,-12.07 79.14,-52.78 12.81,-9 10.44,-9.82 8.19,-10.82 12.89,-29.6 2.23,-17.16 0.19,-36.1 5,-30.27 13.76,-58.73 26,-116.5 1.44,-26.22 -7.44,-59.28 -8,-15 -15.98,-11.22 -23.52,-10.78 -102,-46 -18.5,-4.5 -30,1 -54,10 -25.37,0.2 -18.28,-8.46 -34.36,-18.74 -123.66,-72 -39.84,-22.5 -27.89,-15.83 -35.35,-20.19 -95.79,-39.99 -11.56,-6.98 -7.49,-9.49 -34.71,-64.07 -10.12,-13.02 -8.87,-18.67 -7.26,-31.52 -4.46,-14.74 -38.21,-86.52 -79.98,-89.2 -8.28,-22.36 -0.62,-13.55 1.89,-17 5.42,-13.7 14.89,-21.27 38.66,-38.47 42.8,-41.06 30.79,-26.77 22.46,-32.57 10.74,-31.74 2.28,-25.45 -5.22,-43.92 -9.02,-23.83 -18.3,-18.39 -23.66,-10.05 -74.6,-28.86 -46.65,-16.94 -31.32,-17.38 -32.71,-31.23 -33.85,-32.57 -9.36,-19.9 -15.26,-43.79 -13.37,-20.98 -9.61,-9.62 -15.09,-9.55 -23.07,-5.38 -23.04,-3.31 -28.1,-1.62 -28.64,3.63 -30.93,4.65 -22.89,2.05 -19.12,-4.85 -14.73,-8.66 -12.77,-12.84 -33.3,-39.95 -11.74,-19.4 -5.97,-21.18 -5.24,-79.11 1.44,-17.74 5.56,-30.85 8.4,-28.57 6.85,-42.2 -5.76,-149.95 -2.32,-102.19 -7.33,-21.99 -14.12,-22.27 -73.86,-97.75 -153.14,-172.69 -39.37,-45.07 -21.45,-11.95 -27.97,-11.68 -16.29,-13.31 -7.65,-12.97 -6.49,-18.65 -0.82,-26.25 12.53,-36.81 18.47,-53.61 -1.25,-22.26 -7.48,-30.6 -14.15,-43.93 -9.46,-61.47 -9.22,-20.35 -21.8,-19.19 -41.56,-37.64 -28.06,-42.6 -19.17,-21.92 -87.17,-87.17 -11.52,-16.13 -6.14,-22.66 -2.3,-22.27 -1.36,-26.97 2.2,-20.86 6.36,-27.74 1.42,-10.48 -4.46,-38.3 -8.25,-37.92 -10.34,-36.08 -16.19,-48.48 -1.87,-21.08 -1.36,-108.39 1.59,-34.28 15.53,-80.05 13.69,-43.54 1.98,-24.49 0.36,-48.16 8.38,-45.11 -2.1,-17 -5.71,-22.05 -10.35,-103.52 1.76,-14.74 7.21,-36.88"
       id="path3759"
       style="fill:none;stroke:#cccccc;stroke-width:8;stroke-linecap:butt;stroke-linejoin:round;stroke-miterlimit:4;stroke-dasharray:none;stroke-opacity:1" />
    <path
       d="m 1663.99,4862.26 12.16,-28.03 20.07,-43 9.27,-18.05 15.66,-16.39 19.85,-12.44 22.15,-6.62 30.31,-5.27 18.89,-9.28 14.81,-14.3 4.84,-11.53 4,-13 7.5,-41 19,-101.5 14.7,-77.94 -0.18,-16.97 1.33,-23.67 -3.89,-37.48 -4.95,-15.44 0.5,-21.5 9,-35.5 73.5,-271 35.86,-138.06 1.94,-21.01 -5.06,-19.28 -16,-59.51 -10.56,-15.4 -17.72,-14.96 -49.47,-38.24 -8.72,-11.95 -20.22,-40.3 -3.13,-14.64 -0.69,-24.64 -0.75,-114.51 2.5,-17.5 27,-38 53.99,-79.46 8.41,-21.79 1.9,-22.8 -0.08,-32.49 6.89,-38.2 7.57,-17.05 3.47,-16.83 10.87,-22.93 24.22,-33.43 14.03,-10.93 28.54,-21.31 5.59,-11.55 8.01,-15.86 11.49,-39.12 1.6,-22.76 -4.24,-15.56 -6.75,-11.8 -25.79,-28.26 -7.39,-12.56 -8.36,-18.59 -2.75,-15.1 -4.1,-66.56 2.88,-20.07 6,-17.5 12.5,-21.5 24.5,-28 5.38,-18.72 1.67,-18.06 2.23,-21.45 0.04,-32.16 -1.69,-43.01 4.6,-18.16 36.51,-85.92 1.53,-13.08 -1.09,-42.91 -2.18,-17.52 -19.16,-73.71 -7.01,-28.26 -15.6,-59.15 -6.7,-15.29 -56.77,-85.58 -53.79,-81.93 -8.41,-23.37 -2.6,-21.9 -8.32,-72.12 -11.68,-128.94 3.82,-20.05 11.08,-17.79 13.96,-13.38 42.69,-41.07 20.37,-22.5 11.01,-16.95 8.5,-21.1 4.93,-23.26 0.24,-17.81 -3.27,-17.04 -8,-14.47 -9.35,-10.78 -14.9,-12.14 -30.42,-13.38 -43.61,-20.8 -26.97,-14.17 -38.97,-20.07 -8.67,-9.51 -7.06,-10.59 -82.55,-173.66 -22.99,-49.1 -4.32,-13.84 -7.5,-71.73 -5.97,-37.01 -14.5,-42.5 -44,-151.5 -18,-61 -2.41,-27.56 -5.55,-110.02 1.62,-20.8 12.33,-36.8 11.04,-32.05 11.91,-19.44 36.07,-34.83 56,-47.5 6.5,-14 17,-51.5 13.5,-46.72 42,-67.62 75.5,-136.16 31.5,-50.5 14,-26 9.5,-40.5 -0.5,-14 -8.5,-52.5 -5.03,-32.75 -10.28,-31.18 -7.85,-19.92 -14.51,-17.7 -44.52,-39.51 -35.57,-29.28 -60.27,-52.32 -18.5,-24.37 -4.34,-22.21 -2,-29.23 0.94,-52.61"
       id="path3761"
       style="fill:none;stroke:#cccccc;stroke-width:8;stroke-linecap:butt;stroke-linejoin:round;stroke-miterlimit:4;stroke-dasharray:none;stroke-opacity:1" />
    <path
       d="m 2097.72,2218.46 37.47,-2.19 63.14,-4.28 64.72,-4.49 27.68,0.96 53.06,8.51 31.26,7.27 30.21,-6.57 34.5,-20.7 95.8,-61.34 17.28,-5.13 31.59,-2.74 76.5,-6.24 31.84,-3.56 30.78,-9.48 56.37,-17.64 83.61,-29.5 260.88,-89.22 66.21,-8.56 39.72,-2.32 20.06,4.87 16.96,9.3 16.55,19.64 8.11,20.56 0.46,33.78 4.08,25.48 17.65,22.68 22.96,9.31 19.41,-0.96 23.73,-6.68 224.72,-74.38 14.5,0.5 139,34 59,18 32.5,30.5 32.24,14.63 50.26,4.37 33.5,17.5 31,22.5 31,12 33.5,2 41,-5.5 60.5,-19"
       id="path3782"
       style="fill:none;stroke:#cccccc;stroke-width:8;stroke-linecap:butt;stroke-linejoin:round;stroke-miterlimit:4;stroke-dasharray:none;stroke-opacity:1" />
    <path
       d="m 453,362.86 12.5,65 17,92.5 3.5,25 3,27.5 -19.82,162.95 -8.83,64.17 -0.21,31.92 4.33,42.71 -2,24.11 -4.65,25.07 -10.5,30.26 -4.12,22.76 3.56,30.81 11.02,61.38 7.08,15.3 15.75,16.86 17.19,11.97 76.67,21.32 36.34,12.76 51.78,9.13 17.42,9.03 19.5,18 259,238.5 45.98,43.42 31.76,40.26 12.21,18.86 8.12,26.76 2.99,24.81 6.47,35.03 9.26,21.48 17.22,16.61 49.66,14.86 15.95,0.02 15.67,-3.22 29.71,-6.1 20.18,1.33 165.81,62.33 13.7,1.74 h 19.88 l 14.5,2.29 16.33,8.17 17.17,20.83 23.72,38.25 53.72,84.28 10,8.5 13.81,10.49 18.22,7.37 19.05,2.2 35.05,0.21 16.41,1.53 53.96,15.21 21.1,6.9 21.1,0.7 18.21,-4.96 17.2,-10.43 24.17,-22.72 25.36,-23.19 22.86,-17.73 18.78,-7.02 30.53,-1.48 14.76,3.97 33.08,9.07 76.38,33.38 39,16.5 35,27.5 31.55,26.67 16.45,28.83 11.5,44.5 5.72,16.33 7.72,9.43 13.74,10.41 47.92,26.36 11.5,8.23 14.19,17.91 21.83,55.05 10.31,24.83 12.28,26.37 15.78,27.57 38.51,73.95 9.35,17.23 8.52,10.51 11.62,4.31 22.5,4.5 43,1.5 16.84,2.5 15.84,8.67 50.98,43.48 165.06,100 44.28,32.84 60.5,57.5 57,39.5 78,52 16.5,10.5 20.5,5 h 38.5 l 44.5,3 81,18 49.49,11.66 50.37,5.01 97.64,23.33 19.69,4.77 19.69,-0.55 20.12,-6.72 36,-29.5 27.83,-27.76 16.33,-25.94 27.2,-45.1 19.15,-42.21 7.89,-20.44 5.73,-17.39 13,-16.49 19.06,-11.89 15.5,-5.33 19.33,1.55 11.32,2.74 15.95,8.57 120.73,73.2 109.8,66.37 36.31,27.24 41.24,19.95 30.57,30.35 69.5,67.2 66.74,74.32 8.33,19.57 1.49,22.27 -11.53,48.44 -12.8,46.21 -17.28,31.87 -46.85,69.89 -8.45,19.2 -0.77,17.28 5.23,14.88 6.79,9.14 9.45,8.25 25.96,14.62 29.91,25.62"
       id="path3784"
       style="fill:none;stroke:#cccccc;stroke-width:8;stroke-linecap:butt;stroke-linejoin:round;stroke-miterlimit:4;stroke-dasharray:none;stroke-opacity:1" />
    <path
       d="m 2406,-50.64 -2,48 -1,31 2.5,18 13,29.5 19.49,35.38 8.81,25.44 2.2,21.69 -2,16 -26.5,94.5 -23.5,83 -14,47 -10,18.5 -25.5,28.5 -88,80.5 -36,47 -28.53,69.49 -1.68,14.14 1.65,18.01 4.42,32.85 -10.61,39.3 -1.78,34.42 5.41,22.24 32.96,86.8 4.92,13.96 -0.27,31.57 -0.99,33.72 0.73,47.48 -8.74,56.69 -3.41,34.96 -5.3,39.14 -4.78,36.73 -3,30.5 -5.56,92.76 -13.44,118.74 -4.5,23 -6.47,66.91 -7.2,48.22 -10.33,28.37 -35.17,61 -5.01,16.26 -0.57,17.35 5,16.62 10.78,14.88 55.21,62.59 8.76,18.76 1.5,18.03 2.5,26.5 -8.49,27.59 -31.35,53.45 -6.04,15.38 -1.79,17.58 4.83,32.33 7.14,27.39 6.7,24.28 23.67,94.4 5.13,21 -1.27,19.31 -4.68,13.2 -10,13.2 -13.36,9.11 -16.48,5.78 -17.43,1.83 -38.63,2.22 -32.67,3.32 -12.23,4.97 -9.58,7.57 -7.58,8.64 -7.26,11.77 -19.55,74.64 -7.46,18.33 -13.01,15.12 -24.73,17.07 -21.6,15.07 -9.37,13.37 -5.6,11.84 -0.99,21.62 6.47,46.84 7.4,64.48 -0.41,14.82 -3.46,14.43 -4.99,10.66 -26.11,37.33 -29.72,41.76 -10.21,10.16 -9.36,4.74 -9.04,3.48 -32.44,1.21 -19.84,2.69 -19.15,8.57 -25.47,30.44 -49.08,60.06 -9.66,13.91 -5.6,8.74 -4.65,13.75 -15.13,80.15 -9.06,90.55 -4.42,16.22 -11.91,19.87 -120.57,198.47 -173.42,289.28 -91.76,138.94 -26.9,63.3 -63.34,162.76 -13.74,30.03 -81.78,118.89 -3.34,13.47 0.86,12.11 7.5,20.5 12,24 8.22,17.89 12.35,15.85 35.08,22.06 27.08,34.03 28.28,40.17 14,13 187.5,70 55.12,22.87 10.67,7.06 17.21,18.74"
       id="path3786"
       style="fill:none;stroke:#cccccc;stroke-width:8;stroke-linecap:butt;stroke-linejoin:round;stroke-miterlimit:4;stroke-dasharray:none;stroke-opacity:1" />
    <path
       d="m 1730.97,2269.05 -63.61,-17.46 -43.79,-3.43 -24.58,-6.81 -16.86,-15.76 -7.06,-16.74 -4.27,-28.29 2.52,-37.63 4.98,-23.88 8.45,-22.22 47.97,-76.34 33.22,-58.73 5.35,-21.43 4.18,-61.03 10.93,-126.57 7.39,-27.79 10.11,-15.18 13.28,-12.89 28.28,-26.87 16.81,-12.62 13.18,-6.98 108.36,-22.63 73.22,-15.25 17.91,-0.37 131.03,15 60.21,1.85 36.06,-1.41 93.18,-0.49 13.45,3.93 17.23,12.29 12.33,18.99 3.42,20.06 -3.13,26.53 0.37,26.93 7.08,30.2 10.58,24.86 26.63,54.45 11.09,25.63 2.94,26.73 -2.12,26.16 -9.9,40.31 -14.31,61.79 -32.15,137.98 -6.41,19.2 -9.09,16.8 -27.15,35.21 -26.34,21.88 -12.95,17.68 -8.96,15.91 -15.63,34.01 -14.95,17.82 -31.77,23.32 -28.97,18.54 -47.32,15.65 -82.15,11.75 -20.67,1.88 -13.58,-1.22 -17.4,-4.21 -32.67,-18.36 -175.98,-105.13 -18.43,-8.69 -19.52,-6.93"
       id="path3788"
       style="fill:none;stroke:#cccccc;stroke-width:8;stroke-linecap:butt;stroke-linejoin:round;stroke-miterlimit:4;stroke-dasharray:none;stroke-opacity:1" />
    <path
       d="m 1137.5,5335.86 45,-19.5 82.5,-35.5 76,-43.5 33,-14.5 105.5,-44 47.5,-23 31,-25.5 14,-19 11,-19 15.5,-39 13.5,-47.5 12,-32.5 19,-45.5 25.47,-63.24 13.01,-29.89 18.52,-40 9.32,-18.58 13.68,-13.8 17.79,-23.46 4.87,-11.57 0.48,-13.45 -3.15,-13.03 -7.77,-11.51 -11.22,-9.38 -74.57,-29.72 -21.08,-13.09 -13.33,-14.84 -7.16,-14.32 -32.52,-103.52 -35.69,-76.05 -15.94,-18.95 -39.7,-37.11"
       id="path3802"
       style="fill:none;stroke:#cccccc;stroke-width:8;stroke-linecap:butt;stroke-linejoin:round;stroke-miterlimit:4;stroke-dasharray:none;stroke-opacity:1" />
    <path
       style="fill:none;fill-rule:nonzero;stroke:#cccccc;stroke-width:8;stroke-linecap:butt;stroke-linejoin:round;stroke-miterlimit:4;stroke-dasharray:none;stroke-opacity:1"
       d="m 1398.63,2727.07 15.17,-44.93 36.67,-35.33"
       id="path899" />
    <path
       d="m 3589.5,1164.36 9.5,295.5 -2.5,25.5 -7,8 -14.5,5.5 -211.5,6.5 -26.5,-10 -23.04,0.16 -24.44,-9.14 -14.44,-2.36 -86.06,7.56 -30.58,1.9 -15.98,3.04 -144.24,60.62 -23.61,8.07 -40.45,5.61 -125.76,13.33 -18.46,4.26 -18.84,6.37 -27.36,11.55 -30.21,15.33 -36.97,27.31 -48.84,37.05 -51.72,37.32 -37.18,27.78 -25.31,22.85 -79.12,96.05 -7.77,16.12 -20.12,49.76 -10.48,11.4 -9.49,6.84 -16.14,11.29 -13.16,6.24 -16.85,3.43 -75.22,2.5 -136.16,3.24 -90.57,0.82 -12.98,4.47 -17.45,11.71 -13.5,20 -10.17,19.86 -11.28,9.56 -19.44,5.17 -16.61,0.41 -33.78,-1.29 -45.41,8.2 -41.9,8.87 -67.41,41.62 -16.2,7.69 -69.17,21.84 -57.32,17.47 -22.54,12.11 -74.79,34.47 -131.5,57 -65.5,28 -59,23 -29,1 -33.5,-7 -66,-23.5 -64.5,-20.75 -24,2.5 -23.75,11 -12.25,15.5 -26,29.5 -29,20.96 -59.82,17.18 -94.18,30.11 -80.47,20.23 -23.4,2.54 -23.73,-3.05 -41.4,-17.39 -42,-14.83 h -16 l -31,7 -30.5,6 -26,4.5 -20,-5 -26,-15 -35.93,-24.53 -31.82,-42.43 -33.23,-43.84 -72.73,-65.09 -11.45,-14.15 -7.02,-17.7 -19.1,-129.33 -6.36,-47.38 -14.91,-195.84 6.97,-26.13 0.42,-12.88 -2.89,-11.73 -9.16,-13.03 -24.9,-19.16 -29.5,-31.16 -16.82,-24.03 -57.27,-115.06 -1.04,-13.82 3.83,-12.04 10.71,-14.85 38.97,-15.1 14.23,-12.32 21.74,-40.68 10.55,-10.36 39.48,-16.27 16.7,-12.26 20.23,-26.01 12.79,-23.61 2.4,-21.3 -3.82,-18.01 -14.76,-17.45 -21.16,-11.05 -135.06,-50.2 -21.1,-10.87 -19.56,-16.41 -16.61,-22.92 -10.61,-21.92 -5.45,-33.06 6.16,-68.76 3.29,-65.76 0.24,-22.63 -1.29,-35.07 -2.24,-80.18 -2.12,-27.58 -4.95,-21.21 -33.94,-57.28 -22.63,-28.28 -34.65,-26.16 -49.5,-41.01 -57.28,-40.31 -39.38,-29.74 -18,-21.5 -11.5,-30.5 -2,-26 3,-31 15.5,-29"
       id="path3792"
       style="fill:none;stroke:#cccccc;stroke-width:8;stroke-linecap:butt;stroke-linejoin:round;stroke-miterlimit:4;stroke-dasharray:none;stroke-opacity:1" />
    <path
       d="m 531,2378.36 33.5,-7.5 27.5,-15.5 40.5,-23 79.5,-30 25.5,-7.5 108.5,-40.5 47,-26 95.5,-49.5 42,-20.5 15,-11.5 7.5,-14 10,-20 10,-7.5 13.5,-5.5 22,5 8.5,13.5 30.5,43 13.5,9.5 23,10.5 10,0.5 17.5,-6.5 7,-1 16,4.5 17.5,6 25,3 18.5,10.5 15,46 24.5,38.5 15,3.5 18,-3.5 70,-34 54.76,-24.96 14.84,-14.18 41.46,-15.38 41.46,-21.02 6.47,-5.45 11,-29 6,-15.5 13,-9.5 20.5,-3 52.5,-4 39.5,-6 34.5,-16 31,-15 14.5,-8.5 33.3,-6.98 49.22,2.85 5.96,-0.94 29.47,-8.78 11.76,-0.47"
       id="path3790"
       style="fill:none;stroke:#cccccc;stroke-width:8;stroke-linecap:butt;stroke-linejoin:round;stroke-miterlimit:4;stroke-dasharray:none;stroke-opacity:1" />
    <path
       d="m 1507.6,2209.72 -16.23,1.53 -7.75,-1.09 -12.12,-6.03 -7.68,-12.88 -1.37,-15.36 3.64,-11.6 6.53,-12.12 -1.15,-25.47 -3.25,-9.44 -11.72,-14.41 -30.18,-26.82 -12.98,-9.23 -12.04,-0.45 -11.2,2.63 -32.1,19.38 -24.69,14.75 -19.31,7.75 -17.66,-0.38"
       id="path3794"
       style="fill:none;stroke:#cccccc;stroke-width:8;stroke-linecap:butt;stroke-linejoin:round;stroke-miterlimit:4;stroke-dasharray:none;stroke-opacity:1" />
    <path
       d="m 3300.82,3870.61 19.22,36.83 6.22,24.56 -0.92,91.53 -20.24,51.53 -13.35,21.15 -27.52,27.44 -21.05,18.67 -33.1,19.22 -27.77,8.35 -41.8,3.47 -57.5,5 -61,6 -79.5,22.5 -78,23 -57,15 -34.63,4.19 -29.31,-8.69 -21.56,-22.01 -53,-68 -35.41,-39.98 -20.76,-9.74 -20.28,-1.86 -23.16,-0.57 -31.88,3.16 -21.35,0.69 -20.1,-8.08 -13.07,-10.53 -9.49,-21.64 -106.49,-211.44 -12,-29.5 -16,-25.5 -16.39,-12.34 -30.58,-15.61 -11.1,-11.45 -9.28,-18.16 -26.1,-77.81 -5.36,-27.23 1.22,-16.43 4.59,-16.96 18.5,-20 17,-21 33.5,-43.5 29.5,-48.5 55.24,-136.4 11.32,-50.62 15.94,-125.98 6.5,-86 1.5,-37.5 -6,-98 -6,-22 -9,-18 -28.5,-26 -14.14,-20.46 -2.55,-17.67 1.19,-59.87 v -77 l -6.07,-21.72 -20.43,-44.45 -54.63,-124.85 -12.28,-19.08 -28.53,-36.21 -13.05,-18.19 -64.47,-77.64 -31.86,-40.62 -11.19,-23.25 -4.5,-29.53 1.69,-55.85 -2.96,-22.61 -34.32,-114.73 -14,-33.19 -27.57,-47.09 -25.96,-40.97 -13.4,-24.75 -15.37,-17.52 -42.6,-26.75 -59.94,-43.25 -34.01,-29.75 -45.54,-43.51 -73.6,-80.72 -138.25,-116.56 -53.14,-57.18 -32.01,-26.53 -34.26,-26.86 -171.94,-129.55 -27.73,-20.17 -193.16,-88.42 -11.88,-8.86 -6.92,-10.49 -50.61,-111.15 -63.5,-134 -2.5,-28.5 6,-43 -0.5,-28.5 -29.5,-65 -51.5,-122.5 -55.5,-146 -25.5,-59.5 -28.56,-82.58 -2.3,-13.06 3.07,-12.67 4.22,-9.6 10.75,-11.9 60.67,-51.84 12.67,-15.74 5.76,-14.59 1.92,-17.66 -11.9,-83.71 -11.52,-34.56"
       id="path3796"
       style="fill:none;stroke:#cccccc;stroke-width:8;stroke-linecap:butt;stroke-linejoin:round;stroke-miterlimit:4;stroke-dasharray:none;stroke-opacity:1" />
    <path
       d="m 3022,1082.86 94,45.5 9,17 4,16 -3,116 -4.5,12 -16.5,9 -46.5,15.5 -200.97,63.3 -32.28,1.23 -16.25,-5.03 -27.5,-10.5 -12,-0.5 -48.5,15 -24.5,16.5 -27,21 -43.5,28 -56.5,38 -50,75 -26,26.5 -43.5,41 -92.5,69.5 -16.5,13.5 -11.43,22.07 -7.27,25.56 -6.3,18.87 -15.5,15.5 -21.22,14.92 -32.35,13.27 -23.8,12.18 -27.63,25.13 -18,29.5 -27.5,32 -10.15,7.97 -13.02,5.88 -91.28,19.3 -13.55,6.87 -23.89,23.01 -22.61,37.97 -15,45 -8.37,27.82 -6.85,15.38 -17.51,25.42 -17,16.72 -18.27,21.66 -28.5,47 -21,21.5 -9,24 -13.5,53 -14.5,46 -7,9.5 -69.52,51.02 -27.55,12.71 -101.39,36.26 -18.72,9.85 -66.24,43.38 -12.6,18.68 -2.59,13.59 3.46,20.69 41.69,37.61 6.87,20.72 -1.9,15.5 -5,11.5 -65.5,84 -28.93,37.68 -79.8,118.85 -16.11,18.9 -46.38,28.79 -279.2,284.84 -58.14,57 -31.38,30.33 -46.9,31.59 -18.14,25.53 -7,14.5 -9.5,25.5 -20.71,75.75 -1.15,20.93 v 60.1 l -3.46,29.38 -6.91,22.46 -12.86,17.86 -161.09,135.94 -34.56,27.1 -50.69,50.85 -29.95,15.74 -72.96,13.44 -18.82,9.22 -21.89,17.28 -15.36,18.43 -12.67,18.43 -7.3,18.82 -4.61,27.65 -8.45,18.43 -26.88,36.86 -19.2,27.26 -16.9,13.82 -29.18,13.06 -15.36,9.6 -25.34,26.5 -19.58,47.23 -36.48,81.02 -9.6,26.11 v 13.44 l 3.84,19.97 9.6,13.82 86.02,89.09 50.69,68.74 36.86,38.78 32.26,28.8 108.29,71.42 19.58,14.21 14.59,20.35 33.02,67.58 21.12,23.42 34.18,35.33 12.67,24.19 27.26,59.9 25.73,48.38 45.31,64.51 36.77,46.39 26.21,26.82 20.27,14.16 23.34,11.52 26.15,6.37 29.15,4.95 16.53,0.15 52.22,-3.55"
       id="path2989"
       style="fill:none;stroke:#cccccc;stroke-width:8;stroke-linecap:butt;stroke-linejoin:round;stroke-miterlimit:4;stroke-dasharray:none;stroke-opacity:1" />
    <path
       style="fill:none;fill-rule:nonzero;stroke:#cccccc;stroke-width:8;stroke-linecap:butt;stroke-linejoin:round;stroke-miterlimit:4;stroke-dasharray:none;stroke-opacity:1"
       d="m 2015.25,3011.12 65.71,-23.89 96.12,-21.18 20.92,-8.05 31,-20.5 239,-231 36,-28.5 28.5,-13.5 76.5,-39.5 119,-63.5 179,-92.5 23,-14 13.5,-14 15,-20.5 9,-24 36.5,-105 50,-145 11.5,-19.5 25.5,-23.5 29,-30 10,-20 7,-30 1,-34 -4.5,-161.5 -8.5,-82 -10,-107 -5.5,-106.5 -1,-40.5 3.5,-31 24,-125 1.5,-29.5 -2.5,-88.5 -1,-62 -8.5,-29 -21,-32.5 -65.5,-60 -48.5,-30 -344,-207.5 -214.5,-101.5 -121,-65 -45.5,-9 -78,-12 -485,-31 -31.5,-5.5 -95,-26 h -42 l -30,11 -35.5,20 -43,20 -197,74 -32.5,19.5 -24,24 -86,108.5 -31.5,29 -124.5,101 -22.5,32 -15,39.5 -4,37.5 5,43 10.5,31.5 120,245 11.5,37 6.5,50.5 21,177 5.5,23 14,25.5 113.5,211.5 26,46.5 51,124.5 8,31 7,49.5 7.75,63.5 8.25,25 11.5,16.25 58.25,71.75 15.5,26.5 51.5,97.75 17.5,23.75 18,18 18.25,11 119.75,65.5 21.75,13.5 19,17.75 16.5,16.5 16.75,21.25 75.5,110.75 11.5,20.75 51.5,109 24,46 24.75,36 19.25,21 24.5,17.5 25.75,8.25 19.5,3.5 h 26 l 24.75,-8.13"
       id="path1069" />
    <path
       style="fill:none;stroke:#cccccc;stroke-width:8;stroke-linejoin:round;stroke-miterlimit:4;stroke-dasharray:none"
       d="m 257.03,-1481.93 5.67,24.02 0.61,14.6 -1.6,14.67 -35.39,173.4 -0.09,21.5 3.08,16.47 5.05,17.84"
       id="path1490" />
    <path
       style="fill:none;stroke:#cccccc;stroke-width:8;stroke-linejoin:round;stroke-opacity:1;stroke-dasharray:none"
       d="m -1817.58,-1468.24 60.72,55.25 20.31,14.2 29.14,17.22 51.57,23.17 178.71,70.04 206.43,82.4 198.25,77.93 233.58,92.24 247.36,98.97 39.72,20.57 32.17,13.71 67.56,20.55 37.48,14.74 55.82,21.79 35.85,20.64 33.07,21.22 39.1,30.64 70.05,51.22 211.86,160.45 155.62,118.11 121.78,91.88 194.52,148.02 211.74,159.77 188.48,143.18 257.04,195.39 199.43,151.11 44.88,36.35 23.07,23.92 47.36,53.47 172.92,199.18 76.99,86.84 108.87,124.61 119.5,138.16 43.61,42.21 221.16,215.76 44.48,44.43 10.83,14.7 9.39,21.04 13.71,14.37 25.92,14.94 61.69,25.61 176.67,61.55 39.45,19.46 28.44,5.39 35.99,2.27 68.84,-0.39 11.45,1.72 25.79,7.5 25.09,13.08 20.6,16.76 12.98,17.57 27.64,55.31 19.89,45.21 10.55,27.86 25.09,47.49 5.36,20.67 -0.05,24.15 -2.18,23.34 -6.12,22.94 -17.7,55.1 -1.44,14.84 -0.47,24.8 5.24,23.51 11.65,23.55 17.18,20.4 17.97,15.5 18.78,10.85 102.99,46.09 18.68,12.17 11.52,8.87 12.94,13.74 24.69,37.9 15.1,16.7 17.3,13.31 21.86,10.63 29.28,8.7 51.11,12.25 20.58,12.78 99.52,91.59 22.43,14.48 86.44,50.2 156.33,90.49 231.21,140.11 58.71,36.11 94.36,55.18 23.29,16.24 38.41,28.46 177.34,158.29 172.88,153.1 116.7,105.43 49.86,44.17 54.64,54.02 156.83,135.13 75.5,53.05 67.04,29.65 214.06,72.02 194.39,58.86 66.15,24.33 74.23,40.41 229.5,125.76 209.71,109.64 137.36,76.35 40.5,27.39 69.28,52.05 214.59,155.24 109.87,78.1 193.84,141.82 148.43,106.3 52.18,38.32 234.08,170.49 137,95.77 114.22,71.64"
       id="path19500" />
    <path
       style="fill:none;fill-rule:nonzero;stroke:#cccccc;stroke-width:8;stroke-linecap:butt;stroke-linejoin:round;stroke-miterlimit:4;stroke-dasharray:none;stroke-opacity:1"
       d="m -883.65,3285.37 19.55,-17.11 54.31,-52.68 22.81,-19.82 12.49,-8.69 14.66,-7.87 136.85,-50.5 45.07,-17.11 26.07,-13.58 20.36,-14.93 47.79,-44.8 16.29,-18.46 45.07,-79.83 14.93,-21.99 v -0.27 l 44.26,-56.21 98.57,-124.9 13.58,-13.85 12.49,-10.32 409.74,-256.87 16.56,-7.87 21.99,-7.33 24.98,-3.26 329.37,2.72 14.39,-1.63 16.56,-4.07 354.08,-99.65 38.83,-12.49 21.72,-10.32 45.89,-25.8 14.12,-12.22 19.01,-22.27 28.51,-54.58 13.58,-19.28 25.52,-25.8 24.98,-15.75 49.15,-26.07 17.11,-13.58 10.05,-11.68 13.03,-27.97 32.86,-135.77 10.59,-39.64 3.8,-30.14 3.53,-44.8 4.89,-13.85 9.5,-19.01 15.48,-19.55 20.64,-14.39 18.19,-6.52 53.76,-5.43 183.28,-35.03 30.95,-0.54 11.68,-2.17 13.58,-7.33 18.19,-12.22 12.49,-12.76 16.56,-18.46 11.68,-16.56 4.62,-16.84 6.79,-31.23 14.12,-113.5 5.7,-23.89 5.43,-21.18 -0.54,-11.13 -3.26,-53.49 -22.54,-147.44 -9.23,-21.45 -16.84,-14.66 -27.7,-24.71 -3.26,-6.79 -8.96,-30.14 -6.25,-45.35 -6.25,-19.82 -20.77,-48.06 -5.59,-20.92 -3.9,-106.7 1.05,-42.63 9.04,-25.11 12.42,-20.5 9.37,-13.71 8.69,-18.19 3.53,-17.92 -1.09,-27.02 -6.52,-18.19 -18.74,-36.11 -3.53,-14.93 -4.34,-33.4 -16.84,-79.02 -1.36,-36.39 3.26,-26.07 12.76,-63.27 1.09,-30.41 -4.07,-27.15 -50.51,-214.51 -1.63,-21.99 -8.96,-172.97 -5.16,-16.83 -7.6,-14.12 -10.32,-13.58 -13.58,-11.68 -147.71,-96.12 -31.77,-23.08 -23.62,-26.34 -12.76,-24.17 -15.21,-55.12 -77.12,-264.74 -74.67,-268.55 -33.13,-114.59 -11.68,-21.99 -23.62,-34.21 -5.97,-15.75 -4.62,-17.65 -6.25,-69.78 -6.25,-26.34 -15.21,-61.37 -66.25,-275.88 -121.65,-459.98"
       id="path928" />
    <path
       style="fill:none;stroke:#cccccc;stroke-width:8;stroke-linejoin:round;stroke-opacity:1;stroke-dasharray:none"
       d="m 2365.55,1726.67 23.88,-8.32 22.43,-12.12 16.1,-15.92 30.93,-30.57 14.11,-8.86 93.16,-49.38 25.69,-8.32 72.86,-2.73"
       id="path3" />
    <path
       style="fill:none;stroke:#cccccc;stroke-width:8;stroke-linejoin:round;stroke-opacity:1;stroke-dasharray:none"
       d="m 0.7,3515.85 -17.97,19.98 -5.69,12.31 -2.69,27.62 -2.96,42.16 -6.35,39.88 -0.7,92.89 4.47,15.44 12.86,15.89 15.09,20.8"
       id="path37753" />
  </g>
  <image
     xlink:href="../timelines/basemap/mowosm.png"
     x="-2921.03"
     y="-2125.46"
     width="10452.5"
     height="9312.23"
     id="image10"
     style="display:none" />
  <path
     id="path832"
     d="m 68.84,1310.31 53.54,20.56 8.96,0.54 58.65,-8.96 9.5,-6.79 33.13,-83.63 5.7,-2.99 116.22,27.97 28.78,0.27 64.9,-16.56 124.9,-8.69 19.28,-2.17 21.99,-3.26 15.75,-4.89 12.49,-7.87 30.14,-45.89 0.81,-9.23"
     style="opacity:1;fill:none;fill-rule:nonzero;stroke:#007cbf;stroke-width:5;stroke-linecap:butt;stroke-linejoin:round;stroke-miterlimit:4;stroke-dasharray:none;stroke-opacity:1" />
  <path
     id="path834"
     d="m 64.46,1299.84 64.44,-170.98 4.89,-1.63 21.45,7.6 8.69,7.6 67.07,82.27 7.33,4.34"
     style="opacity:1;fill:none;fill-rule:nonzero;stroke:#007cbf;stroke-width:5;stroke-linecap:butt;stroke-linejoin:round;stroke-miterlimit:4;stroke-dasharray:none;stroke-opacity:1" />
  <path
     id="path836"
     d="m 591.04,1229.87 -12.22,14.12 -0.27,7.87 -2.44,77.93 3.8,11.95 30.14,46.43 2.72,16.56 -2.99,110.79 2.17,11.68 16.02,43.72 -13.85,54.85 -7.33,-1.9 2.44,-11.13 8.42,0.81"
     style="opacity:1;fill:none;fill-rule:nonzero;stroke:#007cbf;stroke-width:5;stroke-linecap:butt;stroke-linejoin:round;stroke-miterlimit:4;stroke-dasharray:none;stroke-opacity:1" />
  <path
     id="path838"
     d="m 672.77,1167.96 8.42,-6.79 189.26,-10.59 42.63,24.98 3.53,-0.27 15.48,-7.6 118.39,42.63 35.03,14.93"
     style="opacity:1;fill:none;fill-rule:nonzero;stroke:#007cbf;stroke-width:5;stroke-linecap:butt;stroke-linejoin:round;stroke-miterlimit:4;stroke-dasharray:none;stroke-opacity:1" />
  <path
     id="path840"
     d="m 940.5,1171.49 -5.7,7.87 -4.07,-1.09 -8.69,-16.56 -1.09,-11.13 11.95,-21.99 40.73,-25.52 49.69,-13.03 13.85,2.99 1.9,-3.53 v -13.3 l -20.64,-46.7 -15.49,6.5 -9.22,-17.09"
     style="opacity:1;fill:none;fill-rule:nonzero;stroke:#007cbf;stroke-width:5;stroke-linecap:butt;stroke-linejoin:round;stroke-miterlimit:4;stroke-dasharray:none;stroke-opacity:1" />
  <path
     id="path842"
     d="m 203.57,520.9 16.29,-46.7 17.38,-21.99 17.65,-14.12 21.18,-10.59 26.61,-5.97 37.74,-4.07 36.11,0.27 22.54,2.72 26.34,7.6 18.46,13.85 17.65,16.84 10.86,21.99 16.29,87.16 -18.46,165.91 1.9,3.8 121.92,17.11 16.29,7.33 0.81,5.43 -16.29,136.58 -13.58,60.01 -10.59,29.05 -8.96,13.85 -0.54,4.07 1.36,5.16 4.07,3.53 h 6.52 l 5.7,-2.17 h 7.06 l 24.71,10.86 4.07,5.97 41,15.21 20.36,11.4 94.49,46.16 9.23,13.03 10.32,11.13 1.63,22.81"
     style="opacity:1;fill:none;fill-rule:nonzero;stroke:#007cbf;stroke-width:5;stroke-linecap:butt;stroke-linejoin:round;stroke-miterlimit:4;stroke-dasharray:none;stroke-opacity:1" />
  <path
     id="path844"
     d="m 1018.43,1029.48 143.37,-65.44 -19.55,-44.26 0.54,-4.34 10.32,-12.22 10.05,-4.89 16.02,-52.68 46.7,-72.23 2.72,-11.95 5.43,-15.21 11.13,-11.13 6.52,-4.07 8.15,-16.29 -32.58,-16.84 -6.25,1.63 -14.12,9.23 -7.33,0.54 -2.44,7.6 2.17,3.8 3.8,-0.54 1.36,-1.63 2.44,-9.23"
     style="opacity:1;fill:none;fill-rule:nonzero;stroke:#007cbf;stroke-width:5;stroke-linecap:butt;stroke-linejoin:round;stroke-miterlimit:4;stroke-dasharray:none;stroke-opacity:1" />
  <path
     id="path846"
     d="m 1259.83,714.77 140.65,65.98 29.05,-5.97 26.88,62.72 4.34,3.53 41.27,88.52 6.79,6.79 5.7,1.9 28.51,2.99 9.23,30.14 v 13.58 l -1.36,10.59 34.21,68.7 2.99,1.63 14.39,-6.25 53.22,122.46 16.56,-4.07"
     style="opacity:1;fill:none;fill-rule:nonzero;stroke:#007cbf;stroke-width:5;stroke-linecap:butt;stroke-linejoin:round;stroke-miterlimit:4;stroke-dasharray:none;stroke-opacity:1" />
  <path
     id="path848"
     d="m 2012.1,955.65 -9.79,-10.18 9.22,-4.61 v 20.74 l 2.5,2.69 21.31,1.73 1.73,1.73 v 8.06 l 1.73,2.5 88.13,0.77 16.58,-6.21 31.23,2.57 4.61,-3.65 25.54,-24.58 59.71,-54.72 13.63,6.53 34.75,-61.82 6.72,-8.26 40.13,-71.62 10.75,-6.34 59.14,-81.79 1.15,-10.56 18.43,-20.93 25.92,-34.94 3.65,-7.87 4.8,-22.66 1.15,-15.94 -1.92,-17.47 -1.73,-8.83 -5.18,-7.1 -45.89,-52.99 -20.35,-23.62 -8.83,-16.32 -5.95,-17.86 -3.65,-21.12 v -12.1 l 1.73,-14.02 16.7,-59.71 14.21,-49.34 -0.58,-6.91 -2.88,-4.99 -6.14,-3.46 -98.31,-27.07 -19.58,-1.92 -17.86,-0.77 -69.89,13.25 -5.57,-1.54 -2.69,-3.84 -17.86,-108.48 1.54,-6.91 69.31,-129.99 -1.54,-3.26 -10.18,-1.54 -2.3,3.07 0.38,2.5 6.14,12.67"
     style="opacity:1;fill:none;fill-rule:nonzero;stroke:#007cbf;stroke-width:5;stroke-linecap:butt;stroke-linejoin:round;stroke-miterlimit:4;stroke-dasharray:none;stroke-opacity:1" />
  <path
     id="path850"
     d="m 2278.22,899.01 36.48,23.04 9.02,8.45 48.38,29.38 148.42,76.99 40.9,13.25 27.26,23.81 16.7,4.8 2.88,-11.14 26.11,-16.32 22.46,10.56 15.17,14.98 22.27,15.17 15.74,25.15 8.26,6.53 38.4,24.77 29.57,31.87 16.9,79.3 39.17,43.78 22.46,47.62 1.34,4.42 -1.34,2.88 -4.03,4.61 3.84,69.89 8.45,9.41 22.66,130.75 4.03,15.55 230.21,-15.55 3.65,-3.26 0.58,-2.88 -1.92,-24 2.11,-5.95 13.06,-14.98 129.22,-4.03 2.3,-4.22 -2.88,-17.09 1.34,-2.88 27.26,-4.99 19.97,-9.22 28.61,-14.59 49.34,-26.5 55.87,-13.82 18.24,-2.11 43.97,-1.34 272.45,-8.26"
     style="opacity:1;fill:none;fill-rule:nonzero;stroke:#007cbf;stroke-width:5;stroke-linecap:butt;stroke-linejoin:round;stroke-miterlimit:4;stroke-dasharray:none;stroke-opacity:1" />
  <path
     id="path852"
     d="m 2605.39,1078.73 16.17,18.36 1.44,6.66 -19,41 60.75,81.75 0.25,4.25 -32,51 -8.5,28.25 -12,20.75 -21.25,39 -13.18,56.38 -19.3,7.57 -0.88,3.54 4.24,11.84 9.02,-3.18 -5.13,-15.2"
     style="opacity:1;fill:none;fill-rule:nonzero;stroke:#007cbf;stroke-width:5;stroke-linecap:butt;stroke-linejoin:round;stroke-miterlimit:4;stroke-dasharray:none;stroke-opacity:1" />
  <path
     id="path854"
     d="m 1740.65,1679.6 -6.89,7.25 -2.65,0.35 -3.89,-2.12 0.35,-4.77 6.72,-5.83 4.6,4.6 5.66,-1.06 8.66,-9.37 92.98,-110.66 36.77,-9.9 4.6,-5.3 23.69,-2.3 12.37,9.55 43.31,26.16 0.35,2.47 -18.92,32.17 4.07,6.19 27.75,9.72 8.49,8.13 32.53,11.67 7.6,-0.88 4.24,-3.01 14.5,-17.85 2.83,-0.53 18.03,10.96 35.36,12.73 33.06,-0.35 1.41,-13.44 4.24,-22.63 4.07,-1.41 9.72,4.6 10.08,0.53 63.64,13.08 30.76,-1.77 28.81,34.83 8.49,15.91 7.25,7.42 6.19,-5.13 -7.25,-7.42 -6.36,5.13"
     style="opacity:1;fill:none;fill-rule:nonzero;stroke:#007cbf;stroke-width:5;stroke-linecap:butt;stroke-linejoin:round;stroke-miterlimit:4;stroke-dasharray:none;stroke-opacity:1" />
  <path
     id="path856"
     d="m 2305.27,1684.73 16.68,18.66 7.17,2.84 11.32,-6.83 37.48,-16.97 47.38,-37.83 19.27,-13.08 38.01,-35.18 35,-36.59 4.24,-5.13 5.83,-14.85 40.84,-55.51 13.79,-12.37"
     style="opacity:1;fill:none;fill-rule:nonzero;stroke:#007cbf;stroke-width:5;stroke-linecap:butt;stroke-linejoin:round;stroke-miterlimit:4;stroke-dasharray:none;stroke-opacity:1" />
  <path
     id="path858"
     d="m 2571.14,1445.91 11.14,25.99 74.95,-50.38 15.91,-7.78 106.42,-24.22 12.55,-1.06 41.01,-0.18 153.09,-47.73 2.3,-3.89 -20.33,-65.41 2.3,-3.89 12.73,-3.89 1.77,-3.01 -18.03,-61.52 0.71,-8.84 139.83,-143.01 20.33,-14.5 56.75,-41.19 4.95,-5.3 18.21,-15.56 9.37,-11.67 111.37,-95.81 -5.66,-6.72 -11.31,8.66 -1.06,13.79"
     style="opacity:1;fill:none;fill-rule:nonzero;stroke:#007cbf;stroke-width:5;stroke-linecap:butt;stroke-linejoin:round;stroke-miterlimit:4;stroke-dasharray:none;stroke-opacity:1" />
  <path
     id="path860"
     d="m 2694.28,1091.98 15.45,-16.77 21.04,-10.25 15.03,-8.84 7.95,-11.67 4.24,9.37 -7.6,3.01 -4.07,-1.59"
     style="opacity:1;fill:none;fill-rule:nonzero;stroke:#007cbf;stroke-width:5;stroke-linecap:butt;stroke-linejoin:round;stroke-miterlimit:4;stroke-dasharray:none;stroke-opacity:1" />
  <path
     id="path862"
     d="m 2753.75,1044.45 17.5,-16.62 13.08,-4.95 49.67,-14.14 19.45,7.78 8.84,5.3 39.07,29.88 4.24,0.53 14.5,-18.92 5.48,0.71 7.78,4.07 83.08,41.37 24.75,24.84 1.68,-4.07 -1.41,-6.98 -5.75,-4.95 -19.27,-8.84"
     style="opacity:1;fill:none;fill-rule:nonzero;stroke:#007cbf;stroke-width:5;stroke-linecap:butt;stroke-linejoin:round;stroke-miterlimit:4;stroke-dasharray:none;stroke-opacity:1" />
  <path
     id="path864"
     d="m 3046.41,1110.12 -5.21,-5.83"
     style="opacity:1;fill:none;fill-rule:nonzero;stroke:#007cbf;stroke-width:5;stroke-linecap:butt;stroke-linejoin:round;stroke-miterlimit:4;stroke-dasharray:none;stroke-opacity:1" />
  <path
     id="path866"
     d="m 1894.25,1630 21.75,-13.25 4.75,20.25 -15.5,4.5 -13.75,-15.5 -5.5,-29.75 v -19.25 l -4.82,-28.21"
     style="opacity:1;fill:none;fill-rule:nonzero;stroke:#007cbf;stroke-width:5;stroke-linecap:butt;stroke-linejoin:round;stroke-miterlimit:4;stroke-dasharray:none;stroke-opacity:1" />
  <path
     id="path868"
     d="m 1887.55,1542.78 -14.14,-62.4 1.41,-2.65 80.43,-10.61 1.94,1.77 0.71,25.46 -3.71,9.55 -22.45,36.59 -6.87,9.52"
     style="opacity:1;fill:none;fill-rule:nonzero;stroke:#007cbf;stroke-width:5;stroke-linecap:butt;stroke-linejoin:round;stroke-miterlimit:4;stroke-dasharray:none;stroke-opacity:1" />
  <path
     id="path870"
     d="m 2444.57,1631.52 16.18,17.73 13,20.25 11.75,15 26,-20.75 33.5,29 21.75,176.75 -1.75,14.25 34.25,5.16 242.54,147.79 m -414.54,5.55 -8.25,-17.5 -5.5,-4.75 -5.75,-3 -10.5,-1.5 1.75,-16.75 -14.95,-1.42 -0.3,5.42 2.25,2.25 11.5,1.75"
     style="opacity:1;fill:none;fill-rule:nonzero;stroke:#007cbf;stroke-width:5;stroke-linecap:butt;stroke-linejoin:round;stroke-miterlimit:4;stroke-dasharray:none;stroke-opacity:1" />
  <path
     id="path872"
     d="m 2895,1567 -33.75,-5 -1.25,-19.5 28.25,-4.75"
     style="opacity:1;fill:none;fill-rule:nonzero;stroke:#007cbf;stroke-width:5;stroke-linecap:butt;stroke-linejoin:round;stroke-miterlimit:4;stroke-dasharray:none;stroke-opacity:1" />
  <path
     id="path874"
     d="m 3147.41,1521.87 -2.91,-6.62"
     style="opacity:1;fill:none;fill-rule:nonzero;stroke:#007cbf;stroke-width:5;stroke-linecap:butt;stroke-linejoin:round;stroke-miterlimit:4;stroke-dasharray:none;stroke-opacity:1" />
  <path
     id="path876"
     d="m 2899.73,1588.49 -5.98,30.51 3,3.5 18.25,4.25 -0.25,14.5 v 7.5 l 167,323.75 7,12.75 37.25,-13 4.75,-4 13.5,-5.25 1,-18.25 2,-5.5 3.5,-1.25 3.5,2.25 0.75,11.25 3,4.5 3.25,1.25 9.75,-1.75 6.5,0.25 266.25,-91.25 11.25,-15.25 9.25,4.25 64.5,196 5.25,1.5 76.25,-25.75 158,39.75 -23.25,96.75"
     style="opacity:1;fill:none;fill-rule:nonzero;stroke:#007cbf;stroke-width:5;stroke-linecap:butt;stroke-linejoin:round;stroke-miterlimit:4;stroke-dasharray:none;stroke-opacity:1" />
  <path
     id="path878"
     d="m 3443.75,1864.5 14.25,-4.75 3,-7.5"
     style="opacity:1;fill:none;fill-rule:nonzero;stroke:#007cbf;stroke-width:5;stroke-linecap:butt;stroke-linejoin:round;stroke-miterlimit:4;stroke-dasharray:none;stroke-opacity:1" />
  <path
     id="path880"
     d="m 2914.5,1643 -74.25,63.75 -4.5,7.5 -51,42 -7.75,11.25 -16.5,8.5 -43,47.25 1,3.5 2.25,1.75 6.5,1.5 51.75,42 14,5 82,56.5 2,5.5 -3.25,86 -31.96,11.69 10.21,32.26 33.25,-11.2 169,-58.25 34.5,-14.25"
     style="opacity:1;fill:none;fill-rule:nonzero;stroke:#007cbf;stroke-width:5;stroke-linecap:butt;stroke-linejoin:round;stroke-miterlimit:4;stroke-dasharray:none;stroke-opacity:1" />
  <path
     id="path884"
     d="m 2623.5,1904 -12.25,23.5 -1.75,25.5 5,3.5 -57.5,73 -31.5,75 -3.5,4.75 -6,1.25 -12,-3.25 -9.5,-1.25 -3.5,2.5 -12,20.75 10.5,87.75 19.5,-3 2.5,23.5 -6.25,9.75 -1.75,10.5 12,9.5 192.75,35.25 -3,15.5 -4.25,12.5 10.25,4 12.5,-29.25 -15.5,-2.75"
     style="opacity:1;fill:none;fill-rule:nonzero;stroke:#007cbf;stroke-width:5;stroke-linecap:butt;stroke-linejoin:round;stroke-miterlimit:4;stroke-dasharray:none;stroke-opacity:1" />
  <path
     id="path886"
     d="m 2479,2129.25 -11,-0.25 -26.25,-48.5 -14.5,-38.25"
     style="opacity:1;fill:none;fill-rule:nonzero;stroke:#007cbf;stroke-width:5;stroke-linecap:butt;stroke-linejoin:round;stroke-miterlimit:4;stroke-dasharray:none;stroke-opacity:1" />
  <path
     id="path890"
     d="m 2503.5,2257.75 -20.5,50.5 -16.25,25.75 -15.25,27.75 -48.5,16.75 -2,4.75 14.75,38.75 8,32.25 2,25.25 1.5,22 84.54,28.35 4.46,5.15 56.5,135.25 7.5,2.75 7.75,-1.25 100.75,-52.25 10.25,-4.75 1.5,-3.5 -3.25,-3 -4.5,1.5 -3.25,3.25 -2.5,8"
     style="opacity:1;fill:none;fill-rule:nonzero;stroke:#007cbf;stroke-width:5;stroke-linecap:butt;stroke-linejoin:round;stroke-miterlimit:4;stroke-dasharray:none;stroke-opacity:1" />
  <path
     id="path892"
     d="m 2433,2368.75 34.5,-35.75"
     style="opacity:1;fill:none;fill-rule:nonzero;stroke:#007cbf;stroke-width:5;stroke-linecap:butt;stroke-linejoin:round;stroke-miterlimit:4;stroke-dasharray:none;stroke-opacity:1" />
  <path
     id="path894"
     d="m 2403,2378.5 -51,19.75 -38,30.5 -3.5,-1.5 3.25,-8.5 -85.5,-39 -38.5,3.75 -2,3.5 1.25,9 1.75,18 2.5,7.25 0.5,25.75 -7.5,51 -28.5,111 2.75,16.75 -3.25,44 -3.5,3.5 -69.75,3 1.75,22 -3.25,27.25 4.25,36.25 -0.25,3.75 -3.25,5 -10.75,12 -5.5,5.25 -3.37,4.65 -0.75,22.6 -3.5,19.84 -7.78,23.51 -0.88,17.5 9.37,83.44 12.42,99.96 10.5,72.25 78.25,22.75 121.75,25.75 7.25,-1.75 109,22.25 36.5,3.5 4,-24.5 217,-102.75 8.25,-8.75"
     style="opacity:1;fill:none;fill-rule:nonzero;stroke:#007cbf;stroke-width:5;stroke-linecap:butt;stroke-linejoin:round;stroke-miterlimit:4;stroke-dasharray:none;stroke-opacity:1" />
  <path
     id="path896"
     d="m 2084,2676.25 -25.5,-0.25 -4.25,-3.25 -126,-5.5 -3,16 -0.5,9 2,11.5 7,22 30.25,-3 -1,32.25 33.5,60.25 0.5,9.5 5.25,10.25 v 3.75 l -48,93 -98.5,68.25 -7,9 -85.75,141.25 -6.25,4.75 -4.25,7 -7.88,-3 3.62,-6.5 8.5,2.5"
     style="opacity:1;fill:none;fill-rule:nonzero;stroke:#007cbf;stroke-width:5;stroke-linecap:butt;stroke-linejoin:round;stroke-miterlimit:4;stroke-dasharray:none;stroke-opacity:1" />
  <path
     id="path898"
     d="m 1744.62,3159 -12.64,8.71 -1.77,3.18 3.36,6.01 -0.18,3.89 -37.65,24.22 -6.72,-1.59 -213.37,-129.58 -16.09,21.92 h -4.24 l -132.23,-134 -6.36,5.83 6.54,6.36 6.54,-5.66"
     style="opacity:1;fill:none;fill-rule:nonzero;stroke:#007cbf;stroke-width:5;stroke-linecap:butt;stroke-linejoin:round;stroke-miterlimit:4;stroke-dasharray:none;stroke-opacity:1" />
  <path
     id="path900"
     d="m 1475.66,3073.84 67.88,-99.17 275.46,-274.92 29.25,-1.5 76.75,-20"
     style="opacity:1;fill:none;fill-rule:nonzero;stroke:#007cbf;stroke-width:5;stroke-linecap:butt;stroke-linejoin:round;stroke-miterlimit:4;stroke-dasharray:none;stroke-opacity:1" />
  <path
     id="path902"
     d="m 2058.5,2676 -4.75,4.25 -127,-5"
     style="opacity:1;fill:none;fill-rule:nonzero;stroke:#007cbf;stroke-width:5;stroke-linecap:butt;stroke-linejoin:round;stroke-miterlimit:4;stroke-dasharray:none;stroke-opacity:1" />
  <path
     id="path904"
     d="m 1928.25,2667.25 32.75,-152 13.25,-82.25 8.25,-0.25"
     style="opacity:1;fill:none;fill-rule:nonzero;stroke:#007cbf;stroke-width:5;stroke-linecap:butt;stroke-linejoin:round;stroke-miterlimit:4;stroke-dasharray:none;stroke-opacity:1" />
  <path
     id="path950"
     d="m 2187.75,2387 -10,-19.25 -15.75,-46 -8.5,-16.25 -10.25,-18.25 -11.25,-35.5 -3.75,-27.5 0.25,-18.5 3.25,-5.75 13.75,-11.75 9.25,-2.25 22,-22.5 25.46,-30.29 26.34,-33.94 3.01,-9.19 6.89,-12.2 3.89,-2.12 10.25,-4.6 6.54,-0.88 6.54,-3.71 3.89,-5.66 11.31,-24.04 8.84,-30.76 0.71,-9.19 -1.77,-8.84 -11.14,-22.63 -6.36,-29.17 -1.59,-9.55 -1.06,-10.25 -13.79,-23.16 -21.92,-20.51 -20.33,-16.97 -6.01,5.3 18.74,18.56 16.62,18.74 5.66,7.42 12.02,25.63 18.03,33.94"
     style="opacity:1;fill:none;fill-rule:nonzero;stroke:#007cbf;stroke-width:5;stroke-linecap:butt;stroke-linejoin:round;stroke-miterlimit:4;stroke-dasharray:none;stroke-opacity:1" />
  <path
     id="path1033"
     d="m 2083,3131.5 19,100.5 7.5,19.5 1.25,14 -3.5,14.5 -5.25,16.5 -12,30.25 -11.5,21.75 1,29.75 -0.25,14.75 -3,9 -5.25,5.75 -8.75,3.5 -9.5,0.5 -40.25,-8.5 -16,-1.5 -75.5,110.5 -3,10.75 2.5,243 -2.75,33.25 -4.75,24.5 -9.75,32.5 -8.5,20.25 -50.75,104.75 -5,15 -17.25,71.5 -3.25,22 -17,95.75 -5,36.5 -30,220.25"
     style="opacity:1;fill:none;fill-rule:nonzero;stroke:#007cbf;stroke-width:5;stroke-linecap:butt;stroke-linejoin:round;stroke-miterlimit:4;stroke-dasharray:none;stroke-opacity:1" />
  <path
     id="path1035"
     d="m 1942,3481.5 6,4.5 -6.75,9.75 -5.75,-4.38"
     style="opacity:1;fill:none;fill-rule:nonzero;stroke:#007cbf;stroke-width:5;stroke-linecap:butt;stroke-linejoin:round;stroke-miterlimit:4;stroke-dasharray:none;stroke-opacity:1" />
  <path
     id="path1037"
     d="m 1920,3704.25 h -9.75 l 0.25,15.5 h 10"
     style="opacity:1;fill:none;fill-rule:nonzero;stroke:#007cbf;stroke-width:5;stroke-linecap:butt;stroke-linejoin:round;stroke-miterlimit:4;stroke-dasharray:none;stroke-opacity:1" />
  <path
     style="fill:none;stroke:#007cbf;stroke-width:5;stroke-linejoin:round;stroke-dasharray:none;stroke-opacity:1"
     d="m 2873.75,2025 11.5,32.75"
     id="path11054" />
  <path
     style="fill:none;stroke:#007cbf;stroke-width:5;stroke-linejoin:round;stroke-opacity:1"
     d="m 2468,2129 3.68,4.97 48.93,-6.38 10.6,1.31 37.23,6.46 160.04,-23 123.54,-43.41"
     id="path782" />
  <path
     style="opacity:1;fill:none;stroke:#007cbf;stroke-width:5;stroke-linejoin:round;stroke-dasharray:none;stroke-opacity:1"
     d="m 2206.45,1861.14 -19.45,-18.17 v -5.07 l 47.21,-48.48 51.19,-63.49 7.96,-8.14 28.59,-14.4"
     id="path1" />
  <path
     style="opacity:1;fill:none;stroke:#007cbf;stroke-width:5;stroke-linejoin:round;stroke-dasharray:none;stroke-opacity:1"
     d="m 2212.46,1855.84 -25.46,-17.93"
     id="path2" />
</svg>
