<?xml version="1.0" encoding="UTF-8" standalone="no"?>
<svg
   version="1.2"
   width="2250"
   height="2175"
   viewBox="0 0 2250 2175"
   id="svg2"
   xmlns:xlink="http://www.w3.org/1999/xlink"
   xmlns="http://www.w3.org/2000/svg"
   xmlns:svg="http://www.w3.org/2000/svg"
   xmlns:rdf="http://www.w3.org/1999/02/22-rdf-syntax-ns#"
   xmlns:cc="http://creativecommons.org/ns#"
   xmlns:dc="http://purl.org/dc/elements/1.1/">
  <metadata
     id="metadata70">
    <rdf:RDF>
      <cc:Work
         rdf:about="">
        <dc:format>image/svg+xml</dc:format>
        <dc:type
           rdf:resource="http://purl.org/dc/dcmitype/StillImage" />
      </cc:Work>
    </rdf:RDF>
  </metadata>
  <defs
     id="defs6" />
  <g
     id="rt"
     style="opacity:0.25">
    <path
       d="m 2219.94,793.24 15.42,8.62 275.64,153.13 75,44 123,103 101,82 14,10 h 28 l 77.31,-10.37 4.19,1.64 2.44,3.05 14.06,38.68 11,67 2.93,24.26 5.11,6.01 6.46,2.16 76.67,-13.77 73.92,-15.59 10.11,-0.92 6.8,0.84 71,59 190.33,143.2 8.44,10.41 1.15,13.13 -3.78,12.38 -24.25,33.5 -19.12,30.62 -7.77,27.76 -1.23,30.27 9.58,27.12 8.66,13.47 4.99,12.14 4,17"
       id="path3614"
       style="fill:none;stroke:#cccccc;stroke-width:8;stroke-linecap:butt;stroke-linejoin:round;stroke-miterlimit:4;stroke-dasharray:none;stroke-opacity:1" />
    <path
       style="fill:none;stroke:#cccccc;stroke-width:8;stroke-linecap:butt;stroke-linejoin:round;stroke-miterlimit:4;stroke-dasharray:none;stroke-opacity:1"
       d="m 3685.74,-1270.71 -47,-26.73 -23.51,-12.09 -7.31,-0.54 -7.55,1.76 -8.18,6.6 -5.23,8.41 -6.77,20.38 -6.87,21.4 -7.34,11.39 -8.74,10.87 -30.82,24.23 -5.96,7.4 -49.47,85.62 -16.96,30.84 -11.6,29.19 -23.08,53.46 -6.47,13.37 -30.89,51.14 -35.05,56.81 -9.41,11.91 -35.76,35.15 -7.02,9.4 -3.72,8.45 -18.07,68.11 -6.96,16.74 -10.01,18.42 -47.93,64.33 -14.25,23.63 -27.14,65.4 -6.59,6.02 -6.63,1.59 -11.98,-0.61 -33.01,-12.59 -26.73,-22.61 -9.23,-5.12 -8.9,-2.56 -87.69,-2.67 -17.84,3.04 -6.15,5.72 -18.55,32.53 -9.15,22.95 -19.76,38.09 -48.45,134.34 -15.73,29.13 -21.03,29.15 -6.61,11.29 -2.09,6.22 0.65,34.07 -13.79,26.57 -352.23,640.64 0.2,6.13 2.06,4.35 3.56,4.49 42.63,24.68 3.59,5.56 -0.52,7.1 -224.33,413.12 -25.23,48.38 -12.47,29.29 -1.86,10.19 1.66,4.65 4.83,4.47 53.14,35.57 26.2,8.9 82.41,34.92 6.93,5.33 4.51,7.33 0.19,12.51 -38.99,100.05 -0.14,7.5 7.41,60.7 5.36,14.77 19,31.68 7.54,14.96 3.24,17.16 -2.01,56.94 -2.1,50.84 0.02,48 -2.94,47.94 -21.21,45.26 -59.14,118.57 -18.97,32.95 -8.1,20.16 -10.73,26.51 -0.43,6.41 1.74,8.18 4.44,7.62 21.53,20.29"
       id="path5207" />
    <path
       d="m 2141.06,1225.52 1.06,7.37 2.88,4.06 49.67,33.09 7.15,7.85 17.67,31.82 48.68,68.94 9.72,9.39 14.56,9.27 56.01,20.91 38.89,2.94 7.34,2.15 7.81,5.51 3.68,5.09 0.83,7.08 v 47 l -3,50 -6.32,11.45 3.27,14.19 4.04,6.7 12.01,8.66 69,34 16,4 29.28,-4.74 10.83,0.92 24.89,12.82 66,35 139,38 32,9 82,7 232,16 213.65,15.69 21.77,-2.3 36.67,-0.84 28.99,6.57 22.3,1.62 9.84,4.9 7,9.89 10.43,54 3.34,6.94 5.4,5.52 10.17,4.15 9.15,0.08 269.43,-52.25"
       id="path3618"
       style="fill:none;stroke:#cccccc;stroke-width:8;stroke-linecap:butt;stroke-linejoin:round;stroke-miterlimit:4;stroke-dasharray:none;stroke-opacity:1" />
    <path
       d="m 2460.73,1535.32 13.27,29.68 5.4,8.4 14.6,15 13.12,7.97 2.23,4.09 3.2,34.25 -10.1,28.38 -54.96,106.41 -57.5,92.5 -52,79 -144,184 -137,179 -61,78 -96,308 -4.5,15.5"
       id="path3604"
       style="fill:none;stroke:#cccccc;stroke-width:8;stroke-linecap:butt;stroke-linejoin:round;stroke-miterlimit:4;stroke-dasharray:none;stroke-opacity:1" />
    <path
       d="m 2388.68,660.26 -120.73,222.92 -2.14,2.56 -89.87,17.88 -4.02,3.42 -5.39,21.49 -3.21,2.62 -176.12,-1.06 -95.95,-6.71 -16.06,-3.16 -6.07,-5.36 -4.83,-9.71 0.06,-10.78 4.56,-20.61 9.1,-9.25 10.02,-1.83 16.03,2.65 30.45,0.17"
       id="path2955"
       style="fill:none;stroke:#cccccc;stroke-width:8;stroke-linecap:butt;stroke-linejoin:round;stroke-miterlimit:4;stroke-dasharray:none;stroke-opacity:1" />
    <path
       d="m 1864.28,905.15 -8.78,57.85 2.5,18.5 -1.5,15 -9,17.5 -10,39.5 -6.5,52.5 -2.51,22.24 0.82,5.36 2.74,4.85 5.49,4.04 10.34,4.26 19.82,3.52 33.17,9.34 146.11,58.54 38.41,8.57 10.39,5.8 1.18,9.43 1.71,3.62 7.67,2.01 2.34,-2.13 7.15,-29.69 -1.38,-4.73 -5.81,-2.73 -3.99,0.61 -7.89,1.95 -47.45,-9.61 -102.63,-32.25 -30.09,-9.09 -48.89,-9.65"
       id="path3772"
       style="fill:none;stroke:#cccccc;stroke-width:8;stroke-linecap:butt;stroke-linejoin:round;stroke-miterlimit:4;stroke-dasharray:none;stroke-opacity:1" />
    <path
       d="m 2510.27,1592.19 4.01,7.68 2.98,35.03 -9.88,29.31 -56.25,109.03 -57.05,91.56 -51.34,77.97 -143.35,182.33 -0.15,8.02 2.76,4.87 138.06,108.67 3.29,7.94 -0.98,6.7 -13.5,16.57 -2.4,7.23 -2.47,78.89 -11,98 -53,242 -21.56,97.13 -0.57,8.72 3.49,30.92 6.6,9.33 178.3,141.41 3.74,3.93 1.68,5.53 20.52,139.2 3.22,5.99 8.12,6.01 15.09,19.1 3.38,13.73 -3,37 -5,25 -0.96,23.42 4.33,30.1"
       id="path3636-3-5"
       style="fill:none;stroke:#cccccc;stroke-width:8;stroke-linecap:butt;stroke-linejoin:round;stroke-miterlimit:4;stroke-dasharray:none;stroke-opacity:1" />
    <path
       d="m 2351,1040.13 6.19,7.99 1.84,5.7 -0.03,6.69 -38.01,101.52 -0.98,14.97 27.99,66.57 58,139.44 59.26,150.1 13.54,30.46 5.17,7.95 12.94,12.81 9.07,6.3 16.72,8.32 4.19,4.75 5.86,49.31 2.74,11.31 83.03,159.93 81.3,149.01 3.37,34.3 2.15,9.93 5.96,61.81 -3.32,22.72 -32.16,144.86 -0.5,20.78 28.3,202.14 53.08,349.67 39.69,278.75 1.35,39.17 -3.23,25.17 -8.1,18.53 -55.01,102.62 -8.81,4.9 -23.28,6.86"
       id="path3634"
       style="fill:none;stroke:#cccccc;stroke-width:8;stroke-linecap:butt;stroke-linejoin:round;stroke-miterlimit:4;stroke-dasharray:none;stroke-opacity:1" />
    <path
       d="m 2960.5,638.5 -25,-15.5 -5.95,2.08 -7.97,12.61 -19.08,29.8 -10.5,36.5 12,27.5 -2.5,9.5 -39.5,21 -26,2 -71,-19 -37.5,-21.5 -72,-39 -118.5,-62.5 -24.5,-13 -52,-30 -20.5,-1.5 -42,-23 -102.26,-57.21 -10.05,-1.6 -8.44,0.5 -8.05,3.35 -7.54,6.48 -30.78,56.5"
       id="path3663"
       style="fill:none;stroke:#cccccc;stroke-width:8;stroke-linecap:butt;stroke-linejoin:round;stroke-miterlimit:4;stroke-dasharray:none;stroke-opacity:1" />
    <path
       d="m 1875.19,920.22 -5.1,2.27 -4.68,4.45 -5.51,7.13"
       id="path3821"
       style="fill:none;stroke:#cccccc;stroke-width:8;stroke-linecap:butt;stroke-linejoin:round;stroke-miterlimit:4;stroke-dasharray:none;stroke-opacity:1" />
    <path
       d="m 3203.25,-1179.77 -26.89,9.81 -72.21,34.62 -22.69,17.22 -15.81,14.07 -15.6,20.93 -18.8,37.56 -33.31,59 -2.47,7.42 -13.35,55.24 -24.88,84.21 0.28,6.97 11.26,14.55 2.11,7.07 -2.67,14.17 -0.58,29.34 -7.37,28.64 -0.43,21.13 -2.83,20.5 3.51,21.78 -0.71,10.14 -28.83,99.42 -10.69,33.11 -20.45,38.94 -48.37,134.29 -15.25,28.33 -20.86,29.21 -7.5,12.97 -2.29,6.3 0.47,34.41 -13.06,25.44 -509,926 -53.53,96.13 -1.2,9.89 33.09,73.79 0.3,9.79 -19.67,37.79 -12.4,29.05 -31.73,103.4 -1.14,9.63 1.79,47.73 -3.21,11.63 -55.23,93.69"
       id="path3590"
       style="fill:none;stroke:#cccccc;stroke-width:8;stroke-linecap:butt;stroke-linejoin:round;stroke-miterlimit:4;stroke-dasharray:none;stroke-opacity:1" />
    <path
       d="m 1818.23,1134.83 19.32,7.66"
       id="path3938"
       style="fill:none;stroke:#cccccc;stroke-width:8;stroke-linecap:butt;stroke-linejoin:round;stroke-miterlimit:4;stroke-dasharray:none;stroke-opacity:1" />
    <path
       d="m 1828.49,1128.24 -3.77,4.15 -3.07,2.25 -3.42,0.19 -60.25,-24.49"
       id="path3823"
       style="fill:none;stroke:#cccccc;stroke-width:8;stroke-linecap:butt;stroke-linejoin:round;stroke-miterlimit:4;stroke-dasharray:none;stroke-opacity:1;marker-start:none" />
    <path
       d="m 1757.98,1110.34 -55.98,-23.34 -61.5,-26 -14,-11 -17.5,-31.5 -12.5,-22.5 -23.5,-30 -49,-53 -15.5,-19.5 -24.5,-25.5 -31.5,-15 -62.5,-26 -103.5,-34 -29.5,-12.5 -14.5,-3.5 -105.5,-4 -73.5,-3.5 -55.5,-4.5 -87,-14 -55,-4 -78.5,-2 -46,4 -85.5,6.5 -104.5,10.5 -55.5,8.5 -16,5.5 -47.5,37 -44.5,34.5 -22.5,17.5 -31,27.5"
       id="path5243"
       style="fill:none;stroke:#cccccc;stroke-width:8;stroke-linecap:butt;stroke-linejoin:round;stroke-miterlimit:4;stroke-dasharray:none;stroke-dashoffset:0;stroke-opacity:1;marker-start:none" />
    <path
       d="m 2241.29,1106.36 66.71,-103.36 48.98,-77.25 2.83,-7.23 19.48,-114.28 6.28,-54.59 6.74,-45.73 9.69,-73.92 9,-48 10.52,-42.28 15.12,-34.71 64.36,-120.01 11.04,-17.38 8.96,-9.95 13.29,-6.78 16.27,0.06 15.24,6.12 17.14,14.5 101.44,56.34 10.77,0.99 6.54,-3.7 6.09,-5.9 172.21,-312.37"
       id="path2826"
       style="fill:none;stroke:#cccccc;stroke-width:8;stroke-linecap:butt;stroke-linejoin:round;stroke-miterlimit:4;stroke-dasharray:none;stroke-opacity:1" />
    <path
       d="m 2241.29,1106.36 -78.32,122.92 -4.3,2.68 -4.36,-0.09 -6.84,-3.27 -4.45,0.6 -4.61,2.44 -20.4,40.37 -15.9,32.15 -4.05,7.15 -1.52,8.54 7.16,13.76 2.81,25.39 4.88,21.77 4.01,7.62 18.96,13.29 118.58,61.64 115.53,42.48 6.06,4.34 9.47,14.87 14,5 59.57,2.18 3.16,3.13"
       id="path3600"
       style="fill:none;stroke:#cccccc;stroke-width:8;stroke-linecap:butt;stroke-linejoin:round;stroke-miterlimit:4;stroke-dasharray:none;stroke-opacity:1" />
    <path
       d="m 2241.29,1106.36 -0.1,7.22 2.08,3.86 30.73,28.56 27.41,12.61 7.98,8.4 5.7,10.84 93.91,224.15 51.73,133.32"
       id="path3602"
       style="fill:none;stroke:#cccccc;stroke-width:8;stroke-linecap:butt;stroke-linejoin:round;stroke-miterlimit:4;stroke-dasharray:none;stroke-opacity:1" />
    <path
       d="m 2125.97,1322.25 2.42,-6.23 6.87,-14.9 18.73,-26.13 23,-31 13.54,-12.91 10.27,-6.76 10.9,-7.12 17.1,-25.29 20.88,-42.86 17.04,-27.87 20.4,-31.45 6.7,-4.24 7.84,0.4 158.34,66.09 224,91 31.12,11.86 19.36,20.09 88.52,39.05 154,115 72,55 320,239 54.82,42.31 5.39,0.75 102.86,-20.1 19.92,-5.74 106.46,-45.42 82.25,-30.6 5.27,-3.36 1.34,-5.24 -18.44,-75.54 0.28,-5.06 3.5,-3.89 23.32,-12.89 51.03,-15.23 88,-17 54.08,-4.39 21.9,-8.08 21.23,-11.5 23.64,-7.83 43.07,-9.8 h 47.12 l 16.72,-3.75 20.43,-10.47 22.3,-20.46 22.49,-15.71 26.86,-18.71 32.23,-9.89 64.05,-17.06 11.68,-0.13 9.44,2.59 26.81,24.99 18.78,10.59 21.55,5.47 21.78,0.43 29.8,-9.25 138.67,-47.99"
       id="path3619"
       style="display:inline;fill:none;stroke:#cccccc;stroke-width:8;stroke-linecap:butt;stroke-linejoin:round;stroke-miterlimit:4;stroke-dasharray:none;stroke-opacity:1" />
    <path
       d="m 2528.91,615.26 -14.91,4.74 -135.94,244.83 -2.02,6.31 1.96,16.42 -0.35,7.94 -7.76,41.34 -4.89,9.55 -8.33,7.78 -24.82,39.22 -16.31,28.46 -16.43,25.93 -5.84,18.41 -4.26,7.4 -51.99,76.5 -13.03,19.89 -1.45,12.37 -4.06,14.96 -10.28,15.74 -12.81,10.81 -17.13,5.64"
       id="path3627"
       style="fill:none;stroke:#cccccc;stroke-width:8;stroke-linecap:butt;stroke-linejoin:round;stroke-miterlimit:4;stroke-dasharray:none;stroke-opacity:1" />
    <path
       d="m 2178.25,1229.5 -18.17,7.02 -4.39,3.11 -18.53,29.01 -27.42,45.49 -17.98,31.92 -0.85,9.34 0.26,8.73 4.41,13.27 8.38,7.97 4.61,4.3 21.87,16.36 22.63,21.14 54.51,48.7 42.86,22.43 35.55,10.71 89.66,17.94 94.58,52.11 10.77,9.73 35.91,72"
       id="path3629"
       style="fill:none;stroke:#cccccc;stroke-width:8;stroke-linecap:butt;stroke-linejoin:round;stroke-miterlimit:4;stroke-dasharray:none;stroke-opacity:1" />
    <path
       d="m 2411.62,548.23 -97.62,177.77 -62.3,112.97 -25.7,56.03 -27,65 -14.19,118.2 -9,53.1 -38.04,65.53 -13.77,21.17 -16,53 -13,36 -11.81,37.64 1.16,11.26 3.7,9.35 20.37,17.54"
       id="path3647"
       style="fill:none;stroke:#cccccc;stroke-width:8;stroke-linecap:butt;stroke-linejoin:round;stroke-miterlimit:4;stroke-dasharray:none;stroke-opacity:1" />
    <path
       d="m 45.76,1341.2 -24.75,56.57 -3.54,15.56 5.66,10.61 9.9,4.24 16.26,-3.54 31.11,-8.49 10.61,2.83 52.33,45.96 7.07,5.66 9.19,-1.41 18.38,-2.12 12.02,4.24 14.14,13.44 5.66,26.16 -1.41,25.46 -11.31,26.16 -18.38,26.87 -19.09,13.44 -15.56,4.95 -13.44,-1.41 -16.97,-9.9 -5.66,-9.9 -5.66,-12.02 -5.66,-4.95 -7.78,-2.12 -40.31,6.36 -7.78,5.66 -2.12,12.02 -1.25,19.92"
       id="path3711"
       style="fill:none;stroke:#cccccc;stroke-width:8;stroke-linecap:butt;stroke-linejoin:round;stroke-miterlimit:4;stroke-dasharray:none;stroke-opacity:1" />
    <path
       d="m 2142.2,1189.19 -0.23,9.54 3.53,4.27 22.5,14 20.5,25 2.9,5.75 0.56,5.51 -21.96,28.74 -21.5,29.5 -5,16 3.5,12.5 22.55,22.8 20.7,22.6 105.25,47.6 60,22 4.97,5.16 8.82,38.2 4.21,18.64 6.5,7 93,51 12,11 36.35,72.53"
       id="path3649"
       style="fill:none;stroke:#cccccc;stroke-width:8;stroke-linecap:butt;stroke-linejoin:round;stroke-miterlimit:4;stroke-dasharray:none;stroke-opacity:1" />
  </g>
  <image
     xlink:href="../timelines/basemap/nycosm.png"
     id="image12"
     height="8448"
     width="7168"
     y="-3924"
     x="-1370"
     style="display:none;stroke:none;stroke-linejoin:round" />
  <path
     id="path3650-3"
     d="m 220.07,159.05 -3.07,-2.05 -17,7 -14,7 -16.5,3 -18.5,1 -86.5,-1.5"
     style="fill:none;stroke:#009fda;stroke-width:5;stroke-linecap:butt;stroke-linejoin:round;stroke-miterlimit:4;stroke-dasharray:none;stroke-opacity:1" />
  <path
     id="path887"
     d="m 2055.89,1178.53 c -111.46,-17.36 -84.8,27.48 -177.61,17.39"
     style="opacity:1;fill:none;fill-rule:nonzero;stroke:#00ffff;stroke-width:5;stroke-linecap:butt;stroke-linejoin:round;stroke-miterlimit:4;stroke-dasharray:none;stroke-opacity:1" />
  <path
     id="path1674"
     d="m 1997.42,598.48 c 65.75,7.73 46.18,-57.63 -1.58,-91.27"
     style="opacity:1;fill:none;fill-rule:nonzero;stroke:#00ffff;stroke-width:5;stroke-linecap:butt;stroke-linejoin:round;stroke-miterlimit:4;stroke-dasharray:none;stroke-opacity:1" />
  <path
     id="path1678"
     d="m 2217.3,478.36 c -111.34,-41.97 21.78,-200.49 -75.07,-239.84"
     style="opacity:1;fill:none;fill-rule:nonzero;stroke:#00ffff;stroke-width:5;stroke-linecap:butt;stroke-linejoin:round;stroke-miterlimit:4;stroke-dasharray:none;stroke-opacity:1" />
  <path
     id="path1680"
     d="m 1997.42,598.48 c 86.52,19.04 158.34,-148.77 219.89,-120.12"
     style="opacity:1;fill:none;fill-rule:nonzero;stroke:#00ffff;stroke-width:5;stroke-linecap:butt;stroke-linejoin:round;stroke-miterlimit:4;stroke-dasharray:none;stroke-opacity:1" />
  <path
     style="fill:none;stroke:#00aeef;stroke-width:1;stroke-linecap:butt;stroke-linejoin:round;stroke-miterlimit:4;stroke-dasharray:none;stroke-opacity:1"
     id="path3705-3"
     d="m 1597.21,1265.46 -25.66,16.66 -10.91,4.79 -74.13,46.09 -32,12.5 -84,53 -19,16 -74,77.5 -111,112 -23,29 -45,68.5 -79.5,124 -14.42,22.38 -52.58,81.62 -53.5,80.5 -24.38,40.69 -18.81,28.84 -19.43,18.81 -15.67,8.78 -27.58,8.15 -43.88,-1.88" />
  <path
     style="fill:none;stroke:#00aeef;stroke-width:5;stroke-linecap:butt;stroke-linejoin:round;stroke-miterlimit:4;stroke-dasharray:none;stroke-opacity:1"
     d="m 1920.59,891.5 -14.17,0.49 -17.69,5.4 -0.48,0.1 -10,1 -0.55,-0.01 -40.96,-4.9 -3.74,4.04 -0.99,20.72 0.74,4.15 14.22,19.37 0.48,1.52 -0.2,11.07 -0.04,0.39 -3.73,20.98 -3.49,40.89 -0.26,0.92 -7.7,15.17 -1.26,3.33 -2.42,45.43 0.83,1.12 7.68,0.62 0.63,0.14 26.96,9.58 1.5,1.47 1.3,3.41 0.14,1.22 -5.85,43.16 4.34,13.97 0.1,1.04 -6.5,54.5 -1.05,1.75 -5,3.5 -1.83,0.42 -40.99,-6.5 -35.5,-5.5 -0.73,-0.23 -1,-0.5 -1.18,-1.25 -2.79,-6.5 -4.67,-4.25 -10,-2.95 -29.53,-3.31 -0.17,-0.02 -37.68,-6.85 -3.37,1.68 -5.66,15.56 -1.15,1.34 -11,6 -2.21,0.09 -25.64,-11.34 -8.48,-0.92 -6.62,1.92 -4.07,3.49 -1.14,3.71 5.73,25.42 0.05,0.33 0.71,8.19 -0.11,0.98 -1.34,4.18 -0.67,1.07 -2.7,2.53 -20.98,23.09"
     id="path3707" />
  <path
     style="fill:none;stroke:#fbb03f;stroke-width:5;stroke-linecap:butt;stroke-linejoin:round;stroke-miterlimit:4;stroke-dasharray:none;stroke-opacity:1"
     id="path4056"
     d="m 1242,1187 282,91.5 30,5.5 8.77,-1.25 7.74,-3.57 24.65,-15.77 21.13,-23.23 2.22,-2.08 0.98,-3.08 -0.65,-7.52 -5.84,-25.91 0.05,-1.29 1.55,-5.03 0.77,-1.16 5.04,-4.31 0.93,-0.5 7.61,-2.21 0.97,-0.08 9.36,1.02 0.74,0.2 24.87,11 9.09,-4.96 5.68,-15.61 1.23,-1.38 5,-2.5 1.57,-0.22 38.42,6.98 29.66,3.32 0.43,0.09 10.76,3.17 0.97,0.55 5.5,5 0.62,0.87 2.61,6.1 34.97,5.42 h 0.01 l 40,6.34 3.26,-2.28 6.3,-52.86 -4.34,-13.99 -0.09,-1.08 5.84,-43.08 -0.66,-1.74 -25.57,-9.08 -8.48,-0.69 -1.81,-1 -2.05,-2.76 -0.49,-1.62 2.49,-46.71 0.16,-0.75 1.45,-3.82 0.11,-0.24 7.54,-14.86 3.46,-40.52 0.03,-0.22 3.72,-20.9 0.18,-10.03 -14.06,-19.16 -0.45,-1.04 -0.89,-5 -0.04,-0.56 1,-21 -3.04,-5.21 -5.76,-0.69 -1.04,-0.37 -9.5,-6 -0.46,-0.38 -14.04,-14.52 -16.58,-4.74 -38.72,-1.99 -1.34,-0.47 -5.5,-4 -0.99,-1.57 -1,-5.5 0.46,-1.95 4.39,-5.85 9.29,-17.12 4.88,-16.09 2.71,-16.93" />
  <path
     style="fill:none;stroke:#168b6f;stroke-width:1;stroke-linecap:butt;stroke-linejoin:round;stroke-miterlimit:4;stroke-dasharray:none;stroke-opacity:1"
     d="m 1966.9,489.24 10.02,-15.97 18.48,-28.47 22.98,-27.48 0.05,-0.08 20.98,-37.46 19.97,-24.97 0.02,-0.03 14,-20.5 0.04,-0.08 7.5,-17 0.02,-0.05 8.49,-25.96 19.48,-38.97 0.04,-0.1 4,-15.5 L 2113,236.5 v -11 l -0.07,-0.25 -5,-8.5 -0.15,-0.16 -39,-26 -148.48,-98.98 -17.42,-14.44 -14.46,-22.43"
     id="path1146" />
  <path
     style="color:#000000;fill:none;stroke:#fbb03f;stroke-width:5;stroke-linejoin:round;stroke-dasharray:none;stroke-opacity:1"
     d="m 1964.39,487.62 -8.01,13.69 -10.16,11.61 -12.74,7.08 -13.95,0.11 -20.52,-5.03 -0.71,-0.07 -11.35,0.49 -0.55,0.09 -10.84,2.96 -0.94,0.49 -8.82,7.35 -0.71,0.96 -8.45,20.39 -0.19,0.96 v -0.52 l -45.42,102.84 -0.07,0.19 -10.27,29.39 -10.57,15.8 -0.02,0.04 -20.65,32.02 -0.31,0.69 -5.08,18.33 -0.03,0.11 -5.63,24.49 -6.65,21.95"
     id="path1154" />
  <path
     style="color:#000000;fill:none;stroke:#168b6f;stroke-width:5;stroke-linejoin:round;stroke-dasharray:none;stroke-opacity:1"
     d="m 1756.7,794.8 6.53,-21.4 0.04,-0.15 5.64,-24.51 4.96,-17.91 20.43,-31.69 10.71,-16.02 0.19,-0.34 0.04,-0.08 0.09,-0.22 10.32,-29.54 45.59,-103.23 0.21,-1.01 v 0.49 l 8.03,-19.36 7.93,-6.61 10.05,-2.74 10.71,-0.47 20.47,5.02 0.62,0.07 14.84,-0.12 0.8,-0.14 0.16,-0.05 0.4,-0.18 13.5,-7.5 0.34,-0.23 0.13,-0.11 0.32,-0.31 10.5,-12 0.14,-0.17 0.05,-0.06 0.1,-0.14 8.12,-13.87"
     id="path1560" />
  <path
     id="path897-3"
     d="m 1887.58,55.27 14.5,22.5 0.1,0.11 17.5,14.5 0.04,0.03 148.5,99 38.9,25.94 4.87,8.28 v 10.8 l -3.97,15.39 -19.48,38.95 -0.03,0.07 -8.49,25.98 -7.47,16.93 -13.96,20.45 -19.99,24.98 -0.04,0.07 -20.98,37.46 -22.97,27.46 -0.04,0.05 -18.5,28.5 v 0.01 l -10.02,15.89"
     style="fill:none;stroke:#fbb03f;stroke-width:1;stroke-linecap:butt;stroke-linejoin:round;stroke-miterlimit:4;stroke-dasharray:none;stroke-opacity:1" />
  <path
     id="path1548"
     d="m 1920.41,886.5 -14.5,0.5 -0.64,0.11 -17.76,5.43 -9.48,0.95 -57.67,-6.9 -8.77,-5.54 -14.29,-14.78 -1.11,-0.67 -17.5,-5 -0.56,-0.09 -38.26,-1.96 -4.09,-2.97 -0.63,-3.44 L 1739,847 l 0.2,-0.31 9.5,-17.5 0.2,-0.47 5,-16.5 0.08,-0.33 2.73,-17.09"
     style="fill:none;stroke:#168b6f;stroke-width:5;stroke-linecap:butt;stroke-linejoin:round;stroke-miterlimit:4;stroke-dasharray:none;stroke-opacity:1" />
  <path
     style="fill:none;stroke:#00ffff;stroke-width:5;stroke-linejoin:round;stroke-dasharray:none"
     d="m 1947.01,877.72 c 110.17,45.8 -1.53,262.54 108.89,300.81"
     id="path475" />
  <path
     id="path892-6"
     d="m 362.41,878.97 -17.11,-15.34 -65.92,-26.51 -43.57,-15.36 -77.55,-32.06 -7.71,-6.05 -4.82,-8.46 -0.01,-9.17 7.59,-24.37 -0.08,-6.34 -3.19,-7.98 -5.63,-4.97 -36.05,-20.35 -9.03,-7.38 -7.04,-10.98 -2.99,-10.5 0.03,-19.71 5.15,-12.42 17.94,-18.64 4.67,-9.33 0.05,-12.42 -4.52,-22.55 -7.64,-17.16 -4.08,-17.49 -0.07,-17.17 2.85,-17.93 6.66,-19.57 11.87,-21.85 20.29,-25.09 45.42,-84.08 4.54,-12.64 -0.15,-12.36 -9.81,-39.46 -0.98,-11.65 2.13,-13.82 13.73,-29.33 12.04,-20.55 9.76,-16.94 4.84,-14.81 1.28,-14.02 -2.5,-12 -2.73,-1.11"
     style="fill:none;stroke:#009fda;stroke-width:1;stroke-linecap:butt;stroke-linejoin:round;stroke-miterlimit:4;stroke-dasharray:none;stroke-opacity:1" />
</svg>
