<?xml version="1.0" encoding="UTF-8" standalone="no"?>
<svg
   viewBox="0 0 875 450"
   height="450"
   width="875"
   id="svg2"
   version="1.1"
   xmlns:xlink="http://www.w3.org/1999/xlink"
   xmlns="http://www.w3.org/2000/svg"
   xmlns:svg="http://www.w3.org/2000/svg"
   xmlns:rdf="http://www.w3.org/1999/02/22-rdf-syntax-ns#"
   xmlns:cc="http://creativecommons.org/ns#"
   xmlns:dc="http://purl.org/dc/elements/1.1/">
  <metadata
     id="metadata8">
    <rdf:RDF>
      <cc:Work
         rdf:about="">
        <dc:format>image/svg+xml</dc:format>
        <dc:type
           rdf:resource="http://purl.org/dc/dcmitype/StillImage" />
      </cc:Work>
    </rdf:RDF>
  </metadata>
  <defs
     id="defs6" />
  <image
     xlink:href="basemap/osiosm.png"
     width="1418"
     height="709"
     preserveAspectRatio="none"
     id="image10"
     x="-475"
     y="-209"
     style="display:none" />
  <path
     id="path836"
     d="m 72.43,87.99 25.47,-4.06 30.13,1.16 33.22,3.86 14.68,3.86 24.92,13.33 11.78,5.99 20.47,6.37 10.82,12.75 37.47,-0.97 150.86,38.82 14.49,1.93 18.35,-0.39 51.38,-8.69 5.22,0.39 136.76,48.68 12.36,2.12 138.3,50.99"
     style="opacity:1;fill:none;fill-rule:nonzero;stroke:#c41a1b;stroke-width:5;stroke-linecap:butt;stroke-linejoin:round;stroke-miterlimit:4;stroke-dasharray:none;stroke-opacity:1" />
  <path
     id="path838"
     d="m 243.94,131.26 -12.94,0.19 -14.29,96.58 1.93,3.86 4.25,5.99 13.52,19.7 22.79,85.57 2.7,12.17 -1.55,3.86 -8.11,8.5 -2.12,4.83 v 3.28 l 2.9,1.35 29.94,-2.7 17,-3.67 28.01,-8.5 22.99,-14.87 39.98,-24.34 8.5,-2.51 25.88,-3.48 101.22,-17.38 88.27,-15.84 10.24,-0.77 5.6,3.09 52.35,11.98 121.11,56.6"
     style="opacity:1;fill:none;fill-rule:nonzero;stroke:#c41a1b;stroke-width:5;stroke-linecap:butt;stroke-linejoin:round;stroke-miterlimit:4;stroke-dasharray:none;stroke-opacity:1" />
  <path
     id="path840"
     d="m 221.53,236.72 3.86,-8.31 51.38,-0.19 3.28,3.67 -0.19,19.9 3.86,2.9 8.11,-2.7 9.66,-0.97 1.93,-2.9 -8.5,-113.58"
     style="opacity:1;fill:none;fill-rule:nonzero;stroke:#c41a1b;stroke-width:5;stroke-linecap:butt;stroke-linejoin:round;stroke-miterlimit:4;stroke-dasharray:none;stroke-opacity:1" />
</svg>
