<?xml version="1.0" encoding="UTF-8" standalone="no"?>
<svg
   version="1.1"
   id="svg2"
   width="850"
   height="1075"
   viewBox="0 0 850 1075"
   xmlns:xlink="http://www.w3.org/1999/xlink"
   xmlns="http://www.w3.org/2000/svg"
   xmlns:svg="http://www.w3.org/2000/svg"
   xmlns:rdf="http://www.w3.org/1999/02/22-rdf-syntax-ns#"
   xmlns:cc="http://creativecommons.org/ns#"
   xmlns:dc="http://purl.org/dc/elements/1.1/">
  <metadata
     id="metadata8">
    <rdf:RDF>
      <cc:Work
         rdf:about="">
        <dc:format>image/svg+xml</dc:format>
        <dc:type
           rdf:resource="http://purl.org/dc/dcmitype/StillImage" />
      </cc:Work>
    </rdf:RDF>
  </metadata>
  <defs
     id="defs6" />
  <image
     xlink:href="basemap/ozhosm.png"
     style="display:none"
     y="-650"
     x="-340"
     id="image12"
     preserveAspectRatio="none"
     height="1832"
     width="1832" />
  <path
     style="opacity:1;fill:none;stroke:#244082;stroke-width:5;stroke-linejoin:round;stroke-miterlimit:4;stroke-dasharray:none;stroke-opacity:1"
     d="m 659.68,1014.31 -31.12,-62.58 -2.37,-35.78 7.96,-36.3 18.85,-64.89 0.52,-10.85 -40.98,-46.68 -52.86,-67.75 -179.6,-224.09 -7.05,-3.71 -9.68,-0.28 -5.35,1.63 -12.03,9.11 -4.63,2.96 -14.52,3.08 -8.71,-0.01 -111.41,-75.76 -36.72,-8.66 -26.01,-14.87 -17.39,-13.05 -18.92,-34.49 -7.58,-14.12 -42.88,-34.69 55.74,-71.7 -7.53,-16.84 -12.45,-57.91 -8.82,-59.97 6.48,-14.55"
     id="path855" />
  <path
     style="opacity:1;fill:none;stroke:#244082;stroke-width:5;stroke-linejoin:round;stroke-dasharray:none;stroke-opacity:1"
     d="m 653.52,803.91 9.81,2.44 20.52,-27.56 31.29,-31.71 16.37,3.11 4.35,-2.9 12.02,-57.4 36.47,-190.03 10.84,-49.9"
     id="path1" />
  <path
     style="opacity:1;fill:none;stroke:#244082;stroke-width:5;stroke-linejoin:round;stroke-dasharray:none;stroke-opacity:1"
     d="m 559.68,689.48 61.59,-46.64 87.91,110.28"
     id="path2" />
</svg>
