<?xml version="1.0" encoding="UTF-8" standalone="no"?>
<svg
   version="1.1"
   width="1350"
   height="1250"
   viewBox="-1250 -2500 1350 1250"
   id="svg2"
   xmlns:xlink="http://www.w3.org/1999/xlink"
   xmlns="http://www.w3.org/2000/svg"
   xmlns:svg="http://www.w3.org/2000/svg"
   xmlns:rdf="http://www.w3.org/1999/02/22-rdf-syntax-ns#"
   xmlns:cc="http://creativecommons.org/ns#"
   xmlns:dc="http://purl.org/dc/elements/1.1/">
  <metadata
     id="metadata37">
    <rdf:RDF>
      <cc:Work
         rdf:about="">
        <dc:format>image/svg+xml</dc:format>
        <dc:type
           rdf:resource="http://purl.org/dc/dcmitype/StillImage" />
      </cc:Work>
    </rdf:RDF>
  </metadata>
  <defs
     id="defs6" />
  <g
     id="rt"
     style="opacity:0.25">
    <path
       d="m 3999.79,-4580.72 -191.33,362.7 -50.89,95.99 -26.41,47.67 -9.02,26.41 -12.24,50.89 3.22,39.3 10.95,51.54 14.82,63.13 15.46,30.92 5.8,26.41 -3.87,28.35 -14.82,28.35 -36.08,27.06 -39.3,11.6 -31.57,0.64 -118.54,-5.15 -39.94,4.51 -25.12,5.15 -33.5,10.95 -30.28,19.97 -47.03,41.23 -85.04,71.51 -15.46,11.6 -23.19,10.95 -34.14,9.66 -41.23,-0.64 -119.5,-34.79 -100.5,-29.63 -77.95,-25.45 -20.94,-9.99 -36.19,-24.45 -25.33,-15.49 -20.94,-4.83 -23.51,-6.76 -12.88,-1.61 -14.49,0.64 -11.92,-3.54 -12.88,-10.31 -20.94,-12.24 -20.29,-9.34 -6.35,-6.47 -7.18,-9.64 -2.9,-11.92 -12.24,-20.29 -3.22,-14.82 -8.05,-14.82 -35.75,-38.33 -12.56,-12.56 -13.53,-8.05 -10.63,-2.58 -12.88,0.64 -14.82,5.15 -10.9,6.51 -10.03,3.47 -22.87,0.32 -9.66,1.29 -28.02,18.04 -5.29,4.27 -6.63,4.11 -11.6,3.87 -41.23,2.58 -9.34,-1.29 -13.04,-5.82 -12.09,-6.42 -9.02,-3.87 -10.63,-0.97 -18.36,-0.64 -10.95,-3.22 -10.95,-7.09 -9.66,-16.75 -11.92,-16.43 -12.56,-9.99 -11.6,-4.51 -13.53,-1.29 -32.86,5.15 -8.37,3.22 -11.92,6.76 -15.78,14.17 -52.83,45.1 -10.63,7.41 -14.82,5.48 -14.49,2.25 -64.42,-8.7 -18.04,-1.61 -21.9,5.15 -19.33,13.21 -33.5,45.42 -5.48,12.56 -27.38,90.51 -11.13,24.23 -11.74,20.86 -10.95,11.92 -13.53,9.02 -16.75,3.22 -80.53,-7.73 -51.54,-4.83 -40.26,-2.58 -25.12,4.51 -17.39,4.51 -53.79,20.62 -24.83,8.28 -23.81,6.54 -21.9,3.87 -19.33,5.48 -50.57,23.51 -58.95,30.6 -16.43,7.09 -31.89,19.65 -15.14,18.68 -25.45,32.21 -20.62,36.4 -10.95,19.33 -34.79,31.89 -38.97,42.33 -18.22,41 -13.67,32.34 -29.15,41 -46.89,39.98 -64.72,86.49 -112.09,143.02 -131.42,173.3 -130.78,168.79 -24.48,34.14 -9.66,19.33 -7.73,24.48 -7.09,56.05 -9.02,23.19 -14.82,19.97 -15.46,16.11 -22.52,16.74 -21.82,18.92 -133.44,102.68 -98.67,52.62 -15,14 -13.5,15.5 -34,45 -123,167.5 -17.5,14 -24,14 -67,11 -104.5,17.5 -213.5,27.5 -78,13.5 -22.5,-1.5 -90,-11.5 -64.5,-4.5 -38.6,0.44 -127.8,-18.74 -36.81,-0.68 -25.56,1.02 -161.88,10.56 -31.01,-2.39 -26.92,-7.16 -22.15,-11.25 -24.88,-18.4"
       id="path3649"
       style="fill:none;stroke:#cccccc;stroke-width:8;stroke-linecap:butt;stroke-linejoin:round;stroke-miterlimit:4;stroke-dasharray:none;stroke-opacity:1" />
  </g>
  <image
     xlink:href="../basemap/berosm.png"
     id="image12"
     height="7397.14"
     width="8835.47"
     y="-7527.86"
     x="-1424.28"
     style="display:none" />
  <path
     id="path897"
     d="m -8.9,-1302.91 -1.8,-83.99 -20.55,-20.19 -1.44,-5.41 1.08,-7.93 3.24,-6.85 54.43,-54.07 5.05,-9.73 3.97,-19.47 v -23.07 l -0.72,-29.56 -5.41,-5.77 -121.12,2.16 -14.78,-4.33 -62.36,32.08 -7.21,8.29 -9.73,11.54 -9.73,5.41 -10.45,0.72 -11.9,-3.97 -56.24,-31.36 -10.09,0.36 -18.02,9.01 -14.42,6.49 -11.54,0.36 -62,-9.73 -36.77,-15.5 -41.09,-18.75 -29.92,-1.44 -97.33,-109.59 -15.14,-28.12 -59.58,-65.03 0.51,-5.86 8.67,-8.92 -1.27,-3.82 -3.57,-3.31 -22.69,-2.8 -4.84,-3.82 -3.57,-17.33 -21.92,-27.27 -13.76,-3.06 -3.82,-3.57 -9.69,-43.08"
     style="fill:none;fill-rule:nonzero;stroke:#e2001a;stroke-width:5;stroke-linecap:butt;stroke-linejoin:round;stroke-miterlimit:4;stroke-dasharray:none;stroke-opacity:1" />
  <path
     id="path899"
     d="m -266.47,-1840.23 -34.92,10.2 -117.25,16.06 -71.63,-26.76 -17.84,-5.1 -6.12,-5.61 -3.82,-20.9 -7.65,-12.49 -18.1,-17.33 -74.69,-60.92 -14.27,-13 h -7.39 l -33.14,51.49 -6.12,5.61 -67.04,15.8 -3.82,-24.22 13.76,-3.31 6.88,23.71"
     style="fill:none;fill-rule:nonzero;stroke:#e2001a;stroke-width:5;stroke-linecap:butt;stroke-linejoin:round;stroke-miterlimit:4;stroke-dasharray:none;stroke-opacity:1" />
  <path
     id="path901"
     d="m -750.27,-1927.41 -2.55,-12.24 3.82,-77.23 5.35,-61.69 -4.08,-6.37 9.94,-47.16 0.76,-8.67 -4.08,-7.14 -9.69,-5.1 -8.67,2.29 -4.33,3.06 -7.9,9.18 -6.88,-1.02 -12.74,-11.73 -33.9,-10.45 4.08,-15.8 2.29,-122.1 -0.25,-19.12 5.35,-5.61 33.14,-2.04 1.27,-39.25 2.04,-3.06 -0.51,-26.51 -11.19,-40.76 10.99,-3.24"
     style="fill:none;fill-rule:nonzero;stroke:#e2001a;stroke-width:5;stroke-linecap:butt;stroke-linejoin:round;stroke-miterlimit:4;stroke-dasharray:none;stroke-opacity:1" />
  <path
     id="path933"
     d="m -825.21,-2161.66 -78.77,-23.35 -5.41,0.36 -21.27,30.28 -3.42,12.44 -6.13,2.34 -42.72,-14.96"
     style="fill:none;fill-rule:nonzero;stroke:#e2001a;stroke-width:5;stroke-linecap:butt;stroke-linejoin:round;stroke-miterlimit:4;stroke-dasharray:none;stroke-opacity:1" />
  <path
     id="path935"
     d="m -498.43,-1577.6 22.53,25.77 60.02,133.38 15.5,43.08 20.91,45.24 -0.72,9.73"
     style="fill:none;fill-rule:nonzero;stroke:#e2001a;stroke-width:5;stroke-linecap:butt;stroke-linejoin:round;stroke-miterlimit:4;stroke-dasharray:none;stroke-opacity:1" />
  <path
     id="path937"
     d="m -752.82,-1939.64 -81.59,17.06 -9.91,0.36 -13.34,5.23 -8.29,3.79 -32.08,30.46 -21.99,16.58 -17.12,6.49 -26.68,14.06 -36.23,1.8 h -33.52 l 7.39,74.26 20.37,-21.27 85.79,-75.34"
     style="fill:none;fill-rule:nonzero;stroke:#e2001a;stroke-width:5;stroke-linecap:butt;stroke-linejoin:round;stroke-miterlimit:4;stroke-dasharray:none;stroke-opacity:1" />
  <path
     id="path939"
     d="m -1026.18,-1769.55 -94.99,105.98 -12.62,15.86 -19.29,18.2 -22.17,66.69 -18.02,7.21 0.18,4.51 7.93,5.05 5.05,-1.98 4.87,-14.78"
     style="fill:none;fill-rule:nonzero;stroke:#e2001a;stroke-width:5;stroke-linecap:butt;stroke-linejoin:round;stroke-miterlimit:4;stroke-dasharray:none;stroke-opacity:1" />
  <path
     id="path941-3"
     d="m -640.15,-1976.09 58.75,-93.51 103.23,-73.67"
     style="fill:none;fill-rule:nonzero;stroke:#e2001a;stroke-width:5;stroke-linecap:butt;stroke-linejoin:round;stroke-miterlimit:4;stroke-dasharray:none;stroke-opacity:1" />
</svg>
