<?xml version="1.0" encoding="UTF-8" standalone="no"?>
<svg
   id="svg2"
   viewBox="0 0 4350 3150"
   height="3150"
   width="4350"
   version="1.1"
   xmlns:xlink="http://www.w3.org/1999/xlink"
   xmlns="http://www.w3.org/2000/svg"
   xmlns:svg="http://www.w3.org/2000/svg"
   xmlns:rdf="http://www.w3.org/1999/02/22-rdf-syntax-ns#"
   xmlns:cc="http://creativecommons.org/ns#"
   xmlns:dc="http://purl.org/dc/elements/1.1/">
  <metadata
     id="metadata8">
    <rdf:RDF>
      <cc:Work
         rdf:about="">
        <dc:format>image/svg+xml</dc:format>
        <dc:type
           rdf:resource="http://purl.org/dc/dcmitype/StillImage" />
      </cc:Work>
    </rdf:RDF>
  </metadata>
  <defs
     id="defs6" />
  <g
     id="rt"
     style="opacity:0.25">
    <path
       style="fill:none;stroke:#cccccc;stroke-width:8;stroke-linecap:butt;stroke-linejoin:round;stroke-miterlimit:4;stroke-dasharray:none;stroke-opacity:1"
       id="path3778"
       d="m 1705.5,2030.5 24.5,0.5 8.5,12 7,18.5 -2.5,20 -1,29 6.5,24.5 8.5,20 12,14.5 25,21.5 10.5,6.5 v 6.5 l -2.5,8 -7,3 -44.5,15.5 -11,0.5 -28.5,-14 -11.5,-0.5 -243.5,2 -18.37,-0.29 -39.93,-16.01 -153.37,0.87 -19.63,7.73 -82.61,0.34 -9.08,3.56 -6.3,6.78 -3.32,11.45 0.14,28.96 -4.24,5.36 -5.92,2.08 -50.26,-0.28 -17.74,-8.78 -8.18,0.09 -20.34,20.6" />
  </g>
  <image
     xlink:href="basemap/phxosm.png"
     x="-31.18"
     y="-261.82"
     width="4498.91"
     height="3655.36"
     id="image10"
     style="display:none" />
  <path
     style="fill:none;stroke:#228dcd;stroke-width:5;stroke-linecap:butt;stroke-linejoin:miter;stroke-miterlimit:4;stroke-dasharray:none;stroke-opacity:1"
     id="path3006"
     d="m 2310.33,2294.95 0.17,9.05 3.5,15.5 14,9 35,0.5 24.5,12.5 31.5,14 8.5,9 20,8 18.5,18.5 26,8 115.5,124.5 639.5,-0.5 619.7,-2.14 412.61,-4.92" />
  <path
     style="fill:none;stroke:#228dcd;stroke-width:5;stroke-linecap:butt;stroke-linejoin:round;stroke-miterlimit:4;stroke-dasharray:none;stroke-opacity:1"
     d="m 2288.26,2180.97 -25.76,-19.97 -25,-17 -65,-14.5 -7.5,-5.5 -7,-6.5 -31,-42 -19,-14.5 -343.5,-49 -502.5,-0.5 -616,-1.5 -51.04,-0.06 -3.51,2.63 0.38,13.91 1.88,2.38 20.63,0.01 48.16,0.12 26,10.5 6.5,1.5 h 27 l 5,-3.5 16.5,-9 8.5,-1.5 395,-2 75,3 12,-2 11,-7.5 16,-7.5"
     id="path4198" />
  <path
     style="fill:none;fill-rule:evenodd;stroke:#228dcd;stroke-width:5;stroke-linecap:butt;stroke-linejoin:round;stroke-miterlimit:4;stroke-dasharray:none;stroke-opacity:1"
     d="m 2287.42,2179.78 9.77,10.96 8.82,22.4 4.53,41 0.24,42.43"
     id="path4200" />
  <path
     style="fill:none;stroke:#aace4f;stroke-width:5;stroke-linejoin:round;stroke-opacity:1"
     d="m 2454.24,2300.22 -15.76,0.43 -5.69,-2.91 -18.01,-14.02 -12.55,-3.44 -13.45,1.32 -8.13,5.47 -11.64,7.83 -14.75,1.68 1.01,118.27 0.09,73.35 3.51,11.89 8.2,14.41 12.07,7.52 15.13,3.98 h 203.86 l 9.2,2.55 46.09,0.05"
     id="path11172" />
  <path
     style="fill:none;stroke:#aace4f;stroke-width:5;stroke-linejoin:round;stroke-opacity:1"
     d="m 2354.25,2296.59 -29.55,2.51 -5.15,3.84 1.91,7.91 0.81,7.53 -1.27,5.63 -7.73,11.81 -2.36,7 0.52,33.24 4.27,9.78 6.25,9.74 0.86,4.45 0.02,11.49 3,3.75 29.43,-0.41"
     id="path12689" />
  <path
     style="fill:none;stroke:#f68c1f;stroke-width:5;stroke-linecap:butt;stroke-linejoin:round;stroke-miterlimit:4;stroke-dasharray:none;stroke-opacity:1"
     d="m 642.01,1832.12 -5.38,15.62 -9.13,11.26 -2.5,8.5 -0.5,158.5 3.88,30.95 0.92,11.51 -0.25,13.66 -2.26,19.8 0.25,15.91 2.51,7.77 8.27,9.52 5.36,12.66"
     id="path3776" />
  <path
     style="fill:none;stroke:#f68c1f;stroke-width:5;stroke-linecap:butt;stroke-linejoin:round;stroke-miterlimit:4;stroke-dasharray:none;stroke-opacity:1"
     d="m 64.6,64.24 18.53,0.32 18.02,2.2 29.51,-0.15 6.02,-1.22 6.72,1.06 8.77,12.36 -0.18,79.29 -3.05,11.16 -0.92,7.54 3.02,2.41 122.44,0.36 8.53,2.94 27.29,0.06 3.62,3.87 -2.7,586.51 1.28,118.55 -2,174 6,6 168.5,1 41.5,2.5 79,-0.5 38.5,21.5 -1,740 v 171 l 0.87,48.24 0.34,99.69 -0.25,186.46 5.46,33.62 0.18,71.24 -3.54,36.86 1.24,30.3 1.59,24.81 1.42,125.64 -0.89,124.4 0.89,300.55"
     id="path2" />
</svg>
