<?xml version="1.0" encoding="UTF-8" standalone="no"?>
<svg
   viewBox="0 0 1550 825"
   height="825"
   width="1550"
   id="svg2"
   version="1.1"
   xmlns:xlink="http://www.w3.org/1999/xlink"
   xmlns="http://www.w3.org/2000/svg"
   xmlns:svg="http://www.w3.org/2000/svg"
   xmlns:rdf="http://www.w3.org/1999/02/22-rdf-syntax-ns#"
   xmlns:cc="http://creativecommons.org/ns#"
   xmlns:dc="http://purl.org/dc/elements/1.1/">
  <metadata
     id="metadata8">
    <rdf:RDF>
      <cc:Work
         rdf:about="">
        <dc:format>image/svg+xml</dc:format>
        <dc:type
           rdf:resource="http://purl.org/dc/dcmitype/StillImage" />
      </cc:Work>
    </rdf:RDF>
  </metadata>
  <defs
     id="defs6" />
  <image
     xlink:href="basemap/pmoosm.png"
     width="1859"
     height="1859"
     preserveAspectRatio="none"
     id="image10"
     x="-205"
     y="-1004"
     style="display:none" />
  <path
     id="path836"
     d="m 649.37,84.85 4.03,11.75 -1.01,4.36 -238.59,73.83 -183.22,5.03 -37.59,7.5 -20.28,4.56 -3.98,-3.34 8.59,-62.35 4.61,-7.95 77.93,-41.35 1.91,-5.41 -8.27,-14.79"
     style="opacity:1;fill:none;fill-rule:nonzero;stroke:#d08b51;stroke-width:5;stroke-linecap:butt;stroke-linejoin:round;stroke-miterlimit:4;stroke-dasharray:none;stroke-opacity:1" />
  <path
     id="path840"
     d="m 505.41,510.36 2.85,26.85 -5.7,2.68 -2.01,-1.51 -4.87,-13.93 v -6.21 l 9.73,-7.89 -4.7,-80.54 -13.42,-123.83 -0.67,-20.47 12.26,-137.05"
     style="opacity:1;fill:none;fill-rule:nonzero;stroke:#d08b51;stroke-width:5;stroke-linecap:butt;stroke-linejoin:round;stroke-miterlimit:4;stroke-dasharray:none;stroke-opacity:1" />
  <path
     id="path844"
     d="m 961.63,433.52 13.09,-7.21 15.6,23.99 11.41,14.6 17.11,15.27 55.2,43.62 3.02,6.21 73.49,50 34.06,-46.48 143.79,91.44 65.1,29.36 8.89,-18.62 82.89,37.08 -22.32,39.26 1.51,3.69 9.23,3.19 1.01,4.03 -22.65,39.77"
     style="opacity:1;fill:none;fill-rule:nonzero;stroke:#d08b51;stroke-width:5;stroke-linecap:butt;stroke-linejoin:round;stroke-miterlimit:4;stroke-dasharray:none;stroke-opacity:1" />
  <path
     style="fill:none;stroke:#d08b51;stroke-width:5;stroke-linejoin:round;stroke-dasharray:none;stroke-opacity:1"
     d="m 172.71,191.88 -13.52,1.59 -27.99,0.48 -2.54,-2.86 -1.83,-59.96 -3.58,-3.66 -63.46,3.5"
     id="path1" />
</svg>
