<?xml version="1.0" encoding="UTF-8" standalone="no"?>
<svg
   version="1.1"
   width="750"
   height="775"
   viewBox="0 0 750 775"
   id="svg2"
   xmlns:xlink="http://www.w3.org/1999/xlink"
   xmlns="http://www.w3.org/2000/svg"
   xmlns:svg="http://www.w3.org/2000/svg"
   xmlns:rdf="http://www.w3.org/1999/02/22-rdf-syntax-ns#"
   xmlns:cc="http://creativecommons.org/ns#"
   xmlns:dc="http://purl.org/dc/elements/1.1/">
  <metadata
     id="metadata8">
    <rdf:RDF>
      <cc:Work
         rdf:about="">
        <dc:format>image/svg+xml</dc:format>
        <dc:type
           rdf:resource="http://purl.org/dc/dcmitype/StillImage" />
      </cc:Work>
    </rdf:RDF>
  </metadata>
  <defs
     id="defs6" />
  <g
     id="rt"
     style="opacity:0.25">
    <path
       d="m 270.5,1458 21,-32.5 7.5,-29 3.5,-44 8.5,-53.5 12,-21 20.5,-19 49,-38.5 62.5,-41 37.16,-24.5 19.67,-23 2.32,-32.07 -7.78,-24.11 -14.38,-22.32 -36,-72 -7.5,-30 2,-92 14.48,-28.4 22.1,-19.6 31.53,-24.62 8.22,-21.38 10.49,-56.78 6.85,-32.8 4.83,-64.42 5,-35 -6,-35.5 4,-32.5 14.62,-40.34 2.52,-59.9 9.87,-20.22 -2.21,-20.77 -5.8,-20.77 -30,-47.5 -38.5,-67 -16.5,-12 -30.5,-4.5 -127,48.5 -25.5,16.5 -69.25,42.85 -56.17,20.85 -15.64,9.49 -50.87,50.84 -19.71,10.38 -45.37,13.09 -94.5,41.5 -38.5,21 -19,4.5 -30.5,1.5 -17,4 -57,26.5 -31,24 -27,22 -33.5,59.5 -13.5,19"
       id="path3757"
       style="fill:none;stroke:#cccccc;stroke-width:8;stroke-linecap:butt;stroke-linejoin:round;stroke-miterlimit:4;stroke-dasharray:none;stroke-opacity:1" />
    <path
       d="m 338,231.5 -118.5,26.5 -86.5,52.5 -31,8 -129,13.5 -42.5,-14 -69.5,14.5 -124,-15.5 -26.5,-7 -39,-34 -70,-59.5 -44.5,-20 -40,-5 -85,9 -106.5,5.5 -71,10.5 -60.5,21.5 -14.5,7 -13.5,-1 -12,-9 -79.5,-83 -21,-12 -50.5,-12.5 -81.5,-20.5 h -130.5 l -18.5,-6.5 -56.5,-34 -41,-38 -26,-24 -22.5,-5.5 -39.5,7.5 -21,5.5 -63,-16 -21,-10 -15,-16 -20,-30.5 -28.5,-30.5 -54,-34 -102.5,-69.5 -184,-120.5 -64,-38 -35,-11.5 -54.5,-8 -41.5,-14 -119.5,-64 -175,-82.5 -21,4 -13,11 -25,35 -356,184 -64,75 -12,8 -23,3 -1151,22 -31,9 -26,14 -26,15 -50,41 -170,68 -31,1 -21,4 -25,21 -175,172 -17,9 -24,7 -1421,298 h -21 l -368,-53 -20,-13 -23,-20 -14,-2 -15,1 -13,4 -56,30"
       id="path2991"
       style="fill:none;stroke:#cccccc;stroke-width:8;stroke-linecap:butt;stroke-linejoin:round;stroke-miterlimit:4;stroke-dasharray:none;stroke-opacity:1" />
    <path
       d="m -2114.5,-1261.5 29,26.5 16,29 63,116 7,22 16,13 17,2 22,-3 21,12 17,47 115,132 31,41 55,106 16,13 30,4 21,1 19,19 24,24 21,12 37,14 51,26 24,15 40,24 62,47 30,29 26,34 21,59 10,26 18,20 34,15 121,34 38,17 32,19 33,42 17,7 62,9 46,12 21,10 25,22 111,51 30,3.5 78,1.5 31,0.5 20,10.5 52,65.5 16,38 21.5,24.5 32.5,56.5 19.5,31 38.5,37.5 11,23 3,25 -0.5,29.5 18,33.5 21,22 30.5,24.5 44.5,11.5 48.5,6 63,8 60.5,-13.5 21.5,2.5 28.5,10 134,-14 65,-19 51.5,-16.5 12,-14.5 18.5,-13 29.5,-4 17,6 28,1"
       id="path2987"
       style="fill:none;stroke:#cccccc;stroke-width:8;stroke-linecap:butt;stroke-linejoin:round;stroke-miterlimit:4;stroke-dasharray:none;stroke-opacity:1" />
    <path
       style="fill:none;fill-rule:evenodd;stroke:#cccccc;stroke-width:8;stroke-linecap:butt;stroke-linejoin:round;stroke-miterlimit:4;stroke-dasharray:none;stroke-opacity:1"
       d="m 338,214.02 -57.93,-77.72"
       id="path4145" />
    <path
       style="opacity:1;fill:none;fill-rule:nonzero;stroke:#cccccc;stroke-width:8;stroke-linecap:butt;stroke-linejoin:round;stroke-miterlimit:4;stroke-dasharray:none;stroke-opacity:1"
       d="m 75.75,971.83 -14.92,-0.25 -11.38,5.06 -8.34,1.77 h -5.81 l -7.08,-5.06 -3.54,-5.56 -0.76,-5.56 2.53,-5.56 -0.76,-3.79 -11.12,-10.37 -5.81,-6.07 -7.58,-11.88 -7.58,-4.04 -8.34,-2.53 -5.06,-7.33 -1.77,-6.07 2.28,-21.99 4.55,-8.34 10.11,-2.78 h 7.33 l 6.32,5.06 3.54,6.83 19.21,14.41 11.63,1.26 8.85,3.03 10.87,0.76 10.62,-6.83 21.49,-8.34 8.09,1.26 9.1,5.56 h 8.09 l 6.57,-4.04 6.32,-10.62 10.37,-5.81 7.58,0.76 7.33,8.34 8.34,7.33 7.84,3.79 7.84,-2.02 14.92,-5.56 6.57,-6.83 3.03,-10.87 7.58,-9.1 4.04,-9.35 8.34,-6.83 12.13,-7.33 3.79,-10.11 5.06,-28.31"
       id="path831" />
  </g>
  <image
     xlink:href="../timelines/basemap/rioosm.png"
     id="image10"
     height="6218"
     width="8083.4"
     y="-3901.2"
     x="-6900"
     style="display:none" />
  <path
     id="path838"
     d="m 397.9,82.53 -6.08,2.32 -8.76,22.52 -3.75,0.89 -18.77,-7.33 -15.19,11.44 -40.4,6.08 -10.37,0.89 -8.76,11.62 -10.55,5.01 -14.48,3.93 -20.39,-2.89 -11.62,12.3 -4.61,-0.67 -11.72,-25.55 -5.14,-0.57 -93.11,42.16 -8.32,14.26 -14.92,0.41 -6.18,-9.62 -10.12,0.08 -11.72,-12.62"
     style="opacity:1;fill:none;fill-rule:nonzero;stroke:#0060a8;stroke-width:5;stroke-linecap:butt;stroke-linejoin:round;stroke-miterlimit:4;stroke-dasharray:none;stroke-opacity:1" />
  <path
     id="path832"
     d="m 114.2,164.68 8.25,-14.19 105.73,-48.84 11.69,-0.73 39.68,-19.66 21.45,-6.79 52.56,0.36 3.58,-7.51 129.78,47.91 7.15,5.01 7.51,13.23 77.37,218.04 4.47,15.07 5.55,5.34 4.87,0.34 5.24,-5.08 11.23,-12.47 11.08,-7.83 17.14,-6.44 14.79,0.46 6.47,3.96 7.05,14.57 3.69,4.08 16.35,-0.16"
     style="opacity:1;fill:none;fill-rule:nonzero;stroke:#0060a8;stroke-width:5;stroke-linecap:butt;stroke-linejoin:round;stroke-miterlimit:4;stroke-dasharray:none;stroke-opacity:1" />
  <path
     style="opacity:1;fill:none;fill-rule:nonzero;stroke:#0060a8;stroke-width:5;stroke-linecap:butt;stroke-linejoin:round;stroke-miterlimit:4;stroke-dasharray:none;stroke-opacity:1"
     d="m 517.23,177.56 -7.72,-2.93 -10.73,3.67 -41.85,21 -30.08,13.88 -44.12,17.93"
     id="path833" />
  <path
     style="opacity:1;fill:none;fill-rule:nonzero;stroke:#0060a8;stroke-width:5;stroke-linecap:butt;stroke-linejoin:round;stroke-miterlimit:4;stroke-dasharray:none;stroke-opacity:1"
     d="m 240.4,137.01 -4.12,-9.46 3.4,-4.47 4.47,-7.69 -1.25,-7.87 -8.88,-6.24"
     id="path3230" />
  <path
     style="opacity:1;fill:none;fill-rule:nonzero;stroke:#0060a8;stroke-width:5;stroke-linecap:butt;stroke-linejoin:round;stroke-miterlimit:4;stroke-dasharray:none;stroke-opacity:1"
     d="m 608.12,209.61 -6.26,-0.36 -20.74,11.44 -1.61,6.79 -59.71,37.18 -101.54,20.74 -5.01,-1.61 -24.24,-50.48 -6.29,-2.21 -15.68,6.17 -7.02,-1.5 -6.78,-18 -4.96,-2.61 -5.29,-1.81 -21.27,5.54 -3.58,3.75 -10.37,1.43 -18.77,7.69 -11.44,-2.5 -2.68,-3.4 -4.47,-10.19 -20.63,-33.36 -22.74,-27.58 1.73,-5.42"
     id="path844" />
  <path
     id="path883"
     d="m 622.75,214.77 c 179.58,-117.39 384.47,-170.39 667.85,-130.86"
     style="opacity:1;fill:none;fill-rule:nonzero;stroke:#00ffff;stroke-width:5;stroke-linecap:butt;stroke-linejoin:round;stroke-miterlimit:4;stroke-dasharray:none;stroke-opacity:1" />
  <path
     style="fill:none;stroke:#ce2041;stroke-width:5;stroke-linejoin:round;stroke-dasharray:none;stroke-opacity:1"
     d="m 526.05,333.64 -1.72,5.26 -5.2,10.11 -4.74,6.99 -10.74,41.85 -9.84,7.59 -1.62,3.9 0.94,18.55 -2.25,3.84 -12.79,1.66 -3.33,-0.86 -11.99,-9.24 -3.51,-1.65 -8.49,0.54 -4.1,2.87 -2.53,4.15 0.61,19.69 2.6,2.51 14.49,7.89 1.6,8.03 -4.09,3.73 -3.54,4.87 -15.42,7.6 -0.41,17.93 -5.93,4.58 -3.81,2.06 -5.73,-0.86 -5.07,2.54 -9.06,-0.21 -8.87,2.76 -4.48,5.3 -0.73,4.31 4.32,7.14 0.91,10.33 3.92,4.77 -5.96,4.77 -5.44,-2.59 -3.34,0.8 2.47,7.8 -14.05,4.56 -6.19,-4.12 -3.52,0.57 -0.39,8.4 -11.33,5.98 -4.05,5.75 -10.64,5.4 -11.46,14.4 -10.41,0.89 -6.99,6.6 -3.18,9.77 0.97,8.71 -13.41,4.85 -15.98,18.2 4.53,7.61 -10.87,10.11 -12.16,6.38 -5.36,8.15 -5.44,4.14 -4.53,9.06 -12.48,11.62 -5.3,7.71 -23.29,7.02"
     id="path314" />
  <path
     style="fill:none;stroke:#0060a8;stroke-width:5;stroke-linejoin:round;stroke-opacity:1"
     d="m 110,229.02 -2.4,-53.02"
     id="path1810" />
  <path
     style="fill:none;stroke:#0060a8;stroke-width:5;stroke-linejoin:round;stroke-opacity:1"
     d="m 224.17,148.64 2.88,6.09"
     id="path3232" />
</svg>
