<?xml version="1.0" encoding="UTF-8" standalone="no"?>
<svg
   version="1.1"
   width="3400"
   height="2325"
   viewBox="-2336 -220 3400 2325"
   id="svg2"
   xmlns:xlink="http://www.w3.org/1999/xlink"
   xmlns="http://www.w3.org/2000/svg"
   xmlns:svg="http://www.w3.org/2000/svg"
   xmlns:rdf="http://www.w3.org/1999/02/22-rdf-syntax-ns#"
   xmlns:cc="http://creativecommons.org/ns#"
   xmlns:dc="http://purl.org/dc/elements/1.1/">
  <metadata
     id="metadata8">
    <rdf:RDF>
      <cc:Work
         rdf:about="">
        <dc:format>image/svg+xml</dc:format>
        <dc:type
           rdf:resource="http://purl.org/dc/dcmitype/StillImage" />
      </cc:Work>
    </rdf:RDF>
  </metadata>
  <defs
     id="defs6" />
  <g
     id="rt"
     style="opacity:0.25"
     transform="translate(1925,1150)">
    <path
       style="fill:none;stroke:#cccccc;stroke-width:8;stroke-linecap:butt;stroke-linejoin:round;stroke-miterlimit:4;stroke-dasharray:none;stroke-opacity:1"
       d="m -3859,1310 -30.56,0.94 -186.78,25.2 -34.51,9.31 -32.32,14.24 -28.48,20.27 -32.32,34.51 -43.27,44.37 -32.05,25.41 -36.61,15.1 -39.63,5.66 -35.47,-1.89 -150.95,-24.91 -48.68,-4.53 -47.93,1.51 -460.03,33.21 -42.64,-4.53 -104.16,-12.83 -32.08,5.28 -39.07,19.1"
       id="path3795-6" />
    <path
       d="m -2972.03,-1400.48 8.03,29.48 14.5,16 20.5,11.5 25.5,5.5 24.14,-2.53 186.9,-70.84 27.55,-9.57 30.41,-4.06 27.5,-0.5 19.5,7 17.5,9 21,17.5 162,146 18,19.5 8.26,17.04 10.59,30.21 10.97,20.5 21.52,20.44 24.17,14.32 93.5,26.5 26.72,3.73 22.71,-2.34 23.06,-5.89 37.73,-17.59 28.54,-20.27 41.23,-41.65 30.5,-33 14.78,-32.01 12.17,-41.47 13.73,-25.18 17.19,-20.37 20.75,-13.54 22.38,-7.71 33.31,-4.72 25.81,4.78 22.6,9.88 21.29,14.27 21.39,29.13 11.73,27.54 6.87,21.63 16.38,46.9 1.13,142.27 -0.44,53.68 -13.5,71.83 -1.95,27.73 3.59,19.97 7.63,17.75 14.05,20.16 46.37,44.74 80.28,76.24 51.54,49.49 27.21,29.42 24.91,32.68 17.43,14.79 31.2,15.01 22.76,12.66 12.57,13.84 6.31,12.64 4.55,15.91 1.46,9.75 -0.98,14.27 -11.68,69.65 -5.75,16.07 -6.94,11.4 -22.53,29.33 -12.82,19.4 -3.59,16.37 0.61,16.66 5.44,17.06 7.91,22.68 0.08,16.33 -4.06,30.36 -14.3,53.17 -1.11,20.99 2.57,76.31 6.83,14.36 7.79,7.37 6.17,4.61 21.63,4.91 9.41,-1.93 13.49,-1.71 10.65,1.94 11.62,7.39 7.21,9.1 4.44,10.4 0.19,22.37 -4.8,39.26 -3.66,11.55 -10.41,19.44 -2.64,14.84 -4.43,68.69 -0.85,47.32 -7.69,33.84 -11.04,22.48 -50.45,75.9 -16.8,26.83 -20.74,47.8 -5.2,21.13 0.97,20.77 16.86,66.82 0.05,17.07 -2.24,17.71 -6.65,16.05 -10.7,14.25 -18.22,17.11 -20.41,10.65 -31.41,15.49 -28.47,8.44 -25.05,0.97 -44.92,-5.28 -44.5,-3.98 -28.35,0.37 -39.97,9.23 -24.45,10.09 -26.41,17.46 -18.1,14.23 -20.13,22 -58.95,46.39"
       id="path3799-6"
       style="fill:none;stroke:#cccccc;stroke-width:8;stroke-linecap:butt;stroke-linejoin:round;stroke-miterlimit:4;stroke-dasharray:none;stroke-opacity:1" />
    <path
       d="m -859.5,369.5 -25,-3.5 -21.5,-5.5 -15.5,-7.5 -13,-14.5 -9.5,-23 -2,-28.5 v -25.5 l -12.74,-27.28 -20.37,-22.19 -14.2,-14.85 -14.69,-8.68 -21.5,-6.5 -27,-8.5 -29.5,-21 -68,-13.5 -29.5,-15.5 -25,-14 -27,-15 -14,-11.5 -15,-27.5 -10.5,-17.5 -14.5,-14.5 -21.5,-10.5 -29.5,-5 -24.5,-2 -14,5.5 -8.5,12 -4.33,31.87 -5.67,17.63 -4,18.5 -14.5,59 -2.74,17.75 4.01,16.3 18.72,20.95 8.12,14.41 0.62,15.68 -3.24,12.92 -13,24.5 -28.93,40.8 -32.64,30.87 -33.93,34.84 -9,16 -12.5,41.5 -7.5,14 -13.5,11.5 -78,3.5 -27,8.5 -20.5,14.5 -9.5,19 -12,57 -10,21 -14.5,17.5 -23.5,14 -63.5,19.5 -26.5,17 -132.5,104.5 -58,41.5 -19.5,27.5 -7.5,22 -7,33.5 -8,17.5 -15.5,24 -55,61 -10.5,17.5 -10.5,21.5 -31,80 -14,18 -36.5,36 -18.5,31.5 -40.5,98 -30.5,64.5 -18,55.5 -17.5,70 -10,27.5 -16.5,18 -26,14 -52.5,15 -98,22 -24,-1 -54.5,-20 -68,-0.5 -27.5,-14 -37,-25.5 -22,-7.5 -18.5,-3 -127.5,21 -25,14 -25.5,24 -19.5,26.5 -16,47 -13.5,24 -6.5,16 2.5,30.5 7.5,36.5 -2.5,21 -24,37 -2,49.5 -11.5,26.5 -102,124.5 -17,24 -2,32 5.5,24.5 19,33.5 6,22.5 -4,18 -17,22 -23.5,24.5 -13,33 -0.5,33 6,48 v 30.5 l -11.5,35.5 -21.5,42 -59,93.5 -26,43 v 20 l 8,14.5 11,10 17,1.5 16,-5 26.5,-10 70.5,-1.5 42.5,-11 82,-3.5 116,1 86,3.5 134,19.5 53,9.5 52,15 55,20 19,13.5 22.5,16 17.5,3.5 45,3 15,3.5 174,73 25,6.5 32.5,6.5 15,6 11.5,11 10,13 12,21 15.5,15 25.5,18.5 8,15.5 6.5,39.5"
       id="path3025"
       style="fill:none;stroke:#cccccc;stroke-width:8;stroke-linecap:butt;stroke-linejoin:round;stroke-miterlimit:4;stroke-dasharray:none;stroke-opacity:1" />
    <path
       d="m -1354.75,-94.5 -15.22,-1.81 -27.78,-1.94 -14.5,5.25 -13,17 -2.21,45.29"
       id="path3799-5"
       style="fill:none;stroke:#cccccc;stroke-width:8;stroke-linecap:butt;stroke-linejoin:round;stroke-miterlimit:4;stroke-dasharray:none;stroke-opacity:1" />
    <path
       d="m -2790.5,-2524.81 -10.46,58.19 -2.45,22.89 0.91,39.73 28.5,55 3,31 -5,27.5 -12,24 -23.5,24.5 -32.5,11 c 0,0 -37,-1 -35,-1 2,0 -23,2 -23,2 l -29.5,10 -23.5,25.5 -90,114 -88.5,114.5 -29.5,34 -23.5,10 -13.5,8.5 -9.5,18 -1.5,20.5 16,25.5 5.5,20 -7.5,22.5 -5.5,26 9,22 18.5,13.5 112,20 27.5,14.5 21,27 23,83 6.5,30.5 -6,21 -16.4,43.83 1.32,26.78 7.68,31.57 16.7,32.97 4.93,15.36 6.81,27.93 -5.47,46.23 -20.4,139.65 4.8,36.56 23.22,76.59 13.08,17.08 41.9,28.82 15.21,12.28 12.54,20.01 2.67,17.08 -0.27,21.35 -12.54,38.69 -4.27,18.41 0.53,22.95 6.4,54.44 -1.87,35.76 -16.01,82.19 -25.88,155.57 -12.01,73.12 -4.27,32.29 -3.74,86.99 3.47,55.77 7.47,66.98 7.21,32.82 6.94,31.22 40.03,135.29 14.41,54.44 5.22,15.57"
       id="path2998"
       style="fill:none;stroke:#cccccc;stroke-width:8;stroke-linecap:butt;stroke-linejoin:round;stroke-miterlimit:4;stroke-dasharray:none;stroke-opacity:1" />
    <path
       d="m -1354.75,-94.5 20.49,3.06 14.26,2.94 14,7 5,11 -0.81,18.87 -8.24,13.85 -17.94,13.79 -4.76,12.71 -7.24,68.77 -5,33.5 -10,22.13 -13.22,27.06 -8.31,26.67 -2.31,21.05 -12.05,44.9 -11.45,19.05 -9.95,16.31 -25,27.64 -13.71,24.19 -8,24.5 -13.5,88 22.5,104 3.65,15.74 -1.94,17.8 -3.89,14.83 -10.04,12.33 -21.4,15 -27.05,8.43 -17.32,10.87 -31.5,41 -83.5,112 -8.5,53.5 -6.5,26 1,25.5 3.5,28.5 -2.5,17 -13.2,57.61 -8.02,11.12 -14.26,9.08 -17.61,7.38 -19.53,1.8 -38.39,-7.48 -20.7,-0.49 -19.22,3.99 -18.57,9.5 -39.33,23.14 -18.48,2.27 -21.91,-4.3 -57.84,-23.87 -16.33,-19.56 -24.23,-22.03 -21.88,-17.65 -27,-17.5 -22,-7.5 -31,0.5 h -23.5 l -44.5,-7.5 -23,4 -147.5,55 -27,-2 -40.5,-13.5 -25,5 -27,10 -27,17 -33.5,16.5 -23,27.5 -24.5,18.5 -36.5,9 -76.5,9 -31.5,14 -60.5,29 -46.5,25.5 -34.5,30.5 -25.5,19 -155.5,59.5 -27.5,1.5 -25,-6.5 -62,-31.5 h -27 l -45,10.5 -169,57.5 -44,13.5 -31,-2.5 -87,-13 -303,13.5"
       id="path3795"
       style="fill:none;stroke:#cccccc;stroke-width:8;stroke-linecap:butt;stroke-linejoin:round;stroke-miterlimit:4;stroke-dasharray:none;stroke-opacity:1" />
    <path
       d="m -3595.41,775.3 -21.09,2.19 -24.5,2 -17.5,-2.5 -18,-16 -7,-17 -0.5,-21 0.5,-18.5 -7,-15 -73,-145 -1,-22.5 9,-64.5 19.5,-67.5"
       id="path3797"
       style="fill:none;stroke:#cccccc;stroke-width:8;stroke-linecap:butt;stroke-linejoin:round;stroke-miterlimit:4;stroke-dasharray:none;stroke-opacity:1" />
    <path
       d="m -2793.75,-2506.69 6.76,20.2 72,71.5 122,77 38.5,36 25,28.5 33,70 23.5,41.5 184,243 23,18.5 62.5,31.5 13,13 24.5,55.5 19,24.5 25.5,11 18,9 13,20.5 65.5,103.5 110.5,173 34.5,58 5.5,43.5 16.5,28 24,22 52,30.5 31.5,29 16.5,43.5 0.5,51 0.5,72.5 v 72.5 l 6.5,46.5 17,31.5 31,34 55,26.5 26.5,23.5 16.5,29.5 5.5,21 v 40.5 l 12.5,90 12.5,34 5,21 -3.5,18 -13,13 -26,11 -6,8.5 -2,16.5 7,12.5 13,7.5 h 26.5 l 15,9.5 7,14 v 20.5 l 2,21 10,18 18,12.5 25,6.5 36.5,10 42.5,8.5 18,8 17.5,20.5 15,33.5 7.76,28.45 1.74,22.05 -3,19.75 -29.32,55.66 -45.62,88.29 -10.86,23.7 -8.05,27.25 0.75,24.16 3.29,41.96 5.25,61.91 5.1,35 -6.02,30.84 0.33,4.45 9.77,15.62 19.73,20.93 4.41,10.83 -1.26,15.9 -11,44 -8.4,13.41 -12.1,19.34 -25,27 -24.75,28.5 -25.5,36.5 -15.5,18 -20.75,20 -44.25,19.5 -57.75,22.5 -39.31,12.2 -23.69,8.54 -24.12,5.96 -27.38,2.29 -29.25,-1 -18.75,-2.75 -24.65,-12.65 -24.63,-17.29 -34.47,-14.56 -26,-5.25 -24,-1.5 -26.27,6.96 -23.63,0.5 -62.71,-14.75 -49.21,6.4 -26.69,-1.35 -57.25,-19.25 -36.5,-11 -24.5,-15.5 -40.5,-14 -24.5,-5.65 -50.48,-2.79 -99.52,-39.06 -27.79,-7.54 -43.21,-19.46 -17.79,-10.5 -35.82,-23.73 -77.62,-68.21 -37.77,-13.56 -22,-7 -22.88,-1.79 -24.15,-5.65 -34.09,-26.44 -25.71,-32.85 -27.15,-20.44 -32.41,-33.27 -22.5,-13 -39.29,-27 -65.33,-25.06 -36.27,-7.29 -35.23,2.29 -38,6.21 -38,-5.21 -61,-15.79 -52.77,1 -45.32,8 -24.06,2.15 -90.21,-1.65 -25.15,-3.71 -23,-7 -20.9,-13.17 -26.91,-43.06 -68,-118.56 -32.15,-49.59 -69.91,-70.41 -103.29,-108.79 -94,-72 -35.62,-27.66 -11.6,-21.14 -11.51,-32.54 -1.52,-39.19 8.43,-36.38 -2.5,-25 -8.5,-26 -17,-22.5 -19.5,-11.5 -31,-7 -52.5,-14.5 -24.5,-22.5 -22.5,-36.5 -25.5,-22 -54.5,-28 -40,-10 -57.5,7.5 -36.5,2 -55.5,-16.5 -86,-43.5 -80,-17 -39,-21 -24.5,-29.5 -21,-37.5 -8.5,-35 -10.5,-100.5 -11,-48.5 -16,-40.5 -22,-36.5 -51.5,-51 -29.5,-18.5 -44,-20.5 -49,-11 -104.5,5 -42,1 -32,-3.5 -34,-15 -62,-46.5 -28,-11.5 -40.5,-19.5 -376.27,-73.12 -42.16,-0.53 -68.85,7.47 -58.71,17.61 -259.38,106.21 -50.7,8.01 -57.11,-2.13 -130.22,-27.75 -650.58,-129.69 -337.83,-68.85 -22.95,0.53 -262.05,25.08 -21.35,-0.53 -28.82,-6.4 -135.56,-41.09 -24.55,-11.74 -25.62,-17.61 -34.69,-22.95 -40.03,-18.15 -25.62,-11.21 -43.23,-12.28"
       id="path3799-3"
       style="fill:none;stroke:#cccccc;stroke-width:8;stroke-linecap:butt;stroke-linejoin:round;stroke-miterlimit:4;stroke-dasharray:none;stroke-opacity:1" />
    <path
       d="m -3398.3,-46.24 28.31,-9.25 17,-11.25 45,-12.5 26,-10.75 15.25,-19 13.75,-28.5 24,-28.5 21.5,-35.5 37,-28 6.5,-11 -0.5,-12 -20.5,-31 v -11.5 l 8,-14.5 11,-7.5 25,-8.5 15,-3.5 14.5,9 9.5,21 -1.5,16.5 -6.5,13.5 -35,21.5 -29,20.5"
       id="path3928"
       style="fill:none;stroke:#cccccc;stroke-width:8;stroke-linecap:butt;stroke-linejoin:round;stroke-miterlimit:4;stroke-dasharray:none;stroke-opacity:1" />
    <path
       style="fill:none;fill-rule:evenodd;stroke:#cccccc;stroke-width:8;stroke-linecap:butt;stroke-linejoin:round;stroke-miterlimit:4;stroke-dasharray:none;stroke-opacity:1"
       d="m -5219,-1520.5 -14.5,-24 -36,-159.5 -12,-36 -35,-91.5 0.5,-30 -3,-70 -4.5,-19 -23,-32.5 -91,-82.5 -58.5,-83 -56.5,-84.5 -76,-161.5 -13.5,-69 -8.5,-27 -5.5,-17.5"
       id="path4189" />
    <path
       style="fill:none;fill-rule:nonzero;stroke:#cccccc;stroke-width:8;stroke-linecap:butt;stroke-linejoin:round;stroke-miterlimit:4;stroke-dasharray:none;stroke-opacity:1"
       d="m -5256.58,-2691.27 73.12,-27.22 33.09,1.07 67.78,-18.15 18.15,-2.13 20.28,6.94 16.01,14.94 55.5,78.45 16.54,35.76 44.83,152.64 42.7,87.53 38.82,101.66 28.43,74.46 11.74,27.22 24.02,37.89 12.81,39.49 15.48,25.62 17.61,19.75 19.75,13.88 30.95,15.48 35.76,10.14 37.36,1.6 24.02,-1.07 28.29,-12.28 15.48,-12.28 52.84,-53.37 26.15,-17.61 29.35,-6.4 167.58,-29.35 45.9,-13.88 35.76,-11.74 h 18.15 l 18.15,6.4 91.8,65.65 20.81,4.27 28.29,1.6 34.69,-4.8 54.97,-19.21 21.88,-4.8 20.81,-0.53 127.02,27.22 34.69,10.67 18.68,19.21 44.83,42.16 28.82,21.88 49.63,24.02 78.45,36.83 26.15,20.28 62.44,59.77 176.12,141.43 40.03,41.63 24.02,19.21 57.64,36.83 36.83,32.56 39.49,56.57 c 0,0 13.51,32.91 14.45,33.1 0.94,0.19 7.74,31.32 7.74,31.32 l 16.79,33.02 5.09,15.47"
       id="path848" />
    <path
       d="m -3926.81,-560.74 -22.19,-11.76 -20,-8.5 -28.5,-3 -26,6.5 -24.5,16 -103.5,102.5 -11.5,21.5 -2.5,28 8.5,28.5 1,26.5 -6,18 -114,195 -14.5,16.5 -19.5,17 -258,168.5 -32,23.5 -25,26 -151.5,216 -28.5,40 -19,53.5 -9.5,61.5 -39.5,231.5 -12,72 -13,28.5 -34.5,32 -29.5,25 -15,24 -46.5,62.5 -19.5,41 -60.5,149.5 -23.5,57.5 -30,41 -13.5,30 v 43 l -1.5,25 -19.5,36 -45,50.5 -65,69.5 -112,118.5 -45.89,48.93 -23.48,10.67 -23.29,0.23 -19.25,-9.81 -64.53,-31.7 -324.93,-89.06 -29.06,-16.6 -64.53,-53.21 -23.02,-32.08 -10.57,-29.06 -17.74,-51.7 -19.25,-30.19 -18.87,-18.11 -23.02,-12.83 -47.55,-8.3 -26.79,5.28 -112.84,35.47 -44.15,8.68 -36.23,1.51 -71.7,-0.75 -41.89,-8.68"
       id="path3799-5-5"
       style="fill:none;stroke:#cccccc;stroke-width:8;stroke-linecap:butt;stroke-linejoin:round;stroke-miterlimit:4;stroke-dasharray:none;stroke-opacity:1" />
    <path
       d="m -3496.93,-70.67 -20.57,3.44 -22.5,8.73 -17,17 -51,90.5 -15,17 -29,17.5 -50.05,52.35 -14.66,28.21 -8.29,53.43 -8,21 -17,21 -23,20 -6.09,15.64 1.4,14.81 7.73,13.65 14.94,5.07 12.54,1.6 10.94,8.81 5.34,11.21 -0.27,10.94 -9.54,28.77"
       id="path3799-5-5-3"
       style="fill:none;stroke:#cccccc;stroke-width:8;stroke-linecap:butt;stroke-linejoin:round;stroke-miterlimit:4;stroke-dasharray:none;stroke-opacity:1" />
    <path
       style="fill:none;stroke:#cccccc;stroke-width:8;stroke-linecap:butt;stroke-linejoin:round;stroke-miterlimit:4;stroke-dasharray:none;stroke-opacity:1"
       d="m -5655.6,1874.84 -290.21,311.72 -22.64,32.83 -17.36,35.47 -13.21,32.83 -47.93,159.26 -98.87,300.02 -15.47,27.17 -25.28,29.44 -190.2,180.77 -55.1,50.57 -42.64,43.4 -52.27,37.09 -26.15,12.28 -85.93,21.88"
       id="path3" />
  </g>
  <image
     xlink:href="../timelines/basemap/sydosm.png"
     style="display:none"
     x="-6372.35"
     y="-1885.17"
     width="7566.36"
     height="6445.41"
     id="image10" />
  <path
     d="m 444,1331.5 -5,-2.5 -11.5,-23.5 -20,-47 -3,-14 2.5,-38 -3,-11.5 -4.5,-17 -8,-6 -10,-2 -6.5,-5.5 -12,-17 -10,-4.5 -12,1.5 -12,7 -10,14.5 v 11.5 l 2.5,15.5 9,8.5 13.5,9 14,20 2.5,7 -1,9.5 -2.5,9.5 -6.5,8.5 -12,8.5 -20.5,5.5 -12.5,6 -21,16 h -23.5 l -90,-26 -15,1 -14.5,-1.5 -11.5,-7 -6,-6.5 -4.5,-12 -6.5,-9.5 -14.5,-14.5 -10.5,-5.5 h -13 l -13.5,9 -17.5,14 -16.5,7.5 -19.5,2.5 -31,2.5 -15,0.5 -44.5,10.5 -81,3 -27,6 -44.5,41 -10,32.5 -21.5,35.5 -3,56 4.5,33 -6.5,56 -27.5,42 -8,37 -8.5,14 -27.5,20 -13,23 -1.5,32.5 12,33.5 13.5,22.5 v 18 l -6.5,19 2.5,12 5.5,8"
     id="path3949"
     style="fill:none;stroke:#ad1926;stroke-width:1;stroke-linecap:butt;stroke-linejoin:round;stroke-miterlimit:4;stroke-dasharray:none;stroke-opacity:1" />
  <path
     style="fill:none;stroke:#7a183f;stroke-width:5;stroke-linecap:butt;stroke-linejoin:round;stroke-miterlimit:4;stroke-dasharray:none;stroke-opacity:1"
     d="m 565.12,1059.04 -27.64,-4.03 -0.25,-0.02 v 0 l -2.36,1.4 -10.08,20.73 -0.25,0.9 -7.48,99.04 -0.01,0.26 1.44,48.24 -2.85,37.95 -23.82,94.3 1.77,5.97 39.65,23.52 0.27,3.24 0.15,4.14 -14.37,27.13 -0.29,1.02 -0.49,8.3 0.92,2.09 20.36,16.49 0.47,0.3 33.12,16.26 50.02,28.26 0.82,0.29 41.26,6.91 14.04,3.16 5.86,3.21 9,6.65 5.87,6.81 2.29,5.53 16.26,128.94 3.79,25.59 14.6,35.51 1.44,11.36 -10.45,73.72 -0.54,15.14 0.54,10.81 1.26,7.03 5.95,6.49 18.2,19.83 23.07,138.43 4.51,11.18 7.75,13.7 18.38,14.42"
     id="path852" />
  <path
     style="opacity:1;fill:none;fill-rule:nonzero;stroke:#f62c18;stroke-width:5;stroke-linecap:butt;stroke-linejoin:round;stroke-miterlimit:4;stroke-dasharray:none;stroke-opacity:1"
     d="m 952,1916.04 -74.31,-13.44 -3.05,-5.29 11.4,-75.53 -8.96,-13.44 -13.03,-28.1 -9.16,-11.6 -24.02,-15.27 -5.7,-10.59 -36.24,-15.68 -26.87,-18.32 -31.76,-30.95 -6.11,-11.2 -17.03,-141.43 -2.44,-5.9 -0.42,-0.67 -6.31,-7.33 -0.41,-0.38 -9.37,-6.92 -0.28,-0.18 -6.31,-3.46 -0.65,-0.25 -14.46,-3.26 -0.14,-0.03 -40.89,-6.85 -49.7,-28.08 -0.13,-0.07 -32.93,-16.16 -19.14,-15.51 0.38,-6.47 14.12,-26.65 0.66,-3.32 -0.63,-5.59 -1.17,-4.24 -39.29,-23.43 -0.7,-2.77 23.6,-93.16 0.07,-0.43 2.88,-38.29 0.01,-0.26 -1.44,-48.24 7.44,-98.44 9.07,-18.66 25.83,3.77"
     id="path3967" />
  <path
     d="m 522.25,1345.5 1.75,4.75 -3,12 -8.54,13.17 -0.4,4.59 10.79,6.89 3.41,-1.4 6.25,-8.5 5.75,-23 -2.5,-5.25 -29.75,-6.75 -16.75,-4 -27.25,-3.75 -20,-3"
     id="path3951"
     style="fill:none;stroke:#ad1926;stroke-width:5;stroke-linecap:butt;stroke-linejoin:round;stroke-miterlimit:4;stroke-dasharray:none;stroke-opacity:1" />
  <path
     id="path3999"
     d="m 570.25,1055.5 c 10.24,-235.15 387.59,25.07 531.31,-81.96 251.79,-187.53 305.28,-742.98 404.21,-850.7"
     style="opacity:1;fill:none;fill-rule:nonzero;stroke:#00ffff;stroke-width:5;stroke-linecap:butt;stroke-linejoin:round;stroke-miterlimit:4;stroke-dasharray:none;stroke-opacity:1" />
  <path
     id="path845"
     d="m -2879.58,-1029.41 -15.21,-42.2 2.04,-3.66 5.5,-2.44 2.04,1.63 2.04,-1.02 -0.2,-3.05 -3.05,-0.41 -6.51,-12.62 -0.81,-15.47 -3.66,-4.48 -13.44,-7.33 -3.46,-2.44 -31.59,-75.14 -21.17,-51.51 -23.62,-46.82 -5.29,-20.16 -37.98,-134.17 -16.27,-35.12 -45.2,-63.73"
     style="fill:none;fill-rule:nonzero;stroke:#00b3f0;stroke-width:1;stroke-linecap:butt;stroke-linejoin:round;stroke-miterlimit:4;stroke-dasharray:none;stroke-opacity:1" />
  <path
     style="fill:none;stroke:#cc0d4d;stroke-width:1;stroke-linejoin:round;stroke-dasharray:none;stroke-opacity:1"
     d="m -1895.45,385.65 1.63,-6.22 4,-1.48 62.69,17.19 9.78,9.78 5.48,0.15 3.11,-2.82 11.71,-43.13 27.57,-55.72 20.01,-30.38 11.26,-12.45 26.23,-72.47 7.26,-7.85 42.09,-24.01 27.86,-9.34 8.89,-7.41 13.63,-21.49 2.96,-10.67 -1.33,-9.78 -4.59,-17.19 0.3,-8.6 2.82,-9.78 29.2,-50.98 9.04,-8.3 24.3,-13.49 8.74,-11.41 3.11,-13.63 -0.89,-10.37 -4.59,-12.89 -7.71,-22.08 v -9.34 l 2.52,-12 10.23,-30.83 6.82,-9.93 18.38,-23.56"
     id="path1" />
  <path
     style="fill:none;stroke:#cc0d4d;stroke-width:5;stroke-linejoin:round;stroke-dasharray:none;stroke-opacity:1"
     d="m -1895.45,385.65 -2.67,2.37 -20.01,-5.04 -18.38,-11.56 -23.71,-9.93 -3.71,1.04 -2.82,12.45 -3.71,2.07 -109.22,-28.9 -1.93,-4.15 17.04,-56.32 11.41,-25.49 6.67,-37.64 2.22,-49.5 -2.07,-10.23 -17.04,-41.2 -4.3,-1.63 -41.05,20.3 h -5.93 l -9.48,-3.85 -22.53,2.37 -13.93,7.41 -30.83,12.89 -3.26,1.33 h -3.85 l -13.93,-11.12 -3.26,1.04 -20.01,24.16 -30.38,36.61 -8.3,15.86 -2.82,8.3"
     id="path2" />
</svg>
