<?xml version="1.0" encoding="UTF-8" standalone="no"?>
<svg
   viewBox="0 0 1650 1525"
   height="1525"
   width="1650"
   id="svg2"
   version="1.1"
   xmlns:xlink="http://www.w3.org/1999/xlink"
   xmlns="http://www.w3.org/2000/svg"
   xmlns:svg="http://www.w3.org/2000/svg"
   xmlns:rdf="http://www.w3.org/1999/02/22-rdf-syntax-ns#"
   xmlns:cc="http://creativecommons.org/ns#"
   xmlns:dc="http://purl.org/dc/elements/1.1/">
  <metadata
     id="metadata8">
    <rdf:RDF>
      <cc:Work
         rdf:about="">
        <dc:format>image/svg+xml</dc:format>
        <dc:type
           rdf:resource="http://purl.org/dc/dcmitype/StillImage" />
      </cc:Work>
    </rdf:RDF>
  </metadata>
  <defs
     id="defs6" />
  <g
     id="rt"
     style="opacity:0.25">
    <path
       style="fill:none;stroke:#cccccc;stroke-width:8;stroke-linejoin:round;stroke-opacity:1;stroke-dasharray:none"
       d="m 496.08,706.29 1.8,-23.76 5.41,-13.93 21.63,-30.97 51.45,-47.19 15.4,-24.74 9.67,-21.79 12.13,-22.61 14.75,-20.97 35.56,-41.79 14.58,-23.76 34.74,-67.51 14.58,-24.74 13.76,-17.7 184.44,-205.25 5.9,-11 2.19,-13.78"
       id="path1" />
  </g>
  <image
     y="-2201.12"
     x="-196.38"
     id="image10"
     xlink:href="../timelines/basemap/szdosm.png"
     preserveAspectRatio="none"
     height="3826.12"
     width="2013.75"
     style="display:none" />
  <path
     style="color:#000000;fill:none;fill-rule:evenodd;stroke:#005187;stroke-linejoin:round;stroke-opacity:1;-inkscape-stroke:none"
     d="m 341.59,561.32 -6.54,9.49 -24.66,27.21 -0.01,0.01 -7.86,9.02 -0.09,0.15 -4.7,12.33 -0.03,0.19 0.68,46.2"
     id="path6588" />
  <path
     style="color:#000000;fill:none;fill-rule:evenodd;stroke:#fabb00;stroke-linejoin:round;stroke-opacity:1;-inkscape-stroke:none"
     d="m 299.37,664.74 -0.67,-44.95 4.63,-12.16 7.8,-8.95 24.68,-27.23 0.04,-0.05 6.56,-9.51"
     id="path4506" />
  <path
     style="fill:none;fill-rule:evenodd;stroke:#fabb00;stroke-width:5;stroke-linecap:butt;stroke-linejoin:round;stroke-miterlimit:4;stroke-dasharray:none;stroke-opacity:1"
     d="m 56.53,114.22 21.69,32 9.49,14.1 18.98,18.98 4.88,7.86 4.61,30.92 -0.27,16.81 -2.98,23.05 0.54,17.9 2.71,13.56 14.1,22.78 17.32,9.73 59.22,48.68 7.56,4.29 13.94,2.37 1.12,0.49 7.32,5.7 0.65,0.77 4.34,7.87 0.12,0.26 6.73,16.46 0.16,0.57 1.11,7.35 8.94,29.35 9.53,8.03 0.23,0.21 32.34,35.01 13.44,10.06 0.11,0.08 15.59,13.04 23.35,12.13 0.82,0.68 2.44,3.12 0.5,1.17 0.54,3.66 0.03,0.37 v 12.34 l -0.36,1.3 -2,3.29 -0.29,0.38 -11.24,12.37"
     id="path4510" />
  <path
     id="path4512"
     d="m 73.47,351.78 10.17,-0.41 44.75,-21.29 9.36,-2.31 3.26,-3.97 3.42,1.96 59.39,48.81 0.35,0.24 8.14,4.61 0.81,0.29 13.75,2.34 6.42,4.99 4.02,7.29 6.56,16.05 1.09,7.23 0.08,0.36 9.21,30.23 0.78,1.19 9.98,8.4 32.39,35.06 0.34,0.31 13.57,10.15 15.75,13.17 0.45,0.3 23.11,12.01 1.7,2.17 0.42,2.83 v 11.45 l -1.51,2.49 -11.08,12.19"
     style="fill:none;fill-rule:evenodd;stroke:#005187;stroke-width:5;stroke-linecap:butt;stroke-linejoin:round;stroke-miterlimit:4;stroke-dasharray:none;stroke-opacity:1" />
  <path
     id="path4514"
     d="m 805.41,477.75 -32.27,5.42 -2.85,2.17 -19.53,52.88 -7.05,5.02 -11.8,31.59 -3.39,3.12 -9.63,6.37 -4.47,0.27 -33.49,-0.54 -24,6.64 -2.17,2.58 -1.76,9.76 -1.36,2.58 -3.93,1.9 -13.97,-0.41 -48.41,-9.63 -10.31,-1.63 -12.75,0.54 -6.24,0.68 -10.31,5.15 -10.44,5.29 -9.08,5.83 -7.32,7.86 -3.45,1.24 -16.21,0.24 -13.11,-4.79 -5.95,-0.9 -12.48,1.17 -15.74,4.82 -0.55,0.2 -8.78,4.43 -7.11,-0.57 -0.8,0.07 -4.89,1.22 -16.88,1.65 -1.11,0.38 -4.56,2.93 -0.72,0.69 -5.38,7.87 -58.47,23.37 -10.95,1.38 -28.89,-1.35 -2.19,-2.26"
     style="fill:none;fill-rule:evenodd;stroke:#fabb00;stroke-width:5;stroke-linecap:butt;stroke-linejoin:round;stroke-miterlimit:4;stroke-dasharray:none;stroke-opacity:1" />
  <path
     style="color:#000000;fill:none;fill-rule:evenodd;stroke:#005187;stroke-width:5;stroke-linejoin:round;stroke-miterlimit:4;stroke-dasharray:none;stroke-opacity:1"
     d="m 297.07,666.49 2.88,2.97 1.68,0.76 30.1,1.4 0.43,-0.02 11.48,-1.45 0.62,-0.16 59.47,-23.77 1.14,-0.91 5.52,-8.08 3.63,-2.33 16.46,-1.61 0.36,-0.06 4.68,-1.17 7.41,0.59 1.32,-0.26 9.14,-4.61 15.47,-4.75 11.64,-1.55"
     id="path4947" />
  <path
     style="color:#000000;fill:none;fill-rule:evenodd;stroke:#005187;stroke-linejoin:round;stroke-opacity:1;-inkscape-stroke:none"
     d="m 505.74,733.54 0.94,-13.27 v -0.01 l 2.08,-35.91 2.72,-32.11 7.21,-14.81 0.05,-0.25 -0.56,-8.41 -0.09,-0.26 -2.44,-3.39 -0.41,-0.21 h -16.32 l -13.12,-4.51 -0.17,-0.03 -6e-5,1.3e-4 -5.13,1.12"
     id="path4426" />
  <path
     id="path4522"
     d="m 805.41,477.75 14.24,-3.66 10.03,-4.34 6.24,-8.68 22.78,-43.39 16.81,-23.32 16,-11.93 28.2,-10.85 17.08,-11.39 11.66,-16.81 16.81,-59.39 21.15,-32.54 29.83,-38.78 8.14,-26.58 1.36,-27.66 -8.14,-44.2 -2.44,-4.61"
     style="fill:none;fill-rule:evenodd;stroke:#fabb00;stroke-width:1;stroke-linecap:butt;stroke-linejoin:round;stroke-miterlimit:4;stroke-dasharray:none;stroke-opacity:1" />
  <path
     id="path4524"
     d="m 1015.17,109.61 -23.32,-48.54 -4.07,-1.36 -5.69,1.36 -38.24,43.12"
     style="fill:none;fill-rule:evenodd;stroke:#fabb00;stroke-width:5;stroke-linecap:butt;stroke-linejoin:round;stroke-miterlimit:4;stroke-dasharray:none;stroke-opacity:1" />
  <path
     style="color:#000000;fill:none;fill-rule:evenodd;stroke:#005187;stroke-width:5;stroke-linejoin:round;stroke-miterlimit:4;stroke-dasharray:none;stroke-opacity:1"
     d="m 505.74,733.54 0.72,8.4 2.28,13.64 1.59,14.25 0.67,26.7 1.55,3.73 3.01,3.01 6.6,3.4 15.75,19.05 4.41,3.52 20.1,5.26 6.76,4.66 3.63,7.53 0.05,6.93 -3.39,7.78 -9.6,9.92 -2.75,6.08 -0.83,8.04 2.02,7.4 3.42,4.86 6.49,4.78 9.65,3.74 11.81,1.82 10,4.07 8,6.14 7.42,4.08 10.81,1.28 13.92,-1.93 11.36,-6.44 8.23,-9.26 11.2,-21.57 5.41,-5.19 7.1,-2.54 7.39,-0.19 13.2,6.4 7.14,-0.68 8.99,-6.2 4.34,0.69 80.64,86.39 2.01,23.23 6.77,18.03 26.83,75.11 5.93,23.91 1.67,16.06 -5.08,44.38 -5.76,18.57 -8.36,14.08 13.72,19.32 39.46,18.71 13.83,3.25 61.02,27.93 40.68,6.51 26.58,11.66 8.95,2.44 10.03,-0.54 64.54,-15.19 20.34,2.17 18.44,1.08 11.12,-1.9 9.49,-10.31 9.76,-5.15 55.59,-27.93 13.83,-0.81 7.59,4.07 5.15,7.32 8.41,8.68 16.27,9.22 21.42,5.97 h 16 l 64.81,-18.44 10.85,-0.27 21.42,7.86 15.46,-1.36 19.8,4.61 23.59,2.17 5.97,2.71 5.42,9.76 h 5.15 l 21.97,-2.17 6.51,2.98 4.88,3.53 8.68,-2.44 21.15,-20.07 7.59,0.81 6.24,11.66 3.8,13.02 -0.27,10.58 -3.8,29.56 2.44,20.61 8.68,45.02 2.71,27.12 v 17.36 l -2.98,16.54 -2.44,19.53"
     id="path4594" />
  <path
     id="path4596"
     d="m 828.82,1196.47 -7.56,10.49 2.54,4.12 4.81,1.04 13.97,3.66"
     style="fill:none;fill-rule:evenodd;stroke:#005187;stroke-width:5;stroke-linecap:butt;stroke-linejoin:round;stroke-miterlimit:4;stroke-dasharray:none;stroke-opacity:1" />
</svg>
