<?xml version="1.0" encoding="UTF-8" standalone="no"?>
<svg
   viewBox="0 0 2925 1425"
   height="1425"
   width="2925"
   id="svg2"
   version="1.1"
   xmlns:xlink="http://www.w3.org/1999/xlink"
   xmlns="http://www.w3.org/2000/svg"
   xmlns:svg="http://www.w3.org/2000/svg"
   xmlns:rdf="http://www.w3.org/1999/02/22-rdf-syntax-ns#"
   xmlns:cc="http://creativecommons.org/ns#"
   xmlns:dc="http://purl.org/dc/elements/1.1/">
  <metadata
     id="metadata8">
    <rdf:RDF>
      <cc:Work
         rdf:about="">
        <dc:format>image/svg+xml</dc:format>
        <dc:type
           rdf:resource="http://purl.org/dc/dcmitype/StillImage" />
      </cc:Work>
    </rdf:RDF>
  </metadata>
  <defs
     id="defs6" />
  <g
     id="rt"
     style="opacity:0.25">
    <path
       style="fill:none;stroke:#cccccc;stroke-width:8;stroke-linejoin:round;stroke-opacity:1;stroke-dasharray:none"
       d="m 2841.62,1079.22 -11.14,-81.57 -1.47,-87.13 -4.95,-80.2 -3.18,-32.5 2.47,-15.19 10.6,-11.66 15.19,-7.41 70.3,-17.67 19.79,-11.3 48.75,-29.68 20.13,-15.9 10.6,-9.89 4.6,-9.89 6.36,-24.73 3.18,-29.68 1.77,-12.01 7.77,-15.19 50.52,-57.93 90.44,-95.03 100.68,-85.49 25.44,-15.55 27.2,-5.3 33.2,-2.83 157.56,-4.6 223.62,-11.66 108.45,-13.78 163.21,-20.13 50.16,-10.24 25.79,-10.95 24.38,-12.01 21.9,-4.95 38.86,-3.54 22.61,-7.77 15.55,-10.24 13.43,-9.89 9.18,-12.01 10.6,-20.84 10.95,-9.54 15.9,-6 138.48,-22.25 18.73,0.71 31.45,15.55 18.73,13.43 5.66,9.18 1.77,15.55 -4.24,252.24 29.32,155.09 9.48,52.61 6.25,8.99 6,3.75 11.28,3.84 122.18,-29.08 61.61,-11.71 32.55,-13 73.58,-34.98 61.24,-20.48 27.73,-1.75 16.74,5.5 10.49,9.99 6.99,14.24 14.24,47.46 6.25,32.22 8.99,30.98 19.73,140.89 -1.75,48.71 14.74,117.16 6.74,18.98 11.49,19.23 17.24,17.99 20.98,15.24 54.21,31.23 35.47,15.24 23.98,10.49 10.49,3 68.21,12.57 11.04,8.16 4.95,13.78 3.18,15.55 0.71,110.22 -0.35,295.34 3.36,18.02 21.72,56.35 43.63,116.41 50.69,135.65 32.67,90.79 8.48,26.67 8.12,46.1"
       id="path6" />
    <path
       style="fill:none;stroke:#cccccc;stroke-width:8;stroke-linejoin:round;stroke-opacity:1;stroke-dasharray:none"
       d="m 2577.43,134.58 26.73,26.73 26.48,18.48 26.48,18.73 10.24,10.99 10.24,18.98 23.48,65.2 14.99,21.48 53.46,50.96 33.47,28.73 100.42,102.67 34.47,38.97 16.74,23.73 56.95,80.44 108.42,122.15 31.73,31.97 24.98,14.74 14.74,5.75 15.24,1.75 48.21,-6.49 27.98,-3 13.24,-5.25 21.48,-16.24 18.98,-6.99 62.95,-8.49 11.99,0.25 12.24,-4 12.49,-11.24 19.23,-21.23 14.99,-7.99 16.24,-6 165.37,-14.74 89.18,-14.24 84.68,-19.48 29.48,-0.75 48.21,-6.49 8.74,1.75 8.74,4.5 7.49,10.74 11.24,27.98 3,19.48 2.75,49.21 -4.75,16.24 -6.99,8.49 -12.24,7.24 -23.98,8.74 -9.74,7.99 -6.5,12.74 v 17.49 l 21.98,99.92 41.47,200.59 v 10.24 l -2.75,19.73 1.75,13.24 6,13.74 11.99,11.74 11.99,6 44.47,-1.25 123.65,-25.48 57.7,-21.73 31.23,-4 165.87,-2 159.12,-2.25 16.99,-4.5 217.58,-0.5 97.42,-6.99 51.46,-2.75 64.95,5.5 46.71,-0.5 27.98,-6.74 78.94,-16.49 48.46,-3 105.92,0.75 104.92,1 203.59,-5.25 13.49,5.25 9.24,10.49 6.25,15.99 0.5,18.24 1.75,69.69 -3,33.22 -5.75,15.74 -12.24,28.23 -1.75,24.48 0.25,218.08 6.74,41.72 18.49,59.95 10.74,28.23 15.24,12.49 16.18,7.49 18.3,4.31 33.5,-1.71 80.41,-22.68 23.23,-3.66 33.54,6.07 39.75,-8.14"
       id="path4" />
    <path
       id="path829"
       d="m 2557.76,159.59 82.97,90.38 6.17,13.3 2.88,14.58 -2.07,13.48 -9.95,15.2 -76.47,70.8 -6.12,12.8 -8.13,26.55 -4.93,25.62 1.9,15.84 45.16,95.74 16.73,37.62 9.31,23.22 1.68,27.78 2.02,33.62 28.33,230.49 -0.19,16.81 -9.38,22.99 0.11,18.99 4.72,17.52 10.38,14.16 12.68,6.3 26.24,-1.12 51.34,-4.24 42.72,-4.74 20.02,4.62 14.79,10.61 8.53,17.29 6.61,47.3 9.73,68.13 -1.85,21.32 -14.66,59.64 -5.34,19.22 -0.72,15.73 4.21,50.28 8.38,19.53 20.53,19.1 17.87,14.7 16.53,11.54 25.66,5.43 170.41,-12.2 19.93,1.39 13.9,9.27 6.96,10.2 8.81,19.93 10.2,32.91 69.99,184.93 12.51,37.54 6.5,38.01 2.78,30.59 2.32,92.23 8.52,14.31 29.86,27.48 25.41,23.76 16.65,12.04 12.03,3.84 19.46,1.13 23.41,-4.23 21.87,-6.05 15.83,-9.95 19.59,-24.53 8.68,-7.78 11.67,-5.1 61.87,-8.7 35.82,-4.51 22.73,-8.6 23.18,-17.78 15.53,-9.14 129.86,-18.83 126.53,-4.17 175.66,-10.2 h 62.11 l 91.81,-11.79 18.45,-3.18 29.79,-12.39 25.1,-5.53 54.1,0.32 44.1,10.88 29.1,0.37 45.64,-3.84 16.45,-6.28 10.34,-7.52 8.86,-14.28 1.28,-14.05 -3.33,-28.2 3.66,-26.69 27.85,-60.44 8.34,-19 7.42,-32.91 3.24,-49.59 2.78,-15.29 12.98,-30.13 10.66,-44.49 10.2,-46.81 5.56,-62.57 24.1,-221.53 v -31.05 l -6.03,-33.37 -20.39,-45.42 -5.55,-43.57 -7.71,-34.74 -13.38,-28.77 -28.13,-46.98 -11.51,-32.26 -6.03,-27.35 -0.46,-15.29 6.84,-16.17 9.89,-11.52 17.36,-12.84 20.36,-9.22 130.01,-30.89 59.33,-11.12 34.76,-13.9 72.3,-34.3 25.49,-2.78 21.78,7.42 14.83,17.15 20.86,19.47 12.51,6.03 19,-1.85 76.01,-19.93 31.05,-9.73 21.96,-16.64 15.15,-21.27 27.48,-47.31 12.8,-10.26 15.49,-5.15 66.81,-4.16 30.63,-7.21 143.37,-43.73 254.91,-106.6 101.5,-15.29 275.21,-40.02 72.24,-13.02 9.83,-7.1 6.29,-9.28 2.73,-9.56 -0.55,-67.74 -1.91,-43.42 3.55,-15.3 9.56,-9.28 16.67,-4.65 221.52,-4.1 35.51,-2.19 90.69,-13.66 168.26,-30.32 45.88,-11.74 50.81,-10.92 161.7,-23.22 97.78,0.27 138.21,-4.92 49.99,-0.82 27.59,4.92 58.72,15.57 35.51,2.73 145.86,-0.27 151.87,1.09 103.8,-2.73 28.14,2.19 106.8,13.38 33.87,-1.09 32.5,-3.01 75.39,-9.28 81.95,1.37 30.87,-1.64 100.79,-17.21 29.23,-3.01 124.01,-7.1 161.97,-1.91 325.86,-8.19 485.11,-4.37 22.4,5.74 15.85,11.47 10.1,14.48 4.37,12.56 3.01,15.57 v 115.27 l 7.64,22.94 12.56,34.41 5.19,16.12 1.64,26.77 0.82,344.17 -3.55,34.69 -5.74,25.13 -9.28,42.89 1.37,18.03 10.1,43.71 1.91,19.39 -3.83,15.3 -7.37,15.85 -9.01,11.74 -17.21,12.02 -62.55,28.96 -17.21,14.75 -10.65,20.76 -4.65,18.58 1.64,18.58 11.47,28.14 49.99,110.62 72.38,161.43 16.94,21.3 20.76,14.48 24.04,12.84 24.86,8.74 28.96,6.01 105.98,14.48 201.58,29.23 23.49,-3.28 17.49,-8.46 50.53,-30.6 14.75,-6.29 22.4,-2.46 89.05,-6.29 18.31,-3.55 14.75,-4.65 58.72,2.46"
       style="fill:none;fill-rule:nonzero;stroke:#cccccc;stroke-width:8;stroke-linecap:butt;stroke-linejoin:round;stroke-miterlimit:4;stroke-dasharray:none;stroke-opacity:1" />
    <path
       id="path819"
       d="m 2463.4,1655.43 175.76,-26.51 142.92,-23.05 37.46,-5.19 47.28,-22.52 9.37,-8.89 4.58,-8.59 1.01,-10.12 -5.75,-69.15 -10.37,-156.17 5.75,-25.36 9.76,-12.49 19.43,-7.97 239.04,-25.81 64.2,-1.26 288.79,-38.33 158.46,-14.98 52.44,-4.03 104.31,-17.86 171.16,-38.03 38.61,-13.83 27.66,-3.46 38.03,-10.95 123.32,-29.97 393.02,-72.61 102.17,-20.69 147.93,-66.91 52.21,-6.06 63.14,0.47 69.22,10.86 564.01,-64.61"
       style="fill:none;fill-rule:nonzero;stroke:#cccccc;stroke-width:8;stroke-linecap:butt;stroke-linejoin:round;stroke-miterlimit:4;stroke-dasharray:none;stroke-opacity:1" />
  </g>
  <image
     y="-1250.58"
     x="-338.58"
     id="image10"
     xlink:href="../timelines/basemap/shaosm.png"
     preserveAspectRatio="none"
     height="8650.58"
     width="21626.45"
     style="display:none" />
  <path
     style="opacity:1;fill:none;fill-rule:nonzero;stroke:#0b9750;stroke-width:5;stroke-linecap:butt;stroke-linejoin:round;stroke-miterlimit:4;stroke-dasharray:none;stroke-opacity:1"
     d="m 74.36,899.42 -5.43,-35.3 14.12,-83.09 1.09,-59.19"
     id="path1445" />
  <path
     style="opacity:1;fill:none;fill-rule:nonzero;stroke:#0b9750;stroke-width:1;stroke-linecap:butt;stroke-linejoin:round;stroke-miterlimit:4;stroke-dasharray:none;stroke-opacity:1"
     d="m 84.14,721.84 -2.17,-53.76 4.89,-9.23 54.31,-22.27 47.25,-18.46 71.14,-34.76"
     id="path1447" />
  <path
     style="opacity:1;fill:none;fill-rule:nonzero;stroke:#0b9750;stroke-width:5;stroke-linecap:butt;stroke-linejoin:round;stroke-miterlimit:4;stroke-dasharray:none;stroke-opacity:1"
     d="m 259.55,583.36 48.73,-24.05 26.5,-6.91 35.33,-2.69 116.74,-3.84 28.42,1.15 113.28,21.12 29.18,1.54 137.86,-13.06 24.58,2.3 29.18,6.91 45.31,16.9 27.65,7.3 65.66,14.21 52.22,18.43 32.64,10.75 101.76,46.85 398.98,203.91 65.28,25.73 20.74,15.36 39.55,8.83 100.23,18.82 72.19,15.36 16.51,0.77 27.65,-2.69 72.19,-17.66 38.78,-0.38 48,-1.15 43.78,-8.06 16.51,-3.46 4.99,2.3 v 26.11 l -1.54,35.33 -12.29,113.28 6.53,6.53 173.19,-11.14 74.88,4.61 54.53,-4.99 3.46,3.84 14.21,100.23 5.76,3.07 218.88,-25.34 5.38,3.84 18.82,155.14 5.76,4.61 151.68,-12.67"
     id="path2035" />
  <path
     style="opacity:1;fill:none;fill-rule:nonzero;stroke:#c5263d;stroke-width:5;stroke-linecap:butt;stroke-linejoin:round;stroke-miterlimit:4;stroke-dasharray:none;stroke-opacity:1"
     d="M 913.08,577.35 928.44,466.38 v -37.63 l -2.69,-46.46 4.22,-6.14 43.78,-2.3 85.63,19.97 180.87,41.09"
     id="path2037" />
  <path
     style="opacity:1;fill:none;fill-rule:nonzero;stroke:#c5263d;stroke-width:1;stroke-linecap:butt;stroke-linejoin:round;stroke-miterlimit:4;stroke-dasharray:none;stroke-opacity:1"
     d="m 1240.25,434.89 41.09,6.14 36.86,14.59 24.58,8.45 52.22,49.92 12.67,5.76 25.73,7.68"
     id="path2039" />
  <path
     style="opacity:1;fill:none;fill-rule:nonzero;stroke:#c5263d;stroke-width:5;stroke-linecap:butt;stroke-linejoin:round;stroke-miterlimit:4;stroke-dasharray:none;stroke-opacity:1"
     d="m 1433.41,527.43 33.41,11.52 41.97,6.24 14.43,-1.13 9,-5.23 5.43,-5.43 4.34,-9.78 0.54,-10.32 -2.17,-20.36 5.16,-40.73"
     id="path2041" />
  <path
     style="opacity:1;fill:none;fill-rule:nonzero;stroke:#c5263d;stroke-width:1;stroke-linecap:butt;stroke-linejoin:round;stroke-miterlimit:4;stroke-dasharray:none;stroke-opacity:1"
     d="m 1545.52,452.21 8.69,-43.72 6.52,-17.11 20.09,-32.58 1.63,-11.13 -2.99,-27.97 6.79,-26.34 9.78,-10.32 85.53,-71.41 20.09,-7.87 38.56,-13.58 102.64,-37.2 46.16,-8.42 194.42,-38.29 30.95,-5.97 34.48,-14.66 35.57,-0.54 9.5,-5.16 12.22,-8.96 7.87,-0.54 7.87,0.54 7.33,7.06 3.8,5.7 6.52,26.34 22.27,26.07 12.76,10.05 20.91,11.13 9.5,8.96 12.76,15.75 16.02,24.17 34.8,51.22 30.91,32.95 80.37,84.72"
     id="path2043" />
  <path
     style="opacity:1;fill:none;fill-rule:nonzero;stroke:#c5263d;stroke-width:5;stroke-linecap:butt;stroke-linejoin:round;stroke-miterlimit:4;stroke-dasharray:none;stroke-opacity:1"
     d="m 2479.86,375.09 23.62,21.72 39.1,24.98"
     id="path2045" />
  <path
     style="opacity:1;fill:none;fill-rule:nonzero;stroke:#c5263d;stroke-width:1;stroke-linecap:butt;stroke-linejoin:round;stroke-miterlimit:4;stroke-dasharray:none;stroke-opacity:1"
     d="m 2397.32,287.93 16.02,11.4 15.75,1.36 17.65,-1.36 8.69,-3.26 30.68,-29.05 33.4,-29.87"
     id="path2047" />
  <path
     style="opacity:1;fill:none;fill-rule:nonzero;stroke:#c5263d;stroke-width:5;stroke-linecap:butt;stroke-linejoin:round;stroke-miterlimit:4;stroke-dasharray:none;stroke-opacity:1"
     d="m 2519.51,237.16 33.13,-28.78 1.63,-5.43 -2.44,-5.43 -7.87,-8.69"
     id="path2049" />
  <path
     style="fill:none;stroke:#c5263d;stroke-width:5;stroke-linejoin:round;stroke-dasharray:none;stroke-opacity:1"
     d="m 929.97,376.15 -23.43,3.57 -133.05,37.01 -19.07,9.85 -24.19,15.22"
     id="path11082" />
</svg>
