<?xml version="1.0" encoding="UTF-8" standalone="no"?>
<svg
   version="1.1"
   id="svg2"
   width="1525"
   height="1525"
   viewBox="0 0 1525 1525"
   xmlns:xlink="http://www.w3.org/1999/xlink"
   xmlns="http://www.w3.org/2000/svg"
   xmlns:svg="http://www.w3.org/2000/svg"
   xmlns:rdf="http://www.w3.org/1999/02/22-rdf-syntax-ns#"
   xmlns:cc="http://creativecommons.org/ns#"
   xmlns:dc="http://purl.org/dc/elements/1.1/">
  <metadata
     id="metadata8">
    <rdf:RDF>
      <cc:Work
         rdf:about="">
        <dc:format>image/svg+xml</dc:format>
        <dc:type
           rdf:resource="http://purl.org/dc/dcmitype/StillImage" />
      </cc:Work>
    </rdf:RDF>
  </metadata>
  <defs
     id="defs6" />
  <image
     xlink:href="../basemap/tmposm.png"
     y="-313.56"
     x="-40.89"
     id="image12"
     style="display:none"
     preserveAspectRatio="none"
     height="1930.67"
     width="1608.89" />
  <path
     style="fill:none;stroke:#da2128;stroke-width:5;stroke-linejoin:round;stroke-miterlimit:4;stroke-dasharray:none;stroke-opacity:1"
     d="m 1466.78,1462.78 -22.9,4.07 -6.71,0.59 -9.84,-2.71 -9.82,-4.13 -6.81,-6.14 -5.12,-11.08 0.05,-13.78 -8.15,-19.15 -3.77,-3.38 -8.07,-1.91 -3.18,-3.94 -65.97,-115.78 -12.77,-30.95 -9.63,-31.9 -29.33,-134.6 -2.03,-17.47 -5.79,-24.81 -4.1,-10.04 -8.62,-9.9 -12.63,-10.78 -7.13,-10.13 -1.67,-11.26 2.4,-55.11 -2.26,-16.83 -5.57,-15.85 -30.34,-50.25 -11.57,-22.04 -4.94,-8.64 -9.74,-24.49 -10,-37.71 -20.43,-77.39 -2.38,-1.76 -2.86,-0.65 -10.59,0.07 -8.65,-0.92 -10.85,-6.37 -9.52,-16.8 -7.38,-24.03 5.48,-14.32 -1.48,-4.38 -13.61,-2.99 -86.42,-38.38 -106.97,-35.23 -10.67,-8.22 -9.05,1.57 -42.69,0.81 -13.44,1.31 -49.18,0.47 -4.8,4.18 -142.2,22.44 -4.52,-2.82 -4.63,-5.86 -17.46,2.18 -55.65,-6.58 -21.05,-4.71 -7.1,-12.07 1.15,-14.07 -3.48,-21.88 -2.75,-1.99 -4.62,1.19"
     id="path837" />
  <path
     style="fill:none;stroke:#da2128;stroke-width:5;stroke-linejoin:round;stroke-miterlimit:4;stroke-dasharray:none;stroke-opacity:1"
     d="m 864.45,531.3 11.55,-7.65 95.48,-36.75 5.74,-5.63 31.97,-44.29 5.43,-0.97 h 5.61 l 4.22,2.02 3.17,7.84 17.62,16.27 5.6,2.27 h 7.36 l 38.94,-11.61 12.98,-11.58"
     id="path839" />
  <path
     style="fill:none;stroke:#da2128;stroke-width:5;stroke-linejoin:round;stroke-miterlimit:4;stroke-dasharray:none;stroke-opacity:1"
     d="m 695.13,547.63 17.94,22.32 13.75,19.41 3.61,13.16"
     id="path841" />
  <path
     style="fill:none;stroke:#da2128;stroke-linejoin:round;stroke-opacity:1"
     d="m 482.97,495.47 -12.88,9.52 -5.74,3.03 -15.15,2.39 -18.78,2.54 -9.8,-2.94 -7.53,-6.33 -6.59,-12.19 -5.74,-15.17 -3.12,-4.88 -6.81,-5.32 -63.16,-38.11 -19.32,-10.14 -9.68,-3.62 -13.21,-2.17 -10.76,-0.9 -4.7,-1.54 -5.43,-3.8 -33.1,-32.74 -4.16,-2.44"
     id="path456" />
  <path
     style="opacity:1;fill:none;stroke:#da2128;stroke-width:5;stroke-linejoin:round;stroke-opacity:1"
     d="m 227.31,370.66 -123.64,-41.79 -5.43,-2.62 -16.19,-12.12 -11.76,-10.85 -0.63,-3.53 1.45,-3.71 9.04,-10.49 1.36,-4.97 10.94,-55.53 0.9,-13.21 2.26,-5.79 12.66,-12.66 2.53,-1.27 11.4,0.36 7.78,-0.54 8.77,-4.88 15.47,-11.12 8.32,-3.71 9.95,-1.63 21.62,1.09 2.17,-1.72 1.18,-3.17 -0.9,-22.07 2.17,-3.53 13.57,-8.23 6.15,-7.24 9.5,-14.92 5.97,-4.61 10.49,-5.43 4.43,0.45 2.8,-2.8 v -22.61 l -2.26,-9.59"
     id="path1" />
</svg>
