<?xml version="1.0" encoding="UTF-8" standalone="no"?>
<svg
   viewBox="0 0 600 600"
   height="600"
   width="600"
   id="svg2"
   version="1.1"
   xmlns:xlink="http://www.w3.org/1999/xlink"
   xmlns="http://www.w3.org/2000/svg"
   xmlns:svg="http://www.w3.org/2000/svg"
   xmlns:rdf="http://www.w3.org/1999/02/22-rdf-syntax-ns#"
   xmlns:cc="http://creativecommons.org/ns#"
   xmlns:dc="http://purl.org/dc/elements/1.1/">
  <metadata
     id="metadata8">
    <rdf:RDF>
      <cc:Work
         rdf:about="">
        <dc:format>image/svg+xml</dc:format>
        <dc:type
           rdf:resource="http://purl.org/dc/dcmitype/StillImage" />
      </cc:Work>
    </rdf:RDF>
  </metadata>
  <defs
     id="defs6" />
  <image
     xlink:href="basemap/trdosm.png"
     width="754.5"
     height="754.5"
     preserveAspectRatio="none"
     id="image10"
     x="0"
     y="-129.5"
     style="display:none" />
  <path
     id="path817"
     d="m 494.74,293.5 0.6,-6.35 -2.52,-12.22 -0.6,-6.47 1.32,-9.23 -2.16,-7.79 -6.11,-13.3 -0.84,-8.75 -0.48,-32.48 -2.28,-9.95 -2.52,-16.78 -7.55,-14.74 -1.56,-7.43 -4.43,-20.73 -4.79,-7.43 -7.19,-5.03 -14.26,-20.25 -11.39,-21.09 -1.62,-20.43"
     style="opacity:1;fill:none;fill-rule:nonzero;stroke:#c2001b;stroke-width:5;stroke-linecap:butt;stroke-linejoin:round;stroke-miterlimit:4;stroke-dasharray:none;stroke-opacity:1" />
  <path
     id="path819"
     d="m 525.66,446.9 0.6,7.31 -1.56,6.95 -3.6,8.39 -6.95,8.75 -6.35,6.47 -8.87,7.19 -8.51,4.79 -10.91,3.96 -20.13,5.39 -64.36,18.1 -42.55,11.63 -8.39,1.08 -4.31,-0.24 -8.27,-4.31 -8.99,-9.35 -31.04,-29.84 -5.27,-2.16 -10.67,-1.44 -8.99,-3 -7.67,-7.19 -14.14,-16.42 -11.75,-18.7 -8.27,-10.43 -9.23,-10.91 -13.06,-14.26 -18.58,-14.86 -7.19,-3.48 -6.71,-1.68 -6.71,-0.72 -19.78,4.31 -4.91,1.56 -5.63,4.67 -9.59,9.23 -6.59,3.72 -8.03,2.28 -14.5,3.72 -6.47,4.19 -24.57,28.16"
     style="opacity:1;fill:none;fill-rule:nonzero;stroke:#c2001b;stroke-width:5;stroke-linecap:butt;stroke-linejoin:round;stroke-miterlimit:4;stroke-dasharray:none;stroke-opacity:1" />
  <path
     id="path821"
     d="m 525.66,446.9 -3.11,-26.48 -4.24,-21.19 -4.58,-14.58 0.17,-7.29 3.22,-12.88 -0.85,-6.61 -2.37,-5.59 -4.24,-5.59 -14.24,-16.1 -3.39,-7.8 -1.19,-6.78 1.19,-9.15 2.7,-13.37"
     style="opacity:1;fill:none;fill-rule:nonzero;stroke:#c2001b;stroke-width:1;stroke-linecap:butt;stroke-linejoin:round;stroke-miterlimit:4;stroke-dasharray:none;stroke-opacity:1" />
</svg>
