<?xml version="1.0" encoding="UTF-8" standalone="no"?>
<svg
   version="1.1"
   id="svg2"
   width="825"
   height="875"
   viewBox="0 0 825 875"
   xmlns:xlink="http://www.w3.org/1999/xlink"
   xmlns="http://www.w3.org/2000/svg"
   xmlns:svg="http://www.w3.org/2000/svg"
   xmlns:rdf="http://www.w3.org/1999/02/22-rdf-syntax-ns#"
   xmlns:cc="http://creativecommons.org/ns#"
   xmlns:dc="http://purl.org/dc/elements/1.1/">
  <metadata
     id="metadata8">
    <rdf:RDF>
      <cc:Work
         rdf:about="">
        <dc:format>image/svg+xml</dc:format>
        <dc:type
           rdf:resource="http://purl.org/dc/dcmitype/StillImage" />
      </cc:Work>
    </rdf:RDF>
  </metadata>
  <defs
     id="defs6" />
  <image
     xlink:href="basemap/tsrosm.png"
     style="display:none"
     width="1177"
     height="1177"
     preserveAspectRatio="none"
     id="image12"
     x="-90"
     y="-100" />
  <path
     style="fill:none;stroke:#e3a900;stroke-width:5;stroke-linejoin:round;stroke-opacity:1"
     d="m 316.58,107.34 4.92,8.38 -22.42,8.81 -15.1,8.01 -16.32,13.28 -23.34,23.74 -11.35,11.81 -8.67,14.89 -12.02,30.47 -3.59,32.58 -1.58,21.18 3.96,4.86 36.61,10.62 35.38,4.74 83.97,7.15 5.87,2.77 40.81,3.24 41.96,1.97 14.18,2.33 46.94,-0.76 20.3,-3.92 54.01,-13.87 19.73,-11.99 8.66,-0.79 15.67,1.94"
     id="path855" />
  <path
     style="fill:none;stroke:#e3a900;stroke-width:5;stroke-linejoin:round;stroke-opacity:1"
     d="m 739.37,653.79 -63.98,-238.26 -5.16,-16.11 -8.05,-16.11 -13.97,-16.86 -10.95,-31.21 -6.42,-14.22 4.32,-32.24"
     id="path2" />
  <path
     style="fill:none;stroke:#e3a900;stroke-width:5;stroke-linejoin:round;stroke-opacity:1"
     d="m 733.02,657.73 -57.79,-45.88 -18.43,-8.31 -18.41,-4.94 -121.38,-18.82 -124.86,53.91 -39.72,22.14 -32.79,9.44 -44.6,5.18 -49.89,3.29 -41.65,-3.32 -33.78,-9.09 -26.58,-11.2 -22.67,-20.85 -16.78,-21.39 -13.01,-25.28 -9.76,-24.73 167.29,-76.43 -40.12,-84.04 -9.3,1.83"
     id="path859" />
  <path
     style="fill:none;stroke:#e3a900;stroke-width:5;stroke-linejoin:round;stroke-opacity:1"
     d="m 635.15,288.78 65.31,10.41 30.69,-38.17 11.58,-16.22 15.5,-34.9 -6.35,-138.14 -5.27,-4.37 -51.38,4.33 -111.28,81.64 26.44,38.26 10.21,28.86 8.34,26.26 9.68,17.69 -3.47,24.35"
     id="path861" />
  <path
     style="fill:none;stroke:#e3a900;stroke-width:5;stroke-linejoin:round;stroke-opacity:1"
     d="m 334.96,305.11 -1.15,19.05 1.83,14.61 -1.1,15.92 2.77,7 3.84,5.3 18.49,13.07 v 6.64 l -50.7,39.19 -11.68,10.73 -16.33,19.43 -52.72,25.38"
     id="path863" />
  <path
     style="fill:none;stroke:#e3a900;stroke-width:5;stroke-linejoin:round;stroke-opacity:1"
     d="m 308.93,425.89 24.13,45.68 46.3,64.22 -4.09,25.36 0.2,19.21 -2.21,5.29 13.48,26.74 5.42,21.3"
     id="path865" />
  <path
     style="fill:none;stroke:#e3a900;stroke-width:5;stroke-linejoin:round;stroke-opacity:1"
     d="m 123.13,650.11 3.55,6 2.39,26.63 4.16,13.59 26.64,38.27 2.74,2.71 -21.92,37.12 -6.54,0.76 -5.54,-4.28"
     id="path839" />
  <path
     style="opacity:1;fill:none;stroke:#e3a900;stroke-width:5;stroke-linejoin:round;stroke-dasharray:none;stroke-opacity:1"
     d="m 162.61,737.31 33.7,28.06 129.72,38.69 59.26,10.68 3.92,-2.14 6.76,-35.77 3.03,-52.86 6.23,-44.85 -13.07,-45.43"
     id="path1" />
  <path
     style="opacity:1;fill:none;stroke:#e3a900;stroke-width:5;stroke-linejoin:round;stroke-dasharray:none;stroke-opacity:1"
     d="m 379.36,535.79 12.26,7.09 16.86,4.53 13.09,-2.01 32.47,-15.1 12.84,-11.07 171.65,-86.83 38.45,-10.99"
     id="path3" />
</svg>
