<?xml version="1.0" encoding="UTF-8" standalone="no"?>
<svg
   version="1.1"
   id="svg2"
   width="1125"
   height="750"
   viewBox="6700 800 1125 750"
   xmlns:xlink="http://www.w3.org/1999/xlink"
   xmlns="http://www.w3.org/2000/svg"
   xmlns:svg="http://www.w3.org/2000/svg"
   xmlns:rdf="http://www.w3.org/1999/02/22-rdf-syntax-ns#"
   xmlns:cc="http://creativecommons.org/ns#"
   xmlns:dc="http://purl.org/dc/elements/1.1/">
  <metadata
     id="metadata8">
    <rdf:RDF>
      <cc:Work
         rdf:about="">
        <dc:format>image/svg+xml</dc:format>
        <dc:type
           rdf:resource="http://purl.org/dc/dcmitype/StillImage" />
      </cc:Work>
    </rdf:RDF>
  </metadata>
  <defs
     id="defs6" />
  <g
     id="rt"
     style="opacity:0.25">
    <path
       style="fill:none;fill-rule:evenodd;stroke:#cccccc;stroke-width:8;stroke-linecap:butt;stroke-linejoin:round;stroke-miterlimit:4;stroke-dasharray:none;stroke-opacity:1"
       d="m 11760.93,-4220.75 -84.3,45.27 -23.37,6.16 -29.14,1.41 -29.15,-2.58 -97.05,-30.01 -159.5,-13 -30.5,4.5 -35,11 -36.5,24 -27,29.5 -14.5,26.5 -78.5,173 -10.5,58.5 15,183 -2,47 -66.5,338 -24.5,56 -223.5,496 -23.5,37.5 -25,30.5 -288,271.5 -17,26 -64,144.5 -23.5,29.5 -32.5,21 -149,77.5 -67.5,12 -33,13 -27.5,20.5 -20.5,27.5 -152,295.5 -116.5,498.5 -12.5,25 -17,24.5 -24,20.5 -149,83.5 -34.5,31 -171.5,194.5 -26,48.5 -12,46.5 -13.5,120.5 -12.5,32 -16,25 -47,49 -34,72 -14,16 -70.5,54 -42.5,46 -27,16 -28.5,9.5 -68,7.5 -39,16 -30.5,30 -34.5,71.5 -18.5,20 -31,22 -153,41 -127.5,87.5 -133.5,116.5 -77.11,54.04 -34.19,18.52 -54.48,14.93 -12.95,6.24 -9.42,8.36 -38.4,56.43 -3.89,13.36 -0.06,93.12 -10,93.5 v 54.5 l -11,64.5 -4.5,62.5 -9,41.5 -19.5,53 -15.5,25.5 -12.54,17.11 -26.96,5.14 -23,13.5 -58.39,88.81 -11.17,23.44 -24.33,81.35 -40.69,159.92 -15.74,43.7 -20.67,30.89 -21.55,12.09 -20.26,1.7 -18.35,9.19 -16.21,16.68 -12.13,23.98 5,96.25 19.5,42 -2.25,67.5 -21.5,107.25 -9.5,8.75 -14.5,3 -142.9,-19 -19.48,5.25 -2.5,10.9 -8.49,63.38 -4.25,29.97 -2.62,30.59"
       id="path5263" />
    <path
       style="fill:none;fill-rule:evenodd;stroke:#cccccc;stroke-width:8;stroke-linecap:butt;stroke-linejoin:round;stroke-miterlimit:4;stroke-dasharray:none;stroke-opacity:1"
       d="m 8615.53,1393.51 -225.88,191.07 -30.45,32.07 -28.05,61.2 -25.89,22.8 -42.22,8.25 -443.2,29.92 -49.27,-7.47 -56.57,3.01 -30.43,12.75 -33.94,31.82 -19.45,19.8 -42.43,30.76 -97.23,37.83 -17.54,9.9 -18.12,58.34 -13.48,14.5 -16.62,29.34 -22.98,79.55 -5.11,23.73 3.67,20.49 -35.47,58.67 5.52,98.71 -4.75,62.16 -19.01,56.25 -3.13,20.99 -9.45,30.38 -18.12,36.26 -19.08,25.58 -18.28,16.58 -89.52,48.27 -16.34,22.91 -9.01,15.2 -5.07,57.16 -26.95,78.44 -16.62,77.07"
       id="path6686" />
    <path
       style="fill:none;fill-rule:evenodd;stroke:#cccccc;stroke-width:8;stroke-linecap:butt;stroke-linejoin:round;stroke-miterlimit:4;stroke-dasharray:none;stroke-opacity:1"
       d="m 6016.93,5636 -54,-42.5 -152.74,-92.4 -8.21,-8.07 -4.15,-9.5 -1.41,-58.53 -4.85,-14.18 -51.15,-73.82 -15,-8 -44,-2.5 -14,-5 -18.5,-18 0.29,-37.01 42.21,-64.87 4,-15.12 -5,-50 5.5,-22 45,-51 7.5,-17 1.5,-22.5 -30.5,-99.5 1.5,-12.5 6,-16.5 41.5,-39 21,-43.5 -0.5,-51 8,-27 10.5,-37.5 v -50 l -8.5,-17 -25,-21.5 -7,-18.5 -20,-188.5 1,-15 31,-94 15,-32.5 3,-15 1,-41 6.5,-19.5 127.5,-178.5 8,-29 28.75,-99 43.75,-49.25 14,-22.25 143.75,-359.5 58,-50.75 1.25,-15.5 -17.25,-88.75 -1.25,-64.75 4.12,-50.74 6.88,-40.01 8.5,-34 38,-81.5 144,-196 20.5,-40.5 50.5,-107 53.5,-82 43,-34 59,-61 14,-20 22.5,-18 8,-16 14,-27.5 14,-23.5 v -11 l -5.5,-11.5 -48,-57.5 -4.5,-15 -3.88,-62.62 1.38,-13.88 73.5,-118 v -10 l -16,-36.5 -8.5,-38.51 -18.22,-27.73 -2.02,-10.51 0.25,-50.01 -10,-22.74 -9.08,-39.61 -0.18,-8.89 3.25,-9.44 42,-83.56 18.5,-115 12,-112 18.25,-67.75 36.25,-88 45.72,-75.65 2.81,-10.13 -4.16,-36.56 -10.34,-15.88 -45.03,-33.77 -28.25,-9.25 -31.25,-16.5 -24.75,-10.5 -26.25,-12.75 -35,1.5 -26.5,-5 -20.5,-5 -35,-16.5 -78.75,-73.75 -117.25,-66.25 -168.5,-94.5 -92.75,-90.75 -71,-52.75 -7.75,-13.75 -4.5,-64.75 -9.25,-46.5 -11,-9.25 -45.75,-15.25 -45,-29.25 -47,-11.5 -21.5,-14.5 -17,-19 -12.5,-17.5 -60,-38 -9.5,-14 -5,-27 -11.5,-16.5 -63.5,-48 -127.5,-63.5"
       id="path4629" />
    <path
       style="fill:none;fill-rule:evenodd;stroke:#cccccc;stroke-width:8;stroke-linecap:butt;stroke-linejoin:round;stroke-miterlimit:4;stroke-dasharray:none;stroke-opacity:1"
       d="m 5736.11,777.56 25.83,-0.81 18.24,8.75 14.75,15.5 5.5,19 3,17.5 7.5,12.26 10.75,10.22 74.27,33.88 46.98,17.64 18,12.5 9.5,13.5 4,28.5 1,20 11,29.26 0.25,51.74 3.75,20.51 17,15.5 7.5,3.5 27,0.12 33.25,-5.38 50.25,8.25 39,31.5 38.75,12.75 72.75,30.25 70.08,39.24 40.17,30.26 7.71,9.56 5.03,13.94 19,42 11,13 45.75,41.75 4.25,11.25 -1.5,10 -14,36 -56,149.5 -4.66,41.17 0.66,20.82 8,27.01 v 41 l -16.5,105 0.5,13 7,7.5 7.5,2 8,-1 26,-13.5 12.5,-1 14.5,5 19.12,1.75 96,-18.12 8,2.5 5.26,3.25 5.88,5.12 8.25,42.5 6.5,17.5 17,24 8.5,39 5.13,21 6.51,6.87 11.36,1.63 28.5,-4.75 44.5,-3 78,22.75 24.62,1.12 20.14,7.83 14.35,15.53 19.88,46.52 12.5,8 15,36.01 6.06,6.2 18.13,7.99 4.93,7.54 9.13,52.27 3.82,7.71 51.43,46.78 10,17.5 4.5,16 -8,34 2,12.5 4,12.63 6.13,6.93 10.37,4.44 68.5,17.5 26,8.5 55,7 21,11.5 6.5,2 14.5,-1 9,-9.5 3.25,-29 2.75,-6 6.76,-2.75 77.74,8.75 9.25,-8 14,-84.5 39.75,-58.5 20.62,-7.75 7.88,1.75 72,71.38 10,15.88 9.88,34 10.25,14.12 10.75,7.75 9.13,0.75 12.29,-5.61 132.48,-115.62 19.14,-28.87 29.31,-21.04 43.49,-39.09 16.78,-18.66 12.5,-26 3,-9 0.31,-13.39 4.31,-12.48 29.51,-44.89 2.92,-12.69 -27.12,-358.04 -6.67,-8.75 -50.26,-25.26 -23,-8.5 -20.02,-1.25 -246.98,-33.5 -12,0.25 -21.5,14 -14.5,1 -17.64,-2.75 -65.35,-0.29 -29.01,1.29 -11.43,-4.3 -17.57,-11.95 -37,-0.5 -16,8 -11.5,10.5 -9,16 -10,31 -12.5,13.5 -22.25,9 -11.75,2.75 -22,-5.75 -10.25,-4.75 -25.25,6.5 -19,18.75 -16.5,11 -56.5,24.5 -19.5,2.5 -25,-4.5 -28,0.5 -55.5,-7.5 -50.5,15.5 -18.5,9 -15,8.5 -71.5,1.5 -52,-9.5 -39,4.5 -35,-0.5 -9,6 -1,13.5 14.5,42.5 2.5,27.5 -3.87,8.13 -7.36,5.87 -16.65,1.63"
       id="path4637" />
    <path
       style="fill:none;fill-rule:evenodd;stroke:#cccccc;stroke-width:8;stroke-linecap:butt;stroke-linejoin:round;stroke-miterlimit:4;stroke-dasharray:none;stroke-opacity:1"
       d="m 6964.43,-1312 62.5,104 102.5,125 22,21.5 64.5,90 59,106 19.5,56.5 -2,95.5 -10.5,25 -43,73 -52,66 -16,12 -19.5,9 -19.5,2.5 -49,4 -12.5,8.5 -12,11 -3.5,12.5 2.5,28.5 -10,43.5 2,20 36.5,96 10.5,75.5 -2.5,29 -11.5,30 -3,34 -49.5,224 -40,58 -30,65 -11,15 -18,17 -10.5,11.5 -62.5,82 -5.5,16.5 2.5,16.5 7.5,10 13.5,6.5 97.5,24 13,13.5 26,25.5 24,40 v 14.5 l -0.5,49.5 40,145 16,35 -6.21,101.21 8.21,17.6 2.32,36.87 2.09,15.25 7.64,14.39 57.95,66.18 22.5,11 14.5,10 9,7.5 3.96,14.49 -1.6,13.21 -12.86,47.29 8,39 23.1,38.79 30.25,42.85 26.14,62.37 4,10 8,38 44.5,71 5.36,15.5 3.63,16.36 -3.07,11.53 -10.77,16.23 -3.15,10.87 -8.5,16 -18,21.5 -27.5,4.5 -9,8.5 -3,9 0.36,75.24 -2.36,11.76 -7,9.5 -16.5,8.5 -39.8,-0.21 -25.7,10.85 -12.25,11.86 -39.07,62.22 -31.37,48.33 -16.75,21.42 -16.75,16.72 -41.77,32.26 -10.89,10.19 -8.75,14.89 -6.33,21.19 -3.18,12.45 -3.13,27.72 5.39,21.74 14.26,18.54 18.95,15.67 12.28,17.49 7.6,7.11 11.83,1.97 20.52,0.5 22.97,2.33 23.69,13.79 8.49,10.61 3.54,9.9 4.24,20.86 -3.89,85.56 -25.76,45.24 -1.43,22.35 -13.97,55.7 -16.11,31.21 -3.08,25.75 8.03,25.86 -2.48,32.17 -3.03,25.26 2.03,53.2 -15.24,48.56 -36.93,78.57 -4.54,5.14 -24.21,2.29 -51.25,31.07 -69.02,39.26 -35.75,2.21 -29.04,6.22 -9.73,11.42 -0.74,13.5 12.21,43.57 1.5,26.36 -17.52,36.98 -22.79,18.8 -135.04,93.36 -102.93,145.27 -303.19,98.79 -11.54,10.21 -8.75,23.15 -1.8,33.1 1,64 17.5,89.5 -1.5,18 -59,51 -143.5,359 -15.5,24.5 -42,47 -15.41,52.12 -21.25,75.99 -92.53,129.66 -35.48,108.91 -13.95,24.01 -10.86,22.95 -30.71,93.46 -0.97,13.86 0.35,8.47 -6.53,35.83 -8.47,18.71 -13.94,16.24 -142.74,133.25"
       id="path4639" />
    <path
       style="fill:none;fill-rule:evenodd;stroke:#cccccc;stroke-width:8;stroke-linecap:butt;stroke-linejoin:round;stroke-miterlimit:4;stroke-dasharray:none;stroke-opacity:1"
       d="m 8211.93,2504 -124.71,13.01 -42.79,12.99 -14.21,-0.25 -12.79,-6.25 -81.73,-64.06 -41.06,-16.32 -38.24,-35.12 -97.47,-115 -41,-28.5 -30.2,-35.73 -50.46,-45.98 -11.71,-18.43 -19.4,-14.77 -80.24,-25.59 -83.5,-66 -125.28,-33.5 -38.96,-3.59 -29.91,5.45 -20.58,-3.85 -20.22,-5.66 -15.6,1.54 -23.11,4.47 -18.84,-2.36 -13.5,-9 -21.49,-20.28 -13.5,-26.11 -3.95,-28.79 -30.71,-87.33 -0.73,-18.38 7.38,-26.6 17.7,-27.07 31.64,-49.2 22.79,-35.29 21.32,-34.46 9.71,-29.84 -0.71,-13.39 -15.58,-48.6 -6.92,-7.56 -7.78,-5.43 -96.65,-18.15 -30.5,-19.5 -61.5,-154.5 -41.32,-41.32 -75.18,-58.96 -18.2,-8.56 -22.28,-1.15 -29.02,-19.02 -44.5,-23 -31,-26.5 -26,-12 -37,1 -46.5,-10 -36.5,-17 -78.5,-74 -285.5,-160.5 -92.5,-90.5 -72.5,-54 -8.5,-15.5 -4.5,-65.5 -9.5,-45 -9.5,-7.5 -44,-14.75 -45,-29 -47,-12 -22.75,-14.5 -18.5,-20.75 -12.5,-17.25 -59.25,-37 -10.5,-16.25 -5.5,-27 -9.5,-14.25 -63,-48 -127,-63.5"
       id="path4748" />
    <path
       style="fill:none;fill-rule:evenodd;stroke:#cccccc;stroke-width:8;stroke-linecap:butt;stroke-linejoin:round;stroke-miterlimit:4;stroke-dasharray:none;stroke-opacity:1"
       d="m 3019.93,2961.5 32.5,-55 22,-21.5 82.02,-43.97 74.98,-37.53 98,-36.5 62.25,-22.5 23,-3.5 31,1 47.25,13.75 55,24.75 21,13.5 81,87.75 169,187.75 142.5,100 55.5,25.5 74.5,31 22.5,2.5 23,-3 27.25,-11.5 113.25,-114 21.75,-11.5 34.25,-16.25 45.5,-23 16.25,-20.25 20.5,-26.25 14.75,-10.25 21.25,-5.75 17.5,-0.5 34,4.5 114,-3 91.75,-11 171,-3 23.25,-6.5 68,-41.25 15,-18 91.25,-165.75 19.75,-27.75 37.75,-30.5 136.3,-52.09 591.95,-212.91 95.25,-25 47.5,-26.75 158.25,-57.5 46.25,-33 88.25,-77.5 73.75,-44.5 24.75,-13.75 14.25,-3.75 25.5,4.5 74.81,13.05 25.41,-0.4 107.28,-13.9 25.5,7.5 112,64 46.5,36.5 9.5,0.5 21.5,-21.5 76,-23.5 30.5,-31.5 35.5,-16.5 18.5,-1.5 44.5,-36 19.5,-21.5 22.5,-12.5 65.5,-4 23.91,-5.97 15.03,0.28 16.24,2.65 80.35,41.93 14.11,0.43 11.62,-6.31 11.75,-23.51 26,-33 47.12,-173.13 20.24,-113.51 -3.15,-27.39 2.17,-13.21 9.95,-28 19.67,-32.76 18.35,-20.85 5.06,-15.31 3.09,-16.75 2.5,-72.59 -11.71,-48.1 -16.3,-47.4 -16.5,-28.5 -50.5,-63.5 -2.5,-12 18,-82.5 -1,-22.5 -0.91,-13.71 2.63,-12.28 7.04,-12.63 11.24,-8.88 102,-54 24.5,-15 24,-25.5 37,-66.5 21.5,-41 15,-10 18.49,-6.48 149.51,-8.52 24.5,-5 54,-3 7.75,-9 23.47,-77.55 8.92,-22.37 3.36,-4.58"
       id="path4785" />
    <path
       style="fill:none;fill-rule:evenodd;stroke:#cccccc;stroke-width:8;stroke-linecap:butt;stroke-linejoin:round;stroke-miterlimit:4;stroke-dasharray:none;stroke-opacity:1"
       d="m 5936.43,259 291,71 119.5,14 13,10 3,16.5 -3.5,39.5 36.5,69.5 11.5,10 15,1.5 82,-25 15.5,3 16.5,11.5 53.5,59.5 65.5,84.5 77.5,239.5 11,20 28,25.5 14,5.5 97.55,11.98 19.19,8.26 61.26,51.26 104,133.5 57.5,64 57.25,66.49 37.79,26.79 29.74,10.99 13.49,12.75 10.49,24.25 -1.26,30.74 -10,32.5 16.5,105 34.5,141.5 1.5,28 30,64.5 10,55 6.5,8.5 17,9.5 18.5,16.13 15.76,8.12 5.62,5.68 2.87,7.93 -8.25,44.76 -46.75,172.38 -26.5,32.5 -21,44.5 -45.03,119.48 -23.71,59.38 -17.49,164.98 -11.3,7.75 -18.72,2.41 h -29.5 l -20.13,-9.63 -22.74,0.51 -28.13,16.12 -31.75,19 -36.5,77.75 -6.94,6.58 -24.56,2.42 -49.16,30.18 -69.18,39.49 -36.95,2.76 -28.25,6.04 -7.99,9.56 -0.38,11.28 11.93,42.05 1.8,28.51 -18.59,39.38 -22.77,18.71 -134.71,92.81 -104.34,146.79 -303.04,98.7 -10.65,8.96 -7.92,22.16 -1.65,38.36 1.18,58.58 17.37,87.69 -2.69,21.5 -59.15,50.6 -142.6,358.13 -16.42,26.31 -41.33,45.37 -15.01,51.36"
       id="path4861" />
    <path
       style="fill:none;fill-rule:evenodd;stroke:#cccccc;stroke-width:8;stroke-linecap:butt;stroke-linejoin:round;stroke-miterlimit:4;stroke-dasharray:none;stroke-opacity:1"
       d="m 4879.08,1630.53 1430.77,-50.35 19.59,-7.17 34,-28 37.5,-20.5 73,-18.5 28,-3 29,3 35.5,-4 44.5,-10 35,-23.5 23,-4 13.5,3 32.5,25 47,11 28,19 40,9.5 15,29.5 28.5,24 63,7.5 23,11 49.5,-2 90,27 35.75,-8.75 12.75,5.75 17.5,4.75 20.75,9.25 31.5,24 36.75,48 15.5,46.5 35,26.5 21,30.5 10.5,8 28,6.5 12,11.5 6.5,28 7.5,21 8.5,8.5 108.5,28.5 119,59 67.5,48.5 37.5,10 41.5,38.5 104,53.5 24,7 93.5,5 204.5,-11.5 19.5,2.5 27.5,13.5 79,31 21.5,7 343.5,38.5 176.5,11 118,-12.5 71,-40.5 419,-426 132.5,-98.5 117,-131 21.5,-10 31,-2 24.5,5 168,93.5 27.5,5.5 29,1.5 28,-6 107,-54 29,-7 116.5,-19.5 43.5,-20.5 141,-39.5 84.5,9.5 24.5,-6 186.5,-93 39.17,-18.83 325.32,-126.68 349.5,-30 116,21 193.5,57.5 86.5,49 19.5,24.5 27.5,68.5"
       id="path4900" />
    <path
       style="fill:none;fill-rule:evenodd;stroke:#cccccc;stroke-width:8;stroke-linecap:butt;stroke-linejoin:round;stroke-miterlimit:4;stroke-dasharray:none;stroke-opacity:1"
       d="m 6607.93,2540.5 35.25,-37.25 13.75,-7.75 53.5,8 12,-5.5 25.5,-26.5 15.94,-6.38 18.56,2.38 24.5,2.5 46.5,-8 37.56,-13.62 6.25,-7.21 2.37,-9.32 0.32,-12.85 6,-39 15,-34 -1.74,-36.41 3.71,-8.71 8.3,-9.41 35.23,-14.97 53,-31.5 12.25,-1.25 19.25,12.5 43.5,14.25 44.25,23.5 9.25,-0.5 11.25,-8.25 43.75,-64.75 25,-69 12.5,-26 15.85,-39.47 26.15,-52.03 8.47,-7.44 11.62,0.27 57.03,28.85 63.08,51.56 72.3,72.77 7.09,3.38 7.18,0.1 7.53,-3.43 35.7,-38.56 9.5,-12 9.56,-33.19 2.94,-16.74 10,-19.57 57.5,-112.5 20.85,-15.29 5.74,-9.68 -0.53,-11.25 -14.06,-17.28 -68.5,-97.5 -6,-19.5 -15.5,-52.5 1,-57 13.06,-152.26 6.29,-14.59 16.65,-17.15 92,-150 57,-95.5 14.5,-18.5 15.5,-13.5 15,-4 28.62,3.38 22.25,-12.75 22.5,-32.25 16.75,-44.75 44.39,-174.26 19.03,-62.38 80.69,-111.93 6.72,-18.21 -0.71,-22.45 -4.42,-22.1 -20.86,-23.69 -246.72,-168.36 -60.5,-77.5 -6.25,-31.25 114.25,-377 63.25,-95.5 17.25,-41.25 4.79,-24.87 18.96,-259.13 -6.25,-49.75 -117.75,-297 -30,-155 -43.75,-251.75 -13.88,-39.33 -86.62,-225.17 -6.5,-63.75 12.25,-159.5 -217.25,-908.25 -12,-20.75 -21,-17.25 -143.75,-75.25 -24.5,-23.5 -7.91,-19.63 -169.59,-554.62 -21.75,-32.75 -58,-38.75"
       id="path4979" />
    <path
       style="fill:none;fill-rule:evenodd;stroke:#cccccc;stroke-width:8;stroke-linecap:butt;stroke-linejoin:round;stroke-miterlimit:4;stroke-dasharray:none;stroke-opacity:1"
       d="m 13240.72,1293.49 h -43.84 l -17.96,-5.97 -136.22,-70.27 -7.73,-7.54 -34.39,-50.29 -11.21,-11.76 -105.94,-72.11 -9.58,-0.37 -179.85,58.27 -9.03,6.38 -91.03,115.17 -22,14.5 -325.5,96.5 -48,36.5 -23.5,9.5 -392.5,50 -112.5,51.5 -68,43 -160.5,157.5 -92.5,127 -13,11 -186.5,43.5 -220.5,-1 -20,6 -66,44 -82,30 -19,-4 -41,-31.5 -62,-21 -157.5,-2 -89,-56.5 -55,-24.5 -68.5,-46 -14.5,-20.5 -3,-20.5 9.5,-55 -0.5,-13.5 -13,-11.25 -21.5,-3.25 -16.5,1 -35,13.5 h -16 l -41.5,-19.5 -22.5,-37 -12,-8.5 -41,-6.5 -120.5,-92 -12.5,-3.5 -37.5,-2 -65,-44 -46.5,-16 -82,-30 -131.5,-74 -39.5,-8 -76,-53.5 -100,-58.5 -69.5,-29.5 -53.5,-63.5 -141.5,-34.5 -108,-32 -199,-168.5 -17.5,-5.5 -52,4.5 -89,39 -30.5,44.5 -62.5,96 -27,11 -71,15.5 -186,153 -73.5,108.5 -46.5,45 -22.76,39.88 -12.61,30.29 -17.86,21.39 -20.86,15.73 -28.47,14.64 -65.59,12.07 -34.99,2.28 -33.23,-18.38 -16.26,-2.47 -15.68,6.1 -17.2,16.88 -28.99,45.61 -48.08,49.85 -21.21,34.65 -32.53,64.7 -8.13,73.54 8.13,21.92 -0.35,10.96 -5.3,11.31 -40.13,32 -42.43,22.1 -13.61,10.61 -76.85,149.85 -50,71 -35.25,33.62 -27.75,10.12 -13.85,-0.37 -7.95,2.21 -63.21,94.91 -15,136.5 -10.5,34.5 -43.76,19.03 -74.74,47.97 -19,29 -35.5,93 -7.38,25.01 -18.62,27.49 -15.5,8.3 -38.49,-0.21 -15.51,4.9 -23,20.5 -35.5,30 -37.5,39 -24.5,18 -62,150.5 -32,101 -32.5,197.5 -5.5,34.5 -77.5,126.5"
       id="path5022" />
    <path
       style="fill:none;fill-rule:evenodd;stroke:#cccccc;stroke-width:8;stroke-linecap:butt;stroke-linejoin:round;stroke-miterlimit:4;stroke-dasharray:none;stroke-opacity:1"
       d="m 5624.93,1611.5 h 46.5 l 44.5,13.5 38,26.5 71,36.5 53.5,22 38,2 177.5,-7 54.5,12 185,-6.5 86.5,14 25,6.5 h 11 l 129.5,49.5 17,15.5 h 43 l 86,47.5 93.5,26 77,-11 83.22,32.58 8.47,9.98 1.91,8.11 1.4,16.33 1.64,22.61 5.4,12.71 15.21,14.43 11.05,18.98 14.17,8.62 23.48,3.07 7.29,3.78 7.29,7.11 9.32,20.01 10.43,18.75 6.09,13.4 6.4,6.5 9.73,3.78 40.25,-2 23.25,-5.5 8,-11 8.25,-13.25 9.75,-3.5 h 12 l 67.5,35.5 16.75,6.25 22.5,1.5 37.5,14.5 47.25,-11.75 8.5,-7 16.25,-30 -8.75,-26 9.5,-35.75 -13.25,-25.75 21,-92 13,-81.75 1.25,-51.44 2.29,-18.26 -2.28,-15.54 -8.26,-14.26 -13.25,-17.75 -26.76,-9.75 -12.76,-10.3 -5.95,-9.16 -5.54,-35.29 -9.75,-14 -2.75,-14 -14.72,-13.06 -10.68,-3.83 -31.6,1.15 -59.75,-1.75 -34,0.75 -18.5,-10.75 -40.25,-31.75 -36.5,-35.25 -25.25,-31 -16.25,-33.25 -34.25,-39 -12.5,-46.75 -14,-23.75 -9.75,-12 -95.57,-78.69 -18.3,-8.45 -34.94,-10.85 -17.69,-0.26 -54.5,18.5 -12.5,0.5 -10.62,-4.43 -28.58,-8.8 -22.3,-11.77"
       id="path5030" />
    <path
       style="fill:none;fill-rule:evenodd;stroke:#cccccc;stroke-width:8;stroke-linecap:butt;stroke-linejoin:round;stroke-miterlimit:4;stroke-dasharray:none;stroke-opacity:1"
       d="m 6646.44,2308.95 52.49,-17.45 57.25,-43.25 79.25,-110.25 158.25,-68.75 25.5,-6 45.76,-35.03 7.46,-1.22 8.97,4.34 5.34,6.76 11.06,19.91 12.16,25.98 37.5,31 14,8.75 39,8.25 17.75,0.25 16.5,-3.75 132.25,54.75 h 9.5 l 6,-3.5 103.75,-122 65.25,-132 2.25,-9.25 -2,-9.75 -51.5,-157 10.75,-37.5 2.75,-31.25 9,-93 10.25,-25.75 7,-37 12.25,-28 23.75,-3.25 9.25,-6.25 17.25,2.75 190.5,44.5 25.5,3.25 14,-11 17.25,-26"
       id="path5034" />
    <path
       style="fill:none;fill-rule:evenodd;stroke:#cccccc;stroke-width:8;stroke-linecap:butt;stroke-linejoin:round;stroke-miterlimit:4;stroke-dasharray:none;stroke-opacity:1"
       d="m 6756.93,1252.5 -13,38.5 -9,8 -8.5,3.5 h -14.5 l -77,-37 h -20.5 l -27.5,8.5 -16.5,-1 -129.5,-33.5 -11,-10 -128,-123 -28,-12 -80,-18 -142.5,24 -61,1.25 -15.01,-17.3 -4.1,-12.42 1.35,-47.65"
       id="path5730" />
    <path
       style="fill:none;fill-rule:evenodd;stroke:#cccccc;stroke-width:8;stroke-linecap:butt;stroke-linejoin:round;stroke-miterlimit:4;stroke-dasharray:none;stroke-opacity:1"
       d="m 15184.93,675 35,-70 v -12.5 l -1.5,-13.5 -56,-93 -11,-3.5 h -11.5 l -22,14 -17.5,11.5 -21,-1 -51.5,-21.5 -36.5,-9.5 h -35.5 l -52,16.5 -69,22.5 -30.5,6 -121,11 -81,6.5 -52,-7 -48.5,-12 -54.5,-25 -47,-29 -14,-4 -16,-2 -21,3.5 -89,75 -18,33 -13.5,11 -23.5,10 -58.5,74.5 -28,11 -32.5,45.5 -20,17.5 -133,51 -20,16.5 -39,56.5 -75.5,92 -28.5,64 -8,43.5 -8.5,22.5 -30.5,41 -16,12.5 -174,53.5 -58,35.5 -46.5,39 -23,8.5 -105.5,4 -28.25,5.57 -31.82,2.47 h -42.6 l -17.45,-5.75 -134.96,-69.84 -6.32,-6.07 -33.94,-49.65 -12.02,-12.93 -107.75,-73.49 -12.36,-0.59 -181.97,59.15 -10.12,7.71 -90.48,114.03 -20.59,13.79 -324.79,96.15 -49.41,37.21 -20.32,8.79 -393.92,50 -113.56,51.85 -69.06,44.06 -160.85,157.5 -92.5,126.65 -11.23,9.94 -186.85,43.85 -218.38,-1 -21.77,6 -66.35,44.35 -80.23,28.94 -17.23,-3.65 -39.59,-30.79 -62.71,-21.35 -158.21,-2.71 -86.53,-54.38 -58.18,-26.97 -65.32,-43.17 -13.44,-19.79 -3,-18.38 9.15,-52.88 0.21,-16.68 -15.27,-14.58 -24.83,-3.21 -16.91,0.04 -35.71,14.21 h -14.59 l -37.96,-18.44 -21.44,-35.94 -13.77,-10.62 -41.71,-6.15 -119.08,-91.65 -15.33,-4.56 -36.79,-1.65 -63.23,-43.65 -47.91,-16.35 -80.94,-29.65 -132.91,-74.35 -39.85,-8.35 -72.11,-51.03 -100.71,-59.56 -70.56,-29.85 -53.85,-63.85 -142.21,-34.85 -108,-32 -199.21,-168.28 -19.91,-6.12 -51.77,5.27 -90.76,38.44 -38.21,55.06 -10.43,6.56 -17.68,-0.35 -54.45,-25.81 -130.81,-27.22 -175.9,4.56 -131.5,54.5 -51,4 -41.5,11.5 -34,3.5 -40.5,17.5 -13.5,-3 -43.5,-13 -28,-23 -19.5,-8.5 -18.5,2.5 -28,11.5 -29,1 -15,5.5 -17.5,3.5 -22.5,16 -17.5,17.5 -133.5,103 -5,13 -2.22,18.86 4.16,16.02 21.99,31.19 42.44,40.69 8.37,23.59 0.75,16.16 -16,33 3,10 5,14.5 v 9.5 l -22.5,27.5 -2,17.5 11.5,32.5 -3.5,22 8,32.5"
       id="path5205" />
    <path
       style="fill:none;fill-rule:evenodd;stroke:#cccccc;stroke-width:8;stroke-linecap:butt;stroke-linejoin:round;stroke-miterlimit:4;stroke-dasharray:none;stroke-opacity:1"
       d="m 6761.43,1195.5 71.5,-159 3.5,-16.5 -6.5,-22.5 -7,-11 -18,-12.5 -26.5,-10.5 -100,-18 -20.5,-12.5 -11.5,-13 -9.5,-22 -17.5,-37.5 -16,-18 -23,-15 -82.5,-50 -80.5,-32.5 -99,-51 -126,-65.5 -42,-8 -162,-13.5 -35,-7.5 -30,-12.5 -34,-21 -145.5,-122 -25,-25 -61.5,-45.5 -135,-67 -117,-59.5 -17.5,-22.5 -17.5,-70 -23,-94 -33.5,-56.5 -29.5,-34.5 -245.5,-193.5 -143,-117 -339.5,-276 -40,-42.5 -607,-862.5 -85.96,-118.64 -66.11,-64.7 -346.13,-91.57 -253.14,-184.55 -263.4,-267.99 -31.11,-20.51 -46.32,-13.79 -34.65,3.18 -18.03,-4.24 -14.5,-12.73 -9.19,-16.97 -0.35,-24.04 3.18,-24.04 109.25,-171.83 33.94,-151.32 -2.47,-53.74 v -99.35 l -43.84,-183.14 v -22.63 l 4.6,-22.98 52.33,-92.28 5.66,-23.69 6.01,-139.65 1.06,-77.43 -7.78,-68.59 -12.73,-34.65 -13.44,-25.46 -21.92,-16.62 -72.12,-37.48 -220.97,-57.98"
       id="path5667" />
    <path
       style="fill:none;fill-rule:evenodd;stroke:#cccccc;stroke-width:8;stroke-linecap:butt;stroke-linejoin:round;stroke-miterlimit:4;stroke-dasharray:none;stroke-opacity:1"
       d="m 6626.44,1748.16 10.48,-128.44 47.5,-162.88 -4.24,-16.26 -13.14,-11.42 -68.11,-5.66 -31.5,11 -51.5,-4.5 -52,15 -67.5,4 -54.5,-16 -58,3.5 -15.5,-5 -67,-49 -68,-9 -62,12 -18,-4.5 -130,-52.5 -123,-1.5 -160.5,-26 -296.5,-18.5 -478.5,-54.5 -141,14.5 -378.5,50 -26,-7 -148,-72.5 -18.5,-19 -29.41,-10.06 -159.09,-86.44 -37.5,-35 -25.5,-4.5 -40.5,9.5 -13,-6 -16.5,-17.5 -27.5,-15.5 -32.5,7 -68.5,-7 -12,5.5 -10.5,11 -16.5,101 -7.5,13 -14.5,11 -18,4.5 -284.5,-20 -97.5,55 -24.5,0.5 -108.5,-23.5 -390,55 -55,3 -59,16.5 -39,2.5 -82,13 -102.5,14.5 -31.5,16 -52,35 -31.5,36 -21.5,12.5 -20,-2.5 -25.5,-12.5 -23,-32.5"
       id="path5794" />
    <path
       id="path7065"
       d="m 6783.93,1169.02 62.52,-150.78 41.25,-81.25 10,-32.25 4.25,-33.75 -9.26,-301.13 -3.84,-56.43 -11.75,-27.23 -34.42,-67.13 -13.72,-23.08 -21.5,-15 -50,-15.25 -41.5,-12.25 -18,-11 -45.25,-37.5 -23.75,-10.75 -109.5,-16.75 -16.25,-6.5 -20.5,-12.25 -17,-19.25 -13.25,-34.25 -18,-81 -10.5,-22.75 -16.5,-20.25 -122.75,-129.5 -15.75,-25 -69.25,-147.75 -15.75,-18.25 -95.5,-73 -64.5,-98.25 -54.75,-136.25 -26,-34.25 -96.75,-102 -32,-48.5 -12.5,-35 -112.5,-375.5 -1.5,-25 3.5,-19.5 47,-85.5 5,-24 -4.5,-39 -20,-53.5 -48.24,-104.92 -3.56,-12.01 -20.08,-76.35 -51.09,-177.1 -25.52,-86.12 -18,-35.5 -22.5,-14 -25,-9 -21,2.5 -24,9.5 -544,236 -30.5,15 -24,21 -149.5,143.5 -15,12 -16.5,2.5 -12.5,3 -269,1 -392.5,47 h -15.52 l -15,-8.5 -8,-11 -58,-84"
       style="fill:none;fill-rule:evenodd;stroke:#cccccc;stroke-width:8;stroke-linecap:butt;stroke-linejoin:round;stroke-miterlimit:4;stroke-dasharray:none;stroke-opacity:1" />
    <path
       style="fill:none;fill-rule:evenodd;stroke:#cccccc;stroke-width:8;stroke-linecap:butt;stroke-linejoin:round;stroke-miterlimit:4;stroke-dasharray:none;stroke-opacity:1"
       d="m 7366.02,1069.04 -27.54,-13.13 -16.35,-2.15 -18.28,3.58 -80.48,51.62 -175.44,87.81 -16.5,4.5 -20,-1.25 -170.5,-55.25 -23.5,2 -17.75,6.5 -15.75,15.75 -77,179.5 -72.75,265.5 -14.88,142.25 39.75,199.62 11.38,34.75 3.12,33.12 0.75,32 -16.88,63.62 -12.5,112.88 -2.5,78.88 7.62,18.75 75,103.62 79.89,184.44 28.42,115.53 7.64,13.11 58.19,34.62 17.15,17.56 63.81,113.3 19.99,29.51 13.61,7.96 10.96,2.83 24.04,-2.12 19.45,-10.96 15.03,-22.1 17.5,-83.09 2.83,-38.18 -1.5,-57.2 51.93,-167.23 19.75,-35.95 39.56,-21.84"
       id="path1" />
    <path
       style="fill:none;fill-rule:evenodd;stroke:#cccccc;stroke-width:8;stroke-linecap:butt;stroke-linejoin:round;stroke-miterlimit:4;stroke-dasharray:none;stroke-opacity:1"
       d="m 7504.67,-90.31 -8.49,58.69 4.24,537.4 7.78,211.43 3.54,21.21 -15.56,150.61 -6.36,78.49 -17.68,201.53 7.07,11.31 38.18,36.06 1.41,9.19 -7.78,9.19"
       id="path5100" />
    <path
       style="fill:none;fill-rule:evenodd;stroke:#cccccc;stroke-width:8;stroke-linecap:butt;stroke-linejoin:round;stroke-miterlimit:4;stroke-dasharray:none;stroke-opacity:1"
       d="m 7951.93,847 -10,21.38 -24.12,80.88 -42.12,163.38 -14.75,41.62 -20.12,30.5 -19.79,11.05 -23.71,1.82 -216.5,-35.88 -39.88,-4.75 -20.25,3.5 -15.75,8.5 -11.5,13.75 -5.75,13.75 -1.09,11.34 35.6,55.48"
       id="path7075" />
    <path
       style="fill:none;fill-rule:evenodd;stroke:#cccccc;stroke-width:8;stroke-linecap:butt;stroke-linejoin:round;stroke-miterlimit:4;stroke-dasharray:none;stroke-opacity:1"
       d="m 5671.79,-1507.42 3.77,12.52 18.81,41.4 20.7,37.03 31.38,33.56 48.79,73.19 29.82,55.05 23.13,59.22 19.88,52.79 44.9,126.04 15.37,23.16 90.16,99.52 22.63,37.3 71.3,134.14 71.62,66.65 19.38,19.85 53,67 149.62,160.82 127.88,155.18 78.77,72.29 208.24,259.71 18.88,30.87 8.25,24.63 2,30.75 -18,186.75 5.37,27 13.63,35.12 34.69,67.47 12.69,29.66 3.75,58.12 1.5,15.13 60,122.5 74.75,70.25 48.87,84.32 26.37,28.96 35.01,29.97 160.25,102.25 45.5,35.5 48.5,45.25 31.75,38 21,34 38.75,61.88 55.5,51.88 55.5,62.75 12.75,13.12 3.88,15.38 -5.38,22.75 -11,23.25 -42,66 -5.25,16 1.25,34.5 -13,91.5 -7.75,34.5 -4,54.5 -16.69,65.1"
       id="path6780" />
    <path
       style="fill:none;stroke:#cccccc;stroke-width:8;stroke-linejoin:round;stroke-dasharray:none;stroke-opacity:1"
       d="m 7455.7,1175.5 -24.79,-93.26 -11.23,-25.21 -20.97,-26.59 -84.91,-65.48 -69.25,-34.03 -27.48,-9.68 -64.5,-8.26 -14.23,-7.49 -22.47,-19.22 -25.14,-28.16 -48.5,-83.9 -74.93,-70.34 -59.04,-121 -1.7,-16.5 -3.37,-55.92 -12.86,-30.95 -35.2,-67.52 -12.98,-34.32 -5.18,-26.2 17.68,-186.24 -1.97,-31.88 -8.28,-25.49 -19.47,-31.57 -208.53,-260.07 -78.75,-72.62 -128.2,-155.35 -148.31,-158.79 -53.69,-68.15 -20.02,-20.66 -71.11,-66.23 -71.42,-133.72 -22.73,-37.74 -90.81,-100.23 -14.16,-21.04 -44.71,-126.1 -19.75,-52.81 -23.66,-59.8 -29.85,-55.22 -48.91,-73.26 -31.82,-34.59 -19.15,-34.5 -20.09,-41.81 -27.91,-87.82 -52.09,-180.03 -24.59,-83.37 -17.85,-35.7 -50.61,-74.43 -6.18,-20.83 -14.47,-84.37 -13.41,-34.07 -14.65,-22.77 -58.78,-88.96 -7.59,-19.77 -46.6,-136.8 -12.18,-19.95 -109.08,-157.27 -29.3,-43.6 -142.8,-184.1 -65.49,-82.25 -146.15,-169.63 -105.55,-122.5 -29.83,-45.36 -92.14,-137.86 -37.77,-54.54 -56.13,-112.26 -12.36,-15.71 -222.58,-284.71 -75.9,-128.85 -36.18,-59.84 -17.65,-19.59 -189.22,-138.03 -44.48,-24.89 -24.01,-25.24 -72.37,-90.73 -23.65,-23.65 -91.26,-56.66 -12,-12.18 -66.02,-109.61 -9.71,-8.65 -19.42,-12 -100.96,-51.01 -20.83,-5.82 -69.19,-9.88 -16.42,-6.53 -24.71,-13.41 -120.91,-149.15 -120.91,-96.73 -174.57,-104.14 -135.91,-127.09 -197.34,-87.2 -104.4,-118.89 -60.16,-65.65 -359.96,-243.63 -91.11,-59.16"
       id="path6" />
    <path
       style="fill:none;stroke:#cccccc;stroke-width:8;stroke-linejoin:round;stroke-dasharray:none;stroke-opacity:1"
       d="m 7298.73,1016.23 8.86,17.46 1.5,11.21 -1.59,7.33 -3.65,5.11"
       id="path8" />
  </g>
  <image
     xlink:href="../basemap/tyoosm.png"
     width="17823"
     height="20290.8"
     preserveAspectRatio="none"
     id="image10"
     x="-2400"
     y="-8909.8"
     style="display:none" />
  <path
     style="fill:none;fill-rule:evenodd;stroke:#006000;stroke-width:1;stroke-linecap:butt;stroke-linejoin:round;stroke-miterlimit:4;stroke-dasharray:none;stroke-opacity:1"
     d="m 6768,1456.5 v -4.25 l 26.5,-65 52.5,-85.75 24.25,-11.5"
     id="path5723" />
  <path
     style="fill:none;fill-rule:evenodd;stroke:#006000;stroke-width:5;stroke-linecap:butt;stroke-linejoin:round;stroke-miterlimit:4;stroke-dasharray:none;stroke-opacity:1"
     d="m 6871.25,1290 34.75,-19.75 31.25,-42.75 10.75,-11.75 25.75,-16.75 8,3 2.75,-1.75 6.75,-20.25 -1.75,-9.75"
     id="path5725" />
  <path
     style="fill:none;fill-rule:evenodd;stroke:#006000;stroke-width:1;stroke-linecap:butt;stroke-linejoin:round;stroke-miterlimit:4;stroke-dasharray:none;stroke-opacity:1"
     d="m 6989.5,1170.25 -25.75,-47 -0.5,-6.5 22.25,-30.75 4,-8.5 14.25,-39"
     id="path5727" />
  <path
     style="fill:none;fill-rule:evenodd;stroke:#006000;stroke-width:5;stroke-linecap:butt;stroke-linejoin:round;stroke-miterlimit:4;stroke-dasharray:none;stroke-opacity:1"
     d="m 7003.75,1038.5 29,-47.89"
     id="path5729" />
  <path
     style="fill:none;fill-rule:evenodd;stroke:#006000;stroke-width:1;stroke-linecap:butt;stroke-linejoin:round;stroke-miterlimit:4;stroke-dasharray:none;stroke-opacity:1"
     d="m 7032.75,990.61 17.15,-17.68 40.66,-71.77"
     id="path5731" />
  <path
     style="fill:none;fill-rule:evenodd;stroke:#006000;stroke-width:5;stroke-linecap:butt;stroke-linejoin:round;stroke-miterlimit:4;stroke-dasharray:none;stroke-opacity:1"
     d="m 7090.55,901.16 -0.88,-4.24 -13.08,-19.62 0.53,-5.13 2.12,-6.01 10.96,-7.07 6.54,0.71"
     id="path5733" />
  <path
     style="fill:none;fill-rule:evenodd;stroke:#006000;stroke-width:1;stroke-linecap:butt;stroke-linejoin:round;stroke-miterlimit:4;stroke-dasharray:none;stroke-opacity:1"
     d="m 7096.74,859.8 31.29,33.41 4.72,2.04 52.25,-4.75 33.45,0.57"
     id="path5735" />
  <path
     style="fill:none;fill-rule:evenodd;stroke:#006000;stroke-width:5;stroke-linecap:butt;stroke-linejoin:round;stroke-miterlimit:4;stroke-dasharray:none;stroke-opacity:1"
     d="m 7218.45,891.07 196.31,9.03 82.38,23.33 4.6,4.24 30.05,38.54 13.96,8.31 34.12,29.52 49.14,13.79"
     id="path5737" />
  <path
     style="fill:none;fill-rule:evenodd;stroke:#006000;stroke-width:1;stroke-linecap:butt;stroke-linejoin:round;stroke-miterlimit:4;stroke-dasharray:none;stroke-opacity:1"
     d="m 7629.02,1017.83 44.19,13.44"
     id="path5739" />
  <path
     style="fill:none;fill-rule:evenodd;stroke:#006000;stroke-width:5;stroke-linecap:butt;stroke-linejoin:round;stroke-miterlimit:4;stroke-dasharray:none;stroke-opacity:1"
     d="m 7673.21,1031.27 4.42,4.77 1.59,6.19 -0.88,62.76 3.01,7.07 18.74,25.28"
     id="path5741" />
  <path
     style="fill:none;fill-rule:evenodd;stroke:#006000;stroke-width:1;stroke-linecap:butt;stroke-linejoin:round;stroke-miterlimit:4;stroke-dasharray:none;stroke-opacity:1"
     d="m 7700.08,1137.34 7.6,11.31 4.6,3.18 12.9,1.59 41.19,30.23"
     id="path5743" />
  <path
     style="fill:none;fill-rule:evenodd;stroke:#006000;stroke-width:5;stroke-linecap:butt;stroke-linejoin:round;stroke-miterlimit:4;stroke-dasharray:none;stroke-opacity:1"
     d="m 6768,1456.5 1.71,2.75 27.58,17.15 36.24,8.66 28.29,11.31"
     id="path5745" />
</svg>
