<?xml version="1.0" encoding="UTF-8" standalone="no"?>
<svg
   version="1.1"
   id="svg2"
   width="1175"
   height="850"
   viewBox="0 0 1175 850"
   xmlns:xlink="http://www.w3.org/1999/xlink"
   xmlns="http://www.w3.org/2000/svg"
   xmlns:svg="http://www.w3.org/2000/svg"
   xmlns:rdf="http://www.w3.org/1999/02/22-rdf-syntax-ns#"
   xmlns:cc="http://creativecommons.org/ns#"
   xmlns:dc="http://purl.org/dc/elements/1.1/">
  <metadata
     id="metadata8">
    <rdf:RDF>
      <cc:Work
         rdf:about="">
        <dc:format>image/svg+xml</dc:format>
        <dc:type
           rdf:resource="http://purl.org/dc/dcmitype/StillImage" />
      </cc:Work>
    </rdf:RDF>
  </metadata>
  <defs
     id="defs6" />
  <image
     xlink:href="basemap/vtbosm.png"
     y="-117.62"
     x="-130"
     id="image12"
     preserveAspectRatio="none"
     height="1155.75"
     width="1541"
     style="display:none" />
  <path
     style="fill:none;stroke:#507299;stroke-width:5;stroke-linejoin:round;stroke-miterlimit:4;stroke-dasharray:none;stroke-opacity:1"
     d="m 54.88,666.56 205.49,-126.38 132.56,25.58 h 9.78 l 25.67,9 28.06,-28.89 16.09,-11.9 44.52,-57.58 6.6,-1.38 25.28,18.04 25.22,0.24 20.29,-14.36 22.02,-6.98 16.03,-1.29 2.8,-3.81 -0.81,-18.39 -9.28,-91.57 126.13,43.26 216.89,69.78 7.21,-0.78 33.97,-150.33 12.27,-66.46 -1.89,-19.34 -2.15,-9.36 -35.8,5.7 -4.82,-2.21 -5.27,-18.08 -54.84,-96.12 -12.81,-11.75 -25.01,-12.66 -24.56,-14.16 -1.21,-3.31 2.56,-7.08"
     id="path837" />
  <path
     style="fill:none;stroke:#507299;stroke-width:5;stroke-linejoin:round;stroke-dasharray:none;stroke-opacity:1"
     d="m 625.2,356.89 0.45,-10.98 12.67,-81.95 -20.49,-30.62 -0.21,-6.76 10.98,-48.15 -2.32,-8.66 -5.28,-6.55 -8.66,-4.86 -14.15,-4.65 -10.14,-1.06 -44.35,2.53 -5.49,-2.75 -140.03,8.03 -14.15,1.9 -13.73,3.8 -71.6,26.4 -72.65,31.05 -2.53,6.97"
     id="path1" />
  <path
     style="fill:none;stroke:#507299;stroke-width:5;stroke-linejoin:round;stroke-dasharray:none;stroke-opacity:1"
     d="m 968.22,469.93 26.49,5.36 116.55,26.85 3.2,3.2 0.64,4.69 -29.19,129.33 -5.54,15.34 -49.86,109.73 -17.9,26.85"
     id="path2" />
  <path
     style="fill:none;stroke:#507299;stroke-width:5;stroke-linejoin:round;stroke-dasharray:none;stroke-opacity:1"
     d="m 428.38,574.76 30.69,177.04 5.42,3.16 134.69,-66.29 65.84,-28.93 13.41,-9.34 13.86,-12.96 7.23,-13.11 6.48,-18.08 4.22,-19.44 41.11,-186.68"
     id="path3" />
</svg>
