<?xml version="1.0" encoding="UTF-8" standalone="no"?>
<svg
   id="svg2"
   height="200"
   width="550"
   viewBox="0 0 550 200"
   version="1.1"
   xmlns:xlink="http://www.w3.org/1999/xlink"
   xmlns="http://www.w3.org/2000/svg"
   xmlns:svg="http://www.w3.org/2000/svg"
   xmlns:rdf="http://www.w3.org/1999/02/22-rdf-syntax-ns#"
   xmlns:cc="http://creativecommons.org/ns#"
   xmlns:dc="http://purl.org/dc/elements/1.1/">
  <metadata
     id="metadata2913">
    <rdf:RDF>
      <cc:Work
         rdf:about="">
        <dc:format>image/svg+xml</dc:format>
        <dc:type
           rdf:resource="http://purl.org/dc/dcmitype/StillImage" />
      </cc:Work>
    </rdf:RDF>
  </metadata>
  <defs
     id="defs6" />
  <g
     id="rt"
     style="opacity:0.25">
    <path
       style="fill:none;stroke:#cccccc;stroke-width:8;stroke-linecap:butt;stroke-linejoin:round;stroke-miterlimit:4;stroke-dasharray:none;stroke-opacity:1"
       id="path3592"
       d="m 702.25,150 -51.32,-7.18 -93.52,-15.69 -18.84,1.08 -14.21,4.24 -13.82,8 -14.58,11.61 -93.4,95.45 -9.24,20.53 2.05,63.63 -5.13,11.29 -71.85,33.87 -50.29,1.03 -124.19,-64.66 -29.76,-2.05 -14.37,8.21 h -183.72 l -36.95,4.11 -54.4,-1.03 -21.55,-8.21 -16.42,-24.63 -12.32,-40.03 2.05,-15.4 9.24,-18.47 v -42.08 l 1.03,-81.08 -4.11,-13.34 -11.29,-9.24 -167.3,-1.03 h -18.47 l -20.53,9.24 h -127.27 l -132.4,9.24 -20.53,10.26 -13.34,20.53 1.03,35.92" />
    <path
       style="fill:none;stroke:#cccccc;stroke-width:8;stroke-linecap:butt;stroke-linejoin:round;stroke-miterlimit:4;stroke-dasharray:none;stroke-opacity:1"
       id="path2818"
       d="m -1852.38,-3306.81 61.58,97.5 22.58,50.29 47.21,173.46 36.95,126.24 22.58,60.56 30.79,46.19 76.98,85.19 294.57,326.38 13.34,40.03 2.05,63.63 13.34,41.05 73.9,200.14 45.16,119.06 5.13,41.05 -3.08,61.58 6.16,34.9 19.5,35.92 39,92.37 -1.03,55.42 13.34,177.56 6.16,43.11 21.55,127.27 43.11,112.9 7.18,34.9 17.45,123.16 35.92,98.53 41.05,103.66 39,95.45 7.18,12.32 15.4,5.13 134.45,2.05 15.4,9.24 16.42,33.87 102.64,224.77 35.92,82.11 28.74,37.98 11.29,24.63 19.5,50.29 6.16,32.84 25.66,58.5 29.76,64.66 40.03,88.27 16.42,12.32 34.9,16.42 152.93,-2.05 14.37,3.08 45.45,39.43 15.69,13.75 46.79,0.17 15.1,-4.11 9.03,-7.09 6.5,-9.29 6.69,-19.05 15.89,-58.97 20.53,-30.79 17.45,-63.63 47.21,-122.14 26.69,-52.34 16.42,-52.34 14.37,-60.56 4.11,-59.53 -13.34,-78 -76.98,-238.12 -49.27,-148.82 -43.11,-52.34 -36.95,-42.08 -18.47,-31.82 -107.77,-248.38 -33.87,-61.58 -54.4,-71.85 -68.77,-65.69 -36.95,-29.76 -11.29,-21.55 -2.05,-84.16 -18.47,-60.56 -17.45,-67.74 -8.21,-67.74 -67.74,-258.64 -12.32,-39 -15.4,-61.58 -1.03,-93.4 3.08,-30.79 20.53,-82.11 -3.08,-55.42 -46.19,-46.19" />
  </g>
  <image
     xlink:href="../basemap/wasosm.png"
     id="image12"
     height="5780.5"
     width="8408"
     y="-3450.5"
     x="-6090.25"
     style="display:none" />
  <path
     id="path4702"
     d="m 61.72,86.67 252.44,0.4 14.09,2.42 157.02,35.43"
     style="fill:none;fill-rule:evenodd;stroke:#ee4034;stroke-width:5;stroke-linecap:butt;stroke-linejoin:round;stroke-miterlimit:4;stroke-dasharray:none;stroke-opacity:1" />
</svg>
