<?xml version="1.0" encoding="UTF-8" standalone="no"?>
<svg
   id="svg2"
   viewBox="0 0 725 1450"
   height="1450"
   width="725"
   version="1.1"
   xmlns:xlink="http://www.w3.org/1999/xlink"
   xmlns="http://www.w3.org/2000/svg"
   xmlns:svg="http://www.w3.org/2000/svg"
   xmlns:rdf="http://www.w3.org/1999/02/22-rdf-syntax-ns#"
   xmlns:cc="http://creativecommons.org/ns#"
   xmlns:dc="http://purl.org/dc/elements/1.1/">
  <metadata
     id="metadata8">
    <rdf:RDF>
      <cc:Work
         rdf:about="">
        <dc:format>image/svg+xml</dc:format>
        <dc:type
           rdf:resource="http://purl.org/dc/dcmitype/StillImage" />
      </cc:Work>
    </rdf:RDF>
  </metadata>
  <defs
     id="defs6" />
  <g
     id="rt"
     style="opacity:0.25">
    <path
       style="fill:none;stroke:#cccccc;stroke-width:8;stroke-linecap:butt;stroke-linejoin:round;stroke-miterlimit:4;stroke-dasharray:none;stroke-opacity:1"
       id="path2987"
       d="m 837.79,-809.7 -201.12,214.42 -64.95,75.12 -51.65,45.39 -89.21,107.99 -86.86,129.9 -133.82,197.99 -20.35,28.17 -11.64,12.38 -22.26,13.95 -31.13,40.18 -2.53,12.14 4.8,39.85 -1.03,9.47 -4.45,8.17 -8.46,5.5 -33.25,3.2 -120.1,-1.05 -14.86,7.74 -10.96,11.2 -3.13,10.82 -0.27,76.58 -3.67,17.5 -6.26,25.04 -14.63,35.75 -15.88,18.89 -91.65,58.61 -7.09,9.57 -4.56,20.39 1.57,68.08 -3.91,33.65 0.78,86.86 2.35,15.65 -1.57,13.3 -16.43,20.35 -5.48,16.43 0.78,93.12 11.74,14.87 12.52,6.26 61.82,0.78 14.09,10.96 6.26,25.82 -0.78,165.9 3.91,42.26 -1.57,44.61 1.57,341.19" />
    <path
       style="fill:none;fill-rule:evenodd;stroke:#cccccc;stroke-width:8;stroke-linecap:butt;stroke-linejoin:round;stroke-miterlimit:4;stroke-dasharray:none;stroke-opacity:1"
       d="m -65.03,-271.61 14.18,15.75 5.45,3.33 7,0.61 22,0.03 6.72,3.96 4.03,6.72 -0.39,19.73 0.37,33.13 3.9,18.44 -0.03,20.21 1.49,9.33 5.09,6.47 12.73,10.4 7.22,9.29 6.09,11.07 -0.3,34.41 -3.51,8.76 -9.99,9.22 -3.47,8.47 0.09,58.95 2.89,6.92 6.25,3.37 25.57,2.92 38.65,0.12 19,4 7.35,6.82 4.63,7.82 4.29,19.29"
       id="path4137" />
  </g>
  <image
     xlink:href="../timelines/basemap/yegosm.png"
     id="image10"
     height="2604.33"
     width="1602.67"
     y="-1059.33"
     x="-475.33"
     style="display:none" />
  <path
     style="fill:none;stroke:#23693a;stroke-width:5;stroke-linejoin:round;stroke-dasharray:none;stroke-opacity:1"
     d="m 66.78,99.59 61.62,-6.61 69.71,-22.13 8.59,-1.11 5.3,0.23 4.48,2.08 4.06,5.2 10.79,36.6 0.64,12.08 -0.65,48.71 -1.75,7.6 -5.85,8.02 -24.56,21.22 -3.03,5.79 -2.69,22.27 2.73,7.96 5.35,4.3 7.92,1.6 23.8,-1.07 16.38,2.91 18.6,7.07 15.42,9.94 6.71,2.38 118.66,-1.16 3.12,3.88 -0.58,86.4 2.39,9.62 14.98,27.19 2.23,9.76 -1.94,51.76 0.39,17.4 2.98,13.5 0.6,182.53 2.15,12.27 3.58,6.79 36.98,40.82 6.73,4.01 7.82,0.64 9.93,-1.65 9.38,-0.91 6.29,2.95 5.18,5.47 25.01,36.2 2.38,7.45 1.84,210.13 -2.74,20.71 0.39,46.76 3.51,13.07 7.21,14.07 12.36,16.47 5.68,11.78 2.84,11.02 0.84,15.96 0.53,24.37 40.01,161.38 2.15,12.37 1.62,20 -0.13,27.5 2.66,3.58 5,2.01 15.52,-0.82 16.39,-3.68"
     id="path1023" />
</svg>
