<?xml version="1.0" encoding="UTF-8" standalone="no"?>
<svg
   version="1.1"
   id="svg1"
   width="3100"
   height="3400"
   viewBox="0 0 3100 3400"
   xml:space="preserve"
   xmlns:xlink="http://www.w3.org/1999/xlink"
   xmlns="http://www.w3.org/2000/svg"
   xmlns:svg="http://www.w3.org/2000/svg"><defs
     id="defs1" /><image
     width="3435.27"
     height="3721.54"
     preserveAspectRatio="none"
     xlink:href="../basemap/ntgosm.png"
     id="image1"
     x="-50"
     y="-186.27"
     style="display:none" /><path
     style="fill:none;stroke:#28abf9;stroke-width:5;stroke-linejoin:round;stroke-opacity:1"
     d="m 1358.87,639.8 1.18,49.15 3.55,13.62 10.96,9.77 48.86,34.94 15.99,16.88 5.92,11.84 0.89,17.17 -1.78,40.57 3.26,45.01 13.92,32.28 2.96,19.25 -0.89,159.3 0.59,168.19 5.03,46.49 -2.37,18.95 -5.33,15.1 -10.96,12.44 -12.73,5.92 -24.87,8.88 -9.48,6.81 -5.33,12.44 v 13.03 l 10.96,64.55 2.37,80.84 5.03,23.98 42.64,116.67 7.7,47.67 15.4,41.75 22.5,36.12 12.14,14.81 10.36,7.11 32.28,9.48 31.09,18.65 14.51,3.55 36.72,-0.89 18.36,-5.33 90.9,-35.83 19.84,-5.63 42.34,-3.55 38.79,-2.37 21.62,2.66 110.74,27.24 103.93,20.14 378.42,63.96 23.1,2.07 77.88,4.74 96.83,5.92 28.72,-0.3 25.76,-3.85 34.64,-8.29 29.61,-4.15 92.68,-6.81 40.86,-11.25 71.07,-20.14"
     id="path1" /><path
     style="fill:none;stroke:#e93342;stroke-width:5;stroke-linejoin:round;stroke-opacity:1"
     d="m 125.59,279.44 34.94,16.58 19.25,12.44 20.43,23.1 17.17,12.44 34.35,17.47 10.07,11.25 82.91,124.96 8.59,9.18 20.14,11.55 194.25,72.84 122,33.76 18.36,8.59 20.43,13.32 29.31,24.87 317.43,289.89 8.88,12.44 5.92,19.54 5.03,24.58 0.3,23.39 -1.18,22.8 -4.74,28.72 -3.85,20.43 -4.44,10.36 -9.48,11.25 -33.76,28.43 -44.42,50.04 -39.09,53.3 -18.95,45.01 -41.16,76.69 -12.44,39.09 -17.47,39.38 -0.3,8.29 5.33,9.77 62.48,53 43.23,42.94 90.61,88.24 16.29,22.8 7.4,4.74 h 14.51 l 58.63,-24.87 16.29,-2.37 263.24,-4.44 23.39,-3.55 23.1,-9.77 39.68,-3.26 46.19,-14.81 45.3,-11.25 58.04,-25.47 42.64,-11.84 8.59,0.89 8.59,5.33 5.63,9.48 7.4,95.05 14.21,148.65 20.14,114.59 18.06,122.29 30.8,165.23 9.77,55.08 2.66,7.99 4.44,3.85 7.7,2.67 13.03,-2.37 208.46,-36.42 206.39,-28.72 20.14,-0.59 225.93,6.22 12.73,3.26 16.29,14.81 14.21,16.29 6.81,10.96 4.74,18.95 0.59,13.92 -2.66,80.54 14.21,117.26 3.85,154.86 2.96,15.99 5.92,7.7 12.44,7.7 21.02,7.4 63.96,17.17 25.17,13.32 8.59,10.66 2.37,10.07 3.55,60.7 0.59,105.41 2.07,147.46 -7.4,56.85 -7.11,46.78 -24.58,100.68"
     id="path2" /><text
     x="89.45"
     y="206.96"
     id="text3652"
     xml:space="preserve"
     style="font-style:normal;font-weight:normal;font-size:144px;font-family:Sans;-inkscape-font-specification:Sans;fill:#000000;fill-opacity:1;stroke:none"><tspan
       x="89.45"
       y="206.96"
       id="tspan1">2025</tspan></text></svg>
