<?xml version="1.0" encoding="UTF-8" standalone="no"?>
<svg
   viewBox="0 0 1650 1250"
   height="1250"
   width="1650"
   id="svg2"
   version="1.1"
   xml:space="preserve"
   xmlns:xlink="http://www.w3.org/1999/xlink"
   xmlns="http://www.w3.org/2000/svg"
   xmlns:svg="http://www.w3.org/2000/svg"
   xmlns:rdf="http://www.w3.org/1999/02/22-rdf-syntax-ns#"
   xmlns:cc="http://creativecommons.org/ns#"
   xmlns:dc="http://purl.org/dc/elements/1.1/"><metadata
     id="metadata8"><rdf:RDF><cc:Work
         rdf:about=""><dc:format>image/svg+xml</dc:format><dc:type
           rdf:resource="http://purl.org/dc/dcmitype/StillImage" /></cc:Work></rdf:RDF></metadata><defs
     id="defs6" /><image
     xlink:href="../basemap/fnjosm.png"
     width="2359.29"
     height="2097.14"
     preserveAspectRatio="none"
     id="image10"
     x="-574.29"
     y="-247.14"
     style="display:none" /><path
     id="path4506"
     d="m 816.95,203.54 -37.11,129.03 -3.23,23.81 12.5,229.12 3.8,30.5 23.8,76.6 3.62,22.24 -3.43,24.89 -45.43,129.1 -18.74,89.65 -11.82,24.76 -64.83,54.4"
     style="fill:none;fill-rule:evenodd;stroke:#e41b1b;stroke-width:5;stroke-linecap:butt;stroke-linejoin:round;stroke-miterlimit:4;stroke-dasharray:none;stroke-opacity:1" /><path
     id="path4508"
     d="m 145.92,663.81 32.11,13.02 241.34,118.05 15.15,0.35 12.2,-5.61 91.18,-82.74 4.71,-10.77 13.76,-70.8 49.9,-116.07 29.53,-50.62 75.69,-86.06 27.12,-21.15 83.69,-22.58 136.7,-70.77 199.02,-73.57 216.93,-42.32 162.58,-16.39"
     style="fill:none;fill-rule:evenodd;stroke:#00b069;stroke-width:5;stroke-linecap:butt;stroke-linejoin:round;stroke-miterlimit:4;stroke-dasharray:none;stroke-opacity:1" /><text
     x="89.45"
     y="206.96"
     id="text2992"
     xml:space="preserve"
     style="font-style:normal;font-weight:normal;font-size:144px;line-height:125%;font-family:Sans;-inkscape-font-specification:Sans;letter-spacing:0px;word-spacing:0px;fill:#000000;fill-opacity:1;stroke:none"><tspan
       x="89.45"
       y="206.96"
       id="tspan1">1980</tspan></text></svg>
