<?xml version="1.0" encoding="UTF-8" standalone="no"?>
<svg
   version="1.1"
   id="svg2"
   width="3350"
   height="6350"
   viewBox="-595 -2950 3350 6350"
   xml:space="preserve"
   xmlns:xlink="http://www.w3.org/1999/xlink"
   xmlns="http://www.w3.org/2000/svg"
   xmlns:svg="http://www.w3.org/2000/svg"
   xmlns:rdf="http://www.w3.org/1999/02/22-rdf-syntax-ns#"
   xmlns:cc="http://creativecommons.org/ns#"
   xmlns:dc="http://purl.org/dc/elements/1.1/"><metadata
     id="metadata8"><rdf:RDF><cc:Work
         rdf:about=""><dc:format>image/svg+xml</dc:format><dc:type
           rdf:resource="http://purl.org/dc/dcmitype/StillImage" /></cc:Work></rdf:RDF></metadata><defs
     id="defs6" /><image
     width="3750"
     height="7031.26"
     preserveAspectRatio="none"
     xlink:href="../basemap/lugosm.png"
     id="image10"
     x="-853.12"
     y="-3109.38"
     style="display:none" /><path
     style="opacity:1;fill:none;fill-opacity:0.4;fill-rule:nonzero;stroke:#030405;stroke-width:5;stroke-linecap:butt;stroke-linejoin:round;stroke-miterlimit:4;stroke-dasharray:none;stroke-opacity:1"
     d="m 1342.99,249.29 43.96,-40.39 18.98,-4.75 8.81,-7.12 13.22,-10.17 10.17,-5.42 10.51,-1.02 15.25,6.44 7.46,5.76 12.88,26.78"
     id="path817" /><path
     style="opacity:1;fill:none;fill-opacity:0.4;fill-rule:nonzero;stroke:#ec6710;stroke-width:1;stroke-linecap:butt;stroke-linejoin:round;stroke-miterlimit:4;stroke-dasharray:none;stroke-opacity:1"
     d="m 231.47,771.44 -27.57,25.59 -50.17,20 -12.54,3.73"
     id="path1434" /><path
     style="opacity:1;fill:none;fill-opacity:0.4;fill-rule:nonzero;stroke:#ec6710;stroke-width:5;stroke-linecap:butt;stroke-linejoin:round;stroke-miterlimit:4;stroke-dasharray:none;stroke-opacity:1"
     d="m 543.35,463.37 -10.3,7.23 -8.14,19.32 -7.8,10.51 -6.78,16.61 -16.61,18.31 -7.12,15.25 -5.08,14.92 -13.9,44.75 -8.14,10.17 -9.83,7.8 -66.44,16.61 -7.8,5.08 -119.66,98.98 -24.29,22.55"
     id="path1122" /><path
     style="opacity:1;fill:none;fill-opacity:0.4;fill-rule:nonzero;stroke:#ec6710;stroke-width:1;stroke-linecap:butt;stroke-linejoin:round;stroke-miterlimit:4;stroke-dasharray:none;stroke-opacity:1"
     d="m 584.58,391.95 v 11.86 l -2.26,6.6 -2.15,6.28 -27.8,40.34 -9.03,6.33"
     id="path924" /><path
     style="opacity:1;fill:none;fill-opacity:0.4;fill-rule:nonzero;stroke:#ec6710;stroke-width:5;stroke-linecap:butt;stroke-linejoin:round;stroke-miterlimit:4;stroke-dasharray:none;stroke-opacity:1"
     d="m 1072.03,287.88 3.39,16.95 v 6.44 l -4.41,11.86 -4.41,6.44 -8.47,4.07 h -7.8 l -16.61,-5.08 -6.44,0.68 h -5.08 l -7.46,6.44 -16.61,6.44 -8.81,0.34 -26.1,-2.37 -7.46,-1.02 -8.47,3.05 -7.12,5.08 -7.12,13.9 -7.8,12.54 -3.05,8.81 v 8.81 7.8 l -1.02,8.47 -5.08,7.12 -20.34,10.85 -5.42,7.8 -9.83,12.2 -8.81,5.42 -50.85,13.9 h -12.54 l -23.73,-9.49 -9.49,-7.12 -12.88,-7.8 -5.08,-7.12 -2.71,-13.22 -3.73,-7.12 -7.8,-9.83 -10.85,-35.59 1.36,-47.12 -4.07,-27.12 v -19.66 l 7.12,-15.93 12.2,-15.59 8.47,-18.98 2.03,-11.53 -1.02,-9.15 -4.75,-7.46 -4.75,-5.76 -52.54,-27.8 -15.59,-2.71 -9.49,3.73 -6.44,8.47 -32.2,43.39 -22.71,18.64 -7.46,12.54 -8.14,21.02 -8.14,16.27 -2.03,7.46 -7.12,72.88 1.69,10.17 6.1,18.64"
     id="path819" /><text
     style="font-style:normal;font-weight:normal;font-size:144px;line-height:125%;font-family:Sans;-inkscape-font-specification:Sans;letter-spacing:0px;word-spacing:0px;fill:#000000;fill-opacity:1;stroke:none"
     xml:space="preserve"
     id="text2994"
     y="-2743.04"
     x="-505.55"><tspan
       id="tspan1"
       y="-2743.04"
       x="-505.55">2025</tspan></text><text
     style="font-style:normal;font-weight:normal;font-size:144px;line-height:125%;font-family:Sans;-inkscape-font-specification:Sans;letter-spacing:0px;word-spacing:0px;fill:#000000;fill-opacity:1;stroke:none"
     xml:space="preserve"
     id="text3019-6"
     y="3297.96"
     x="-510.55"><tspan
       id="tspan2"
       y="3297.96"
       x="-510.55">2025</tspan></text><path
     style="fill:none;fill-opacity:0.25;stroke:#000000;stroke-width:5;stroke-linejoin:round"
     d="m 1410.12,-2841.86 194.77,288.66"
     id="path3" /><path
     style="fill:none;fill-opacity:0.25;stroke:#000000;stroke-width:5;stroke-linejoin:round"
     d="m -213.63,-743.29 -116.7,-28.04"
     id="path4" /><path
     style="fill:none;fill-opacity:0.25;stroke:#000000;stroke-width:5;stroke-linejoin:round"
     d="m 2518.81,3150.45 130.63,-13.41"
     id="path5" /><path
     style="fill:none;fill-opacity:0.25;stroke:#009fe3;stroke-width:5;stroke-linejoin:round;stroke-opacity:1"
     d="m -488.25,-2292.53 94.68,6.41 29.93,-7.56 26.94,-0.26 17.09,-5.18 53.87,-36.52 14.24,-6.99 13.99,-2.33 12.95,-1.55 11.91,-5.96 9.58,-8.29 10.1,-15.54 28.75,-30.56 22.01,-12.95 16.58,-4.4 20.98,-0.52 18.65,4.4 35.74,22.53 51.28,22.01 19.42,4.66 47.4,3.88 18.91,-3.11 16.32,-5.18 43.25,-22.01 12.43,-3.11 18.39,0.52 246.82,65.79 140.64,38.59 25.38,13.47 19.17,15.28 18.91,22.01 10.36,20.46 69.93,163.94 16.06,19.68 19.42,13.21 32.37,11.14 134.94,17.87 101.53,9.84 73.3,3.88 16.32,-3.63 27.97,-10.36 176.89,-87.28"
     id="path1" /><path
     style="fill:none;fill-opacity:0.25;stroke:#e30613;stroke-width:5;stroke-linejoin:round;stroke-opacity:1"
     d="m 1056.45,254.08 11.65,55.17 2.89,24.44 -3.11,12.82 -8.24,11.17 -13.37,8.42 -15.02,7.51 -10.26,10.62 -6.04,13.92 -2.56,44.87 -3.11,10.44 -11.54,24.54 -1.47,13 4.58,16.67 10.62,14.1 10.99,6.41 12.82,2.56 13,-2.2 26.55,-9.16 14.28,0.73 17.4,6.04 17.4,11.35 14.47,16.3 10.26,19.78 4.76,16.67 0.92,15.02 0.37,50.91 5.13,28.39 -0.55,16.3 -5.68,16.3 -18.31,28.75 -8.97,19.41 -17.4,18.5 -19.6,37.36 -11.35,38.46 -0.92,20.15 -9.34,29.3 1.65,35.71 -2.2,21.06 -2.2,18.5 3.48,19.41 6.59,19.23 8.61,14.65 10.26,10.07 14.1,6.64 34.96,12.17 24.35,4.14 58.27,8.03 16.58,9.06 12.43,10.1 10.88,13.73 8.55,22.79 1.81,16.32 -3.11,27.97 -10.88,39.11 1.29,18.91 21.76,52.58 8.81,11.4 17.61,20.72 4.4,11.14 8.81,29.27 6.73,10.88 41.18,38.33 6.99,10.1 5.7,12.95 20.46,61.9 53.61,109.3 3.37,11.91 0.78,9.32 -4.14,62.16 -14.5,35.74 -0.78,10.36 -0.52,33.41 -2.85,11.14 -20.72,36 -26.16,65.79 -36,83.92 -3.37,21.5 2.07,19.94 6.73,15.54 19.17,23.83 28.49,41.7 5.44,10.62 5.18,13.47 7.25,31.6 12.69,30.04 6.73,44.81 1.81,32.12 1.04,29.27 -2.85,22.53 -6.99,17.61 -4.4,7.77 -55.17,62.94 -21.76,30.04 -24.09,22.79 -8.55,13.21 -2.07,18.13 3.11,13.73 22.27,34.96 40.4,58.79 4.66,12.17 1.04,8.81 -1.81,27.71 2.59,15.54 9.32,12.69 9.84,9.06 13.47,5.44 30.56,1.04 16.32,6.99 28.75,19.94 17.61,6.73 18.65,3.11 22.53,-2.59 18.13,-8.81 18.65,-18.91 16.83,-7.51 17.87,-1.81 12.69,4.66 53.09,52.32 11.91,7.25 22.27,11.4 132.09,118.1 33.41,31.86 21.5,13.99 54.39,30.56 31.6,17.61 65.01,31.08 29.01,21.76 89.61,63.2 77.7,55.94 12.95,13.73 40.4,53.61 44.29,46.1 17.61,17.61 8.29,10.88 16.06,24.35"
     id="path2" /></svg>
