<?xml version="1.0" encoding="UTF-8" standalone="no"?>
<!-- Created with Inkscape (http://www.inkscape.org/) -->

<svg
   version="1.1"
   width="3700"
   height="5600"
   viewBox="-400, -750, 3700, 5600"
   id="svg2"
   xmlns:xlink="http://www.w3.org/1999/xlink"
   xmlns="http://www.w3.org/2000/svg"
   xmlns:svg="http://www.w3.org/2000/svg"
   xmlns:rdf="http://www.w3.org/1999/02/22-rdf-syntax-ns#"
   xmlns:cc="http://creativecommons.org/ns#"
   xmlns:dc="http://purl.org/dc/elements/1.1/">
  <metadata
     id="metadata8">
    <rdf:RDF>
      <cc:Work
         rdf:about="">
        <dc:format>image/svg+xml</dc:format>
        <dc:type
           rdf:resource="http://purl.org/dc/dcmitype/StillImage" />
      </cc:Work>
    </rdf:RDF>
  </metadata>
  <defs
     id="defs6" />
  <image
     xlink:href="../basemap/sanosm.png"
     x="-667.34"
     y="-1007"
     width="3971.33"
     height="5957"
     id="image10"
     style="display:none" />
  <path
     d="m 2415,4705 -10,-19 -23,-33 -20,-22 -111,-90 -154.85,-97.78 -202.15,-149.22 -156,-122 -21,-27 -9,-42 3,-219 -6,-50 -46,-141 -156,-471 -8,-36 -7,-69 -14,-51 -14,-32 -28,-31 -93,-281 -23,-71 -21,-24 -210,-174 -24,-9 -54,-12 -22,-18 -160,-131 -8,-14 -1,-33.5 -6,-13"
     id="path2987"
     style="fill:none;stroke:#0158a7;stroke-width:5;stroke-linecap:butt;stroke-linejoin:round;stroke-miterlimit:4;stroke-opacity:1;stroke-dasharray:none" />
  <path
     d="m 810,2224 -1.5,-145.5 -4.5,-8 -7.5,-10 -178.25,0 -3.84,1.47 L 612,2070.5 l -4.75,0.75"
     id="path3757"
     style="fill:none;stroke:#0158a7;stroke-width:1px;stroke-linecap:butt;stroke-linejoin:round;stroke-opacity:1" />
  <path
     d="m 806,2226 4,9 -3.5,3 -36,-0.5 -21.5,-13.5 -82.5,-54 -41.5,-26 -11,-11.5 -15.5,-38.5 2.5,-18.5 8.75,-0.25"
     id="path3759"
     style="fill:none;stroke:#f6821f;stroke-width:5;stroke-linecap:butt;stroke-linejoin:round;stroke-miterlimit:4;stroke-opacity:1;stroke-dasharray:none" />
  <path
     d="m 609.5,2071 -8.5,0.25 0.25,-31.75 -1.25,-36.75 -2,-45.25 -24.5,-69.5 -26.5,-72.5 -17.5,-24 -48,-62.5 -30,-26.5 -63.5,-38 -85,-53.5 -23,-26.5 -47,-66 -13.75,-24.5 -8,-26"
     id="path3761"
     style="fill:none;stroke:#0158a7;stroke-width:5;stroke-linecap:butt;stroke-linejoin:round;stroke-miterlimit:4;stroke-opacity:1;stroke-dasharray:none" />
  <path
     d="m 1178,2234 9,-7 2,-9 5,-27 6,-10 9.5,-2.5 12,2.5 8,9 7.5,21 7,7 17.5,2.5 41,-0.5 18,-4 50.5,-32.5 13.5,-5 61.5,-3.5 53.5,24 22.5,4.5 19.5,-3.5 83,-29 254,3.5 257.5,-35 20,-9.5 20,-21 24,-34.5 60.5,-87 56.5,-79 14.5,-32.5 8,-22 49.5,-88 3.5,-21.5 3.5,-89.5 11,-31.5 43,-33 16.5,-7.5 20.5,-2.5 10.5,-5 19,-17.5 41,-24.5 19,-18 7,-30.5 -6.5,-15 -9,-11.5 v -16 l 8.5,-14 -1.5,-9 -52,-109 -45.5,-94.5 v -13.5 l 5.5,-6.5 44,-28.5 44.5,-31 71,-65 22.5,-16.5 107.5,-45.5 21.5,-4.5 62.5,14 14,8.5 16.5,20.5 10,17.5 27.5,24 20.5,10.5 25,1.5 14.5,-6 16,-23 19.5,-15 30.5,-11 22,-26.5 22.56,-34.15 8.4,-27.73 -1,-65.81 -2.49,-21.71 1.15,-39.62 11.66,-30.75 -0.85,-137.61 -11.79,-17.9 -3.59,-58.87 0.46,-59.13 10.9,-13.25 -1.17,-60.66 -10.71,-48.35 -15.72,-15.74 -40.72,-10.9 -9.05,-6.44 -6.14,-11.05"
     id="path3765"
     style="fill:none;stroke:#f6821f;stroke-width:5;stroke-linecap:butt;stroke-linejoin:round;stroke-miterlimit:4;stroke-dasharray:none;stroke-opacity:1" />
  <path
     d="M 224.25,1493.25 216,1467 191.75,1392.25 193,1371 l 14.5,-18 23,-8.5 16,-1.5 21.5,0 12,6 15.5,13 18,5 22,-5 114,-31.5 14.5,-3.5 22,0.5 57,-19 13.5,1 33,7.5 17.5,-1.5 68.5,-25 10,-7 30,-12.5 13,-11 16.5,-18 15,-5.5 18.5,-2.5 17,7 18.5,4.5 17.5,-5.5 27.5,-14 27.5,-3 27.5,-5.5 20.5,-11.5 10.5,-12.5 53,-14 92,-22.5 46,-21.5 34,-37 13,-7.5 40,-13 109.5,-11 19.5,3 19,15 16,9.5 20,5.5 53.5,1.5 16,-7 33,-17 13,0 23.5,10 19,8 16.5,-4 34.5,-3.5 79,-2.5 112,20 13,13 7.5,15 10.5,34.5 8,14 11.5,12.5 22,7 21,-1 16,-6.5 14,-11 4,-16.5 -3.5,-23.5 5,-14 21.5,-15.5 21.5,-4 17,3.5 76.5,22 65.5,15.5 38.5,21.5 18,16.5 57.5,24 34,7.5 57,-5.5 41,-9.5 54.5,-2 33,-3.5 97.41,-67.34 L 2645.5,1062 l 17,-10 107.17,-46.56 24.13,-5.63 63.83,14.5 15.23,8.87 17.83,21.33 10.31,18.44 25.34,22.02 17.66,10.04 24,2 13,-5 13.5,-19.5 20.5,-17.5 32,-11.5 22,-27 21.5,-32.5 8,-26.5 -1,-64.5 -2.52,-23.31 1.55,-40.06 11.29,-29.9 -0.76,-135.52 -11.66,-18.02 -3.77,-59.1 0.43,-61.78 10.88,-13.24 -1.15,-58.53 -10.31,-47.03 -13.27,-13.36 -40.57,-10.85 -11.1,-7.91 -7.04,-13.13 -17,-31.75"
     id="path3767"
     style="fill:none;stroke:#00ab4f;stroke-width:5;stroke-linecap:butt;stroke-linejoin:round;stroke-miterlimit:4;stroke-opacity:1;stroke-dasharray:none" />
  <path
     d="m 3003,330.5 -2,-11 1.5,-131 5,-9.5 33.5,-40"
     id="path3769"
     style="fill:none;stroke:#00ab4f;stroke-width:1px;stroke-linecap:butt;stroke-linejoin:round;stroke-opacity:1" />
  <text
     x="-310.55"
     y="-543.04"
     id="text2991"
     xml:space="preserve"
     style="font-size:144px;font-style:normal;font-weight:normal;line-height:125%;letter-spacing:0px;word-spacing:0px;fill:#000000;fill-opacity:1;stroke:none;font-family:Sans;-inkscape-font-specification:Sans"><tspan
       x="-310.55"
       y="-543.04"
       id="tspan1">2010</tspan></text>
  <text
     x="-310.55"
     y="4747.96"
     id="text2995"
     xml:space="preserve"
     style="font-size:144px;font-style:normal;font-weight:normal;line-height:125%;letter-spacing:0px;word-spacing:0px;fill:#000000;fill-opacity:1;stroke:none;font-family:Sans;-inkscape-font-specification:Sans"><tspan
       x="-310.55"
       y="4747.96"
       id="tspan2"></tspan></text>
  <path
     style="fill:none;stroke:#f6821f;stroke-width:1px;stroke-linecap:butt;stroke-linejoin:round;stroke-opacity:1"
     id="path3763"
     d="m 606.84,2074.95 5.13,-1.18 3.34,-11.3 2.54,-0.77 1,-0.09 179.85,-0.46 6.22,8.67 4.66,8.47 1.46,138.93 10.7,19.77 33,1 324.25,-3.5" />
</svg>
