<?xml version="1.0" encoding="UTF-8" standalone="no"?>
<svg
   viewBox="0 0 2550 1600"
   height="1600"
   width="2550"
   id="svg2"
   version="1.1"
   xmlns:xlink="http://www.w3.org/1999/xlink"
   xmlns="http://www.w3.org/2000/svg"
   xmlns:svg="http://www.w3.org/2000/svg"
   xmlns:rdf="http://www.w3.org/1999/02/22-rdf-syntax-ns#"
   xmlns:cc="http://creativecommons.org/ns#"
   xmlns:dc="http://purl.org/dc/elements/1.1/">
  <metadata
     id="metadata8">
    <rdf:RDF>
      <cc:Work
         rdf:about="">
        <dc:format>image/svg+xml</dc:format>
        <dc:type
           rdf:resource="http://purl.org/dc/dcmitype/StillImage" />
      </cc:Work>
    </rdf:RDF>
  </metadata>
  <defs
     id="defs6" />
  <image
     y="-183.09"
     x="-60"
     id="image10"
     xlink:href="../basemap/krkosm.png"
     preserveAspectRatio="none"
     height="1733.09"
     width="2599.64"
     style="display:none" />
  <path
     id="path836"
     d="m 744.03,535.76 3.53,9.76 v 7.86 l -1.76,12.07 1.9,32.81 1.36,15.46 2.03,3.39 4.88,3.53 7.86,1.08 27.53,-1.22 19.66,2.71 60.75,18.03 4.34,2.85 2.17,5.56 9.08,23.59 8.27,38.78 -0.54,12.34 -8.95,43.93 -1.49,7.46"
     style="opacity:1;fill:none;fill-opacity:1;fill-rule:nonzero;stroke:#c52720;stroke-width:5;stroke-linecap:butt;stroke-linejoin:round;stroke-miterlimit:4;stroke-dasharray:none;stroke-opacity:1" />
  <path
     id="path838"
     d="m 883.21,662.16 10.93,-4.22 45.64,-10.93 h 7.1 l 42.38,0.58"
     style="opacity:1;fill:none;fill-opacity:1;fill-rule:nonzero;stroke:#c52720;stroke-width:5;stroke-linecap:butt;stroke-linejoin:round;stroke-miterlimit:4;stroke-dasharray:none;stroke-opacity:1" />
  <path
     id="path840"
     d="m 744.03,535.76 -5.4,-13.39 -7.67,-6.9 -20.33,-8.44 -14.96,-5.94 -2.49,0.96 -1.15,1.92 3.45,6.52 0.39,4.69 3.45,-3.16 7.29,-4.03 0.23,-2.47"
     style="opacity:1;fill:none;fill-opacity:1;fill-rule:nonzero;stroke:#c52720;stroke-width:1;stroke-linecap:butt;stroke-linejoin:round;stroke-miterlimit:4;stroke-dasharray:none;stroke-opacity:1" />
  <path
     id="path842"
     d="m 695.67,501.09 -6.33,-4.41 -13.81,-19.37 -0.19,-6.52 1.15,-6.33 13.04,-18.6 -0.58,-7.48 -4.79,-3.64 -13.42,-7.67 -17.45,-12.66 -3.26,-3.26 -15.72,-36.43 -6.42,-29.14 -1.63,-35.69 -3.28,-20.37 -2.88,-1.35 -5.19,1.74 -2.98,6.25"
     style="opacity:1;fill:none;fill-opacity:1;fill-rule:nonzero;stroke:#c52720;stroke-width:1;stroke-linecap:butt;stroke-linejoin:round;stroke-miterlimit:4;stroke-dasharray:none;stroke-opacity:1" />
  <path
     id="path844"
     d="m 1119.8,1048.08 -3.61,-3.94 -53.31,0.77 -10.16,-2.88 -7.1,-5.37 -5.94,-8.44 -15.53,-51.77 -6.71,-11.51 -46.98,-46.6 -13.61,-8.82 -29.72,-9.97 -9.4,-6.9 -7.1,-11.31 -20.33,-49.67 -4.22,-16.49 -2.3,-13.81 0.85,-25.61"
     style="opacity:1;fill:none;fill-opacity:1;fill-rule:nonzero;stroke:#c52720;stroke-width:1;stroke-linecap:butt;stroke-linejoin:round;stroke-miterlimit:4;stroke-dasharray:none;stroke-opacity:1" />
  <path
     id="path871"
     d="m 1120.57,1047.49 -0.92,14.48 0.19,31.83 -1.73,7.48 -4.03,5.94 -33.75,28.96 -31.45,31.64 -26.08,19.37 -2.3,3.58 -0.19,4.67 40.08,59.83"
     style="opacity:1;fill:none;fill-opacity:1;fill-rule:nonzero;stroke:#c52720;stroke-width:5;stroke-linecap:butt;stroke-linejoin:round;stroke-miterlimit:4;stroke-dasharray:none;stroke-opacity:1" />
  <path
     id="path873"
     d="m 1060.39,1255.27 23.39,36.82 6.9,6.14 -0.77,3.84 -17.26,15.92 -4.03,7.86 -1.73,4.99 0.77,12.27 -2.49,3.26 0.96,29.91 0.77,17.83 -2.11,9.2 -2.3,5.37 -5.37,5.56 -9.97,4.99 -57.34,18.22 -17.45,7.48 -20.33,9.01 -8.25,7.09 -50.05,16.3 -17.45,2.88 -19.56,-1.15 -61.36,-19.75 -38.31,-11.95 -3.71,-3.05 -7.2,-6.76 -7.85,-1.74 -33.15,4.14 -8.29,-0.65 -15.05,-7.63 -10.47,-8.72 -8.72,-17.23 -6.98,-22.68 -7.63,-12.65 -12,-17.67 -13.3,-10.47 -1.72,-3.66"
     style="opacity:1;fill:none;fill-opacity:1;fill-rule:nonzero;stroke:#c52720;stroke-width:1;stroke-linecap:butt;stroke-linejoin:round;stroke-miterlimit:4;stroke-dasharray:none;stroke-opacity:1" />
  <path
     style="opacity:1;fill:none;fill-opacity:1;fill-rule:nonzero;stroke:#c52720;stroke-width:1;stroke-linecap:butt;stroke-linejoin:round;stroke-miterlimit:4;stroke-dasharray:none;stroke-opacity:1"
     d="m 847.53,976.06 -54.08,2.3 -6.71,2.88 -26.27,19.37 -30.49,25.5 -24.93,67.69 -2.49,19.75 -9.97,12.85 -32.41,92.04 -27.8,86.29 -46.41,137.68 -1.53,2.49 -3.07,1.73 -8.25,-2.3 -5.37,-0.19 -3.07,2.68 -2.68,6.33 -0.38,3.26 3.07,12.08"
     id="path4" />
  <path
     style="opacity:1;fill:none;fill-opacity:1;fill-rule:nonzero;stroke:#c52720;stroke-width:1;stroke-linecap:butt;stroke-linejoin:round;stroke-miterlimit:4;stroke-dasharray:none;stroke-opacity:1"
     d="m 884.55,779.9 -5.56,5.56 h -15.34 l -27.04,-13.81 -29.34,-4.99 h -11.7 l -14.38,2.49 -9.78,2.11 -7.48,3.84 -3.07,4.41 -8.44,16.49 -3.82,9.78"
     id="path875" />
  <path
     id="path877"
     d="m 661.34,1215 -3.64,1.53 -27.42,-13.81 -10.16,-2.68 -50.24,-0.19 -14.38,-1.34 -11.89,-2.3 -50.82,-18.98 -6.52,-1.15 -7.86,1.15 -10.16,6.14 -130.4,82.07 -9.01,9.59 -5.18,11.31 -13.04,27.23 -50.05,64.43 -4.41,4.6 -6.14,2.68 -38.74,7.67 -6.14,-0.38 -8.25,-6.52"
     style="opacity:1;fill:none;fill-opacity:1;fill-rule:nonzero;stroke:#c52720;stroke-width:1;stroke-linecap:butt;stroke-linejoin:round;stroke-miterlimit:4;stroke-dasharray:none;stroke-opacity:1" />
  <path
     style="opacity:1;fill:none;fill-opacity:1;fill-rule:nonzero;stroke:#c52720;stroke-width:1;stroke-linecap:butt;stroke-linejoin:round;stroke-miterlimit:4;stroke-dasharray:none;stroke-opacity:1"
     d="m 1874.1,280.05 1.15,-4.28 6,-10.07 16.45,-16.85"
     id="path7" />
  <path
     style="opacity:1;fill:none;fill-opacity:1;fill-rule:nonzero;stroke:#c52720;stroke-width:5;stroke-linecap:butt;stroke-linejoin:round;stroke-miterlimit:4;stroke-dasharray:none;stroke-opacity:1"
     d="m 1753.16,334.13 20.58,-2.73 47.17,-8.15 18.88,0.27 12.16,-3.05 11.15,-8.78 5,-9.28 5.99,-22.36"
     id="path8" />
  <path
     style="opacity:1;fill:none;fill-opacity:1;fill-rule:nonzero;stroke:#c52720;stroke-width:1;stroke-linecap:butt;stroke-linejoin:round;stroke-miterlimit:4;stroke-dasharray:none;stroke-opacity:1"
     d="m 989.25,647.59 37.2,-0.77 12.85,-3.07 43.34,-23.39 49.28,-58.68 12.85,-13.42 10.16,-4.99 13.04,-1.53 143.24,-11.7 48.32,-3.07 95.69,13.81 6.33,-4.79 3.26,-7.67 7.86,-7.67 74.79,-61.36 3.84,-8.25 14.19,-11.12 6.9,-2.3 90.51,-75.74 11.12,-7.86 30.3,-13.42 48.84,-6.47"
     id="path879" />
  <path
     id="path881"
     d="m 1555.89,447.01 0.38,-2.88 -55.23,-65.77 -9.4,-6.71 -11.51,-5.56 -1.73,-5.56 22.24,-78.05 -2.88,-3.45 -5.18,-3.45 -28.57,-7.1 -7.09,-4.03 -37.97,-41.04 -5.18,-4.41 -1.89,-1.52"
     style="opacity:1;fill:none;fill-opacity:1;fill-rule:nonzero;stroke:#c52720;stroke-width:1;stroke-linecap:butt;stroke-linejoin:round;stroke-miterlimit:4;stroke-dasharray:none;stroke-opacity:1" />
  <path
     id="path885"
     d="m 1121.65,1047.9 3.25,-3.39 85.42,2.44 77.15,10.85 8.27,-7.32"
     style="opacity:1;fill:none;fill-opacity:1;fill-rule:nonzero;stroke:#c52720;stroke-width:1;stroke-linecap:butt;stroke-linejoin:round;stroke-miterlimit:4;stroke-dasharray:none;stroke-opacity:1" />
  <path
     id="path887"
     d="m 1022.81,1187.19 -4.2,-0.04 -4.34,-2.17 -15.32,-24.27"
     style="opacity:1;fill:none;fill-opacity:1;fill-rule:nonzero;stroke:#c52720;stroke-width:5;stroke-linecap:butt;stroke-linejoin:round;stroke-miterlimit:4;stroke-dasharray:none;stroke-opacity:1" />
  <path
     id="path889"
     d="m 1090.69,1298.22 125.22,116.4 14.77,9.4 44.49,22.63 7.86,1.92 4.41,-0.96 39.69,-33.56 10.74,-3.45 11.12,0.77 40.08,9.59 11.12,0.77 15.92,-2.3 23.39,-6.52 h 9.01 l 59.06,18.03 h 3.84 l 9.01,-5.18"
     style="opacity:1;fill:none;fill-opacity:1;fill-rule:nonzero;stroke:#c52720;stroke-width:1;stroke-linecap:butt;stroke-linejoin:round;stroke-miterlimit:4;stroke-dasharray:none;stroke-opacity:1" />
  <path
     id="path891"
     d="M 1283.02,1448.56 Z"
     style="opacity:1;fill:none;fill-opacity:1;fill-rule:nonzero;stroke:#c52720;stroke-width:1;stroke-linecap:butt;stroke-linejoin:round;stroke-miterlimit:4;stroke-dasharray:none;stroke-opacity:1" />
  <path
     id="path895"
     d="m 998.94,1160.71 -65.3,-98.93 -8.05,-7.86 -33.37,-49.47 -40.84,-27.8 -3.84,-0.58"
     style="opacity:1;fill:none;fill-opacity:1;fill-rule:nonzero;stroke:#c52720;stroke-width:1;stroke-linecap:butt;stroke-linejoin:round;stroke-miterlimit:4;stroke-dasharray:none;stroke-opacity:1" />
  <path
     id="path897"
     d="m 883.21,662.16 -7.86,1.34 -12.27,-1.34 -22.44,3.45"
     style="opacity:1;fill:none;fill-opacity:1;fill-rule:nonzero;stroke:#c52720;stroke-width:5;stroke-linecap:butt;stroke-linejoin:round;stroke-miterlimit:4;stroke-dasharray:none;stroke-opacity:1" />
  <path
     id="path899"
     d="m 840.64,665.61 -92.81,11.17 -52.88,-25.76 -37.69,1.9 -27.93,40.14 h -3.8 l -25.76,-37.42 -45.83,-60.2 -17.9,-10.58 -40.43,-19.03 -45.54,-19.75 -53.68,-18.49 -19.28,-6.05 -16.8,-18.04 -130.71,-74.03 -66.17,-20.61 -37.27,0 -5.75,5.18"
     style="opacity:1;fill:none;fill-opacity:1;fill-rule:nonzero;stroke:#c52720;stroke-width:1;stroke-linecap:butt;stroke-linejoin:round;stroke-miterlimit:4;stroke-dasharray:none;stroke-opacity:1" />
  <path
     id="path901"
     d="m 1455.22,540.78 202.88,30.49 1.92,-2.49 5.75,-12.66 246.6,-101.44 21.29,-1.53 3.84,-3.07 -3.21,-65.83"
     style="opacity:1;fill:none;fill-opacity:1;fill-rule:nonzero;stroke:#c52720;stroke-width:1;stroke-linecap:butt;stroke-linejoin:round;stroke-miterlimit:4;stroke-dasharray:none;stroke-opacity:1" />
  <path
     id="path903"
     d="m 1665.77,556.12 -5.18,-0.77 h -7.86 l -2.3,2.11 -0.77,8.05 -5.75,3.64"
     style="opacity:1;fill:none;fill-opacity:1;fill-rule:nonzero;stroke:#c52720;stroke-width:1;stroke-linecap:butt;stroke-linejoin:round;stroke-miterlimit:4;stroke-dasharray:none;stroke-opacity:1" />
  <path
     id="path905"
     d="m 1658.1,571.27 16.91,6.53 64.27,19.53 124.47,34.98 54.24,-1.63"
     style="opacity:1;fill:none;fill-opacity:1;fill-rule:nonzero;stroke:#c52720;stroke-width:1;stroke-linecap:butt;stroke-linejoin:round;stroke-miterlimit:4;stroke-dasharray:none;stroke-opacity:1" />
  <path
     id="path907"
     d="m 1917.99,630.68 27.53,-4.61 28.2,-4.2 4.34,0.41 2.58,3.12 0.68,16.27 18.58,18.44 9.49,5.42 37.69,13.29 7.32,0.68 37.97,-1.08"
     style="opacity:1;fill:none;fill-opacity:1;fill-rule:nonzero;stroke:#c52720;stroke-width:5;stroke-linecap:butt;stroke-linejoin:round;stroke-miterlimit:4;stroke-dasharray:none;stroke-opacity:1" />
  <path
     id="path909"
     d="m 2092.36,678.41 27.66,-1.9 9.63,-2.03 41.49,-32.27 16.68,-26.03 7.19,-13.29 5.15,-4.2 63.46,-5.97 66.71,-33.22 11.53,-3.39 90.71,-1.22 14.1,-1.9"
     style="opacity:1;fill:none;fill-opacity:1;fill-rule:nonzero;stroke:#c52720;stroke-width:1;stroke-linecap:butt;stroke-linejoin:round;stroke-miterlimit:4;stroke-dasharray:none;stroke-opacity:1" />
  <path
     id="path925"
     d="m 747.82,676.78 -2.3,3.79 0.38,24.35 -2.68,8.82 -6.33,17.64 -4.6,6.52 -24.54,27.04 -3.64,7.09 -8.44,57.72 -6.33,6.71 v 4.41 l 8.63,12.46 4.99,10.55 14.19,15.72 3.45,13.61 15.92,61.75 17.07,29.15 10.35,9.59 v 3.84"
     style="opacity:1;fill:none;fill-opacity:1;fill-rule:nonzero;stroke:#c52720;stroke-width:1;stroke-linecap:butt;stroke-linejoin:round;stroke-miterlimit:4;stroke-dasharray:none;stroke-opacity:1" />
  <path
     id="path927"
     d="m 718.68,752.67 -0.19,3.45 30.11,41.99 v 7.67 l -32.22,60.6 -2.72,4.64 0.47,5.23"
     style="opacity:1;fill:none;fill-opacity:1;fill-rule:nonzero;stroke:#c52720;stroke-width:1;stroke-linecap:butt;stroke-linejoin:round;stroke-miterlimit:4;stroke-dasharray:none;stroke-opacity:1" />
  <path
     id="path929"
     d="m 1411.88,217.48 -0.19,-5.37 6.14,-71.91 -3.07,-16.87 -5.56,-24.16"
     style="opacity:1;fill:none;fill-opacity:1;fill-rule:nonzero;stroke:#c52720;stroke-width:1;stroke-linecap:butt;stroke-linejoin:round;stroke-miterlimit:4;stroke-dasharray:none;stroke-opacity:1" />
  <text
     style="font-style:normal;font-weight:normal;font-size:144px;font-family:Sans;-inkscape-font-specification:Sans;fill:#000000;fill-opacity:1;stroke:none"
     xml:space="preserve"
     id="text3652"
     y="206.96"
     x="89.45"><tspan
       id="tspan1"
       y="206.96"
       x="89.45">2025</tspan></text>
  <path
     style="fill:none;fill-opacity:0;stroke:#c52720;stroke-width:1;stroke-linejoin:round;stroke-opacity:1;stroke-dasharray:none"
     d="m 622.98,289.52 -9.17,-27.33 -7.71,-12.95 -11.1,-28.69 0.62,-4.47 4.63,-4.32 28.07,-6.63 7.4,0.62 20.82,9.72 8.95,0.46 9.56,-2 32.08,-16.66 18.35,-10.95 5.24,-1.23 6.79,0.46 46.88,13.26 11.26,-0.77 18.82,6.17 29.77,5.4 3.08,-1.54 3.08,-3.86 6.32,-51.97 19.74,-79.73 6.79,-10.64 13.73,-9.56 10.33,-3.55 7.87,-0.31 2.93,2 -0.77,16.81 1.7,2.31 10.02,0.31 2.47,-3.55 v -13.88 l -2,-2.47 -14.34,-1.54"
     id="path1" />
  <path
     style="fill:none;fill-opacity:0;stroke:#c52720;stroke-width:1;stroke-linejoin:round;stroke-dasharray:none;stroke-opacity:1"
     d="m 695.87,515.18 -19.74,23.11 -18.54,3.38 -2.29,2.51 0.22,18.32 7.42,23.56 16.58,24.86 7.89,40.48"
     id="path2" />
  <path
     style="fill:none;fill-opacity:0;stroke:#c52720;stroke-width:1;stroke-linejoin:round;stroke-dasharray:none;stroke-opacity:1"
     d="m 763.94,993.7 4.49,1.04"
     id="path3" />
  <path
     style="fill:none;fill-opacity:0;stroke:#c52720;stroke-width:1;stroke-linejoin:round;stroke-dasharray:none;stroke-opacity:1"
     d="m 622.7,1342.23 -3.49,1.57"
     id="path5" />
  <path
     style="fill:none;fill-opacity:0;stroke:#c52720;stroke-width:1;stroke-linejoin:round;stroke-dasharray:none;stroke-opacity:1"
     d="m 657.7,1216.53 1.88,3.79"
     id="path6" />
  <path
     id="path3226"
     d="m 1464.4,542.16 -5.89,4.31 -11.69,31.71 -8.05,10.59 -18.64,11.02 -75.42,34.75 -36.44,12.92 -164.41,45.55 -12.92,7.42 -57.2,42.58 -12.29,8.9 -11.65,2.54 -10.8,0.21 -45.13,-14.19 -12.71,0.21 -11.44,3.39 -44.92,17.58 -13.35,8.47 -13.14,9.53 -9.32,3.18 -10,2.62"
     style="fill:none;fill-opacity:1;fill-rule:nonzero;stroke:#c52720;stroke-width:1;stroke-linecap:butt;stroke-linejoin:round;stroke-miterlimit:4;stroke-dasharray:none;stroke-opacity:1" />
  <path
     style="fill:none;fill-opacity:1;fill-rule:nonzero;stroke:#c52720;stroke-width:1;stroke-linecap:butt;stroke-linejoin:round;stroke-miterlimit:4;stroke-dasharray:none;stroke-opacity:1"
     d="m 747.47,796.55 4.95,-0.55"
     id="path9" />
  <path
     style="fill:none;fill-opacity:1;fill-rule:nonzero;stroke:#c52720;stroke-width:1;stroke-linecap:butt;stroke-linejoin:round;stroke-miterlimit:4;stroke-dasharray:none;stroke-opacity:1"
     d="m 716.42,755.95 2.06,0.16"
     id="path927-7" />
  <path
     id="path3137"
     d="m 708.91,763.22 -41.35,-2.47 -7.79,-4.64 -14.46,1.35 -11.69,6.52 -28.9,19.64 -23.44,32.23 -26.68,16.96 -66.78,29.61 -9.72,-0.46 -18.35,-3.86 -12.8,1.23 -10.02,0.46"
     style="fill:none;fill-opacity:1;fill-rule:nonzero;stroke:#c52720;stroke-width:1;stroke-linecap:butt;stroke-linejoin:round;stroke-miterlimit:4;stroke-dasharray:none;stroke-opacity:1" />
</svg>
