<?xml version="1.0" encoding="UTF-8" standalone="no"?>
<svg
   viewBox="-515 -850 5050 5200"
   height="5200"
   width="5050"
   id="svg2"
   version="1.1"
   xmlns:xlink="http://www.w3.org/1999/xlink"
   xmlns="http://www.w3.org/2000/svg"
   xmlns:svg="http://www.w3.org/2000/svg"
   xmlns:rdf="http://www.w3.org/1999/02/22-rdf-syntax-ns#"
   xmlns:cc="http://creativecommons.org/ns#"
   xmlns:dc="http://purl.org/dc/elements/1.1/">
  <metadata
     id="metadata8">
    <rdf:RDF>
      <cc:Work
         rdf:about="">
        <dc:format>image/svg+xml</dc:format>
        <dc:type
           rdf:resource="http://purl.org/dc/dcmitype/StillImage" />
      </cc:Work>
    </rdf:RDF>
  </metadata>
  <defs
     id="defs6" />
  <image
     style="display:none"
     y="-871.67"
     x="-696.5"
     id="image10"
     xlink:href="../basemap/qlsosm.png"
     preserveAspectRatio="none"
     height="5339.84"
     width="5339.84" />
  <path
     id="path817"
     d="m 831.05,1315.76 38.85,-189.15 5.29,-31.32 -1.42,-10.98 2.03,-4.88 4.68,-5.29 11.8,-2.44 12.2,5.08 21.15,11.39 23.8,27.25 7.53,1.42 8.75,-1.22 10.17,-5.08 4.47,-5.69 3.66,-37.63 -4.68,-12.61 4.47,-21.76 4.47,-7.53 1.63,-6.51 0.41,-13.22 4.47,-12.81 26.44,-24.41 5.49,-10.98 15.66,-45.36 11.8,-22.78 39.66,-64.47 11.59,-16.27 13.42,-7.53 45.56,-11.39 18.51,-7.32 17.69,-19.93"
     style="opacity:1;fill:none;fill-rule:nonzero;stroke:#e6007e;stroke-width:5;stroke-linecap:butt;stroke-linejoin:round;stroke-miterlimit:4;stroke-dasharray:none;stroke-opacity:1" />
  <path
     id="path819"
     d="m 325.46,854.45 -32.5,-25.6 -5.61,-1.29 -5.18,1.01 -4.6,5.18 -89.17,183.22 -19.27,51.49 -0.43,7.33 2.59,4.89 4.31,3.16 6.76,1.29 26.03,-0.43 8.92,2.01 12.66,6.33 26.03,-1.87 8.2,-4.75 49.47,-39.69 10.35,-4.31 21,-3.16 14.81,-2.59 6.04,1.15 5.9,3.31 38.4,25.6 7.48,3.74 29.34,-3.16 10.64,-3.31 19.99,-10.35 11.65,-1.87 10.64,2.01 41.13,13.23 10.79,-1.58 10.64,-4.75 18.84,-6.62 11.94,-0.72 8.49,1.44 53.79,17.69 40.7,18.84 10.64,0.43 8.77,-1.15 11.79,-1.58 38.26,0.86 9.64,-1.73 10.64,-0.29 82.7,29.48"
     style="opacity:1;fill:none;fill-rule:nonzero;stroke:#4a86e8;stroke-width:5;stroke-linecap:butt;stroke-linejoin:round;stroke-miterlimit:4;stroke-dasharray:none;stroke-opacity:1" />
  <text
     x="-425.55"
     y="-643.04"
     id="text3818"
     xml:space="preserve"
     style="font-style:normal;font-weight:normal;font-size:144px;line-height:125%;font-family:Sans;-inkscape-font-specification:Sans;letter-spacing:0px;word-spacing:0px;fill:#000000;fill-opacity:1;stroke:none"><tspan
       x="-425.55"
       y="-643.04"
       id="tspan1">2010</tspan></text>
  <path
     style="fill:none;stroke:#000000;stroke-width:5;stroke-linejoin:round"
     d="m -401,-296.62 139.21,96.57"
     id="path1" />
  <path
     style="fill:none;stroke:#f39100;stroke-width:5;stroke-linejoin:round;stroke-opacity:1"
     d="m 311.09,837.04 29.21,21.59 106.64,80.92 40.13,29.49 22.61,11.97 144.99,71.61 30.15,17.96 13.3,11.09 43.45,45.89 13.08,9.53 32.81,10.86 45.23,13.52 19.07,6.43 26.38,4.43"
     id="path2" />
  <path
     style="fill:none;stroke:#000000;stroke-width:5;stroke-linejoin:round"
     d="m 3043.94,1908.22 -1.25,-45.36 -4.01,-27.57 -7.77,-19.55 -16.04,-32.08 -4.26,-15.54 -12.78,-64.66"
     id="path3" />
  <path
     style="fill:none;stroke:#000000;stroke-width:5;stroke-linejoin:round"
     d="m 4132.75,2083.67 49.76,45.78"
     id="path4" />
  <path
     style="fill:none;stroke:#000000;stroke-width:5;stroke-linejoin:round"
     d="m 3968.68,2552.85 2.84,-87.3"
     id="path5" />

  <text
     style="font-style:normal;font-weight:normal;font-size:12px;line-height:125%;font-family:Sans;-inkscape-font-specification:Sans;letter-spacing:0px;word-spacing:0px;fill:#000000;fill-opacity:1;stroke:none"
     xml:space="preserve"
     id="text3809-2"
     y="4247.96"
     x="-425.55"><tspan
       style="font-size:144px"
       id="tspan2"
       y="4247.96"
       x="-425.55">2010</tspan></text>
</svg>
