<?xml version="1.0" encoding="UTF-8" standalone="no"?>
<svg
   viewBox="-515 -850 5050 5200"
   height="5200"
   width="5050"
   id="svg2"
   version="1.1"
   xmlns:xlink="http://www.w3.org/1999/xlink"
   xmlns="http://www.w3.org/2000/svg"
   xmlns:svg="http://www.w3.org/2000/svg"
   xmlns:rdf="http://www.w3.org/1999/02/22-rdf-syntax-ns#"
   xmlns:cc="http://creativecommons.org/ns#"
   xmlns:dc="http://purl.org/dc/elements/1.1/">
  <metadata
     id="metadata8">
    <rdf:RDF>
      <cc:Work
         rdf:about="">
        <dc:format>image/svg+xml</dc:format>
        <dc:type
           rdf:resource="http://purl.org/dc/dcmitype/StillImage" />
      </cc:Work>
    </rdf:RDF>
  </metadata>
  <defs
     id="defs6" />
  <image
     xlink:href="../basemap/qlsosm.png"
     style="display:none"
     width="5339.84"
     height="5339.84"
     preserveAspectRatio="none"
     id="image10"
     x="-696.5"
     y="-871.67" />
  <path
     id="path817"
     d="m 831.05,1315.76 38.85,-189.15 5.29,-31.32 -1.42,-10.98 2.03,-4.88 4.68,-5.29 11.8,-2.44 12.2,5.08 21.15,11.39 23.8,27.25 7.53,1.42 8.75,-1.22 10.17,-5.08 4.47,-5.69 3.66,-37.63 -4.68,-12.61 4.47,-21.76 4.47,-7.53 1.63,-6.51 0.41,-13.22 4.47,-12.81 26.44,-24.41 5.49,-10.98 15.66,-45.36 11.8,-22.78 39.66,-64.47 11.59,-16.27 13.42,-7.53 45.56,-11.39 18.51,-7.32 17.69,-19.93"
     style="opacity:1;fill:none;fill-rule:nonzero;stroke:#e6007e;stroke-width:5;stroke-linecap:butt;stroke-linejoin:round;stroke-miterlimit:4;stroke-dasharray:none;stroke-opacity:1" />
  <path
     id="path819"
     d="m 325.46,854.45 -32.5,-25.6 -5.61,-1.29 -5.18,1.01 -4.6,5.18 -89.17,183.22 -19.27,51.49 -0.43,7.33 2.59,4.89 4.31,3.16 6.76,1.29 26.03,-0.43 8.92,2.01 12.66,6.33 26.03,-1.87 8.2,-4.75 49.47,-39.69 10.35,-4.31 21,-3.16 14.81,-2.59 6.04,1.15 5.9,3.31 38.4,25.6 7.48,3.74 29.34,-3.16 10.64,-3.31 19.99,-10.35 11.65,-1.87 10.64,2.01 41.13,13.23 10.79,-1.58 10.64,-4.75 18.84,-6.62 11.94,-0.72 8.49,1.44 53.79,17.69 40.7,18.84 10.64,0.43 8.77,-1.15 11.79,-1.58 38.26,0.86 9.64,-1.73 10.64,-0.29 82.7,29.48"
     style="opacity:1;fill:none;fill-rule:nonzero;stroke:#4a86e8;stroke-width:5;stroke-linecap:butt;stroke-linejoin:round;stroke-miterlimit:4;stroke-dasharray:none;stroke-opacity:1" />
  <path
     id="path821"
     d="m 867.8,1109.58 0.72,-15.96 -4.03,-6.04 -10.93,-6.76 -24.88,-12.66 -27.9,-6.33 -12.22,-8.05 -28.91,-22.29 -6.9,-9.2"
     style="opacity:1;fill:none;fill-rule:nonzero;stroke:#58b947;stroke-width:5;stroke-linecap:butt;stroke-linejoin:round;stroke-miterlimit:4;stroke-dasharray:none;stroke-opacity:1" />
  <path
     id="path823"
     d="m 752.75,1022.28 -9.78,-11.79 -11.79,-9.78 -22.29,-14.81 -8.05,-8.05 -5.75,-10.5 -25.31,-44.58"
     style="opacity:1;fill:none;fill-rule:nonzero;stroke:#58b947;stroke-width:1;stroke-linecap:butt;stroke-linejoin:round;stroke-miterlimit:4;stroke-dasharray:none;stroke-opacity:1" />
  <path
     id="path825"
     d="m 669.76,922.76 -13.66,-29.48 -7.91,-15.39 -9.78,-19.27 -3.6,-12.37 -2.59,-11.94 -3.6,-24.59 -4.89,-10.79 -9.5,-16.05 -3.86,-13.42 -5.08,-26.03 0.61,-15.05 -2.03,-8.14 -5.9,-10.17 -34.78,-36.2 -6.92,-11.19 -9.56,-21.36 -2.24,-15.25 0.61,-18.51 2.44,-20.54 5.08,-15.25 15.66,-27.66 9.97,-20.75 5.49,-20.75 2.64,-24.61 -3.86,-30.31 1.22,-8.75 8.14,-26.03 10.58,-56.34 4.88,-82.78 2.85,-54.51 0.41,-25.63 -2.64,-36.61 8.54,-33.56 7.21,-34.44 4.89,-58.55 4.75,-14.13 4.46,-14.14 38.3,-78.13 4.84,-18.64 3.44,-6.57 6.41,-9.07 2.08,-6.26 0.39,-14.11 2,-6.91 7.12,-8.43 37.28,-72.56 2.53,-9.91 2.75,-34.49 2.76,-9.81 33.52,-72.59 10.21,-18.5 20.37,-24.41 5.19,-9.88 8.92,-35.42"
     style="opacity:1;fill:none;fill-rule:nonzero;stroke:#58b947;stroke-width:5;stroke-linecap:butt;stroke-linejoin:round;stroke-miterlimit:4;stroke-dasharray:none;stroke-opacity:1" />
  <text
     x="-425.55"
     y="-643.04"
     id="text3818"
     xml:space="preserve"
     style="font-style:normal;font-weight:normal;font-size:144px;line-height:125%;font-family:Sans;-inkscape-font-specification:Sans;letter-spacing:0px;word-spacing:0px;fill:#000000;fill-opacity:1;stroke:none"><tspan
       x="-425.55"
       y="-643.04"
       id="tspan1">2020</tspan></text>
  <path
     style="fill:none;stroke:#58b947;stroke-width:5;stroke-linejoin:round;stroke-miterlimit:4;stroke-dasharray:none;stroke-opacity:1"
     d="m 825.91,-433.44 20.29,-92.89 0.68,-10.92 0.86,-43.15 -1.05,-13.89 -7.29,-40.97 0.42,-7.27 3.34,-23.89 2.33,-20.03 2.73,-9.92 4.63,-7.38 15.18,-18.06 7.08,-3.6 8.82,-0.61 6.25,2.68 14.9,9.29"
     id="path838" />
  <path
     style="fill:none;stroke:#000000;stroke-width:5;stroke-linejoin:round"
     d="m -401,-296.62 139.21,96.57"
     id="path1" />
  <path
     style="fill:none;stroke:#000000;stroke-width:5;stroke-linejoin:round"
     d="m 3043.94,1908.22 -1.25,-45.36 -4.01,-27.57 -7.77,-19.55 -16.04,-32.08 -4.26,-15.54 -12.78,-64.66"
     id="path3" />
  <path
     style="fill:none;stroke:#f39100;stroke-width:5;stroke-linejoin:round;stroke-opacity:1"
     d="m 311.09,837.04 29.21,21.59 106.64,80.92 40.13,29.49 22.61,11.97 144.99,71.61 30.15,17.96 13.3,11.09 43.45,45.89 13.08,9.53 32.81,10.86 45.23,13.52 19.07,6.43 26.38,4.43 13.52,7.76 26.83,29.04 11.97,9.09 22.61,9.09 16.41,1.11 38.35,2.22 23.5,4.66 39.91,15.74 21.06,3.1 61.41,-1.33 24.61,5.1 56.09,18.84 34.81,2.44 18.62,7.09 38.35,20.17 15.74,12.19 21.95,9.75 19.51,6.43 16.85,0.44 48.55,0.89 15.52,4.21 17.74,9.09 33.25,20.4 34.36,15.08 20.17,10.64 33.03,24.39 11.31,11.75 14.63,19.73 10.86,10.64 49.44,34.81 47.44,46.78 13.52,10.86 32.59,20.62 24.61,21.73 13.75,10.2 15.96,6.21 17.07,1.11 13.97,-1.55 9.09,-2 24.61,-12.42 50.8,-26.54 19.8,-3.51 19.8,2.26 25.56,10.28 19.8,2.26 32.83,1 18.04,7.02 24.56,18.04 32.33,18.29 16.04,12.78 13.53,20.55 8.52,7.77 26.82,18.29 7.02,7.02 15.04,20.55 16.04,12.03 32.83,19.8 28.82,14.03 18.55,12.03 29.57,12.28 59.65,28.57 30.32,8.27 27.82,4.76 25.31,-4.26 31.08,-6.77 16.54,0.75 25.31,8.02 22.55,8.27 26.56,13.28 49.12,11.28 38.34,5.51 32.08,10.78 126.06,9.02 17.79,5.51 25.56,14.03 15.54,4.26 20.8,-0.75 28.57,-5.76 17.79,0.5 32.83,13.03 19.3,11.28 16.29,13.03 67.41,59.65 25.08,15.95 69.95,36.97 22.75,13.93 11.94,11.66 109.19,105.21 13.36,9.1 17.35,8.53 114.31,35.54 16.21,12.23 42.65,30.71 12.23,5.69 26.73,6.26 56.84,10.84 59.11,15.68 29.36,14.48 48.66,31.37 10.86,11.66 7.64,14.88 29.36,69.97 9.65,14.88 16.89,12.87 15.28,6.43 31.77,12.47 14.07,13.67 15.28,24.53 14.48,34.18 3.62,12.87 2.81,32.98 7.24,16.49 7.24,12.47 15.68,18.5 3.62,10.86 2.41,16.09 3.62,30.56 5.63,18.1 17.29,29.36 4.83,16.49 4.02,23.32 -0.4,20.51 -5.63,20.91 -30.96,58.31 -5.3,26.03 -0.28,21.04 0.28,49.48 16.21,185.11 0.57,30.99 -3.41,35.54 -9.1,41.52 -34.69,138.48 -3.13,31.28 1.14,28.15 4.27,26.44 8.81,26.16 18.2,35.83 148.72,309.66 21.9,36.4 13.36,19.34 168.91,208.15 14.22,20.47 5.69,13.08 17.63,48.91"
     id="path2" />
  <path
     style="fill:none;stroke:#000000;stroke-width:5;stroke-linejoin:round"
     d="m 4132.75,2083.67 49.76,45.78"
     id="path4" />
  <path
     style="fill:none;stroke:#000000;stroke-width:5;stroke-linejoin:round"
     d="m 3968.68,2552.85 2.84,-87.3"
     id="path5" />

  <text
     style="font-style:normal;font-weight:normal;font-size:12px;line-height:125%;font-family:Sans;-inkscape-font-specification:Sans;letter-spacing:0px;word-spacing:0px;fill:#000000;fill-opacity:1;stroke:none"
     xml:space="preserve"
     id="text3809-2"
     y="4247.96"
     x="-425.55"><tspan
       style="font-size:144px"
       id="tspan2"
       y="4247.96"
       x="-425.55">2020</tspan></text>
</svg>
