<?xml version="1.0" encoding="UTF-8" standalone="no"?>
<svg
   viewBox="0 0 2900 1450"
   height="1450"
   width="2900"
   id="svg2"
   version="1.1"
   xmlns:xlink="http://www.w3.org/1999/xlink"
   xmlns="http://www.w3.org/2000/svg"
   xmlns:svg="http://www.w3.org/2000/svg"
   xmlns:rdf="http://www.w3.org/1999/02/22-rdf-syntax-ns#"
   xmlns:cc="http://creativecommons.org/ns#"
   xmlns:dc="http://purl.org/dc/elements/1.1/">
  <metadata
     id="metadata8">
    <rdf:RDF>
      <cc:Work
         rdf:about="">
        <dc:format>image/svg+xml</dc:format>
        <dc:type
           rdf:resource="http://purl.org/dc/dcmitype/StillImage" />
      </cc:Work>
    </rdf:RDF>
  </metadata>
  <defs
     id="defs6" />
  <image
     xlink:href="../basemap/gneosm.png"
     width="3182.5"
     height="2121.67"
     preserveAspectRatio="none"
     id="image10"
     x="-270"
     y="-146.67"
     style="display:none" />
  <path
     style="fill:none;stroke:#989fc1;stroke-width:5;stroke-linejoin:round;stroke-opacity:1"
     d="m 109.71,1205.47 32.62,10.76 10.41,5.9 26.37,17 106.18,37.82 32.96,3.47 22.21,-4.16 31.92,-13.53 20.13,-3.12 23.6,3.47 18.74,9.72 45.11,37.13 19.78,6.94 18.74,-1.39 14.57,-7.29 11.8,-11.8 37.82,-63.15 4.16,-15.96 -1.73,-18.74 -7.98,-18.74 -16.66,-22.55 -117.98,-163.44 -10.06,-27.41 -7.98,-29.15 -4.86,-22.9 -1.73,-23.94 -3.82,-53.78 -4.86,-34.01 0.69,-23.6 41.99,-133.25 12.14,-30.19 21.51,-21.51 20.13,-11.45 24.98,-6.25 26.72,-2.78 28.45,4.51 27.76,13.19 150.6,95.42 39.56,16.66 38.17,8.33 43.03,1.04 37.82,-6.25 37.82,-11.8 369.9,-130.47 285.93,-98.89 1093.05,-303.97 24.64,-12.14 64.89,-46.15"
     id="path1" />
  <text
     style="font-style:normal;font-weight:normal;font-size:144px;line-height:125%;font-family:Sans;-inkscape-font-specification:Sans;letter-spacing:0px;word-spacing:0px;fill:#000000;fill-opacity:1;stroke:none"
     xml:space="preserve"
     id="text3791-5"
     y="206.96"
     x="89.45"><tspan
       id="tspan1"
       y="206.96"
       x="89.45">2025</tspan></text>
</svg>
