<?xml version="1.0" encoding="UTF-8" standalone="no"?>
<svg
   viewBox="-3315 -2400 5900 6500"
   height="6500"
   width="5900"
   version="1.1"
   id="svg2"
   xmlns:xlink="http://www.w3.org/1999/xlink"
   xmlns="http://www.w3.org/2000/svg"
   xmlns:svg="http://www.w3.org/2000/svg"
   xmlns:rdf="http://www.w3.org/1999/02/22-rdf-syntax-ns#"
   xmlns:cc="http://creativecommons.org/ns#"
   xmlns:dc="http://purl.org/dc/elements/1.1/">
  <metadata
     id="metadata8">
    <rdf:RDF>
      <cc:Work
         rdf:about="">
        <dc:format>image/svg+xml</dc:format>
        <dc:type
           rdf:resource="http://purl.org/dc/dcmitype/StillImage" />
      </cc:Work>
    </rdf:RDF>
  </metadata>
  <defs
     id="defs6" />
  <image
     xlink:href="../basemap/manosm.png"
     style="display:none"
     y="-2374"
     x="-3362.75"
     id="image10"
     preserveAspectRatio="none"
     height="8030"
     width="6022.5" />
  <path
     id="path4138"
     d="m 82.21,3585.89 24.84,-73.73 11.25,-42.3 9.31,-50.45 8.93,-33.76 19.79,-43.07 34.15,-58.6 86.53,-150.17 35.7,-61.31 17.07,-31.04 22.51,-35.31 17.85,-24.06 30.27,-33.76 10.09,-16.69 13.19,-27.16 7.76,-25.22 5.82,-35.31 20.18,-102.83 7.76,-24.06 10.48,-21.34 19.4,-28.33 19.4,-22.12 22.12,-14.36 26.39,-14.36 26.78,-18.24 25.22,-21.34 27.94,-29.88 23.67,-32.98 32.02,-44.44 16.64,-16.16 21.69,-18.16 26.42,-17.52 11.49,-14.47 8.02,-20.99 -0.79,-15.32 2.47,-12.43 12.42,-13.97 11.25,-15.91 11.64,-13.97 5.43,-10.09 10.87,-17.46 10.48,-11.25 19.79,-11.25 16.3,-7.37 18.63,-8.54 20.57,-5.04 18.24,2.33 27.94,4.66 16.69,0.78 24.06,-19.79 6.21,-8.54"
     style="fill:none;fill-rule:evenodd;stroke:#e9b600;stroke-width:5;stroke-linecap:butt;stroke-linejoin:round;stroke-miterlimit:4;stroke-dasharray:none;stroke-opacity:1" />
  <path
     id="path1454"
     d="m 1274.68,3207.55 -35.7,-16.3 -34.92,-21.73 -29.49,-26.39 -20.18,-23.28 -24.45,-35.7 -11.64,-21.34 -15.13,-36.86 -12.42,-35.7 -13.97,-23.67 -20.57,-24.84 -17.07,-13.19 -186.65,-117.19"
     style="fill:none;fill-rule:evenodd;stroke:#e9b600;stroke-width:5;stroke-linecap:butt;stroke-linejoin:round;stroke-miterlimit:4;stroke-dasharray:none;stroke-opacity:1" />
  <path
     id="path4142"
     d="m 542.82,462.89 -14.75,33.37 -7.37,7.76 -27.55,11.25 -11.25,9.31 -15.52,18.63 -34.54,39.97 -15.52,28.72 -13.58,34.15 -4.66,32.98 -3.88,32.98 -4.66,19.4 -8.54,24.06 -6.98,13.19 -23.28,35.7 -18.63,28.33 -9.31,29.88 -1.16,24.84 6.21,26 11.25,21.34 15.52,25.22 17.46,18.63 26.39,20.18 18.63,11.25 65.58,26.78 75.67,32.21 12.03,10.48 15.91,16.69 13.19,23.67 43.85,92.36 5.43,16.3 3.49,22.12 2.33,39.19 5.43,20.18 11.64,24.06 13.97,17.07 19.79,14.75 22.89,11.25 21.73,5.82 29.1,0.78 26.39,2.72 34.54,12.42 52,22.12 37.25,21.73 36.09,28.72 37.25,22.51 17.85,14.36 12.03,18.24 10.87,22.12 17.85,67.13 7.76,29.1 11.25,22.12 13.19,17.85 10.87,9.7 15.13,15.13 9.7,19.01 13.97,30.66 17.07,24.45 11.64,14.75 10.48,22.89 8.93,24.84 0.82,22.5 -0.63,51.68 5.08,20.4 -1.96,20.92 -7,15.15 -13.76,11.98 -17.86,5.83 -25.78,6.8 -49.11,21.3 -19.79,9.7 -12.42,16.3 -2.72,4.66 1.55,3.1 4.95,10.92"
     style="fill:none;fill-rule:evenodd;stroke:#e9b600;stroke-width:5;stroke-linecap:butt;stroke-linejoin:round;stroke-miterlimit:4;stroke-dasharray:none;stroke-opacity:1" />
  <path
     id="path4163"
     d="m 2081.43,1232.39 -1.16,23.28 -2.72,2.72 -3.49,-0.39 -21.73,-5.43 -7.76,0.39 -13.97,4.27 -29.88,17.85 -16.3,17.46 -12.42,18.63 -8.15,21.34 -7.37,43.85 -3.49,18.24 -12.81,28.72 -7.37,17.46 -4.27,19.01 0.39,36.86 -2.72,22.89 -17.07,35.7 -7.76,9.7 -41.52,42.69 -90.42,86.92 -20.18,19.79 -29.1,22.89 -39.19,23.28 -29.1,13.19 -40.36,12.03 -114.09,27.94 -20.95,11.25 -19.79,4.66 -38.8,9.31 -27.94,2.72 -128.83,1.55 -24.45,1.55 -29.49,11.64 -8.73,11.23 -7.4,15.75"
     style="fill:none;fill-rule:evenodd;stroke:#e9b600;stroke-width:5;stroke-linecap:butt;stroke-linejoin:round;stroke-miterlimit:4;stroke-dasharray:none;stroke-opacity:1" />
  <path
     id="path4169"
     d="m 1838.51,53.88 -12.81,4.27 v 3.49 l 14.36,11.64 12.03,18.63 2.72,10.09 -3.49,10.09 -9.31,10.09 3.1,29.1 5.04,7.76 h 5.04"
     style="fill:none;fill-rule:evenodd;stroke:#e9b600;stroke-width:1;stroke-linecap:butt;stroke-linejoin:round;stroke-miterlimit:4;stroke-dasharray:none;stroke-opacity:1" />
  <path
     id="path4173"
     d="m 784.57,2354.62 -12.38,11.17 -14.27,6.31 -15.09,11.25 -28.81,11.25 -7.41,0.27 -17.56,-20.03"
     style="fill:none;fill-rule:evenodd;stroke:#e9b600;stroke-width:5;stroke-linecap:butt;stroke-linejoin:round;stroke-miterlimit:4;stroke-dasharray:none;stroke-opacity:1" />
  <path
     id="path4175"
     d="m 690.43,2375.39 -6.04,-2.2 -5.21,-0.27 -3.57,-3.02 4.94,-34.85 -3.57,-4.66 -10.98,-2.2 -3.29,-2.47 -0.82,-4.39 1.92,-13.99 -6.59,-20.03 -9.88,-4.12 -1.37,-3.84 2.74,-11.25 -3.02,-13.72 -5.21,-8.51 -4.39,-2.2 -11.52,4.12 -10.15,4.39 -40.34,12.07 -7.68,4.12 -6.59,5.76 -7.41,7.68 -5.21,3.02 -8.51,3.29"
     style="fill:none;fill-rule:evenodd;stroke:#e9b600;stroke-width:1;stroke-linecap:butt;stroke-linejoin:round;stroke-miterlimit:4;stroke-dasharray:none;stroke-opacity:1" />
  <path
     id="path4177"
     d="m 577.65,2262.89 -7.68,-1.92 -18.38,-37.32 -0.82,-8.78 10.15,-52.41 -2.2,-4.39 -15.91,-3.57 -5.21,-3.02 -70.52,-15.91 -9.05,-4.39 -20.85,-4.39 h -12.07 l -49.12,-13.72 -23.05,-5.21 -45,-3.29 -24.7,-1.1 -4.66,1.37"
     style="fill:none;fill-rule:evenodd;stroke:#e9b600;stroke-width:1;stroke-linecap:butt;stroke-linejoin:round;stroke-miterlimit:4;stroke-dasharray:none;stroke-opacity:1" />
  <path
     id="path4179"
     d="m 195.98,2119.38 22.77,-4.94 8.23,-3.57 18.38,-5.21 11.8,-1.65 23.6,0.55"
     style="fill:none;fill-rule:evenodd;stroke:#e9b600;stroke-width:5;stroke-linecap:butt;stroke-linejoin:round;stroke-miterlimit:4;stroke-dasharray:none;stroke-opacity:1" />
  <path
     id="path4183"
     d="m 1312.73,2120.61 16.76,-14.12 17.29,-6.86 14.82,-11.52 7.13,-1.37 67.23,-5.76 17.29,1.1 6.31,3.84 2.74,9.05 13.99,35.4 2.74,2.47"
     style="fill:none;fill-rule:evenodd;stroke:#e9b600;stroke-width:5;stroke-linecap:butt;stroke-linejoin:round;stroke-miterlimit:4;stroke-dasharray:none;stroke-opacity:1" />
  <path
     id="path4185"
     d="m 1478.48,2132.01 4.39,2.47 47.47,-18.11 4.94,1.1 6.31,4.12 13.45,-3.29 26.62,5.76 21.95,-2.47 87.26,18.93 48.29,10.7 25.79,3.84 63.66,8.78 7.68,2.74 75.18,8.78 15.91,-3.29 15.09,3.84 106.19,13.72 5.76,3.02 18.93,1.92 27.16,-13.72 4.39,-5.49 13.45,-7.41 3.57,-5.76 12.9,-35.4 13.99,-25.52 8.51,-7.13 13.99,-21.4 13.17,-9.6 19.48,-7.96 8.23,-4.39 3.84,-7.13 0.27,-10.7 13.99,-15.37 19.21,-9.05 17.84,-0.27 28.26,-1.92 22.77,-3.02 6.04,3.29 4.39,3.29 6.86,0.27 31.83,-5.21"
     style="fill:none;fill-rule:evenodd;stroke:#e9b600;stroke-width:1;stroke-linecap:butt;stroke-linejoin:round;stroke-miterlimit:4;stroke-dasharray:none;stroke-opacity:1" />
  <path
     id="path4189"
     d="m 845.73,2843.23 12.35,-15.91 -0.27,-7.41 -5.32,-8.55 -47.73,-29.49 -27.16,-20.95 -16.3,-20.18 -15.13,-26.39 -10.48,-24.45 -6.98,-34.15 -31.43,-171.91 1.36,-14.17"
     style="fill:none;fill-rule:evenodd;stroke:#e9b600;stroke-width:5;stroke-linecap:butt;stroke-linejoin:round;stroke-miterlimit:4;stroke-dasharray:none;stroke-opacity:1" />
  <path
     id="path4191"
     d="m 846.01,2842.68 -0.82,5.21 -16.74,21.68 -7.41,7.77 -17.56,9.24 -89.73,41.16 -23.31,6.74 -42,6.98 -34.57,8.98 -15.64,11.32 -9.05,6.59 -3.29,6.04 -0.27,18.11 1.1,8.23 9.88,30.73 12.62,24.15 19.76,33.2 6.59,6.04 28.39,17.28 3.5,6.52 -0.57,5.85 -4.96,10.33 -11.5,14.93 -13.26,9.66 -8.74,6.77 -9.6,9.05 -32.65,22.5 -20.58,22.5 -21.68,29.09 -3.84,7.68 1.37,4.12 11.52,7.68 2.2,3.84 1.63,5.43 -0.49,9.44 4.08,27.93 1.65,27.71 5.21,24.42 -0.55,24.7 3.57,5.21 6.59,10.15 3.29,7.13 0.82,13.99 1.84,11.62 3.87,11.9 9.65,19.56 23.6,41.16 4.66,2.47 18.11,-6.04 21.95,-2.2 14.82,1.92 20.58,6.86 26.07,15.37 21.95,9.6 23.87,9.33 2.47,2.2 24.7,3.57 29.36,3.57 28.54,0.82 50.76,8.51 7.13,4.12 1.65,3.84 1.65,6.04 0.55,32.38 -2.74,46.1 -1.65,4.12 -4.12,1.92 -18.38,-0.27 -12.62,4.12 -27.71,13.45 -2.47,2.74 -6.31,28.81 -3.29,4.39 0.55,2.74 20.85,14.54 20.3,9.88 15.09,6.59 35.12,10.43 9.33,6.59 26.07,20.85 13.99,11.25 1.65,4.39 -14.82,22.77 -13.45,33.2 -4.94,21.13 -1.37,26.34 -1.1,10.43 -3.57,2.74 -13.72,0.27 -27.44,-4.94 -68.24,-15.26 -7.44,0.61 -22.51,11.56 -39.27,8.29"
     style="fill:none;fill-rule:evenodd;stroke:#e9b600;stroke-width:1;stroke-linecap:butt;stroke-linejoin:round;stroke-miterlimit:4;stroke-dasharray:none;stroke-opacity:1" />
  <path
     id="path4223"
     d="m 1046.89,2037.58 -25.22,14.75 -71.01,43.07 -17.85,19.4 -15.91,10.87 -27.94,17.07 -23.67,6.6 -36.48,0.78 -31.43,-8.54 -28.72,-11.25 -17.46,-13.97 -8.54,-15.91 -5.43,-41.13 -7.69,-35.73 -16.97,-29.98 -18.1,-20.08 -56.57,-48.93 -25.74,-26.02 -20.08,-30.27 -13.58,-28.29 -34.51,-94.19 -11.31,-27.15 -15.27,-26.87 -18.1,-26.31 -20.93,-24.33 -41.01,-63.92 -24.61,-35.07 -17.25,-19.52 -11.6,-9.9 -18.67,-14.43 -20.93,-13.29 -193.19,-97.58 -70.43,-25.74 -27.44,-16.41 -39.32,-27.72 -84.86,-60.81 -99,-80.05 -65.34,-55.16 -56.85,-37.62 -106.07,-80.9 -82.31,-60.25 -31.11,-29.42 -27.72,-31.68 -24.61,-35.92 -13.58,-23.19 -53.74,-102.11 -12.46,-15.26 -19.52,-7.64 -66.47,-5.66 -50.07,0.28 -24.89,6.22 -46.67,17.54 -35.36,7.07 -31.11,3.39 -28.29,-0.28 -46.67,-5.66 -35.36,-11.03 -50.63,-15.56 -33.94,-3.11 -30.55,1.41 -31.4,5.94 -39.88,13.58 -37.05,21.5 -27.44,15.56 -34.23,12.73 -38.47,7.07 -36.77,1.7 -54.59,-9.62 -64.49,-18.1 -50.63,-21.5 -82.59,-42.99 -168.58,-94.76 -40.73,-29.42 -72.13,-67.32 -63.64,-75.52 -47.8,-65.62 -37.34,-44.69 -51.76,-55.44 -134.07,-131.25 -18.39,-27.15 -19.8,-37.9 -11.03,-35.36 -6.22,-35.36 -0.57,-36.77 7.64,-61.38 -3.96,-49.22 -15.27,-79.2 -10.18,-33.09 -17.25,-37.34 -26.31,-37.9 -25.46,-25.46 -26.59,-29.98 -20.37,-29.13 -11.6,-26.31 -9.62,-32.81 -4.81,-36.49 v -27.72 l 7.92,-52.61 -4.53,-30.27 -14.14,-27.72 -15.27,-19.8 -63.64,-52.33 -34.23,-18.1 -46.67,-13.29 -194.61,-40.45 -31.96,-9.33 -27.15,-17.25 -18.67,-18.1 -11.88,-19.52 -24.33,-87.97 -211.17,-786.02 -5.6,-37.2 -28,-242.41 -8.39,-37.22 -1.7,-32.25 -4.53,-16.97 -11.6,-16.97 -30.83,-34.51 -12.73,-7.92 -22.63,-8.2 -23.19,-11.88 -46.95,-50.91 -27.44,-24.33 -32.81,-19.23 -167.45,-77.79 -35.07,-9.62 -31.68,-3.68 -131.53,2.83 -58.83,-2.55 -39.6,-7.07 -80.9,-16.97 -409.01,-117.1 -114.56,-18.67 -153.59,-23.76 -44.41,1.41 -68.73,8.77 -57.14,-1.41 -41.58,-5.94 -31.96,-7.92 -157.55,-51.2 -172.26,-57.14 -47.24,-21.78 -45.82,-27.15 -31.4,-24.61 -29.13,-27.44 -25.17,-33.66 -17.82,-33.94 -67.89,-207.05 -34.23,-75.81 -107.77,-218.65 -18.67,-27.44 -56.57,-76.65 -23.48,-21.21 -33.94,-20.37 -23.76,-11.6 -17.25,-3.96 -43.56,-0.28 -24.61,3.39 -28.57,11.6 -33.38,19.23 -125.59,76.65 -26.02,21.78 -212.14,214.97 -11.88,17.25 -22.06,44.13"
     style="fill:none;fill-rule:evenodd;stroke:#7b2181;stroke-width:5;stroke-linecap:butt;stroke-linejoin:round;stroke-miterlimit:4;stroke-dasharray:none;stroke-opacity:1" />
  <path
     id="path4225"
     d="m 1052.63,2067.52 -0.3,6.15 -14.75,30.66"
     style="fill:none;fill-rule:evenodd;stroke:#e9b600;stroke-width:1;stroke-linecap:butt;stroke-linejoin:round;stroke-miterlimit:4;stroke-dasharray:none;stroke-opacity:1" />
  <text
     id="text4227"
     y="3970.41"
     x="78.57"
     style="font-style:normal;font-weight:normal;font-size:139.7px;line-height:125%;font-family:Sans;-inkscape-font-specification:Sans;letter-spacing:0px;word-spacing:0px;fill:#000000;fill-opacity:1;stroke:#e9b600;stroke-width:1;stroke-linecap:butt;stroke-linejoin:round;stroke-miterlimit:4;stroke-dasharray:none;stroke-opacity:1"
     xml:space="preserve" />
  <text
     x="-3225.55"
     y="-2193.04"
     id="text2997"
     xml:space="preserve"
     style="font-style:normal;font-weight:normal;font-size:144px;line-height:125%;font-family:Sans;-inkscape-font-specification:Sans;letter-spacing:0px;word-spacing:0px;fill:#000000;fill-opacity:1;stroke:none"><tspan
       x="-3225.55"
       y="-2193.04"
       id="tspan1">2015</tspan></text>
  <path
     id="path1447"
     d="m 1075.01,2150.88 7.25,-8.58 -0.54,-3.15"
     style="fill:none;fill-rule:evenodd;stroke:#e9b600;stroke-width:1;stroke-linecap:butt;stroke-linejoin:round;stroke-miterlimit:4;stroke-dasharray:none;stroke-opacity:1" />
  <path
     id="path4561-3"
     d="m 1051.82,2065.97 4.1,5.4 11.8,5.49 4.39,6.86 5.21,9.6 v 8.23 l -7.96,27.16 1.37,5.49 10.98,4.95 4.26,2.28 0.27,1.6 -4.81,6.81 0.38,2.63"
     style="fill:none;fill-rule:evenodd;stroke:#e9b600;stroke-width:1;stroke-linecap:butt;stroke-linejoin:round;stroke-miterlimit:4;stroke-dasharray:none;stroke-opacity:1" />
  <path
     id="path1475"
     d="m 1014.21,2221.18 16.19,-20.85 44.61,-49.45 4.16,-0.29 17.91,14.9 6.04,2.74 18.11,22.5 11.59,5.82 5.43,10.1 13.45,4.66 6.78,-0.4"
     style="fill:none;fill-rule:evenodd;stroke:#e9b600;stroke-width:1;stroke-linecap:butt;stroke-linejoin:round;stroke-miterlimit:4;stroke-dasharray:none;stroke-opacity:1" />
  <path
     style="fill:none;fill-rule:evenodd;stroke:#e9b600;stroke-width:1;stroke-linecap:butt;stroke-linejoin:round;stroke-miterlimit:4;stroke-dasharray:none;stroke-opacity:1"
     d="m 1158.46,2210.91 5.08,-0.95 13.94,-4.41 31.55,-20.58 8.8,-9.76 38.95,-30.85 12.07,-5.49 7.13,-6.04 33.65,-9.39 4.12,-4.08"
     id="path4565" />
  <path
     style="fill:none;fill-rule:evenodd;stroke:#e9b600;stroke-width:1;stroke-linecap:butt;stroke-linejoin:round;stroke-miterlimit:4;stroke-dasharray:none;stroke-opacity:1"
     d="m 2082.21,1233.16 1.55,-15.13 12.81,-11.64 8.15,0.39 17.85,5.82 4.66,10.48 4.66,14.75 5.82,5.04 47.34,8.15 12.81,-0.78 57.43,-17.85 27.55,-8.54 18.63,-12.03 3.23,-1.28"
     id="path4165-3" />
  <path
     style="fill:none;fill-rule:evenodd;stroke:#e9b600;stroke-width:5;stroke-linecap:butt;stroke-linejoin:round;stroke-miterlimit:4;stroke-dasharray:none;stroke-opacity:1"
     d="m 1854.03,159.82 83.43,-49.67 15.13,-7.37 19.79,-1.16 18.63,3.88 188.59,61.7 28.33,10.09 22.51,15.13 13.19,13.19 22.12,32.98 24.84,32.98 19.01,15.13 24.84,10.87 31.04,3.1 27.55,7.76 22.12,12.81 21.34,24.06 11.64,27.16 5.82,31.04 -1.16,20.57 -8.15,54.71 -5.43,17.46 -7.37,22.12 v 21.34 l 9.7,26.78 2.72,12.03 -4.66,75.28 -0.39,27.94 3.88,83.04 -2.72,22.12 -5.43,22.51 -13.97,34.15 -27.94,84.59 -19.79,35.7 -17.46,22.12 -19.79,29.1 -6.98,23.28 -2.33,21.73 1.55,24.84 6.21,74.12 -0.39,27.55 -1.58,7.24 -4.6,4.92 -11.29,6.86 -11.89,4.92"
     id="path4167-6" />
  <path
     style="fill:none;fill-rule:nonzero;stroke:#7b2181;stroke-width:5;stroke-linecap:butt;stroke-linejoin:round;stroke-miterlimit:4;stroke-dasharray:none;stroke-opacity:1"
     d="m 742.66,2100.45 11.36,27.84 30.27,41.72 12.87,10.47 26.31,7.64 29.42,1.13 16.97,3.82 10.32,6.08 8.2,12.02 13.01,15.7 31.12,15.85 17.99,10.19 6.82,2.09 8.02,1.6 71.88,4.8 14.72,0.87 17.85,-4.66 86.53,-31.82 17.85,-4.66"
     id="path2088" />
  <path
     style="fill:none;stroke:#7b2181;stroke-width:5;stroke-linejoin:round;stroke-opacity:1"
     d="m 1768.77,3314.61 -5.09,-23.76 -9.05,-18.39 -138.03,-283.71 -96.45,-196.59 -9.05,-27.15 -44.42,-173.2"
     id="path1" />
  <path
     style="fill:none;stroke:#7b2181;stroke-width:5;stroke-linejoin:round;stroke-opacity:1"
     d="m 1174.17,2221.13 17.38,2.42 14.98,6.71 58.07,40.12 51.31,42.36 43.16,46.71 37.92,52.71 29.92,53.56 20.98,51.42 9.73,33.4 9.04,41.27"
     id="path2" />
  <path
     id="path876"
     style="fill:none;stroke:#f79422;stroke-width:1;stroke-linejoin:round;stroke-dasharray:none;stroke-opacity:1"
     d="m -2309.97,3565.59 -4.95,-3.01 -4.27,-4.1 -6.15,-1.02 -5.64,1.71 -3.07,3.93 -2.99,5.5 m -224.55,27.59 5.88,-7.47 3.24,-11.44 3.24,-2.9 4.78,0.17 2.9,2.05 9.31,1.01 m -813.05,285.27 5.97,-14.2 v -7.91 l -2.96,-4.28 0.33,-3.95 11.2,-5.6 9.22,1.65 49.42,-18.77 20.75,0.99 2.31,1.65 3.95,-2.64 11.2,-4.28 19.76,-12.52 21.74,-6.26 11.2,-7.91 24.7,-18.45 25.69,-8.56 34.6,-7.91 35.91,-0.66 62.26,12.52 18.45,2.64 24.37,-2.31 16.8,-3.95 51.06,-52.38 11.2,-7.91 57.65,-24.7 51.06,-18.12 34.27,1.32 48.43,-17.46 29.32,-7.58 24.05,0.66 6.92,-5.27 14.82,-15.15 14.82,-4.94 28,-2.31 10.44,-4.29 24.14,-16.44 114.98,-8.26 51.06,7.58 29.14,-8.32 13.53,3.28 13.53,-6.28 100.94,1.77 7.91,-1.65 1.98,-1.65 -5,-26.89 1.7,-2.86 23.35,-3.91 2.46,-3.83 9.78,-2.19" />
  <text
     style="font-style:normal;font-weight:normal;font-size:144px;font-family:Sans;-inkscape-font-specification:Sans;fill:#000000;fill-opacity:1;stroke:none"
     xml:space="preserve"
     id="text3652-1"
     y="3997.95"
     x="2162.45"><tspan
       id="tspan2"
       y="3997.95"
       x="2162.45"></tspan></text>
</svg>
