<?xml version="1.0" encoding="UTF-8" standalone="no"?>
<!-- Created with Inkscape (http://www.inkscape.org/) -->

<svg
   version="1.1"
   id="svg1"
   width="2500"
   height="1750"
   viewBox="0 0 2500 1750"
   xmlns:xlink="http://www.w3.org/1999/xlink"
   xmlns="http://www.w3.org/2000/svg"
   xmlns:svg="http://www.w3.org/2000/svg">
  <defs
     id="defs1" />
  <g
     id="g1">
    <image
       width="3106"
       height="3727.2"
       preserveAspectRatio="none"
       xlink:href="../basemap/amdosm.png"
       id="image1"
       x="-150"
       y="-1800"
       style="display:none" />
    <path
       style="fill:none;stroke:#00b0f0;stroke-width:5;stroke-linejoin:round;stroke-opacity:1"
       d="m 117.38,828.81 18.64,-4.61 33.08,-0.63 13.82,6.28 16.75,-0.63 27.64,2.93 8.79,3.14 52.56,-2.3 20.31,5.44 20.73,7.75 12.77,7.54 57.58,12.35 29.52,15.91 9.21,6.28 49,6.28 100.09,-1.05 13.19,4.4 16.54,7.54 60.51,12.14 13.82,7.75 34.97,24.08 32.04,15.49 28.27,17.8 9.21,2.72 40.41,-2.72 73.7,5.23 11.93,3.35 26.38,25.54 11.73,3.98 36.43,5.03 32.45,-5.65 63.23,-3.56 9.21,-3.77 12.56,-11.93 14.87,-5.86 9.63,-1.47 47.11,6.07 5.86,3.56 5.23,6.7 58,159.34 7.75,3.56 15.29,-1.26 94.01,-35.39 12.98,-2.09 69.31,1.26 11.31,3.56 8.17,9.84 4.19,12.35 1.68,19.47 0.21,70.77 5.03,10.68 8.17,9.98 8.79,8.03 21.78,13.19 7.12,11.31 2.3,18.64 2.09,77.47 4.4,21.36 6.07,12.98 3.14,3.14 6.7,2.93 95.69,-6.7 57.79,0.63 19.47,5.44 45.23,19.05 17.59,3.35 23.87,3.77 39.36,19.68 20.94,8.38 36.43,9.63 51.51,19.89 13.4,2.51 48.79,-3.77 11.93,3.14 23.45,8.79 21.15,2.72 43.13,11.52 100.71,33.71 68.89,32.04 44.81,10.47 32.04,8.79 25.75,12.98"
       id="path1" />
    <path
       style="fill:none;stroke:#ff0000;stroke-width:5;stroke-linejoin:round"
       d="m 550.31,1640.53 -35.24,-86.76 -35.24,-73.44 -1.18,-10.36 4.15,-8.29 9.18,-7.11 71.96,-8 22.8,-4.15 146.28,-57.15 206.69,-82.62 27.54,-12.44 11.55,-9.77 9.77,-15.1 6.22,-17.47 1.18,-20.73 0.89,-89.43 -5.03,-24.28 -60.11,-259.69 -45.31,-193.36 -2.07,-23.99 2.37,-19.54 6.22,-18.66 9.48,-25.47 8,-8 12.14,-3.85 181.81,-2.37 18.95,-3.26 40.57,-10.96 17.47,-9.18 46.19,-5.92 42.94,-3.55 19.54,-10.66 8.88,-16.58 64.55,-83.8 4.74,-11.25 -0.3,-11.84 -5.33,-10.66 -14.81,-25.76 -31.68,-105.12 -1.48,-10.36 3.85,-10.96 35.83,-57.45 39.68,-65.96"
       id="path2" />
    <text
       x="89.45"
       y="206.96"
       id="text3652"
       xml:space="preserve"
       style="font-style:normal;font-weight:normal;font-size:144px;font-family:Sans;-inkscape-font-specification:Sans;fill:#000000;fill-opacity:1;stroke:none"><tspan
         x="89.45"
         y="206.96"
         id="tspan1">2025</tspan></text>
  </g>
</svg>
