<?xml version="1.0" encoding="UTF-8" standalone="no"?>
<svg
   version="1.1"
   width="4500"
   height="4300"
   viewBox="0 -1350 4500 4300"
   id="svg2"
   xmlns:xlink="http://www.w3.org/1999/xlink"
   xmlns="http://www.w3.org/2000/svg"
   xmlns:svg="http://www.w3.org/2000/svg"
   xmlns:rdf="http://www.w3.org/1999/02/22-rdf-syntax-ns#"
   xmlns:cc="http://creativecommons.org/ns#"
   xmlns:dc="http://purl.org/dc/elements/1.1/">
  <metadata
     id="metadata8">
    <rdf:RDF>
      <cc:Work
         rdf:about="">
        <dc:format>image/svg+xml</dc:format>
        <dc:type
           rdf:resource="http://purl.org/dc/dcmitype/StillImage" />
      </cc:Work>
    </rdf:RDF>
  </metadata>
  <defs
     id="defs6" />
  <image
     xlink:href="../basemap/ccsosm.png"
     id="image10"
     height="4645.2"
     width="4977"
     y="-1433.4"
     x="-150"
     style="display:none" />
  <path
     d="m 1424.77,298.27 61.33,4.03 29,-2.02 17.23,-7.71 9.92,-10.17 5.35,-16.11 9.5,-41.5 13.5,-62 5,-19 6.35,-32.61 10.91,-11.96 17.58,-2.34 19.41,6.33 49.75,27.08 52.21,21.64 51.79,11.36 33,3 34,3 23,13 30.5,18.5 17,27 13.5,33 10.5,10.5 23.5,12 45,14.5 224.31,48.05 43.23,9.46 23.16,1.18 23.33,-13.23 18.07,-2.04 61.41,13.04 12.93,11.09 9,14.65 8.49,9.6 89.56,37.65 62.85,14.12 55.67,27.92 52.97,28.08 18.67,6.35 43.54,7.09"
     id="path3778"
     style="fill:none;stroke:#ef1b27;stroke-width:5;stroke-linecap:butt;stroke-linejoin:round;stroke-miterlimit:4;stroke-dasharray:none;stroke-opacity:1" />
  <text
     x="89.45"
     y="-1143.04"
     id="text3790"
     xml:space="preserve"
     style="font-style:normal;font-weight:normal;font-size:144px;line-height:125%;font-family:Sans;-inkscape-font-specification:Sans;letter-spacing:0px;word-spacing:0px;fill:#000000;fill-opacity:1;stroke:none"><tspan
       x="89.45"
       y="-1143.04"
       id="tspan1">1985</tspan></text>
</svg>
