<?xml version="1.0" encoding="UTF-8" standalone="no"?>
<svg
   version="1.1"
   id="svg2"
   width="5800"
   height="4050"
   viewBox="-1175 -25 5800 4050"
   xmlns:xlink="http://www.w3.org/1999/xlink"
   xmlns="http://www.w3.org/2000/svg"
   xmlns:svg="http://www.w3.org/2000/svg"
   xmlns:rdf="http://www.w3.org/1999/02/22-rdf-syntax-ns#"
   xmlns:cc="http://creativecommons.org/ns#"
   xmlns:dc="http://purl.org/dc/elements/1.1/">
  <metadata
     id="metadata8">
    <rdf:RDF>
      <cc:Work
         rdf:about="">
        <dc:format>image/svg+xml</dc:format>
        <dc:type
           rdf:resource="http://purl.org/dc/dcmitype/StillImage" />
      </cc:Work>
    </rdf:RDF>
  </metadata>
  <defs
     id="defs6" />
  <image
     width="6059.45"
     height="4328.18"
     preserveAspectRatio="none"
     xlink:href="../basemap/fraosm.png"
     id="image10"
     x="-1298.45"
     y="-141.77"
     style="display:none" />
  <path
     style="fill:none;fill-rule:evenodd;stroke:#c77db4;stroke-width:5;stroke-linecap:butt;stroke-linejoin:round;stroke-miterlimit:4;stroke-dasharray:none;stroke-opacity:1"
     d="M 3200.87,1939.15 3243,1917.5 l 4.75,-16.62 1.75,-18.38 1,-18.5 -19,-45.5 -17.5,-13.5 -4,-9.5 1.5,-29.5 -15,-47.5 -12,-21.5 -7.5,-38 -2.5,-51 -7,-48.5 -9.12,-30"
     id="path4877" />
  <path
     style="fill:none;fill-rule:evenodd;stroke:#b7282e;stroke-width:5;stroke-linecap:butt;stroke-linejoin:round;stroke-miterlimit:4;stroke-dasharray:none;stroke-opacity:1"
     d="m 2810.69,1235.55 -3.69,-12.55 -2.75,-21.5 3.25,-46.75 3.25,-18.75 0.75,-18.75 7.38,-9.81 12.37,-7.38 13,-0.56 9.94,3.62 10.06,10.38 14.06,11.25 20.38,14.19 34,16.75 16.56,12.31 8.5,13.25 13.75,16.75 22.25,18 12,27 10.31,7.38"
     id="path4971" />
  <text
     x="-1085.55"
     y="181.96"
     id="text2819"
     xml:space="preserve"
     style="font-style:normal;font-weight:normal;font-size:144px;font-family:Sans;-inkscape-font-specification:Sans;fill:#000000;fill-opacity:1;stroke:none"><tspan
       x="-1085.55"
       y="181.96"
       id="tspan1">1970</tspan></text>
  <path
     style="fill:none;fill-rule:evenodd;stroke:#c77db4;stroke-width:1px;stroke-linecap:butt;stroke-linejoin:round;stroke-opacity:1"
     d="m 3158.8,1530.07 -0.55,-10.82 -15.87,-47.42 v -17.68 l -18.68,-60.69 -33.02,-48.79 -11.94,-20.28 -47.15,-65.3 -10.18,-6.38 -3.04,-6.65"
     id="path5178" />
  <path
     id="path5184"
     d="m 3155.49,1531.19 1.83,-11.82 -15.87,-47.54 v -17.55 l -18.68,-60.69 -33.02,-48.79 -11.56,-19.4 -47.21,-65.68 -9.93,-6.11 -6.23,-3.65"
     style="fill:none;fill-rule:evenodd;stroke:#b7282e;stroke-width:1px;stroke-linecap:butt;stroke-linejoin:round;stroke-opacity:1" />
  <path
     id="path4879"
     d="m 3202.86,1943.25 44.39,-23 5,-17.5 2,-21 1,-18.5 -20,-47.5 -17.5,-14.25 -3,-6.25 1.5,-30 -15,-47.5 -12,-21.5 -7.5,-38 -2.5,-51 -7,-48.5 -9.25,-30.5"
     style="fill:none;fill-rule:evenodd;stroke:#00a54f;stroke-width:5;stroke-linecap:butt;stroke-linejoin:round;stroke-miterlimit:4;stroke-dasharray:none;stroke-opacity:1" />
  <path
     id="path5180"
     d="m 3162.79,1528.8 -3.51,-9.76 -15.99,-47.73 0.12,-17.37 -18.8,-61 -33.27,-49.17 -11.56,-19.59 -47.46,-65.8 -9.97,-6.51 -1.54,-7.86 -10.51,-7.32 -10.54,-25.62 -24.01,-19.62 -12.39,-15.13"
     style="fill:none;fill-rule:evenodd;stroke:#00a54f;stroke-width:1px;stroke-linecap:butt;stroke-linejoin:round;stroke-opacity:1" />
  <path
     id="path5194"
     d="m 3019.19,1246.37 -11.31,-7.75 -10.62,-25.75 -23.62,-19.25 -13.75,-16.75"
     style="fill:none;fill-rule:evenodd;stroke:#00a54f;stroke-width:5;stroke-linecap:butt;stroke-linejoin:round;stroke-miterlimit:4;stroke-dasharray:none;stroke-opacity:1" />
  <path
     id="path4883"
     d="m 3240.06,1910.5 2.94,-11.13 1.5,-15.12 1.25,-20 -18.75,-44 -16.5,-12 -5,-11 1,-30.5 -14.5,-46.5 -12,-21.5 -7.5,-38 -2.5,-51 -7,-48.5 -9.38,-30.38"
     style="fill:none;fill-rule:evenodd;stroke:#b7282e;stroke-width:5;stroke-linecap:butt;stroke-linejoin:round;stroke-miterlimit:4;stroke-dasharray:none;stroke-opacity:1" />
  <path
     style="fill:none;fill-rule:evenodd;stroke:#c77db4;stroke-width:1px;stroke-linecap:butt;stroke-linejoin:round;stroke-opacity:1"
     d="m 3202.46,1937.64 -5.41,6.35 -29.14,15.83 -0.84,4.75 11.97,22.41 4.51,2.18 15.88,-7.85 4.19,1.62 7.88,22.94 18.03,29.17 23.69,39.42 19.09,40.66 24.75,49.5 -0.18,4.95 -15.38,17.32 -17.32,9.19 -93.51,82.2 0.88,23.51 -7.42,45.79 -0.18,27.58 -1.59,29.88 -7.42,22.1 -4.07,45.79 2.47,10.61 8.84,13.61 9.02,6.54 27.4,41.54 188.27,141.95 8.31,8.13 3.18,6.89 1.94,11.67 0.53,28.28"
     id="path9165" />
  <path
     id="path9963"
     d="m 3204.27,1942.27 -6.95,2.6 -28.52,15.57 -0.75,4.13 11.06,20.66 -0.99,6.93 -69.28,26.88 -1.17,7.48 -33.38,19.86 -42.25,24.69 -2.94,3.73 -29.88,18.72"
     style="fill:none;fill-rule:evenodd;stroke:#00a54f;stroke-width:1px;stroke-linecap:butt;stroke-linejoin:round;stroke-opacity:1" />
  <path
     id="path5196-2"
     d="m 3136.11,795.97 -16.11,8.53 -31,12.5 -31.75,12 -25.9,22.01 -14.62,19.21"
     style="fill:none;fill-rule:evenodd;stroke:#c77db4;stroke-width:5;stroke-linecap:butt;stroke-linejoin:round;stroke-miterlimit:4;stroke-dasharray:none;stroke-opacity:1" />
  <path
     id="path5369"
     d="m 2891.36,978.63 4.6,-6.36 12.37,-14.14 53.03,-34.29 18.03,-9.9 37.33,-43.71"
     style="fill:none;fill-rule:evenodd;stroke:#c77db4;stroke-width:1px;stroke-linecap:butt;stroke-linejoin:round;stroke-opacity:1" />
  <path
     id="path5190-9"
     d="m 3019.19,1246.37 -11.31,-7.75 -10.62,-25.75 -23.62,-19.25 -13.75,-16.75 -7.38,-12.75 -17.69,-12.81 -11.37,-6.84 -5.75,-10.29 -32,-124.1 v -11.67 l 5.66,-19.8"
     style="fill:none;fill-rule:evenodd;stroke:#c77db4;stroke-width:5;stroke-linecap:butt;stroke-linejoin:round;stroke-miterlimit:4;stroke-dasharray:none;stroke-opacity:1" />
</svg>
