<?xml version="1.0" encoding="UTF-8" standalone="no"?>
<!-- Created with Inkscape (http://www.inkscape.org/) -->

<svg
   version="1.1"
   id="svg1"
   width="1950"
   height="3850"
   viewBox="0 0 1950 3850"
   xmlns:xlink="http://www.w3.org/1999/xlink"
   xmlns="http://www.w3.org/2000/svg"
   xmlns:svg="http://www.w3.org/2000/svg">
  <defs
     id="defs1" />
  <image
     width="2017"
     height="4322.14"
     preserveAspectRatio="none"
     xlink:href="../basemap/whaosm.png"
     id="image1"
     x="-90"
     y="-200"
     style="display:none" />
  <path
     style="fill:none;stroke:#e00910;stroke-width:5;stroke-linejoin:round;stroke-opacity:1"
     d="m 731.03,131.6 -20.68,16.23 -80.61,88.2 -9.16,16.23 -31.41,96.84 -32.72,212.26 -3.14,8.11 -6.54,6.02 -10.99,1.83 -64.91,-6.54 -6.28,1.83 -3.14,3.93 -3.4,6.8 -9.68,68.83 -4.19,7.07 -9.68,4.71 -57.58,11.52 -35.59,1.05 -6.54,2.09 -3.93,3.93 -2.88,6.02 -8.9,76.42 18.84,97.36 39.26,199.96 -0.79,10.47 -4.97,9.42 -12.04,9.16 -104.17,36.64 -4.71,4.71 -3.4,7.85 -1.05,23.29 -6.8,36.64 -4.71,57.58 1.57,21.46 -0.52,19.89 -9.95,32.98 -20.41,198.65 v 19.89 l 9.42,172.21 13.09,252.3 7.85,152.58 -1.83,12.04 -2.62,11.78 -37.16,79.3 -7.07,9.42 -31.67,30.88 -3.14,4.19 -0.52,6.8 13.61,34.02 18.58,63.34 4.19,9.16 7.59,7.59 96.05,49.47 6.8,7.85 3.14,12.56 16.23,97.1 -0.26,8.64 -34.02,90.03 -0.26,16.75 13.09,151.01 13.09,141.07 47.9,191.58 54.96,221.68 5.5,26.43 5.23,48.16 -7.33,37.43 -6.02,20.41 -11.52,17.8 -127.2,135.57 -31.93,33.5 -18.84,12.82 -23.29,27.74"
     id="path1" />
  <path
     style="fill:none;stroke:#006fb3;stroke-width:5;stroke-linejoin:round;stroke-opacity:1"
     d="m 195.11,2402.11 25.76,13.04 6.62,1.59 5.33,-0.98 11.27,-4.28 21.72,-15.7 61.7,-36.3 21.84,-5.55 79.58,-2.22 24.43,-3.33 55.52,-0.74 8.88,-5.55 3.33,-9.25 6.29,-69.21 -1.11,-32.2 -4.81,-11.47 -20.36,-16.29 -7.03,-13.69 -1.48,-12.21 4.81,-46.27 5.18,-7.77 7.03,-6.29 9.99,-2.59 21.47,0.74 5.92,-1.85 5.55,-6.29 3.33,-12.58 1.48,-46.64 5.92,-11.1 11.1,-7.03 10.73,-2.22 72.55,0.37 22.58,-7.77 287.96,-1.11 123.25,37.01 29.24,3.7 25.91,2.22 24.8,-0.37 36.64,-7.03 96.23,-17.77 23.69,-0.74 24.06,2.96 284.63,69.95 10.36,-0.37 7.03,-4.81 3.7,-10.73 39.02,-170.24 5.22,-7.07 6.3,-3.79 9.68,0.26 116.86,28.53"
     id="path2" />
  <text
     x="89.45"
     y="206.96"
     id="text3652"
     xml:space="preserve"
     style="font-style:normal;font-weight:normal;font-size:144px;font-family:Sans;-inkscape-font-specification:Sans;fill:#000000;fill-opacity:1;stroke:none"><tspan
       x="89.45"
       y="206.96"
       id="tspan1">2025</tspan></text>
</svg>
