<?xml version="1.0" encoding="UTF-8" standalone="no"?>
<svg
   xmlns:dc="http://purl.org/dc/elements/1.1/"
   xmlns:cc="http://creativecommons.org/ns#"
   xmlns:rdf="http://www.w3.org/1999/02/22-rdf-syntax-ns#"
   xmlns:svg="http://www.w3.org/2000/svg"
   xmlns="http://www.w3.org/2000/svg"
   xmlns:xlink="http://www.w3.org/1999/xlink"
   viewBox="-600 0 5750 6000"
   height="6000"
   width="5750"
   id="svg2"
   version="1.1">
  <metadata
     id="metadata8">
    <rdf:RDF>
      <cc:Work
         rdf:about="">
        <dc:format>image/svg+xml</dc:format>
        <dc:type
           rdf:resource="http://purl.org/dc/dcmitype/StillImage" />
        <dc:title></dc:title>
      </cc:Work>
    </rdf:RDF>
  </metadata>
  <defs
     id="defs6" />
  <image
     xlink:href="../basemap/spkosm.png"
     style="display:none"
     width="8137"
     height="6657.55"
     preserveAspectRatio="none"
     id="image10"
     x="-2900"
     y="-657.55" />
  <path
     id="path4508"
     d="m 1480.99,871.73 86.72,497.04 -1.73,12.08 -5.18,12.08 -9.92,7.33 -12.08,3.02 -211.84,39.69 -12.94,13.38 -3.88,14.24 1.73,12.51 63.86,339.99 6.04,6.9 9.49,3.02 101.39,17.69 4.75,4.31 2.59,9.49 6.47,38.4 6.9,9.92 177.33,149.71 45.3,31.93 9.49,1.73 10.36,-3.02 12.51,3.45 17.69,12.94 10.35,11.65 6.9,14.67 26.75,53.5 13.38,40.56 46.17,61.7"
     style="fill:none;fill-rule:evenodd;stroke:#0066cc;stroke-width:5;stroke-linecap:butt;stroke-linejoin:round;stroke-miterlimit:4;stroke-dasharray:none;stroke-opacity:1" />
  <path
     id="path4510"
     d="m 474.41,1235.87 23.3,24.59 50.05,47.03 109.16,88.88 14.67,5.18 32.79,5.61 12.08,6.04 12.08,6.9 102.25,81.55 26.75,22.44 42.28,24.16 4.75,6.47 3.45,13.38 -1.29,12.08 -19.85,43.15 -1.73,9.49 1.29,12.94 17.69,104.41 4.31,9.49 5.61,6.04 6.47,2.16 11.22,-1.29 532.42,-99.67 12.94,0.86 11.22,7.33 83.7,94.92 53.5,0.86 50.48,49.19 59.54,46.6 49.19,31.5 125.98,58.25 55.66,38.83 173.01,91.04 24.59,20.28 56.09,36.67 33.22,12.51 146.69,48.75 16.4,-0.43 13.81,-4.31 96.65,-54.36 136.77,-61.27 13.81,-24.59 7.77,-51.77"
     style="fill:none;fill-rule:evenodd;stroke:#ff9900;stroke-width:5;stroke-linecap:butt;stroke-linejoin:round;stroke-miterlimit:4;stroke-dasharray:none;stroke-opacity:1" />
  <path
     id="path4506"
     d="m 1159.15,944.44 5.19,25.63 18.92,14.64 3.05,7.63 162.61,890.24 v 14.34 l -7.63,64.07 1.22,14.95 6.41,14.64 6.41,10.07 10.37,11.59 105.25,66.2 16.78,7.63 14.34,3.05 29.9,3.97 6.71,5.49 5.19,7.93 2.44,9.46 -1.22,9.15 -18.31,101.29 -5.8,11.29 -29.29,34.17 -4.58,11.9 -0.92,12.2 -0.31,56.44 -34.78,203.8 -48.51,92.14 -5.8,18 -11.9,99.76"
     style="fill:none;fill-rule:evenodd;stroke:#008000;stroke-width:5;stroke-linecap:butt;stroke-linejoin:round;stroke-miterlimit:4;stroke-dasharray:none;stroke-opacity:1" />
  <path
     id="path4565"
     d="M 94,768.5 822,1374 l 55.5,35 301.5,175.5 29,7 53,-14 41.5,-9 42,-6.5 223.5,5 124.5,-18 25,2.5 16,8 26.5,21 31.5,19 222.78,182.77"
     style="fill:none;fill-rule:evenodd;stroke:#3bc228;stroke-width:5;stroke-linecap:butt;stroke-linejoin:round;stroke-miterlimit:4;stroke-dasharray:none;stroke-opacity:1" />
  <path
     id="path4567"
     d="m 983,1470 -13,-14 -7.5,-19 -27.5,-210.5 2.5,-14.5 6,-13.5 252,-442 11,-10 19.5,-11 137.5,-51 14.5,-11 16.5,-16 6,-14 5,-14.5 53,-282 6,-16 11.5,-15.5 93,-76 18.5,-7.5 19.5,-3 290,8 17,-4.5 14.5,-8.5 78,-87"
     style="fill:none;fill-rule:evenodd;stroke:#3bc228;stroke-width:5;stroke-linecap:butt;stroke-linejoin:round;stroke-miterlimit:4;stroke-dasharray:none;stroke-opacity:1" />
  <text
     style="font-style:normal;font-weight:normal;font-size:144px;line-height:125%;font-family:Sans;-inkscape-font-specification:Sans;letter-spacing:0px;word-spacing:0px;fill:#000000;fill-opacity:1;stroke:none"
     xml:space="preserve"
     id="text2992"
     y="206.96"
     x="-510.55"><tspan
       id="tspan1"
       y="206.96"
       x="-510.55">2015</tspan></text>
  <path
     id="path5266"
     d="m 1100.97,2129.61 -85.56,148.49"
     style="fill:none;fill-rule:evenodd;stroke:#000000;stroke-width:5;stroke-linecap:butt;stroke-linejoin:round;stroke-opacity:1;stroke-miterlimit:4;stroke-dasharray:none" />

  <text
     x="-510.55"
     y="5897.96"
     id="text3652-1"
     xml:space="preserve"
     style="font-style:normal;font-weight:normal;font-size:144px;font-family:Sans;-inkscape-font-specification:Sans;fill:#000000;fill-opacity:1;stroke:none"><tspan
       x="-510.55"
       y="5897.96"
       id="tspan2">2015</tspan></text>

  <path
     style="fill:none;fill-rule:evenodd;stroke:#3bc228;stroke-width:5;stroke-linecap:butt;stroke-linejoin:round;stroke-miterlimit:4;stroke-dasharray:none;stroke-opacity:1"
     d="m 5002.69,5875.51 -6.15,-50.6 1.4,-20.69 5.31,-16.21 17.33,-33.82 6.99,-17.05 3.35,-17.89 0.28,-18.17 -1.4,-13.98 -3.63,-15.09 -7.27,-18.73 -34.94,-45.84 -55.07,-63.73 -240.4,-282.05 -304.41,-342.99 -209.37,-240.4 -331.53,-379.89 -10.06,-15.09 -10.62,-21.8 -6.71,-26 -20.96,-431.88 -20.13,-382.68 -39.41,-266.4 -4.19,-19.57 -36.9,-100.91 -5.31,-24.88 -10.34,-116.01 -4.47,-40.81 -8.67,-21.24 -11.18,-19.01 -77.99,-78.83 -14.26,-11.74 -19.29,-9.22 -24.04,-5.59 -88.61,-12.58 -157.1,-67.65 -22.08,-6.99 -19.01,-2.24 -50.6,1.12 -14.26,-0.28 -24.6,-5.31 -18.17,-8.39 -203.5,-145.92 -22.36,-17.33 -60.94,-61.22 -14.54,-17.61 -15.09,-27.95 -9.5,-19.57 -5.03,-17.89 -15.09,-158.22 -4.75,-18.45 -5.59,-14.54 -11.18,-20.13 -17.33,-21.24 -18.62,-15.02 -16.21,-9.09 -33.94,-13.91 -216.43,-77.79 -199.11,-56.05 -118.5,-23.5 -22,-8.5 -14,-7.5 -86.22,-70.73"
     id="path4565-6" />
</svg>
