<?xml version="1.0" encoding="UTF-8" standalone="no"?>
<svg
   version="1.1"
   id="svg2"
   width="1700"
   height="2500"
   viewBox="-200 0 1700 2500"
   xml:space="preserve"
   xmlns:xlink="http://www.w3.org/1999/xlink"
   xmlns="http://www.w3.org/2000/svg"
   xmlns:svg="http://www.w3.org/2000/svg"
   xmlns:rdf="http://www.w3.org/1999/02/22-rdf-syntax-ns#"
   xmlns:cc="http://creativecommons.org/ns#"
   xmlns:dc="http://purl.org/dc/elements/1.1/"><metadata
     id="metadata8"><rdf:RDF><cc:Work
         rdf:about=""><dc:format>image/svg+xml</dc:format><dc:type
           rdf:resource="http://purl.org/dc/dcmitype/StillImage" /></cc:Work></rdf:RDF></metadata><defs
     id="defs6" /><image
     style="display:none"
     width="2335"
     height="3035.5"
     preserveAspectRatio="none"
     xlink:href="../basemap/gvaosm.png"
     id="image10"
     x="-675"
     y="-85.5" /><text
     style="font-style:normal;font-weight:normal;font-size:144px;line-height:125%;font-family:Sans;-inkscape-font-specification:Sans;letter-spacing:0px;word-spacing:0px;fill:#000000;fill-opacity:1;stroke:none"
     xml:space="preserve"
     id="text2992"
     y="206.96"
     x="-110.55"><tspan
       id="tspan1"
       y="206.96"
       x="-110.55">2010</tspan></text><path
     id="path819"
     d="m 883.88,2509.36 42.6,130.15"
     style="opacity:1;fill:none;fill-opacity:0.4;fill-rule:nonzero;stroke:#87251c;stroke-width:5;stroke-linecap:butt;stroke-linejoin:round;stroke-miterlimit:4;stroke-dasharray:none;stroke-opacity:1" /><path
     style="fill:none;fill-opacity:0.25;stroke:#652400;stroke-width:5;stroke-linejoin:round;stroke-opacity:1"
     d="m 51.57,1451.37 -33.25,35.66 -13.01,11.57 -19.52,13.98 -21.93,20.72 -13.25,14.46 -11.81,14.7 -4.1,11.57 -8.19,36.63 1.93,16.63 5.54,13.01 59.04,71.33 48.92,59.04 19.52,14.46 20.24,11.57 131.7,55.57 37.9,5.73 63.9,-10.14 26.44,-12.34 55.53,-71.39"
     id="path1" /><path
     style="fill:none;fill-opacity:0.4;fill-rule:nonzero;stroke:#652400;stroke-width:5;stroke-linecap:butt;stroke-linejoin:round;stroke-miterlimit:4;stroke-dasharray:none;stroke-opacity:1"
     d="m 397.17,1764.13 12.78,-27.76 2.64,-18.95 -3.97,-155.12 13.22,-55.97 -3.97,-59.49 16.75,-71.39 4.85,-68.75 -2.64,-130.44 7.49,-42.31 11.02,-21.59 16.75,-21.15 33.93,-21.59 20.71,-14.98 19.83,-26 35.69,-59.49 46.71,-106.64 10.14,-30.41 -0.88,-85.49 -1.76,-23.36 -26,-62.58 -17.63,-120.31 1.76,-33.93 17.19,-27.76 40.1,-48.03 145.77,-144.26 35.52,-43.62 18.7,-43.62 16.2,-69.8 11.99,-36.56 67.47,-149.16 16.15,-56.63 28.19,-188.93 5.78,-20.97 7.23,-19.28 7.71,-12.29 14.94,-19.76 107.48,-132.54 22.17,-33.98 23.62,-41.69 8.92,-16.87 69.4,-139.77 15.66,-25.3 17.59,-23.13 97.84,-120.25 22.17,-30.85 12.29,-21.69 7.47,-21.69 5.54,-24.1 7.71,-22.89 10.84,-21.45 82.9,-97.84 18.31,-26.27 12.77,-20 174.47,-261.7 169.17,-240.5 14.22,-15.66 23.37,-20.96 25.78,-20 125.79,-62.65 35.66,-23.37 150.61,-107.48 29.64,-27.47 29.4,-29.4 31.33,-31.33 49.16,-50.61 22.65,-18.8 26.99,-16.63 21.93,-8.92 29.64,-11.57 26.51,-11.81 19.52,-12.29 37.59,-28.44 25.3,-13.98 28.92,-10.84 65.79,-18.31 29.64,-4.34 43.13,0.72 55.18,8.19 22.89,0.72 22.17,-1.45 28.19,-7.47 197.36,-66.51 44.58,-9.88 49.16,-4.34 33.98,2.17 173.74,27.95 32.77,2.89 25.54,-3.61 21.45,-4.58 28.19,-11.09 130.37,-57.59 16.39,-10.12 15.9,-16.39 55.91,-76.15 23.62,-26.99 125.55,-123.38 21.21,-16.87 12.29,-6.75 40.73,-20 20.72,-15.9 16.63,-20.48 13.49,-21.21 25.78,-60.24 15.42,-22.89 14.22,-19.28 36.39,-36.87"
     id="path836" /></svg>
