<?xml version="1.0" encoding="UTF-8" standalone="no"?>
<svg
   viewBox="0 0 4400 3000"
   height="3000"
   width="4400"
   id="svg2"
   version="1.1"
   xml:space="preserve"
   xmlns:xlink="http://www.w3.org/1999/xlink"
   xmlns="http://www.w3.org/2000/svg"
   xmlns:svg="http://www.w3.org/2000/svg"
   xmlns:rdf="http://www.w3.org/1999/02/22-rdf-syntax-ns#"
   xmlns:cc="http://creativecommons.org/ns#"
   xmlns:dc="http://purl.org/dc/elements/1.1/"><metadata
     id="metadata8"><rdf:RDF><cc:Work
         rdf:about=""><dc:format>image/svg+xml</dc:format><dc:type
           rdf:resource="http://purl.org/dc/dcmitype/StillImage" /></cc:Work></rdf:RDF></metadata><defs
     id="defs6" /><image
     xlink:href="../basemap/innosm.png"
     width="5038"
     height="3893"
     preserveAspectRatio="none"
     id="image10"
     x="-539"
     y="-18"
     style="display:none" /><path
     id="path817"
     d="m 339.25,1706.25 5.25,10.25 5,24.5 -1.5,15.5 -13,35.5 -23.75,55 -2.25,9.75 v 18.5 l -14.25,28.5 -3.25,11.25 -2,28"
     style="opacity:1;fill:none;fill-rule:nonzero;stroke:#eb1c26;stroke-width:5;stroke-linecap:butt;stroke-linejoin:round;stroke-miterlimit:4;stroke-dasharray:none;stroke-opacity:1" /><path
     style="fill:none;stroke:#0d4da1;stroke-width:5;stroke-linejoin:round;stroke-opacity:1"
     d="m 243.2,2179.02 17.02,-0.55 9.7,2.2 30.38,11.16 11.35,3.66 10.07,-0.37 10.07,-4.58 12.26,-12.08 5.67,-16.11 -1.1,-11.9 -4.03,-16.11 -4.21,-19.95 0.37,-20.5 23.24,-121.35 6.77,-16.29 12.26,-16.84 124.46,-125.38 12.08,-6.96 13.54,-2.75 156.12,11.71 255.69,19.22 158.32,10.43 168.2,11.53 35.87,4.58 25.62,-0.55 27.27,-4.94 41.79,-9.2"
     id="path1" /><path
     style="fill:none;stroke:#000000;stroke-width:5;stroke-linejoin:round;stroke-opacity:1"
     d="m 326.61,1706.51 -200.6,-309.83"
     id="path2" /><path
     style="fill:none;stroke:#000000;stroke-width:5;stroke-linejoin:round;stroke-opacity:1"
     d="m 126.92,1393.7 39.34,-82.96"
     id="path3" /><text
     x="89.45"
     y="206.96"
     id="text3818"
     xml:space="preserve"
     style="font-style:normal;font-weight:normal;font-size:144px;line-height:125%;font-family:Sans;-inkscape-font-specification:Sans;letter-spacing:0px;word-spacing:0px;fill:#000000;fill-opacity:1;stroke:none"><tspan
       x="89.45"
       y="206.96"
       id="tspan1">2010</tspan></text></svg>
