<?xml version="1.0" encoding="UTF-8" standalone="no"?>
<svg
   id="svg2"
   height="8350"
   width="21150"
   viewBox="-10150 -500 21150 8350"
   version="1.1"
   xmlns:xlink="http://www.w3.org/1999/xlink"
   xmlns="http://www.w3.org/2000/svg"
   xmlns:svg="http://www.w3.org/2000/svg"
   xmlns:rdf="http://www.w3.org/1999/02/22-rdf-syntax-ns#"
   xmlns:cc="http://creativecommons.org/ns#"
   xmlns:dc="http://purl.org/dc/elements/1.1/">
  <metadata
     id="metadata8">
    <rdf:RDF>
      <cc:Work
         rdf:about="">
        <dc:format>image/svg+xml</dc:format>
        <dc:type
           rdf:resource="http://purl.org/dc/dcmitype/StillImage" />
      </cc:Work>
    </rdf:RDF>
  </metadata>
  <defs
     id="defs6" />
  <image
     xlink:href="../basemap/shaosm.png"
     style="display:none"
     id="image10"
     height="8657.42"
     width="21643.56"
     y="-764.51"
     x="-10416.07" />
  <path
     style="fill:none;stroke:#a09200;stroke-width:5;stroke-linejoin:round;stroke-opacity:1"
     d="m -7233.35,1567.13 -11.15,-81.63 -1.47,-87.2 -4.95,-80.26 -3.18,-32.53 2.47,-15.2 10.61,-11.67 15.2,-7.42 70.36,-17.68 19.8,-11.31 48.79,-29.7 20.15,-15.91 10.61,-9.9 4.6,-9.9 6.36,-24.75 3.18,-29.7 1.77,-12.02 7.78,-15.2 50.56,-57.98 90.51,-95.11 100.76,-85.56 25.46,-15.56 27.22,-5.3 33.23,-2.83 157.68,-4.6 223.8,-11.67 108.54,-13.79 163.34,-20.15 50.2,-10.25 25.81,-10.96 24.4,-12.02 21.92,-4.95 38.89,-3.54 22.63,-7.78 15.56,-10.25 13.44,-9.9 9.19,-12.02 10.61,-20.86 10.96,-9.55 15.91,-6.01 138.59,-22.27 18.74,0.71 31.47,15.56 18.74,13.44 5.66,9.19 1.77,15.56 -4.24,252.44 29.34,155.21 9.49,52.65 6.25,9 6,3.75 11.29,3.84 122.28,-29.1 61.66,-11.72 32.58,-13.01 73.64,-35.01 61.29,-20.5 27.75,-1.75 16.75,5.5 10.5,10 7,14.25 14.25,47.5 6.25,32.25 9,31 19.75,141 -1.75,48.75 14.75,117.25 6.75,19 11.5,19.25 17.25,18 21,15.25 54.25,31.25 35.5,15.25 24,10.5 10.5,3 68.26,12.58 11.05,8.17 4.95,13.79 3.18,15.56 0.71,110.31 -0.35,295.57 3.36,18.03 21.74,56.39 43.66,116.5 50.73,135.76 32.7,90.86 8.49,26.69 8.13,46.14"
     id="path6" />
  <path
     style="fill:none;stroke:#a77bca;stroke-width:5;stroke-linejoin:round;stroke-opacity:1"
     d="m -5833.88,33.59 -27.58,61.52 -36.06,53.74 -23.69,28.64 -7.78,23.69 -23.33,175.01 0.35,59.04 25.46,192.33 16.62,98.29 11.31,26.52 18.38,20.86 14.85,15.2 9.19,15.56 4.24,16.97 -3.18,21.92 -8.13,75.66 -2.12,47.73 2.83,49.85 5.66,12.37 44.19,44.9 7.07,14.85 4.95,16.62 13.44,75.66 -0.71,42.78 51.27,230.87 1.77,22.98 -4.24,27.22 -3.18,25.81 4.6,32.17 6.01,19.09 8.13,21.92 8.13,31.47 2.83,20.15 3.18,84.85 6.01,22.98 10.25,21.57 3.89,14.14 2.47,35.36 8.84,85.21 17.32,99.35 9.19,105.71 32.88,204 10.61,18.03 38.89,42.78 5.66,10.96 2.12,13.44 -1.77,86.97 -6.72,103.94 -7.07,17.68 -11.67,8.49 -19.45,12.73 -127.28,37.48 -21.21,1.06 -18.74,-5.66 -20.15,-13.79 -15.91,-3.54 -148.85,0.71 -26.16,-8.13 -16.97,-11.67 -9.19,-4.95 -74.95,-7.42 -20.15,4.24 -14.85,9.55 -10.61,13.08 -6.51,15.42 -1.72,21.82 -9.5,36.66"
     id="path5" />
  <path
     id="path874"
     d="m -6150.71,2728.03 -18.81,55.21 -12.52,25.51 -11.6,12.06 -18.55,7.89 -14.38,0.93 -145.64,6.5 -12.06,2.32 -11.6,8.82 -48.71,49.17 -47.31,29.22 -35.72,19.49 -60.3,47.78 -6.04,6.96 -0.93,12.06 3.71,19.95 7.43,25.97 2.32,17.62 -0.46,215.69 7.89,19.49 37.11,52.88 6.5,23.19 1.39,22.27 1.85,106.22 -4.63,10.67 -8.35,7.89 -16.23,4.63 -278.77,25.97"
     style="fill:none;fill-rule:nonzero;stroke:#a77bca;stroke-width:5;stroke-linecap:butt;stroke-linejoin:round;stroke-miterlimit:4;stroke-dasharray:none;stroke-opacity:1" />
  <path
     style="fill:none;stroke:#41b6e6;stroke-width:5;stroke-linejoin:round;stroke-opacity:1"
     d="m -7497.75,621.75 26.75,26.75 26.5,18.5 26.5,18.75 10.25,11 10.25,19 23.5,65.25 15,21.5 53.5,51 33.5,28.75 100.5,102.75 34.5,39 16.75,23.75 57,80.5 108.5,122.25 31.75,32 25,14.75 14.75,5.75 15.25,1.75 48.25,-6.5 28,-3 13.25,-5.25 21.5,-16.25 19,-7 63,-8.5 12,0.25 12.25,-4 12.5,-11.25 19.25,-21.25 15,-8 16.25,-6 165.5,-14.75 89.25,-14.25 84.75,-19.5 29.5,-0.75 48.25,-6.5 8.75,1.75 8.75,4.5 7.5,10.75 11.25,28 3,19.5 2.75,49.25 -4.75,16.25 -7,8.5 -12.25,7.25 -24,8.75 -9.75,8 -6.5,12.75 v 17.5 l 22,100 41.5,200.75 v 10.25 l -2.75,19.75 1.75,13.25 6,13.75 12,11.75 12,6 44.5,-1.25 123.75,-25.5 57.75,-21.75 31.25,-4 166,-2 159.25,-2.25 17,-4.5 217.75,-0.5 97.5,-7 51.5,-2.75 65,5.5 46.75,-0.5 28,-6.75 79,-16.5 48.5,-3 106,0.75 105,1 203.75,-5.25 13.5,5.25 9.25,10.5 6.25,16 0.5,18.25 1.75,69.75 -3,33.25 -5.75,15.75 -12.25,28.25 -1.75,24.5 0.25,218.25 6.75,41.75 18.5,60 10.75,28.25 15.25,12.5 16.19,7.5 18.31,4.31 33.53,-1.71 80.47,-22.7 23.25,-3.66 33.57,6.07 39.78,-8.15"
     id="path4" />
  <path
     style="fill:none;stroke:#e93cac;stroke-width:5;stroke-linejoin:round;stroke-opacity:1"
     d="m -8483.25,2901.5 38.5,10.25 46.5,8.75 68.25,11.5 23.75,0.25 21.5,-1.5 20.5,-7.5 30.5,-20.5 12.75,-14.75 5.75,-18 11.5,-52.25 9,-15.75 113,-65 94.75,-61.25 15.75,-15.5 13.5,-22.5 18.25,-50.75 16.75,-18.5 23,-22.5 83.75,-56.25 44,-53.75 17.5,-29.75 10.75,-24.75 10.25,-13.5 14.75,-6.25 143.75,-11.25 219.5,-15.5 97.75,-5.25 52.5,3.5 22,0.75 20.5,-3.5 13.25,-6.75 6.5,-12 3.5,-18.5 -14.25,-132.75 -5,-19 -9.5,-28.5 -3,-16.25 0.25,-19 4.5,-13 8.25,-8.25 15.5,-6.25 29,-4 h 47.75 l 53.5,-6 135.75,-27 21.25,1.25 45,12 28.25,4.75 25,0.75 17.75,-3.25 16.75,-10.25 18.25,-15.5 47,-46 41,-34 15.5,-9.5 17.25,-6.25 26.75,-3.75 17.25,2.5 61,14.75 20.25,1.5 27.75,-3 38,-8.75 26.75,-10.5 37.25,-1 248.5,-38.25 87.5,-7 h 22.25 l 27.5,2.75 13,-4.5 24.25,-9.5 21,-10 13,-2.75 30,-4.25 56.75,-15.25 21.75,-3 105.5,1 41.25,6.25 152.25,-3.75 66,-0.75 107,7.5 27.5,-1 56.25,-7.75 91.75,-10.5 84.5,-15.25 122.5,-9 148.25,-3.75 91.25,0.25 15.75,-3 9.25,-5 7,-8.75 3.75,-12.5 -1.25,-25 -3.5,-30.75 -3.25,-29.25 -0.25,-44.5 -3.25,-260.5 -2.5,-33.75 -5.75,-45.5 2.75,-17.5 8.5,-17 9.75,-10.5 9.25,-5.75 32.75,-7.5 231.25,-38.75 17.75,-5 10.75,-6 10.5,-11.5 6.25,-15.25 2.25,-13 -2.5,-16.25 -7.5,-32.5 -2,-23.75 7.75,-81 -0.25,-10.25 -3.25,-11.25 -5.75,-12 -15.75,-22 -6,-15 -2,-16.75 1.75,-14.75 7.75,-33.25 0.5,-10.75 -1.75,-41.25 -6,-32.75 -9,-27.75 1,-16 4,-12.25 7.5,-7.25 10.75,-3.25 16.25,-2 194.5,0.75"
     id="path3" />
  <path
     style="fill:none;stroke:#b6a27a;stroke-width:5;stroke-linejoin:round;stroke-opacity:1"
     d="m 4637.29,6006.49 -50.24,-145.06 -24.33,-50.03 -13.94,-25.15 -56.59,-78.18 -10.93,-24.06 -129.57,-373.14 -86.66,-193.81 -98.96,-208.85 -2.73,-19.68 3.01,-17.22 9.29,-13.67 14.21,-12.3 88.84,-27.06 103.6,-40.73 102.24,-16.13 12.03,-9.29 9.02,-13.39 6.01,-16.13 -1.09,-17.22 -43.46,-227.16 -16.95,-70.8 -17.77,-77.09 -5.47,-12.57 -10.11,-12.85 -17.5,-15.03 -8.2,-12.57 -13.39,-38.27 -19.68,-30.89 -9.84,-21.6 -3.01,-20.78 -3.83,-36.63 2.19,-9.84 3.28,-8.75 44.56,-54.67 6.83,-15.86 2.73,-17.5 -1.09,-16.68 -5.19,-14.76 -6.83,-8.47 -18.04,-19.41 -23.24,-17.22 -27.34,-20.23 -8.2,-11.48 -8.47,-21.87 -7.93,-12.85 -10.39,-9.29 -12.03,-6.29 -29.25,-4.37 -14.21,-7.11 -10.11,-9.29 -7.65,-14.21 -6.29,-49.48 -46.47,-156.36 -3.83,-25.15 -7.38,-75.72 -1.91,-10.66 -6.83,-18.04 -10.11,-25.15 -7.93,-16.95 -10.66,-12.85 -12.03,-6.56 -15.04,-2.46 -101.69,-1.64 -17.5,-5.47 -11.48,-9.57 -8.75,-13.67 -3.01,-12.3 -1.64,-17.5 5.19,-60.96 18.59,-58.77 12.57,-88.57 -1.37,-17.77 -2.73,-14.21 -13.94,-68.89 -18.32,-48.93 -19.14,-48.66 -3.55,-19.96 0.27,-107.16 -3.01,-58.23 0.82,-30.62 10.66,-127.66 8.75,-133.67 5.47,-13.67 28.16,-37.45 9.02,-19.14 6.29,-22.96 4.37,-19.68 0.55,-21.05 -2.46,-23.24 -4.65,-18.32 -15.49,-29.59 -9.86,-15.27 -10.82,-10.05 -16.82,-8.7 -23.78,-11.6 -11.02,-12.37 -19.72,-33.05 -7.35,-23.97 -4.83,-29.57 -1.35,-19.14 0.58,-36.92 5.8,-129.12 -2.13,-16.24 -7.93,-17.78 -11.4,-11.79 -12.56,-5.61 -95.49,-10.24 -13.53,-7.15 -10.82,-10.24 -6.57,-12.56 -2.32,-13.92 1.16,-33.44 14.3,-184.6 12.37,-189.82 3.29,-61.47 1.63,-47.7 -2.46,-28.43 -6.01,-23.24 -7.38,-21.32 -11.48,-24.88 -65.33,-113.99 -6.7,-12.3 -14.08,-21.73"
     id="path2" />
  <path
     style="fill:none;stroke:#616020;stroke-width:5;stroke-linejoin:round;stroke-opacity:1"
     d="m 7060.16,2513.57 -0.27,91.58 -1.37,13.12 -7.11,10.11 -8.47,7.93 -11.21,7.11 -18.32,3.83 -169.21,-0.27 -28.16,3.83 -24.88,5.74 -135.31,47.84 -221.15,85.29 -8.47,5.74 -13.39,10.66 -10.39,3.28 -10.39,0.55 -9.29,-1.64 -6.83,-5.47 -6.56,-11.75 -21.87,-58.23 -24.6,-45.38 -108.8,-184.25 -61.23,-113.17 -12.03,-10.93 -13.67,-2.19 -10.66,-0.27 -13.12,2.46 -9.02,5.47 -70.53,57.68 -26.24,28.16 -56.31,69.71 -15.58,15.86 -32.26,24.06 -23.51,12.3 -59.32,30.07 -37.18,12.57 -96.77,30.89 -23.78,4.1 -94.86,3.01 -12.57,1.37 -20.23,4.92 -95.68,31.44 -11.48,6.56 -12.57,7.93 -12.57,4.92 -11.48,1.64 -18.43,-0.34 -13.69,2.94 -16.13,9.29 -12.57,10.11 -35.67,33.49 -12.3,8.47 -15.72,8.88 -17.5,7.93 -36.22,9.98 -39.5,13.39 -41.82,12.57 -30.89,6.97 -22.55,3.55 -103.47,57 -15.03,6.7 -23.37,8.06 -44.28,23.51 -48.25,12.71 -50.71,7.79 -82.15,20.64 -12.44,7.52 -30.07,23.78 -10.25,3.69 -12.71,2.19 -14.9,-1.78 -27.06,-9.02 -10.93,-7.24 -9.29,-9.84 -5.33,-12.3 -6.29,-35.4 -6.56,-15.99 -9.7,-9.84 -15.03,-10.25 -20.5,-9.29 -16.68,-2.87 -17.5,0.14 -8.2,-1.91 -8.06,-6.01 -36.08,-37.72 -20.23,-37.31 -21.79,-26.57 -75,-66.49 -18.17,-14.11 -17.01,-11.98 -88.92,-84.66 -19.91,-12.76 -15.66,-6.38 -9.86,-5.61 -9.47,-10.44 -6.19,-11.02 -5.03,-21.46 -4.06,-9.86 -7.35,-8.31 -11.21,-7.93 -14.3,-5.22 -40.98,-0.39 -142.85,-3.48 -20.1,-3.48 -27.25,-7.73 -61.27,-20.49 -53.54,-11.02 -142.85,-29.57 -88.14,-17.01 -21.07,0.58 -73.07,10.82 -16.24,-1.16 -19.72,-7.15 -152.9,-57.99 -88.34,-31.12 -31.7,-7.73 -42.91,-7.93 -271.97,-42.14 -181.51,-26.87"
     id="path1" />
  <path
     style="opacity:1;fill:none;stroke:#c4984f;stroke-width:5;stroke-linejoin:round;stroke-opacity:1"
     d="m 6552.8,5803.48 -34.72,-109.07 -9.29,-18.32 -34.99,-45.65 -5.47,-11.75 -5.47,-15.04 -18.04,-170.3 -22.14,-100.87 -18.32,-180.42 -5.74,-62.87 -13.94,-63.15 -12.85,-31.71 -24.92,-27.56 -78.41,-65.37 -23.93,-25.22 -12.09,-19.1 -11.12,-28.28 -47.09,-206.04 -4.58,-44.95 -10.88,-126.66 -0.66,-35.77 10.09,-103.98 1.19,-37.66 -3.54,-121.8 -0.44,-28.84 5.81,-18.6 10.69,-12.52 35.58,-18.9 18.67,-9.78 9.04,-11.37 2.75,-10.67 -0.22,-14.59 -28.11,-118.19 -10.21,-36.85 -10.66,-16.95 -16.13,-18.59 -10.93,-18.32 -47.29,-129.85 -11.75,-24.88 -3.83,-38.54 -36.63,-141.05 -10.11,-57.95 -10.93,-63.69 -7.93,-36.08 -15.86,-49.48 -27.61,-159.37 -11.48,-28.98 -30.34,-107.43 -27.61,-90.76 -36.36,-85.02 -77.36,-173.59 -22.42,-45.1 -16.4,-19.96 -53.31,-44.56 -13.94,-19.68 -33.62,-57.68 -39.64,-51.67 -16.13,-28.16 -15.58,-33.9 -6.56,-19.68 -12.3,-22.96 -21.6,-25.42 -8.2,-20.5 -10.11,-29.8 -27.88,-96.22 -33.08,-125.2 -16.4,-33.62 -12.57,-15.86 -16.95,-12.3 -95.4,-42.37 -23.24,-9.02 -10.39,-9.84 -15.03,-34.44 -11.75,-12.03 -28.43,-25.7 -8.75,-15.03 -5.74,-16.4 -3.01,-21.32 -1.64,-82.28 -3.28,-36.36 -9.29,-175.5 -3.28,-33.9 0.82,-76.81 -3.83,-14.76 -5.19,-9.84 -12.57,-10.66 -78.18,-48.93"
     id="path879" />
  <path
     id="path839"
     d="m 2898.15,3383.31 -72.14,2.64 -73.77,-0.39 -68.88,-10.52 -22.61,2.8 -45.85,24.39 -56.87,25.59 -288.34,123.46 -202.72,77.48 -52.33,17.96 -105.67,23.62 -32.74,5.2 -32.74,14.03 -18.71,19.75 -54.05,86.79 -21.83,22.87 -34.3,17.15 -39.5,12.99 h -29.62 l -263.73,7.22 -22.81,4.22 -141.26,39.19 -24.37,1.86 -74.84,-10.39 -527.53,1.04 -244.79,39.5 -65.49,-4.16 -163.2,-32.22 -46.78,-0.52 -98.75,13.51 -65.49,9.36 -34.82,17.15 -15.07,12.99 -9.87,16.63 -7.28,18.19 v 28.07 l 10.99,69.81 18.35,77 3.15,35.21 -4.52,28.67 -12.81,26.2 -15.15,21.94 -137.73,104.47 -13.51,18.71 -6.76,18.71 6.24,52.49 1.56,42.62 22.35,96.67 4.16,29.62 -4.16,23.91 -14.03,24.43 -14.03,15.59 -49.89,37.94 -35.34,19.75 -30.66,19.75 -25.47,7.28 -173.59,39.5 -53.01,6.76 -356.01,27.55 -61.14,4.49 -26.24,4.37 -36.9,12.03 -36.36,17.22 -65.88,49.48 -36.36,34.72 -10.93,16.95 -21.6,48.66 -9.84,13.67 -109.62,83.1 -41.28,25.15 -266.53,121.37"
     style="opacity:1;fill:none;fill-rule:nonzero;stroke:#bc796f;stroke-width:5;stroke-linecap:butt;stroke-linejoin:round;stroke-miterlimit:4;stroke-dasharray:none;stroke-opacity:1" />
  <path
     style="fill:none;stroke:#e999c0;stroke-width:5;stroke-linecap:butt;stroke-linejoin:round;stroke-miterlimit:4;stroke-dasharray:none;stroke-opacity:1"
     id="path3810"
     d="m 2913,2669 40.32,1.09 102.35,3.28 34.11,-3.53 110.22,-19.85 47.25,-9.79 60.71,-4.11 42.04,2.91 87.18,27.02 21.53,7.14 24.29,14.84 154,91 53,18 112.93,19.71 187.07,-10.71 30.05,1.55 91.17,12.49 39.78,0.45 23,11.5 18.5,19 12.37,4.95 13.13,0.05 15.69,-4.17 63.51,-31.27 13.95,-9.28 28.01,-7.85 16.76,-13.38 12.59,-21.05 16.5,-34 10.52,-8.67 14.98,-6.33 16.06,-4.12 9.94,-5.38 16.2,-22.78 21.92,-17.45 26.38,-28.27 43,-23 88,-17 30.5,-4.5 16.5,8 20.43,35.86 31.57,29.14 23.54,13.78 11.39,8.5 18.06,37.72 6.5,27.5 -9.22,53.45 1.45,31.24 12.73,48.17 1.53,70.14 9,24 26.97,28.51 13.13,3.22 63.72,0.82 18.08,9.85 15.1,19.59 9,23 27.42,116.35 11.78,27.05 9.88,25.02 8.07,28.84 15.84,40.74 27.61,63.94 8.91,40.28 0.64,26.32 -5.18,46.67 4.13,25.37 15.03,55.77 14.79,57.67 6.94,23.15 11.91,19.9 37.28,51.47 15.4,11.67 21.78,6.26 20.35,-0.31 265.34,-24.99 36.79,-7.66 74.19,-26.15 53.66,-19.11 54.39,-20.58 154.79,-30.14 132.76,-6.47 24.92,3.47 21.33,10.34 12.95,13.65 12.46,53.24 6.51,27.94 32.83,73.12 10.85,7.4 9.24,1.16 10.45,-3.73 130.26,-65.45 49.13,-22.99 84.7,-21.23 22.22,-5.77 49.73,-27.99 17.98,-7.4 45.25,-12.37 50.72,-5.88 69.09,1.47 44.84,-11.03 38.96,-14.7 42.67,-26.46 21.28,-17.64 22.96,-17.29 29.23,-18.09 110.99,-44.74 24.62,-7.24 26.21,-3.71" />
  <path
     style="fill:none;stroke:#007860;stroke-width:5;stroke-linecap:butt;stroke-linejoin:round;stroke-miterlimit:4;stroke-dasharray:none;stroke-opacity:1"
     id="path3773"
     d="m 3457.99,4362.2 22.74,-16.79 56.16,-38.37 48.79,-25.49 174.25,-35.75 61.08,-24.8 48.56,-20.25 19.59,-14.33 7.36,-14.99 2.15,-20.57 -43.47,-183.77 -0.61,-14.67 5.92,-14.75 10.67,-10.75 73.55,-22.86 68.29,-32.07 139.26,-36.28 46.6,-23.76 17.72,-6.82 126.52,-19.92 105.71,-4.78 99.2,-28.44 93,-28.5 11.76,-6.79 6.24,-22.71 3,-32 -8.12,-42.89 -0.92,-19.61 12.95,-27.48 40.1,-37.52 48.5,-23 61.54,-30.06 8.21,-9.45 5.24,-9.5 1.04,-13.47 -6.3,-19.61 -37.19,-73.34 -26.93,-141.75 8.58,-56.11 -6.71,-46.8 -24.99,-85.91 -1.51,-29.16 19.15,-53.96 2.37,-33.88 -10.1,-33.77 -19.4,-38.73 -12.71,-74.53 -4.29,-20.97 -3.33,-20.19 2.03,-17.45 5.75,-10.75 7.47,-7.25 54.7,-30.97 35.38,-11.39 38.69,9.01 15.31,0.49 50,-5.5 71.5,-14.5 60.71,-5.65 54.67,-26.26 49.71,-6.6 13.44,-3.28 9.97,-5.58 23.11,-22.54 48.77,-28.72 129.54,-60.8 29.57,-15.58 88.5,-94.5 43.04,-27.9 57.96,-31.1 46.89,-23.05 117.97,-68.5 53.74,-25.87 96.9,-83.08 23.79,-20.81 21.45,-10.42 31.61,-5.51 58.75,-10.39 257.48,-27.74 41.92,1.38 14.22,4.26 53.92,27.2 11.19,3.25 224.65,0.68 58.46,-4.15 73.04,9.97 89.23,-1.7 44.1,-5.13 86.18,0.61 77.43,8.63 21.63,9.55 10,18.05 0.95,171.27 -1.15,33.1 -7.18,24.47" />
  <path
     style="fill:none;stroke:#871c2b;stroke-width:5;stroke-linecap:butt;stroke-linejoin:round;stroke-miterlimit:4;stroke-dasharray:none;stroke-opacity:1"
     id="path2987"
     d="m 71.11,1781.64 57.32,4.36 258.5,72.5 43.93,21.83 57.76,9.74 29.38,0.93 26,-6 24.5,-0.5 23,12 29,18.5 79,20 34,8 53.5,0.5 53.4,-4.26 68.75,-2.35 23.85,4.11 29,12 22,9 151,35 25,2 30,-4 24,-10 17,-15 29,-31 82,-75 33,-31 15,-24 10,-29 75,-301 20,-60 19.13,-49.94 11.87,-17.06 20,-21 62,-49 25.01,-11 30.99,-3 102,10 41,3 27,-10 125,-66 19.71,-1.25 11.02,1.97 10.97,5.26 17.3,13.03 107,214 39,30 52,19 31,4 25,-4 50,-17 149.26,-57.12 20.65,-5.98 27.09,0.1 45,9 36.31,31.24 40.69,61.76 127,190 23,28 34,28 51,30 77.15,23.2 111.92,32.76 20.7,9.29 30.94,21.48 23.29,13.27 26.47,18.33 14.41,12.63 49.11,66.04 37,45 25,15 11.76,4.01 35.24,3.99 53.58,5.32 50.42,2.68 20,4 8.07,5.41 8.93,13.68 33,58.91 22,21 47.96,27.61 24.71,6.47 63.33,6.91 29.96,6.5 26.88,13.21 19.56,7.31 42.26,0.48 45.55,10.76 32.19,1.53 16,7.56 9.18,7.05 10.73,13.62 11.39,35.38 7.64,12.96 8.86,7.66 12.93,5.42 50.46,6.82 11.27,6.38 9.98,10.02 7.95,15.07 52.22,207.27 12,43 8.98,21.83 24.02,21.17 102,73 10,13 31.27,66.86 18.48,25.8 16.24,58.34 19,20 33,26 14,26 10,38 37.35,103.34 -0.85,23.66 -13.04,20.34 -0.66,28.29 18.7,61.87 23,30.5 4.84,27.32 -9.84,46.67 4,32 9.5,46.5 3,47.5 10.5,27.5 15.5,24.5 6.5,45 8,16.5 30.5,41.5 10,20.5 23.5,37.5 11.5,9.5 76.32,13.28 56.68,0.72 15,9.5 11.5,16.5 10.95,77.4 18.21,124.31 8.99,16.16 13.41,8.92 13.95,5.02 133.49,12.2 135.44,41 83.34,60.04 25.24,11.4 104.7,-4.92 21.89,3.57 18.02,10.67 47.37,65.24 20,8 18.42,0.66 26.05,-7.44 97.03,-37.73 115.5,-35.84 135.97,-46.53 84.03,-21.64 81,-22.5 177.14,-44.51 30.9,-12.48 179.96,-40.51 46.5,-8 28,1 44,10.5 18.5,7.5 12.45,8.41 8.48,17.62 21.57,73.46 39,67 6.5,20.5 2,43 1.74,10.8 13.42,50.04 42.34,113.13 5,9.52 24.5,22 38,12 57,-1.5 82.5,-5.88 314.29,-32.77 195.42,-32.22 24.95,-12.47 36.9,-30.72 71.72,-46.16 38.46,-13.33" />
  <path
     style="fill:none;stroke:#871c2b;stroke-width:5;stroke-linecap:butt;stroke-linejoin:round;stroke-miterlimit:4;stroke-dasharray:none;stroke-opacity:1"
     id="path3757"
     d="m 1843,346 -28,20 -18,13 -41,47 -26,30 -14,35 -8.92,43.28 -1.08,33.72 4,41.12 11,35.88 22,43 110,205 20.65,45.95 73.89,145.51 70.46,139.54" />
  <path
     style="fill:none;stroke:#c6afd4;stroke-width:5;stroke-linecap:butt;stroke-linejoin:round;stroke-miterlimit:4;stroke-dasharray:none;stroke-opacity:1"
     id="path3759"
     d="m 2887.39,3393.78 80.71,-3.74 46.19,-2.65 60.04,-0.05 40.21,2.81 100.09,35.56 30.1,5.91 158.26,-2.55 33.85,4.35 36.85,0.09 12.28,2.26 23.32,10.98 31.71,1.25 35,1 30.06,-5.33 51.62,-24.33 65.32,-46.34 48,-31 57.84,-17.04 55.16,-25.96 20.62,-10.85 14.24,-1.45 23.31,4.78 102.83,35.52 40.09,18.02 32.05,7.39 57.58,5.29 49.39,3.28 27.89,-8.61 34,-17.37 70.82,-36 77.18,-37 123.73,-93.01 30.38,-21.88 51.98,-16.3 23.46,-12.85 21.25,-21.59 39.02,-22.88 35.63,-12.81 22.99,-3.51 38,0.88 33.13,-8.92 18.62,-1.15 28.14,6.56 24.77,1.81 26.9,-7.34 106.24,-42.04 28.2,-2.92 28.29,-14.13 18.73,-14.39 8.74,-16.9 0.17,-11.37 -22.09,-47.84 -11.28,-65.4 -12,-61 -18.29,-66.84 -8.71,-22.16 -7.88,-22.23 -7.27,-13.7 -3.85,-15.07 -13,-70.81 6.04,-25.98 15.18,-23.83 49.79,-46.61 18.64,-42.83 3.3,-15.18 4.23,-27.09 29.32,-80.94 9.84,-20.94 28.65,-28.79 104,-109 14.4,-18.43 10.6,-13.57 145,-323 9,-21 -1.53,-21.42 -22.69,-48.81 -64.99,-122.88 -15.29,-33.02 -6.79,-25.14 -2.06,-24.42 -2.34,-193.54 7.9,-31.57 9.14,-21.62 52.17,-60.65 12.7,-21.54 26.13,-58.5 41.29,-82.96 33.98,-51.52 24.99,-31.56 30.92,-26.24 28.96,-12.32 27.67,-0.47 242.94,67.99 26.74,2.8 35.32,-3.07 214.76,-23.05 54.43,-0.33 141.07,-14.04 24.32,2.8 31.42,15.47 8.04,4.35 36.24,26.36" />
  <path
     style="fill:none;stroke:#c6afd4;stroke-width:5;stroke-linecap:butt;stroke-linejoin:round;stroke-miterlimit:4;stroke-dasharray:none;stroke-opacity:1"
     id="path3761"
     d="m 3657.68,3419.34 -31.32,28.68 -20.03,39 -29.93,30.72 -8.72,18.72 -1.31,22.68 4.77,28.68 9.55,57.92 4.31,33.24 -4,30 -9,16 -22,22 -198,88" />
  <path
     style="fill:none;stroke:#87caed;stroke-width:5;stroke-linecap:butt;stroke-linejoin:round;stroke-miterlimit:4;stroke-dasharray:none;stroke-opacity:1"
     id="path3782"
     d="m 1751.36,6608.89 -10.92,-30.08 -5.42,-28.03 -2.02,-112.2 -2.97,-16.77 -10.19,-15.48 -3.51,-12.92 5.19,-40.54 0.96,-90.21 -9.44,-60.04 6.59,-25.04 21.84,-26.24 4.66,-21.43 -1.71,-218.02 3.59,-77.88 9,-140 8,-61 6,-89 -3,-68 -1,-193 -26,-173 1,-33 3,-42 13,-108 -1,-23 -13.72,-55.86 -18.24,-148.64 2.96,-22.5 15,-30 18,-17 22,-8 198,-62 132,-8 224,-26 47,-1 90.41,0.65 33.04,-6.77 30.73,-13.88 107.48,-89.12 49.34,-59.88 30,-23 28,-13 114.33,-44.34 39.81,-14.63 19.39,-10.92 12.56,-14.87 20.36,-17.72 48.77,-47.16 67.62,-44.27 46.67,-37.26 53.16,-25.69 134.39,-85.83 23.21,-9.1 152.8,-29.82 72.68,3.49 16.02,-2.18 16.56,-9.13 50.64,-48.63 65.43,-42.78 59.04,-25.35 169.95,-63.54 280.59,-66.51 35.24,-14.71 23.46,-22.43 22.64,-49.25 68.67,-143.37 30.62,-59.87 20.68,-17.25 36.07,-12.47 27.12,-4.79 27.41,-3.37 25.87,-5.42 28.24,-12.83 57.76,-28.06 97.48,-37.61 40.24,-14.09 40.01,-10.54 28.5,-8.7 26,-17 16.59,-27.17 17,-16.51 12.57,-4.14 21.78,-7.22 72.06,-17.96 40,-22 18,-6 47.06,-6.43 78.94,-8.57 37.49,-8.37 17.51,-9.63 13,-13 10,-16 8,-37 -1.92,-19.01 3.37,-25.02 8.69,-16.87 27.65,-12.95 23.5,-14.85 58.71,-61.31 42,-21 38,-10 33,-10 45.12,-15.25 21.86,4.37 37.56,17.26 105.46,68.62 49.63,31.8 31,0.53 30.37,-8.27 37.99,-30.3 17.01,-6.76 56,-22 60.33,-27.04 68.6,-46.78 102.07,-59.16 86.07,-40.63 161.12,-86.79 142.94,-114.14 129.4,-102.07 37.42,-21.83 40.02,-18.19 98.23,-35.86 37.79,-9.77 64.19,-4.72 64.33,2.01 76.4,5.72 95.11,0.52 37.42,-6.76 468.28,-108.1" />
  <path
     style="fill:none;stroke:#0094d8;stroke-width:5;stroke-linecap:butt;stroke-linejoin:round;stroke-miterlimit:4;stroke-dasharray:none;stroke-opacity:1"
     id="path3784"
     d="m 5702,1398 2,382 6,25 29.34,63.57 3.66,33.43 -0.36,38.2 4.49,56.1 -0.14,18.7 -0.29,10.16 -4.71,9.84 -121,73 -25.68,13.19 -77.32,26.81 -86.67,21.54 -24.17,3.22 -67.95,-2.77 -17.27,-7.86 -37.94,-29.13 -18.85,-7.57 -49.15,-2.43 -82.73,-1.69 -24.97,1.59 -19.39,12.02 -10.03,15.71 -6.9,33.83 -11.08,19.18 -10.55,9.55 -18.13,6.78 -39.03,5.68 -31.53,12.4 -36.04,26.18 -36.25,39.4 -21.86,26.35 -16.51,29 -1,25 3,41 18,47 15.84,75.06 14.16,67.94 8,49 19.37,40.25 12.45,47.15 2.47,12.84 20.15,40.11 17.93,28.97 35.63,56.67 11.03,25.77 8.26,25.44 3.44,29.3 4.04,14.94 23.4,39.66 18.83,40.9 10.43,47.31 9.3,18.28 12.87,49.29 5.69,35.8 6.71,17.32 19,49 29,51 31,57 5,23 3,38 -8,23 -9.18,32.61 -2.47,24.17 2.65,38.22 13,70 8.68,61.17 13.32,58.83 4.48,30.31 -4.67,48.69 -13.27,25.73 -34.91,38.62 -35.57,27.29 -71.06,34.2 -36.89,19.43 -56.43,68.67 -13.27,20.58 -1.88,22.79 7.32,20.7 15.27,13.13 19.39,7.08 60.28,-3.24 23.27,2.95 19.37,13.18 13.6,20.8 43.91,141.17 16.06,34.25 130.3,399.42 47.38,146.42 13.73,93.68 53.92,358.05 8.34,90.1" />
  <path
     style="fill:none;stroke:#ed6f00;stroke-width:5;stroke-linecap:butt;stroke-linejoin:round;stroke-miterlimit:4;stroke-dasharray:none;stroke-opacity:1"
     id="path3786"
     d="m 3301.01,190.7 22.44,19.39 13.55,15.91 15.94,23.89 46.06,113.11 14.39,65 -0.33,18.36 -8.86,15.06 -23.2,27.58 -21,25 -17,34 -12,53 -3,41 16,58 12,30 8.71,18.88 23.05,27.44 50.35,58.18 49.89,56.49 36,53 70.12,105.1 30.54,46.98 3.22,18.8 -2.24,20.98 -1.99,12.33 -45.47,90.04 -6.49,19.18 -2.74,21.51 0.07,19.94 2.97,16.53 46.1,108.32 23.51,41.16 9.99,7.71 14.1,4.36 18.76,-0.16 20.39,-2.75 115.15,-28.04 57.83,-5.72 55.49,-9.88 32.9,-1.67 68.23,9.69 15.83,9.94 7.75,10.64 7.91,21.49 8.07,37.52 19.01,54.73 38.41,76.75 5.28,17.22 4.15,38.31 2.68,73.91 9.96,37.46 34.57,68.35 69.97,133.54 12.29,32.4 1.17,40.33 -2.04,64.41 2.2,30.66 3.87,28.42 -1.53,19.52 -10.74,88.95 -11.72,88.52 0.46,31.53 7,43 11,17 13.21,6.31 11.79,0.69 27,4 9.13,3.61 13.87,11.39 41.94,59.55 8.52,29.1 10.54,23.35 16.75,13 44.25,29 30,39 26,54 14.62,20.58 19.45,19.5 17.76,23.97 3.93,12.73 4.23,27.23 11,39 18,45 5.24,13.54 -0.7,10.1 -9.07,18.55 -5.21,34.46 0.89,25.14 20.78,62.78 0.42,21.64 -12.93,69.58 1.32,21.48 14.43,51.44 4.71,41.5 20.12,41.56 41,71.24 18,64 12.26,46.74 7.47,22.3 10.51,16.11 15.26,12.61 68.5,44.23 57.06,43.26 24.56,17.35 45.73,18.95 16.78,2.43 62.7,-11.22 22.77,-8.82 54.31,-35.48 53.94,-40.79 12.57,-5.98 31.57,-6.7 24.98,-5.2 20.61,-10.61 32.41,-37.19 23,-20 31,-9.32 48,-16.68 74,-29 33,-1 14.09,-3.06 34.72,-13.76 17.95,-0.16 55.58,6.89 28.67,1.1 228.01,-4.71 39.2,-7.85 13.79,-10.45 12,-27 5.04,-20.79 -0.21,-12.21 -6.3,-17.76 -19.53,-53.24 -5,-17 0.36,-12.06 4.9,-9.46 17.26,-10.79 39.84,-25.72 19.53,-9.07 27.91,-8.72 55.93,1.04 25.74,-7.37 15.53,-9.86 5.95,-8.41 -0.59,-9.61 -17.12,-99.34" />
  <path
     style="fill:none;stroke:#8cc220;stroke-width:5;stroke-linecap:butt;stroke-linejoin:round;stroke-miterlimit:4;stroke-dasharray:none;stroke-opacity:1"
     id="path3839"
     d="m 9311.05,4071.97 -58,-179 -75,-123 -133.18,-218.79 -13.44,-18.21 -33.38,-33 -16,-20 -65.75,-144.13 -21.25,-24.87 -23,-13 -30,-6 -81,7 -140.24,7.71 -46.76,7.29 -125.87,21.34 -78.14,19.41 -148.2,53.3 -50.75,17.82 -36.99,16.95 -64.35,16.7 -34.85,0.78 -76.63,20.16 -80.23,21.4 -110.33,41.41 -22.92,3.31 -23.47,-5.51 -16.68,-8.42 -11.32,-13.12 -7.54,-19.17 -13.25,-87.52 -13.29,-85.69 -10.91,-31.17 -22.63,-158.12 -11.97,-15.57 -23.68,-23.02 -37.38,-19.09 -36.47,-13.72 -37.01,-8.9 -38.79,0.77 -30.39,4.17 -54.7,9.27 -158.38,31.71 -93.84,9.75 -139.36,9.72 -64.7,3.02 -39.29,0.95 -25.93,5.01 -24.16,10.99 -53.62,41.05 -14.94,12.68 -23.34,10.56 -81.72,19.56 -169.61,35.17 -111.74,18.21 -18.34,0.33 -18.29,-1.24 -81.02,-32.28 -21,-3 -84,13 -92,-7 -33.01,-6.71 -20.93,-7.62 -13.95,-13.27 -7.53,-19.15 -14.59,-67.25 -14.06,-64.63 -9.63,-20.56 -21,-20.59 -46.31,-32.22 -144,-92 -117,-76 -102.47,-42.04 -90.69,-36.44 -44.65,-21.44 -61.19,-23.08 -61.29,-11.98 -73.27,1.8 -40.44,8.19 -53,20 -44.09,18.8 -60.17,16.83 -84.04,56.35 -29.03,7.89 -38.26,-0.68 -31.59,6.27 -47.07,21.18 -37.02,11.31 -26.75,20.05 -22.59,16.22 -17.8,11.15 -42.62,22.63 -35.54,17.79 -29.62,12.25 -30.04,12 -29.44,6.68 -39.59,8.07 -34.78,6.22 -48.42,10.4 -74.58,1.6 -30.62,-0.53 -19.94,4.63 -33.96,8.91 -21.05,11.2 -11.08,12.07 -27.25,46 -17.82,17 -17.19,15.18 -15.5,7.36 -18.57,2.64 -41.02,-3.44 -177,-49.19 -84.32,-20.05 -96.65,-5.15 -64.47,-18.77 -52,-5.87 -93.77,-9.19 -56.56,-3.29 -151.92,-17.22 -29.94,1.02 -103.62,24.01 -21.18,15.04 -11.42,15.13 -8.83,44.77 -4.57,31.33 2.76,60.43 4.39,22.89 12.29,28.64 19.73,25.88 13.94,23.07 5.29,16.16 -0.24,18.6 -6.66,19.67 -13.01,17.02 -16.94,10.04 -20.75,3.9 -69.14,4.5 -77.8,4.36 -73.09,3.79 -48.16,0.25 -22.24,5.81 -39.74,24.2 -86.3,59.7 -183.85,110.7" />
  <path
     style="fill:none;stroke:#d40068;stroke-width:5;stroke-linecap:butt;stroke-linejoin:round;stroke-miterlimit:4;stroke-dasharray:none;stroke-opacity:1"
     id="path3788"
     d="m 6256.96,944.45 93.04,-9.45 31,-3 18,9 12,15 16,70 201,407 8,19 -2,18 -4,17 -16,15 -16,6 -85,-1 -23,3 -20,15 -6,15 -4,16 v 136 l -6,105 -7.84,269.86 -8.3,158.62 -2.59,45.23 -6.28,36.29 -18.9,43 -32.1,45 -26,34 -33,30 -77,59 -75,54 -118.21,78.69 -87.33,49.98 -81.5,35.33 -129.96,48 -80.36,29.23 -15.87,11.24 -21.75,40.45 -4.68,13.81 1.43,10.52 19.23,52.75 16,53 6,39 -2,30 -10,40 -44,95 -48.16,97.19 -28.84,60.81 -23,34 -68,49 -22.55,24.5 -5.88,11.72 -3.44,16.78 0.88,100.32 -3,58.69 3,28 10.81,35.07 10.3,58.93 12.59,63.18 43.94,91.54 12.97,28.02 4.38,16.26 5,29 -0.52,22.7 -5.96,16.83 -8.48,11.4 -12.04,8.08 -28,6 -54.17,7.04 -122.72,8.77 -117.76,1.85 -21.28,-5.47 -80.75,-57.95 -50,-15.17" />
  <path
     style="fill:none;stroke:#e3002b;stroke-width:5;stroke-linecap:butt;stroke-linejoin:round;stroke-miterlimit:4;stroke-dasharray:none;stroke-opacity:1"
     id="path3860"
     d="m 4283.77,327.98 9.18,35.92 26.05,82.1 45.42,198.64 16.25,94.28 7.53,14.78 18.27,92.3 2.81,20.79 12.8,158.24 6.6,27.97 13.31,44.57 21.99,59.43 89,231 43,115 6,31 2.97,156.45 4.19,93.7 24.84,137.85 11,76 8,97 12,55 61,102 19,47 -3.84,75.19 5.84,36.81 -1.53,56.68 -6.85,25.7 -46.38,94.49 -5.4,12.68 2.1,12.45 14.58,25.34 14.5,13.39 15.99,3.73 50.1,16.83 74.9,29.62 48.7,24.31 20.33,19.19 18.96,37.58 12,23 31,51 16,29 2.3,10.34 -2.03,10.35 -8.04,9.44 -65.23,29.88 -69,39 -79,34 -63.45,35.07 -93.55,43.93 -17.45,12.84 -12.8,15.59 -2.67,12.65 -0.1,59.95 -5.02,13.19 -40.95,61.79 -66.55,100.17 -6.41,14.74 -18.04,68.09 -10,67 -28.96,311.37 -3.69,55.74 -6.85,44.7 -19.57,35.68 -35.68,29.91 -51.82,25.6 -17.49,10.86 -184.93,204.14 -98,119 -114,132 -15.27,23.12 -45.28,73.93 -56.59,80" />
  <path
     style="fill:none;stroke:#944d9a;stroke-width:5;stroke-linecap:butt;stroke-linejoin:round;stroke-miterlimit:4;stroke-dasharray:none;stroke-opacity:1"
     id="path3862"
     d="m 3774.5,4655 -30.5,44 -4.97,19.8 -2.71,26.35 1.67,17.85 6,22 144,321 95,212 87,248 44,159 28,61 2,15 v 36 l 16,47 78,228 -7,35 -14,12 -659,200" />
  <path
     style="fill:none;stroke:#000000;stroke-width:5;stroke-linecap:butt;stroke-linejoin:round;stroke-miterlimit:4;stroke-dasharray:none;stroke-opacity:1"
     id="path3864"
     d="m 5157.02,2689.47 19.92,7 24.55,6.37 19.89,3.07 30.18,-0.97" />
  <path
     style="fill:none;stroke:#98d1c0;stroke-width:5;stroke-linecap:butt;stroke-linejoin:round;stroke-miterlimit:4;stroke-dasharray:none;stroke-opacity:1"
     id="path3771"
     d="m 6033.45,3263.22 159.55,14.28 46.5,19 31,27 23,25.5 20,34 47,213 23,93.5 60,159.5 31.5,59 14.5,38 29,97.5 46.5,170.5 32.5,87.5 20.5,53.5 42.5,146 17.5,85.5 15.45,116.69 15.03,178.5 6.52,90.81 24,166 52,251 41,143.5 13.5,46 21,37 24.5,22.5 29.43,16.67 41.02,13.51 188.5,10.01 154.15,-27.8 109.12,-35.79 44.21,-7.86 385.57,-15.74 433.5,13 36.8,-11.66 67.2,-33.34 42.5,-9 318.53,-14.5 135.47,15.5 190.55,-2.57 23.41,4.6 21.5,11.26 19.47,24.7 8.57,23.5 2.5,22 v 446 l 2,369.5 0.13,66.55 2.99,30.75 13.24,34.16 14.52,22.21 24.34,24.34 27.33,19.22 19.22,8.54 670.88,342.49 457.21,233.16 39.87,27.76 521.41,528.67" />
  <path
     style="fill:none;stroke:#461d84;stroke-width:5;stroke-linecap:butt;stroke-linejoin:round;stroke-miterlimit:4;stroke-dasharray:none;stroke-opacity:1"
     id="path3792"
     d="m 5651,3107 31,-63 23,-51 4,-24 -5,-29 -23.53,-56.38 -20.94,-19.41 -48.53,-32.2 -15,-25 -56.78,-119.18 -17.53,-149.35 -10.31,-28.2 -9.22,-25.53 -64.16,-102.73 -26.51,-20.75 -26.35,-9.5 -30.27,-3.59 -22.1,3.41 -195.93,41.44 -31.83,17.99 -36,32 -16.5,15.37 -40.2,19.23 -40.1,29.46 -40.57,25.35 -18.63,24.6 -46,28 -33,1 -282,-126 -33,1 -37,11 -22,11 -42,43 -42,51 -41,31 -132,88 -30,33 -17,41 -30,90 1,46 66,159 7,26 -6,59 v 44 l 60,177 9,28 79.6,123.01 13.92,14.09 34.5,28.92 24.64,3.4 41.13,-3.37 58.22,-22.06 31,-27 27.31,-22.55 112.69,-52.45 105.64,-46.49 14.36,-8.51 38,-27 26,-18 33,-15 82,-21 36,-12 59.1,-11.14 42.9,-1.86 22.93,-6.68 14.42,-10.44 88.65,-73.88 19.32,-18.28 37.13,-21.8 20.28,-13.65 45.54,-41.5 15.95,-8.35 12.94,-0.53 13.17,4.91 54.16,30.53 43.05,14.23 33.07,21.9 40.38,15.54 30.27,1.09 8.66,-6.3 7.08,-12.8 21,-47" />
  <path
     style="fill:none;stroke:#fcd600;stroke-width:5;stroke-linecap:butt;stroke-linejoin:round;stroke-miterlimit:4;stroke-dasharray:none;stroke-opacity:1"
     id="path3794"
     d="m 4365,4023 46,-32 38,-17 72,-23 37,-18 17,-17 8,-22 -2,-25 -19,-36 -12,-71 -17,-49 -14,-17 -68,-58 -35,-26 -35,-39 -32.5,-32.5 -90,-139.5 -10,-31 -59,-175 -0.5,-49.5 6.5,-54.5 -6.5,-24 -67.5,-160 -1,-47.5 30,-89 18,-44.5 31.5,-34 133.5,-88 41.5,-32 40.5,-50 42,-43 27.5,-13.5 36,-10 h 32.5 l 282,126 31,-1.5 42,-25.5 20,-25.5 43.5,-28 43,-31 10,-22 v -45 l -9,-66 1.27,-27.37 1.94,-40.16 -10.2,-65.46 1,-38 9,-23 18,-30 13,-48 3,-57 12,-134 12,-75 8,-118 -1,-258 2,-22 11,-18 136,-206 51.53,-101.54 20.27,-46.89 3.5,-18.98 0.7,-23.58 -8,-27 -71.43,-192.67 -35.4,-79.47 -14.79,-40.78 -9.38,-55.09 -71,-132 -83,-158 -35.35,-105.65 -10.81,-19.49 -22.34,-52.86 -22.5,-23.5 -22,-10 -23.5,-3 -50.31,12.03 -40.57,-2.52 -148.48,35.85 -22.14,-0.57 -39.54,-20.49 -99.45,-7.3" />
  <path
     id="path837"
     d="m 4238,6112 26.36,73.05 0.03,20.01 -6.76,27.03 4.68,22.87 59.77,129.93 41.58,68.08 34.3,92.51 100.83,268.18 51.97,195.63 1.58,18.29 48.75,188.23 31.24,101.27 11.14,58.76 6.1,14.75 10.87,17.12 12.99,14.03 15.59,12.99 13.39,6.39 12.54,1.85 19.28,-4.08 81.08,-22.87 77.83,-2.83 35.48,2.29 58.92,-0.26 26.04,-2.73 33.39,-6.63 67.95,-23.4 20.51,-1.93 16.87,6.77 17.03,27.1 28.28,112.51 10.22,45.92 22.54,114.41"
     style="opacity:1;fill:none;fill-rule:nonzero;stroke:#944d9a;stroke-width:5;stroke-linecap:butt;stroke-linejoin:round;stroke-miterlimit:4;stroke-dasharray:none;stroke-opacity:1" />
  <path
     id="path871"
     d="m 5447.81,5411.43 1.58,22.66 3.09,66.73 3.64,9.36 15.59,3.64 177.33,-12.49 6.12,2.07 4.7,6.26 18.7,63.44 4.68,44.97 0.53,83.37 7.8,93.55 24.44,172.55 -3.13,7.28 -11.43,3.64 -100.31,-4.68"
     style="opacity:1;fill:none;fill-rule:nonzero;stroke:#b3b3b3;stroke-width:5;stroke-linecap:butt;stroke-linejoin:round;stroke-miterlimit:4;stroke-dasharray:none;stroke-opacity:1" />
  <text
     style="font-style:normal;font-weight:normal;font-size:144px;line-height:125%;font-family:Sans;-inkscape-font-specification:Sans;letter-spacing:0px;word-spacing:0px;fill:#000000;fill-opacity:1;stroke:none"
     xml:space="preserve"
     id="text3866"
     y="7747.96"
     x="-10060.55"><tspan
       id="tspan2"
       y="7747.96"
       x="-10060.55">2025</tspan></text>
  <text
     style="font-style:normal;font-weight:normal;font-size:144px;line-height:125%;font-family:Sans;-inkscape-font-specification:Sans;letter-spacing:0px;word-spacing:0px;fill:#000000;fill-opacity:1;stroke:none"
     xml:space="preserve"
     id="text3870"
     y="-293.04"
     x="-10060.55"><tspan
       id="tspan1"
       y="-293.04"
       x="-10060.55">2025</tspan></text>
  <path
     id="path872"
     d="m -6466.18,170.89 -47.56,2.62 -20.99,7.22 -17.71,13.12 -9.51,14.43 -3.6,16.07 1.31,30.5 8.53,149.89 11.48,145.96 11.48,63.96 49.2,271.9 -0.33,24.6 -6.55,41 -13.12,76.42 v 20.99 l 8.2,52.15 17.71,45.59 12.79,57.4 9.84,20.01 34.44,22.63 11.48,10.17 9.19,12.79 21.65,87.57 12.14,16.4 21.32,10.5 52.48,19.68 8.86,9.19 7.54,21.98 2.62,21.65 12.14,86.92 9.19,57.73 12.79,68.22 16.07,131.52 34.44,241.73 17.05,122.67 21.98,175.8 3.93,147.27 1.64,175.47 -1.97,25.58 -16.07,62.97 4.26,39.36 7.55,41.98 17.05,46.58 21.65,58.71 4.59,19.36 7.88,69.2 -14.43,140.38 -0.98,38.05 3.6,19.36 40.67,73.8 11.81,33.79 16.07,51.82 27.55,99.71 2.95,32.8 -0.66,118.4 0.02,77.93 -3.43,13.16 -7.71,11.49 -11.44,11.2 -13.86,7.48 -60.01,2.73 -118.4,0.66 -8.86,2.62 -11.15,7.22 -7.22,8.2 -6.24,12.46 -74.13,225.66 -7.55,42.96 0.66,29.19 4.59,90.52 10.5,118.07 5.91,28.86 9.19,11.81 12.79,7.88 18.04,1.97 25.91,-0.33 240.74,-18.03 30.17,-6.56 123.65,-31.82 87.57,-16.07 81.99,-20.67 26.89,-1.64 442.13,1.31"
     style="fill:none;fill-rule:nonzero;stroke:#0072ce;stroke-width:5;stroke-linecap:butt;stroke-linejoin:round;stroke-miterlimit:4;stroke-dasharray:none;stroke-opacity:1" />
  <path
     id="path829"
     d="m -7517.44,646.78 83.03,90.45 6.18,13.31 2.88,14.59 -2.07,13.49 -9.96,15.21 -76.53,70.86 -6.12,12.81 -8.14,26.57 -4.93,25.64 1.9,15.85 45.2,95.82 16.74,37.65 9.32,23.24 1.68,27.8 2.02,33.65 28.35,230.67 -0.19,16.82 -9.39,23.01 0.11,19.01 4.72,17.53 10.39,14.17 12.69,6.31 26.26,-1.12 51.38,-4.24 42.75,-4.74 20.04,4.62 14.8,10.62 8.54,17.3 6.62,47.34 9.74,68.18 -1.85,21.34 -14.67,59.69 -5.34,19.24 -0.72,15.74 4.21,50.32 8.39,19.55 20.55,19.12 17.88,14.71 16.54,11.55 25.68,5.43 170.54,-12.21 19.95,1.39 13.91,9.28 6.96,10.21 8.82,19.95 10.21,32.94 70.05,185.08 12.52,37.57 6.5,38.04 2.78,30.61 2.32,92.3 8.53,14.32 29.88,27.5 25.43,23.78 16.66,12.05 12.04,3.84 19.48,1.13 23.43,-4.23 21.89,-6.05 15.84,-9.96 19.61,-24.55 8.69,-7.79 11.68,-5.1 61.92,-8.71 35.85,-4.51 22.75,-8.61 23.2,-17.79 15.54,-9.15 129.96,-18.84 126.63,-4.17 175.8,-10.21 h 62.16 l 91.88,-11.8 18.46,-3.18 29.81,-12.4 25.12,-5.53 54.14,0.32 44.13,10.89 29.12,0.37 45.68,-3.84 16.46,-6.28 10.35,-7.53 8.87,-14.29 1.28,-14.06 -3.33,-28.22 3.66,-26.71 27.87,-60.49 8.35,-19.02 7.43,-32.94 3.24,-49.63 2.78,-15.3 12.99,-30.15 10.67,-44.53 10.21,-46.85 5.56,-62.62 24.12,-221.71 v -31.07 l -6.03,-33.4 -20.41,-45.46 -5.56,-43.6 -7.72,-34.77 -13.39,-28.79 -28.15,-47.02 -11.52,-32.29 -6.03,-27.37 -0.46,-15.3 6.85,-16.18 9.9,-11.53 17.37,-12.85 20.38,-9.23 130.11,-30.91 59.38,-11.13 34.79,-13.91 72.36,-34.33 25.51,-2.78 21.8,7.43 14.84,17.16 20.88,19.49 12.52,6.03 19.02,-1.85 76.07,-19.95 31.07,-9.74 21.98,-16.65 15.16,-21.29 27.5,-47.35 12.81,-10.27 15.5,-5.15 66.86,-4.16 30.65,-7.22 143.48,-43.76 255.11,-106.68 101.58,-15.3 275.43,-40.05 72.3,-13.03 9.84,-7.11 6.29,-9.29 2.73,-9.57 -0.55,-67.79 -1.91,-43.46 3.55,-15.31 9.57,-9.29 16.68,-4.65 221.7,-4.1 35.54,-2.19 90.76,-13.67 168.39,-30.34 45.92,-11.75 50.85,-10.93 161.83,-23.24 97.86,0.27 138.32,-4.92 50.03,-0.82 27.61,4.92 58.77,15.58 35.54,2.73 145.98,-0.27 151.99,1.09 103.88,-2.73 28.16,2.19 106.88,13.39 33.9,-1.09 32.53,-3.01 75.45,-9.29 82.01,1.37 30.89,-1.64 100.87,-17.22 29.25,-3.01 124.11,-7.11 162.1,-1.91 326.12,-8.2 485.49,-4.37 22.42,5.74 15.86,11.48 10.11,14.49 4.37,12.57 3.01,15.58 v 115.36 l 7.65,22.96 12.57,34.44 5.19,16.13 1.64,26.79 0.82,344.44 -3.55,34.72 -5.74,25.15 -9.29,42.92 1.37,18.04 10.11,43.74 1.91,19.41 -3.83,15.31 -7.38,15.86 -9.02,11.75 -17.22,12.03 -62.6,28.98 -17.22,14.76 -10.66,20.78 -4.65,18.59 1.64,18.59 11.48,28.16 50.03,110.71 72.44,161.56 16.95,21.32 20.78,14.49 24.06,12.85 24.88,8.75 28.98,6.01 106.06,14.49 201.74,29.25 23.51,-3.28 17.5,-8.47 50.57,-30.62 14.76,-6.29 22.42,-2.46 89.12,-6.29 18.32,-3.55 14.76,-4.65 58.77,2.46"
     style="fill:none;fill-rule:nonzero;stroke:#ff8200;stroke-width:5;stroke-linecap:butt;stroke-linejoin:round;stroke-miterlimit:4;stroke-dasharray:none;stroke-opacity:1" />
  <path
     id="path817"
     d="m -5809.57,-357.91 -20.88,75.61 -64.94,82.1 -42.83,77.46 -47.29,79.59 -18.45,13.26 -20.77,10.38 h -23.07 l -74.98,-17.87 -20.19,0.58 -27.68,14.42 -21.34,23.07 -5.19,17.87 -1.15,49.02 -7.5,43.83 -16.15,269.33 -2.88,48.45 31.71,203.58 2.88,20.19 5.76,72.09 32.88,158.59 -5.2,22.49 -9.81,13.84 -20.19,10.38 -72.09,13.26 -81.04,6.12 -17.16,7.72 -10.58,8.66 -7.7,14.23 -2.69,13.66 40.17,245.47 2.5,18.46 -3.46,7.89 -7.69,5 -85.87,22.59 -21.6,9.51 -7.31,11.53 -3.08,10.38 -2.96,54.21 -6.84,11.15 -16.6,15.32 -14.44,42.72 -11.79,24.09 -8.96,12.13 -7.71,10.69 -5.91,23.56 8.13,74.49 12.88,119.58 -8.65,23.65 -17.97,18.24 -21.63,48.46 -3.76,15.71 -2.92,17.8 1.57,42.24 21.28,122.19 7.49,67.74 22.49,49.02 40.75,56.9 11.15,14.03 21.34,9.23 60.56,-6.34 17.3,0.19 16.15,7.89 7.5,12.3 2.12,32.88 3.07,78.24 -2.65,104.15 8.77,30 11.37,17.89 16.15,8.08 28.64,-0.96 207.04,1.15 19.25,1.12 18.48,5.61 70.12,33.64 12.69,1.15 55.94,4.03 78.52,4.65 19.02,-4.59 22.96,-7.22 19.02,0.66 171.21,18.36 101.68,7.22 116.76,7.22 204.27,-0.41 183.45,-12.79 24.6,-8.83 15.24,-14.18 10.71,-18.04 7.15,-30.37 10.5,-66.91 1.63,-9.55 5.06,-7 6.78,-5.75 13.79,-7.31 42.27,-9.1 101.68,-35.42 114.79,-45.27 57.73,-15.74 123.99,-54.92 18.86,-1.55 48.04,9.24 20.34,1.97 31.48,-1.97 81.99,-22.96 93.14,-16.4"
     style="fill:none;fill-rule:nonzero;stroke:#ef3340;stroke-width:5;stroke-linecap:butt;stroke-linejoin:round;stroke-miterlimit:4;stroke-dasharray:none;stroke-opacity:1" />
  <path
     id="path819"
     d="m -7611.87,2143.8 175.9,-26.53 143.03,-23.07 37.49,-5.19 47.32,-22.54 9.38,-8.9 4.58,-8.6 1.01,-10.13 -5.76,-69.2 -10.38,-156.29 5.76,-25.38 9.77,-12.5 19.45,-7.98 239.23,-25.83 64.25,-1.26 289.02,-38.36 158.59,-14.99 52.48,-4.03 104.39,-17.87 171.29,-38.06 38.64,-13.84 27.68,-3.46 38.06,-10.96 123.42,-29.99 393.33,-72.67 102.25,-20.71 148.05,-66.96 52.25,-6.06 63.19,0.47 69.27,10.87 564.46,-64.66"
     style="fill:none;fill-rule:nonzero;stroke:#78be20;stroke-width:5;stroke-linecap:butt;stroke-linejoin:round;stroke-miterlimit:4;stroke-dasharray:none;stroke-opacity:1" />
  <path
     style="fill:none;fill-rule:nonzero;stroke:#8b9471;stroke-width:1;stroke-linecap:butt;stroke-linejoin:round;stroke-miterlimit:4;stroke-dasharray:none;stroke-opacity:1"
     d="m -10003.03,1386.96 -5.43,-35.33 14.13,-83.16 1.09,-59.24"
     id="path1445" />
  <path
     style="fill:none;fill-rule:nonzero;stroke:#8b9471;stroke-width:5;stroke-linecap:butt;stroke-linejoin:round;stroke-miterlimit:4;stroke-dasharray:none;stroke-opacity:1"
     d="m -9993.24,1209.24 -2.17,-53.8 4.89,-9.24 54.35,-22.29 47.29,-18.47 71.2,-34.79"
     id="path1447" />
  <path
     style="fill:none;fill-rule:nonzero;stroke:#8b9471;stroke-width:1;stroke-linecap:butt;stroke-linejoin:round;stroke-miterlimit:4;stroke-dasharray:none;stroke-opacity:1"
     d="m -9817.69,1070.65 48.77,-24.07 26.52,-6.92 35.36,-2.69 116.83,-3.84 28.44,1.15 113.37,21.14 29.2,1.54 137.97,-13.07 24.6,2.3 29.2,6.92 45.35,16.91 27.67,7.31 65.71,14.22 52.26,18.44 32.67,10.76 101.84,46.89 399.29,204.07 65.33,25.75 20.76,15.37 39.58,8.84 100.31,18.83 72.25,15.37 16.52,0.77 27.67,-2.69 72.25,-17.67 38.81,-0.38 48.04,-1.15 43.81,-8.07 16.52,-3.46 4.99,2.3 v 26.13 l -1.54,35.36 -12.3,113.37 6.54,6.54 173.33,-11.15 74.94,4.61 54.57,-4.99 3.46,3.84 14.22,100.31 5.76,3.07 219.05,-25.36 5.38,3.84 18.84,155.26 5.76,4.61 151.8,-12.68"
     id="path2035" />
  <path
     style="fill:none;fill-rule:nonzero;stroke:#8b9471;stroke-width:1;stroke-linecap:butt;stroke-linejoin:round;stroke-miterlimit:4;stroke-dasharray:none;stroke-opacity:1"
     d="m -9163.65,1064.63 15.37,-111.07 v -37.66 l -2.69,-46.5 4.22,-6.14 43.81,-2.3 85.7,19.99 181.01,41.12"
     id="path2037" />
  <path
     style="fill:none;fill-rule:nonzero;stroke:#8b9471;stroke-width:5;stroke-linecap:butt;stroke-linejoin:round;stroke-miterlimit:4;stroke-dasharray:none;stroke-opacity:1"
     d="m -8836.22,922.06 41.12,6.14 36.89,14.6 24.6,8.46 52.26,49.96 12.68,5.76 25.75,7.69"
     id="path2039" />
  <path
     style="fill:none;fill-rule:nonzero;stroke:#8b9471;stroke-width:1;stroke-linecap:butt;stroke-linejoin:round;stroke-miterlimit:4;stroke-dasharray:none;stroke-opacity:1"
     d="m -8642.91,1014.67 33.44,11.53 42,6.24 14.44,-1.13 9.01,-5.23 5.43,-5.43 4.34,-9.79 0.54,-10.33 -2.17,-20.38 5.16,-40.76"
     id="path2041" />
  <path
     style="fill:none;fill-rule:nonzero;stroke:#8b9471;stroke-width:5;stroke-linecap:butt;stroke-linejoin:round;stroke-miterlimit:4;stroke-dasharray:none;stroke-opacity:1"
     d="m -8530.71,939.4 8.7,-43.75 6.53,-17.12 20.11,-32.61 1.63,-11.14 -2.99,-27.99 6.79,-26.36 9.79,-10.33 85.6,-71.47 20.11,-7.88 38.59,-13.59 102.72,-37.23 46.2,-8.43 194.57,-38.32 30.97,-5.97 34.51,-14.67 35.6,-0.54 9.51,-5.16 12.23,-8.97 7.88,-0.54 7.88,0.54 7.34,7.07 3.8,5.7 6.53,26.36 22.29,26.09 12.77,10.06 20.93,11.14 9.51,8.97 12.77,15.76 16.03,24.19 34.83,51.26 30.93,32.98 80.43,84.79"
     id="path2043" />
  <path
     style="fill:none;fill-rule:nonzero;stroke:#8b9471;stroke-width:1;stroke-linecap:butt;stroke-linejoin:round;stroke-miterlimit:4;stroke-dasharray:none;stroke-opacity:1"
     d="m -7595.63,862.21 23.64,21.74 39.13,25"
     id="path2045" />
  <path
     style="fill:none;fill-rule:nonzero;stroke:#8b9471;stroke-width:5;stroke-linecap:butt;stroke-linejoin:round;stroke-miterlimit:4;stroke-dasharray:none;stroke-opacity:1"
     d="m -7678.24,774.99 16.03,11.41 15.76,1.36 17.66,-1.36 8.7,-3.26 30.7,-29.07 33.43,-29.89"
     id="path2047" />
  <path
     style="fill:none;fill-rule:nonzero;stroke:#8b9471;stroke-width:1;stroke-linecap:butt;stroke-linejoin:round;stroke-miterlimit:4;stroke-dasharray:none;stroke-opacity:1"
     d="m -7555.95,724.18 33.16,-28.8 1.63,-5.43 -2.44,-5.43 -7.88,-8.7"
     id="path2049" />
  <path
     style="fill:none;stroke:#000000;stroke-width:5;stroke-linejoin:round;stroke-dasharray:none"
     d="m -9461.93,2996.93 27.62,61.86"
     id="path317" />
  <path
     style="fill:none;stroke:#3d688a;stroke-width:5;stroke-linejoin:round;stroke-opacity:1"
     d="m 2973.99,3374.65 1.79,79.93 11.11,202.87 -2.51,25.09 -18.28,72.04 0.72,22.94 8.6,37.28 13.26,32.26 127.96,234.77 110.04,199.29 219.72,346.6 8.96,15.41 12.9,28.32 53.05,140.15 17.56,41.22 17.92,25.45 17.56,17.92 29.75,18.28 30.47,12.9 32.98,8.6 37.63,1.43 37.63,-9.68 88.89,-31.18 368.11,-135.13 190.69,-58.07 34.41,-7.53 175.27,-19 144.09,-21.15 51.26,-18.64 40.14,-22.22 29.03,-29.03 78.5,-86.74 35.13,-27.24 30.47,-17.2 38.35,-14.34 45.52,-5.38 101.44,-16.85 127.96,-23.3 59.14,-13.98 270.98,-83.51 411.48,-123.66 44.8,-9.68 242.3,-28.67 36.2,2.15 60.93,11.47 33.33,-0.72 317.57,-37.64 514.35,-62.73 97.49,-11.47 41.58,-9.32 256.64,-79.93 37.28,-16.49 37.63,-24.37 119,-94.27 21.15,-15.41 27.24,-15.41 186.38,-80.65 350.55,-150.54 32.26,-7.89 156.63,-32.98 121.51,-20.07 44.8,3.23 41.94,8.96 55.56,13.26 52.33,30.11 45.16,37.64 29.03,28.67 19.71,30.47 149.11,248.04 13.62,31.18 7.17,19.36 49.46,153.05"
     id="path7" />
</svg>
