<?xml version="1.0" encoding="UTF-8" standalone="no"?>
<!-- Created with Inkscape (http://www.inkscape.org/) -->
<svg
   xmlns:dc="http://purl.org/dc/elements/1.1/"
   xmlns:cc="http://creativecommons.org/ns#"
   xmlns:rdf="http://www.w3.org/1999/02/22-rdf-syntax-ns#"
   xmlns:svg="http://www.w3.org/2000/svg"
   xmlns="http://www.w3.org/2000/svg"
   xmlns:xlink="http://www.w3.org/1999/xlink"
   version="1.1"
   width="18050"
   height="20550"
   viewBox="-4650 -7450 18050 20550"
   id="svg2">
  <metadata
     id="metadata8">
    <rdf:RDF>
      <cc:Work
         rdf:about="">
        <dc:format>image/svg+xml</dc:format>
        <dc:type
           rdf:resource="http://purl.org/dc/dcmitype/StillImage" />
        <dc:title></dc:title>
      </cc:Work>
    </rdf:RDF>
  </metadata>
  <defs
     id="defs6" />
  <image
     xlink:href="lonosm.png"
     style="display:none"
     id="image12"
     height="20602.4"
     width="18289.88"
     y="-7482.57"
     x="-4725.03" />
  <text
     x="-4560.55"
     y="-7243.04"
     id="text3019"
     xml:space="preserve"
     style="font-size:144px;font-style:normal;font-weight:normal;line-height:125%;letter-spacing:0px;word-spacing:0px;fill:#000000;fill-opacity:1;stroke:none;font-family:Sans;-inkscape-font-specification:Sans"><tspan
       x="-4560.55"
       y="-7243.04"
       id="tspan1">1845</tspan></text>
  <text
     x="-4560.55"
     y="12997.96"
     id="text3019-6"
     xml:space="preserve"
     style="font-size:144px;font-style:normal;font-weight:normal;line-height:125%;letter-spacing:0px;word-spacing:0px;fill:#000000;fill-opacity:1;stroke:none;font-family:Sans;-inkscape-font-specification:Sans"><tspan
       x="-4560.55"
       y="12997.96"
       id="tspan2"></tspan></text>
  <path
     d="m 3981.5,2354 44.5,13.49 15.5,-0.49 20,-1.5 54.5,-4.5 48,-6.5 34,-2 71.5,-3.5 77,-4.5 25.5,-0.5 23,3 42,15 29,15.5 22.5,15.5 21,10 11.5,2.5 15,-2 13,4.5 32.5,7 10,2.5 31,-1.5 17,-0.5 39.5,-8.5 36,1.5 26,-8.5"
     id="path4319"
     style="fill:none;stroke:#00afa9;stroke-width:5;stroke-linecap:butt;stroke-linejoin:round;stroke-miterlimit:4;stroke-opacity:1;stroke-dasharray:none" />
  <path
     d="m 3922.5,2461 21,17.5 36,31 90.5,77 68,49.5 91.5,64.5 94,62 38,22.5 109.5,65.5 25,10.5 46.5,6.5 55,4.26"
     id="path4595-7"
     style="fill:none;stroke:#8bb7e0;stroke-width:5;stroke-linecap:butt;stroke-linejoin:round;stroke-miterlimit:4;stroke-opacity:1;stroke-dasharray:none" />
</svg>
