<?xml version="1.0" encoding="UTF-8" standalone="no"?>
<svg
   version="1.1"
   width="4500"
   height="2750"
   viewBox="-45 -500 4500 2750"
   id="svg2"
   xml:space="preserve"
   xmlns:xlink="http://www.w3.org/1999/xlink"
   xmlns="http://www.w3.org/2000/svg"
   xmlns:svg="http://www.w3.org/2000/svg"
   xmlns:rdf="http://www.w3.org/1999/02/22-rdf-syntax-ns#"
   xmlns:cc="http://creativecommons.org/ns#"
   xmlns:dc="http://purl.org/dc/elements/1.1/"><metadata
     id="metadata8"><rdf:RDF><cc:Work
         rdf:about=""><dc:format>image/svg+xml</dc:format><dc:type
           rdf:resource="http://purl.org/dc/dcmitype/StillImage" /></cc:Work></rdf:RDF></metadata><defs
     id="defs6" /><image
     xlink:href="../basemap/prgosm.png"
     id="image10"
     height="3031.99"
     width="4764.56"
     y="-650.28"
     x="-216.57"
     style="display:none" /><path
     id="path2781-7"
     d="m 1758.64,1033.66 157.98,-52.74 5.37,-0.48 3.14,2.35 1.44,5.75"
     style="fill:none;fill-rule:nonzero;stroke:#7b2c1d;stroke-width:1;stroke-linecap:butt;stroke-linejoin:round;stroke-miterlimit:4;stroke-dasharray:none;stroke-opacity:1" /><path
     d="m 2307.32,143.13 -1.74,44.49 -9.34,25.63 -11.11,14.76 -13.67,12.11 -29.23,19.9 -24.33,11.44 -20.18,3.36 -25.68,-3.98 -35.9,-27.15 -105.33,-123.89 -24.04,-24.75 -19.8,-6.36 -18.38,-2.12 -26.16,9.34 -60.81,25.31 -36.77,4.95 -64.35,4.95 -31.82,3.54 -38.89,17.68 -49.5,22.63 -23.33,2.83 -36.77,0.71 -32.53,5.66 -27.58,14.85 -18.38,24.04 -12.73,28.99 -1.27,44.89 6.27,27.03 18.33,32.73 29.7,48.79 6.62,17.05 2.74,16.84 -4.05,14.72 -14.47,21.93 -11.19,22.8 -2.97,19.09 4,43.78 18.32,43.53 2.97,17.19 -1.41,16.57 -18.21,57.13 -14.86,41.06 -22.5,30.96 -24.5,46.69 -26.66,35.91 -3.33,11.32 0.02,14.27 6.98,46.76 0.71,79.2 2.12,108.89 -4.92,35.45 4.04,14.96 5.98,11.21 28.85,31.01 55.71,79.2 16.38,26.58 74.28,78.78 28.84,17.89 48.23,13.23 58.69,13.29 36.32,6.16 52.07,24.4 72.24,38.14 58.1,32.77 54.22,44.35 31.82,21.92 39.04,23.24 26.43,11.85 24.8,7.75 22.64,3.45 33.12,-5.28 58,-11.26 56.33,-17.86 50.32,-14.32 32.55,-6.51"
     id="path3757"
     style="fill:none;stroke:#de4344;stroke-width:5;stroke-linecap:butt;stroke-linejoin:round;stroke-miterlimit:4;stroke-dasharray:none;stroke-opacity:1" /><path
     d="m 81.32,1239.85 38.18,55.15 24.2,39.71 17.59,12.24 24.55,4.71 37.83,0.23 64.12,-6.69 42.34,-7.43 22.36,4.68 35.53,25.22 25.07,18.38 25.46,4.3 34.27,-4.36 29.96,-8.28 21.18,-13.44 10.61,-16.26 12.73,-26.87 12.73,-12.02 24.75,-7.78 93.34,-12.73 114.58,-15.21 17.29,-7.38 29.32,-19.14 44.72,-20.5 54.45,-23.12 45.99,-28.54 18.24,-5.87 21.64,1.34 39.07,11.24 27.17,22.69 22.35,18.38 17.4,5.18 17.6,-0.66 72.98,-13.27 16.12,-10.09 8.35,-8.84 6.73,-29.81 -3.82,-59.2 -4.16,-14.43 -11.95,-15.93 -25.84,-23.07 -7.67,-14.17 -2.83,-20.97 3.29,-30.29 2.04,-10.77 6.44,-15.56 12.1,-14.45 16.07,-6.97 17.65,-1.81 37.11,5.51 11.41,-3.2 11.32,-5.56 30.91,-24.67 10.12,-15.3 5.17,-17.58 1.58,-48.1 6.58,-17.91 7.21,-11.82 17.61,-11.46 21.42,-20.09 11.62,-26.94 5.72,-12.5 9.32,-10.7 20.01,-13.15 40.83,-21.16 17.25,-4.49 30.26,1.46 48.11,-6.27 105.34,-40.74 47.39,-29.93 56.91,-36.88 20.28,-20.78 34.23,-45.39 13.2,-17.2 22.1,-13.53 28.99,-11.93 27.91,-2.95 36.23,5.66 30.43,0.47 38.4,-17.68 41.55,-22.54 19.23,-20.24 34.65,-24.04 26.26,-7.75 23.22,-0.79 45.71,6.45 52.1,-1.45 71,1.32 17.17,5.37 44.71,32.5 19.26,9.39 49.88,9.41 21.21,4.24 99,-7.78 20.58,-0.35 37.69,8.98 24.74,0.42 36.49,-7.63 65.05,-16.26 113.14,-20.51"
     id="path2987"
     style="fill:none;stroke:#f5c43c;stroke-width:5;stroke-linecap:butt;stroke-linejoin:round;stroke-miterlimit:4;stroke-dasharray:none;stroke-opacity:1" /><path
     d="m 2297.93,908.14 -6.19,22 -3.54,15.56 4.24,16.97 -12.02,33.94 -20.51,15.56 -23.83,4.09 -46.1,2.03 -19.55,-0.97 -19.13,-6.27 -31.86,-16.37 -75.18,-54.59 -89.11,-49.55 -52.33,-24.04 -21.21,-8.79 -22.41,-2.01 -105.07,13.21 -62.71,-2.15 -17.84,2.93 -32.06,12.72 -27.91,20.06 -21.84,8.48 -56.65,0.8 -17.72,-3.28 -8.81,-6.25 -9.98,-12.55 -15.27,-27.77 -25.25,-32.94 -43.19,-27.53 -27.6,-36.67 -15.41,-30.91 -12.74,-9.49 -21.82,-9.86 -28.55,-10.05 -31.68,-6.04 -9.65,-7.87 -11.64,-17.79 -10.05,-31.76 -11.09,-34.68 -8.98,-16.61 -14.86,-12.55 -28.3,-6.8 -17.86,-10.13 -14.84,-21.48 -18.38,-12.65 -20.58,-1.81 -25.46,1.41 -153.87,11.98 -130.66,17.45 -37.4,6.48 -25.51,2.13 -31.48,3.25 -23.16,7.93 -22.59,13.65 -28.74,19.98 -21.84,28.68 -7.07,25.28 -0.19,19.78 6.98,31.42 34.91,86.63 2.61,27.51 -7.62,30.79 -12.35,22.78 -14.06,12.82 -10.97,6.98 -29.08,13.94"
     id="path3759"
     style="fill:none;stroke:#25b173;stroke-width:5;stroke-linecap:butt;stroke-linejoin:round;stroke-miterlimit:4;stroke-dasharray:none;stroke-opacity:1" /><path
     d="m 1126.5,809.5 41,-8.5 14,-2.5 14.5,0"
     id="path3761"
     style="fill:none;stroke:#a2bc38;stroke-width:5;stroke-linecap:butt;stroke-linejoin:round;stroke-miterlimit:4;stroke-opacity:1;stroke-dasharray:none" /><text
     x="44.45"
     y="-293.04"
     id="text3767"
     xml:space="preserve"
     style="font-size:144px;font-style:normal;font-weight:normal;line-height:125%;letter-spacing:0px;word-spacing:0px;fill:#000000;fill-opacity:1;stroke:none;font-family:Sans;-inkscape-font-specification:Sans"><tspan
       x="44.45"
       y="-293.04"
       id="tspan1">2025</tspan></text><path
     style="opacity:1;fill:none;fill-rule:nonzero;stroke:#7b2c1d;stroke-width:5;stroke-linecap:butt;stroke-linejoin:round;stroke-miterlimit:4;stroke-dasharray:none;stroke-opacity:1"
     d="m 1271.25,2032.34 -53.52,3.24 -9.08,-1.46 -4.7,-2.92 -2.59,-4.54 -13.3,-50.27 -0.81,-10.54 4.87,-10.22 0.97,-11.03 -2.76,-20.6 -2.59,-18 -7.14,-24.49 -2.11,-38.43 0.49,-21.73 6,-35.03 10.7,-52.06 2.43,-26.11 -0.97,-57.41 6,-16.87 19.62,-28.7 17.19,-20.27"
     id="path853" /><path
     style="opacity:1;fill:none;fill-rule:nonzero;stroke:#7b2c1d;stroke-width:1;stroke-linecap:butt;stroke-linejoin:round;stroke-miterlimit:4;stroke-dasharray:none;stroke-opacity:1"
     d="m 1271.25,2032.34 14.27,-1.62 19.46,-6.16 13.95,-9.08 24.65,-16.38 17.03,-9.57 13.78,-0.81 45.41,-20.76 11.03,-2.76 11.03,0.81 26.6,15.89 8.27,4.05 13.62,3.57 30.16,-0.16 15.18,-4.58 19.06,-9.42 29.01,-10.69 15.57,-1.27 18.86,2.69 20.84,5.17 17.38,2.08 50.7,3.45 3.52,-3.37 1.34,-25.34 -1.74,-18.6"
     id="path886" /><path
     style="opacity:1;fill:none;fill-rule:nonzero;stroke:#7b2c1d;stroke-width:1;stroke-linecap:butt;stroke-linejoin:round;stroke-miterlimit:4;stroke-dasharray:none;stroke-opacity:1"
     d="m 1239.95,1584.91 6.16,-13.62 -0.97,-11.03 -7.62,-12.16 -8.6,-14.27 -1.78,-9.24 1.14,-9.24 8.11,-23.19 16.38,-34.06 4.05,-18 8.11,-10.54 38.11,-96.98 37.46,-106.71 8.43,-28.54 3.41,-23.68 -0.65,-19.95 -3.89,-18.97 -7.14,-14.43 -7.3,-7.62 -9.73,-7.62 -1.78,-3.73 -3.24,-11.35 -4.22,-13.95 -14.6,-115.3 -2.92,-48.49 5.84,-30.49 -4.54,-36.81 -6.81,-16.54 -1.62,-10.54 0.81,-18.49 3.24,-28.7 16.05,-44.11 6.16,-28.06 3.41,-10.87 1.78,-6.16 6.32,-11.19 9.57,-6.81 0.16,-5.19 -13.14,-28.87 0.81,-2.76 6,-3.24 40.06,-8.6 22.54,-2.92 5.84,-5.35 5.19,-1.78 13.3,-0.32 31.3,-9.08 8.92,-1.95 10.05,-3.24 12.65,-6 7.78,-17.03 0.81,-45.41 -4.22,-23.51 -11.84,-24.81 0.65,-7.14 24.33,-22.06 11.35,-13.78 9.08,-6.81 7.14,-18.81 5.68,-18.81 -2.43,-11.19 -7.95,-13.95 -8.76,-30.16 -8.6,-37.95 -3.41,-3.89 -10.22,-3.24 -2.43,-4.54 -0.65,-15.57 3.57,-10.38 6.97,-9.41 9.57,-9.08 8.6,-5.84 12.97,-6.81 29.84,-6.65 55.95,-18.16 31.95,-5.51 20.27,-0.16 12,0.65 25.46,4.54 3.24,-1.78 6.65,-15.89 -0.49,-7.46 -2.59,-7.14 3.08,-9.73 10.7,-18.16 v -7.62 l -37.46,-96.17 2.59,-8.11"
     id="path888" /><path
     style="opacity:1;fill:none;fill-rule:nonzero;stroke:#7b2c1d;stroke-width:5;stroke-linecap:butt;stroke-linejoin:round;stroke-miterlimit:4;stroke-dasharray:none;stroke-opacity:1"
     d="m 893.4,1559.45 18.49,-17.51 8.6,-8.6 5.03,-4.54 7.14,-1.78 8.27,1.95 24.33,10.7 7.14,1.14 8.92,-1.78 6.32,-5.51 16.54,-18.16 12.65,-7.14 11.68,-2.11 11.51,-0.49"
     id="path892" /><path
     style="opacity:1;fill:none;fill-rule:nonzero;stroke:#7b2c1d;stroke-width:1;stroke-linecap:butt;stroke-linejoin:round;stroke-miterlimit:4;stroke-dasharray:none;stroke-opacity:1"
     d="m 893.4,1559.45 -6,4.54 -30.81,19.3 -15.24,2.43 -44.97,6.82 -6.25,3.21 -6.11,7.89 -50.95,66.99 -6.44,4.7 -37.03,15.9 -4.05,4.39 -6.6,11.03"
     id="path894" /><path
     style="opacity:1;fill:none;fill-rule:nonzero;stroke:#7b2c1d;stroke-width:1;stroke-linecap:butt;stroke-linejoin:round;stroke-miterlimit:4;stroke-dasharray:none;stroke-opacity:1"
     d="m 1040,1505.61 8.76,2.11 43.46,8.92 h 19.46 l 18.81,-5.03 23.03,-9.57 19.95,-14.76 11.84,-14.27 12.49,-30.65 9.41,-24.49 5.03,-10.7 10.54,-7.62 3.89,-6.32 13.78,-41.03 4.87,-27.08 0.65,-14.76 8.11,-8.92 0.16,-6.32 -2.92,-9.57 -3.08,-48.81 0.81,-18.81 7.46,-54.81 -1.95,-16.05 -3.24,-44.6 -23.68,-78 -24.33,-54.16 -1.95,-6.49 1.46,-2.43 92.6,-14.92 3.41,-3.73"
     id="path896" /><path
     style="opacity:1;fill:none;fill-rule:nonzero;stroke:#7b2c1d;stroke-width:1;stroke-linecap:butt;stroke-linejoin:round;stroke-miterlimit:4;stroke-dasharray:none;stroke-opacity:1"
     d="m 1295.42,946.45 47.52,-11.03 2.92,-3.57 3.08,-26.92 2.11,-1.46 134.44,6.49 20.6,-0.32 2.76,1.46 1.62,3.73 3.24,1.95 h 14.43 l 41.19,28.22 22.38,12.97 30,5.35 38.6,-1.14 1.95,1.78 8.43,16.87 v 6.32 l -1.78,8.92 1.46,3.57 23.19,7.3 18.81,0.81 22.87,11.68 m 23.4,14.23 -3.46,-1.1 -4.54,-10.05 -10.7,-0.65 -4.7,-2.43"
     id="path898" /><path
     style="opacity:1;fill:none;fill-rule:nonzero;stroke:#7b2c1d;stroke-width:1;stroke-linecap:butt;stroke-linejoin:round;stroke-miterlimit:4;stroke-dasharray:none;stroke-opacity:1"
     d="m 1221.94,1011.17 -2.06,3.67 -34.4,8.49 -2.29,2.98 15.6,48.16 7.8,11.24 v 8.03 l 2.52,8.26 -0.46,3.67 -18.12,8.94 -29.13,11.01 -26.6,3.9 -9.4,3.21 -17.2,10.55 -15.82,12.16 -8.03,2.98 -25,0.92 -7.8,4.82"
     id="path900" /><path
     style="opacity:1;fill:none;fill-rule:nonzero;stroke:#7b2c1d;stroke-width:1;stroke-linecap:butt;stroke-linejoin:round;stroke-miterlimit:4;stroke-dasharray:none;stroke-opacity:1"
     d="m 1201.36,963.8 -2.81,-16.84 -0.23,-34.17 1.83,-10.55 2.06,-15.6 -0.23,-19.49 -0.23,-8.49 5.96,-12.16 v -3.9 l -2.52,-17.89 -0.23,-42.43 -1.61,-12.84 -1.15,-19.95 -4.59,-16.74 0.23,-9.17 5.96,-4.59 0.69,-7.57 3.9,-3.21 13.53,-0.92 4.13,-1.83 7.57,-12.61 5.96,-7.34 20.18,-0.23 1.38,-1.61 -8.72,-35.09 -2.29,-4.59 -4.36,-2.98 -21.25,2.82 -1.78,-1.46 -0.49,-2.27 1.46,-2.27 24,-4.7 3.73,-1.78 2.76,-5.19 -0.16,-9.08 -5.68,-15.73 -12.49,-30.97 1.78,-3.24 129.25,-29.19 16.54,-5.84 15.41,0.32 15.41,-0.49 26.92,5.68 48.98,12.32 9.73,0.49 6.49,-3.57 19.78,-5.51 7.3,0.65 17.51,13.78 h 32.76 l 4.38,2.92 26.6,0.49 16.22,-2.76 19.78,-5.68 4.22,-2.76 -3.24,-128.28 -1.46,-4.22 -99.9,-10.22 -23.19,5.35 -4.54,1.95"
     id="path902" /><path
     style="opacity:1;fill:none;fill-rule:nonzero;stroke:#7b2c1d;stroke-width:1;stroke-linecap:butt;stroke-linejoin:round;stroke-miterlimit:4;stroke-dasharray:none;stroke-opacity:1"
     d="m 1764.39,872.5 112.55,-8.42"
     id="path47630" /><path
     style="opacity:1;fill:none;fill-rule:nonzero;stroke:#7b2c1d;stroke-width:1;stroke-linecap:butt;stroke-linejoin:round;stroke-miterlimit:4;stroke-dasharray:none;stroke-opacity:1"
     d="m 1302.71,881.74 2.27,-3.08 18.97,-1.95 19.3,-7.3 7.31,-3.71 2.03,-2.82 0.47,-9.36 1.78,-1.76 22.4,1.21 13.2,-12.27 30.16,-42.33 29.03,-30.16 16.87,-12.97 32.6,-11.19 19.62,8.92 6.97,-1.3 9.08,-7.14 6.32,0.81 16.87,12.49 7.78,1.78 12.32,0.49 30,2.92 79.95,14.76 15.57,20.43 16.05,4.22 20.92,-3.24 48.02,-9.18 66.34,-17.21 2.34,-2.91"
     id="path906" /><path
     style="opacity:1;fill:none;fill-rule:nonzero;stroke:#7b2c1d;stroke-width:1;stroke-linecap:butt;stroke-linejoin:round;stroke-miterlimit:4;stroke-dasharray:none;stroke-opacity:1"
     d="m 1235.9,570.38 -4.22,-2.11 -25.62,5.68 -20.43,7.14 -23.19,12.49 -20.92,10.87 -9.57,3.89 -4.05,-1.62 -7.3,-12.32 -4.22,-64.06 -5.03,-3.08 -26.21,1.47 -153.96,12 -130.13,17.36 -40.96,6.96 -37.79,7.62 -241.15,65.52 -29.19,5.51 -12.16,1.78 -13.49,0.56 -28.76,-1.44 -4.49,0.61 -60.91,24.83 -53.59,13.14 -6.02,5.01 -41.15,41.48 -4.31,0.82 -41.03,-43.99"
     id="path908" /><path
     id="path906-3"
     d="m 1472.13,753.32 2.65,-4.88 7.14,-27.08 -1.46,-28.22 1.95,-2.76 21.89,-5.03 9.41,-3.57 9.89,-4.87 0.49,-3.41"
     style="opacity:1;fill:none;fill-rule:nonzero;stroke:#7b2c1d;stroke-width:1;stroke-linecap:butt;stroke-linejoin:round;stroke-miterlimit:4;stroke-dasharray:none;stroke-opacity:1" /><path
     style="opacity:1;fill:none;fill-rule:nonzero;stroke:#7b2c1d;stroke-width:5;stroke-linecap:butt;stroke-linejoin:round;stroke-miterlimit:4;stroke-dasharray:none;stroke-opacity:1"
     d="m 1524.07,673.52 -3.19,-6.93 -0.11,-5.27 1.38,-5.73 4.13,-3.67 2.41,-3.9 0.46,-5.85 -3.33,-30.04 1.03,-51.26 3.21,-16.51 4.11,-1.32 14.59,11.07"
     id="path2186" /><path
     style="opacity:1;fill:none;fill-rule:nonzero;stroke:#7b2c1d;stroke-width:1;stroke-linecap:butt;stroke-linejoin:round;stroke-miterlimit:4;stroke-dasharray:none;stroke-opacity:1"
     d="m 1352.6,862.89 0.29,14.8 -3.96,27.24"
     id="path2779" /><path
     style="opacity:1;fill:none;fill-rule:nonzero;stroke:#7b2c1d;stroke-width:1;stroke-linecap:butt;stroke-linejoin:round;stroke-miterlimit:4;stroke-dasharray:none;stroke-opacity:1"
     d="m 1345.85,931.85 -3.73,10.7 -2.43,15.89 7.78,18 5.51,7.95 17.03,44.92 3.89,10.22 20.92,24.49 11.19,5.68 77.68,-0.81 6.81,-5.51 2.76,-0.81 14.6,8.6 8.43,1.62 14.76,2.76 4.05,-0.49 15.73,-9.08 3.57,0.97 4.38,10.05 29.03,21.73 6.97,4.7 18.16,15.89 32.6,20.6 3.89,3.57 1.78,4.87 1.14,20.76 21.41,52.06 4.22,4.38 7.14,-0.32 36,-11.35 18.81,-11.51 14.92,-6.16 9.73,0.49 16.54,5.51 8.43,-0.32 37.14,-6.97 32.11,-1.46 4.38,1.62 1.95,3.41 12.16,39.08 5.51,7.14 38.43,32.43 3.73,2.92 3.57,0.32 1.95,-2.27 9.41,-13.3 2.59,-0.49 h 4.05 l 2.43,1.3 21.57,21.57"
     id="path2781" /><path
     id="path3541"
     d="m 1917.82,101.05 24.97,-10.38 10.87,-4.05 3.57,-5.84 -0.81,-10.7 -4.87,-12.16"
     style="opacity:1;fill:none;fill-rule:nonzero;stroke:#7b2c1d;stroke-width:5;stroke-linecap:butt;stroke-linejoin:round;stroke-miterlimit:4;stroke-dasharray:none;stroke-opacity:1" /><path
     id="path3539"
     d="m 1721.79,143.57 26.03,-11.81 96.55,-8.49 36.47,-4.93 41.65,-16.95"
     style="opacity:1;fill:none;fill-rule:nonzero;stroke:#7b2c1d;stroke-width:1;stroke-linecap:butt;stroke-linejoin:round;stroke-miterlimit:4;stroke-dasharray:none;stroke-opacity:1" /><path
     id="path3609"
     d="m 1951.56,57.92 -8.35,-19.14 -0.16,-4.78 7.54,-7.22"
     style="opacity:1;fill:none;fill-rule:nonzero;stroke:#7b2c1d;stroke-width:1;stroke-linecap:butt;stroke-linejoin:round;stroke-miterlimit:4;stroke-dasharray:none;stroke-opacity:1" /><path
     id="path3611"
     d="m 1707.49,196.9 -0.03,2.86 7.68,8.49 12.27,6.88 15.71,11.7 9.86,2.52 47.93,10.32 10.32,6.99 7.91,9.75 10.09,23.74 7.8,11.35 21.79,21.9 5.62,1.95 6.42,-0.46 15.14,-4.7 9.63,-0.34 8.49,3.1 7.34,8.72 0.69,7.91 -2.75,8.49 -5.85,6.99 -10.78,12.5 -17.66,13.19 -2.41,4.36 v 3.9 l 0.92,16.17 -1.49,15.82 3.67,14.22 6.88,45.3 1.15,9.98 1.49,21.44 2e-4,11.12 -4.59,8.03 1.42,8.76 0.32,14.76 3.89,11.68 8.43,11.03 6.97,16.05 1.95,10.7 -0.81,6.97 -3.57,7.14 -8.76,7.62 -43.79,29.84 -4.87,4.38 -4.54,5.84 -6.97,17.84 0.32,8.27 17.03,50.27 32.27,127.95 -3.08,3.89"
     style="opacity:1;fill:none;fill-rule:nonzero;stroke:#7b2c1d;stroke-width:1;stroke-linecap:butt;stroke-linejoin:round;stroke-miterlimit:4;stroke-dasharray:none;stroke-opacity:1" /><path
     id="path3628"
     d="m 1764.41,872.5 -3.08,2.92 5.84,28.54 -3.41,3.08 -170.87,6.77 -45.9,0.59 -1.91,1.94 0.23,9.29 -1.72,1.38"
     style="opacity:1;fill:none;fill-rule:nonzero;stroke:#7b2c1d;stroke-width:1;stroke-linecap:butt;stroke-linejoin:round;stroke-miterlimit:4;stroke-dasharray:none;stroke-opacity:1" /><path
     id="path3630"
     d="m 1202.82,961.37 -19.14,3.24 -26.6,1.62 -9.24,-1.3 -14.92,-6.81 -19.46,-0.97 -30.65,2.59 -140.6,27.73 -18.33,-1.46 -14.27,3.41 -12.32,2.92 -33.57,-0.16 -54,6.16 -49.79,2.59 -66,18.33 -10.87,0.97 -196.71,10.7 -22.06,9.57 -18.97,3.73 -21.41,15.08 -12.97,5.84 -9.57,2.11 -27.08,-0.16 -18.65,4.87 -14.43,9.08 -19.78,15.08 -10.22,5.03 -5.35,-0.65 -24.65,-19.46 -6.16,-3.08 -16.38,-0.32 -7.78,-2.92 -16.22,-13.95 -4.38,-1.78 -48.65,-0.81 -19.14,10.38"
     style="opacity:1;fill:none;fill-rule:nonzero;stroke:#7b2c1d;stroke-width:1;stroke-linecap:butt;stroke-linejoin:round;stroke-miterlimit:4;stroke-dasharray:none;stroke-opacity:1" /><path
     style="fill:none;stroke:#7b2c1d;stroke-width:1;stroke-linejoin:round;stroke-dasharray:none;stroke-opacity:1"
     d="m 1831.72,684.91 1.74,-4.98 64.26,-18.05 2.59,1.2 2.06,9.24"
     id="path48421" /><path
     style="fill:none;stroke:#7b2c1d;stroke-width:1;stroke-linejoin:round;stroke-dasharray:none;stroke-opacity:1"
     d="m 1295.42,946.47 3.66,2.5"
     id="path55254" /><path
     style="fill:none;fill-rule:nonzero;stroke:#7b2c1d;stroke-width:1;stroke-linecap:butt;stroke-linejoin:round;stroke-miterlimit:4;stroke-dasharray:none;stroke-opacity:1"
     d="m 1883.68,479.18 1.19,-2.18 47.81,-21.75 2.98,1.49 9.06,18.23 3.44,0.57 126.14,-69.26 58.48,-30.62 25.34,-8.72 10.55,-7.34 15.69,-0.11 36.03,10.12 99.21,-0.21 100.91,6.15 3.15,3.75 2.85,43.18 5.4,10.95 3.9,25.79 4.3,2.89 84.32,-30.69 97.76,-7.82"
     id="path2777-5" /><path
     id="path11569"
     d="m 1524.09,673.5 3.11,1.92 20.4,-8.89 17.19,-7.46 179.36,-61.62 8.27,-3.41 89.84,-52.22 13.78,-8.11 17.03,-12.97 10.22,-10.54 1.95,-5.51"
     style="fill:none;fill-rule:nonzero;stroke:#7b2c1d;stroke-width:1;stroke-linecap:butt;stroke-linejoin:round;stroke-miterlimit:4;stroke-dasharray:none;stroke-opacity:1" /><path
     style="fill:none;stroke:#7b2c1d;stroke-width:1;stroke-linejoin:round;stroke-opacity:1;stroke-dasharray:none"
     d="m 1523.6,676.91 3.6,-1.49"
     id="path1" /><path
     style="fill:none;stroke:#009ee0;stroke-width:5;stroke-linejoin:round;stroke-opacity:1"
     d="m 1518.71,788.27 -26.72,56.2 -2.97,12.3 -1.23,16.42 8,36.61 28.43,99.44 8.69,14 11.24,10.81 25.45,12.94 134.23,62.13 21.84,4.45 17.39,-3.82 12.94,-7.85 48.99,-36.05 16.33,-7.85 21.84,-3.6 25.66,4.45 84.19,21.42 56.2,11.66 77.4,4.67 128.3,21.63 73.16,2.54 21.84,2.76 20.78,8.69 19.3,17.81 17.18,25.87 18.45,20.99 16.96,10.82 22.27,8.06 19.3,3.39 133.6,6.57 86.73,4.45 25.45,7.85 20.57,12.09 17.81,15.9 58.53,58.32 76.55,75.49 155.44,126.18 78.46,63.83 14,15.06 8.06,12.72 40.72,76.55 12.72,15.27 14.21,11.66 152.68,91.19 15.06,11.66 43.47,39.66 16.96,11.24 25.24,14.42 23.33,11.03 23.11,6.15 44.32,9.54 19.3,9.75 12.94,11.88 8.48,11.24 5.94,13.78 9.33,19.09 8.27,12.72 13.78,12.51 12.51,8.06 102.85,61.29 18.24,14.63 21.84,17.81"
     id="path2" /><path
     style="fill:none;stroke:#009ee0;stroke-width:5;stroke-linejoin:round;stroke-opacity:1"
     d="m 2163.79,520.87 37.96,8.48 25.02,2.33 23.33,-1.48 43.9,-8.69 14.84,1.06 24.17,4.67 71.68,39.87 16.12,5.51 25.24,2.76 30.54,-3.61 52.59,-9.33 27.57,2.12 23.33,8.06 16.96,9.75 56.2,52.8 20.36,11.45 156.71,66.37 31.38,12.3 190.85,79.1 18.66,4.45 29.69,-0.42 184.28,-24.6 81.22,-8.27 39.02,-2.76 128.51,-15.69 264.65,-32.02 30.32,-1.7 28.63,4.03 369.41,86.52 30.75,13.78 22.05,15.69 18.66,19.51 47.5,60.23"
     id="path3" /><path
     style="fill:none;stroke:#009ee0;stroke-width:5;stroke-linejoin:round;stroke-opacity:1"
     d="m 1495.38,719.14 49.41,-2.12 14,-5.09 9.97,-10.6 7.42,-13.36 1.27,-5.94 -0.21,-14.63 -25.45,-159.04"
     id="path4" /><path
     style="fill:none;stroke:#009ee0;stroke-width:5;stroke-linejoin:round;stroke-opacity:1"
     d="m 2116.08,346.55 38.17,-3.39 73.37,-4.67 59.59,-16.33 13.15,-1.7 30.32,5.09 41.56,23.11 16.33,6.79 16.54,2.33 37.32,-0.85 55.77,9.75 116.84,12.3 15.06,5.3 19.3,13.15 17.6,15.69 11.88,5.94 19.09,5.73 15.69,0.21 15.48,-2.97 13.15,-8.27"
     id="path5" /><path
     style="fill:none;stroke:#009ee0;stroke-width:5;stroke-linejoin:round"
     d="m 1121.31,345.7 -30.32,-29.05 -10.39,-22.05 -2.76,-17.39 0.42,-18.66 17.39,-61.29 9.54,-16.75 21.21,-19.3 10.82,-16.33 6.15,-17.81 1.06,-23.33 -4.24,-19.09 -8.69,-18.66 -15.69,-16.96 -33.08,-29.69 -8.69,-19.3 -2.54,-20.57 1.7,-15.27 3.82,-9.54 7.85,-12.3 13.57,-12.72 10.82,-15.27 7.21,-15.69 6.36,-19.72 23.96,-273.13"
     id="path6" /></svg>
