<?xml version="1.0" encoding="UTF-8" standalone="no"?>
<svg
   xmlns:dc="http://purl.org/dc/elements/1.1/"
   xmlns:cc="http://creativecommons.org/ns#"
   xmlns:rdf="http://www.w3.org/1999/02/22-rdf-syntax-ns#"
   xmlns:svg="http://www.w3.org/2000/svg"
   xmlns="http://www.w3.org/2000/svg"
   xmlns:xlink="http://www.w3.org/1999/xlink"
   id="svg2"
   viewBox="0 0 1300 2450"
   height="2450"
   width="1300"
   version="1.1">
  <metadata
     id="metadata8">
    <rdf:RDF>
      <cc:Work
         rdf:about="">
        <dc:format>image/svg+xml</dc:format>
        <dc:type
           rdf:resource="http://purl.org/dc/dcmitype/StillImage" />
        <dc:title></dc:title>
      </cc:Work>
    </rdf:RDF>
  </metadata>
  <defs
     id="defs6" />
  <image
     xlink:href="../basemap/yegosm.png"
     id="image10"
     height="2404"
     width="1202"
     y="56"
     x="90"
     style="display:none" />
  <path
     style="fill:none;stroke:#4994cf;stroke-width:5;stroke-linecap:butt;stroke-linejoin:round;stroke-miterlimit:4;stroke-dasharray:none;stroke-opacity:1"
     id="path2987"
     d="m 1202.79,105.3 -201.12,214.42 -64.95,75.12 -51.65,45.39 -89.21,107.99 -86.86,129.9 -133.82,197.99 -20.35,28.17 -11.64,12.38 -22.26,13.95 -31.13,40.18 -2.53,12.14 4.8,39.85 -1.03,9.47 -4.45,8.17 -8.46,5.5 -33.25,3.2 -120.1,-1.05 -14.86,7.74 -10.96,11.2 -3.13,10.82 -0.27,76.58 -3.67,17.5 -6.26,25.04 -14.63,35.75 -15.88,18.89 -91.65,58.61 -7.09,9.57 -4.56,20.39 1.57,68.08 -3.91,33.65 0.78,86.86 2.35,15.65 -1.57,13.3 -16.43,20.35 -5.48,16.43 0.78,93.12 11.74,14.87 12.52,6.26 61.82,0.78 14.09,10.96 6.26,25.82 -0.78,165.9 3.91,42.26 -1.57,44.61 1.57,341.19" />
  <text
     style="font-style:normal;font-weight:normal;font-size:144px;font-family:Sans;-inkscape-font-specification:Sans;fill:#000000;fill-opacity:1;stroke:none"
     xml:space="preserve"
     id="text3914"
     y="206.96"
     x="89.45"><tspan
       id="tspan1"
       y="206.96"
       x="89.45">2015</tspan></text>
  <path
     style="fill:none;fill-rule:evenodd;stroke:#db1d31;stroke-width:5;stroke-linecap:butt;stroke-linejoin:round;stroke-miterlimit:4;stroke-dasharray:none;stroke-opacity:1"
     d="m 326.6,663.08 22,0.03 6.72,3.96 4.03,6.72 -0.39,19.73 0.37,33.13 3.9,18.44 -0.03,20.21 1.49,9.33 5.09,6.47 12.73,10.4 7.22,9.29 6.09,11.07 -0.3,34.41 -3.51,8.76 -9.99,9.22 -3.47,8.47 0.09,58.95 2.89,6.92 6.25,3.37 25.57,2.92 38.65,0.12 19,4 7.35,6.82 1.44,9.87 2.57,17.56 4.79,40.01 -0.67,7.05 -3.7,6.9 -6.3,3.83 -31.49,3.13 -121.02,-0.98 -17.08,8.53 -12.34,12.57 -3.71,12.52 -0.17,77.09 -3.66,16.88 -6.28,24.44 -14.08,34.9 -14.72,17.57 -91.8,58.62 -8.49,11.66 -4.66,23.49 0.73,34.5"
     id="path4137" />
</svg>
