<?xml version="1.0" encoding="UTF-8" standalone="no"?>
<svg
   viewBox="0 0 2750 4650"
   height="4650"
   width="2750"
   id="svg2"
   version="1.1"
   xmlns:xlink="http://www.w3.org/1999/xlink"
   xmlns="http://www.w3.org/2000/svg"
   xmlns:svg="http://www.w3.org/2000/svg"
   xmlns:rdf="http://www.w3.org/1999/02/22-rdf-syntax-ns#"
   xmlns:cc="http://creativecommons.org/ns#"
   xmlns:dc="http://purl.org/dc/elements/1.1/">
  <metadata
     id="metadata8">
    <rdf:RDF>
      <cc:Work
         rdf:about="">
        <dc:format>image/svg+xml</dc:format>
        <dc:type
           rdf:resource="http://purl.org/dc/dcmitype/StillImage" />
      </cc:Work>
    </rdf:RDF>
  </metadata>
  <defs
     id="defs6" />
  <image
     style="display:none"
     y="-248.64"
     x="0"
     id="image10"
     xlink:href="../basemap/opoosm.png"
     preserveAspectRatio="none"
     height="5081.82"
     width="2795" />
  <path
     id="path836"
     d="m 1873.82,3286.12 -4.07,12.02 -5.91,8.15 -0.81,3.67 1.63,3.67 22.41,21.8 2.04,5.3 2.44,51.34 4.01,8.01 9.37,7.5 29.49,19.03 7.14,8.09 6.84,18.3 3.58,14.08 0.04,26.44 -7.89,27.24 -7.8,22.79 -9.86,13.87 -13.1,8.68 -54.46,19.72 -13.26,7.51 -8.68,11.57 -14.64,39.93 -2.43,14 0.75,58.55 -2.4,15.79 -9.77,20.35 -3.73,21.6 -1.83,25.88 14.06,77.42 11.61,52.57"
     style="opacity:1;fill:none;fill-rule:nonzero;stroke:#002e5e;stroke-width:5;stroke-linecap:butt;stroke-linejoin:round;stroke-miterlimit:4;stroke-dasharray:none;stroke-opacity:1" />
  <path
     id="path838"
     d="m 1828.59,3930.96 18.13,72.74 20.99,86.18 -0.41,7.74 -12.02,187.44"
     style="opacity:1;fill:none;fill-rule:nonzero;stroke:#002e5e;stroke-width:1;stroke-linecap:butt;stroke-linejoin:round;stroke-miterlimit:4;stroke-dasharray:none;stroke-opacity:1" />
  <path
     id="path840"
     d="m 1873.82,3286.12 16.5,-46.25 2.04,-2.65 6.93,-1.02 12.22,3.67"
     style="opacity:1;fill:none;fill-rule:nonzero;stroke:#002e5e;stroke-width:1;stroke-linecap:butt;stroke-linejoin:round;stroke-miterlimit:4;stroke-dasharray:none;stroke-opacity:1" />
  <path
     id="path842"
     d="m 1743.83,3942.17 77.01,-8.15"
     style="opacity:1;fill:none;fill-rule:nonzero;stroke:#000000;stroke-width:5;stroke-linecap:butt;stroke-linejoin:round;stroke-miterlimit:4;stroke-dasharray:none;stroke-opacity:1" />
  <path
     id="path844"
     d="m 1823.03,3885.74 8.79,-19.31 6.05,-13.97"
     style="opacity:1;fill:none;fill-rule:nonzero;stroke:#7c6954;stroke-width:5;stroke-linecap:butt;stroke-linejoin:round;stroke-miterlimit:4;stroke-dasharray:none;stroke-opacity:1" />
  <text
     x="89.45"
     y="206.96"
     id="text3784"
     xml:space="preserve"
     style="font-style:normal;font-weight:normal;font-size:144px;line-height:125%;font-family:Sans;-inkscape-font-specification:Sans;letter-spacing:0px;word-spacing:0px;fill:#000000;fill-opacity:1;stroke:none"> <tspan
   x="89.45"
   y="206.96"
   id="tspan1">2020</tspan> </text>
  <path
     id="path868-5"
     d="m 1293.35,3128.1 -4.12,-2.48 -26.79,-13.19 -4.69,-0.15 -23.28,16.15 -14.67,2.44 -3.87,3.67 0.2,3.67 13.85,17.73 6.72,14.67 0.2,20.78 -2.44,4.07 -20.99,10.19 -6.52,2.85 -14.06,12.22 -4.48,9.98 -11,44.01 -3.46,3.87 -14.87,8.76 -9.98,0.2 -17.93,11.61 -14.47,-2.65 -11.82,5.7 -20.37,1.83 -19.76,-6.52 -40.54,2.44 -16.71,-20.99 -9.58,-2.24 -97.8,9.98 -4.89,-4.28 -2.44,-30.77 -46.25,-59.9 -1.22,-4.69 1.43,-11.82 8.76,-4.28 27.1,-9.37 h 40.75 l 15.89,2.24 14.06,-2.24"
     style="fill:none;fill-rule:nonzero;stroke:#002e5e;stroke-width:1;stroke-linecap:butt;stroke-linejoin:round;stroke-miterlimit:4;stroke-dasharray:none;stroke-opacity:1" />
  <path
     id="path876"
     d="m 2192.88,3454.41 -2.24,-7.33 -0.1,-4.18"
     style="fill:none;fill-rule:nonzero;stroke:#002e5e;stroke-width:1;stroke-linecap:butt;stroke-linejoin:round;stroke-miterlimit:4;stroke-dasharray:none;stroke-opacity:1" />
  <path
     id="path878"
     d="m 2190.54,3442.9 2.85,-8.66 6.62,-11.1 32.4,-37.69 12.12,-12.33 8.76,-7.64 19.86,-8.96 13.55,-1.32 16.71,2.95 40.24,12.12 9.37,0.51 8.56,-3.57 6.62,-8.35 7.62,-27.78 2.31,-3.6"
     style="fill:none;fill-rule:nonzero;stroke:#002e5e;stroke-width:5;stroke-linecap:butt;stroke-linejoin:round;stroke-miterlimit:4;stroke-dasharray:none;stroke-opacity:1" />
  <path
     id="path880"
     d="m 2378.13,3327.47 13.83,-13.4 0.43,-5.76 -2.45,-31.41 2.16,-5.76 4.75,-5.19 6.05,-0.72 15.27,4.75 12.68,-0.58 11.09,-6.48 9.08,-5.91 4.18,-13.54 7.64,-6.63 64.4,-37.31 9.22,-1.01 37.89,8.64 5.62,3.6 5.91,12.25 11.09,32.7 v 9.8 l -2.88,10.08 -12.97,22.62 -2.74,8.79 1.3,8.79 8.21,9.08 19.74,43.65 -2.02,11.24 -13.11,47.69"
     style="fill:none;fill-rule:nonzero;stroke:#002e5e;stroke-width:1;stroke-linecap:butt;stroke-linejoin:round;stroke-miterlimit:4;stroke-dasharray:none;stroke-opacity:1" />
  <path
     id="path866"
     d="m 410.31,629.96 4.32,2.59 27.66,53.02 6.92,20.17 3.75,42.36 1.15,6.92 14.41,24.2 8.36,32.85 6.34,13.83 16.14,16.42 28.24,22.76 6.63,9.22 4.32,12.1 -2.31,38.9 -19.59,74.34 -1.15,15.56 0.86,14.12 33.14,69.44 36.88,63.68 130.24,248.37 148.39,286.69 62.81,77.51 119.58,178.64 10.95,19.3 1.15,20.46 5.19,12.1 13.83,23.05 6.63,25.36 21.9,38.61 53.02,59.64 25.64,13.83 11.24,19.31 6.63,48.12 35.73,85.86 8.36,25.93 30.25,137.15 5.19,11.81 26.22,34.58 5.47,17.58 -1.15,39.76 1.73,11.81 17.58,46.1 1.44,12.97 -2.88,13.83 -35.44,70.88 -5.19,17.86 -0.29,16.42 12.68,44.08 -6.92,107.47 -0.29,22.76 -17,65.41 -0.14,20 18.47,99.41 14.63,90.26 3.28,9.33 17.38,21.18 142,172.69 3.46,7.55 6.07,20.9 11.12,40.29 0.12,0.21 5.69,5.98 0.06,0.06 v 0 l 75.44,56.22 0.14,0.17 3.19,6.07 0.05,0.16 1.11,7.85 v 0 l 0.09,0.22 6.61,9.01 0.26,0.18 6.38,1.87 v 0 l 0.07,0.02 v 0 l 32.12,5.03 0.09,0.02 12.93,4.64 0.08,0.04 16.67,9.64 0.07,0.05 11.13,9.45 v 0 l 0.18,0.1 10.58,3.17 v 0 l 0.08,0.02 h 0.01 l 11.03,1.27 0.18,0.05 19.36,10.13 v 0 l 0.06,0.02 48.11,18.02 0.11,0.06 10.46,7.41 0.03,0.02 46.45,37.83 0.02,0.02 7.39,6.73 0.12,0.17 2.34,5.39 0.04,0.21 -0.21,15.34 0.04,0.2 3.9,9.87 0.08,0.13 v 0 l 7.09,8.75 0.11,0.1 v 0 l 10.27,6.71 v 0 l 0.13,0.06 v 0 l 65.07,19.2 v 0 l 0.22,0.02 5.28,-0.8 0.11,-0.03 11.56,-4.71 0.09,-0.03 7.08,-1.44 h 0.19 l 4.74,0.83 0.22,0.1 4.97,3.86 0.11,0.12 7.46,14.73 4.82,6.72 9.17,7.25 16.71,7.71 21.23,3.87 22.98,-0.93 34.42,-0.93 11.88,-2.22 8.96,-3.84 7.18,-7.81 2.47,-8.29 7.34,-49.69 2.71,-11.43 0.03,-0.11 9.99,-22.81 v 0 l 0.04,-0.13 v 0 l 6.55,-47.27 0.02,-0.1 22.99,-64.92 12.69,-38.61 14.03,-24.09 33.56,-41.95 1.84,-3.76 -0.26,-6.46 -8.19,-8.91 -2.96,-4.75"
     style="fill:none;stroke:#002e5e;stroke-width:5;stroke-linecap:butt;stroke-linejoin:round;stroke-miterlimit:4;stroke-dasharray:none;stroke-opacity:1" />
  <path
     id="path870"
     d="m 410.31,629.96 -8.64,-2.59 -21.03,0.29 -12.1,-8.64 -16.42,-27.08 -65.98,-105.17 -12.39,-8.93 -63.97,-88.75 -42.64,-61.66 -21.61,-19.59 -44.66,-66.56"
     style="fill:none;fill-rule:nonzero;stroke:#002e5e;stroke-width:1;stroke-linecap:butt;stroke-linejoin:round;stroke-miterlimit:4;stroke-dasharray:none;stroke-opacity:1" />
  <path
     id="path872"
     d="m 1654.76,2526.04 12.53,-10.37 2.59,-9.22 -1.44,-26.08 -12.68,-27.23 -27.08,-50.71 -47.11,-172.45"
     style="fill:none;fill-rule:nonzero;stroke:#002e5e;stroke-width:1;stroke-linecap:butt;stroke-linejoin:round;stroke-miterlimit:4;stroke-dasharray:none;stroke-opacity:1" />
  <path
     id="path874"
     d="m 1581.58,2229.98 -8.07,-30.11 0.43,-6.63 5.33,-7.35 45.67,-51.58 80.25,-50.14 12.82,-11.53 10.37,-16.14 4.18,-14.26 10.08,-92.06 4.75,-14.12 9.94,-21.18"
     style="fill:none;fill-rule:nonzero;stroke:#002e5e;stroke-width:5;stroke-linecap:butt;stroke-linejoin:round;stroke-miterlimit:4;stroke-dasharray:none;stroke-opacity:1" />
  <path
     style="fill:none;stroke:#002e5e;stroke-width:5;stroke-linejoin:round;stroke-miterlimit:4;stroke-dasharray:none;stroke-opacity:1"
     d="m 1293.35,3128.1 3.38,3.35"
     id="path1549" />
  <path
     id="path854"
     d="m 1287.23,3080.53 4.48,-21.16 8.36,-32.27 8.5,-13.25 9.51,-10.08 25.79,-19.02 8.79,-8.5 9.22,-13.97 9.94,-20.89 3.89,-14.69 -1.73,-12.68 -5.62,-19.59 0.72,-12.68 5.47,-12.97 9.22,-11.81 13.4,-9.51 21.47,-1.15 9.51,-3.6 9.22,-9.22 23.19,-57.92 0.14,-15.42 -4.75,-15.85 8.36,-86.3 3.75,-9.94 8.5,-7.35 24.92,-14.98 22.76,-4.75 12.53,-6.48 9.36,-9.8 14.12,-20.89 -0.58,-19.16 4.61,-10.66 18.58,-13.69 19.31,-6.05 38.18,-2.31 14.41,-5.91"
     style="fill:none;stroke:#002e5e;stroke-width:5;stroke-linecap:butt;stroke-linejoin:round;stroke-miterlimit:4;stroke-dasharray:none;stroke-opacity:1" />
</svg>
