<?xml version="1.0" encoding="UTF-8" standalone="no"?>
<svg
   xmlns:dc="http://purl.org/dc/elements/1.1/"
   xmlns:cc="http://creativecommons.org/ns#"
   xmlns:rdf="http://www.w3.org/1999/02/22-rdf-syntax-ns#"
   xmlns:svg="http://www.w3.org/2000/svg"
   xmlns="http://www.w3.org/2000/svg"
   xmlns:xlink="http://www.w3.org/1999/xlink"
   id="svg2"
   viewBox="-750 -550 8700 6600"
   height="6600"
   width="8700"
   version="1.1">
  <metadata
     id="metadata8">
    <rdf:RDF>
      <cc:Work
         rdf:about="">
        <dc:format>image/svg+xml</dc:format>
        <dc:type
           rdf:resource="http://purl.org/dc/dcmitype/StillImage" />
        <dc:title></dc:title>
      </cc:Work>
    </rdf:RDF>
  </metadata>
  <defs
     id="defs6" />
  <image
     xlink:href="../../basemap/lonosm.png"
     style="display:none"
     id="image12"
     height="20602.4"
     width="18289.88"
     y="-7482.57"
     x="-4725.03" />
  <text
     style="font-size:144px;font-style:normal;font-weight:normal;line-height:125%;letter-spacing:0px;word-spacing:0px;fill:#000000;fill-opacity:1;stroke:none;font-family:Sans;-inkscape-font-specification:Sans"
     xml:space="preserve"
     id="text3019"
     y="-343.04"
     x="-660.55"><tspan
       id="tspan1"
       y="-343.04"
       x="-660.55">1840</tspan></text>
  <text
     style="font-size:144px;font-style:normal;font-weight:normal;line-height:125%;letter-spacing:0px;word-spacing:0px;fill:#000000;fill-opacity:1;stroke:none;font-family:Sans;-inkscape-font-specification:Sans"
     xml:space="preserve"
     id="text3019-6"
     y="5947.96"
     x="-660.55"><tspan
       id="tspan2"
       y="5947.96"
       x="-660.55">1840</tspan></text>
  <path
     style="fill:none;stroke:#00afa9;stroke-width:5;stroke-linecap:butt;stroke-linejoin:round;stroke-miterlimit:4;stroke-dasharray:none;stroke-opacity:1"
     id="path4319"
     d="m 4021.76,2369.96 19.74,-2.96 20,-1.5 54.5,-4.5 48,-6.5 34,-2 71.5,-3.5 77,-4.5 25.5,-0.5 23,3 42,15 29,15.5 22.5,15.5 21,10 11.5,2.5 15,-2 13,4.5 32.5,7 10,2.5 31,-1.5 17,-0.5 39.5,-8.5 36,1.5 26,-8.5" />
  <path
     style="fill:none;stroke:#8bb7e0;stroke-width:5;stroke-linecap:butt;stroke-linejoin:round;stroke-miterlimit:4;stroke-opacity:1;stroke-dasharray:none"
     id="path4595-7"
     d="m 3922.5,2461 21,17.5 36,31 90.5,77 68,49.5 91.5,64.5 94,62 38,22.5 109.5,65.5 25,10.5 46.5,6.5 55,4.26" />
</svg>
