<?xml version="1.0" encoding="UTF-8" standalone="no"?>
<svg
   viewBox="-1600 115 5600 7300"
   height="7300"
   width="5600"
   id="svg2"
   version="1.1"
   xmlns:xlink="http://www.w3.org/1999/xlink"
   xmlns="http://www.w3.org/2000/svg"
   xmlns:svg="http://www.w3.org/2000/svg"
   xmlns:rdf="http://www.w3.org/1999/02/22-rdf-syntax-ns#"
   xmlns:cc="http://creativecommons.org/ns#"
   xmlns:dc="http://purl.org/dc/elements/1.1/">
  <metadata
     id="metadata8">
    <rdf:RDF>
      <cc:Work
         rdf:about="">
        <dc:format>image/svg+xml</dc:format>
        <dc:type
           rdf:resource="http://purl.org/dc/dcmitype/StillImage" />
      </cc:Work>
    </rdf:RDF>
  </metadata>
  <defs
     id="defs6" />
  <image
     style="display:none"
     y="95.05"
     x="-1637.8"
     id="image10"
     xlink:href="../basemap/qarosm.png"
     preserveAspectRatio="none"
     height="7482.6"
     width="5819.8" />
  <path
     id="path817"
     d="m 129.69,304.8 21.91,2.97 36.29,-6.22 62.45,-12.23 18.35,-1.61 16.42,0.97 24.79,6.12 205.07,80.8 24.79,13.52 25.43,16.1 13.52,10.62 24.14,22.54 183.18,198.95 19.96,18.67 28.65,25.11 64.39,51.51 49.58,32.84 278.79,181.57 367.97,235.98 41.21,18.35 130.38,52.15 85.94,34.5 27.06,2.53 14.81,-1.61 17.38,-5.79 419.15,-188.65 778.43,-371.51 17.71,-6.44 15.13,-0.64 430.74,-19.96 36.06,0.64 269.13,13.52"
     style="opacity:1;fill:none;fill-rule:nonzero;stroke:#00a650;stroke-width:5;stroke-linecap:butt;stroke-linejoin:round;stroke-miterlimit:4;stroke-dasharray:none;stroke-opacity:1" />
  <text
     style="font-style:normal;font-weight:normal;font-size:144px;line-height:125%;font-family:Sans;-inkscape-font-specification:Sans;letter-spacing:0px;word-spacing:0px;fill:#000000;fill-opacity:1;stroke:none"
     xml:space="preserve"
     id="text3818"
     y="321.96"
     x="-1510.55"><tspan
       id="tspan1"
       y="321.96"
       x="-1510.55">2025</tspan></text>
  <text
     style="font-style:normal;font-weight:normal;font-size:144px;line-height:125%;font-family:Sans;-inkscape-font-specification:Sans;letter-spacing:0px;word-spacing:0px;fill:#000000;fill-opacity:1;stroke:none"
     xml:space="preserve"
     id="text3019-6"
     y="7312.96"
     x="-1510.55"><tspan
       id="tspan2"
       y="7312.96"
       x="-1510.55">2025</tspan></text>
  <path
     style="fill:none;stroke:#1ac0f4;stroke-width:5;stroke-linejoin:round;stroke-dasharray:none;stroke-opacity:1"
     d="m 129.69,304.8 -15.81,-3.55 -53.15,-15.18 -114.15,-11.93 -61.82,0.54 -30.1,4.88 -25.22,10.03 -23.59,16 -21.15,21.96 -17.08,29.83 -84.6,221.26 -9.49,39.05 -1.36,42.03 6.24,128.25 28.47,554.77 13.02,250.54 8.68,146.42 16,308.57 8.41,176.79 -2.98,22.23 -8.27,25.35 -63.31,202.96 -14.51,48.26 -20.07,44.06 -16,19.79 -22.1,21.15 -24.4,16.4 -129.89,74.7 -26.65,11.5 -31.44,8.82 -267.47,50.62 -30.87,7.86 -135.36,40.07 -443.48,145.72"
     id="path1" />
  <path
     style="fill:none;stroke:#c48511;stroke-width:5;stroke-linejoin:round;stroke-dasharray:none;stroke-opacity:1"
     d="m -314.67,2469.22 -14.1,48.54 -0.41,22.37 3.25,20.34 8.68,16 167.03,171.91 42.57,43.38 13.02,21.96 6.78,21.42 2.44,19.79 -4.07,180.04 2.17,22.51 10.57,32 70.23,117.41 8.68,22.51 3.8,18.44 2.44,18.17 -3.25,131.78 -4.07,22.51 -71.04,237.26 -25.76,88.39 -11.66,23.05 -16.81,23.32 -50.43,68.33 -11.93,23.86 -7.32,19.52 -5.15,27.66 -1.36,26.57 3.52,26.84 80.26,259.76 39.05,91.92 70.77,154.28 157,347.34 191.43,367.14 152.39,291.21 223.43,324.84 220.44,316.43 93,133.41 11.12,19.25 10.03,24.67 5.97,22.23 44.47,286.88 101.14,649.4 5.42,18.71 7.32,18.17"
     id="path2" />
</svg>
