<?xml version="1.0" encoding="UTF-8" standalone="no"?>
<!-- Created with Inkscape (http://www.inkscape.org/) -->

<svg
   version="1.1"
   id="svg1"
   width="6600"
   height="4050"
   viewBox="25 0 6600 4050"
   xmlns:xlink="http://www.w3.org/1999/xlink"
   xmlns="http://www.w3.org/2000/svg"
   xmlns:svg="http://www.w3.org/2000/svg">
  <defs
     id="defs1" />
    <image
       width="6776.62"
       height="4185.56"
       preserveAspectRatio="none"
       xlink:href="../basemap/lbaosm.png"
       id="image1"
       x="0"
       y="-99.31" />
  <path
     style="fill:none;stroke:#ed1b2d;stroke-width:5;stroke-linejoin:round;stroke-opacity:1"
     d="m 2012.52,781.37 56.18,4.89 30.19,0.35 35.25,-5.93 48.68,-12.21 25.47,-2.44 34.9,1.22 52.69,8.55 25.3,9.07 26.35,13.96 104.17,75.9 27.22,25.65 63.34,59.5 20.94,16.93 32.45,20.94 19.89,18.5 18.15,24.95 24.95,46.41 6.46,18.5 9.77,50.95 9.77,24.08 11.69,21.46 16.4,20.41 14.66,13.78 98.58,65.08 19.19,15.18 16.23,17.1 10.47,20.76 60.9,121.79 18.32,27.57 12.04,13.96 20.41,18.67"
     id="path1" />
  <path
     style="fill:none;stroke:#ed1b2d;stroke-width:5;stroke-linejoin:round;stroke-opacity:1"
     d="m 2635.26,2744.86 -26.52,-54.44 -3.32,-16.4 -5.06,-29.66 -6.63,-19.72 -26.7,-71.54 -51.47,-107.31 -79.91,-176.41 -2.27,-19.19 1.74,-17.97 5.93,-18.84 10.47,-19.02"
     id="path2" />
  <text
     style="font-style:normal;font-weight:normal;font-size:144px;line-height:125%;font-family:Sans;-inkscape-font-specification:Sans;letter-spacing:0px;word-spacing:0px;fill:#000000;fill-opacity:1;stroke:none"
     xml:space="preserve"
     id="text3817"
     y="206.96"
     x="114.45"><tspan
       id="tspan1"
       y="206.96"
       x="114.45">2010</tspan></text>
  <path
     style="fill:none;stroke:#ed1b2d;stroke-width:5;stroke-linejoin:round;stroke-opacity:1"
     d="m 149.01,260.95 17.1,2.97 17.27,9.42 16.05,13.44 8.72,15.7 4.19,13.26 2.62,18.32 -0.87,30.71 -9.25,78.52 -14.83,125.98 v 32.63 l 3.66,44.67 8.2,34.02 17,48.99 85.87,211.97 16.78,23.2 20.73,25.42 36.03,44.42 43.18,35.29 31.83,16.78 22.7,8.14 26.65,5.68 353.61,48.86 36.52,12.34 18.75,9.13 22.46,17.27 24.18,25.91 71.31,104.38 31.34,33.81 30.6,24.92 54.04,35.29 23.94,21.22 9.62,11.84 54.04,92.04 5.92,23.69 2.96,28.87 6.17,21.96 13.08,21.71 20.23,18.75 21.71,12.34 15.55,3.21 23.94,3.21 22.46,-5.68 27.64,-13.08 20.48,-7.4 25.17,-2.96 31.83,4.19 32.82,15.79 137.94,67.86 32.33,11.35 47.13,8.88 30.35,11.6 20.48,12.83 21.47,17.03 23.2,26.4 15.79,30.1 8.39,27.14 11.6,46.14 9.62,17.03 20.23,27.14 48.86,65.39 17.52,18.01 16.78,12.09 24.68,15.79 30.1,14.81 17.52,5.92 27.64,6.66 32.08,4.94 40.72,-0.25 123.38,-6.17 27.39,4.44 27.88,9.13 91.55,48.86 20.48,7.65 8.14,3.21 11.84,0.74"
     id="path3" />
  <path
     style="fill:none;stroke:#ed1b2d;stroke-width:5;stroke-linejoin:round"
     d="m 1719.03,3922.14 5.4,-12.15 15.42,-18.51 12.34,-8.29 20.05,-11.37 107.19,-60.92 18.7,-5.98 17.74,-2.51 16,0.39 14.84,2.31 20.24,8.48 25.45,16.39 17.54,7.71 103.72,39.33 20.43,2.12 17.35,-0.96 13.3,-4.05 51.67,-23.13 13.88,-10.02 11.95,-10.99 315.39,-322.72 14.84,-10.22 11.95,-7.33 11.57,-6.55 40.68,-14.46 13.3,-8.1 16.19,-13.88 13.88,-16.58 10.22,-21.21 6.36,-26.03 0.39,-20.24 -4.63,-21.98 -5.98,-24.1 -1.54,-20.05 -10.41,-267.97 -2.89,-113.36"
     id="path4" />
  <path
     style="fill:none;stroke:#ed1b2d;stroke-width:5;stroke-linejoin:round"
     d="m 2668.68,2844.3 2.89,70.94 2.7,8.68 7.52,7.71 9.64,5.21 11.95,1.74 12.53,-3.08 8.48,-6.94 37.4,-48.39 11.76,-8.1 13.88,-3.86 19.86,-1.16 117.98,-27.57 29.69,-5.78 38.36,-10.22 21.98,-7.33 21.78,-11.57 29.11,-17.54 16.58,-7.33 18.51,-6.55 23.33,-5.4 18.51,-6.55 15.23,-8.68 18.12,-14.27 17.93,-21.78 31.23,-46.07 3.86,-6.17 8.68,-9.25 19.47,-12.72 26.41,-11.18 14.27,-3.47 21.98,-0.77 42.03,4.82 24.1,-0.77 38.36,-7.71 132.83,-26.03 18.31,-1.16 h 21.98 l 32,3.86 28.72,8.1 34.12,14.65 76.15,29.88 28.34,13.69 27.57,17.16 32.77,28.72 31.62,26.99 21.98,14.27 16.58,6.36 19.86,3.47 16.19,0.96 33.93,-3.86 22.17,1.35 18.89,5.01 12.72,5.98 131.86,69.21 22.75,8.87 17.93,2.89 21.21,0.77 21.01,-3.66 26.03,-9.06 22.36,-11.37 24.1,-15.42 11.95,-2.12 14.46,1.74 21.4,8.87 9.45,1.35 8.48,-0.77 15.81,-5.59 15.42,-11.95 9.06,-5.59 48,-14.46"
     id="path5" />
</svg>
