<?xml version="1.0" encoding="UTF-8" standalone="no"?>
<svg
   id="svg2"
   viewBox="0 10 11000 9050"
   height="9050"
   width="11000"
   version="1.1"
   xmlns:xlink="http://www.w3.org/1999/xlink"
   xmlns="http://www.w3.org/2000/svg"
   xmlns:svg="http://www.w3.org/2000/svg"
   xmlns:rdf="http://www.w3.org/1999/02/22-rdf-syntax-ns#"
   xmlns:cc="http://creativecommons.org/ns#"
   xmlns:dc="http://purl.org/dc/elements/1.1/">
  <metadata
     id="metadata8">
    <rdf:RDF>
      <cc:Work
         rdf:about="">
        <dc:format>image/svg+xml</dc:format>
        <dc:type
           rdf:resource="http://purl.org/dc/dcmitype/StillImage" />
      </cc:Work>
    </rdf:RDF>
  </metadata>
  <defs
     id="defs6" />
  <path
     style="fill:none;stroke:#0000ff;stroke-width:5;stroke-linecap:butt;stroke-linejoin:round;stroke-miterlimit:4;stroke-dasharray:none;stroke-opacity:1"
     id="path3953"
     d="m 2062.77,6967.93 -35.69,15.92 -0.47,17.49 5.72,6.54 -0.67,9.07 L 2014.5,7030 l -4.5,25 -16.5,15.5 -19,3.5 -14,10.5 -12.5,-1.5 -4.5,3.5" />
  <path
     style="fill:none;stroke:#b3b3b3;stroke-width:5;stroke-linecap:butt;stroke-linejoin:round;stroke-miterlimit:4;stroke-opacity:1;stroke-dasharray:none"
     id="path5542"
     d="m 9105.5,1246 14.5,-8.5 10,-10 11,-5.5 6.5,3.5 2,5.5 0,11.5 7.5,8.5 9.5,11 6.5,29 10.5,7 28,-5 20.5,-11 22,-6 23.5,-10.5 12.5,-11 21.5,-24 31.5,-11.5 18.5,-2.5 19.5,10 70.5,3 12,6 45,-4 26.5,3 12.5,7.5 24,2.5 29,1.5 8,-7.5 8,-15 10.5,-6.5 33,-3.5 29,-12.5 30.5,-2 15.5,2.5 33.5,-8 19.5,-11 20.5,-9 21,1 8,-6.5 23.5,-23 5,-20 0.5,-19 4.5,-9 12,-6.5 14,-13.5 61.5,-11 37.5,-11.5 54.5,-2 36,5.5 16.5,12 33.5,3.5 13.5,-2.5 18.5,3 5.5,1.5 4.5,-9" />
  <path
     style="fill:none;stroke:#008080;stroke-width:5;stroke-linecap:butt;stroke-linejoin:round;stroke-miterlimit:4;stroke-dasharray:none;stroke-opacity:1"
     id="path3958"
     d="m 5573.5,4355 36,-67 16,-39.5 29,-36" />
  <path
     style="fill:none;stroke:#000060;stroke-width:5;stroke-linecap:butt;stroke-linejoin:round;stroke-miterlimit:4;stroke-opacity:1;stroke-dasharray:none"
     id="path3759"
     d="M 6261.25,477.13 6263.5,463.5 6261,457 l 1,-11.5 -14.5,-13 -12.5,-1 -21.5,-19.5 -22.5,-10 -38,-9.5 -98,-111.5 -66.5,-76.5 -30,-14.5 -3.5,-9.5 9.5,-16 14.5,-17.5" />
  <text
     style="font-size:144px;font-style:normal;font-weight:normal;line-height:125%;letter-spacing:0px;word-spacing:0px;fill:#000000;fill-opacity:1;stroke:none;font-family:Sans;-inkscape-font-specification:Sans"
     xml:space="preserve"
     id="text4994"
     y="8957.96"
     x="10577.45">
<tspan
   id="tspan4996"
   y="8957.96"
   x="10577.45">1835</tspan>
</text>
  <path
     style="fill:none;stroke:#ff9955;stroke-width:5;stroke-linecap:butt;stroke-linejoin:round;stroke-miterlimit:4;stroke-dasharray:none;stroke-opacity:1"
     id="path7214"
     d="m 10163,1062.5 -11,12.5 -26.5,28.5 -9,20.5 -11.5,29.5 -10,13 -4,10 -5.5,46 -7.5,41.5 -41,112 3,63 -6,18 -23,30 -26,43 -10,89.5 -16.5,41.5 -27,53 -120.5,226 -69.75,135.02 -35.38,28.56 -3.73,6.1 -4.18,5.6 -6.75,-3.52 -12.17,5.87" />
  <path
     style="fill:none;stroke:#c15a1d;stroke-width:5;stroke-linecap:butt;stroke-linejoin:round;stroke-miterlimit:4;stroke-opacity:1;stroke-dasharray:none"
     id="path3814"
     d="m 4215.86,5687.82 6.14,-36.82 -5.5,-15 -13,-21 -12,-7.5 -56,-21 -8.5,-5 -10.5,-11.5 -16.5,-9" />
  <path
     style="fill:none;stroke:#c15a1d;stroke-width:5;stroke-linecap:butt;stroke-linejoin:round;stroke-miterlimit:4;stroke-opacity:1;stroke-dasharray:none"
     id="path3818"
     d="m 4186.34,5546.48 4.16,0.02 17,2.5 -2,23 -5,10.5 4,34.5" />
  <path
     style="fill:none;stroke:#c15a1d;stroke-width:5;stroke-linecap:butt;stroke-linejoin:round;stroke-miterlimit:4;stroke-opacity:1;stroke-dasharray:none"
     id="path7270"
     d="m 4186.93,5546.5 -7.75,0.75" />
  <path
     style="fill:none;stroke:#00dd00;stroke-width:5;stroke-linecap:butt;stroke-linejoin:round;stroke-miterlimit:4;stroke-dasharray:none;stroke-opacity:1"
     id="path3946"
     d="m 5740,4016.5 4.34,6.64 32.16,92.36 21.68,68.19 -5.1,20.39 -1.09,2.43" />
  <path
     style="fill:none;stroke:#00dd00;stroke-width:5;stroke-linecap:butt;stroke-linejoin:round;stroke-miterlimit:4;stroke-opacity:1;stroke-dasharray:none"
     id="path4680"
     d="m 5651.08,3859.8 -1.58,14.2" />
  <path
     style="fill:none;stroke:#00dd00;stroke-width:5;stroke-linecap:butt;stroke-linejoin:round;stroke-miterlimit:4;stroke-opacity:1;stroke-dasharray:none"
     id="path4692"
     d="m 5648.9,3872.64 26.34,40.44 41.37,62.23 1.41,19.09 24.04,24.04" />
  <path
     style="fill:none;stroke:#800080;stroke-width:5;stroke-linecap:butt;stroke-linejoin:round;stroke-miterlimit:4;stroke-opacity:1;stroke-dasharray:none"
     id="path5505-1"
     d="m 10168.5,1039.5 -12,-12.5 -7.5,-7 -13,-11 -7,-12 -19,-9.5 -19.5,-35 -35.5,-40 -4,-12.5 4.5,-12.5 4,-7 3,-16 16,-45 -1,-12 -7.5,-12 -2,-16.5 -9.5,-26 -17.5,-38 -28,-33" />
  <path
     style="fill:none;stroke:#800080;stroke-width:5;stroke-linecap:butt;stroke-linejoin:round;stroke-miterlimit:4;stroke-opacity:1;stroke-dasharray:none"
     id="path5548"
     d="m 10013.5,683 -32.5,-34 -92.5,-52 -14,2 -12,0 -7,-7 -14.5,-48.5 -30.5,-28 -7,-10.5" />
  <path
     style="fill:none;stroke:#c83771;stroke-width:5;stroke-linecap:butt;stroke-linejoin:round;stroke-miterlimit:4;stroke-dasharray:none;stroke-opacity:1"
     id="path3937"
     d="m 2042.96,6788.32 -0.96,3.68 -9,7 3,36 6,13.5 -4,13 12.5,31 9.5,3 15,26 2.42,8.09 0.25,5.32" />
  <text
     style="font-size:144px;font-style:normal;font-weight:normal;line-height:125%;letter-spacing:0px;word-spacing:0px;fill:#000000;fill-opacity:1;stroke:none;font-family:Sans;-inkscape-font-specification:Sans"
     xml:space="preserve"
     id="text4994-7"
     y="216.96"
     x="10577.45">
<tspan
   id="tspan4996-9"
   y="216.96"
   x="10577.45">1835</tspan>
</text>
  <path
     d="m 10014.5,1270 16.5,1.5 18.5,13.5 15.5,4 4.1,0.07"
     id="path4975"
     style="fill:none;stroke:#ff9955;stroke-width:5;stroke-linecap:butt;stroke-linejoin:round;stroke-miterlimit:4;stroke-dasharray:none;stroke-opacity:1" />
  <g
     style="display:none;stroke:#808000"
     id="g4322">
    <image
       xlink:href="basemap/neosm.png"
       style="stroke:#808000"
       id="image10"
       height="9216"
       width="11008"
       y="-100"
       x="0" />
    <image
       xlink:href="basemap/railosm.png"
       style="opacity:0.8;stroke:#008080"
       id="image4320"
       height="8960"
       width="11008"
       y="-100"
       x="0" />
  </g>
</svg>
