<?xml version="1.0" encoding="UTF-8" standalone="no"?>
<svg
   id="svg2"
   version="1.1"
   width="5900"
   height="6500"
   viewBox="-3315 -2400 5900 6500"
   xmlns:xlink="http://www.w3.org/1999/xlink"
   xmlns="http://www.w3.org/2000/svg"
   xmlns:svg="http://www.w3.org/2000/svg"
   xmlns:rdf="http://www.w3.org/1999/02/22-rdf-syntax-ns#"
   xmlns:cc="http://creativecommons.org/ns#"
   xmlns:dc="http://purl.org/dc/elements/1.1/">
  <metadata
     id="metadata8">
    <rdf:RDF>
      <cc:Work
         rdf:about="">
        <dc:format>image/svg+xml</dc:format>
        <dc:type
           rdf:resource="http://purl.org/dc/dcmitype/StillImage" />
      </cc:Work>
    </rdf:RDF>
  </metadata>
  <defs
     id="defs6" />
  <image
     xlink:href="../basemap/manosm.png"
     width="6022.5"
     height="8030"
     preserveAspectRatio="none"
     id="image10"
     x="-3362.75"
     y="-2374"
     style="display:none" />
  <path
     style="fill:none;fill-rule:evenodd;stroke:#7b2181;stroke-width:5;stroke-linecap:butt;stroke-linejoin:round;stroke-miterlimit:4;stroke-dasharray:none;stroke-opacity:1"
     d="m 82.21,3585.89 24.84,-73.73 11.25,-42.3 9.31,-50.45 8.93,-33.76 19.79,-43.07 34.15,-58.6 86.53,-150.17 35.7,-61.31 17.07,-31.04 22.51,-35.31 17.85,-24.06 30.27,-33.76 10.09,-16.69 13.19,-27.16 7.76,-25.22 5.82,-35.31 20.18,-102.83 7.76,-24.06 10.48,-21.34 19.4,-28.33 19.4,-22.12 22.12,-14.36 26.39,-14.36 26.78,-18.24 25.22,-21.34 27.94,-29.88 23.67,-32.98 32.02,-44.44 16.64,-16.16 21.69,-18.16 26.42,-17.52 11.49,-14.47 8.02,-20.99 -0.79,-15.32 2.47,-12.43 12.42,-13.97 11.25,-15.91 11.64,-13.97 5.43,-10.09 10.87,-17.46 10.48,-11.25 19.79,-11.25 16.3,-7.37 18.63,-8.54 12.45,-3.05 18.68,0.96 17.99,10.19 6.82,2.09 8.02,1.6 71.88,4.8 14.72,0.87 17.85,-4.66 86.53,-31.82 17.85,-4.66"
     id="path4138" />
  <path
     style="fill:none;fill-rule:evenodd;stroke:#7b2181;stroke-width:5;stroke-linecap:butt;stroke-linejoin:round;stroke-miterlimit:4;stroke-dasharray:none;stroke-opacity:1"
     d="m 542.82,462.89 -14.75,33.37 -7.37,7.76 -27.55,11.25 -11.25,9.31 -15.52,18.63 -34.54,39.97 -15.52,28.72 -13.58,34.15 -4.66,32.98 -3.88,32.98 -4.66,19.4 -8.54,24.06 -6.98,13.19 -23.28,35.7 -18.63,28.33 -9.31,29.88 -1.16,24.84 6.21,26 11.25,21.34 15.52,25.22 17.46,18.63 26.39,20.18 18.63,11.25 65.58,26.78 75.67,32.21 12.03,10.48 15.91,16.69 13.19,23.67 43.85,92.36 5.43,16.3 3.49,22.12 2.33,39.19 5.43,20.18 11.64,24.06 13.97,17.07 19.79,14.75 22.89,11.25 21.73,5.82 29.1,0.78 26.39,2.72 34.54,12.42 52,22.12 37.25,21.73 36.09,28.72 37.25,22.51 17.85,14.36 12.03,18.24 10.87,22.12 17.85,67.13 7.76,29.1 11.25,22.12 13.19,17.85 10.87,9.7 15.13,15.13 9.7,19.01 13.97,30.66 17.07,24.45 11.64,14.75 10.48,22.89 4.04,13.16 -2.98,23.31 -12.03,30.78 -15.28,32.34 -8.48,16.31 -12.97,15.43 -15.12,12.25 -22.2,15.87 -12.48,14.94 -9.75,23.47 -13.82,13.23 -23,10.09"
     id="path4142" />
  <path
     style="fill:none;fill-rule:evenodd;stroke:#7b2181;stroke-width:5;stroke-linecap:butt;stroke-linejoin:round;stroke-miterlimit:4;stroke-dasharray:none;stroke-opacity:1"
     d="m 1038.26,2042.63 -16.58,9.7 -71.01,43.07 -17.85,19.4 -15.91,10.87 -27.94,17.07 -23.67,6.6 -36.48,0.78 -31.43,-8.54 -28.72,-11.25 -17.46,-13.97 -8.54,-15.91 -5.43,-41.13 -7.69,-35.73 -16.97,-29.98 -18.1,-20.08 -56.57,-48.93 -25.74,-26.02 -20.08,-30.27 -13.58,-28.29 -34.51,-94.19 -11.31,-27.15 -15.27,-26.87 -18.1,-26.31 -20.93,-24.33 -41.01,-63.92 -24.61,-35.07 -17.25,-19.52 -11.6,-9.9 -18.67,-14.43 -20.93,-13.29 -193.19,-97.58 -70.43,-25.74 -27.44,-16.41 -39.32,-27.72 -84.86,-60.81 -99,-80.05 -65.34,-55.16 -56.85,-37.62 -106.07,-80.9 -82.31,-60.25 -31.11,-29.42 -27.72,-31.68 -24.61,-35.92 -13.58,-23.19 -53.74,-102.11"
     id="path4223" />
  <text
     xml:space="preserve"
     style="font-style:normal;font-weight:normal;font-size:139.7px;line-height:125%;font-family:Sans;-inkscape-font-specification:Sans;letter-spacing:0px;word-spacing:0px;fill:#000000;fill-opacity:1;stroke:#e9b600;stroke-width:1;stroke-linecap:butt;stroke-linejoin:round;stroke-miterlimit:4;stroke-dasharray:none;stroke-opacity:1"
     x="78.57"
     y="3970.41"
     id="text4227" />
  <text
     style="font-style:normal;font-weight:normal;font-size:144px;line-height:125%;font-family:Sans;-inkscape-font-specification:Sans;letter-spacing:0px;word-spacing:0px;fill:#000000;fill-opacity:1;stroke:none"
     xml:space="preserve"
     id="text2997"
     y="-2193.04"
     x="-3225.55"><tspan
       id="tspan1"
       y="-2193.04"
       x="-3225.55">1990</tspan></text>
  <path
     style="fill:none;fill-rule:nonzero;stroke:#7b2181;stroke-width:5;stroke-linecap:butt;stroke-linejoin:round;stroke-miterlimit:4;stroke-dasharray:none;stroke-opacity:1"
     d="m 742.66,2100.45 11.36,27.84 30.27,41.72 12.87,10.47 26.31,7.64 29.42,1.13 16.97,3.82 10.32,6.08 8.2,12.02 13.01,15.7 31.12,15.85"
     id="path2088" />
  <path
     style="fill:none;stroke:#7b2181;stroke-width:5;stroke-linejoin:round;stroke-opacity:1"
     d="m 1768.77,3314.61 -5.09,-23.76 -9.05,-18.39 -138.03,-283.71 -96.45,-196.59 -9.05,-27.15 -44.42,-173.2"
     id="path1" />
  <path
     style="fill:none;fill-rule:nonzero;stroke:#7b2181;stroke-width:5;stroke-linecap:butt;stroke-linejoin:round;stroke-miterlimit:4;stroke-dasharray:none;stroke-opacity:1"
     d="m 1174.17,2221.13 17.37,2.43 14.99,6.71 58.07,40.12 51.31,42.36 43.16,46.71 37.92,52.71 29.92,53.56 20.98,51.42 9.73,33.4 9.04,41.27"
     id="path2088-3" />
  <path
     id="path876"
     style="fill:none;stroke:#f79422;stroke-width:1;stroke-linejoin:round;stroke-dasharray:none;stroke-opacity:1"
     d="m -2309.97,3565.59 -4.95,-3.01 -4.27,-4.1 -6.15,-1.02 -5.64,1.71 -3.07,3.93 -2.99,5.5 m -224.55,27.59 5.88,-7.47 3.24,-11.44 3.24,-2.9 4.78,0.17 2.9,2.05 9.31,1.01 m -813.05,285.27 5.97,-14.2 v -7.91 l -2.96,-4.28 0.33,-3.95 11.2,-5.6 9.22,1.65 49.42,-18.77 20.75,0.99 2.31,1.65 3.95,-2.64 11.2,-4.28 19.76,-12.52 21.74,-6.26 11.2,-7.91 24.7,-18.45 25.69,-8.56 34.6,-7.91 35.91,-0.66 62.26,12.52 18.45,2.64 24.37,-2.31 16.8,-3.95 51.06,-52.38 11.2,-7.91 57.65,-24.7 51.06,-18.12 34.27,1.32 48.43,-17.46 29.32,-7.58 24.05,0.66 6.92,-5.27 14.82,-15.15 14.82,-4.94 28,-2.31 10.44,-4.29 24.14,-16.44 114.98,-8.26 51.06,7.58 29.14,-8.32 13.53,3.28 13.53,-6.28 100.94,1.77 7.91,-1.65 10.52,-2.11 1.22,-2.64 -2.65,-12.26 1.59,-3.52 3.4,-5" />
  <text
     style="font-style:normal;font-weight:normal;font-size:144px;font-family:Sans;-inkscape-font-specification:Sans;fill:#000000;fill-opacity:1;stroke:none"
     xml:space="preserve"
     id="text3652-1"
     y="3997.95"
     x="2162.45"><tspan
       id="tspan2"
       y="3997.95"
       x="2162.45">1990</tspan></text>
</svg>
