<?xml version="1.0" encoding="UTF-8" standalone="no"?>
<svg
   version="1.1"
   id="svg2"
   width="17150"
   height="7100"
   viewBox="-8225 -2050 17150 7100"
   xmlns:xlink="http://www.w3.org/1999/xlink"
   xmlns="http://www.w3.org/2000/svg"
   xmlns:svg="http://www.w3.org/2000/svg"
   xmlns:rdf="http://www.w3.org/1999/02/22-rdf-syntax-ns#"
   xmlns:cc="http://creativecommons.org/ns#"
   xmlns:dc="http://purl.org/dc/elements/1.1/">
  <metadata
     id="metadata8">
    <rdf:RDF>
      <cc:Work
         rdf:about="">
        <dc:format>image/svg+xml</dc:format>
        <dc:type
           rdf:resource="http://purl.org/dc/dcmitype/StillImage" />
      </cc:Work>
    </rdf:RDF>
  </metadata>
  <defs
     id="defs6" />
  <image
     xlink:href="../basemap/fszosm.png"
     width="17696"
     height="7465.5"
     preserveAspectRatio="none"
     id="image10"
     x="-8496.5"
     y="-2268"
     style="display:none" />
  <path
     style="opacity:1;fill:none;fill-opacity:1;fill-rule:nonzero;stroke:#0094e2;stroke-width:5;stroke-linecap:butt;stroke-linejoin:round;stroke-miterlimit:4;stroke-dasharray:none;stroke-opacity:1"
     d="m 118.12,774.2 21.56,-3.66 21.56,-8.54 36.3,-26.1 10.35,-2.3 13.81,2.3 43.43,8.63 10.07,-0.86 61.55,-34.23 9.49,-8.63 37.39,-63.86 18.12,-25.6 34.8,-35.95 34.52,-28.19 81.4,-48.61 8.05,-2.01 10.07,0.29 31.64,7.77 41.42,0.58 35.67,-2.59 10.07,-2.88 38.83,-28.19 64.43,-60.69 21,-27.04 130.01,-103.84 41.71,-40.84 6.9,-6.04 8.63,-3.16 232.7,-20.13 11.51,-2.01 14.96,-7.48 50.34,-30.49 59.25,-27.9 h 16.68"
     id="path836" />
  <path
     style="opacity:1;fill:none;fill-opacity:1;fill-rule:nonzero;stroke:#000000;stroke-width:5;stroke-linecap:butt;stroke-linejoin:round;stroke-miterlimit:4;stroke-dasharray:none;stroke-opacity:1"
     d="m 1082.09,810.26 34.23,144.68"
     id="path838" />
  <text
     style="font-style:normal;font-weight:normal;font-size:144px;font-family:Sans;-inkscape-font-specification:Sans;fill:#000000;fill-opacity:1;stroke:none"
     xml:space="preserve"
     id="text2838-3"
     y="-1843.04"
     x="-8135.55"><tspan
       id="tspan1"
       y="-1843.04"
       x="-8135.55">1990</tspan></text>
  <text
     style="font-style:normal;font-weight:normal;font-size:144px;font-family:Sans;-inkscape-font-specification:Sans;fill:#000000;fill-opacity:1;stroke:none"
     xml:space="preserve"
     id="text3652-1"
     y="4947.96"
     x="8502.45"><tspan
       id="tspan2"
       y="4947.96"
       x="8502.45"></tspan></text>
  <path
     style="fill:none;stroke:#ed6c00;stroke-width:5;stroke-linejoin:round;stroke-dasharray:none;stroke-opacity:1"
     d="m -8104.33,4949.07 26.88,-15.42 55.74,-19.37 60.58,-16.85 193.16,-30.19 35.78,-9.5 32.71,-16.49 199.31,-114.33 25.44,-10.9 31.31,-4.19 27.67,1.12 55.91,11.46 195.95,54.23 132.5,40.81 38.86,6.15 45.28,4.47 229.5,22.36 176.39,-5.31 59.82,-13.42 52.83,-22.64 202.94,-68.49 21.52,-13.7 124.39,-105.38 216.64,-177.78 19.29,-12.58 19.29,-8.67 34.1,-12.58 53.95,-22.36 257.73,-95.88 209.65,-77.15 37.46,-16.49 215.8,-102.87 137.25,-65.41 29.91,-14.26 41.09,-11.74 23.48,-9.5 39.69,-24.04 27.95,-7.83 73.24,-10.62 114.61,-17.61 47.8,-13.14 39.13,-15.37 162.97,-62.06 21.24,-2.52 15.09,1.96 62.06,31.03 62.34,19.85 22.12,7.39 13.05,9.09 23.72,32.42 25.5,22.93 26.68,31.82 24.91,17 47.44,27.67 17.79,5.73 169.39,34.59 19.77,-1.19 119.78,-54.55 183.82,-85.39 9.29,-8.3 20.56,-27.08 22.14,-17.39 79.85,-38.94 14.23,-14.43 8.1,-14.82 21.54,-44.47 10.87,-12.06 15.81,-9.49 60.68,-21.35 15.62,-14.82 8.7,-14.23 2.57,-20.56 -3.36,-19.96 -17.99,-44.28 -4.15,-33.4 -14.23,-23.32 -28.27,-20.56 -9.09,-12.65 -48.96,-133.24 -10.9,-36.62 -1.68,-30.19 6.71,-32.15 12.58,-22.92 96.16,-112.37 16.21,-12.58 24.6,-6.43 20.13,4.47 58.98,29.35 23.48,6.15 54.51,3.63 53.67,-0.56 24.32,-7.27 19.29,-11.74 101.75,-132.5 18.73,-16.49 16.21,-8.95 24.88,-5.59 119.64,6.15 91.97,1.12 12.58,-2.52 188.96,-61.5 252.14,-86.66 318.95,-93.08 591.21,-226.98 166.88,-62.9 240.68,-131.66 28.23,-18.73 15.93,-16.49 8.95,-14.54 8.95,-21.52 9.22,-31.87 25.44,-71 85.26,-152.07 17.89,-20.96 19.29,-14.54 90.85,-47.24 12.3,-10.34 91.97,-122.16 5.03,-13.98 1.4,-37.46 7.27,-41.09 13.98,-34.66 14.82,-32.71 20.69,-32.71 48.36,-64.01 9.78,-24.6 3.07,-21.8 10.06,-299.38 4.75,-25.44 9.5,-20.13 23.76,-32.98 181.42,-219.15 22.08,-21.52 58.98,-42.77 58.7,-36.62 168,-95.6 33.26,-26.84 117.4,-90.01 210.77,-167.16 239.84,-184.77 19.85,-10.06 20.57,-5.14 231.55,-19.9 11.94,-2.06 13.12,-6.55 50.41,-30.56 74.41,-48.07 8.3,-11.37 3.76,-11.07 3.56,-15.52 7.83,-109.18 8.95,-29.63 14.82,-26.28 38.02,-56.75 86.66,-97.28 52.83,-60.66 12.86,-8.95 20.13,-7.27 68.77,-5.87 17.33,-5.59 21.24,-17.33 118.8,-105.94 32.43,-21.8 103.99,-65.41 14.54,-15.09 26.84,-54.23 7.55,-28.79 16.77,-26.28 3.91,-14.54 1.96,-27.39 6.15,-20.13 38.02,-70.16 5.87,-18.17 13.14,-87.77 3.91,-18.45 38.02,-123.55 46.96,-84.98 15.37,-27.67 12.02,-12.02 51.15,-25.44 80.79,-42.21 77.99,-65.41 18.73,-10.34 111.25,-41.09 34.1,-6.43 143.4,-19.01 22.64,-8.11 114.05,-52.27 97.56,-82.18 15.09,-19.29 14.54,-31.87 3.63,-17.33 -3.07,-23.48 -19.57,-70.44 2.24,-21.52 20.96,-109.58 10.06,-20.41 12.3,-13.7 17.61,-13.98 101.47,-50.04 28.51,-11.18 36.06,-8.67 46.68,-1.68 155.98,10.9 148.99,10.06 53.11,8.11 242.91,53.39 227.26,50.6 538.66,116.01 340.75,76.87 80.79,29.91 220.27,90.29 77.99,30.19 26.28,5.31 31.03,0.84 41.93,2.52 24.88,9.22 144.8,75.75 236.21,128.31 102.31,52.55 13.7,2.8 71.67,-0.43"
     id="path1" />
  <path
     style="fill:none;stroke:#00214b;stroke-width:5;stroke-linejoin:round;stroke-dasharray:none;stroke-opacity:1"
     d="m 8302.41,-1558.67 41.93,0.28"
     id="path2" />
  <path
     style="fill:none;stroke:#000000;stroke-width:5;stroke-linejoin:round;stroke-dasharray:none;stroke-opacity:1"
     d="m 8808.09,-957.67 31.59,26.28"
     id="path3" />
  <path
     style="fill:none;stroke:#000000;stroke-width:5;stroke-linejoin:round;stroke-dasharray:none;stroke-opacity:1"
     d="m 6837.94,212.74 87.21,-212.45"
     id="path4" />
  <path
     style="fill:none;stroke:#000000;stroke-width:5;stroke-linejoin:round"
     d="m 6438.88,-107.66 45.05,3.78"
     id="path5" />
  <path
     style="fill:none;stroke:#ed6c00;stroke-width:5;stroke-linejoin:round;stroke-dasharray:none;stroke-opacity:1"
     d="m 6070.47,-1179.53 21.41,-0.13 26.56,-3.35 29.63,-6.99 19.01,-11.46 469.34,-311.68 24.6,-11.74 143.4,-30.75 27.39,0.56 21.52,3.91 153.18,78.55 25.72,10.34 83.3,25.72 19.57,12.02 12.3,13.14 39.97,65.41 15.37,14.26 87.77,69.04 19.85,13.42 15.65,5.31 20.13,2.24 25.44,-4.19 86.1,-20.13 20.69,0.28 27.67,1.68 1110.03,148.99 27.67,1.4 23.2,-3.35 45.28,-6.71 21.52,-8.67 13.98,-7.83 69.65,-61.25"
     id="path1-7" />
  <path
     style="fill:none;fill-opacity:0.25;stroke:#f68b1f;stroke-width:5;stroke-linejoin:round;stroke-opacity:1"
     d="m 8809.91,-1189.13 39.82,-34 23.25,-21.22 9.88,-15.99 3.2,-15.69 0.58,-28.19 4.65,-16.57 10.17,-16.57 28.68,-17.64"
     id="path6" />
</svg>
