<?xml version="1.0" encoding="UTF-8" standalone="no"?>
<svg
   version="1.1"
   id="svg2"
   width="1250"
   height="850"
   viewBox="0 0 1250 850"
   xmlns:xlink="http://www.w3.org/1999/xlink"
   xmlns="http://www.w3.org/2000/svg"
   xmlns:svg="http://www.w3.org/2000/svg"
   xmlns:rdf="http://www.w3.org/1999/02/22-rdf-syntax-ns#"
   xmlns:cc="http://creativecommons.org/ns#"
   xmlns:dc="http://purl.org/dc/elements/1.1/">
  <metadata
     id="metadata8">
    <rdf:RDF>
      <cc:Work
         rdf:about="">
        <dc:format>image/svg+xml</dc:format>
        <dc:type
           rdf:resource="http://purl.org/dc/dcmitype/StillImage" />
      </cc:Work>
    </rdf:RDF>
  </metadata>
  <defs
     id="defs6" />
  <image
     xlink:href="../basemap/tmposm.png"
     y="-133.56"
     x="-5.89"
     id="image12"
     style="display:none"
     preserveAspectRatio="none"
     height="1930.67"
     width="1608.89" />
  <path
     style="fill:none;stroke:#da2128;stroke-width:1;stroke-linejoin:round;stroke-miterlimit:4;stroke-dasharray:none;stroke-opacity:1"
     d="m 517.97,675.48 4.62,-1.19 2.75,1.99 3.48,21.88 -1.15,14.07 7.1,12.07 21.05,4.71 55.65,6.58 17.46,-2.18 4.63,5.86 4.52,2.82 142.2,-22.44 4.8,-4.18 49.18,-0.47 13.44,-1.31 42.69,-0.81 9.05,-1.57 11.55,-7.66 95.48,-36.75 5.74,-5.63 31.97,-44.29 5.43,-0.97 h 5.61 l 4.22,2.02 3.17,7.84 17.62,16.27 5.6,2.27 h 7.36 l 38.94,-11.61 12.98,-11.58"
     id="path837" />
  <path
     style="fill:none;stroke:#da2128;stroke-width:5;stroke-linejoin:round;stroke-dasharray:none;stroke-opacity:1"
     d="m 517.97,675.47 -12.88,9.52 -5.74,3.03 -15.15,2.39 -18.78,2.54 -9.8,-2.94 -7.53,-6.33 -6.59,-12.19 -5.74,-15.17 -3.12,-4.88 -6.81,-5.32 -63.16,-38.11 -19.32,-10.14 -9.68,-3.62 -13.21,-2.17 -10.76,-0.9 -4.7,-1.54 -5.43,-3.8 -33.1,-32.74 -4.16,-2.44"
     id="path456" />
  <path
     style="opacity:1;fill:none;stroke:#da2128;stroke-width:1;stroke-linejoin:round;stroke-dasharray:none;stroke-opacity:1"
     d="m 262.31,550.66 -123.64,-41.79 -5.43,-2.62 -16.19,-12.12 -11.76,-10.85 -0.63,-3.53 1.45,-3.71 9.04,-10.49 1.36,-4.97 10.94,-55.53 0.9,-13.21 2.26,-5.79 12.66,-12.66 2.53,-1.27 11.4,0.36 7.78,-0.54 8.77,-4.88 15.47,-11.12 8.32,-3.71 9.95,-1.63 21.62,1.09 2.17,-1.72 1.18,-3.17 -0.9,-22.07 2.17,-3.53 13.57,-8.23 6.15,-7.24 9.5,-14.92 5.97,-4.61 10.49,-5.43 4.43,0.45 2.8,-2.8 v -22.61 l -2.26,-9.59"
     id="path1" />
  <text
     x="89.45"
     y="206.96"
     id="text3652"
     xml:space="preserve"
     style="font-style:normal;font-weight:normal;font-size:144px;font-family:Sans;-inkscape-font-specification:Sans;fill:#000000;fill-opacity:1;stroke:none"><tspan
       x="89.45"
       y="206.96"
       id="tspan1">2025</tspan></text>
</svg>
