<?xml version="1.0" encoding="UTF-8" standalone="no"?>
<!-- Created with Inkscape (http://www.inkscape.org/) -->

<svg
   version="1.1"
   id="svg1"
   width="1500"
   height="5450"
   viewBox="0 0 1500 5450"
   xmlns:xlink="http://www.w3.org/1999/xlink"
   xmlns="http://www.w3.org/2000/svg"
   xmlns:svg="http://www.w3.org/2000/svg">
  <defs
     id="defs1" />
  <image
     width="1481"
     height="5627.8"
     preserveAspectRatio="none"
     xlink:href="../basemap/ytyosm.png"
     id="image1"
     x="35"
     y="-100"
     style="display:none" />
  <path
     style="fill:none;stroke:#0296d4;stroke-width:5;stroke-linejoin:round;stroke-opacity:1"
     d="m 817.02,125.98 -17.35,91.66 2.11,18.75 10.78,18.05 95.88,87.44 16.64,10.78 36.8,9.85 29.77,5.39 76.65,-5.86 57.67,-0.23 165.73,7.97 12.83,7.61 14.92,15.25 7.79,20.55 0.99,17.57 -4.64,16.08 -4.97,9.28 -104.76,119.68 -343.88,385.18 -15,10.78 -16.17,7.03 -17.35,1.17 -151.43,-15.47 -43.84,-7.97 -33.76,-12.19 -43.84,-16.64 -18.52,-1.41 -111.11,11.96 -14.77,7.03 -15,10.78 -11.49,16.17 -7.03,24.14 -16.88,108.07 -81.81,136.67 -89.08,311.54 -1.64,22.04 6.33,115.1 8.67,38.21 22.97,63.53 23.91,88.38 1.17,19.93 -7.03,64.7 1.41,20.63 7.97,23.21 16.88,28.13 32.35,48.52 13.36,25.32 6.8,24.38 45.48,210.98 2.11,26.49 v 32.58 l -3.75,53.21 -3.28,21.57 -36.8,109.24 -11.49,20.39 -12.66,12.89 -19.22,15.24 -45.01,30.24 -12.19,12.89 -9.85,16.41 -7.5,20.16 -17.35,104.78 -32.58,198.08 1.17,34.46 4.69,26.72 10.31,25.55 34.22,56.96 6.33,18.05 13.13,53.21 16.41,42.2 22.5,102.44 6.09,30.94 18.75,177.92 12.89,49.93 7.74,55.56 14.07,37.51 16.17,65.64 81.11,160.34 11.72,24.38 13.83,17.35 20.86,11.25 30.01,11.25 70.56,12.19 17.11,4.22 16.41,11.72 11.96,14.07 7.97,16.17 30.47,65.64 17.11,22.97 202.07,202.3 54.62,53.45 28.13,34.93 24.85,32.82 5.39,15.47 8.2,34.22 1.41,18.28 4.69,83.45 5.63,20.16 7.74,18.28 20.63,33.29 79.94,89.78 100.56,99.39 9.61,16.88 62.12,133.38 21.57,38.21 71.26,99.16 3.98,11.25 3.05,12.89 v 24.61 l -2.81,88.14"
     id="path1" />
  <text
     x="89.45"
     y="206.96"
     id="text3019"
     xml:space="preserve"
     style="font-style:normal;font-weight:normal;font-size:144px;line-height:125%;font-family:Sans;-inkscape-font-specification:Sans;letter-spacing:0px;word-spacing:0px;fill:#000000;fill-opacity:1;stroke:none"><tspan
       x="89.45"
       y="206.96"
       id="tspan1">2025</tspan></text>
  <text
     x="89.45"
     y="5347.96"
     id="text3019-6"
     xml:space="preserve"
     style="font-style:normal;font-weight:normal;font-size:144px;line-height:125%;font-family:Sans;-inkscape-font-specification:Sans;letter-spacing:0px;word-spacing:0px;fill:#000000;fill-opacity:1;stroke:none"><tspan
       x="89.45"
       y="5347.96"
       id="tspan2">2025</tspan></text>
</svg>
