<?xml version="1.0" encoding="UTF-8" standalone="no"?>
<svg
   id="svg2"
   viewBox="35, 0, 9050, 12300"
   height="12300"
   width="9050"
   version="1.1"
   xmlns:xlink="http://www.w3.org/1999/xlink"
   xmlns="http://www.w3.org/2000/svg"
   xmlns:svg="http://www.w3.org/2000/svg"
   xmlns:rdf="http://www.w3.org/1999/02/22-rdf-syntax-ns#"
   xmlns:cc="http://creativecommons.org/ns#"
   xmlns:dc="http://purl.org/dc/elements/1.1/">
  <metadata
     id="metadata42">
    <rdf:RDF>
      <cc:Work
         rdf:about="">
        <dc:format>image/svg+xml</dc:format>
        <dc:type
           rdf:resource="http://purl.org/dc/dcmitype/StillImage" />
      </cc:Work>
    </rdf:RDF>
  </metadata>
  <defs
     id="defs6" />
  <image
     xlink:href="../../basemap/sfoosm.png"
     style="display:none"
     id="image12"
     height="12816"
     width="9879"
     y="-267"
     x="-534" />
  <text
     style="font-size:144px;font-style:normal;font-weight:normal;fill:#000000;fill-opacity:1;stroke:none;font-family:Sans;-inkscape-font-specification:Sans"
     xml:space="preserve"
     id="text3639"
     y="12197.96"
     x="124.45"><tspan
       id="tspan2"
       y="12197.96"
       x="124.45"></tspan></text>
  <text
     style="font-size:144px;font-style:normal;font-weight:normal;fill:#000000;fill-opacity:1;stroke:none;font-family:Sans;-inkscape-font-specification:Sans"
     xml:space="preserve"
     id="text3639-3"
     y="206.96"
     x="124.45"><tspan
       id="tspan1"
       y="206.96"
       x="124.45">1925</tspan></text>
  <path
     style="fill:none;stroke:#d31345;stroke-width:5;stroke-linecap:butt;stroke-linejoin:round;stroke-miterlimit:4;stroke-opacity:1;stroke-dasharray:none"
     id="path2979"
     d="m 1010.9,4137.3 -4.4,2.2 -22.5,5 -14,6.5 -28.5,21.5 -137,122.5 -35,29.5 -38,36.5 -25,25.5 -29.5,42.5 -23.5,31.5" />
  <path
     style="fill:none;stroke:#d31345;stroke-width:1px;stroke-linecap:butt;stroke-linejoin:round;stroke-opacity:1"
     id="path3594"
     d="m 655,4457.5 -8,15 -15,17 -24.5,24.5 -14.5,18.5 -10,22 -1.5,14 -1.5,44 3.5,5 32,16 8,9.5 11.5,23.5 18.5,16.5 26.5,13.5 31.5,13 71,18.5" />
  <path
     style="fill:none;stroke:#d31345;stroke-width:1px;stroke-linecap:butt;stroke-linejoin:round;stroke-opacity:1"
     id="path2891"
     d="m 781.19,4727.2 1.4,4.2 -0.35,50.4" />
  <path
     style="fill:none;stroke:#d31345;stroke-width:1px;stroke-linecap:butt;stroke-linejoin:round;stroke-opacity:1"
     id="path3592"
     d="m 654.5,4459.5 -5,2.5 -9.5,-6.5 -9,-2.5 -38,3 -4.5,-0.5 -2,-3.5 -1.5,-21 -2.5,-3.5 -152,8 -246.5,14 -15.5,1" />
  <path
     style="fill:none;stroke:#d31345;stroke-width:1px;stroke-linecap:butt;stroke-linejoin:round;stroke-opacity:1"
     id="path2843"
     d="m 1470.72,3683.99 49.78,-47.99 -0.03,-2.05 -1.26,-3.17 1.04,-2.61 2.72,-2.22 3.99,0.86 3.29,3.43 0.57,4.36 -2.32,2.25 -2.79,0.82 -3.35,-1.6 -1.87,-0.08" />
  <path
     style="fill:none;stroke:#d31345;stroke-width:1;stroke-linecap:butt;stroke-linejoin:round;stroke-miterlimit:4;stroke-dasharray:none;stroke-opacity:1"
     id="path2818"
     d="m 1010.9,4137.3 16.6,-8.3 69.5,-72 36.07,-35.61 80.4,-81.17 62.03,-63.22 52.51,-50.06 113.61,-113.52 29.1,-29.42" />
  <path
     style="fill:none;stroke:#ff0000;stroke-width:5;stroke-linejoin:round"
     d="m 2790.64,2971.68 7.88,-22.77"
     id="path2" />
  <path
     style="fill:none;stroke:#ff0000;stroke-width:1;stroke-linejoin:round;stroke-dasharray:none"
     d="m 2801.81,2962.37 157.21,-83.32 15.04,-10.58 13.39,-11.9 11.08,-14.55 7.87,-11.13 4.21,-8.41 35.54,-119 22.68,-79.72 -14.96,-164.58 -2.57,-14.49 -11.69,-133.02 -3.51,-8.65 -12.39,-11.92 -3.04,-7.25 -3.74,-43.48 -2.1,-6.78 -9.59,-13.33 -1.64,-7.01 -1.4,-41.85 -1.87,-4.68 -10.75,-7.01 -17.77,-0.94 -23.85,-11.46"
     id="path3" />
  <path
     style="fill:none;stroke:#ff0000;stroke-width:1;stroke-linejoin:round;stroke-dasharray:none;stroke-opacity:1"
     d="m 2798.52,2948.9 10.44,-43.05 v -6.37 l -12.89,-58.24 8.89,-68.17 -12.45,-49.05 -110.41,-436.29 -25.64,-81.24 -6.5,-24.94 1.47,-5.03 4.61,-5.66 23.26,-5.45 262.61,-18.86 6.05,0.76"
     id="path4" />
  <path
     style="fill:none;stroke:#ff0000;stroke-width:1;stroke-linejoin:round;stroke-dasharray:none;stroke-opacity:1"
     d="m 3704.67,4040.16 39.08,-38.93 10.52,-6.66 7.95,-4.09 6.43,-1.64 h 138.52 l 192.64,32.61 13.58,2.56 7.56,5.78 32.6,42.98 23.42,17.49 58.69,69.65 152.8,259.36 23.26,43.8 64.97,109.4"
     id="path3-6" />
  <path
     style="fill:none;stroke:#ff0000;stroke-width:5;stroke-linejoin:round;stroke-dasharray:none;stroke-opacity:1"
     d="m 3171.45,3673.22 14.52,13.93 95.14,47.13 28.16,12.74 73.8,46.24 37.64,33.49 116.48,100.77 134.86,116.48 10.37,3.56 10.37,-0.59 11.86,-6.82"
     id="path5" />
  <path
     style="fill:none;stroke:#ff0000;stroke-width:1;stroke-linejoin:round;stroke-dasharray:none;stroke-opacity:1"
     d="m 3171.45,3673.22 -89.51,-61.95 -191.77,-93.36 -201.84,-56.61 -89.21,-26.38 -55.94,-7.65"
     id="path6" />
  <path
     style="fill:none;stroke:#ff0000;stroke-linejoin:round"
     d="m 3029.32,2759.82 4.58,-3.76 65.55,-10.66 11.99,0.99 25.29,-4.13 4.3,-3.14 2.48,-6.12 -3.06,-24.8 -36.7,-226.48"
     id="path7" />
  <path
     style="fill:none;stroke:#ff0000;stroke-linejoin:round"
     d="m 2966.54,2873.76 2.73,-9.92 -42.82,-268.96 -3.47,-10.91 -21.49,-247.97 -4.13,-14.05 -8.93,-13.56 -4.3,-16.2 0.5,-10.25 6.28,-10.58 2.65,-14.38 12.4,-23.8 9.59,-10.08 10.41,-9.59 1.98,-10.08 -8.33,-55.28"
     id="path8" />
  <path
     style="fill:none;stroke:#ff6633;stroke-width:1;stroke-linecap:butt;stroke-linejoin:round;stroke-miterlimit:4;stroke-dasharray:none;stroke-opacity:1"
     d="m 2848.05,3111.34 69.97,-19.69 41.95,-13.58 218.37,44.47 17.73,10.83 17.41,14.01 10.83,6.16 8.39,-0.96 9.64,-5.99 5.09,0.06 11.5,-10.74 40.87,-39.7 4.25,-0.53 4.67,1.06 16.24,21.55 8.07,3.61 7.96,0.21 14.65,-1.7 10.3,-1.7 4.78,1.38 3.82,3.82 23.57,60.61"
     id="path1-3" />
  <path
     style="fill:none;stroke:#ff6633;stroke-width:5;stroke-linecap:butt;stroke-linejoin:round;stroke-miterlimit:4;stroke-dasharray:none;stroke-opacity:1"
     d="m 2088.05,3285.01 30.88,13.74 49.01,-12.49 7.18,-4.89 24.31,-26.38 10.4,-3.55 134.5,-23.38 174.37,-33.27 108.51,-23.58 220.85,-59.87"
     id="path3009" />
  <path
     style="fill:none;stroke:#ff0000;stroke-width:5;stroke-linejoin:round"
     d="m 2294.83,3418.53 100.29,-5.57 148.06,14.32 19.23,-3.99 19.37,-7.62 35.65,-25.55 84.04,-79.58 22.48,-21.49 20.5,-33.06 25.13,-76.7 7.93,-68.77 0.99,-70.09 -3.97,-40.34 2.65,-9.59 8.76,-14.88 15.87,-13.22"
     id="path1" />
</svg>
