<?xml version="1.0" encoding="UTF-8" standalone="no"?>
<svg
   version="1.1"
   width="6450"
   height="5250"
   viewBox="-50 -1250 6450 5250"
   id="svg2"
   xml:space="preserve"
   xmlns:xlink="http://www.w3.org/1999/xlink"
   xmlns="http://www.w3.org/2000/svg"
   xmlns:svg="http://www.w3.org/2000/svg"
   xmlns:rdf="http://www.w3.org/1999/02/22-rdf-syntax-ns#"
   xmlns:cc="http://creativecommons.org/ns#"
   xmlns:dc="http://purl.org/dc/elements/1.1/"><metadata
     id="metadata8"><rdf:RDF><cc:Work
         rdf:about=""><dc:format>image/svg+xml</dc:format><dc:type
           rdf:resource="http://purl.org/dc/dcmitype/StillImage" /></cc:Work></rdf:RDF></metadata><defs
     id="defs6" /><image
     xlink:href="../basemap/denosm.png"
     id="image10"
     height="5446.88"
     width="6743.76"
     y="-1328.12"
     x="-234.38"
     style="display:none" /><path
     style="fill:none;stroke:#692976;stroke-width:5;stroke-linecap:butt;stroke-linejoin:round;stroke-miterlimit:4;stroke-dasharray:none;stroke-opacity:1"
     d="m 2415.02,259.79 -8.86,11.99 -20.49,38.47 -17.18,17.71 -14.04,21.29 -5.55,9.12 -7.43,6.35 -39.18,22.1 -10.38,7.78 -7.42,8.95 -5.99,13.33 -1.61,11.9 0.36,11 3.49,7.78 2.68,1.88 16.28,0.89 5.28,2.15 3.76,3.85 12.72,28.79 6.67,6.58 6.8,2.68 15.74,0.69 4.19,3.41 2.23,4.31 9.44,24.85 4.46,91.59 v 0.03 l 0.14,0.94 v 0.01 l 26,103 0.39,1.03 47.93,94.85 51.93,121.85 v 0.01 l 0.2,0.4 21,39 0.32,0.51 0.01,0.01 16.67,23.53 14.52,35.82 7.93,71.31 10.8,7.77 7,0.04 17.1,-7.28 5.8,0.12 5.65,2.28 127.08,145.47 12.69,9.69 125.36,77 37.94,12.69 14.6,2.47 19.15,-0.03 42.78,-8.25 57.34,0.38 28.1,4.02 44.97,14.33 11.18,10.47 25.04,37.31 6.46,4.45 52.31,10.59 9.53,6.59 40.23,61.44 41.63,78.46 16,39.26 16.4,21.33 13.84,26.48 41.94,124.68 7.71,33.26 7.95,19.65 20.96,39.27 93.61,218.95 62.82,142.57 12.5,32.93 18.5,32.07 69.15,153.93 14.82,46.21 19.03,30.86 63.35,138.36 13.69,46.03 21.08,32.99 64.09,145.88 9.75,40.77 3.08,9.38 17.24,25.85 7.28,16.31 26.45,109.43 -0.75,55.14 11.75,41.86 1.54,65.56 11.46,32.44 2,30 v 39 l 13.12,36.91 4.6,76.47 2.58,42.76 1.52,46.3 -2.53,9.62 -14.68,21 -2.28,6.58 -4.05,54.15 1.52,8.35 19.99,28.84 7.59,4.3 49.34,3.8 9.87,5.57 4.55,11.13 1.01,9.87 0.76,40.74 -15.69,65.03 -15.69,31.38"
     id="path864" /><path
     style="fill:none;stroke:#0092b3;stroke-width:5;stroke-linecap:butt;stroke-linejoin:round;stroke-miterlimit:4;stroke-dasharray:none;stroke-opacity:1"
     d="m 64.5,707 24,14.5 8.5,4.5 70.5,-0.5 28,-5.5 70.5,2.5 24,-5 h 18.5 l 34,4 97.5,1.5 18,-3.5 9,-1 8.5,1.5 23,13 6.5,3 9,0.5 41.5,-4.5 309.5,-0.5 20.5,6.5 9,5.5 6,6.5 3,10 v 44.5 l 5.5,4.5 29,0.5 3.5,-7.5 v -20 l 2,-11.5 14.5,-20.5 4,-9.5 13,-44 2.5,-13 -4,-9 -25,-31 -11.5,-16.5 -4,-16.5 2.5,-17 8,-11.5 45.5,-35 13,-6.5 9.5,0.5 14.5,2.5 33,4.5 62.5,8.5 308,-2.5 315,-0.5 14.5,4 18,15 8.5,3 74.5,2.5 41,6 106.5,-0.5 11,-2.5 13,-8.5 6.5,-4.5 h 34.5 23.5 l 29,-6.5 24,-9.5 22,-14 21.5,-9 h 48.5 l 23,10.5 h 41.5 l 9.5,-2 5.5,-7.5 3.31,-32.33 -6.88,-10.49 -12.54,-28.51 -2.45,-2.51 -3.31,-1.43 -16.63,-0.56 -5.32,-3.39 -4.26,-11.35 -0.51,-11.26 1.88,-12.78 6.41,-14.52 9.39,-10.65 10.2,-7.51 38.74,-22.01 6.8,-5.64 19.05,-29.79 17.8,-18.16 19.23,-37.08 9.55,-13.29"
     id="path2987" /><path
     style="fill:none;stroke:#005ca7;stroke-width:5;stroke-linecap:butt;stroke-linejoin:round;stroke-miterlimit:4;stroke-dasharray:none;stroke-opacity:1"
     d="m 3435.9,1897.08 86.42,202.85 5.33,9.74 8.51,6.17 19.34,3.13 94,-8.5 46.5,-4.5 29.5,-12 175,-111 30,-20 24,-9.5 34.5,-9 31,-17.5 145.5,-113 80,-32 36,-21"
     id="path876" /><path
     style="fill:none;stroke:#037940;stroke-width:5;stroke-linecap:butt;stroke-linejoin:round;stroke-miterlimit:4;stroke-dasharray:none;stroke-opacity:1"
     d="m 2146.9,2965.14 24.38,-74.14 29.72,-200 12.67,-93.77 38.28,-90.24 33.05,-69.99 13,-38 28,-130 14.7,-82.19 12.64,-37.24 31.66,-149.57 99.85,-317.52 62.15,-306.48 25.5,-121 2,-38.5 -1.5,-28.5 -10.01,-76.99 -8,-72 v 0 l -15,-37 v 0 0 l -16.91,-23.87 -0.16,-0.26 -20.87,-38.77 -0.1,-0.21 -51.94,-121.86 v -0.01 -0.01 l -0.01,-0.02 -47.88,-94.75 -0.19,-0.52 -25.87,-102.49 -0.07,-0.49 -4.49,-92.25 v 0 l -9.59,-24.77 -2.96,-6.14 -5.45,-4.56 -17.32,-1.49 -5.33,-2.08 -5.28,-5.28 -12.88,-28.63 -5.55,-5.55 -6.62,-2.42 -15.83,-0.63 -3.4,-6.44 -0.18,-8.5 1.43,-10.91 5.28,-11.81 7.69,-9.3 9.12,-6.89 39.99,-22.54 7.87,-6.8 6.3,-10.15 13.56,-20.71 17.35,-17.71 20.66,-38.82 8.68,-11.72"
     id="path3757" /><text
     x="39.45"
     y="-1043.04"
     id="text2990"
     xml:space="preserve"
     style="font-style:normal;font-weight:normal;font-size:144px;line-height:125%;font-family:Sans;-inkscape-font-specification:Sans;letter-spacing:0px;word-spacing:0px;fill:#000000;fill-opacity:1;stroke:none"><tspan
       x="39.45"
       y="-1043.04"
       id="tspan1">2025</tspan></text><text
     x="-2298.55"
     y="3897.96"
     id="text2819-1"
     xml:space="preserve"
     style="font-style:normal;font-weight:normal;font-size:144px;font-family:Sans;-inkscape-font-specification:Sans;fill:#000000;fill-opacity:1;stroke:none"><tspan
       x="39.45"
       y="3897.96"
       id="tspan2">2025</tspan></text><path
     style="fill:none;stroke:#51c2ec;stroke-width:5;stroke-linejoin:round;stroke-opacity:1"
     d="m 2436.07,296.16 69.29,-68.46 25.95,-14.91 25.4,-14.08 99.93,-93.58 26.22,-16.84 47.2,-31.74 14.63,-15.73 38.37,-37.27 9.39,-6.35 16.01,-1.38 128.64,0.55 6.63,-3.86 3.31,-4.69 2.48,-5.24 5.52,-14.08 5.52,-6.07 8.83,-4.14 219.73,-13.94 20.98,0.28 20.29,1.52 118.42,21.26 333.87,59.35 31.19,3.04 176.67,17.67 337.6,33.4 146.58,14.35 17.11,4.14 436.7,149.34 26.78,4.69 18.77,-0.28 13.53,-5.24 11.04,-9.39 46.38,-102.41 5.8,-21.81 1.93,-23.19 -3.04,-281.29 5.24,-28.98 40.85,-167.83 1.1,-22.08 -5.24,-304.75 4.14,-29.81 6.9,-24.29 15.18,-21.53 28.16,-25.67 22.08,-16.56 20.15,-8.83 24.57,-5.52 347.81,0.55 22.64,-4.42 19.32,-8.83 16.84,-14.08 85.57,-106.83 19.88,-14.91 33.68,-13.53 24.57,-3.86 587.97,4.97 10.21,-3.31 7.45,-4.97 4.97,-8.28 1.93,-14.08 -0.83,-59.63 -0.83,-13.8 -0.16,-35.28"
     id="path1" /><text
     xml:space="preserve"
     style="font-size:15px;line-height:25px;font-family:Sans;-inkscape-font-specification:Sans;letter-spacing:0px;word-spacing:0px;fill:none;stroke:#000000;stroke-width:1px;stroke-linecap:butt;stroke-linejoin:miter;stroke-opacity:1"
     x="1634.14"
     y="-529.38"
     id="text3"><tspan
       id="tspan3" /></text></svg>
