<?xml version="1.0" encoding="UTF-8" standalone="no"?>
<svg
   version="1.1"
   viewBox="-1760 -2520 8600 7300"
   height="7300"
   width="8600"
   id="svg2"
   xmlns:xlink="http://www.w3.org/1999/xlink"
   xmlns="http://www.w3.org/2000/svg"
   xmlns:svg="http://www.w3.org/2000/svg"
   xmlns:rdf="http://www.w3.org/1999/02/22-rdf-syntax-ns#"
   xmlns:cc="http://creativecommons.org/ns#"
   xmlns:dc="http://purl.org/dc/elements/1.1/">
  <metadata
     id="metadata33">
    <rdf:RDF>
      <cc:Work
         rdf:about="">
        <dc:format>image/svg+xml</dc:format>
        <dc:type
           rdf:resource="http://purl.org/dc/dcmitype/StillImage" />
      </cc:Work>
    </rdf:RDF>
  </metadata>
  <defs
     id="defs6" />
  <path
     style="opacity:1;fill:none;stroke:#f68b1f;stroke-width:5;stroke-linejoin:round;stroke-opacity:1"
     d="m 2720.31,1648.99 6.49,8.64 0.09,2.89 -1.34,3.58 -39.15,29.02 -4.82,0.83 -10.02,-4.36"
     id="path1621" />
  <path
     style="opacity:1;fill:none;stroke:#f68b1f;stroke-width:1;stroke-linejoin:round;stroke-miterlimit:4;stroke-dasharray:none;stroke-opacity:1"
     d="m 2720.31,1648.99 -17.39,-21.21 -26.86,-5.89 -16.77,-5.85 -24.29,-13.1 -17.65,-12.35 -27.57,-32.32 -58.33,-29.5 -49.86,-27.44 -76.22,-33.52 -67.36,-39.48 -4.95,-15.05 -31.6,-29.09 -0.42,-3.01 5.95,-7.82 -0.3,-2.96 -22.32,-14.78"
     id="path1623" />
  <image
     xlink:href="../basemap/berosm.png"
     style="display:none"
     id="image12"
     height="7397.14"
     width="8424.52"
     y="-2537.86"
     x="-1488.33" />
  <path
     d="m 1731.14,1516.3 -0.46,-14.58 9.11,-51.93 19.13,-58.31 0.63,-1.63"
     id="path3627-2"
     style="fill:none;stroke:#e94e0f;stroke-width:5;stroke-linecap:butt;stroke-linejoin:round;stroke-miterlimit:4;stroke-dasharray:none;stroke-opacity:1" />
  <path
     d="m 1241.02,1324.07 10.31,10.31 28.35,36.08 25.12,19.97 54.76,41.23 15.46,3.22 8.73,11.88 21.76,15.14 35.86,20.33"
     id="path3627"
     style="fill:none;stroke:#e94e0f;stroke-width:5;stroke-linecap:butt;stroke-linejoin:round;stroke-miterlimit:4;stroke-dasharray:none;stroke-opacity:1" />
  <path
     d="m 2591.9,1455.85 13.16,13.65 4.54,8.9 3.04,13.6 0.13,20.88 -8.58,27.65"
     id="path3632"
     style="fill:none;stroke:#408335;stroke-width:5;stroke-linecap:butt;stroke-linejoin:round;stroke-miterlimit:4;stroke-opacity:1;stroke-dasharray:none" />
  <path
     d="m 2370.34,1496.08 7.09,0 14.17,3.22 7.73,-7.73 16.75,-23.84 18.68,-37.36"
     id="path3629-4"
     style="fill:none;stroke:#f78f98;stroke-width:5;stroke-linejoin:round;stroke-miterlimit:4;stroke-opacity:1;stroke-dasharray:none" />
  <path
     d="m 1589.66,1747.02 -3.66,13.48 -1,31 0.5,13.5 4,12 5.98,7.31 10.82,8.7"
     id="path7114"
     style="fill:none;stroke:#408335;stroke-width:5;stroke-linecap:butt;stroke-linejoin:round;stroke-miterlimit:4;stroke-opacity:1;stroke-dasharray:none" />
  <path
     d="m 1585,1791.5 -5.5,11 -6.5,7.5 -5.5,5 -12.87,7.75"
     id="path7116"
     style="fill:none;stroke:#408335;stroke-width:5;stroke-linecap:butt;stroke-linejoin:round;stroke-miterlimit:4;stroke-opacity:1;stroke-dasharray:none" />
  <path
     d="m 1570.22,2213.74 -1.29,24.48 -12.88,35.43 -25.12,53.47 -14.82,26.41 -37.37,47.67 -59.91,65.07 -52.83,58.62 -55.4,52.18 -12.65,16.45"
     id="path3637-7"
     style="fill:none;stroke:#408335;stroke-width:5;stroke-linecap:butt;stroke-linejoin:round;stroke-miterlimit:4;stroke-opacity:1;stroke-dasharray:none" />
  <path
     d="m 963.68,1471.28 -16.18,9.22 -12,14 -10.5,18.5 -1.5,14 1.5,10.5 6.8,15.27"
     id="path4151"
     style="fill:none;stroke:#408335;stroke-width:5;stroke-linecap:butt;stroke-linejoin:round;stroke-miterlimit:4;stroke-opacity:1;stroke-dasharray:none" />
  <text
     x="-1670.55"
     y="4677.96"
     id="text2838"
     xml:space="preserve"
     style="font-size:144px;font-style:normal;font-weight:normal;fill:#000000;fill-opacity:1;stroke:none;font-family:Sans;-inkscape-font-specification:Sans"><tspan
       x="-1670.55"
       y="4677.96"
       id="tspan2">1905</tspan></text>
  <text
     x="-1670.55"
     y="-2313.04"
     id="text2838-3"
     xml:space="preserve"
     style="font-size:144px;font-style:normal;font-weight:normal;fill:#000000;fill-opacity:1;stroke:none;font-family:Sans;-inkscape-font-specification:Sans"><tspan
       x="-1670.55"
       y="-2313.04"
       id="tspan1">1905</tspan></text>
  <path
     d="m 933.41,1478.68 -15.66,-0.68 -13.25,-4.25 -13.5,-8.75 -8.75,-11.5 -7.79,-18.62"
     id="path8905"
     style="fill:none;stroke:#408335;stroke-width:5;stroke-linecap:butt;stroke-linejoin:round;stroke-miterlimit:4;stroke-opacity:1;stroke-dasharray:none" />
  <path
     d="m 1680.38,1611.39 -9.66,30.28 -41.87,51.54 -53.47,73.44 -37.36,46.38 -13.53,15.46 -24.48,36.72 -86.97,115.32 -88.26,116.6 -98.57,128.2 -28.35,28.99 -26.41,21.26 -89.55,49.61 -63.78,38.01 -57.34,29.63 -85.68,50.89 -60.56,35.43 -109.52,63.78 -55.4,28.99"
     id="path3633"
     style="fill:none;stroke:#408335;stroke-width:5;stroke-linecap:butt;stroke-linejoin:round;stroke-miterlimit:4;stroke-dasharray:none;stroke-opacity:1" />
  <path
     d="m 874.46,1434.88 4.51,-27.7 19.97,-41.87 10.95,-38.01 -1.29,-22.55 -6.44,-27.7 -12.88,-68.29 -9.02,-54.76 -3.22,-36.72 4.51,-21.26 9.66,-16.11 22.55,-12.24 17.39,-5.15 38.01,-1.29 54.11,-14.82 120.47,-24.48 86.33,-18.68 101.79,-23.19 48.96,-10.31 141.08,-28.35 30.28,-4.51 23.19,-14.82 32.21,-22.55 54.11,-41.87 65.71,-47.67 47.03,-30.28 27.06,-8.37 53.68,-12.73 62.29,-5.24"
     id="path3631"
     style="fill:none;stroke:#408335;stroke-width:5;stroke-linecap:butt;stroke-linejoin:round;stroke-miterlimit:4;stroke-dasharray:none;stroke-opacity:1" />
  <path
     d="m 2632.54,1438.1 44.45,-74.09 6.44,-22.55 -5.15,-34.14 -24.48,-67 -28.35,-67.64 -18.68,-14.17 -52.18,-20.62 -26.41,-12.88 -28.99,-40.59 -65.71,-112.74 -21.9,-28.35 -76.02,-50.89 -58.62,-37.36 -28.99,-10.95 -41.23,-26.41 -51.54,-42.52 -25.12,-13.53 -21.26,-9.02 -53.47,-3.22 -66.35,2.58 -38.01,1.93 -33.49,-0.58"
     id="path3631-6"
     style="fill:none;stroke:#408335;stroke-width:5;stroke-linecap:butt;stroke-linejoin:round;stroke-miterlimit:4;stroke-dasharray:none;stroke-opacity:1" />
  <path
     style="fill:none;stroke:#408335;stroke-width:5;stroke-linecap:butt;stroke-linejoin:round;stroke-miterlimit:4;stroke-dasharray:none;stroke-opacity:1"
     id="path7331"
     d="m 1554.63,1822.75 -23.06,3.17 -35.43,13.53 -16.35,7.11 -13.67,2.45 -33.12,-1.18 -47.67,1.29 -37.36,5.8 -43.16,1.29 -79.24,0 -30.92,-5.8 -25.77,-12.88 -21.26,-18.68 -46.38,-55.4 -77.31,-96.63 -25.12,-29.63 -24.48,-33.5 -42.52,-50.89 -1.55,-2.6" />
  <path
     style="fill:none;stroke:#408335;stroke-width:5;stroke-linecap:butt;stroke-linejoin:round;stroke-miterlimit:4;stroke-dasharray:none;stroke-opacity:1"
     id="path7333"
     d="m 2389.03,1978.6 66.35,-16.75 23.84,-14.17 15.46,-19.97 8.37,-32.86 18.68,-156.55 8.37,-56.05 8.37,-46.38 13.53,-27.7 23.19,-32.21 28.99,-35.43" />
  <path
     d="m 2591.9,1455.85 11.16,-2.16 9.34,-3.41 8.49,-3.18 4.95,-3.54 6.7,-5.47"
     id="path3859"
     style="fill:none;stroke:#408335;stroke-width:5;stroke-linecap:butt;stroke-linejoin:round;stroke-miterlimit:4;stroke-dasharray:none;stroke-opacity:1" />
  <path
     d="m 2401.27,1975.38 -119.18,29.63 -77.95,16.75 -22.55,6.44 -36.08,8.37 -97.28,13.53 -33.5,1.29 -41.23,-16.75 -30.28,-14.82 -38.01,-26.41 -26.41,-15.46 -38.65,-15.46 -36.72,-8.37 -53.47,-3.22 -37.44,0.62 -15.1,-3.35 -15.74,-8.86 -19.33,-22.55 -16.75,-45.74 -16.11,-22.55 -23.19,-15.46"
     id="path7931"
     style="fill:none;stroke:#408335;stroke-width:5;stroke-linecap:butt;stroke-linejoin:round;stroke-miterlimit:4;stroke-dasharray:none;stroke-opacity:1" />
  <path
     d="m 1441.37,1482.23 108.55,36.72 57.66,21.58 42.01,15.41 11.84,-0.46 12.3,3.64 40.54,-0.46 7.74,-4.56 5.01,-7.29 4.1,-30.52"
     id="path3627-8-6"
     style="fill:none;stroke:#e94e0f;stroke-width:5;stroke-linecap:butt;stroke-linejoin:round;stroke-miterlimit:4;stroke-dasharray:none;stroke-opacity:1" />
  <path
     d="m 1680.38,1611.39 12.24,-9.66 13.92,-14.34 8.39,-23.78 3.29,-38.02 2.42,-25.1 11.42,-59.76 9.55,-27.93"
     id="path3633-7"
     style="fill:none;stroke:#408335;stroke-width:5;stroke-linecap:butt;stroke-linejoin:round;stroke-miterlimit:4;stroke-opacity:1;stroke-dasharray:none" />
  <path
     d="m 1714.93,1563.62 -0.08,29.74 -1.29,29.96 -2.25,53.79 -1.61,17.72 -5.48,26.09 -12.56,34.79 -28.35,83.75 -20.94,54.44 -37.04,116.93 -34.47,95.02 -7.41,25.45 0.32,20.62 1.61,27.7 4.83,34.14"
     id="path3635"
     style="fill:none;stroke:#408335;stroke-width:5;stroke-linecap:butt;stroke-linejoin:round;stroke-miterlimit:4;stroke-opacity:1;stroke-dasharray:none" />
  <path
     style="fill:none;stroke:#f78f98;stroke-width:5;stroke-linecap:butt;stroke-linejoin:round;stroke-miterlimit:4;stroke-dasharray:none;stroke-opacity:1"
     d="m 1755.21,1388.4 -20.23,60.09 -9.06,52.99 0.95,5.75 13.1,13.98 20.29,2.58 14.17,-1.93 25.12,6.44 h 10.31 l 12.88,-0.64 12.88,3.22 45.74,15.46 14.82,1.29 27.7,-4.51 16.75,-4.51 h 51.54 51.54 l 45.1,-3.87 19.33,0.64 20.61,-3.87 24.48,-5.15 h 63.13 l 17.39,-1.93 20.61,-1.93 16.11,1.29 48.96,-12.24 41.23,-10.31 9.66,-5.15"
     id="path15610" />
  <path
     style="fill:none;stroke:#408335;stroke-width:5;stroke-linejoin:round;stroke-opacity:1;stroke-dasharray:none"
     d="m 1680.38,1611.39 20.39,-85.64 8.03,-38.4 23.25,-46.63"
     id="path334" />
  <path
     style="fill:none;stroke:#408335;stroke-width:5;stroke-linecap:butt;stroke-linejoin:round;stroke-miterlimit:4;stroke-dasharray:none;stroke-opacity:1"
     id="path4196"
     d="m 933.38,1478.71 19.33,-5.48 21.9,-3.87 23.81,-6.54 24.83,-8.28 53.79,-20.62 17.39,-4.51 25.12,-4.51 40.26,2.58 51.54,4.83 80.53,7.73 16.75,-3.22 13.53,-9.02 8.86,-12.11 10.5,-22.69 14.12,-27.81 26.34,-84.01 7.52,-13.34 31.89,-47.09 16.66,-13.07 18.21,-5.65 26.07,0.94 63.69,9.31 14.58,-1.74 14.62,-5.43 10.5,-7.33 51.61,-44.34 15.95,-14.09 17.02,-13.53 9.8,-5.78 19.82,-1.65 25.51,3.4 9.08,5.84 10.9,12.85 11.92,16.43 9.73,15.76 10.88,8.08 10.98,2.19 18.52,-0.04 10.88,1.85 9.45,4.03 12.14,6.14 12.88,3.83 15.85,4.34 33.97,-2.7 11.6,-3.87 6.63,-4.11 16.75,-14.44 11.02,-6.7 6.23,-1.84 8.98,-0.61 22.69,-2.29 10.79,-3.11 10.33,-4.91 14.82,-5.15 12.88,-0.64 10.63,2.58 13.53,8.05 12.56,12.56 35.75,38.33 8.05,14.82 3.22,14.82 12.24,20.29 4.37,10.98 9.15,10.64 9.22,4.92 17.32,10.18 19.63,12.14 12.41,8.74 10.78,2.44 14.14,0.61 14.15,2.69 22.68,5.22 23.63,5.88 24.33,16.16 35.68,23.71 23.27,11.63 73.96,25.44 103.21,27.63 42.66,12.67" />
</svg>
