<?xml version="1.0" encoding="UTF-8" standalone="no"?>
<svg
   viewBox="0 0 540 570"
   height="570"
   width="540"
   id="svg2"
   version="1.1"
   xml:space="preserve"
   xmlns:xlink="http://www.w3.org/1999/xlink"
   xmlns="http://www.w3.org/2000/svg"
   xmlns:svg="http://www.w3.org/2000/svg"
   xmlns:rdf="http://www.w3.org/1999/02/22-rdf-syntax-ns#"
   xmlns:cc="http://creativecommons.org/ns#"
   xmlns:dc="http://purl.org/dc/elements/1.1/"><metadata
     id="metadata8"><rdf:RDF><cc:Work
         rdf:about=""><dc:format>image/svg+xml</dc:format><dc:type
           rdf:resource="http://purl.org/dc/dcmitype/StillImage" /></cc:Work></rdf:RDF></metadata><defs
     id="defs6" /><image
     width="1237"
     height="824.67"
     preserveAspectRatio="none"
     xlink:href="basemap/babylonosm.png"
     id="image1"
     x="-360"
     y="-140"
     style="display:none" /><path
     id="path841"
     d="m 97.91,515.48 97.27,-31.15 22.87,42.05 275.8,-160.04 -235.76,-256.82 -21.84,-62.6 -33.73,0.89 1.76,99.23 -7.34,35.5 -13.15,38.26 -15.7,65.87 0.3,43.65 -120.84,49.56 z"
     style="opacity:1;fill:#808080;fill-opacity:1;fill-rule:nonzero;stroke:none;stroke-width:2;stroke-linecap:butt;stroke-linejoin:round;stroke-miterlimit:4;stroke-dasharray:none;stroke-opacity:1" /><path
     id="path828"
     d="m 245.55,590.19 -80.04,-153.43 -3.88,-32.49 0.99,-54.74 -0.58,-28.54 0.52,-19.65 14.91,-78.98 16.86,-48.19 4.53,-26.51 -1.4,-64.96 -5.11,-115.24 9.87,-0.24 5.27,115.02 0.3,65.96 -7.2,37.12 -13.6,39.26 -13.47,77.76 0.08,17.7 -0.06,27.25 -1.45,55.06 3.49,31.4 81.17,151.18 z"
     style="opacity:1;fill:#c6ecff;fill-opacity:1;fill-rule:nonzero;stroke:none;stroke-width:2;stroke-linecap:butt;stroke-linejoin:round;stroke-miterlimit:4;stroke-dasharray:none;stroke-opacity:1" /></svg>
