<?xml version="1.0" encoding="UTF-8" standalone="no"?>
<!-- Created with Inkscape (http://www.inkscape.org/) -->

<svg
   version="1.1"
   id="svg2"
   width="1150"
   height="2050"
   viewBox="0 0 1150 2050"
   xml:space="preserve"
   xmlns:xlink="http://www.w3.org/1999/xlink"
   xmlns="http://www.w3.org/2000/svg"
   xmlns:svg="http://www.w3.org/2000/svg"><defs
     id="defs6" /><image
     width="1457.5"
     height="2332"
     preserveAspectRatio="none"
     style="display:none"
     xlink:href="../basemap/hi_osm.png"
     id="image10"
     x="-100"
     y="-25" /><path
     style="fill:none;stroke:#1765d1;stroke-width:1;stroke-linejoin:round;stroke-dasharray:none;stroke-opacity:1"
     d="m 1031.85,107.04 -76.86,75.78 -55.51,52.86 -26.65,18.49 -18.79,11.01 -65.41,16.48 -17.68,-0.91 -29.77,-11.22 -17.96,-2.15 -28.29,8.88 -95.02,12.13 -20.24,-3.11 -52.61,-13.66 -17.06,-11.11 -29,-22.45 -17.79,-5.96 -20.15,2.82 -24.28,10.29 -22.71,13.08 -10.68,11.14 -19.96,39.56 -2.54,25.25 -3.4,18.07 -9.13,21.5 -39.39,58.04 -4.99,0.53"
     id="path377" /><path
     style="fill:none;stroke:#1765d1;stroke-width:5;stroke-linejoin:round;stroke-dasharray:none;stroke-opacity:1"
     d="m 306.01,432.38 -20.86,-9.69 -77.3,-53.08 -7.43,-0.43 -15.05,25.12 -0.48,9.93 3.17,7.87 2.08,98.7"
     id="path475" /><path
     style="fill:none;stroke:#1765d1;stroke-width:1;stroke-linejoin:round;stroke-dasharray:none;stroke-opacity:1"
     d="m 809.88,1230.24 -2.42,478.69 -2.11,3.07 -43.9,-0.8 -118.04,168.32 2.17,4.62 77.46,30.28 20.7,-41.53 36.98,13.63 26.08,0.77 19.44,-0.72 15.04,-3.34 30.61,-10.11 18.07,38.32 -21.9,12.07 -20.78,5.36 -18.85,2.77 -18.83,0.73 -18.47,-0.6 -22.84,-3.07 -21.22,-6.1 -24.03,-8.18"
     id="path2" /><path
     style="fill:none;stroke:#1765d1;stroke-width:5;stroke-linejoin:round;stroke-dasharray:none;stroke-opacity:1"
     d="m 544.76,803.08 2.97,9.84 -0.04,53.63 4.8,8.37 9.59,5.61 9.5,1.44 14.01,-1.32 25.22,-4.03 76.46,-32.02 62.22,-31.63 42.46,-23.48 7.84,-1.85 9.54,-0.17 8.73,3.49 32.89,26.38 10.76,16.41 5.94,13.29 3.18,13.16 1.4,14.88 8.7e-4,12.83 -48.49,243.05 -18.07,40.55 0.58,19.49 3.67,32.1 -0.04,7.14"
     id="path1" /><path
     style="fill:none;stroke:#1765d1;stroke-width:1;stroke-linejoin:round;stroke-dasharray:none;stroke-opacity:1"
     d="m 190.13,510.8 -1.71,11.23 -28.83,84.34 -6,10.4 -30.6,41.74 1.1,4.88 211.44,1.61 38.19,-3.51 10.86,1.42 76.86,29.05 19.68,2.6 62.54,0.29 -0.23,103.83 1.33,4.4"
     id="path1031" /><text
     x="89.45"
     y="206.96"
     id="text3817"
     xml:space="preserve"
     style="font-style:normal;font-weight:normal;font-size:144px;line-height:125%;font-family:Sans;-inkscape-font-specification:Sans;letter-spacing:0px;word-spacing:0px;fill:#000000;fill-opacity:1;stroke:none"><tspan
       x="89.45"
       y="206.96"
       id="tspan1">2025</tspan></text></svg>
