<?xml version="1.0" encoding="UTF-8" standalone="no"?>
<!-- Created with Inkscape (http://www.inkscape.org/) -->

<svg
   version="1.1"
   id="svg1"
   width="1800"
   height="2350"
   viewBox="0 0 1800 2350"
   xml:space="preserve"
   xmlns:xlink="http://www.w3.org/1999/xlink"
   xmlns="http://www.w3.org/2000/svg"
   xmlns:svg="http://www.w3.org/2000/svg"><defs
     id="defs1" /><image
     width="1920"
     height="2560"
     preserveAspectRatio="none"
     xlink:href="../basemap/pnqosm.png"
     id="image1"
     x="-150"
     y="-10"
     style="display:none" /><path
     style="fill:none;stroke:#bb029d;stroke-width:5;stroke-linejoin:round;stroke-opacity:1"
     d="m 122.19,243.77 209.38,261.3 114.46,142.1 12.56,22.05 14.52,27.08 82.91,191.51 13.12,51.65 29.59,123.11 54.16,156.62 24.29,36.29 45.78,71.47 3.63,10.05 2.51,8.1 -3.91,24.01 2.23,12.84 43.55,166.39 5.03,87.38 30.99,116.41 1.4,18.7 4.47,12.28 8.38,12 12,8.1 67,19.26 46.9,15.08 8.1,6.98 5.86,11.17 2.23,10.05 -3.07,15.35 -9.77,22.05 -30.71,54.72 -12,15.08 -4.75,19.82 1.4,24.85 14.24,66.72 8.1,18.7 v 93.24 l -8.1,46.06"
     id="path1" /><path
     style="fill:none;stroke:#2a9ff4;stroke-width:5;stroke-linejoin:round;stroke-opacity:1"
     d="m 147.69,2127.29 44.61,-4.94 22.11,-12.04 18.16,-3.55 18.95,-13.62 12.04,-1.97 24.48,-1.18 37.31,-11.65 43.63,-2.57 9.67,2.17 7.9,3.36 25.47,29.41 20.53,24.68 12.83,7.3 11.65,-0.59 51.72,-22.7 135.22,-72.05 46.59,-20.14 12.63,-7.3 7.5,-10.27 31.58,-48.76 36.91,-41.85 12.44,-8.29 42.84,-13.03 44.81,-21.12 16.58,-15.2 50.54,-71.86 9.48,-5.53 10.66,-1.58 18.95,-0.79 23.29,-5.72 67.31,-2.17 18.56,6.32 47.38,0.39 15.99,-1.18 8.49,-2.76 63.96,-58.43 71.26,-112.32 5.13,-11.05 0.99,-10.27 -2.17,-21.32 4.34,-7.9 7.3,-8.29 45.01,-10.66 18.75,-6.12 9.28,-2.37 9.48,-0.2 17.96,14.81 15.4,3.16 59.02,6.32 23.1,10.86 78.57,14.21 9.48,-1.18 7.11,-4.15 13.23,-26.65 1.58,-11.84 -2.17,-38.1 -3.55,-23.29 4.34,-36.32 2.57,-36.91 3.16,-12.24 6.91,-6.91 35.53,-26.06"
     id="path2" /><text
     x="89.45"
     y="206.96"
     id="text3652"
     xml:space="preserve"
     style="font-style:normal;font-weight:normal;font-size:144px;font-family:Sans;-inkscape-font-specification:Sans;fill:#000000;fill-opacity:1;stroke:none"><tspan
       x="89.45"
       y="206.96"
       id="tspan1">2025</tspan></text></svg>
