<?xml version="1.0" encoding="UTF-8" standalone="no"?>
<svg
   version="1.1"
   id="svg1"
   width="1500"
   height="1350"
   viewBox="0 0 1500 1350"
   xmlns:xlink="http://www.w3.org/1999/xlink"
   xmlns="http://www.w3.org/2000/svg"
   xmlns:svg="http://www.w3.org/2000/svg">
  <defs
     id="defs1" />
  <image
     width="1712"
     height="1498"
     preserveAspectRatio="none"
     xlink:href="../basemap/lggosm.png"
     id="image1"
     x="-154"
     y="-50"
     style="display:none" />
  <path
     style="fill:none;stroke:#006ab3;stroke-width:5;stroke-linejoin:round;stroke-dasharray:none;stroke-opacity:1"
     d="m 782.08,1249.79 -22.72,-29.07 -10.75,-21.74 -46.17,-118.47 -2.44,-17.34 4.4,-20.52 5.13,-12.7 24.92,-41.04 19.3,-33.22 9.28,-11.24 12.46,-12.7 22.23,-17.83 19.3,-9.04 87.45,-36.15 39.57,-30.78 103.33,-66.2 12.95,-5.13 14.17,-3.18 15.63,-1.71 40.79,1.71 12.21,-0.49 14.9,-2.69 86.23,-18.32 13.68,-6.11 9.53,-6.84 12.7,-13.19 10.75,-9.28 28.58,-17.1 22.47,-16.37 8.55,-10.99 5.62,-12.21 0.24,-19.05 -4.15,-13.19 -8.55,-11.97 -8.79,-8.55 -15.14,-5.62 -13.44,-1.71 -12.7,2.69 -22.96,5.13 h -17.1 l -14.9,-3.18 -17.34,-8.06 -16.61,-15.39 -8.55,-12.46 -4.15,-11.73 -3.91,-17.59 -17.34,-142.66 -6.6,-20.52 -64.24,-172.21 -7.82,-15.88 -13.19,-19.3 -21.01,-20.03 -23.69,-13.68 -21.74,-9.28 -29.56,-3.91 -189.8,-1.22"
     id="path1" />
  <path
     style="fill:none;stroke:#f04d22;stroke-width:5;stroke-linejoin:round;stroke-dasharray:none;stroke-opacity:1"
     d="m 794.96,910.54 -2.07,-4.32 -4.58,-3.97 -9.59,-4.84 -11.23,-2.59 -11.75,-1.73 h -5.1 l -19.95,7.34 -6.05,1.12 -19.26,0.69 -5.61,-0.6 -3.71,-1.55 -2.85,-3.54 -6.65,-9.41"
     id="path2" />
  <path
     style="fill:none;stroke:#f04d22;stroke-width:1;stroke-linejoin:round;stroke-dasharray:none;stroke-opacity:1"
     d="m 794.96,910.54 7.34,5.35 3.97,0.6 14.77,-7.95 3.37,-0.69 5.18,1.04 2.85,2.94 6.3,17.36"
     id="path3" />
  <path
     style="fill:none;stroke:#f04d22;stroke-width:1;stroke-linejoin:round;stroke-dasharray:none;stroke-opacity:1"
     d="m 686.57,887.14 -3.54,-3.45 -78.68,-33.25 -4.84,-0.35 -4.84,1.73 -5.01,0.09 -26.69,-15.46 -41.71,-22.2 -41.8,-23.49 -45.34,-25.48 -91.29,-62.1 -163.4,-100.61 -3.71,0.09 -14.6,14.25 -17.19,12.26 -10.88,21.16 -5.61,5.96 -6.22,7.17 -18.31,13.04"
     id="path4" />
  <path
     style="fill:none;stroke:#f04d22;stroke-width:5;stroke-linejoin:round;stroke-dasharray:none;stroke-opacity:1"
     d="m 691.92,894.71 -4.48,-0.14"
     id="path5" />
  <path
     style="fill:none;stroke:#f04d22;stroke-width:1;stroke-linejoin:round;stroke-dasharray:none;stroke-opacity:1"
     d="m 687.44,894.57 -2.25,0.6 -5.35,3.28 -9.93,-3.71 -47.59,-12.95 -7.17,-2.25 -20.47,-27.72"
     id="path6" />
  <text
     x="89.45"
     y="206.96"
     id="text3019"
     xml:space="preserve"
     style="font-style:normal;font-weight:normal;font-size:144px;line-height:125%;font-family:Sans;-inkscape-font-specification:Sans;letter-spacing:0px;word-spacing:0px;fill:#000000;fill-opacity:1;stroke:none"><tspan
       x="89.45"
       y="206.96"
       id="tspan1">2025</tspan></text>
</svg>
