<?xml version="1.0" encoding="UTF-8" standalone="no"?>
<!-- Created with Inkscape (http://www.inkscape.org/) -->

<svg
   version="1.1"
   id="svg1"
   width="4700"
   height="6400"
   viewBox="0 0 4700 6400"
   xml:space="preserve"
   xmlns:xlink="http://www.w3.org/1999/xlink"
   xmlns="http://www.w3.org/2000/svg"
   xmlns:svg="http://www.w3.org/2000/svg"><defs
     id="defs1" /><image
     width="4908"
     height="6748.5"
     preserveAspectRatio="none"
     xlink:href="../basemap/ruhosm.png"
     id="image1"
     x="85"
     y="-270"
     style="display:none" /><path
     style="fill:none;stroke:#fcce08;stroke-width:5;stroke-linejoin:round;stroke-opacity:1"
     d="m 1556.77,3102.09 -8.55,-21.55 1.19,-27.13 -1.64,-10.71 -20.5,-46.58 1.48,-16.97 24.86,-59.57 14.95,-14.95 948.73,-440.51 10.6,-9.28 5.57,-13.24 -2.69,-44.53 2.88,-31.86 9.98,-32.63 60.07,-138.19 14.59,-25.91 27.64,-38.19 3.84,-11.71 -0.77,-11.52 -4.22,-14.2 -47.6,-84.26 -4.22,-21.5 -8.25,-55.66 -8.25,-11.13 -10.36,-7.49 -13.05,-9.21 -43.38,-59.69 -19.96,-20.15 -87.14,-157.96 -126.48,-223.6 -4.03,-17.85 -4.8,-152.78 3.65,-34.93 6.72,-33.2 11.71,-34.93 15.93,-31.67 19.19,-30.13 39.35,-42.8 40.31,-29.37 211.32,-123.8 21.88,-15.93 17.08,-22.26 12.28,-22.84 7.29,-23.61 2.5,-28.21 -3.65,-19.96 -9.02,-25.14 -22.26,-39.54 -127.83,-219.57 -4.61,-14.78 -11.13,-37.23 -28.02,-48.94 -22.46,-76.96 -77.54,-134.35 -14.97,-21.69 -26.49,-48.17"
     id="path1" /><path
     style="fill:none;stroke:#9535a0;stroke-width:5;stroke-linejoin:round;stroke-opacity:1"
     d="m 1561.42,3100.34 -8.28,-20.61 1.25,-26.27 -1.69,-11.98 -20.43,-46.39 1.36,-14.73 24.23,-58.22 13.98,-13.5 947.64,-440.01 11.93,-1.74 10.31,4.48 6.24,7.87 78.17,172.7 2.44,11.4 -0.54,16.83 -6.24,20.9 -0.81,12.49 2.71,10.04 5.7,10.86 11.4,9.23 22.26,13.03 14.11,15.2 11.67,15.74 11.67,22.53 7.33,5.43 8.41,1.09 10.04,-2.44 460.35,-214.43 11.67,-1.09 10.86,4.07 6.24,5.97 4.89,8.96 77.09,165.03 124.86,187.29 112.37,168.02 1.63,18.46 182.67,271.16 1.63,8.96 -1.63,9.5 -10.31,27.14 -0.27,10.31 23.61,35.83 9.77,13.57 2.44,19.54 159.87,238.59 225.02,337.39"
     id="path2" /><path
     style="fill:none;stroke:#45bb3a;stroke-width:5;stroke-linejoin:round;stroke-opacity:1"
     d="m 2291.05,3505.73 -25.92,10.45 -3.8,4.34 -0.81,4.61 2.99,12.21 52.39,119.43 50.97,47.52 15.16,17.47 20.15,39.54 -1.15,13.44 -80.03,113.43 -5.76,15.93 2.3,10.36 17.27,11.9 61.23,31.28 155.46,59.5 14.78,11.71 20.92,24.76 5.37,14.97 10.17,510.34 -4.8,69.67 -6.14,117.08 -22.46,115.93 -11.9,64.1 -6.33,9.02 -17.08,14.78"
     id="path3" /><path
     style="fill:none;stroke:#f57d2a;stroke-width:5;stroke-linejoin:round;stroke-opacity:1"
     d="m 167.15,5789.43 -21.5,27.06 -15.35,9.21 -6.72,10.75 -0.58,10.75 4.22,10.17 8.83,8.83 8.64,3.07 308.24,25.91 237.42,19.39 13.82,-1.34 17.85,-5.76 22.65,-16.31 5.57,-2.5 7.87,0.77 7.49,4.99 12.67,26.29 101.34,151.62 6.14,3.84 8.25,2.5 13.05,-2.3 49.9,-16.51 22.84,-11.32 141.26,-95.39 6.33,-0.96 11.32,-0.19 8.45,-2.3 19.96,-13.05 8.64,-18.62 390.77,-265.25 275.23,-182.91 20.34,-9.02 20.92,-4.41 57.2,-1.34 54.32,1.92 19.39,5.57 22.26,5.57 20.92,0.38 21.11,-2.11 23.99,-8.44 142.41,-55.47 88.29,-22.84 54.12,-39.35 22.07,-10.56 76.39,-51.82 16.7,-14.01 40.88,-20.92 30.71,-21.11 19.96,-17.08 132.62,-75.43 145.68,-79.27 15.74,-14.59 6.33,-11.9 2.5,-14.01 -2.11,-71.59 4.22,-14.2 14.97,-16.89 47.21,-45.1 3.65,-11.9 -1.92,-41.46 4.99,-58.73 -0.96,-15.35 2.69,-8.64 21.88,-23.22 17.66,-29.37 16.89,-34.36 15.55,-19.96 16.51,-18.04 12.28,-6.72 57.77,-27.06 83.68,-31.09 54.89,-30.71 58.35,-22.07 138.77,-50.86 157.57,-55.08 26.49,-12.67 51.63,-28.02 185.79,-101.53 127.83,-57.77 120.72,-58.15 221.68,-149.71 188.67,-131.09 28.41,-20.92 20.34,-23.61"
     id="path4" /><path
     style="fill:none;stroke:#ef3434;stroke-width:5;stroke-linejoin:round;stroke-opacity:1"
     d="m 1340.77,3979.24 18.19,-21.31 28.23,-42.61 16.56,-17.64 6.92,-3.66 18.32,1.09 6.38,-1.36 60.9,-28.03 221.3,-104.79 79.65,-35.89 22.84,-1.92 24.95,5.18 21.88,-2.5 38.39,-16.89 7.1,-6.72 17.47,-33.97 14.59,-12.48 209.01,-96.35 129.74,-59.11 529.15,-252.2 139.73,-67.75 311.5,-131.09 57,-28.98 103.45,-69.67 29.17,-11.9 33.59,-7.1 76.2,-12.86 22.65,-5.57 26.49,-11.9 28.79,-18.04 271.39,-184.64 175.81,-117.85 11.32,-4.99 13.44,-0.19 9.02,5.57 98.65,125.14 6.72,2.69 9.4,-2.11 21.11,-11.71"
     id="path5" /><path
     style="fill:none;stroke:#36b1e9;stroke-width:5;stroke-linejoin:round;stroke-opacity:1"
     d="m 1177.24,2131.34 359.1,780.63 4.07,17.4 -1.06,11.23 -15.45,37.04 -1.54,19.58 20.73,46.93 1.44,9.6 -1.44,27.06 9.21,23.51 7.2,5.66 10.65,5.66 3.65,5.37 11.13,27.25 7.68,6.91 49.71,14.78 10.36,5.95 8.06,9.4 5.57,11.13 205.75,451.8 2.11,13.63 -3.07,26.49 2.11,16.12 18.62,35.12 9.98,9.6 16.51,8.83 9.6,9.98 358.91,783.65 8.45,12.86 10.75,11.71 45.68,40.88 9.6,13.24 8.44,16.89 38.39,110.36 6.53,10.17 6.91,8.44 66.6,47.02 7.1,12.48 2.5,20.34 10.75,42.42 5.95,24.38 7.49,19.39 12.48,51.44 14.01,39.15 5.37,20.92 0.96,15.35 -3.84,35.7 1.15,21.69 13.82,75.24 15.74,40.88 6.14,7.1 9.02,4.8 23.99,0.77 8.44,4.61 17.08,14.01 9.4,14.39 48.37,115.93 5.57,19.58 9.21,58.73 7.49,16.31 37.81,66.79 7.1,6.14 8.64,0.58 11.32,-3.84 7.49,0.58 7.68,4.99 74.28,159.3 6.53,5.57 6.53,1.54 10.36,-3.65 169.67,-104.79 7.68,-0.58 7.29,1.92 4.61,6.33 126.29,276.19 14.01,10.75 181.18,361.02"
     id="path6" /><text
     x="89.45"
     y="206.96"
     id="text3019"
     xml:space="preserve"
     style="font-style:normal;font-weight:normal;font-size:144px;line-height:125%;font-family:Sans;-inkscape-font-specification:Sans;letter-spacing:0px;word-spacing:0px;fill:#000000;fill-opacity:1;stroke:none"><tspan
       x="89.45"
       y="206.96"
       id="tspan1">2025</tspan></text><text
     x="89.45"
     y="6297.94"
     id="text3019-6"
     xml:space="preserve"
     style="font-style:normal;font-weight:normal;font-size:144px;line-height:125%;font-family:Sans;-inkscape-font-specification:Sans;letter-spacing:0px;word-spacing:0px;fill:#000000;fill-opacity:1;stroke:none"><tspan
       x="89.45"
       y="6297.94"
       id="tspan2"></tspan></text></svg>
