<?xml version="1.0" encoding="UTF-8" standalone="no"?>
<svg
   id="svg2"
   viewBox="35, 0, 9050, 12300"
   height="12300"
   width="9050"
   version="1.1"
   xmlns:xlink="http://www.w3.org/1999/xlink"
   xmlns="http://www.w3.org/2000/svg"
   xmlns:svg="http://www.w3.org/2000/svg"
   xmlns:rdf="http://www.w3.org/1999/02/22-rdf-syntax-ns#"
   xmlns:cc="http://creativecommons.org/ns#"
   xmlns:dc="http://purl.org/dc/elements/1.1/">
  <metadata
     id="metadata42">
    <rdf:RDF>
      <cc:Work
         rdf:about="">
        <dc:format>image/svg+xml</dc:format>
        <dc:type
           rdf:resource="http://purl.org/dc/dcmitype/StillImage" />
      </cc:Work>
    </rdf:RDF>
  </metadata>
  <defs
     id="defs6" />
  <image
     xlink:href="../../basemap/sfoosm.png"
     id="image12"
     height="12549"
     width="9879"
     y="0"
     x="-534"
     style="display:none" />
  <path
     style="fill:none;stroke:#d31345;stroke-width:1px;stroke-linecap:butt;stroke-linejoin:round;stroke-opacity:1"
     id="path3592"
     d="m 654.5,4459.5 -5,2.5 -9.5,-6.5 -9,-2.5 -38,3 -4.5,-0.5 -2,-3.5 -1.5,-21 -2.5,-3.5 -152,8 -246.5,14 -2.5,3.5 4,80 -2,3 -8,0.5 -2.5,-2.5 -1.5,-23.5 2.5,-3 7.5,-0.5 2,-2.5" />
  <text
     style="font-size:144px;font-style:normal;font-weight:normal;fill:#000000;fill-opacity:1;stroke:none;font-family:Sans;-inkscape-font-specification:Sans"
     xml:space="preserve"
     id="text3639"
     y="12197.96"
     x="124.45"><tspan
       id="tspan2"
       y="12197.96"
       x="124.45"></tspan></text>
  <text
     style="font-size:144px;font-style:normal;font-weight:normal;fill:#000000;fill-opacity:1;stroke:none;font-family:Sans;-inkscape-font-specification:Sans"
     xml:space="preserve"
     id="text3639-3"
     y="206.96"
     x="124.45"><tspan
       id="tspan1"
       y="206.96"
       x="124.45">1945</tspan></text>
  <path
     style="fill:none;stroke:#d31345;stroke-width:5;stroke-linecap:butt;stroke-linejoin:round;stroke-miterlimit:4;stroke-opacity:1;stroke-dasharray:none"
     id="path2979"
     d="m 1010.9,4137.3 -4.4,2.2 -22.5,5 -14,6.5 -28.5,21.5 -137,122.5 -35,29.5 -38,36.5 -25,25.5 -29.5,42.5 -23.5,31.5" />
  <path
     style="fill:none;stroke:#d31345;stroke-width:1px;stroke-linecap:butt;stroke-linejoin:round;stroke-opacity:1"
     id="path3602"
     d="m 582,4554.5 -30,55 -8,20 -2.5,63 -2.5,88 4,13 37,47 23,29.5 6.5,2.5 78,-1 4,3.5 1,13 3.5,2 72.5,-0.68" />
  <path
     style="fill:none;stroke:#d31345;stroke-width:1px;stroke-linecap:butt;stroke-linejoin:round;stroke-opacity:1"
     id="path3594"
     d="m 655,4457.5 -8,15 -15,17 -24.5,24.5 -14.5,18.5 -10,22 -1.5,14 -1.5,44 3.5,5 32,16 8,9.5 11.5,23.5 18.5,16.5 26.5,13.5 31.5,13 71,18.5 8.43,2.29 32.74,8.4 85.96,0.07 18.2,-2.1 12.25,0.35 55.65,28.7" />
  <path
     style="fill:none;stroke:#d31345;stroke-width:1px;stroke-linecap:butt;stroke-linejoin:round;stroke-opacity:1"
     id="path2891"
     d="m 781.19,4727.2 1.4,4.2 -0.35,50.4" />
  <path
     style="fill:none;stroke:#d31345;stroke-width:1px;stroke-linecap:butt;stroke-linejoin:round;stroke-opacity:1"
     id="path2843"
     d="M 1470.72,3683.99 1520.5,3636 l -0.03,-2.05 -1.26,-3.17 1.04,-2.61 2.72,-2.22 3.99,0.86 3.29,3.43 0.57,4.36 -2.32,2.25 -2.79,0.82 -3.35,-1.6 L 1520.5,3636" />
  <path
     style="fill:none;stroke:#d31345;stroke-width:1;stroke-linecap:butt;stroke-linejoin:round;stroke-miterlimit:4;stroke-dasharray:none;stroke-opacity:1"
     id="path2818"
     d="m 1010.9,4137.3 16.6,-8.3 69.5,-72 36.07,-35.61 80.4,-81.17 62.03,-63.22 52.51,-50.06 113.61,-113.52 29.1,-29.42 4.34,0.07 L 1495.5,3705 v 4.5 l -7,6.5 h -4.5 l -20.41,-19.95 -4.54,-0.54" />
  <path
     id="path8203"
     d="m 1051.04,4026.36 29.46,-0.36 24,-3 28.17,-1.49"
     style="fill:none;stroke:#d31345;stroke-width:1px;stroke-linecap:butt;stroke-linejoin:round;stroke-opacity:1" />
  <path
     id="path8197"
     d="m 1051.04,4026.36 -11.04,0.14 -15,2 -35,9.5 -126.5,32 -7.5,3.5 -3.37,4.04"
     style="fill:none;stroke:#d31345;stroke-width:5;stroke-linecap:butt;stroke-linejoin:round;stroke-miterlimit:4;stroke-dasharray:none;stroke-opacity:1" />
  <path
     id="path3600"
     d="m 852.63,4077.54 -1.63,1.96 -98.5,15.5 -2.5,6 -100,6.5 -3,3 0.5,23 -1.5,3 -521,28.5"
     style="fill:none;stroke:#d31345;stroke-width:1px;stroke-linecap:butt;stroke-linejoin:round;stroke-opacity:1" />
  <path
     style="fill:none;stroke:#ff6633;stroke-width:1;stroke-linecap:butt;stroke-linejoin:round;stroke-miterlimit:4;stroke-dasharray:none;stroke-opacity:1"
     d="m 2848.05,3111.34 69.97,-19.69 10.64,-5.06 25.45,-25.75 15.59,-72.84 -4.68,-25.72 37.17,-122.97 8.42,-16.83 35.54,-119 22.68,-79.72 -14.96,-164.58 -2.57,-14.49 -11.69,-133.02 -3.51,-8.65 -12.39,-11.92 -3.04,-7.25 -3.74,-43.48 -2.1,-6.78 -9.59,-13.33 -1.64,-7.01 -1.4,-41.85 -1.87,-4.68 -10.75,-7.01 -17.77,-0.94 -23.85,-11.46"
     id="path1" />
  <path
     style="fill:none;stroke:#ff6633;stroke-width:5;stroke-linecap:butt;stroke-linejoin:round;stroke-miterlimit:4;stroke-dasharray:none;stroke-opacity:1"
     d="m 1504.84,3767.3 -4.34,-9.8 2,-10 9,-10 21,-19.5 1.5,-6 -2.5,-5.5 -6.5,-6 h -7.5 l -7.5,4 -28,29 -0.5,10 6.5,7.5 31,30 10,3 16,-3 15,-9.5 128.5,-149 174,-206 20,-23 28.52,-35.07 17.98,-8.93 212.5,-89.5 162.57,-31.93 4.26,-4e-4 35.99,-0.01 174.37,-33.27 108.51,-23.58 220.85,-59.87"
     id="path3009" />
  <path
     style="opacity:1;fill:none;stroke:#ff6633;stroke-width:1;stroke-linejoin:round;stroke-dasharray:none;stroke-opacity:1"
     d="m 4099.81,4021.45 -192.64,-32.61 h -138.52 l -6.43,1.64 -7.95,4.09 -10.52,6.66 -5.61,0.82 -96.32,-58.91 -98.66,-59.85 -211.46,-159.91 -23.14,-13.56 -119.35,-133.84 -2.69,-0.47 -8.88,7.01 -3.39,0.12 -52.25,-15.9 -242.08,-122.04 -76.45,-22.56 -5.03,-3.86 -2.22,-4.56 -1.17,-4.79 v -5.26 l 60.78,-210.41 -15.55,-59.15 -2.34,-3.38"
     id="path3" />
  <path
     style="fill:none;stroke:#ff6633;stroke-width:5;stroke-linejoin:round;stroke-dasharray:none;stroke-opacity:1"
     d="m 2813.67,3120.66 14.59,1.53 6.08,3.74 3.62,4.8"
     id="path2-7" />
</svg>
