<?xml version="1.0" encoding="UTF-8" standalone="no"?>
<svg
   version="1.1"
   id="svg2"
   width="3200"
   height="1850"
   viewBox="-25 0 3200 1850"
   xmlns:xlink="http://www.w3.org/1999/xlink"
   xmlns="http://www.w3.org/2000/svg"
   xmlns:svg="http://www.w3.org/2000/svg"
   xmlns:rdf="http://www.w3.org/1999/02/22-rdf-syntax-ns#"
   xmlns:cc="http://creativecommons.org/ns#"
   xmlns:dc="http://purl.org/dc/elements/1.1/">
  <metadata
     id="metadata8">
    <rdf:RDF>
      <cc:Work
         rdf:about="">
        <dc:format>image/svg+xml</dc:format>
        <dc:type
           rdf:resource="http://purl.org/dc/dcmitype/StillImage" />
      </cc:Work>
    </rdf:RDF>
  </metadata>
  <defs
     id="defs6" />
  <image
     xlink:href="../basemap/lynosm.png"
     style="display:none"
     y="-168.86"
     x="-25"
     id="image10"
     preserveAspectRatio="none"
     height="2118.86"
     width="3296" />
  <path
     style="opacity:1;fill:none;fill-rule:nonzero;stroke:#00a94e;stroke-width:5;stroke-linecap:butt;stroke-linejoin:round;stroke-miterlimit:4;stroke-dasharray:none;stroke-opacity:1"
     d="m 134.5,330.5 -16,24.5 -2.5,10.5 v 14 l 20.5,26.5 1.5,15 4,95.5 -2.5,12 1.5,26.5 4.5,16.5 10.5,7.5 149,58.5 34,7.5 41.5,13 9.5,-1 9.5,4 12,11 25,18 9,19 14,7.5 16.5,2 30,-5 h 13 L 713,810 l 226,111 40,13.5 8.5,12.5 10,20.5 42,57.5 -1,14 -15.5,55.5 -11,24 -2,11.5 17,243.5 -12,71 4.5,17 4,17 -0.5,19"
     id="path4506" />
  <path
     style="opacity:1;fill:none;fill-rule:nonzero;stroke:#f79727;stroke-width:5;stroke-linecap:butt;stroke-linejoin:round;stroke-miterlimit:4;stroke-dasharray:none;stroke-opacity:1"
     d="m 434.75,260.25 -36.75,40.5 -16,18.75 -6.5,17.25 -0.25,13.75 4.25,18 26.25,50 -0.25,4.5 3.5,5.5 4,1.25 17.25,-1.5 8.5,6.25 18,28.75 13.25,22.5 1.25,7 -5.75,15.25 2.88,20.75"
     id="path4508" />
  <path
     style="opacity:1;fill:none;fill-rule:nonzero;stroke:#0077c0;stroke-width:5;stroke-linecap:butt;stroke-linejoin:round;stroke-miterlimit:4;stroke-dasharray:none;stroke-opacity:1"
     d="m 763.5,490.25 -41.5,31.75 -3.75,6.75 3,69.5 -0.75,9 -1.5,8.25 -3.5,4.25 -7,5.75 -17,3 -37,4.25 -21.5,2.5 -17.75,6.25 -11.75,7.25 -22,27.5 m 0,0 -4.25,10.5 8,58.25 -53.25,130 -123,297.75 -19.5,45.5 -95.25,81 -8.75,6.25 -18,8.25 -39,4.25 -43.19,3.36 -11.25,3.87 -38.12,29.43 -20.57,22.73 -8.67,12.39 -3.04,10.3 0.58,19.15 9.41,73.11 7.29,40.87 10.29,22.55"
     id="path4510" />
  <path
     style="opacity:1;fill:none;fill-rule:nonzero;stroke:#ea4498;stroke-width:5;stroke-linecap:butt;stroke-linejoin:round;stroke-miterlimit:4;stroke-dasharray:none;stroke-opacity:1"
     d="M 361.12,824.88 367.75,813 l 6,-6.25 25.88,-59.13 22.12,-51.12 5.25,-5 16.25,-3.75 6.5,-6 14,-35.25 5.5,-115.38 7.5,-10.62 66.25,-0.25 207.25,-26.75 93.78,-10.75 457.5,120.92 64.35,32.88 8.25,0.96 21.05,-7.41"
     id="path4512" />
  <path
     style="opacity:1;fill:none;fill-rule:nonzero;stroke:#7c4099;stroke-width:5;stroke-linecap:butt;stroke-linejoin:round;stroke-miterlimit:4;stroke-dasharray:none;stroke-opacity:1"
     d="m 706.5,921.75 23,-124 1.25,-1.25"
     id="path4541" />
  <path
     style="opacity:1;fill:none;fill-rule:nonzero;stroke:#7c4099;stroke-width:1;stroke-linecap:butt;stroke-linejoin:round;stroke-miterlimit:4;stroke-dasharray:none;stroke-opacity:1"
     d="m 706.5,921.75 -2,12.75 2,6.5 192.25,353 54.75,100.25 59.56,53.74 7.27,29.68 -0.21,52.96 0.62,86.88 -2.5,3.5 -57.25,12 -7,3.25 -38.75,39 -4.5,4.5 -4,0.75 -6.25,-1.5 -108,-99.75 -8.5,-2.5 -36.25,-1 -16.25,-1.5 -4.5,3.5 3.75,28 3.25,8.75 14.25,12.75 4,6 1.5,8.25 2,25.25 3.75,9 18,17 6,14.25 7.25,6.75 0.75,4.5 -9.5,12.75 -2.25,9.25 v 8.25 l 0.5,11"
     id="path4543" />
  <path
     style="opacity:1;fill:none;fill-rule:nonzero;stroke:#7c4099;stroke-width:1;stroke-linecap:butt;stroke-linejoin:round;stroke-miterlimit:4;stroke-dasharray:none;stroke-opacity:1"
     d="m 730.75,796.5 6.5,-6.5 5.5,-19.75 1.5,-77 3,-115.5 -3,-68.5 11.25,-8.5 1.5,-13.5 3.5,-47.75 3.5,-4 8.75,1.25 3.25,-1 4.5,-5.5 22.5,-10.75 3,-4 -11.25,-59.75 -11,-17.25 2.5,-5.25 42.5,-12.25 7.75,1.25 7.75,-3 15.25,4"
     id="path4545" />
  <text
     x="64.45"
     y="206.96"
     id="text3019"
     xml:space="preserve"
     style="font-style:normal;font-weight:normal;font-size:144px;line-height:125%;font-family:Sans;-inkscape-font-specification:Sans;letter-spacing:0px;word-spacing:0px;fill:#000000;fill-opacity:1;stroke:none"><tspan
       x="64.45"
       y="206.96"
       id="tspan1">2025</tspan></text>
  <path
     style="opacity:1;fill:none;fill-rule:nonzero;stroke:#89c650;stroke-width:5;stroke-linecap:butt;stroke-linejoin:round;stroke-miterlimit:4;stroke-dasharray:none;stroke-opacity:1"
     d="M 360.8,654.64 256.33,696.53"
     id="path5791" />
  <path
     style="opacity:1;fill:none;fill-rule:nonzero;stroke:#89c650;stroke-width:5;stroke-linecap:butt;stroke-linejoin:round;stroke-miterlimit:4;stroke-dasharray:none;stroke-opacity:1"
     d="m 310.42,615.92 37.65,32.35 7.07,3.71"
     id="path5793" />
  <path
     id="path4547-3"
     d="m 743.66,723.41 4.09,7.34 19.5,15.25 15.25,8.5 17.75,5 31.14,4.27"
     style="opacity:1;fill:none;fill-rule:nonzero;stroke:#7c4099;stroke-width:1;stroke-linecap:butt;stroke-linejoin:round;stroke-miterlimit:4;stroke-dasharray:none;stroke-opacity:1" />
  <path
     id="path4549-3"
     d="m 2602,558.75 -21.25,-4 -3.5,-2.5 -0.5,-9 -1.25,-4.5 -6.25,-2.25 -63.25,-11 -516.5,-91 -19,-5.75 -15.75,-9 -12,-12 -22.25,-16.75 -11,-5.25 -22,-0.5 -13.5,3 -56.75,32.25 -17,10.5 -102.5,86.25 -19.5,13.25 -14,8 -231,88.03 -132.25,47 -285.64,54.08 -11.11,3.82 -20.26,15.53 -12.06,6.39 -11.61,4.85 -12.64,2.77 -13.68,1.39 -74.48,5.2 -10.97,0.01 -17.32,-2.06"
     style="opacity:1;fill:none;fill-rule:nonzero;stroke:#7c4099;stroke-width:5;stroke-linecap:butt;stroke-linejoin:round;stroke-miterlimit:4;stroke-dasharray:none;stroke-opacity:1" />
  <path
     style="fill:none;stroke:#7c4099;stroke-width:5;stroke-linejoin:round;stroke-opacity:1"
     d="m 2020.62,439.98 1.3,4.38 -0.37,33.4"
     id="path412" />
  <path
     style="fill:none;stroke:#7c4099;stroke-width:1;stroke-linejoin:round;stroke-opacity:1;stroke-dasharray:none"
     d="m 2021.55,477.76 2.76,7.48 0.83,36.51"
     id="path3030" />
  <path
     style="color:#000000;fill:none;stroke:#b61b29;stroke-width:5;stroke-linejoin:round;stroke-dasharray:none;stroke-opacity:1"
     d="m 831.66,760.52 17.38,2.09 10.91,-0.01 73.29,-5.02 13.38,-1.38 11.86,-2.58 11.33,-4.54 10.94,-5.83 21.33,-16.15 12.52,-4.44 285.03,-53.9 81.21,-28.86 51,-18.12 230.07,-87.65 13.68,-7.52 19.01,-13.22 102.75,-86.32 18.13,-11.16 56.23,-32.08 14.26,-3.23 24.08,0.13 12.63,5.75 22.7,17.16 12,12 14.93,8.58 17.14,5.37 517.09,90.99 61.87,10.8 67.12,16.25 13.54,4.43 12.9,6.52 13.81,11.24 11.32,13.63 5.28,10.59 4.84,12.09 2.57,22.82 -0.42,35.31 4.64,21.32 6.58,20.11 12.36,19.42 47.79,54.1 100.71,113.72 22.76,19.74 16.39,9.48 13.03,6.27 23.55,7.53 25.78,7.2 16.78,8.42 27.8,21.47 15.91,20.75 10.23,21.57 6.8,24.02 1.18,14.88 -0.85,24.15 -18.34,178.02"
     id="path1715" />
  <path
     style="fill:none;stroke:#b61b29;stroke-width:1;stroke-linejoin:round;stroke-dasharray:none;stroke-opacity:1"
     d="m 746.67,638.09 -1.44,55.31 -0.55,29.79 3.78,6.86 18.95,14.92 15.37,8.6 17.46,4.88 18.22,2.77 13.13,1.4"
     id="path928" />
</svg>
