<?xml version="1.0" encoding="UTF-8" standalone="no"?>
<svg
   version="1.1"
   width="10400"
   height="9200"
   viewBox="-2350 -1900 10400 9200"
   id="svg2"
   xmlns:xlink="http://www.w3.org/1999/xlink"
   xmlns="http://www.w3.org/2000/svg"
   xmlns:svg="http://www.w3.org/2000/svg"
   xmlns:rdf="http://www.w3.org/1999/02/22-rdf-syntax-ns#"
   xmlns:cc="http://creativecommons.org/ns#"
   xmlns:dc="http://purl.org/dc/elements/1.1/">
  <metadata
     id="metadata8">
    <rdf:RDF>
      <cc:Work
         rdf:about="">
        <dc:format>image/svg+xml</dc:format>
        <dc:type
           rdf:resource="http://purl.org/dc/dcmitype/StillImage" />
      </cc:Work>
    </rdf:RDF>
  </metadata>
  <defs
     id="defs6" />
  <image
     xlink:href="../basemap/mowosm.png"
     id="image10"
     height="8932.13"
     width="10452.5"
     y="-1710.41"
     x="-2386.03"
     style="display:none" />
  <text
     x="-2260.55"
     y="-1693.04"
     id="text6965"
     xml:space="preserve"
     style="font-style:normal;font-weight:normal;font-size:144px;line-height:125%;font-family:Sans;-inkscape-font-specification:Sans;letter-spacing:0px;word-spacing:0px;fill:#000000;fill-opacity:1;stroke:none"><tspan
       x="-2260.55"
       y="-1693.04"
       id="tspan1">1935</tspan></text>
  <text
     x="-2260.55"
     y="7197.96"
     id="text6965-9"
     xml:space="preserve"
     style="font-style:normal;font-weight:normal;font-size:144px;line-height:125%;font-family:Sans;-inkscape-font-specification:Sans;letter-spacing:0px;word-spacing:0px;fill:#000000;fill-opacity:1;stroke:none"><tspan
       x="-2260.55"
       y="7197.96"
       id="tspan2"></tspan></text>
  <path
     style="fill:none;stroke:#e42518;stroke-width:5;stroke-linecap:butt;stroke-linejoin:round;stroke-miterlimit:4;stroke-dasharray:none;stroke-opacity:1"
     d="m 2250,2329.59 24.5,-3.72 34.5,-16 31,-15 14.5,-8.5 33.3,-6.99 49.22,2.85 5.96,-0.94 29.47,-8.78 34.55,-1.22 9.81,-5.07 4.42,-6.52 1.55,-10.71 -5.76,-18.55"
     id="path3976" />
  <path
     d="m 3104.5,1705.86 -50,75 -26,26.5 -43.5,41 -92.5,69.5 -16.5,13.5 -11.43,22.07 -7.27,25.56 -6.3,18.87 -15.5,15.5 -21.22,14.92 -32.35,13.27 -23.8,12.18 -27.63,25.13 -18,29.5 -27.5,32 -10.15,7.97 -13.02,5.88 -91.28,19.3 -13.55,6.87 -23.89,23.01 -22.61,37.97 -15,45 -8.37,27.82 -6.85,15.38 -17.51,25.42 -17,16.72 -18.27,21.66 -28.5,47 -21,21.5 -9,24 -13.5,53"
     id="path2989"
     style="fill:none;stroke:#e42518;stroke-width:5;stroke-linecap:butt;stroke-linejoin:round;stroke-miterlimit:4;stroke-dasharray:none;stroke-opacity:1" />
</svg>
