<?xml version="1.0" encoding="UTF-8" standalone="no"?>
<svg
   version="1.1"
   width="10400"
   height="9200"
   viewBox="-2350 -1900 10400 9200"
   id="svg2"
   xmlns:xlink="http://www.w3.org/1999/xlink"
   xmlns="http://www.w3.org/2000/svg"
   xmlns:svg="http://www.w3.org/2000/svg"
   xmlns:rdf="http://www.w3.org/1999/02/22-rdf-syntax-ns#"
   xmlns:cc="http://creativecommons.org/ns#"
   xmlns:dc="http://purl.org/dc/elements/1.1/">
  <metadata
     id="metadata8">
    <rdf:RDF>
      <cc:Work
         rdf:about="">
        <dc:format>image/svg+xml</dc:format>
        <dc:type
           rdf:resource="http://purl.org/dc/dcmitype/StillImage" />
      </cc:Work>
    </rdf:RDF>
  </metadata>
  <defs
     id="defs6" />
  <image
     xlink:href="../basemap/mowosm.png"
     id="image10"
     height="9312.22"
     width="10452.5"
     y="-1900.46"
     x="-2386.03"
     style="display:none" />
  <path
     d="m 2922.41,2189.16 -14.31,61.79 -32.15,137.98 -6.41,19.2 -9.09,16.8 -27.15,35.21 -26.34,21.88 -12.95,17.68 -8.96,15.91 -15.63,34.01 -14.95,17.82 -31.77,23.32 -28.97,18.54 -47.32,15.65 -82.15,11.75 -20.69,1.89 -13.58,-1.22 -17.4,-4.21 -32.65,-18.37 -152.17,-90.88"
     id="path3788"
     style="fill:none;stroke:#925233;stroke-width:5;stroke-linecap:butt;stroke-linejoin:round;stroke-miterlimit:4;stroke-dasharray:none;stroke-opacity:1" />
  <path
     d="m 2905,2971 v -55.14 l -6.05,-21.71 -20.45,-44.46 -54.61,-124.84 -12.28,-19.08 -28.53,-36.21 -13.07,-18.2 -64.45,-77.63 -31.86,-40.62 -11.19,-23.25 -4.5,-29.53 1.69,-55.85 -2.96,-22.61 -34.32,-114.73 -14,-33.19 -27.59,-47.1 -25.94,-40.96 -13.4,-24.75 -15.37,-17.52 -42.6,-26.75 -59.94,-43.25 -34.01,-29.75 -45.54,-43.51 -73.62,-80.73 -138.23,-116.56 -53.14,-57.18 -32.03,-26.54 -34.24,-26.85 -171.94,-129.55 -27.73,-20.17 -147.91,-67.71"
     id="path3796"
     style="fill:none;stroke:#4baf4f;stroke-width:5;stroke-linecap:butt;stroke-linejoin:round;stroke-miterlimit:4;stroke-dasharray:none;stroke-opacity:1" />
  <text
     x="-2260.55"
     y="-1693.04"
     id="text6965"
     xml:space="preserve"
     style="font-style:normal;font-weight:normal;font-size:144px;line-height:125%;font-family:Sans;-inkscape-font-specification:Sans;letter-spacing:0px;word-spacing:0px;fill:#000000;fill-opacity:1;stroke:none"><tspan
       x="-2260.55"
       y="-1693.04"
       id="tspan1">1950</tspan></text>
  <text
     x="-2260.55"
     y="7197.96"
     id="text6965-9"
     xml:space="preserve"
     style="font-style:normal;font-weight:normal;font-size:144px;line-height:125%;font-family:Sans;-inkscape-font-specification:Sans;letter-spacing:0px;word-spacing:0px;fill:#000000;fill-opacity:1;stroke:none"><tspan
       x="-2260.55"
       y="7197.96"
       id="tspan2"></tspan></text>
  <path
     style="fill:none;stroke:#0572b9;stroke-width:5;stroke-linecap:butt;stroke-linejoin:round;stroke-miterlimit:4;stroke-dasharray:none;stroke-opacity:1"
     d="m 3724.02,1716.58 -30.58,1.9 -15.98,3.04 -143.09,60.14 -24.76,8.56 -40.45,5.61 -125.76,13.33 -18.46,4.26 -18.84,6.37 -27.36,11.55 -30.21,15.33 -31.19,23.04 -54.62,41.32 -51.72,37.32 -37.18,27.78 -25.31,22.85 -79.12,96.05 -7.77,16.12 -20.12,49.76 -10.48,11.4 -9.49,6.84 -16.14,11.29 -13.16,6.24 -16.85,3.43 -75.22,2.5 -136.16,3.24 -90.57,0.82 -12.98,4.47 -20.11,10.16 -11.28,10.8 -6.28,16.89 -1.55,10.71 -4.42,6.52 -9.81,5.07 -22.79,0.75 -11.76,0.47 -29.47,8.78 -5.96,0.94 -49.22,-2.85 -33.31,6.97 -14.5,8.5 -31,15 -34.5,16 -39.5,6 -52.5,4 -20.5,3 -13,9.5 -6,15.5 -11,29 -6.46,5.46 -18.94,9.6 -7.04,3.57"
     id="path3976" />
  <path
     d="m 3104.5,1705.86 -50,75 -26,26.5 -43.5,41 -92.5,69.5 -16.5,13.5 -11.43,22.07 -7.27,25.56 -6.3,18.87 -15.5,15.5 -21.22,14.92 -32.35,13.27 -23.8,12.18 -27.63,25.13 -18,29.5 -27.5,32 -10.15,7.97 -13.02,5.88 -91.28,19.3 -13.55,6.87 -23.89,23.01 -22.61,37.97 -15,45 -8.37,27.82 -6.85,15.38 -17.51,25.42 -17,16.72 -18.27,21.66 -28.5,47 -21,21.5 -9,24 -13.5,53"
     id="path2989"
     style="fill:none;stroke:#e42518;stroke-width:5;stroke-linecap:butt;stroke-linejoin:round;stroke-miterlimit:4;stroke-dasharray:none;stroke-opacity:1" />

  <path
     style="fill:none;stroke:#278bc2;stroke-width:5;stroke-linejoin:round;stroke-opacity:1"
     d="m 2895.6,1886.49 -10.22,-36.37 -5.25,-31.81 -17.14,-58.96 -23.79,-81.35 -11.77,-25.07 -4.35,-20.21 2.81,-31.21 6.4,-31.98 8.19,-28.4 15.35,-35.05 20.72,-42.21 59.35,-112.56 60.38,-124.33 9.72,-26.09 7.16,-33.77 9.21,-52.19 -1.02,-26.61 -11.51,-174.22 6.4,-40.42 15.86,-145.82 6.4,-26.61 10.23,-25.58 22,-29.93 58.84,-73.93 197.5,-220.27 46.3,-53.21 77.26,-95.42 94.14,-105.4 69.84,-80.33 27.12,-34.79 109.49,-134.05 36.33,-49.12 20.47,-34.28"
     id="path1" />
</svg>
