<?xml version="1.0" encoding="UTF-8" standalone="no"?>
<svg
   xmlns:dc="http://purl.org/dc/elements/1.1/"
   xmlns:cc="http://creativecommons.org/ns#"
   xmlns:rdf="http://www.w3.org/1999/02/22-rdf-syntax-ns#"
   xmlns:svg="http://www.w3.org/2000/svg"
   xmlns="http://www.w3.org/2000/svg"
   xmlns:xlink="http://www.w3.org/1999/xlink"
   id="svg2"
   viewBox="-2350 -1900 10400 9200"
   height="9200"
   width="10400"
   version="1.1">
  <metadata
     id="metadata8">
    <rdf:RDF>
      <cc:Work
         rdf:about="">
        <dc:format>image/svg+xml</dc:format>
        <dc:type
           rdf:resource="http://purl.org/dc/dcmitype/StillImage" />
        <dc:title></dc:title>
      </cc:Work>
    </rdf:RDF>
  </metadata>
  <defs
     id="defs6" />
  <path
     style="fill:none;stroke:#adacac;stroke-width:5;stroke-linecap:butt;stroke-linejoin:round;stroke-miterlimit:4;stroke-dasharray:none;stroke-opacity:1"
     id="path3761"
     d="m 2443.4,4429.97 44.1,-162.61 35.86,-138.06 1.94,-21.01 -5.06,-19.28 -16,-59.51 -10.56,-15.4 -17.72,-14.96 -49.47,-38.24 -8.72,-11.95 -20.22,-40.3 -3.13,-14.64 -0.69,-24.64 -0.75,-114.51 2.5,-17.5 27,-38 53.99,-79.46 8.41,-21.79 1.9,-22.8 -0.08,-32.49 6.89,-38.2 7.57,-17.05 3.47,-16.83 10.87,-22.93 24.22,-33.43 14.03,-10.93 28.54,-21.31 5.59,-11.55 8.01,-15.86 11.49,-39.12 1.6,-22.76 -4.24,-15.56 -6.75,-11.8 -25.79,-28.26 -7.39,-12.56 -8.36,-18.59 -2.75,-15.1 -4.1,-66.56 2.88,-20.07 6,-17.5 12.5,-21.5 24.5,-28 5.38,-18.72 1.67,-18.06 2.23,-21.45 0.04,-32.16 -1.69,-43.01 4.6,-18.16 36.51,-85.92 1.53,-13.08 -1.09,-42.91 -2.18,-17.52 -19.16,-73.71 -7.01,-28.26 -15.6,-59.15 -6.7,-15.29 -56.77,-85.58 -53.79,-81.93 -8.41,-23.37 -2.6,-21.9 -8.32,-72.12 -11.68,-128.94 3.82,-20.05 11.08,-17.79 13.96,-13.38 42.69,-41.07 20.37,-22.5 11.01,-16.95 8.5,-21.1 4.93,-23.26 0.24,-17.81 -3.27,-17.04 -8,-14.47 -9.35,-10.78 -14.9,-12.14 -30.42,-13.38 -43.61,-20.8 -26.97,-14.17 -38.97,-20.07 -8.67,-9.51 -7.06,-10.59 -82.55,-173.66 -22.99,-49.1 -4.32,-13.84 -7.5,-71.73 -5.97,-37.01 -14.5,-42.5 -44,-151.5 -18,-61 -2.41,-27.56 -5.55,-110.02 1.62,-20.8 12.33,-36.8 11.04,-32.05 11.91,-19.44 36.07,-34.83 56,-47.5 6.5,-14 17,-51.5 13.5,-46.72 42,-67.62 75.5,-136.16 31.5,-50.5 14,-26 9.5,-40.5 -0.5,-14 -8.5,-52.5 -5.03,-32.75 -10.28,-31.18 -7.85,-19.92 -14.51,-17.7 -44.52,-39.51 -35.57,-29.28 -60.27,-52.32 -18.5,-24.37 -4.34,-22.21 -2,-29.23 0.94,-52.61" />
  <image
     xlink:href="../basemap/mowosm.png"
     id="image10"
     height="8932.13"
     width="10452.5"
     y="-1710.41"
     x="-2386.03"
     style="display:none" />
  <path
     style="fill:none;stroke:#bdcf2e;stroke-width:5;stroke-linecap:butt;stroke-linejoin:round;stroke-miterlimit:4;stroke-dasharray:none;stroke-opacity:1"
     id="path3759"
     d="m 3740.68,3221.61 -68.18,-30.75 -18.5,-4.5 -30,1 -54,10 -25.37,0.2 -18.28,-8.46 -34.36,-18.74 -123.66,-72 -39.84,-22.5 -27.89,-15.83 -35.35,-20.19 -95.79,-39.99 -11.56,-6.98 -7.49,-9.49 -34.71,-64.07 -10.12,-13.02 -8.87,-18.67 -7.26,-31.52 -4.46,-14.74 -38.21,-86.52 -79.98,-89.2 -8.28,-22.36 -0.62,-13.55 1.89,-17 5.42,-13.7 14.89,-21.27 38.66,-38.47 42.8,-41.06 30.79,-26.77 22.46,-32.57 10.74,-31.74 2.28,-25.45 -5.22,-43.92 -9.02,-23.83 -18.3,-18.39 -23.66,-10.05 -74.6,-28.86 -46.65,-16.94 -31.32,-17.38 -32.71,-31.23" />
  <path
     style="fill:none;stroke:#fdcb1e;stroke-width:5;stroke-linecap:butt;stroke-linejoin:round;stroke-miterlimit:4;stroke-dasharray:none;stroke-opacity:1"
     id="path3782"
     d="m 2632.72,2443.46 37.47,-2.19 63.14,-4.28 64.72,-4.49 27.68,0.96 53.06,8.51 31.26,7.27 30.21,-6.57 34.5,-20.7 95.8,-61.34 17.28,-5.13 31.59,-2.74 76.5,-6.24 31.84,-3.56 30.78,-9.48 56.37,-17.64 83.61,-29.5 260.88,-89.22 66.21,-8.56 39.72,-2.32 20.06,4.87 16.96,9.3 16.55,19.64 8.11,20.56 0.46,33.78 4.08,25.48 17.65,22.68 22.96,9.31 19.41,-0.96 23.73,-6.68 224.72,-74.38 14.5,0.5 139,34" />
  <path
     style="fill:none;stroke:#933f8f;stroke-width:5;stroke-linecap:butt;stroke-linejoin:round;stroke-miterlimit:4;stroke-dasharray:none;stroke-opacity:1"
     id="path3784"
     d="m 988,587.86 12.5,65 17,92.5 3.5,25 3,27.5 -19.82,162.95 -8.83,64.17 -0.21,31.92 4.33,42.71 -2,24.11 -4.65,25.07 -10.5,30.26 -4.12,22.76 3.56,30.81 11.02,61.38 7.08,15.3 15.75,16.86 17.19,11.97 76.67,21.32 36.34,12.76 51.78,9.13 17.42,9.03 19.5,18 259,238.5 45.98,43.42 31.76,40.26 12.21,18.86 8.12,26.76 2.99,24.81 6.47,35.03 9.26,21.48 17.22,16.61 49.66,14.86 15.95,0.02 15.67,-3.22 29.71,-6.1 20.18,1.33 165.81,62.33 13.7,1.74 h 19.88 l 14.5,2.29 16.33,8.17 17.17,20.83 23.72,38.25 53.72,84.28 10,8.5 13.81,10.49 18.22,7.37 19.05,2.2 35.05,0.21 16.41,1.53 53.96,15.21 21.1,6.9 21.1,0.7 18.21,-4.96 17.2,-10.43 24.17,-22.72 25.36,-23.19 22.86,-17.73 18.78,-7.02 30.53,-1.48 14.76,3.97 33.08,9.07 76.38,33.38 39,16.5 35,27.5 31.55,26.67 16.45,28.83 11.5,44.5 5.72,16.33 7.72,9.43 13.74,10.41 47.92,26.36 11.5,8.23 14.19,17.91 21.83,55.05 10.31,24.83 12.28,26.37 15.78,27.57 38.51,73.95 9.35,17.23 8.52,10.51 11.62,4.31 22.5,4.5 43,1.5 16.84,2.5 15.84,8.67 50.98,43.48 165.06,100 44.28,32.84 60.5,57.5 57,39.5 78,52 16.5,10.5 20.5,5 h 38.5 l 44.5,3 81,18 49.49,11.66 50.37,5.01 97.64,23.33 19.69,4.77 19.69,-0.55 20.12,-6.72 36,-29.5 27.83,-27.76 16.33,-25.94 27.2,-45.1 19.15,-42.21 7.89,-20.44 5.73,-17.39 13,-16.49 19.06,-11.89 15.5,-5.33 19.33,1.55 12.5,1 15,7.5 120.5,76" />
  <path
     style="fill:none;stroke:#ef7e24;stroke-width:5;stroke-linecap:butt;stroke-linejoin:round;stroke-miterlimit:4;stroke-dasharray:none;stroke-opacity:1"
     id="path3786"
     d="m 2941,174.36 -2,48 -1,31 2.5,18 13,29.5 19.49,35.38 8.81,25.44 2.2,21.69 -2,16 -26.5,94.5 -23.5,83 -14,47 -10,18.5 -25.5,28.5 -88,80.5 -36,47 -28.53,69.49 -1.68,14.14 1.65,18.01 4.42,32.85 -10.61,39.3 -1.78,34.42 5.41,22.24 32.96,86.8 4.92,13.96 -0.27,31.57 -0.99,33.72 0.73,47.48 -8.74,56.69 -3.41,34.96 -5.3,39.14 -4.78,36.73 -3,30.5 -5.56,92.76 -13.44,118.74 -4.5,23 -6.47,66.91 -7.2,48.22 -10.33,28.37 -35.17,61 -5.01,16.26 -0.57,17.35 5,16.62 10.78,14.88 55.21,62.59 8.76,18.76 1.5,18.03 2.5,26.5 -8.49,27.59 -31.35,53.45 -6.04,15.38 -1.79,17.58 4.83,32.33 7.14,27.39 6.7,24.28 23.67,94.4 5.13,21 -1.27,19.31 -4.68,13.2 -10,13.2 -13.36,9.11 -16.48,5.78 -17.43,1.83 -38.63,2.22 -32.67,3.32 -12.23,4.97 -9.58,7.57 -7.58,8.64 -7.26,11.77 -19.55,74.64 -7.46,18.33 -13.01,15.12 -24.73,17.07 -21.6,15.07 -9.37,13.37 -5.6,11.84 -0.99,21.62 6.47,46.84 7.4,64.48 -0.41,14.82 -3.46,14.43 -4.99,10.66 -26.11,37.33 -29.72,41.76 -10.21,10.16 -9.36,4.74 -9.04,3.48 -32.44,1.21 -19.84,2.69 -19.15,8.57 -25.47,30.44 -49.08,60.06 -9.66,13.91 -5.6,8.74 -4.65,13.75 -15.13,80.15 -9.06,90.55 -4.42,16.22 -11.91,19.87 -120.57,198.47 -173.42,289.28 -91.76,138.94 -26.9,63.3 -63.34,162.76 -13.74,30.03 -81.78,118.89 -3.34,13.47 0.86,12.11 7.5,20.5 12,24 8.22,17.89 12.35,15.85 35.08,22.06 27.08,34.03 28.28,40.17 14,13 187.5,70 55.12,22.87 10.67,7.06 17.21,18.74" />
  <path
     style="fill:none;stroke:#925233;stroke-width:5;stroke-linecap:butt;stroke-linejoin:round;stroke-miterlimit:4;stroke-dasharray:none;stroke-opacity:1"
     id="path3788"
     d="m 2265.97,2494.05 -63.61,-17.46 -43.79,-3.43 -24.58,-6.81 -16.86,-15.76 -7.06,-16.74 -4.27,-28.29 2.52,-37.63 4.98,-23.88 8.45,-22.22 47.97,-76.34 33.22,-58.73 5.35,-21.43 4.18,-61.03 10.93,-126.57 7.39,-27.79 10.11,-15.18 13.28,-12.89 28.28,-26.87 16.81,-12.62 13.18,-6.98 108.36,-22.63 73.22,-15.25 17.91,-0.37 131.03,15 60.21,1.85 36.06,-1.41 93.18,-0.49 13.45,3.93 17.23,12.29 12.33,18.99 3.42,20.06 -3.13,26.53 0.37,26.93 7.08,30.2 10.58,24.86 26.63,54.45 11.09,25.63 2.94,26.73 -2.12,26.16 -9.9,40.31 -14.31,61.79 -32.15,137.98 -6.41,19.2 -9.09,16.8 -27.15,35.21 -26.34,21.88 -12.95,17.68 -8.96,15.91 -15.63,34.01 -14.95,17.82 -31.77,23.32 -28.97,18.54 -47.32,15.65 -82.15,11.75 -20.67,1.88 -13.58,-1.22 -17.4,-4.21 -32.67,-18.36 -175.98,-105.13 -18.43,-8.69 -19.52,-6.93" />
  <path
     style="fill:none;stroke:#4baf4f;stroke-width:5;stroke-linecap:butt;stroke-linejoin:round;stroke-miterlimit:4;stroke-dasharray:none;stroke-opacity:1"
     id="path3796"
     d="m 3675.5,4398.36 -57.5,5 -61,6 -79.5,22.5 -78,23 -57,15 -34.63,4.19 -29.31,-8.69 -21.56,-22.01 -53,-68 -35.41,-39.98 -20.76,-9.74 -20.28,-1.86 -23.16,-0.57 -31.88,3.16 -21.35,0.69 -20.1,-8.08 -13.07,-10.53 -9.49,-21.64 -106.49,-211.44 -12,-29.5 -16,-25.5 -16.39,-12.34 -30.58,-15.61 -11.1,-11.45 -9.28,-18.16 -26.1,-77.81 -5.36,-27.23 1.22,-16.43 4.59,-16.96 18.5,-20 17,-21 33.5,-43.5 29.5,-48.5 55.24,-136.4 11.32,-50.62 15.94,-125.98 6.5,-86 1.5,-37.5 -6,-98 -6,-22 -9,-18 -28.5,-26 -14.14,-20.46 -2.55,-17.67 1.19,-59.87 v -77 l -6.07,-21.72 -20.43,-44.45 -54.63,-124.85 -12.28,-19.08 -28.53,-36.21 -13.05,-18.19 -64.47,-77.64 -31.86,-40.62 -11.19,-23.25 -4.5,-29.53 1.69,-55.85 -2.96,-22.61 -34.32,-114.73 -14,-33.19 -27.57,-47.09 -25.96,-40.97 -13.4,-24.75 -15.37,-17.52 -42.6,-26.75 -59.94,-43.25 -34.01,-29.75 -45.54,-43.51 -73.6,-80.72 -138.25,-116.56 -53.14,-57.18 -32.01,-26.53 -34.26,-26.86 -171.94,-129.55 -27.73,-20.17 -193.16,-88.42 -11.88,-8.86 -6.92,-10.49 -50.61,-111.15 -63.5,-134 -2.5,-28.5 6,-43 -0.5,-28.5 -29.5,-65 -51.5,-122.5 -55.5,-146 -25.5,-59.5" />
  <path
     style="fill:none;stroke:#78c7c9;stroke-width:5;stroke-linecap:butt;stroke-linejoin:round;stroke-miterlimit:4;stroke-dasharray:none;stroke-opacity:1"
     id="path3798"
     d="m 2834,3752.36 -19.5,25.5 -16,20 -13.4,14.72 -15.37,7.93 -21.65,1.11 -45.45,-11.31 -85.45,-16.83 -32.62,-0.58 -20.02,-1.01 -173.29,3.36" />
  <text
     style="font-style:normal;font-weight:normal;font-size:144px;line-height:125%;font-family:Sans;-inkscape-font-specification:Sans;letter-spacing:0px;word-spacing:0px;fill:#000000;fill-opacity:1;stroke:none"
     xml:space="preserve"
     id="text6965"
     y="-1693.04"
     x="-2260.55"><tspan
       id="tspan1"
       y="-1693.04"
       x="-2260.55">1995</tspan></text>
  <text
     style="font-style:normal;font-weight:normal;font-size:144px;line-height:125%;font-family:Sans;-inkscape-font-specification:Sans;letter-spacing:0px;word-spacing:0px;fill:#000000;fill-opacity:1;stroke:none"
     xml:space="preserve"
     id="text6965-9"
     y="7197.96"
     x="-2260.55"><tspan
       id="tspan2"
       y="7197.96"
       x="-2260.55"></tspan></text>
  <path
     id="path3976"
     d="m 4124.5,1389.36 9.5,295.5 -2.5,25.5 -7,8 -14.5,5.5 -211.5,6.5 -26.5,-10 -23.04,0.16 -24.44,-9.14 -14.44,-2.36 -86.06,7.56 -30.58,1.9 -15.98,3.04 -144.24,60.62 -23.61,8.07 -40.45,5.61 -125.76,13.33 -18.46,4.26 -18.84,6.37 -27.36,11.55 -30.21,15.33 -36.97,27.31 -48.84,37.05 -51.72,37.32 -37.18,27.78 -25.31,22.85 -79.12,96.05 -7.77,16.12 -20.12,49.76 -10.48,11.4 -9.49,6.84 -16.14,11.29 -13.16,6.24 -16.85,3.43 -75.22,2.5 -136.16,3.24 -90.57,0.82 -12.98,4.47 -17.45,11.71 -13.5,20 -10.17,19.86 -11.28,9.56 -19.44,5.17 -16.61,0.41 -33.78,-1.29 -45.41,8.2 -41.9,8.87 -67.41,41.62 -16.2,7.69 -69.17,21.84 -57.32,17.47 -22.54,12.11 -14.59,6.72"
     style="fill:none;stroke:#0572b9;stroke-width:5;stroke-linecap:butt;stroke-linejoin:round;stroke-miterlimit:4;stroke-dasharray:none;stroke-opacity:1" />
  <path
     style="fill:none;stroke:#24bcef;stroke-width:5;stroke-linecap:butt;stroke-linejoin:round;stroke-miterlimit:4;stroke-dasharray:none;stroke-opacity:1"
     id="path3790"
     d="m 2484.2,2272.04 -11.76,0.47 -29.47,8.78 -5.96,0.94 -49.22,-2.85 -33.3,6.98 -14.5,8.5 -31,15 -34.5,16 -39.5,6 -52.5,4 -20.5,3 -13,9.5 -6,15.5 -11,29 -6.47,5.45 -41.46,21.02 -41.46,15.38 -14.84,14.18 -54.76,24.96 -70,34 -18,3.5 -15,-3.5 -24.5,-38.5 -15,-46 -18.5,-10.5 -25,-3 -17.5,-6 -16,-4.5 -7,1 -17.5,6.5 -10,-0.5 -23,-10.5 -13.5,-9.5 -30.5,-43 -8.5,-13.5 -22,-5 -13.5,5.5 -10,7.5 -10,20 -7.5,14 -15,11.5 -42,20.5 -95.5,49.5 -47,26 -108.5,40.5 -25.5,7.5 -79.5,30 -40.5,23 -27.5,15.5 -12.69,5.73 -49.81,12.27 -26,4.5 -20,-5 -26,-15 -35.93,-24.53 -31.82,-42.43 -33.23,-43.84 -72.73,-65.09 -11.45,-14.15 -7.02,-17.7 -19.1,-129.33 -6.36,-47.38 -1.02,-15.15" />
  <path
     style="fill:none;stroke:#e42518;stroke-width:5;stroke-linecap:butt;stroke-linejoin:round;stroke-miterlimit:4;stroke-dasharray:none;stroke-opacity:1"
     id="path2989"
     d="m 3557,1307.86 94,45.5 9,17 4,16 -3,116 -4.5,12 -16.5,9 -46.5,15.5 -200.97,63.3 -32.28,1.23 -16.25,-5.03 -27.5,-10.5 -12,-0.5 -48.5,15 -24.5,16.5 -27,21 -43.5,28 -56.5,38 -50,75 -26,26.5 -43.5,41 -92.5,69.5 -16.5,13.5 -11.43,22.07 -7.27,25.56 -6.3,18.87 -15.5,15.5 -21.22,14.92 -32.35,13.27 -23.8,12.18 -27.63,25.13 -18,29.5 -27.5,32 -10.15,7.97 -13.02,5.88 -91.28,19.3 -13.55,6.87 -23.89,23.01 -22.61,37.97 -15,45 -8.37,27.82 -6.85,15.38 -17.51,25.42 -17,16.72 -18.27,21.66 -28.5,47 -21,21.5 -9,24 -13.5,53 -14.5,46 -7,9.5 -69.52,51.02 -27.55,12.71 -101.39,36.26 -18.72,9.85 -66.24,43.38 -12.6,18.68 -2.59,13.59 3.46,20.69 41.69,37.61 6.87,20.72 -1.9,15.5 -5,11.5 -65.5,84 -28.93,37.68 -79.8,118.85 -16.11,18.9 -46.38,28.79 -279.2,284.84 -58.14,57 -31.38,30.33 -46.9,31.59 -18.14,25.53 -7,14.5 -9.5,25.5" />
</svg>
