<?xml version="1.0" encoding="UTF-8" standalone="no"?>
<svg
   version="1.1"
   width="10400"
   height="9200"
   viewBox="-2350 -1900 10400 9200"
   id="svg2"
   xml:space="preserve"
   xmlns:xlink="http://www.w3.org/1999/xlink"
   xmlns="http://www.w3.org/2000/svg"
   xmlns:svg="http://www.w3.org/2000/svg"
   xmlns:rdf="http://www.w3.org/1999/02/22-rdf-syntax-ns#"
   xmlns:cc="http://creativecommons.org/ns#"
   xmlns:dc="http://purl.org/dc/elements/1.1/"><metadata
     id="metadata8"><rdf:RDF><cc:Work
         rdf:about=""><dc:format>image/svg+xml</dc:format><dc:type
           rdf:resource="http://purl.org/dc/dcmitype/StillImage" /></cc:Work></rdf:RDF></metadata><defs
     id="defs6" /><image
     xlink:href="../basemap/mowosm.png"
     style="display:none"
     id="image10"
     height="9312.22"
     width="10452.5"
     y="-1900.46"
     x="-2386.03" /><path
     style="opacity:1;fill:none;fill-rule:nonzero;stroke:#d68ab1;stroke-width:5;stroke-linecap:butt;stroke-linejoin:round;stroke-miterlimit:4;stroke-dasharray:none;stroke-opacity:1"
     d="m 5248.23,3036.93 -91.78,-83.33 -14.98,-9.6 -26.11,-4.99 h -28.03 l -117.65,9.57 -51.23,-0.53 -30.8,-5.2 -52.61,-20.74 -48,-13.44 -25.48,-0.37 -25.26,6.69 -20.3,14.41 -56.45,57.98 -18.05,20.35 -26.26,11.75 -24.43,4.32 -24.96,0.43 -18.43,-1.54 -36.1,-19.97 -15.24,-1.39 -10.86,2.11 -26.51,11.95 -20.93,7.58 -47.04,5.47 -30.72,-0.38 -32.64,-13.82 -314.88,-185.47 -52.99,-53.76 -94.08,-50.3 -37.41,-21.15 -19.32,-15.35 -18.15,-8.81 -38.78,-8.45 -98.69,-41.47 -36.48,-11.34 -42.24,-8.24 -109.14,-53.06 -31.95,-26.45 -17.92,-16.56 -11.13,-18.46 -3.26,-26.07 1.09,-19.01 6.52,-19.28 10.32,-18.74 29.6,-43.17 7.33,-16.56 2.99,-22.27 -0.54,-16.84 -4.89,-16.56 -13.31,-38.29 -12.22,-34.21 -12.76,-23.08 -26.34,-27.7 -33.94,-26.61 -8.96,-11.95 -8.69,-14.93 -6.52,-23.35 v -16.83 l -11.66,-82.65 -4.05,-11.07 -18.11,-34.38 -2.28,-14.36 -0.26,-21.01 5.32,-19.18 5.21,-23.45 -1.4,-13.39 -15.69,-42.42"
     id="path1067" /><path
     id="path1779"
     d="m 108.65,4089.49 38.02,-8.06 32.26,6.14 24.19,-0.77 19.58,-13.06 155.22,-166.91 14.51,-12.42 46.85,-26.11 26.5,-8.45 30.34,5.38 39.94,26.11 16.13,3.07 18.05,-3.84 12.67,-8.06 65.66,-127.11 15.36,-15.74 13.82,-8.45 89.47,-29.57 23.81,-4.99 124.8,1 25.46,-3.54 19.86,-9.76 17.25,-12.29 18.03,-26.1 61.66,-89.14 11.4,-11.62 84.79,-45.78 22.29,-17.07 19.58,-20.74 97.15,-118.66 24.58,-29.57 55.43,-54.22 65.63,-57.33 17.81,-22.28 27.88,-20.94 175.01,-173.94 64.51,-49.15 10.59,-12.38 9,-18.34 2.02,-18.76 -4.28,-17.4 -11.18,-17.22 -81.41,-62.59 -32.26,-29.57 -16.9,-4.99 -29.18,0.77 -19.2,-5.38 -15.36,-11.52 -37.63,-71.81 -9.6,-30.72 4.22,-36.1 24.19,-68.35 25.57,-34.46 25.8,-12.22 26.2,-2.99 65.71,21.18 31.05,11.15 30.5,11 23.5,4 17,-4.5 16.57,-9.91 10.71,-17.88 4.86,-16.8 -1.32,-20.08 -9.05,-29.85 -0.84,-9.73 0.35,-13.61 2.38,-10.3 6.46,-14.17 6.23,-8.38 12.38,-6.89 62.22,-30.21 35.11,-20.98"
     style="fill:none;stroke:#fdcb1e;stroke-width:5;stroke-linecap:butt;stroke-linejoin:round;stroke-miterlimit:4;stroke-dasharray:none;stroke-opacity:1" /><path
     style="fill:none;stroke:#78c7c9;stroke-width:5;stroke-linecap:butt;stroke-linejoin:round;stroke-miterlimit:4;stroke-dasharray:none;stroke-opacity:1"
     d="m 1906,2311.36 -32,19.5 -65.5,32 -18.12,0.28 -13.71,-6.02 -9.28,-12.45 -7.06,-15.6 -3.74,-32.06 2.8,-36.26 0.63,-62.81 -3.79,19.76 -28,-69.48 -10,-14.31 -15.46,-12.07 -28.15,-16.46 -10.86,-13.66 -51.54,-119.12 -1.15,-15.88 3.39,-12.22 11.58,-16.64 35.55,-18.87 77.54,-17.79 18.52,-5.07 11.58,-8.2 14.87,-16.05 8.17,-13.75 12.28,-65.6 7.47,-16.01 59.33,-71.37 13.97,-6.97 17.43,-2.64 15.86,1.43 68.95,12.35 12.66,-1.17 17.04,-8.89 35.07,-49.34 10.45,-11.09 10.41,-6.01 12.37,-2.81 13.94,2.52 34.44,20.61 13.91,3.47 94.68,13.62 10.1,0.53 45.12,-4.3"
     id="path3001" /><path
     d="m 3662.61,4430.06 -27.11,-282.2 4,-27.5 17.49,-37.19 17.09,-31.44 5.88,-22.12 -0.89,-26.09 -6.12,-30.96 -25.94,-116.2 -11,-57.5 -2,-15.5 -0.33,-15.04 5,-14.41 7.31,-11.7 11.37,-12.07 79.14,-52.78 12.81,-9 10.44,-9.82 8.19,-10.82 12.89,-29.6 2.23,-17.16 0.19,-36.1 5,-30.27 13.76,-58.73 26,-116.5 1.44,-26.22 -7.44,-59.28 -8,-15 -15.98,-11.22 -23.52,-10.78 -102,-46 -18.5,-4.5 -30,1 -54,10 -25.37,0.2 -18.28,-8.46 -34.36,-18.74 -123.66,-72 -39.84,-22.5 -27.89,-15.83 -35.35,-20.19 -95.79,-39.99 -11.56,-6.98 -7.49,-9.49 -34.71,-64.07 -10.12,-13.02 -8.87,-18.67 -7.26,-31.52 -4.46,-14.74 -38.21,-86.52 -79.98,-89.2 -8.28,-22.36 -0.62,-13.55 1.89,-17 5.42,-13.7 14.89,-21.27 38.66,-38.47 42.8,-41.06 30.79,-26.77 22.46,-32.57 10.74,-31.74 2.28,-25.45 -5.22,-43.92 -9.02,-23.83 -18.3,-18.39 -23.66,-10.05 -74.6,-28.86 -46.65,-16.94 -31.32,-17.38 -32.71,-31.23 -33.85,-32.57 -9.36,-19.9 -15.26,-43.79 -13.37,-20.98 -9.61,-9.62 -15.09,-9.55 -23.07,-5.38 -23.04,-3.31 -28.1,-1.62 -28.64,3.63 -30.93,4.65 -22.89,2.05 -19.12,-4.85 -14.73,-8.66 -12.77,-12.84 -33.3,-39.95 -11.74,-19.4 -5.97,-21.18 -5.24,-79.11 1.44,-17.74 5.56,-30.85 8.4,-28.57 6.85,-42.2 -5.76,-149.95 -2.32,-102.19 -7.33,-21.99 -14.12,-22.27 -73.86,-97.75 -153.14,-172.69 -39.37,-45.07 -21.45,-11.95 -27.97,-11.68 -16.29,-13.31 -7.65,-12.97 -6.49,-18.65 -0.82,-26.25 12.53,-36.81 18.47,-53.61 -1.25,-22.26 -7.48,-30.6 -14.15,-43.93 -9.46,-61.47 -9.22,-20.35 -21.8,-19.19 -41.56,-37.64 -28.06,-42.6 -19.17,-21.92 -87.17,-87.17 -11.52,-16.13 -6.14,-22.66 -2.3,-22.27"
     id="path3759"
     style="fill:none;stroke:#bdcf2e;stroke-width:5;stroke-linecap:butt;stroke-linejoin:round;stroke-miterlimit:4;stroke-dasharray:none;stroke-opacity:1" /><path
     d="m 2198.99,5087.26 12.16,-28.03 20.07,-43 9.27,-18.05 15.66,-16.39 19.85,-12.44 22.15,-6.62 30.31,-5.27 18.89,-9.28 14.81,-14.3 4.84,-11.53 4,-13 7.5,-41 19,-101.5 14.7,-77.94 -0.18,-16.97 1.33,-23.67 -3.89,-37.48 -4.95,-15.44 0.5,-21.5 9,-35.5 73.5,-271 35.86,-138.06 1.94,-21.01 -5.06,-19.28 -16,-59.51 -10.56,-15.4 -17.72,-14.96 -49.47,-38.24 -8.72,-11.95 -20.22,-40.3 -3.13,-14.64 -0.69,-24.64 -0.75,-114.51 2.5,-17.5 27,-38 53.99,-79.46 8.41,-21.79 1.9,-22.8 -0.08,-32.49 6.89,-38.2 7.57,-17.05 3.47,-16.83 10.87,-22.93 24.22,-33.43 14.03,-10.93 28.54,-21.31 5.59,-11.55 8.01,-15.86 11.49,-39.12 1.6,-22.76 -4.24,-15.56 -6.75,-11.8 -25.79,-28.26 -7.39,-12.56 -8.36,-18.59 -2.75,-15.1 -4.1,-66.56 2.88,-20.07 6,-17.5 12.5,-21.5 24.5,-28 5.38,-18.72 1.67,-18.06 2.23,-21.45 0.04,-32.16 -1.69,-43.01 4.6,-18.16 36.51,-85.92 1.53,-13.08 -1.09,-42.91 -2.18,-17.52 -19.16,-73.71 -7.01,-28.26 -15.6,-59.15 -6.7,-15.29 -56.77,-85.58 -53.79,-81.93 -8.41,-23.37 -2.6,-21.9 -8.32,-72.12 -11.68,-128.94 3.82,-20.05 11.08,-17.79 13.96,-13.38 42.69,-41.07 20.37,-22.5 11.01,-16.95 8.5,-21.1 4.93,-23.26 0.24,-17.81 -3.27,-17.04 -8,-14.47 -9.35,-10.78 -14.9,-12.14 -30.42,-13.38 -43.61,-20.8 -26.97,-14.17 -38.97,-20.07 -8.67,-9.51 -7.06,-10.59 -82.55,-173.66 -22.99,-49.1 -4.32,-13.84 -7.5,-71.73 -5.97,-37.01 -14.5,-42.5 -44,-151.5 -18,-61 -2.41,-27.56 -5.55,-110.02 1.62,-20.8 12.33,-36.8 11.04,-32.05 11.91,-19.44 36.07,-34.83 56,-47.5 6.5,-14 17,-51.5 13.5,-46.72 42,-67.62 75.5,-136.16 31.5,-50.5 14,-26 9.5,-40.5 -0.5,-14 -8.5,-52.5 -5.03,-32.75 -10.28,-31.18 -7.85,-19.92 -14.51,-17.7 -44.52,-39.51 -35.57,-29.28 -60.27,-52.32 -18.5,-24.37 -4.34,-22.21 -2,-29.23 0.94,-52.61"
     id="path3761"
     style="fill:none;stroke:#adacac;stroke-width:5;stroke-linecap:butt;stroke-linejoin:round;stroke-miterlimit:4;stroke-dasharray:none;stroke-opacity:1" /><path
     d="m 2632.72,2443.46 37.47,-2.19 63.14,-4.28 64.72,-4.49 27.68,0.96 53.06,8.51 31.26,7.27 30.21,-6.57 34.5,-20.7 95.8,-61.34 17.28,-5.13 31.59,-2.74 76.5,-6.24 31.84,-3.56 30.78,-9.48 56.37,-17.64 83.61,-29.5 260.88,-89.22 66.21,-8.56 39.72,-2.32 20.06,4.87 16.96,9.3 16.55,19.64 8.11,20.56 0.46,33.78 4.08,25.48 17.65,22.68 22.96,9.31 19.41,-0.96 23.73,-6.68 224.72,-74.38 14.5,0.5 139,34 59,18 32.5,30.5 32.24,14.63 50.26,4.37 33.5,17.5 31,22.5 31,12 33.5,2 41,-5.5 60.5,-19"
     id="path3782"
     style="fill:none;stroke:#fdcb1e;stroke-width:5;stroke-linecap:butt;stroke-linejoin:round;stroke-miterlimit:4;stroke-dasharray:none;stroke-opacity:1" /><path
     d="m 988,587.86 12.5,65 17,92.5 3.5,25 3,27.5 -19.82,162.95 -8.83,64.17 -0.21,31.92 4.33,42.71 -2,24.11 -4.65,25.07 -10.5,30.26 -4.12,22.76 3.56,30.81 11.02,61.38 7.08,15.3 15.75,16.86 17.19,11.97 76.67,21.32 36.34,12.76 51.78,9.13 17.42,9.03 19.5,18 259,238.5 45.98,43.42 31.76,40.26 12.21,18.86 8.12,26.76 2.99,24.81 6.47,35.03 9.26,21.48 17.22,16.61 49.66,14.86 15.95,0.02 15.67,-3.22 29.71,-6.1 20.18,1.33 165.81,62.33 13.7,1.74 h 19.88 l 14.5,2.29 16.33,8.17 17.17,20.83 23.72,38.25 53.72,84.28 10,8.5 13.81,10.49 18.22,7.37 19.05,2.2 35.05,0.21 16.41,1.53 53.96,15.21 21.1,6.9 21.1,0.7 18.21,-4.96 17.2,-10.43 24.17,-22.72 25.36,-23.19 22.86,-17.73 18.78,-7.02 30.53,-1.48 14.76,3.97 33.08,9.07 76.38,33.38 39,16.5 35,27.5 31.55,26.67 16.45,28.83 11.5,44.5 5.72,16.33 7.72,9.43 13.74,10.41 47.92,26.36 11.5,8.23 14.19,17.91 21.83,55.05 10.31,24.83 12.28,26.37 15.78,27.57 38.51,73.95 9.35,17.23 8.52,10.51 11.62,4.31 22.5,4.5 43,1.5 16.84,2.5 15.84,8.67 50.98,43.48 165.06,100 44.28,32.84 60.5,57.5 57,39.5 78,52 16.5,10.5 20.5,5 h 38.5 l 44.5,3 81,18 49.49,11.66 50.37,5.01 97.64,23.33 19.69,4.77 19.69,-0.55 20.12,-6.72 36,-29.5 27.83,-27.76 16.33,-25.94 27.2,-45.1 19.15,-42.21 7.89,-20.44 5.73,-17.39 13,-16.49 19.06,-11.89 15.5,-5.33 19.33,1.55 11.32,2.74 15.95,8.57 120.73,73.2 109.8,66.37 36.31,27.24 41.24,19.95 30.57,30.35 69.5,67.2 66.74,74.32 8.33,19.57 1.49,22.27 -11.53,48.44 -12.8,46.21 -17.28,31.87 -46.85,69.89 -8.45,19.2 -0.77,17.28 5.23,14.88 6.79,9.14 9.45,8.25 25.96,14.62 29.91,25.62"
     id="path3784"
     style="fill:none;stroke:#933f8f;stroke-width:5;stroke-linecap:butt;stroke-linejoin:round;stroke-miterlimit:4;stroke-dasharray:none;stroke-opacity:1" /><path
     d="m 2941,174.36 -2,48 -1,31 2.5,18 13,29.5 19.49,35.38 8.81,25.44 2.2,21.69 -2,16 -26.5,94.5 -23.5,83 -14,47 -10,18.5 -25.5,28.5 -88,80.5 -36,47 -28.53,69.49 -1.68,14.14 1.65,18.01 4.42,32.85 -10.61,39.3 -1.78,34.42 5.41,22.24 32.96,86.8 4.92,13.96 -0.27,31.57 -0.99,33.72 0.73,47.48 -8.74,56.69 -3.41,34.96 -5.3,39.14 -4.78,36.73 -3,30.5 -5.56,92.76 -13.44,118.74 -4.5,23 -6.47,66.91 -7.2,48.22 -10.33,28.37 -35.17,61 -5.01,16.26 -0.57,17.35 5,16.62 10.78,14.88 55.21,62.59 8.76,18.76 1.5,18.03 2.5,26.5 -8.49,27.59 -31.35,53.45 -6.04,15.38 -1.79,17.58 4.83,32.33 7.14,27.39 6.7,24.28 23.67,94.4 5.13,21 -1.27,19.31 -4.68,13.2 -10,13.2 -13.36,9.11 -16.48,5.78 -17.43,1.83 -38.63,2.22 -32.67,3.32 -12.23,4.97 -9.58,7.57 -7.58,8.64 -7.26,11.77 -19.55,74.64 -7.46,18.33 -13.01,15.12 -24.73,17.07 -21.6,15.07 -9.37,13.37 -5.6,11.84 -0.99,21.62 6.47,46.84 7.4,64.48 -0.41,14.82 -3.46,14.43 -4.99,10.66 -26.11,37.33 -29.72,41.76 -10.21,10.16 -9.36,4.74 -9.04,3.48 -32.44,1.21 -19.84,2.69 -19.15,8.57 -25.47,30.44 -49.08,60.06 -9.66,13.91 -5.6,8.74 -4.65,13.75 -15.13,80.15 -9.06,90.55 -4.42,16.22 -11.91,19.87 -120.57,198.47 -173.42,289.28 -91.76,138.94 -26.9,63.3 -63.34,162.76 -13.74,30.03 -81.78,118.89 -3.34,13.47 0.86,12.11 7.5,20.5 12,24 8.22,17.89 12.35,15.85 35.08,22.06 27.08,34.03 28.28,40.17 14,13 187.5,70 55.12,22.87 10.67,7.06 17.21,18.74"
     id="path3786"
     style="fill:none;stroke:#ef7e24;stroke-width:5;stroke-linecap:butt;stroke-linejoin:round;stroke-miterlimit:4;stroke-dasharray:none;stroke-opacity:1" /><path
     d="m 2265.97,2494.05 -63.61,-17.46 -43.79,-3.43 -24.58,-6.81 -16.86,-15.76 -7.06,-16.74 -4.27,-28.29 2.52,-37.63 4.98,-23.88 8.45,-22.22 47.97,-76.34 33.22,-58.73 5.35,-21.43 4.18,-61.03 10.93,-126.57 7.39,-27.79 10.11,-15.18 13.28,-12.89 28.28,-26.87 16.81,-12.62 13.18,-6.98 108.36,-22.63 73.22,-15.25 17.91,-0.37 131.03,15 60.21,1.85 36.06,-1.41 93.18,-0.49 13.45,3.93 17.23,12.29 12.33,18.99 3.42,20.06 -3.13,26.53 0.37,26.93 7.08,30.2 10.58,24.86 26.63,54.45 11.09,25.63 2.94,26.73 -2.12,26.16 -9.9,40.31 -14.31,61.79 -32.15,137.98 -6.41,19.2 -9.09,16.8 -27.15,35.21 -26.34,21.88 -12.95,17.68 -8.96,15.91 -15.63,34.01 -14.95,17.82 -31.77,23.32 -28.97,18.54 -47.32,15.65 -82.15,11.75 -20.67,1.88 -13.58,-1.22 -17.4,-4.21 -32.67,-18.36 -175.98,-105.13 -18.43,-8.69 -19.52,-6.93"
     id="path3788"
     style="fill:none;stroke:#925233;stroke-width:5;stroke-linecap:butt;stroke-linejoin:round;stroke-miterlimit:4;stroke-dasharray:none;stroke-opacity:1" /><path
     d="m 1672.5,5560.86 45,-19.5 82.5,-35.5 76,-43.5 33,-14.5 105.5,-44 47.5,-23 31,-25.5 14,-19 11,-19 15.5,-39 13.5,-47.5 12,-32.5 19,-45.5 25.47,-63.24 13.01,-29.89 18.52,-40 9.32,-18.58 13.68,-13.8 17.79,-23.46 4.87,-11.57 0.48,-13.45 -3.15,-13.03 -7.77,-11.51 -11.22,-9.38 -74.57,-29.72 -21.08,-13.09 -13.33,-14.84 -7.16,-14.32 -32.52,-103.52 -35.69,-76.05 -15.94,-18.95 -39.7,-37.11"
     id="path3802"
     style="fill:none;stroke:#bac8e8;stroke-width:5;stroke-linecap:butt;stroke-linejoin:round;stroke-miterlimit:4;stroke-dasharray:none;stroke-opacity:1" /><text
     x="-2260.55"
     y="-1693.04"
     id="text6965"
     xml:space="preserve"
     style="font-style:normal;font-weight:normal;font-size:144px;line-height:125%;font-family:Sans;-inkscape-font-specification:Sans;letter-spacing:0px;word-spacing:0px;fill:#000000;fill-opacity:1;stroke:none"><tspan
       x="-2260.55"
       y="-1693.04"
       id="tspan1">2020</tspan></text><text
     x="-2260.55"
     y="7197.96"
     id="text6965-9"
     xml:space="preserve"
     style="font-style:normal;font-weight:normal;font-size:144px;line-height:125%;font-family:Sans;-inkscape-font-specification:Sans;letter-spacing:0px;word-spacing:0px;fill:#000000;fill-opacity:1;stroke:none"><tspan
       x="-2260.55"
       y="7197.96"
       id="tspan2"></tspan></text><path
     style="opacity:1;fill:none;fill-rule:nonzero;stroke:#000000;stroke-width:5;stroke-linecap:butt;stroke-linejoin:round;stroke-miterlimit:4;stroke-dasharray:none;stroke-opacity:1"
     d="m 1933.63,2952.07 15.17,-44.93 36.67,-35.33"
     id="path899" /><path
     d="m 4124.5,1389.36 9.5,295.5 -2.5,25.5 -7,8 -14.5,5.5 -211.5,6.5 -26.5,-10 -23.04,0.16 -24.44,-9.14 -14.44,-2.36 -86.06,7.56 -30.58,1.9 -15.98,3.04 -144.24,60.62 -23.61,8.07 -40.45,5.61 -125.76,13.33 -18.46,4.26 -18.84,6.37 -27.36,11.55 -30.21,15.33 -36.97,27.31 -48.84,37.05 -51.72,37.32 -37.18,27.78 -25.31,22.85 -79.12,96.05 -7.77,16.12 -20.12,49.76 -10.48,11.4 -9.49,6.84 -16.14,11.29 -13.16,6.24 -16.85,3.43 -75.22,2.5 -136.16,3.24 -90.57,0.82 -12.98,4.47 -17.45,11.71 -13.5,20 -10.17,19.86 -11.28,9.56 -19.44,5.17 -16.61,0.41 -33.78,-1.29 -45.41,8.2 -41.9,8.87 -67.41,41.62 -16.2,7.69 -69.17,21.84 -57.32,17.47 -22.54,12.11 -74.79,34.47 -131.5,57 -65.5,28 -59,23 -29,1 -33.5,-7 -66,-23.5 -64.5,-20.75 -24,2.5 -23.75,11 -12.25,15.5 -26,29.5 -29,20.96 -59.82,17.18 -94.18,30.11 -80.47,20.23 -23.4,2.54 -23.73,-3.05 -41.4,-17.39 -42,-14.83 h -16 l -31,7 -30.5,6 -26,4.5 -20,-5 -26,-15 -35.93,-24.53 -31.82,-42.43 -33.23,-43.84 -72.73,-65.09 -11.45,-14.15 -7.02,-17.7 -19.1,-129.33 -6.36,-47.38 -14.91,-195.84 6.97,-26.13 0.42,-12.88 -2.89,-11.73 -9.16,-13.03 -24.9,-19.16 -29.5,-31.16 -16.82,-24.03 -57.27,-115.06 -1.04,-13.82 3.83,-12.04 10.71,-14.85 38.97,-15.1 14.23,-12.32 21.74,-40.68 10.55,-10.36 39.48,-16.27 16.7,-12.26 20.23,-26.01 12.79,-23.61 2.4,-21.3 -3.82,-18.01 -14.76,-17.45 -21.16,-11.05 -135.06,-50.2 -21.1,-10.87 -19.56,-16.41 -16.61,-22.92 -10.61,-21.92 -5.45,-33.06 6.16,-68.76 3.29,-65.76 0.24,-22.63 -1.29,-35.07 -2.24,-80.18 -2.12,-27.58 -4.95,-21.21 -33.94,-57.28 -22.63,-28.28 -34.65,-26.16 -49.5,-41.01 -57.28,-40.31 -39.38,-29.74 -18,-21.5 -11.5,-30.5 -2,-26 3,-31 15.5,-29"
     id="path3792"
     style="fill:none;stroke:#0572b9;stroke-width:5;stroke-linecap:butt;stroke-linejoin:round;stroke-miterlimit:4;stroke-dasharray:none;stroke-opacity:1" /><path
     d="m 1066,2603.36 33.5,-7.5 27.5,-15.5 40.5,-23 79.5,-30 25.5,-7.5 108.5,-40.5 47,-26 95.5,-49.5 42,-20.5 15,-11.5 7.5,-14 10,-20 10,-7.5 13.5,-5.5 22,5 8.5,13.5 30.5,43 13.5,9.5 23,10.5 10,0.5 17.5,-6.5 7,-1 16,4.5 17.5,6 25,3 18.5,10.5 15,46 24.5,38.5 15,3.5 18,-3.5 70,-34 54.76,-24.96 14.84,-14.18 41.46,-15.38 41.46,-21.02 6.47,-5.45 11,-29 6,-15.5 13,-9.5 20.5,-3 52.5,-4 39.5,-6 34.5,-16 31,-15 14.5,-8.5 33.3,-6.98 49.22,2.85 5.96,-0.94 29.47,-8.78 11.76,-0.47"
     id="path3790"
     style="fill:none;stroke:#24bcef;stroke-width:5;stroke-linecap:butt;stroke-linejoin:round;stroke-miterlimit:4;stroke-dasharray:none;stroke-opacity:1" /><path
     d="m 2042.6,2434.72 -16.23,1.53 -7.75,-1.09 -12.12,-6.03 -7.68,-12.88 -1.37,-15.36 3.64,-11.6 6.53,-12.12 -1.15,-25.47 -3.25,-9.44 -11.72,-14.41 -30.18,-26.82 -12.98,-9.23 -12.04,-0.45 -11.2,2.63 -32.1,19.38 -24.69,14.75 -19.31,7.75 -17.66,-0.38"
     id="path3794"
     style="fill:none;stroke:#24bcef;stroke-width:5;stroke-linecap:butt;stroke-linejoin:round;stroke-miterlimit:4;stroke-dasharray:none;stroke-opacity:1" /><path
     d="m 3835.82,4095.61 19.22,36.83 6.22,24.56 -0.92,91.53 -20.24,51.53 -13.35,21.15 -27.52,27.44 -21.05,18.67 -33.1,19.22 -27.77,8.35 -41.8,3.47 -57.5,5 -61,6 -79.5,22.5 -78,23 -57,15 -34.63,4.19 -29.31,-8.69 -21.56,-22.01 -53,-68 -35.41,-39.98 -20.76,-9.74 -20.28,-1.86 -23.16,-0.57 -31.88,3.16 -21.35,0.69 -20.1,-8.08 -13.07,-10.53 -9.49,-21.64 -106.49,-211.44 -12,-29.5 -16,-25.5 -16.39,-12.34 -30.58,-15.61 -11.1,-11.45 -9.28,-18.16 -26.1,-77.81 -5.36,-27.23 1.22,-16.43 4.59,-16.96 18.5,-20 17,-21 33.5,-43.5 29.5,-48.5 55.24,-136.4 11.32,-50.62 15.94,-125.98 6.5,-86 1.5,-37.5 -6,-98 -6,-22 -9,-18 -28.5,-26 -14.14,-20.46 -2.55,-17.67 1.19,-59.87 v -77 l -6.07,-21.72 -20.43,-44.45 -54.63,-124.85 -12.28,-19.08 -28.53,-36.21 -13.05,-18.19 -64.47,-77.64 -31.86,-40.62 -11.19,-23.25 -4.5,-29.53 1.69,-55.85 -2.96,-22.61 -34.32,-114.73 -14,-33.19 -27.57,-47.09 -25.96,-40.97 -13.4,-24.75 -15.37,-17.52 -42.6,-26.75 -59.94,-43.25 -34.01,-29.75 -45.54,-43.51 -73.6,-80.72 -138.25,-116.56 -53.14,-57.18 -32.01,-26.53 -34.26,-26.86 -171.94,-129.55 -27.73,-20.17 -193.16,-88.42 -11.88,-8.86 -6.92,-10.49 -50.61,-111.15 -63.5,-134 -2.5,-28.5 6,-43 -0.5,-28.5 -29.5,-65 -51.5,-122.5 -55.5,-146 -25.5,-59.5 -28.56,-82.58 -2.3,-13.06 3.07,-12.67 4.22,-9.6 10.75,-11.9 60.67,-51.84 12.67,-15.74 5.76,-14.59 1.92,-17.66 -11.9,-83.71 -11.52,-34.56"
     id="path3796"
     style="fill:none;stroke:#4baf4f;stroke-width:5;stroke-linecap:butt;stroke-linejoin:round;stroke-miterlimit:4;stroke-dasharray:none;stroke-opacity:1" /><path
     d="m 3557,1307.86 94,45.5 9,17 4,16 -3,116 -4.5,12 -16.5,9 -46.5,15.5 -200.97,63.3 -32.28,1.23 -16.25,-5.03 -27.5,-10.5 -12,-0.5 -48.5,15 -24.5,16.5 -27,21 -43.5,28 -56.5,38 -50,75 -26,26.5 -43.5,41 -92.5,69.5 -16.5,13.5 -11.43,22.07 -7.27,25.56 -6.3,18.87 -15.5,15.5 -21.22,14.92 -32.35,13.27 -23.8,12.18 -27.63,25.13 -18,29.5 -27.5,32 -10.15,7.97 -13.02,5.88 -91.28,19.3 -13.55,6.87 -23.89,23.01 -22.61,37.97 -15,45 -8.37,27.82 -6.85,15.38 -17.51,25.42 -17,16.72 -18.27,21.66 -28.5,47 -21,21.5 -9,24 -13.5,53 -14.5,46 -7,9.5 -69.52,51.02 -27.55,12.71 -101.39,36.26 -18.72,9.85 -66.24,43.38 -12.6,18.68 -2.59,13.59 3.46,20.69 41.69,37.61 6.87,20.72 -1.9,15.5 -5,11.5 -65.5,84 -28.93,37.68 -79.8,118.85 -16.11,18.9 -46.38,28.79 -279.2,284.84 -58.14,57 -31.38,30.33 -46.9,31.59 -18.14,25.53 -7,14.5 -9.5,25.5 -20.71,75.75 -1.15,20.93 v 60.1 l -3.46,29.38 -6.91,22.46 -12.86,17.86 -161.09,135.94 -34.56,27.1 -50.69,50.85 -29.95,15.74 -72.96,13.44 -18.82,9.22 -21.89,17.28 -15.36,18.43 -12.67,18.43 -7.3,18.82 -4.61,27.65 -8.45,18.43 -26.88,36.86 -19.2,27.26 -16.9,13.82 -29.18,13.06 -15.36,9.6 -25.34,26.5 -19.58,47.23 -36.48,81.02 -9.6,26.11 v 13.44 l 3.84,19.97 9.6,13.82 86.02,89.09 50.69,68.74 36.86,38.78 32.26,28.8 108.29,71.42 19.58,14.21 14.59,20.35 33.02,67.58 21.12,23.42 34.18,35.33 12.67,24.19 27.26,59.9 25.73,48.38 45.31,64.51"
     id="path2989"
     style="fill:none;stroke:#e42518;stroke-width:5;stroke-linecap:butt;stroke-linejoin:round;stroke-miterlimit:4;stroke-dasharray:none;stroke-opacity:1" /><path
     style="opacity:1;fill:none;fill-rule:nonzero;stroke:#f1928b;stroke-width:5;stroke-linecap:butt;stroke-linejoin:round;stroke-miterlimit:4;stroke-dasharray:none;stroke-opacity:1"
     d="m 2550.25,3236.12 65.71,-23.89 96.12,-21.18 L 2733,3183 l 31,-20.5 239,-231 36,-28.5 28.5,-13.5 76.5,-39.5 119,-63.5 179,-92.5 23,-14 13.5,-14 15,-20.5 9,-24 36.5,-105 50,-145 11.5,-19.5 25.5,-23.5 29,-30 10,-20 7,-30 1,-34 -4.5,-161.5 -8.5,-82 -10,-107 -5.5,-106.5 -1,-40.5 3.5,-31 24,-125 1.5,-29.5 -2.5,-88.5 -1,-62 -8.5,-29 -21,-32.5 -65.5,-60 -48.5,-30 -344,-207.5 -214.5,-101.5 -121,-65 -45.5,-9 -78,-12 -485,-31 -31.5,-5.5 -95,-26 h -42 l -30,11 -35.5,20 -43,20 -197,74 -32.5,19.5 -24,24 -86,108.5 -31.5,29 -124.5,101 -22.5,32 -15,39.5 -4,37.5 5,43 10.5,31.5 120,245 11.5,37 6.5,50.5 21,177 5.5,23 14,25.5 113.5,211.5 26,46.5 51,124.5 8,31 7,49.5 7.75,63.5 8.25,25 11.5,16.25 58.25,71.75 15.5,26.5 51.5,97.75 17.5,23.75 18,18 18.25,11 119.75,65.5 21.75,13.5 19,17.75 16.5,16.5 16.75,21.25 75.5,110.75 11.5,20.75 51.5,109 24,46 24.75,36 19.25,21 24.5,17.5 25.75,8.25 19.5,3.5 h 26 l 24.75,-8.13"
     id="path1069" /><path
     style="opacity:1;fill:none;fill-rule:nonzero;stroke:#f7a600;stroke-width:5;stroke-linecap:butt;stroke-linejoin:round;stroke-miterlimit:4;stroke-dasharray:none;stroke-opacity:1"
     d="m -348.65,3510.37 19.55,-17.11 54.31,-52.68 22.81,-19.82 12.49,-8.69 14.66,-7.87 136.85,-50.5 45.07,-17.11 26.07,-13.58 20.36,-14.93 47.79,-44.8 16.29,-18.46 45.07,-79.83 14.93,-21.99 v -0.27 l 44.26,-56.21 98.57,-124.9 13.58,-13.85 12.49,-10.32 409.74,-256.87 16.56,-7.87 21.99,-7.33 24.98,-3.26 329.37,2.72 14.39,-1.63 16.56,-4.07 354.08,-99.65 38.83,-12.49 21.72,-10.32 45.89,-25.8 14.12,-12.22 19.01,-22.27 28.51,-54.58 13.58,-19.28 25.52,-25.8 24.98,-15.75 49.15,-26.07 17.11,-13.58 10.05,-11.68 13.03,-27.97 32.86,-135.77 10.59,-39.64 3.8,-30.14 3.53,-44.8 4.89,-13.85 9.5,-19.01 15.48,-19.55 20.64,-14.39 18.19,-6.52 53.76,-5.43 183.28,-35.03 30.95,-0.54 11.68,-2.17 13.58,-7.33 18.19,-12.22 12.49,-12.76 16.56,-18.46 11.68,-16.56 4.62,-16.84 6.79,-31.23 14.12,-113.5 5.7,-23.89 5.43,-21.18 -0.54,-11.13 -3.26,-53.49 -22.54,-147.44 -9.23,-21.45 -16.84,-14.66 -27.7,-24.71 -3.26,-6.79 -8.96,-30.14 -6.25,-45.35 -6.25,-19.82 -20.77,-48.06 -5.59,-20.92 -3.9,-106.7 1.05,-42.63 9.04,-25.11 12.42,-20.5 9.37,-13.71 8.69,-18.19 3.53,-17.92 -1.09,-27.02 -6.52,-18.19 -18.74,-36.11 -3.53,-14.93 -4.34,-33.4 -16.84,-79.02 -1.36,-36.39 3.26,-26.07 12.76,-63.27 1.09,-30.41 -4.07,-27.15 -50.51,-214.51 -1.63,-21.99 -8.96,-172.97 -5.16,-16.83 -7.6,-14.12 -10.32,-13.58 -13.58,-11.68 -147.71,-96.12 -31.77,-23.08 -23.62,-26.34 -12.76,-24.17 -15.21,-55.12 -77.12,-264.74 -74.67,-268.55 -33.13,-114.59 -11.68,-21.99 -23.62,-34.21 -5.97,-15.75 -4.62,-17.65 -6.25,-69.78 -6.25,-26.34 -15.21,-61.37 -66.25,-275.88 -121.65,-459.98"
     id="path928" /><path
     style="opacity:1;fill:none;fill-rule:nonzero;stroke:#e94282;stroke-width:5;stroke-linecap:butt;stroke-linejoin:round;stroke-miterlimit:4;stroke-dasharray:none;stroke-opacity:1"
     d="m -1190.41,896.49 171.27,69.89 33.79,19.58 397.06,228.1 22.66,16.9 17.66,23.04 39.17,49.15 16.51,13.06 23.04,11.14 26.88,0.77 21.5,-4.99 93.7,-55.68 30.72,-14.98 23.04,-4.61 25.34,3.84 31.1,14.59 96.39,82.94 20.35,11.52 28.03,3.46 27.26,-2.3 238.85,-61.44 54.14,-19.2 52.99,-21.5 14.98,-11.9 13.82,-18.05 6.14,-14.59 11.14,-58.37 8.83,-24.58 14.59,-23.42 23.04,-23.42 19.58,-13.44 46.08,-19.58 23.42,-3.46 56.45,-6.14 19.2,-4.22 26.5,-12.29 16.51,-7.3 17.66,-0.77 21.12,3.46 67.97,20.35 31.87,19.2 18.43,6.14 16.13,0.77 20.74,-2.69 28.42,-11.52 15.36,-1.92 19.58,1.54 14.21,2.69 76.8,41.09 22.27,7.68 34.93,4.75 25.25,12.49 39.37,27.42 16.02,19.01 7.87,17.92 1.36,16.56 -4.34,22.27 -13.03,29.05 -1.63,23.35 1.63,10.59 8.42,19.55 27.97,37.47 14.66,11.68 18.19,9.78 17.38,3.26 99.38,-8.15 17.11,-6.79 72.5,-43.17 23.62,-8.42 20.64,-1.36 210.44,11.13 27.15,-0.27 162.65,-14.12 21.72,1.63 22.81,9.5 12.76,9.78 125.99,123.28 18.74,10.59 20.91,8.42 18.74,2.99 30.14,-4.62 185.73,-53.22 30.68,-0.81 23.08,2.17 48.06,24.98 10.32,8.15 13.31,15.48 40.46,53.76 17.66,11.57 24.15,7.1 25.4,-0.56 82.67,-6.21 45.18,-2.65 27.73,5.88 16.83,11.18 15.74,14.59 65.66,83.71 31.49,40.7 22.85,32.83 7.1,14.21 3.46,18.24 5.38,62.4 4.61,24.38 6.53,20.74 11.9,25.34 12.1,22.66 18.24,41.86 11.56,55.94 33.34,88.88 8.69,31.09 9.23,19.01 17.65,67.34 9.23,26.07 13.85,24.17 27.15,34.21 15.21,12.49 19.28,8.69 75.49,23.08 19.55,11.95 60.82,47.79 26.34,21.18 21.18,20.36 13.85,24.17 8.96,26.34 13.58,42.63 14.39,23.35 96.67,145 119.47,173.51 12.22,24.17 7.06,19.82 2.44,21.18 2.99,86.08 6.52,58.11 8.96,85.8 7.87,25.25 15.75,32.58 6.52,26.34 0.27,27.15 -33.4,125.18 -48.6,153.69 -18.19,41.82 -11.68,17.92 -73.86,97.48 -101.82,136.31 -26.61,34.21 -26.61,24.44 -24.44,34.21 -27.15,47.52 -12.76,24.44 -5.43,23.35 -18.74,94.76 -10.86,23.62 -95.31,133.05 -36.39,42.63 -19.82,17.92 -36.93,19.82 -106.71,45.07 -44.26,16.02 -23.89,14.39 -20.64,20.09 -31.77,46.43 -45.62,81.73 -23.35,36.39 -14.12,14.39 -54.58,40.46 -14.66,19.01 -10.86,17.38 -10.05,24.17 -6.79,23.62 -4.07,64.9 -14.66,189.53 -10.32,25.25 -40.19,78.74 -13.3,16.02 -43.45,36.11 -29.87,20.09 -24.98,19.55 -28.51,31.5 -130.06,153.69 -16.02,21.18 -11.95,19.55 -8.15,23.62 -11.4,62.18 -6.79,70.87 -66.8,402.68 -64.62,385.58 v 39.1 l 2.72,38.56 7.06,158.03 11.4,46.16 19.55,31.5 27.15,47.25 13.58,47.79 21.18,103.18 18.46,148.26 -2.17,50.51 -10.86,43.99 -15.21,48.33"
     id="path1006" /><path
     style="fill:none;stroke:#000000;stroke-width:5;stroke-linejoin:round;stroke-miterlimit:4;stroke-dasharray:none"
     d="m 792.03,-1256.93 5.67,24.02 0.61,14.6 -1.6,14.67 -35.39,173.4 -0.09,21.5 3.08,16.47 5.05,17.84"
     id="path1490" /></svg>
