<?xml version="1.0" encoding="UTF-8" standalone="no"?>
<svg
   xmlns:dc="http://purl.org/dc/elements/1.1/"
   xmlns:cc="http://creativecommons.org/ns#"
   xmlns:rdf="http://www.w3.org/1999/02/22-rdf-syntax-ns#"
   xmlns:svg="http://www.w3.org/2000/svg"
   xmlns="http://www.w3.org/2000/svg"
   xmlns:xlink="http://www.w3.org/1999/xlink"
   id="svg2"
   version="1.1"
   width="14950"
   height="9100"
   viewBox="-2050 -1200 14950 9100">
  <metadata
     id="metadata8">
    <rdf:RDF>
      <cc:Work
         rdf:about="">
        <dc:format>image/svg+xml</dc:format>
        <dc:type
           rdf:resource="http://purl.org/dc/dcmitype/StillImage" />
        <dc:title></dc:title>
      </cc:Work>
    </rdf:RDF>
  </metadata>
  <defs
     id="defs6" />
  <image
     xlink:href="../basemap/glaosm.png"
     style="display:none"
     width="15162.86"
     height="9287.26"
     preserveAspectRatio="none"
     id="image10"
     x="-2084.89"
     y="-1259.33" />
  <path
     style="fill:none;fill-rule:evenodd;stroke:#f47321;stroke-width:5;stroke-linecap:butt;stroke-linejoin:round;stroke-miterlimit:4;stroke-dasharray:none;stroke-opacity:1"
     d="m 2417,1555.5 1.5,16.5 11,25 16,43.5 20,53.5 13.54,17 15.33,9.77 27.73,7.58 31.9,12.14 29,15.5 24.5,16 41.5,11.5 87,0.5 h 57 l 14.85,3.68 15.54,-0.92 50.53,-26.38 6.79,-6.31 3.09,-6.27 18.2,-60.3 5,-22.5 21.5,-95 -2,-12.5 -8,-18 -16.5,-11.5 -16.58,-5.38 -21.42,-22.94 -157.5,-90.18 -23.5,1 -50,-19 -17.5,-4 -17,-0.5 -17.11,6.74 -13.39,12.76 -32,50.5 -11.5,4 -21.5,3 -35.5,-1 -15.89,10.88 -12.42,14.09 -14.93,22.52 -5.48,15.14 -1.77,14.53 v 15.34"
     id="path4163" />
  <path
     style="fill:none;fill-rule:evenodd;stroke:#24457a;stroke-width:5;stroke-linecap:butt;stroke-linejoin:round;stroke-miterlimit:4;stroke-dasharray:none;stroke-opacity:1"
     d="m 5270.5,1564.5 -131,18.5 -19,-1 -39.5,-12.5 -108,-57.5 -22.5,-5.5 -30.5,5.5 -38,13 -9.5,-1.5 -17,-3.5 -21,-12.5 -22.5,-3.5 -24.5,7 -42,17.5 -43.5,8.5 -122.5,25.5 -20.5,11 -117,66.5 -18.5,7.5 -29,4.5 -127.5,-4 -37,-10.5 -23.5,-5.5 -30,1 -108.5,16 -21.5,8.5 -21,14 -49,44.5 -19,9.5 -34.5,8 -277.5,-9.5 -18,-4.5 -40.5,-10.5 -20,-0.5 -87.5,3.5 -19.5,-2.5 -130,-32 -66,2.5 -72.5,4 -46.5,-12.5 -40.5,-6.5 -26.5,-2.5 -27,-9.5 -15.5,-19.5 -13.5,-17 -13.5,-9.5 -25.5,-7 -198.5,-42 -20,-2 -77,11.5 -22.5,3.5 -21.5,10.5 -29.5,-1 -59.5,-1 -16.5,-5.5 -13.5,-9 -16,-23.5 -16,-24 -28,-24.5 -25.5,-16 -17.5,-37 -7.5,-21.5 -13.5,-27 -1.5,-13.5 2.5,-35 -4,-13.5 -16,-22 -37.5,-16 -14.75,-4.63 L 2319,1276.5 l -10.5,-20 0.5,-18.5 31,-79.5 12.5,-42 -1.5,-24 -6.5,-30.5 -10,-20.5 -26,-25 -48,-32 -22,-25.5 -18,-18 -41.5,-20.5 -32,-8 -37,3 -35,5 -62.5,23 -29.5,-1 -74,-14.5 -45.5,-2.5 -36.5,5 -55.5,17 -30.5,3 -40,-2.5 -24.5,-10 -42.5,-29 -69.5,-29.5 -50,-8.5 -57.5,-25.5 -40,-20 -11,-6.63 L 1233,680 1181.5,620.5 1153,600.5 1114,584 1005.5,556.5 962,544.5 h -40 l -45.5,-9.5 -81.5,6 -33.5,-5 -26,-12.5 -61,-42.5 -29,-8 -34.5,4 -43.5,19 -33,3 -31,-3.5 -106.5,-31 -27,-16 -21,-26.5 -12,-26 -17.5,-63 -14,-18.5 -49,-15.5 H 185 l -31.5,-4 -34,-14.5"
     id="path4165" />
  <text
     xml:space="preserve"
     style="font-style:normal;font-weight:normal;font-size:180px;line-height:125%;font-family:Sans;-inkscape-font-specification:Sans;letter-spacing:0px;word-spacing:0px;fill:#000000;fill-opacity:1;stroke:none;stroke-width:2px;stroke-linecap:butt;stroke-linejoin:round;stroke-opacity:1"
     x="-1960.55"
     y="-993.04"
     id="text4177"><tspan
       id="tspan1"
       x="-1960.55"
       y="-993.04"
       style="font-size:144px">1960</tspan></text>

  <path
     style="fill:none;fill-opacity:0.25;stroke:#24457a;stroke-width:5;stroke-linejoin:round;stroke-opacity:1"
     d="m 11829.5,324.7 47.48,-19.14 88.11,-38.82 26.61,-18.54 114.07,-34.9"
     id="path1" />

  <text
     x="-1960.55"
     y="7797.96"
     id="text3652-1"
     xml:space="preserve"
     style="font-style:normal;font-weight:normal;font-size:144px;font-family:Sans;-inkscape-font-specification:Sans;fill:#000000;fill-opacity:1;stroke:none"><tspan
       x="-1960.55"
       y="7797.96"
       id="tspan2">1960</tspan></text>
</svg>
