<?xml version="1.0" encoding="UTF-8" standalone="no"?>
<svg
   viewBox="-2050 -1200 14950 9100"
   height="9100"
   width="14950"
   version="1.1"
   id="svg2"
   xmlns:xlink="http://www.w3.org/1999/xlink"
   xmlns="http://www.w3.org/2000/svg"
   xmlns:svg="http://www.w3.org/2000/svg"
   xmlns:rdf="http://www.w3.org/1999/02/22-rdf-syntax-ns#"
   xmlns:cc="http://creativecommons.org/ns#"
   xmlns:dc="http://purl.org/dc/elements/1.1/">
  <metadata
     id="metadata8">
    <rdf:RDF>
      <cc:Work
         rdf:about="">
        <dc:format>image/svg+xml</dc:format>
        <dc:type
           rdf:resource="http://purl.org/dc/dcmitype/StillImage" />
      </cc:Work>
    </rdf:RDF>
  </metadata>
  <defs
     id="defs6" />
  <image
     xlink:href="../basemap/glaosm.png"
     style="display:none"
     width="15162.86"
     height="9287.26"
     preserveAspectRatio="none"
     id="image10"
     x="-2084.89"
     y="-1259.33" />
  <path
     id="path4163"
     d="m 2417,1555.5 1.5,16.5 11,25 16,43.5 20,53.5 13.54,17 15.33,9.77 27.73,7.58 31.9,12.14 29,15.5 24.5,16 41.5,11.5 87,0.5 h 57 l 14.85,3.68 15.54,-0.92 50.53,-26.38 6.79,-6.31 3.09,-6.27 18.2,-60.3 5,-22.5 21.5,-95 -2,-12.5 -8,-18 -16.5,-11.5 -16.58,-5.38 -21.42,-22.94 -157.5,-90.18 -23.5,1 -50,-19 -17.5,-4 -17,-0.5 -17.11,6.74 -13.39,12.76 -32,50.5 -11.5,4 -21.5,3 -35.5,-1 -15.89,10.88 -12.42,14.09 -14.93,22.52 -5.48,15.14 -1.77,14.53 v 15.34"
     style="fill:none;fill-rule:evenodd;stroke:#f47321;stroke-width:5;stroke-linecap:butt;stroke-linejoin:round;stroke-miterlimit:4;stroke-dasharray:none;stroke-opacity:1" />
  <path
     id="path4165"
     d="m 5270.5,1564.5 -131,18.5 -19,-1 -39.5,-12.5 -108,-57.5 -22.5,-5.5 -30.5,5.5 -38,13 -9.5,-1.5 -17,-3.5 -21,-12.5 -22.5,-3.5 -24.5,7 -42,17.5 -43.5,8.5 -122.5,25.5 -20.5,11 -117,66.5 -18.5,7.5 -29,4.5 -127.5,-4 -37,-10.5 -23.5,-5.5 -30,1 -108.5,16 -21.5,8.5 -21,14 -49,44.5 -19,9.5 -34.5,8 -277.5,-9.5 -18,-4.5 -40.5,-10.5 -20,-0.5 -87.5,3.5 -19.5,-2.5 -130,-32 -66,2.5 -72.5,4 -46.5,-12.5 -40.5,-6.5 -26.5,-2.5 -27,-9.5 -15.5,-19.5 -13.5,-17 -13.5,-9.5 -25.5,-7 -198.5,-42 -20,-2 -77,11.5 -22.5,3.5 -21.5,10.5 -29.5,-1 -59.5,-1 -16.5,-5.5 -13.5,-9 -16,-23.5 -16,-24 -28,-24.5 -25.5,-16 -17.5,-37 -7.5,-21.5 -13.5,-27 -1.5,-13.5 2.5,-35 -4,-13.5 -16,-22 -37.5,-16 -41.5,-11 -38,-1.5 -32,1.5 -38.5,7.5 -20,-0.5 -58,-21 -336,-135 -26.5,-21.5 -41.5,-34 -19,-23.5 -47.5,-28.5 -34,-27 -30.5,-19 -58.5,-45 -16.5,-29.5 -15,-39.5 -13,-17 -21.5,-10.5 -41,-10 L 1233,680 l -51.5,-59.5 -28.5,-20 -39,-16.5 -108.5,-27.5 -43.5,-12 -40,0 -45.5,-9.5 -81.5,6 -33.5,-5 -26,-12.5 -61,-42.5 -29,-8 -34.5,4 -43.5,19 -33,3 -31,-3.5 -106.5,-31 -27,-16 -21,-26.5 -12,-26 -17.5,-63 -14,-18.5 -49,-15.5 -71.5,0 -31.5,-4 -34,-14.5"
     style="fill:none;fill-rule:evenodd;stroke:#24457a;stroke-width:5;stroke-linecap:butt;stroke-linejoin:round;stroke-miterlimit:4;stroke-dasharray:none;stroke-opacity:1" />
  <path
     id="path4167"
     d="m 2329.5,1288 -10.5,-11.5 -10.5,-20 0.5,-18.5 31,-79.5 12.5,-42 -1.5,-24 -6.5,-30.5 -10,-20.5 -26,-25 -48,-32 -22,-25.5 -18,-18 -41.5,-20.5 -32,-8 -37,3 -35,5 -62.5,23 -29.5,-1 -74,-14.5 -45.5,-2.5 -36.5,5 -55.5,17 -30.5,3 -40,-2.5 -24.5,-10 -42.5,-29 -69.5,-29.5 -50,-8.5 -57.5,-25.5 -40,-20"
     style="fill:none;fill-rule:evenodd;stroke:#24457a;stroke-width:5;stroke-linecap:butt;stroke-linejoin:round;stroke-miterlimit:4;stroke-dasharray:none;stroke-opacity:1" />
  <path
     id="path4171"
     d="m 2500.5,1529.5 24,18 33,11.5 47.5,14.5 52.5,21.5 21.5,23.5 20.5,7 61.5,2.5 18,7 90,13.5 84.5,17.5 43,11 35.5,33 59.25,56.25 70.25,34.25 19,22 46.5,64.5 5.5,19 4.5,50 17,46.5 5,20.5 5.5,37.5 6.5,19 15,10.5 97.5,16 63,14.5 37,15 26,19.5 89.5,86.5 20.5,12.5 33.5,12.5 40.5,11 53.5,8 49.5,-6.5 88.5,-17 69,-1.5 9.87,0.48"
     style="fill:none;fill-rule:evenodd;stroke:#24457a;stroke-width:5;stroke-linecap:butt;stroke-linejoin:round;stroke-miterlimit:4;stroke-dasharray:none;stroke-opacity:1" />
  <text
     id="text4177"
     y="-993.04"
     x="-1960.55"
     style="font-style:normal;font-weight:normal;font-size:180px;line-height:125%;font-family:Sans;-inkscape-font-specification:Sans;letter-spacing:0px;word-spacing:0px;fill:#000000;fill-opacity:1;stroke:none;stroke-width:2px;stroke-linecap:butt;stroke-linejoin:round;stroke-opacity:1"
     xml:space="preserve"><tspan
       style="font-size:144px"
       y="-993.04"
       x="-1960.55"
       id="tspan1">1985</tspan></text>
  <path
     style="fill:none;fill-rule:evenodd;stroke:#24457a;stroke-width:5;stroke-linecap:butt;stroke-linejoin:round;stroke-miterlimit:4;stroke-dasharray:none;stroke-opacity:1"
     d="m 2886.5,1633 -20,116 -6.5,64 -14,29.5 -7.5,30.5 -8,14.5 -23,17.5 -15.5,11.5 -10,24 -2.5,19.5 6,24 6,14 23.5,15 69,17.5 16,14.5 4,24.5 -6,19 -33.5,25.5 -8.5,18.5 -1.5,18"
     id="path4173-3" />
  <path
     style="fill:none;stroke:#24457a;stroke-width:5;stroke-linejoin:round;stroke-opacity:1"
     d="m 11829.5,324.7 47.48,-19.14 88.11,-38.82 26.61,-18.54 114.07,-34.9"
     id="path1" />
  <path
     style="fill:none;stroke:#24457a;stroke-width:5;stroke-linejoin:round;stroke-opacity:1"
     d="m 2587.33,1580.05 17.61,6.83 57.51,21.18 16.56,10.44"
     id="path3" />
  <text
     x="-1960.55"
     y="7797.96"
     id="text3652-1"
     xml:space="preserve"
     style="font-style:normal;font-weight:normal;font-size:144px;font-family:Sans;-inkscape-font-specification:Sans;fill:#000000;fill-opacity:1;stroke:none"><tspan
       x="-1960.55"
       y="7797.96"
       id="tspan2">1985</tspan></text>
  <path
     style="fill:none;stroke:#24457a;stroke-width:5;stroke-linejoin:round;stroke-dasharray:none;stroke-opacity:1"
     d="m 2866.5,1749 -8.79,19.83 -10.98,11.15 -65.26,25.36 -34.87,8.96 -37.71,6.34 -84.39,-1.53 -29.95,-3.28 -320.28,-56.4 -410.78,-73.24 -18.58,-1.53 -35.85,-1.09 -35.42,2.4 -29.08,4.81 -46.57,8.53 -39.35,13.77 -36.29,16.18 -35.2,23.39 -57.5,45.47 -32.14,18.36 -20.55,5.68 -16.83,1.31 -20.99,0.44"
     id="path5" />
  <path
     style="fill:none;stroke:#24457a;stroke-width:5;stroke-linejoin:round;stroke-dasharray:none;stroke-opacity:1"
     d="m 1439.16,1823.93 -33.23,-7.65 -59.03,-29.29 -55.53,-37.6 -37.38,-30.17 -31.7,-31.04 -47.66,-57.06 -195.23,-330.55 -177.52,-300.38 -112.37,-192.82 -22.52,-33.67 -15.74,-16.61 -17.27,-16.18 -26.45,-17.27 -28.64,-12.68 -33.67,-10.28 -39.79,-5.25 -29.08,1.31 -42.85,0.22 -32.57,-2.62 -117.18,-31.92 -27.76,-2.84 -29.29,2.19 -35.63,4.15 -33.89,0.22 -41.1,-6.12 -28.86,-9.18 -26.67,-10.93 -47.44,-23.17 -83.07,-20.55 -46.13,-16.61 -60.12,-25.36 -28.64,-6.12 -31.92,-4.59 -118.71,-2.4 -26.67,3.28 -43.29,8.74 -25.14,1.09 -33.01,-2.19 -24.49,-5.25 -50.5,-17.05 -28.64,-5.68 -61.21,-1.31 -27.33,-3.94 -50.06,-14.21 -19.46,-1.97 -83.07,1.31 -7.65,-0.87 -11.15,-4.59 -29.08,-14.21 -63.84,-16.4 -94.88,-25.36 -40.01,-11.81 -38.7,-16.83 -105.37,-55.09 -19.02,-4.37 -16.83,-0.66 -15.08,3.06 -16.61,5.25 -12.02,1.09 -26.45,-5.47 -19.02,-8.09 -12.9,-10.06 -24.49,-25.36 -16.18,-10.06 -22.52,-8.09 -16.4,-2.84 -19.46,1.97 -26.45,4.15 -12.9,-2.4 -10.93,-3.5 -13.12,-10.93 -132.05,-135.76 -17.93,-15.52 -18.36,-12.24 -23.61,-8.31 -15.3,-4.59 -14.21,-0.44 -9.62,1.31 -10.06,3.94 -11.81,6.34 -11.59,13.12 -16.18,17.93 -11.15,6.34 -12.02,5.03 -15.52,2.4 -18.36,-1.09 -15.52,-6.78 -18.8,-16.18 -23.83,-24.27 -5.47,-12.02 -3.28,-13.12 -1.09,-17.49 -4.15,-10.49"
     id="path6" />
</svg>
