<?xml version="1.0" encoding="UTF-8" standalone="no"?>
<svg
   viewBox="-2050 -1200 14950 9100"
   height="9100"
   width="14950"
   version="1.1"
   id="svg2"
   xmlns:xlink="http://www.w3.org/1999/xlink"
   xmlns="http://www.w3.org/2000/svg"
   xmlns:svg="http://www.w3.org/2000/svg"
   xmlns:rdf="http://www.w3.org/1999/02/22-rdf-syntax-ns#"
   xmlns:cc="http://creativecommons.org/ns#"
   xmlns:dc="http://purl.org/dc/elements/1.1/">
  <metadata
     id="metadata8">
    <rdf:RDF>
      <cc:Work
         rdf:about="">
        <dc:format>image/svg+xml</dc:format>
        <dc:type
           rdf:resource="http://purl.org/dc/dcmitype/StillImage" />
      </cc:Work>
    </rdf:RDF>
  </metadata>
  <defs
     id="defs6" />
  <image
     xlink:href="../basemap/glaosm.png"
     style="display:none"
     width="15162.86"
     height="9287.26"
     preserveAspectRatio="none"
     id="image10"
     x="-2084.89"
     y="-1259.33" />
  <path
     id="path4163"
     d="m 2417,1555.5 1.5,16.5 11,25 16,43.5 20,53.5 13.54,17 15.33,9.77 27.73,7.58 31.9,12.14 29,15.5 24.5,16 41.5,11.5 87,0.5 h 57 l 14.85,3.68 15.54,-0.92 50.53,-26.38 6.79,-6.31 3.09,-6.27 18.2,-60.3 5,-22.5 21.5,-95 -2,-12.5 -8,-18 -16.5,-11.5 -16.58,-5.38 -21.42,-22.94 -157.5,-90.18 -23.5,1 -50,-19 -17.5,-4 -17,-0.5 -17.11,6.74 -13.39,12.76 -32,50.5 -11.5,4 -21.5,3 -35.5,-1 -15.89,10.88 -12.42,14.09 -14.93,22.52 -5.48,15.14 -1.77,14.53 v 15.34"
     style="fill:none;fill-rule:evenodd;stroke:#f47321;stroke-width:5;stroke-linecap:butt;stroke-linejoin:round;stroke-miterlimit:4;stroke-dasharray:none;stroke-opacity:1" />
  <path
     id="path4165"
     d="m 5270.5,1564.5 -131,18.5 -19,-1 -39.5,-12.5 -108,-57.5 -22.5,-5.5 -30.5,5.5 -38,13 -9.5,-1.5 -17,-3.5 -21,-12.5 -22.5,-3.5 -24.5,7 -42,17.5 -43.5,8.5 -122.5,25.5 -20.5,11 -117,66.5 -18.5,7.5 -29,4.5 -127.5,-4 -37,-10.5 -23.5,-5.5 -30,1 -108.5,16 -21.5,8.5 -21,14 -49,44.5 -19,9.5 -34.5,8 -277.5,-9.5 -18,-4.5 -40.5,-10.5 -20,-0.5 -87.5,3.5 -19.5,-2.5 -130,-32 -66,2.5 -72.5,4 -46.5,-12.5 -40.5,-6.5 -26.5,-2.5 -27,-9.5 -15.5,-19.5 -13.5,-17 -13.5,-9.5 -25.5,-7 -198.5,-42 -20,-2 -77,11.5 -22.5,3.5 -21.5,10.5 -29.5,-1 -59.5,-1 -16.5,-5.5 -13.5,-9 -16,-23.5 -16,-24 -28,-24.5 -25.5,-16 -17.5,-37 -7.5,-21.5 -13.5,-27 -1.5,-13.5 2.5,-35 -4,-13.5 -16,-22 -37.5,-16 -41.5,-11 -38,-1.5 -32,1.5 -38.5,7.5 -20,-0.5 -58,-21 -336,-135 -26.5,-21.5 -41.5,-34 -19,-23.5 -47.5,-28.5 -34,-27 -30.5,-19 -58.5,-45 -16.5,-29.5 -15,-39.5 -13,-17 -21.5,-10.5 -41,-10 L 1233,680 l -51.5,-59.5 -28.5,-20 -39,-16.5 -108.5,-27.5 -43.5,-12 -40,0 -45.5,-9.5 -81.5,6 -33.5,-5 -26,-12.5 -61,-42.5 -29,-8 -34.5,4 -43.5,19 -33,3 -31,-3.5 -106.5,-31 -27,-16 -21,-26.5 -12,-26 -17.5,-63 -14,-18.5 -49,-15.5 -71.5,0 -31.5,-4 -34,-14.5"
     style="fill:none;fill-rule:evenodd;stroke:#24457a;stroke-width:5;stroke-linecap:butt;stroke-linejoin:round;stroke-miterlimit:4;stroke-dasharray:none;stroke-opacity:1" />
  <path
     id="path4167"
     d="m 2329.5,1288 -10.5,-11.5 -10.5,-20 0.5,-18.5 31,-79.5 12.5,-42 -1.5,-24 -6.5,-30.5 -10,-20.5 -26,-25 -48,-32 -22,-25.5 -18,-18 -41.5,-20.5 -32,-8 -37,3 -35,5 -62.5,23 -29.5,-1 -74,-14.5 -45.5,-2.5 -36.5,5 -55.5,17 -30.5,3 -40,-2.5 -24.5,-10 -42.5,-29 -69.5,-29.5 -50,-8.5 -57.5,-25.5 -40,-20"
     style="fill:none;fill-rule:evenodd;stroke:#24457a;stroke-width:5;stroke-linecap:butt;stroke-linejoin:round;stroke-miterlimit:4;stroke-dasharray:none;stroke-opacity:1" />
  <path
     id="path4171"
     d="m 2500.5,1529.5 24,18 33,11.5 47.5,14.5 52.5,21.5 21.5,23.5 20.5,7 61.5,2.5 18,7 90,13.5 84.5,17.5 43,11 35.5,33 59.25,56.25 70.25,34.25 19,22 46.5,64.5 5.5,19 4.5,50 17,46.5 5,20.5 5.5,37.5 6.5,19 15,10.5 97.5,16 63,14.5 37,15 26,19.5 89.5,86.5 20.5,12.5 33.5,12.5 40.5,11 53.5,8 49.5,-6.5 88.5,-17 69,-1.5 51,2.5 45,13 87.5,40 27.5,22.5 26,26 27,48.5 13.5,33 23,38.5 36.5,46 37,36 80.5,66.5 27.5,28 58.5,87.5 45,48 41.5,28.5 36,27 20,24.5 20.5,42 14,16 48.5,30 20,6 41.5,-9.5"
     style="fill:none;fill-rule:evenodd;stroke:#24457a;stroke-width:5;stroke-linecap:butt;stroke-linejoin:round;stroke-miterlimit:4;stroke-dasharray:none;stroke-opacity:1" />
  <text
     id="text4177"
     y="-993.04"
     x="-1960.55"
     style="font-style:normal;font-weight:normal;font-size:180px;line-height:125%;font-family:Sans;-inkscape-font-specification:Sans;letter-spacing:0px;word-spacing:0px;fill:#000000;fill-opacity:1;stroke:none;stroke-width:2px;stroke-linecap:butt;stroke-linejoin:round;stroke-opacity:1"
     xml:space="preserve"><tspan
       style="font-size:144px"
       y="-993.04"
       x="-1960.55"
       id="tspan1">2020</tspan></text>
  <path
     style="fill:none;stroke:#24457a;stroke-width:5;stroke-linejoin:round;stroke-opacity:1"
     d="m 12105.78,213.3 -114.07,34.9 -26.61,18.54 -88.11,38.82 -227.26,91.6 -271.97,106.65 -18.75,7.34"
     id="path1" />
  <path
     id="path4487"
     d="m 10625.79,280.55 31.44,70.99 3.93,11.79 6.55,30.65 3.14,4.71 2.36,0.78 4.45,-0.26 23.32,-8.91 146.43,1.04 3.93,3.14 4.45,14.67 -1.31,12.05 3.93,7.86 4.71,2.36 9.16,-3.14 19.12,-10.22 4.19,-0.52"
     style="fill:none;fill-rule:evenodd;stroke:#880c04;stroke-width:1;stroke-linecap:butt;stroke-linejoin:round;stroke-dasharray:none;stroke-opacity:1" />
  <path
     id="path4489"
     d="m 11004.19,472.44 1.71,11.65 36.41,104.53 6.29,7.33 4.97,2.88 6.29,1.57 7.86,-2.36 107.14,-22.79 73.61,-16.25 98.24,-39.03 15.97,-3.93 53.96,-16.25 12.84,-4.97 4.19,-4.19 6.81,-19.65 8.9,-4.19 23.06,-5.77 161.1,-62.61 42.44,-17.55 13.36,-14.93 17.03,-12.58 20.96,-0.26 15.98,-6.81 18.86,-0.26 60.12,-22.13 1.97,-2.23"
     style="fill:none;fill-rule:evenodd;stroke:#880c04;stroke-width:5;stroke-linecap:butt;stroke-linejoin:round;stroke-miterlimit:4;stroke-dasharray:none;stroke-opacity:1" />
  <path
     style="fill:none;fill-rule:evenodd;stroke:#880c04;stroke-width:1;stroke-linecap:butt;stroke-linejoin:round;stroke-miterlimit:4;stroke-dasharray:none;stroke-opacity:1"
     d="m 10895.61,417.56 39.29,-12.84 12.57,-10.48 20.17,-3.93 4.71,3.14 1.31,6.03 3.41,6.29 v 10.48 l 2.62,3.67 16.45,15.25 5.04,10.25 3,27.03"
     id="path4491" />
  <path
     id="path4495-6"
     d="m 11824.28,321.67 1.57,-4.32 11,-7.73 17.94,-0.26 6.42,-2.88 76.24,-63.27 9.96,-1.44 135.3,-41.92 1.31,-3.41 -4.84,-12.18 -7.6,-25.28 0.65,-3.01 2.1,-2.23 38.25,-11.65"
     style="fill:none;fill-rule:evenodd;stroke:#880c04;stroke-width:1;stroke-linecap:butt;stroke-linejoin:round;stroke-miterlimit:4;stroke-dasharray:none;stroke-opacity:1" />
  <path
     style="fill:none;stroke:#24457a;stroke-width:5;stroke-linejoin:round;stroke-dasharray:none;stroke-opacity:1"
     d="m 11359.01,511.16 -27.72,2.09 -23.13,-3.08 -312.45,-116.59 -28.99,-12.95 -46.58,-24.68 -52.13,-38.86 -36.09,-33.31 -30.54,-37.01 -282.53,-370.44 -14.19,-31.46 -23.44,-84.82 -38.86,-77.42 -9.25,-27.76 -95,-355.02 -12.03,-27.45 -15.73,-24.37 -16.96,-17.27 -28.99,-27.14 -13.57,-19.43 -8.33,-20.97 -3.7,-24.06 1.23,-20.97 3.7,-19.74 12.03,-25.29 15.73,-18.82 30.84,-31.77 12.34,-19.74 7.4,-23.13 3.39,-20.36 -0.31,-16.35 -1.85,-18.82"
     id="path2" />

  <path
     style="fill:none;stroke:#24457a;stroke-width:5;stroke-linejoin:round;stroke-opacity:1"
     d="m 2587.33,1580.05 17.61,6.83 57.51,21.18 16.56,10.44"
     id="path3" />

  <text
     x="-1960.55"
     y="7797.96"
     id="text3652-1"
     xml:space="preserve"
     style="font-style:normal;font-weight:normal;font-size:144px;font-family:Sans;-inkscape-font-specification:Sans;fill:#000000;fill-opacity:1;stroke:none"><tspan
       x="-1960.55"
       y="7797.96"
       id="tspan2">2020</tspan></text>
</svg>
