<?xml version="1.0" encoding="UTF-8" standalone="no"?>
<!-- Created with Inkscape (http://www.inkscape.org/) -->

<svg
   version="1.1"
   id="svg1"
   width="3250"
   height="5750"
   viewBox="0 0 3250 5750"
   xml:space="preserve"
   xmlns:xlink="http://www.w3.org/1999/xlink"
   xmlns="http://www.w3.org/2000/svg"
   xmlns:svg="http://www.w3.org/2000/svg"><defs
     id="defs1" />
     <image
       width="4373"
       height="6340.85"
       preserveAspectRatio="none"
       xlink:href="../basemap/luxosm.png"
       id="image1"
       x="-300"
       y="-168.65"
       style="display:none" /><path
       style="fill:none;stroke:#303695;stroke-width:5;stroke-linejoin:round;stroke-opacity:1"
       d="m 3020.95,3932.71 -23.03,62.39 -1.88,19.89 2.51,40.83 5.03,15.08 24.92,58 0.84,17.59 -1.47,15.91 -31.2,70.98 -31.62,69.51 -3.98,19.89 2.93,25.96 8.17,20.31 12.98,17.59 18.84,14.45 18.63,6.91 54.44,7.33 24.08,9.63 19.47,17.59 13.4,21.78 4.4,18.22 0.42,21.78 -2.3,15.7 -34.97,121.44 -9.84,23.45 -56.53,92.55 -35.18,82.29 -19.05,27.22 -57.37,68.47 -33.29,40.2 -16.75,15.49 -55.49,40.83 -28.89,11.73 -37.27,11.93 -15.08,11.1 -11.1,15.28 -17.17,37.48 -7.75,37.06 -7.75,45.64 -2.93,15.49 -11.93,30.36 -11.52,8.58 -13.82,2.72 -15.49,-2.72 -12.98,-6.91 -23.24,-16.12 -13.61,-4.19 -16.12,-2.3 -18.84,1.88 -113.27,17.17 -151.59,53.18 -13.19,6.7 -37.27,24.92 -14.87,5.03 -45.02,7.54 -20.94,-0.63 -169.18,-42.71 -13.19,-0.21 -11.52,1.47 -15.91,5.23 -74.33,36.01 -148.24,39.57 -84.59,53.81 -17.38,17.17 -54.44,73.07 -54.23,61.35 -20.94,20.73 -11.31,5.86 -15.28,2.3 -16.12,-4.61 -9.84,-6.49 -8.79,-12.98 -14.45,-23.24 -14.03,-11.73 -13.4,-5.65 -24.92,-3.35 -57.79,-3.14 -12.35,-4.82 -38.94,-20.1 -74.12,-24.29 -16.75,-11.93 -36.22,-24.5 -18.43,-7.33 -31.83,-9.84 h -108.88 l -16.54,-2.72 -11.93,-6.7 -12.77,-10.05 -10.89,-18.01 -2.3,-15.49 2.72,-19.05 3.35,-17.17 6.07,-15.91 15.08,-14.87 26.38,-22.19 6.91,-15.28 1.68,-16.75 -5.65,-15.49 -10.68,-11.73 -12.14,-6.28 -9.84,-2.72 -72.86,0.63 -23.24,3.56 -55.28,4.19 -17.8,6.49 -14.03,14.03 -7.12,13.61 -12.14,35.59 -9.21,11.1 -13.19,10.05 -15.49,5.86 -27.22,6.7 -15.49,-0.42 -13.82,-4.61 -41.25,-32.45 -12.56,-19.26 -16.75,-43.13 -0.42,-12.35 3.56,-15.7 9.84,-22.61 23.45,-83.33 0.84,-15.08 -2.51,-15.7 -2.93,-23.66 1.88,-18.43 7.12,-54.23 6.49,-29.52 0.63,-27.64 3.35,-13.4 27.43,-47.95 3.35,-15.7 -0.42,-15.08 -2.72,-12.56 -8.58,-12.35 -9.63,-10.47 -15.91,-16.75 -6.49,-15.08 -1.88,-15.49 0.63,-21.57 3.77,-12.98 5.86,-20.94 1.26,-16.96 -2.72,-22.61 -4.82,-12.77 -12.56,-14.03 -12.56,-7.96 -13.82,-4.61 -13.82,-0.21 -112.23,25.75 -46.69,10.47 -108.04,-6.07 -9.63,0.21 -24.5,5.23 -138.82,31.41"
       id="path2" /><text
       x="89.45"
       y="206.96"
       id="text3019"
       xml:space="preserve"
       style="font-style:normal;font-weight:normal;font-size:144px;line-height:125%;font-family:Sans;-inkscape-font-specification:Sans;letter-spacing:0px;word-spacing:0px;fill:#000000;fill-opacity:1;stroke:none"><tspan
         x="89.45"
         y="206.96"
         id="tspan1">2015</tspan></text><text
       style="font-style:normal;font-weight:normal;font-size:144px;line-height:125%;font-family:Sans;-inkscape-font-specification:Sans;letter-spacing:0px;word-spacing:0px;fill:#000000;fill-opacity:1;stroke:none"
       xml:space="preserve"
       id="text3019-6"
       y="5647.96"
       x="89.45"><tspan
         id="tspan2"
         y="5647.96"
         x="89.45">2015</tspan></text></svg>
