<?xml version="1.0" encoding="UTF-8" standalone="no"?>
<svg
   version="1.1"
   width="4500"
   height="4300"
   viewBox="0 -1350 4500 4300"
   id="svg2"
   xmlns:xlink="http://www.w3.org/1999/xlink"
   xmlns="http://www.w3.org/2000/svg"
   xmlns:svg="http://www.w3.org/2000/svg"
   xmlns:rdf="http://www.w3.org/1999/02/22-rdf-syntax-ns#"
   xmlns:cc="http://creativecommons.org/ns#"
   xmlns:dc="http://purl.org/dc/elements/1.1/">
  <metadata
     id="metadata8">
    <rdf:RDF>
      <cc:Work
         rdf:about="">
        <dc:format>image/svg+xml</dc:format>
        <dc:type
           rdf:resource="http://purl.org/dc/dcmitype/StillImage" />
      </cc:Work>
    </rdf:RDF>
  </metadata>
  <defs
     id="defs6" />
  <image
     xlink:href="../basemap/ccsosm.png"
     id="image10"
     height="4313.4"
     width="4645.2"
     y="-1433.4"
     x="-150"
     style="display:none" />
  <path
     d="m 916.6,1242.3 11.5,-31 2.5,-26 1,-33.5 -12,-22 -9.5,-13 -10.52,-30.03 -0.82,-26.02 7.35,-25.82 27.67,-23.58 36.32,-12.54 41.5,-21 33,-25.5 20,-21 23.5,-36 16,-15 27,-17 37,-20 62.23,-50.25 176.27,-82.75 63.61,-27.68 37.27,-29.89 36.62,-32.42 54.37,-46.81 8.62,-29.36 7.01,-10.43 40.18,-33.17 28.95,-10.4 29,-11.03 37.6,-29.99 41.27,-14.72 73.22,-29.67 29.28,-21.4 29.5,-20.5 25.5,-19 28.5,-21 8,-13 7,-37.5"
     id="path3776"
     style="fill:none;stroke:#a2ce3b;stroke-width:5;stroke-linecap:butt;stroke-linejoin:round;stroke-miterlimit:4;stroke-dasharray:none;stroke-opacity:1" />
  <path
     d="m 1424.77,298.27 61.33,4.03 29,-2.02 17.23,-7.71 9.92,-10.17 5.35,-16.11 9.5,-41.5 13.5,-62 5,-19 6.35,-32.61 10.91,-11.96 17.58,-2.34 19.41,6.33 49.75,27.08 52.21,21.64 51.79,11.36 33,3 34,3 23,13 30.5,18.5 17,27 13.5,33 10.5,10.5 23.5,12 45,14.5 224.31,48.05 43.23,9.46 23.16,1.18 23.33,-13.23 18.07,-2.04 61.41,13.04 12.93,11.09 9,14.65 8.49,9.6 89.56,37.65 62.85,14.12 108.64,56.01 18.67,6.35 55.86,9.07 25.25,-2.25 68.25,-16.75 h 32.5 l 33,-6 37,-11.5 38.5,-23.5 41.5,-14.5 89,-23.37 31.21,-4.01 26.3,2.13 107.38,48.78 16.11,10.97 87,83.5 29,23 40,27.5 35.5,46 20,32.5 25.5,12.5 141,1 45.57,6.27 66.01,-11.72"
     id="path3778"
     style="fill:none;stroke:#ef1b27;stroke-width:5;stroke-linecap:butt;stroke-linejoin:round;stroke-miterlimit:4;stroke-dasharray:none;stroke-opacity:1" />
  <path
     d="m 2537.69,435.92 -1.41,26.16 -6.01,25.1 -14.5,16.26 -30.05,27.93 -43.49,24.4 -67.53,42.78 -42.07,33.94 -27.22,10.96 -24.75,6.72 -8.49,7.78 -9.9,15.2 -6.36,23.69 -3.03,53.96 -1.98,32.38 -6.58,33.23 -8.35,10.33 -26.02,13.29 -13.44,15.91 -14.14,26.16 -19.8,23.33 -10.61,9.55 -30.41,21.57 -32.74,18.46 -30.2,14.78 -67.53,66.47 -8.49,30.41 -32.53,50.2 -21.92,44.9 -33.94,56.57 -8.84,45.96 -33.61,82.67 -9.33,24.55 -21.84,19.34 -21.84,6.42 -37.8,-3.83 -22.67,-11.07 -17.22,-11.09"
     id="path3780"
     style="fill:none;stroke:#145e8f;stroke-width:5;stroke-linecap:butt;stroke-linejoin:round;stroke-miterlimit:4;stroke-dasharray:none;stroke-opacity:1" />
  <path
     d="m 916.6,1240.3 1,42 7,24.5 19.5,18 50,32 18.5,13 47,2.5 31,-1.5 14.5,-2.5 24.5,9.5 19.5,15.5 42,12"
     id="path3782"
     style="fill:none;stroke:#a2ce3b;stroke-width:5;stroke-linecap:butt;stroke-linejoin:round;stroke-miterlimit:4;stroke-dasharray:none;stroke-opacity:1" />
  <path
     d="m 2248.5,410.75 -1.68,87.48 -56.14,15.84 -51.04,-6.89 -11.62,-49.83"
     id="path3788"
     style="fill:none;stroke:#b2b3b6;stroke-width:5;stroke-linecap:butt;stroke-linejoin:round;stroke-miterlimit:4;stroke-dasharray:none;stroke-opacity:1" />
  <text
     x="89.45"
     y="-1143.04"
     id="text3790"
     xml:space="preserve"
     style="font-style:normal;font-weight:normal;font-size:144px;line-height:125%;font-family:Sans;-inkscape-font-specification:Sans;letter-spacing:0px;word-spacing:0px;fill:#000000;fill-opacity:1;stroke:none"><tspan
       x="89.45"
       y="-1143.04"
       id="tspan1">2020</tspan></text>
  <path
     d="m 3688.94,703.45 10e-5,-21.49 7.16,-5.51 7.71,-3.31 12.67,-14.33 7.71,-21.49 0.43,-18.74 6.85,-33.21 3.28,-20.81"
     id="path4865"
     style="fill:none;stroke:#885828;stroke-width:5;stroke-linecap:butt;stroke-linejoin:round;stroke-miterlimit:4;stroke-dasharray:none;stroke-opacity:1" />
  <path
     style="fill:none;fill-rule:evenodd;stroke:#2ca7de;stroke-width:5;stroke-linecap:butt;stroke-linejoin:round;stroke-miterlimit:4;stroke-dasharray:none;stroke-opacity:1"
     d="m 574.51,1511.17 -5.55,12 2.4,11.24 20.31,31.42 19.36,36.5 5.71,31.74 5.4,41.9 -2.22,38.72 -6.03,25.71 -9.52,11.74 -33.01,34.6 -5.4,12.38 -35.55,78.4 -19.36,18.09 -56.82,114.9 -33.96,47.3 -64.75,110.46 -3.81,36.5 5.08,38.72 8.25,34.28 -1.27,37.46 -13.01,76.5 1.59,19.05 8.49,25.37 -0.62,12.24 -11.88,17.53 -60.52,65.72 -20.94,26.29 -28.81,46.3 -25.7,16.35 -44.76,18.73 -21.27,11.74 -15.24,14.28 -8.57,21.58 -5.08,59.67 3.49,15.87 10.79,19.36 19.05,19.68 12.7,6.98 12.06,0.95 15.24,2.22"
     id="path4156" />
  <path
     style="fill:none;stroke:#b2b3b6;stroke-width:5;stroke-linejoin:round;stroke-opacity:1"
     d="m 3807.82,705.75 575.86,333.37"
     id="path1" />
  <path
     style="fill:none;stroke:#b2b3b6;stroke-width:5;stroke-linejoin:round"
     d="m 2476.03,179.51 97.27,-440.68"
     id="path2" />
</svg>
