<?xml version="1.0" encoding="UTF-8" standalone="no"?>
<!-- Created with Inkscape (http://www.inkscape.org/) -->

<svg
   version="1.1"
   id="svg1"
   width="1050"
   height="2550"
   viewBox="0 0 1050 2550"
   xml:space="preserve"
   xmlns:xlink="http://www.w3.org/1999/xlink"
   xmlns="http://www.w3.org/2000/svg"
   xmlns:svg="http://www.w3.org/2000/svg"><defs
     id="defs1" /><image
     width="1235"
     height="2778.75"
     preserveAspectRatio="none"
     xlink:href="../basemap/dacosm.png"
     id="image1"
     x="-25"
     y="0"
     style="display:none" /><path
     style="fill:none;stroke:#006747;stroke-width:5;stroke-linejoin:round;stroke-opacity:1"
     d="m 200.64,245.85 -6,37.31 -16.43,26.65 -40.64,286.04 1.33,63.29 2.22,10.22 8.44,25.76 1.78,11.99 -7.77,39.31 3.33,124.15 5.33,22.43 2.22,79.73 3.11,13.77 59.3,231.63 105.49,266.28 33.53,86.61 9.11,35.31 9.55,39.98 34.42,125.7 3.55,19.99 7.77,54.41 2.44,42.86 -7.33,30.43 2,11.55 4.44,8.66 6.44,5.55 12.88,3.33 52.19,-2.67 11.55,4.44 9.11,8.66 5.55,13.77 75.06,215.64 4.44,19.1 1.78,17.99 -1.55,26.43 -4.89,45.53 -1.33,27.98 1.55,18.21 6.88,13.1 51.75,56.41 7.33,5.77 7.33,2.22 34.87,-0.67 9.99,-4.66 6.44,-6 9.11,-11.33 8.66,-4.44 9.11,-1.33 h 33.31 l 17.32,-2.44 64.63,-2.44 11.55,2.67 59.74,38.64"
     id="path1" /><text
     x="89.45"
     y="206.96"
     id="text3019"
     xml:space="preserve"
     style="font-style:normal;font-weight:normal;font-size:144px;line-height:125%;font-family:Sans;-inkscape-font-specification:Sans;letter-spacing:0px;word-spacing:0px;fill:#000000;fill-opacity:1;stroke:none"><tspan
       x="89.45"
       y="206.96"
       id="tspan1">2025</tspan></text></svg>
