<?xml version="1.0" encoding="UTF-8" standalone="no"?>
<svg
   viewBox="0 0 8850 12300"
   height="12300"
   width="8850"
   id="svg2"
   version="1.1"
   xmlns:xlink="http://www.w3.org/1999/xlink"
   xmlns="http://www.w3.org/2000/svg"
   xmlns:svg="http://www.w3.org/2000/svg"
   xmlns:rdf="http://www.w3.org/1999/02/22-rdf-syntax-ns#"
   xmlns:cc="http://creativecommons.org/ns#"
   xmlns:dc="http://purl.org/dc/elements/1.1/">
  <metadata
     id="metadata8">
    <rdf:RDF>
      <cc:Work
         rdf:about="">
        <dc:format>image/svg+xml</dc:format>
        <dc:type
           rdf:resource="http://purl.org/dc/dcmitype/StillImage" />
      </cc:Work>
    </rdf:RDF>
  </metadata>
  <defs
     id="defs6" />
  <path
     style="fill:#f4f4ff;fill-opacity:1;fill-rule:evenodd;stroke:none;stroke-width:2px;stroke-linecap:butt;stroke-linejoin:round;stroke-opacity:1"
     d="M 9080,-180 V 12420 H -120 V -180 Z"
     id="path4631" />
  <path
     style="opacity:1;fill:#ffffff;fill-opacity:1;fill-rule:nonzero;stroke:none;stroke-width:2;stroke-linecap:butt;stroke-linejoin:round;stroke-miterlimit:4;stroke-dasharray:none;stroke-opacity:1"
     d="m 1082.25,-86.5 1.25,14 -1.75,3 0.75,11.75 -6.25,3 0.5,11 -3.25,10.25 v 10.25 l 10.25,13.5 1.5,16.75 6.25,11.25 -0.75,10 1.5,3 V 41 l -7.75,8.75 -1.25,6.25 -6.5,3.75 V 66 l 8.75,14.75 3.25,15.5 10.25,14 6,4.75 0.75,9.25 4.75,7.5 h 3 l 2.25,5.5 7,0.75 5,5.75 1,6.75 -7,5.75 0.25,9.25 6.5,14.25 6.25,-0.75 2.75,5.25 -7,4.5 7.5,25.75 6.5,21.25 1.25,7.5 7.5,9.5 7,13 -0.75,12.25 9.25,11.75 -2.75,8 -8,2 -0.5,5 4.25,3.75 1.75,10.25 h -3.25 l -1.5,8.25 3.25,1.75 -4,23.75 h 3 l 1.25,-4.75 5,-3 6.25,18.25 -1.25,13.75 -11.5,8 -5.25,9.5 2.5,11.5 15,11.75 v 12.75 l -3.75,4.25 2.25,7.5 5.75,8.5 13.5,10.75 6.5,4.25 5.5,9.5 v 5.5 l 4.75,3 7.25,-1 3.5,-5.25 -1,-15.5 -5.75,-10 -1.75,-12.5 4.75,-12.5 4.75,-5.75 4.78,-14.69 19.09,-15.91 3.89,-3.54 h 8.13 l 15.2,-8.84 8.84,3.18 12.37,-4.95 14.14,-13.44 -5.66,-9.55 -12.73,-8.13 v -15.56 l -7.42,-4.95 -11.67,-5.3 -4.24,-13.44 -7.78,-3.18 1.41,-13.44 -3.54,-2.47 -12.02,-4.6 -1.77,-4.24 -6.72,1.77 -8.84,-3.18 v -16.62 l -4.95,-14.5 -15.56,-8.84 -7.07,-8.13 -7.78,-3.54 -8.13,9.55 -14.5,-2.83 3.54,-27.58 -7.78,-7.42 -10.25,-16.97 1.77,-4.24 -2.12,-25.46 -7.78,-14.14 -5.3,-2.83 -22.27,-25.46 -8.84,-27.93 -6.01,-11.31 4.6,-9.55 9.55,-15.91 v -9.55 l -13.44,-63.99 -8.13,-6.72 -2.83,-11.31 4.24,-9.55 v -13.08 l -3.18,-14.85 124.1,3.18 1.77,3.54 11.67,12.02 1.41,20.51 h 4.24 l 5.3,6.72 h 8.13 l 6.01,4.95 15.2,2.83 10.61,4.6 16.97,-1.41 20.51,-10.61 15.2,1.06 14.14,6.36 12.37,-1.41 8.84,5.3 7.78,-1.41 1.06,7.07 7.07,2.83 9.19,9.9 -0.71,10.25 14.5,-5.66 -14.14,-11.31 1.41,-2.12 4.6,3.89 2.12,-16.26 -13.79,-10.96 -9.19,-0.35 -1.06,-7.07 -41.72,-15.91 -20.51,7.07 -16.62,2.12 -14.85,8.49 -21.21,-9.55 -12.02,-9.55 -6.01,-2.12 -4.24,-15.2 2362.8,-4.6 -3.95,11.77 c 0,0 -8.5,12 -8.25,13.5 0.25,1.5 -7.5,4.75 -7.5,4.75 h -5.5 l -1.75,-3.75 -15,11.75 4.25,4 -18,18.25 -17,14.5 -15,8.25 -9.25,5.75 -9.5,19.25 -13,7.75 -6.5,-2.25 -9.75,11 -13,7.75 L 3444,43 l -10,3.25 -9.5,1 -11.25,9.75 -27.5,12.5 -16.25,11 -21.25,17.25 0.25,6.25 -7.75,1.25 -8,-7 -7.25,-2.5 -4.25,1.25 -6,7.5 -9.5,3.25 -6.75,-2.5 2.5,-3.75 -5.75,-5 h -8 l -5.25,2.75 -10.5,-3.5 -7.25,-4.75 -5.75,0.5 -4,-6 3.5,-6 -1.25,-6.5 -5.5,-9.25 -22,-11.25 -28.25,-8.5 -20,3.5 -18.75,6.75 -19,14.75 -20,21.25 -15.25,21 -5.5,1.25 -6.75,13.25 -12.25,6 -10.5,10 -8.75,-3.25 -25.5,24.5 -4.25,8.75 -18.25,27.5 -13,1.25 -10.5,11.25 -10.75,9.75 -4.5,10.5 -9.75,7 -19,7.75 -11.75,9.25 -8.5,29.5 0.5,15.25 -2.25,2 0.5,20 -3,4 -2.25,10.5 -8.5,12.75 -4,14.25 -12.75,2.5 -9.25,2.25 -13.75,13.75 -13.5,1.75 -9.75,-8.5 -11,6.25 -18.5,-4 -6,-7.25 -14.75,3.5 -16,4.5 -6.25,11.25 -6.75,1.5 -4.75,-4.5 -7.25,9.25 -4,0.75 -2.5,15 -14.5,9.5 -6.25,2.5 -1.5,-7 -8.5,-4.25 -9.5,2.5 -3.5,4.25 0.25,8.25 -10.25,7 v 2.25 l -4.25,4.5 -11.75,0.5 -9,-4.25 -11.5,2.5 -3.75,5.5 -12.5,-4.25 -7,5.25 15.75,3.5 -5.5,12.75 3.5,8.25 -1.75,9.75 -6.5,1.25 -8,-2.5 -6.75,-7.5 -4.75,-10.5 -10.75,-2.75 -29,-7 -21.75,-4.25 4,-12.25 -5,-2 -6,1.75 -14,-3.75 -2.75,-6 -22.25,-2.5 -8,-2.5 -5.5,-8.25 -16.5,-3.25 -3,4.75 -21,-2 -12.5,-9.5 -2.5,-11.25 -4.25,-4.75 -12.75,-12.75 -9,0.25 -10.75,-1.75 h -1.25 l 6.25,11.5 -1.5,12.5 -4,4.75 -16.75,-0.5 -8.5,-2.5 -3.75,-14 -1.5,-5 -11.75,4 h -13 l -18.5,4 -12.75,10.25 -11.25,1.25 -14.75,-2.25 -15.5,-4.5 -16.75,-17.25 -18.25,-25.25 -14.75,-13.5 -1,-7.5 -10,-0.25 -14.25,-5.75 -10.25,-9 -29.25,-42.25 -9.75,-8.25 -20.25,-1.75 -4.5,3 -4,12.5 -7,2.25 -3,-5 0.75,-2.75 8,-6.5 0.5,-6.25 -5,-8 -17.75,-9.75 -11,-1.5 -5.5,5.5 0.25,5 2.5,6.75 -2.25,6 -6.5,6.75 v 2.25 l 7.5,-6.25 3.75,-6.75 -1.75,-12.75 4,-1.75 16.75,7.5 1.75,5.25 -4.75,13 1.75,8 6.5,7 10,2 16.75,-4.75 8.5,-11.5 6,5.25 9.75,21.75 13,15 9.75,16.25 16.75,13.25 17.75,10.5 h 7.25 l 7.25,11.25 -1.5,13 6.25,20.25 1.75,24 -4,5 10.5,12 11.5,4.5 h 6.5 l 6.5,-5.75 5,-14 7.25,-3.5 12,6.75 2.75,17.25 -6.75,5.25 14,15.25 -1.75,9.75 15.75,-6.5 31.5,-0.25 1,-6.25 10.25,-3.5 5.5,4.5 h 7.5 l 7,-7.75 16.75,1 0.5,4 7.75,2 6.25,-3.5 13.25,6.25 4,8 7,2.75 8.25,-0.5 8.75,5.5 19.25,5.5 3.75,3.75 h 7.25 l 7.25,-4.5 -0.25,7.5 1.5,5.5 7,3.75 35,2 10,-3.5 7.5,4.25 18.25,2.75 18,6.25 21,-0.5 5.5,2.5 5.25,-4 15.25,8.5 18.25,-1 12.25,-10 1.75,-5.5 7.75,-4.5 7.25,-2.5 4.75,0.25 20.75,20.25 2.5,8.25 15,9.5 h 10.75 l 23,8.5 15,-2.5 20.75,2.25 11.75,-8 18.5,-1 6.5,-7.25 9.5,5 0.5,8 29.25,0.75 1.5,-9 18.75,-13 28.75,20.5 h 8.75 v 8 l 25.5,25 30.25,26.75 9.75,6.75 17.25,2.5 18.25,-4.75 8.25,-6.75 7.75,-7.5 37.25,13.5 11,-2.75 8,-6 h 6.5 l 22.5,-13.75 3,-12.25 28.5,-14.25 22.25,-7 2,6 19.5,-5.75 13.5,-11.75 4.5,-13.75 -0.25,-17.5 -1.75,-11.5 3.25,-20.5 27.75,-37.75 12.75,-14.75 6.25,-3.25 14.75,-1.75 9.5,-7.25 7.25,-13.75 6.25,-5 15,-29 6,-4.25 v 4.75 l 5.25,3.5 10.75,-4.5 8.25,-0.75 5.75,-1.25 9.75,2.75 10.5,-5.75 3.5,6.25 17.75,8.25 10,-6.5 18.25,3.25 8.5,5.75 4.75,-4.5 h 6.5 l 2.25,4.5 13.75,1.75 12,-9 3.75,4.25 9.75,-4.5 9,9.5 14.5,-2.75 7,3.25 6.75,7.75 8.5,-0.5 7.25,4.25 4.25,-2.75 2,-5 2.75,0.5 v 7.25 l 5.75,2.25 10.25,13.75 v 4.5 l 10.5,10.75 -2.75,6.5 11,15.5 10.75,9.5 8,0.75 11.25,8.75 v 8.75 l 8.25,10.75 13.75,12 5.75,2.25 4.75,-7 19.75,-1.75 7,3.5 15,0.75 8.25,11.5 16,4.25 0.5,6.5 h 3.5 l 1.5,-6.25 h 7.75 l 3,2.75 h 6.25 l 0.25,2.25 -3,2.25 8.5,14.25 5.5,2.75 h 18.5 l 8.25,15 22.25,14 1.5,7 h 9.25 l 8.75,-4.75 7,8.5 0.25,10.25 3.25,1.75 7.25,16.25 5.25,10.75 h 4 l 6,7.5 10.75,1 6.75,7 9.75,1.25 0.5,7.25 11.5,-1.5 2.5,4.25 3.75,-1.25 3.75,2.25 -0.25,6.75 8.25,5.25 14.75,-2 3,3.5 7.25,0.75 4.5,-1.5 29.5,5.25 0.75,7.5 22.25,3.5 14.75,-6.25 7.25,-9.25 19,-2.25 16.25,4.25 V 649 l 7.75,2.75 6.5,10 11,2.25 11.5,8.5 13.75,4.75 23.25,3 1.5,-8.5 13.75,2 1,10.25 8.75,10.5 -4.75,8.25 6.5,17 -6.25,6.25 4,7.25 5.5,2.25 -0.5,10.25 15,8 h 4.75 V 760 l 7.5,2.25 3.5,-5.5 10.25,1 0.25,9.5 3,2.25 1,-5.75 8,0.25 1.75,5 5.75,5.75 1.25,19.75 -0.75,6.75 9,19.75 3.5,3 -4.25,7 5,3.25 4.75,5.5 4.25,3.75 2,15.5 7,9.25 6.75,20 3.25,-0.25 5.25,9 11.75,13 -4.75,4 5.5,5.25 11.5,18.75 11.75,5.75 9,11.5 1.25,4.5 5.5,-1.25 0.25,15.5 h 5.5 l -1.25,9.25 7.5,10 -3.25,7 -4,3.25 0.5,7.75 2,6.5 18.75,31 11.5,6.25 1.75,9.5 15.75,14 6.5,9.75 17.5,15.75 15.75,7 22.5,12 33.25,12.25 12.75,0.5 11.25,5.5 28,17 14,3 14.75,-7.5 v 6.5 l 3.75,1.25 6.75,-3.25 v 7.5 l 13.5,1.25 -3.5,22.5 5,15.75 -11,0.25 -30,-0.75 0.5,11.5 27,3.75 3.5,9.75 10.75,30 13.25,20 22.75,17.25 21.5,10.75 38.25,20.25 7,1.25 6.5,12.75 20,22.25 6.25,12.25 17,7.5 3,-3.25 5.5,2.75 -1.25,4.75 4.75,3.5 1.25,6.25 -3,4.75 v 8.5 l 13,15.25 -4.5,2.25 0.75,6 16.25,15.25 -7,7.25 -4.75,-2.25 -2.25,5.5 -1.75,18.75 3.75,9.5 6,8 9,6 -0.25,11 8,1.75 -8.25,11.75 v 6 l 5.25,5 -2,14.75 2.5,9.5 6.25,7.5 5.5,-2.5 8.75,9.75 4.75,-2 1.5,14.25 -3.25,3 1.25,13 1.25,20 3.75,15.5 -4.5,3 -0.5,11.5 2.75,2.5 3.25,13.5 -6.75,16.25 7.75,11.5 4.75,2.5 h 8 l 0.75,4.75 -6.25,10.75 v 6.75 l -2,12.25 4.75,14.5 -3.25,6.25 -2,1.25 -5.5,0.25 -7.75,9.25 -2.75,14 -18,20.25 8,0.25 v 19.25 l 5.75,34.25 6.5,16 17.5,23 0.5,10.75 14.75,0.25 7.75,11.75 14.25,14.5 0.5,25.25 -9.75,4.5 -6.25,16.75 3,2.25 -10.25,20.5 -2.25,21.25 3.5,31.5 25.5,55.5 9,-2 11,24 -1,16 10.5,31 10.5,15.5 11,1.5 -2,12.5 5,13.5 -16.5,12 1,5 -13.5,20.5 -2,11 4.5,5.5 5,23.5 14.5,30.5 17.5,27.5 -6.5,15 0.5,15 10.5,26 14.5,16.5 14,18 13,15 -1.5,14 5,9 -2.5,7 10.5,19.5 19,13 -4,9 5.5,14 8.5,16.5 4,8.5 -3,5 -2.5,2 h -11 l -0.5,8 13.5,11 4,-4 6.5,13 10,15.5 10.5,8 14.5,9 -0.5,8 24.5,23.5 7.5,24.5 -3.5,11.5 0.5,5 -10.5,15 v 18.5 l 2,29.5 13,28 -10.5,16 1,12.5 7.5,26 -2,11 11,23.5 v 10.5 c 0,2 19,35 19,35 l 8,7.5 -3,11.5 9.5,17 1.5,15.5 5.5,11.5 3,29.5 -2,7.5 4.5,18.5 -2,7 7.5,14 8.5,21.5 25.5,28 5.5,7 8.5,17.5 16.5,18 25,22 27,19.5 36,23.5 1.5,4 -5,6 -12,0.5 -7,3 -3.5,12 v 12.5 l 11,16 3,14 8,16.5 17.5,15.5 5,4.5 -5.5,10.5 3,7.5 7,7.5 11.5,-2 4.5,-3.5 4.5,-17.5 4.5,4 -1.5,9 18.5,9.5 8.5,11 35.5,16.5 12,-2.5 33,13 9.5,13.5 23,19 39,21 30,9 10,2 10.5,-7 26,5.5 7,9.5 20.5,16 14,7 19,4 14.5,-4 16.5,2 16,8.5 11,10 17,4 17,-1 4.5,-4 3.5,2 3.5,-3 8,1.5 0.5,7 5,3 2,6 7.5,3.5 0.5,11.5 5,5.5 h 7.5 l 11,15.5 -2,6 3.5,7 9,4.5 9,-2.5 2,-3.5 10.5,-1.5 4,-8 12,8 7.5,13 8.5,7.5 11.5,1 14,20.5 1,13.5 4.5,7 8,2.5 17,6 8.5,-2 15,9.5 16,0.5 0.5,5 27.5,4.5 5.5,8 18.5,8.5 11,17 6,16 9,6 9,3.5 5.5,12 6.5,6 10.5,7 0.5,12.5 -13.69,17.75 -0.71,9.9 4.07,14.14 9.02,12.55 12.2,9.72 4.6,1.77 4.6,4.77 7.25,1.41 7.25,-2.83 15.91,18.92 3.18,-2.65 6.19,7.96 2.3,6.89 6.36,9.9 6.72,14.67 2.65,9.72 7.6,8.31 3.18,14.5 1.06,7.95 -1.77,1.41 0.71,3.71 9.02,3.89 7.07,12.9 2.3,9.9 -1.77,10.08 10.08,2.12 4.15,12.13 3.5,2 -5.5,15 5,11 -2,7.5 7.5,17.5 6.5,5.5 -2.5,13.5 7,12 9.5,7 10,-6 5,14 -11,6.5 -3,12 2,7.5 13,17 10.5,4 1.5,5.5 7.5,12 -0.5,6 4,8 10,5 5,5.5 5.5,-0.5 8.5,-1.5 4.5,9 25.5,11 1.5,7 32.5,13 33.5,15.5 -20,-1.5 -6.5,10.5 -3,15.5 4.5,16.5 8.5,20 16.5,22.5 29,23.5 20,9 50,12.5 17.5,13 11.5,3 20,16.5 31.5,11.5 11.5,1.5 22,19.5 -0.5,4.5 4.5,5.5 -3.5,8 -14,8.5 -21.5,9 -20.5,-0.5 -17.5,1 -31,11 -7.5,5.5 -16,29 -9,3 -10.5,19.5 -7.5,24 -5,29 -0.5,35.5 2.5,33.5 6,31.5 10,31.5 33,98.5 13.5,29 7.5,30 25,51 24,39.5 35,48.5 23.5,35 46,69.5 47.5,63.5 32.5,47.5 9.5,17 58,72.5 31.5,52.5 19,57 12,44.5 -11,27 -14,16.5 -24.5,26.5 -4.25,-1.25 -1.75,-6.25 12.5,-18.5 4.25,-13 h 14 l 9.25,-7.5 7.5,-14 -1.5,-18.75 -25.75,-26.75 -15.75,-15.25 -42.49,-23.03 -46,-12.62 -102,33.93 -2.01,6.22 -24.5,-2 -35.5,-12 -37.75,-31 -41.25,-50 -38.5,-40.75 -35.5,-31 -12,-22 -17.25,-23.75 -24.25,-14 -28,-2.5 -39.5,8.5 -39.5,18.75 -98,30 -8.5,-2.5 -21.5,-6 -32,6 -46.5,11.5 -16,-1 -16.5,-7.5 -13,-13 -16,-16 -28.5,-7 -15.5,3 -53.5,15.5 -8.5,5.5 -10.5,25.5 -12.5,6.5 -2,11.5 7,2.5 11.5,-5.5 54,-22 29.5,-8 4,2 25.5,33 34.5,26.5 13.5,6 24.5,4 21,-1.5 14,-6.5 10.5,-13.5 9.5,-6 11.5,-13 32.5,1.5 70,-7 15.5,-4.5 56,-21 32,-5 21.5,7.5 19.5,28.5 18.5,44.5 26.5,28 8,18.5 9,5.5 6.5,14.5 29.5,25.5 29,22 33,33.5 45.48,42.8 11.18,3.5 6.34,5.16 L 6620,5508 l 15,3.5 26.5,14 25,10.5 7.5,26 25,14 9.5,19.5 23,26 24,13 42,4 11.5,10 11.5,16.5 40.5,18 16.5,16 30.75,56.5 24,56.25 29.75,45.75 6.5,36 20,56 46,124 28.5,45 13,35.5 18,60.5 0.5,24 16,61 -0.5,35 -5.25,91.75 -6.75,23.25 -4,36.25 -8,14.5 -6.25,28.25 -10.75,-3.5 4.25,-28.75 -13,-1.5 -4.75,4.5 -13,1 6.75,7.25 -43.25,38 -4,8 -36,35 -45,23.5 -7,10 -15,4.5 -8,10.5 -2,-0.5 h -3.5 l -1,7 -4.5,0.5 -0.5,6 -8.5,1 -2.5,7 -5.5,2.5 -4.5,12 -9.5,4.5 -10,10.5 -3,7.5 -5.5,3.5 -9,16 -4.5,2 -13,21 -8.5,-1 -11,14.5 1.5,6 -10,28 -7,14 6,17 -33.5,29 -14,23.5 9,11 11.5,-6 46,24 -1,7.5 11.5,1.5 24,-13.5 65,31 8,30 5.5,9.5 7,8 16,33.5 -7,11.5 14.5,22.5 19.5,-14 30,6 9,7.5 23,-2.5 6,-2.5 62.5,3 17.5,14.5 37,-29 28.5,-27.5 23.5,-21.5 18,-9.5 -5,-30 -11.5,-15 -3,-20.5 12.06,-2.58 12.46,-31.1 L 7261.5,6839 l 12.5,-35.5 21.5,-39 27.5,-29 38,-14.5 29,-5.5 53,14 45.5,-9 -2,-20 24.5,-2 32,2.5 52.5,10.5 10.5,2 20.5,-3 16,4 26,4 14.5,-3.5 30.5,-25 80.5,23.5 21,4 3,12 10.5,-14.5 31.5,-1 5,-5 8.5,5.5 94,34 73.5,24 47,8 82,4 44.5,10.5 50,17 47.5,22.5 19,18 57,35.5 30.5,25 75.5,72.5 25,17.5 26,23.5 60,49.5 75,78 34,43 21.5,30.5 9.5,45.5 25.5,66 1.5,19 15.5,48.5 1.5,18 -9,67.5 7,27 -12.5,9 2,39 9.5,39 17.08,60.05 4.53,20.13 1.94,14.97 -1.85,10.52 -3.97,6.42 -3.36,-1.94 -2.87,5.36 -12,19 -13,40.5 -4,33.5 6,14.5 -8,38.5 -23.5,50.5 -21.5,49 -5.5,28.5 -11,35 -14,7 -18.5,23 -12,26 -8.5,27.5 -2.5,62 -3,23.5 -2.5,30 v 48.5 l -18,40 -11.5,54.5 -10.5,45.5 -9,49.5 -6,9 -94,46.5 -32,21 -10.5,17.5 -6,1.5 -5,13.5 -13,12.5 -13.5,40 -46,41 -6.5,11.5 -10,8.5 -10.5,17 -10,5.5 -20,7 -32.5,53 -1.5,-7.5 v -11.5 l -3.5,-7 -2,-13.5 -33,-23 -5,-16 0.5,-31 -8,-10 -21.5,-5.5 v 0 l -32,-18 H 8160 l -23,-18.5 h -11.5 l -25.5,-27.5 -10.5,4.5 13.5,23 20,17.5 8.5,-2 7,2.5 11,16 19,0.5 50,18 4.5,18 v 14.5 l 8.5,21 -9.5,12.5 -22.5,-12 h -7 l -30.5,13 -12,-4 -27.5,-1 -11,-14.5 -19,-7 -34.5,18 -5,7 -13.5,-5 -14,6.5 -24,-8 -19,7 -3.5,13.5 11.5,-1 7,4.5 6.5,-1 19,6 h 6.5 l 13,3.5 8.5,-1.5 14.5,-0.5 12,-7 25,-3.5 11,9.5 32.5,-1 6.5,3 7,-5 6,5.5 7,0.5 7.5,-11.5 11.5,-3 22,1.5 10,11 7,-0.5 7,-11.5 8,-1.5 2,10.5 -1.5,11.5 -15.5,11.5 -14,20 -10.5,12 -5.5,25.5 -6.5,7.5 -4,27.5 18,-2.5 13.5,-14 2,4 -5.5,8 24.5,17.5 6.5,10.5 -3,15 -8,12.5 -34,50 -21,23 -39,31 -44.5,21 -48.5,35.5 -97.5,9.5 h -1.5 l -10.5,-9.5 -5.5,-22.5 5.5,-6.5 -23.5,-22 -32.5,-35.5 -9,-25 -7.5,1.5 1.5,15 16.5,29 17,23 -28,23.5 -30.5,12.5 -28,11.5 -30.5,-3.5 -9.5,-8 v -16 l -4.5,-0.5 -4.5,16 -21.5,-15.5 -6.5,11.5 19.5,9.5 10,20 -13,0.5 -38,-13.5 -4,7.5 43.5,20.5 -30.5,24 -27,12 -32,0.5 -18,-9.5 -6.5,11.5 -18.5,-6 -20,9 -12.5,9.5 -15.5,0.5 -19,-11.5 -15.5,34.5 14,6.5 70,19.5 21.5,-8 1.5,-17 18.5,-0.5 17.5,-6.5 9.5,10.5 29.5,-3.5 23,-13 16.5,-32 20,-10.5 22.5,-2.5 13.5,7.5 17,19 v 23.5 l -8,23.5 -1.5,25 9.5,20 -8,36 -2,17.5 -7.5,28.5 3.5,14 -12,15.5 -32.5,11.5 -53.5,2.5 -44.5,-5.5 -2,11.5 13,8 31,2 11,7.5 6,20.5 5,-27.5 8.5,-6.5 25.5,2.5 52,-9 h 17 l -21,36.5 -27.5,28.5 -48.5,36 -20,21 H 7721 l -1,7 -48,31 -19.5,18.5 -7,9 -9.5,2.5 -37.5,-14.5 -23.5,-1.5 -16,-6 -24.5,-1 -25.5,-6 -6.5,-3 -30.5,-6 -9,5.5 4.5,5 -12.5,6 -60,-13 20,10 1.5,5.5 31.5,10.5 0.5,5 22,1 -12.5,8.5 -69,19 -27.5,-6.5 -9,-13 -8.5,18 -24.5,2 -19.5,7 -36,4 -10,-6.5 -24,4.5 3,8.5 -5.5,17 2.5,12.5 -9,41.5 -20,13.5 -63.5,8 -27.5,-3.5 -9,-14 -1,-11 -13,-15 h -20 l -16,5.5 -9.5,15.5 -34,-11 -39,-36.5 -16.5,-6 -23,4 -7.5,-9 -6,-27.5 -16,-7.5 -14,-3 -29,-13 -8,1 -11.5,8.5 -21.5,-2 -11,5.5 -12.5,21 -13.5,5.5 -20.5,-2.5 -28,1.5 -13,-11.5 -4,5 14.5,14.5 h 16 l 19.5,-2.5 23.5,0.5 12.5,-4.5 12.5,-18 23,-4 24.5,-6.5 15,11.5 20,3 9,6 4.5,11 3,22.5 15.5,7 14.5,4 15.5,-5.5 24.5,14.5 10,11 20.5,10.5 15,16 19.5,2 14.5,-8 10,-11.5 4,-4 7,-0.5 4,10.5 8,18 22,10.5 h 31.5 l 28.5,6 29,-3.5 28.5,-9.5 17,-11.5 -2.5,-12 11,-25 11.5,-18.5 15,-4 46,5 23,-4.5 12.5,5.5 -0.5,3.5 3.5,-5.5 23,1 4.5,5.5 4.5,-1 1,-4.5 29.5,6.5 7,8.5 38,-6 5,4 7.5,-2 17.5,9.5 9,-3.5 23.5,7.5 25.5,24 4.5,23 -6.5,18.5 -13,5.5 -41,1 1,-7.5 -20.5,-18.5 -17.5,7.5 -12,-2.5 -17,22 -6.5,14 11.5,1 0.5,6.5 -15.5,11.5 -24,4.5 -10,24 -26.5,-5 -8.5,-13 -5.5,7.5 9.5,14 18.5,12.25 26.5,5.75 -0.75,5.25 28.5,17.5 7.5,-16.5 20.5,-4 -0.5,-12 7.97,-4.44 17.32,18.43 -0.08,9.39 5.55,2.24 0.21,5.04 10.99,7.57 1.65,-6.67 6.04,-2.73 3.87,-21.29 15.9,-5.2 5.56,4.12 -8.87,16.15 -0.83,4.58 25.02,-7.59 3.47,-8 -9.26,-4.36 -16.5,-28 2.75,-31 35.5,-7 21,-40.5 28,10 25,2.5 40.5,28 53.5,8 21.5,2.5 21.5,11 10.5,22 29,22 16.5,34.5 -10,11 -4.5,-4 -14,7.5 -5,11 -27.5,13 -21,-5.5 -20,-16.5 -38.5,5 -22.5,-13 -22,-0.5 -9.5,-3.5 -13.5,7 -17,-4.5 -2,7 10,6.5 43,7 25.5,10 27.5,-1.5 14,-2.5 18,3 26,22.5 44,-8 42.5,2 41,-6.5 12,-15.5 13.5,-15.5 43.5,-1.5 5,-4 31.5,-1.5 10,-7.5 49.5,-0.5 30.5,-3.5 56.5,-11.5 44.5,8 26,-2 14,-7.5 15,-2.5 7,2.5 h 20 l 13,-9 15,3.5 9,-7 14.5,3.5 22,-13 42,2.5 7,-3.5 19.5,11.5 11.5,25 -6.5,20.5 0.5,15 -10.5,24 -9.5,19 -15,13 -1,8.5 -9,-9.5 -17.5,3 -19,-2.5 -11.5,4 -7.5,16 14.5,4.5 6.5,48.5 31,108 -1.5,63.5 2.5,54 -13,35.5 -13.5,7 -6.5,15 -20.5,13 -18.5,2.5 -6.5,12 -13,8.5 -7.5,-5.5 -10,7.5 -1.5,12.5 -17.5,5 -7.5,6.5 -28.5,12.5 -30,3.5 -12,1.5 -16,3 -22,13.5 -2.5,13.5 -11.5,4 -3,9 -27.5,7 H 8075 l -44.5,5.24 -29.79,8.65 -22.8,7.42 -29.52,18.56 -16.44,17.85 -22.98,22.45 L 7884,10538 l -14,30.5 -4.5,21 2.5,34.5 4.5,34.5 6,10 1,20.5 -3,32.5 -4,6 -12.5,2.5 -17.5,0.5 -32,-5.5 -144,-30.5 -35,5.5 -44,22 -32.5,25 -31,31.5 -21,24 -43.5,14.5 -8,5 -24,6 -6.5,6 -33.5,5.5 -23,5 -35.5,5 -28,12 -30.5,10 -51.5,7.5 -26.5,7 -10.5,6 -35.5,15 -14.5,9 -12.5,8.5 -12.5,21 -12,23.5 -22.5,11 -12.5,13.5 -14.5,21.5 -16,14 -8.5,12.5 -7,16 -11,2.5 -13,3 -39.5,-7.5 -5,-3.5 -11.5,-11 -44.5,-18.5 -3.5,-4 -12,2 -6.5,3.5 -21,-4.5 -30.5,-25 -27,-19.5 -13.5,-2 -13,4 -17.5,-1 -92,-35.5 -21.5,-4 -41.5,-18 -52.5,-14.5 -57,-11.5 -71,-6 -9.5,4 -30,-1.5 -56.5,13.5 -32.5,15 -37,9 -38.5,4 -36,6.5 -52.5,-1.5 -60.5,0.5 v 4.5 l -30.5,3.5 -42.5,15.5 -21,-1 -16,7 -25.5,2.5 -35.5,12.5 -21.5,2 -42,15 -14.5,20.5 -16.5,19.5 -3,16 -17,22 -7,12 -10.5,-3 -7.5,-5.5 -26,-31.5 -31,-24.5 -55.5,-27 -20,-13 -5.75,-7.5 2.25,-16.5 7.25,4.25 -6.75,9.5 v 3 l 11,-4.25 1,-7.75 3.75,-6.25 3,2 3.25,-1.25 6.25,-19.25 13,-13.5 14,-2.75 10,10.75 5.75,0.25 12,5 6,-2 6.25,-6.5 4.5,1.25 5.5,-1.25 0.25,-10.75 5,-0.25 8.5,-7.75 -1.75,-9.75 4.5,-5.5 2.75,-15.25 -2.75,-3.25 -6.5,7.5 1.5,7.5 -5.25,5.75 -0.75,6 2.5,1.75 -4.75,6.5 -8.25,3.75 -1.5,3.5 -8.75,4 -5,6.75 -16.5,-4.75 -2,-7 -10.75,-3.25 -3.25,-9.25 8.75,-12 5.5,0.25 2.25,-6 6.5,-2 -3.25,-2.5 -8.25,2.5 -1.25,-12 2.75,-10.75 -4,3.25 -4,0.25 -2.5,-3.75 -3.25,6.5 1,5.5 -4.5,2.75 6.5,1.75 2.5,8.5 -5.5,7.75 -4.75,10.75 1.25,7 -4,3.5 -10.75,-4 -7.5,-8.5 0.5,-6.75 -1.25,-6.5 -3,-3.25 -0.75,-10.25 3.75,-2.5 -1,-8 -4.75,-1.5 -2,1.25 -11.5,-0.5 -2.25,-3 -5.75,3 -0.5,3.25 3.75,5 -0.25,5.75 5.75,18.25 0.5,11 -2.25,5.25 -2,21.75 -18.25,-19 -11.75,-6.5 -7,-2 4.25,-2.75 -3,-6.75 2.5,-3.5 -3,-4 3.75,-11.75 9.75,-22.25 -0.5,-3 h -8.75 l -0.75,3.5 -16.5,-0.75 -7,6.75 -15.25,-6.25 -4.75,0.75 -8.5,7.75 -9.25,0.25 -7.5,-5.25 -4.75,-6 -18,-1.25 -8.25,7.25 -2.75,26 -12.25,-6.25 -2.75,-7.75 -6,3.5 -1.5,11 2.75,5.75 -1,13.25 3,13.75 -1.5,7 4.25,19.25 -6,7.5 11.5,-2.25 1.5,-9.25 23,4.5 14.5,-0.5 11,-13.5 1.25,-16 5.25,-5.5 -2.25,-13.75 -3.5,-6.5 0.75,-6.5 11.5,-6.5 8.75,-1.25 2.75,-5 9.25,1.75 -0.5,4.5 7.75,0.5 4.5,6.5 2,10.25 -3.75,5.5 -4.25,7 2.75,8.25 -1.75,2.5 -6.25,-2.5 -8,0.5 5.25,2.5 0.5,4.5 -6.25,1 -5.5,-4 6.25,10.5 13.75,-2 4.5,5.75 -3.5,4 1.5,13 -2.75,4.5 3.75,3.25 3.25,8 17.25,-5.25 1.5,2.5 v 14 l -3.75,2 -11.25,1.25 -29.75,-10.25 -53.75,-4.5 5.5,5.25 6,4 2.75,6 -3,8.5 -6,-1.25 -9.25,-13.25 -1.75,-12.25 -10.25,-1 -70,16.5 -4.5,-5.25 -17.75,-18.25 -1.25,-6.25 0.25,-8.75 -3,-0.75 1.25,-17.75 8.75,-5.5 12,1.75 -0.5,-8.25 h -8.75 l 5.75,-12.25 2.5,1.5 0.25,-3.75 -5,-4.75 -1,-5.25 10.25,-6 -8.5,-5.25 -9,-10 2,-13.75 -8.25,-0.5 0.25,4.75 -6,2.25 5.25,7 -3,5 h -10.75 l -13.75,-5.75 h -8.75 l -6.75,-6.5 -5.75,1.25 -4.75,-6.5 h -5.75 l -5,7.5 -8.75,2.5 7.75,3.75 11.5,-2 6.75,6.75 2,10.5 8.5,12.25 5.5,14.5 15.5,15.25 1.5,15.5 8.5,6.25 -1,3.5 -4.5,8.25 2,1.75 5.75,-5.25 2.75,4.25 -30,29 -4.75,1.25 -5.75,-1.75 -12,-13.75 -13,-7 h -6 l -21.75,-6.75 -8.75,-8.75 -10,-14.75 -11.75,-13.5 -12.25,-8.75 -16,-9.25 -9.25,0.75 -20.25,-17 -33.5,-14.25 -15,-8.75 -4.5,-7 5,-13 -4.5,-8.25 1.25,-6.75 -1.75,-6 2.25,-11.75 -1,-12.5 8,-8.75 -2.5,-3.5 -9.75,9 -2.5,6.5 3.5,4.75 -5,13 1,11.25 -1.5,3.75 5.25,7.75 -2.5,1.25 -14.75,-6.75 -11.5,-10.25 -23,-23 -22.25,-28.75 -12,-5.75 -2.75,-5 1,-9.75 1.25,-16.75 11,-10.25 -3.75,-9.25 h -8.5 l -0.5,1.75 6.75,5.5 v 2.5 l -9.25,5.25 -4,7.5 2.5,7.75 -4.75,16.75 -3.5,15.25 -3.75,-2.5 -7.75,-20.5 -32,-18.75 -14.75,-6.25 -4.25,10.25 19,7.75 10.5,12 17.75,24.25 9.25,9 -2,6 18,17 35,27.75 -3,7.5 6.25,2.25 3.75,-6.25 9.75,4.75 8.5,12.25 -4.5,3 -1.5,3.25 3.25,9.75 8.5,0.25 1.75,-2.75 -0.25,-6 6.25,4 8.25,13.5 15,12 2.5,8.25 -3.5,7.75 -15.75,3 -12.75,13.25 -15.25,25.5 -18.75,8.25 -9,-5 -14.75,-0.75 4,5.5 -15.25,10.25 -5.5,0.25 -3.75,4.5 -31.75,15.75 -35,8.25 -41.25,12.25 -35,5 -10.75,-4.25 -6.25,7.75 4.25,4.25 -3,8.25 -6.75,5.25 1,6 -16.25,24 -11.5,21 8,14 -1.5,1 h -13.5 l -26.75,-22.25 -53.25,-19.25 -49.5,-13.25 -26.25,-3 -2.25,1.25 -24.75,1.25 -16.25,5 -10,11.75 -5.75,4.25 0.25,9.75 -6.25,12 -6.5,2.75 -18.25,-8.5 -36,-5.25 -16.5,-2.5 -32.5,1 -26,3.75 -23.75,5.75 -24,9.75 -30.75,22.5 -19,24.25 -7.75,2.75 -5.25,-4.5 3.75,-4.75 8.75,-1 9.25,-9 1,-7.75 -5.25,-5 -6.5,-1.25 -5.75,-10.25 -5.5,2.5 4,-6.5 -3.25,-7 -3.75,6.25 -6.5,-5.25 2.5,-3.75 -1,-2.5 -10.5,1.5 -5.75,6.5 -10.5,-2.25 -7.5,0.5 0.5,4.5 -5,2.75 -7.75,1 -2.25,-5.25 -9,1.5 -8.25,-1.5 -28.5,-13.5 -10.25,4 0.25,8 -15.25,8.75 -3.25,10.5 -11.25,7 -8.5,5 2.25,12.5 11.75,0.75 7,-5.75 5.75,-19.5 14.5,-3.75 2,-8 10,-2.25 15.25,4 4.5,10.75 -4.75,0.25 -7.75,-4 3.75,14.5 10.75,3 5.5,14.75 8.5,1 27,0.25 4.25,13.75 26.5,1.25 6.5,-4.75 4.75,6.75 5.75,4.75 -10.5,25 -2.25,14.75 6.5,14 6.75,5.25 14.65,-1.07 6.35,2.32 -10,12 -3,7 -16,6.5 -5.5,9.5 -5,15.5 v 11.5 l 9.5,2 -5,13.5 2,11.5 -13,6 -12,-0.5 -21.5,1.5 -15.5,-3 -29,6.5 -7.5,10.5 -12.5,7 -15,6.5 -6.5,-12 -3,-10 v -12 l -12.5,3.5 -5,-6.5 -7,1.5 -16,-6 -8.5,1 -14.5,-5 -5,-5 -7,-3.5 -5.5,-6.5 1.5,-6.5 -6.5,-1.5 -4,3.5 -5,-0.5 -1.5,4.5 h -3.25 l 0.25,-4.5 -5.75,-2.25 -6.75,-6.5 -13.25,2 -21.5,-2.5 1.25,-6 -2.25,-3.25 -13.25,-4.5 -5,2 -5.25,-0.25 -18.75,5 -1.75,5 -23.5,0.5 -20.75,-3.75 -8.5,-6.25 -11.25,-0.5 -17.75,-2.75 -14.5,-3.5 h -20.5 l -8,-2.75 -9.5,-10 -11.25,0.5 -5.75,2.25 -12.5,-1.5 -7.25,0.75 -14,-8 -18.5,-2.5 -18.25,6 -13.75,-5.25 -13.75,7.75 -11,11.75 -10.25,14.25 -0.75,9.75 2.5,6.75 7.5,1.5 0.5,3.25 -9.5,3.75 2.25,7 -12,5.25 -1,7 -6,3 -3.5,8 -3.5,8.5 4.5,15.5 6.5,8.75 8.75,-1 6.75,6.5 12,-3 2.25,2.5 9.25,2 8.5,13.5 7.25,17.5 -1.75,7.25 -2,10.5 -12,9 -3,6 -8.25,6.75 v 6.5 l -6.25,7.25 v 3.5 l -8,7.5 -7.25,7.25 -3.25,-1.25 -1.75,-11.25 5.5,-9.75 -1,-11.75 2.75,-16.75 -2.25,-4 1,-6 4.5,-7 -1.25,-4.5 5,-13.5 -4.25,-7.75 -37.5,-39 -46.25,-43.25 -44,-37.5 -56.25,-44.25 -61.75,-41.75 -77.5,-45.5 -24.25,-14 -48,-22.75 -13,-4.25 -7.75,0.5 -6.25,-1.75 -7.5,1.75 -12.25,-7.5 -18,-3.25 -4.25,3 -14.5,-6.75 -21,-5.75 -20.5,-5.5 -19.5,-4 -15.25,2 -11,5 -1.5,11.25 -9.75,1 -2.25,2.5 3,5.75 -7.5,-1 -7.5,3.5 -7.25,8.75 -5.75,2 -10.25,-1.5 -3.25,6.75 -8.75,2.75 -8.75,7.5 -13.25,-2.5 -8.75,7.5 -23.25,5.25 -11.5,-1 -19.25,-4.75 -8,0.5 -8.25,-2.75 -15.5,-0.75 -10.75,3.5 -3.75,8.25 -7,2.75 -5.5,18.5 -14,1 -20,-5 -26.5,5 -14.5,-2.5 -18.5,5.5 -19,-2 -9.5,5 -21.5,-1 -29,10.5 -27.5,9.5 -5.5,15.5 -12,8.5 -3,6.5 -6,4.5 3,10 -8.5,13.5 -13,17.5 -27,7.5 -29,11.5 -11.5,9 v 15.5 l -11.5,-1.5 -21,3.5 -5.5,-3 -15.5,-0.5 -22,-15 -5,4.5 4.5,10.5 -27.5,30.5 -18,18 -10,16.5 -0.5,18 -13,15 -14.5,23 -11.5,24 -9.5,40 -4,39 -1,16 17,8.5 -3.5,6 12.5,7 3.5,10.5 h 9 l -3.5,8.5 -5,0.5 -5,3 -13,-1.5 -10.5,9 -7.5,0.5 -7,-5.5 -12.5,-9.5 -7,2.5 3,4 -6,4 2,6.5 -14.5,2.5 -4.5,23 0.5,10.5 5.5,8 -7,2.5 -1,12.5 5,6 0.5,12.5 -0.5,7.5 5.5,0.5 7,7.5 15.5,-5 13.5,4.75 10.25,10.5 15,-9 19.5,4 v 2.75 l -7.5,2 2,6 -8.5,6.5 -10.25,4 0.75,6.25 4.75,1.5 2,6 -13,5 0.5,3.25 -7,4.5 -2.5,9 1.75,1.5 -4.5,10.25 -2.5,3.75 -0.75,9.25 5.5,2.25 1.5,6 -4.75,6 0.25,5.75 -7.75,3 -8.75,2.25 -3.75,12.5 -11.25,2.25 -4,-5.75 -3.25,1.25 -7,-7 -7,-2.5 -4.5,-5.75 -8.25,-2.25 -0.75,-3 -4.5,0.25 2,5.5 11,4.75 0.75,16 -4.5,5 -2.75,5.75 2.25,4.25 -8.75,3 -11.5,-2.25 -6.75,5.5 -3.75,6.75 -11,2.25 -3.25,-2.75 -5.5,2.25 -0.75,4.5 -14,16 -10.5,11.25 -13.5,27 -4.5,19 -7.5,34.75 -4.75,31.5 -0.25,16.5 7.5,11.5 14.75,6.5 -1.5,2 -9,0.75 -8.75,7.25 -4,-4.25 -27,-2.5 -7.5,5.75 0.75,4.25 -18.25,10 v 4.75 l -6.5,5.5 -6,-1.25 -11.5,7.75 -4.5,-11.5 -3.25,0.25 -1.25,2.25 -9,-16 -7.75,-0.5 -6.25,-5 -19.25,-4.25 -6.25,-4.75 -1.75,-4.75 8.25,-15.25 4.25,-2.75 -4.25,-2.5 -12.5,13.25 -6,2.5 0.75,22.75 -7,1.75 0.5,8.25 -4.25,0.25 -4.5,-1.5 -5.75,-0.25 -2.5,-7.75 -16,1.25 -5.25,-4 h -6 l -5,-9.5 -12,-11.5 -15,-5.25 -4.5,-6.75 -8.25,0.5 -4.75,-6.75 -4.25,-2.5 -2.75,-4 1.75,-3.5 9.25,-0.75 1,-20.5 1.25,-1.75 v -9.25 l -5.25,-6.75 -6.5,0.75 0.25,-6.25 -7.25,-3.25 -7.25,-8.25 -1,-15.5 6.25,-1.5 -5,-3.75 -10.75,6.5 -8,-0.75 -1.5,3.75 -5,2.25 v -4.5 l 3.5,-3 0.5,-9 -16.5,-14 -16,-4 -9.5,1.5 -12,-2 -0.5,-8 -2.5,-1 -1.5,-12 -6,-2.5 -4,6.5 -10.5,3.5 -12,-6.5 -21.5,1.5 -15,9.5 -10,-1 -3.5,2 v 8 l -6.5,4 -3,-4 -13,6 -17,-3 -18,-11.5 -11.5,-4 2,-10.5 16,-4.5 -12,-2.5 -9,-6 -8,2 -19,-2 -3.5,5.5 -12,-6 -3.5,-5.5 h -5 l -4.5,-19 4,-0.5 -2.5,-10.5 -7,-2.5 v -14 l 6.5,-9 -15,-26.5 -21,-0.5 -13,6 -4.5,-7.5 -20,-4.5 -1.5,-16.5 -8.5,-28 -14,-14.5 2,-16.5 -6,-1 -4,14 -16,6.5 1,9.5 8.5,-6 16.5,8 9,21.5 1,11 -6,6.5 15,21.5 11,-7 5.5,3.5 1.5,11 6,7 -2,9 -22.5,9 -14.5,12 -0.5,6.5 13.5,17 -0.5,7 h -24.5 l -12,7 -0.5,5.5 -5,0.5 -3.5,-6 1.5,-12 5,-7.5 -5.5,-11 -36,-28.5 -29,-16.5 -37.5,-14 -11.89,1.63 -14.5,-1.77 -6.72,4.24 -21.57,-1.77 -6.36,1.77 -30.76,-7.78 -8.84,2.83 -19.45,-2.47 -12.02,5.3 -7.42,-1.77 -5.3,3.18 -5.3,0.35 -13.08,9.9 -4.6,6.01 v 10.96 l -7.07,3.54 -1.77,2.83 -16.62,7.42 1.77,7.42 -3.54,2.83 -25.1,-7.78 -3.18,3.54 -3.18,7.07 -17.68,1.06 -9.19,7.42 -19.45,4.24 -13.79,0.71 -32.88,-14.14 -11.31,-0.35 -10.61,9.55 v 4.24 l -5.66,0.35 -3.54,-9.19 -10.61,2.48 -3.18,5.66 -22.27,-0.35 -5.66,-4.6 -12.37,1.77 -1.77,3.54 -20.15,7.78 -2.83,11.31 -4.95,1.06 -4.24,-8.84 -3.54,0.35 -5.3,-5.66 3.89,-7.42 -1.06,-24.39 -7.42,-7.42 -1.41,-8.13 -11.31,-2.12 v 8.84 l -7.42,6.72 -31.47,5.66 -15.91,8.13 -10.96,2.12 -9.19,7.78 1.77,3.18 -4.6,5.3 -0.35,7.07 1.77,13.79 6.01,5.3 6.36,1.77 -0.71,17.68 -11.31,-2.83 -9.19,7.78 -1.77,5.66 -10.96,14.85 v 4.24 l 3.89,3.89 -5.3,13.44 3.18,2.12 -3.18,16.62 1.06,2.83 17.68,7.42 -2.12,8.48 -14.14,7.78 -3.89,4.95 -1.77,7.07 5.66,8.13 -3.54,5.3 -14.5,6.36 -3.54,4.95 2.83,13.44 -4.24,5.3 h -4.95 l -9.19,-10.61 v -8.13 l -8.13,-4.24 -10.61,1.77 -4.6,-4.6 -8.13,2.12 -3.89,-6.36 -25.81,0.35 -11.67,7.78 -5.66,12.73 -8.84,1.06 -11.31,17.68 -7.07,0.35 -4.6,4.95 3.54,7.42 -3.54,2.83 -5.3,-0.35 -1.06,7.42 -8.84,9.9 -5.3,0.71 -2.12,-8.13 -8.84,-10.25 -19.09,1.77 -12.37,6.36 -4.24,8.13 -7.07,8.13 v 11.67 l -7.78,2.83 -1.06,8.13 2.47,3.54 -0.71,12.73 v 13.08 l -6.72,9.9 -5.66,3.54 -0.35,6.01 1.77,3.89 -5.3,5.66 -7.07,0.71 -13.08,9.9 -7.07,5.66 -7.78,-1.06 -0.71,-6.01 -2.12,-8.13 9.19,-10.96 7.42,1.77 8.84,-16.62 -5.66,-3.54 -10.96,14.85 -14.85,4.95 -4.24,-3.54 -2.12,-10.61 7.07,-12.73 2.12,-25.46 -6.36,-1.06 -5.3,-27.58 -4.6,-13.08 7.42,-3.54 -8.84,-6.01 -6.01,9.55 -13.44,5.3 -5.66,14.14 -5.66,3.18 6.72,4.95 0.71,11.67 -1.06,10.25 8.84,1.06 2.83,3.89 v 13.08 l -9.19,10.25 -18.74,1.77 -9.19,-9.55 -1.06,6.72 12.73,16.26 5.3,3.54 16.62,-1.77 6.36,7.78 1.06,10.61 -7.42,-2.48 -4.95,-7.78 -14.85,8.48 -5.3,5.3 -7.78,3.89 2.83,7.78 -9.55,9.9 -1.77,4.24 -10.61,3.18 4.95,6.36 -2.47,16.26 4.95,5.3 4.24,-1.77 1.06,6.01 -5.66,0.35 -4.24,9.9 -13.08,8.13 -5.66,-7.42 -10.96,-0.71 -14.14,8.84 -18.74,-1.77 -5.3,3.18 -15.2,2.83 4.6,5.66 13.79,-6.01 9.55,0.35 5.3,4.6 6.01,-4.24 20.86,2.83 6.72,2.12 5.3,5.66 h 6.36 l 1.77,3.89 h -10.61 l 1.41,5.3 18.38,-1.06 1.77,4.6 3.18,0.71 3.54,-4.24 h 2.47 l 1.06,7.78 -4.95,12.37 0.71,10.96 12.37,1.41 4.24,11.31 -269.05,-0.71 -1.41,-4.24 -28.28,-29.34 -11.67,-4.6 -10.96,-13.08 -16.97,-3.89 -16.62,6.01 -7.07,-9.19 -5.66,1.06 -9.55,-12.37 -16.26,-3.89 -4.95,2.48 -11.31,-4.95 -9.55,0.71 0.71,5.66 -16.97,4.95 2.12,-9.19 -2.47,-4.95 -4.24,-0.71 -10.96,-11.67 -12.02,-1.77 -3.89,-9.9 -7.07,-2.48 -1.77,-6.01 -13.79,-0.71 -2.47,6.01 3.18,2.83 -3.89,4.6 -3.89,-0.35 -0.35,-5.3 3.54,-0.71 -0.71,-6.36 -7.07,-7.07 -15.2,-3.18 -5.3,3.54 -20.86,3.54 -6.01,-1.77 -11.31,7.42 0.35,3.54 4.6,8.84 -9.55,2.83 -12.73,10.25 -1.77,6.72 7.78,4.95 13.79,25.1 -8.84,13.44 -1.41,10.61 -5.3,9.54 -4.24,2.83 -1.06,11.67 -93.69,-0.71 -1.41,-205.06 6.01,-3.89 5.66,-9.55 12.37,-4.24 0.35,-7.42 10.25,-9.55 4.6,3.54 6.72,-1.41 6.72,-12.02 7.78,1.06 1.77,-11.31 7.42,3.89 17.68,-9.9 0.35,-8.13 4.95,-1.41 0.35,-3.18 8.84,-0.71 4.95,-8.48 10.96,4.24 10.25,-0.71 2.83,-6.01 5.66,5.3 7.42,-5.3 4.24,0.35 8.84,-4.6 6.36,6.72 11.67,-4.6 4.24,-0.35 4.24,2.83 -2.83,8.49 2.47,6.36 5.3,4.6 1.77,12.02 18.03,6.01 10.96,-1.77 18.38,-8.13 12.02,-6.72 17.68,-20.15 12.02,-25.81 -1.06,-17.68 2.12,-1.41 10.25,0.35 6.72,-5.3 9.55,13.08 h 3.18 l 18.03,-7.78 12.02,4.95 16.26,-9.55 18.38,-16.97 15.2,-18.39 10.96,0.35 1.77,-6.36 6.01,-1.77 0.35,-4.24 10.96,-9.9 15.2,-4.24 5.66,-7.78 12.37,-6.72 14.14,-32.53 5.3,-16.26 -2.47,-14.5 16.62,-7.78 10.61,1.41 13.08,-1.77 13.44,-13.44 -0.35,-6.72 10.96,-2.83 -1.77,-11.67 14.5,-1.77 2.47,-6.01 6.72,-1.77 14.5,-58.34 -6.01,-4.24 4.24,-5.3 -8.13,-13.08 10.25,-6.36 4.6,-10.61 -3.89,-7.07 3.54,-6.72 7.42,2.47 3.89,-1.77 0.35,-7.78 5.66,4.95 5.66,-0.35 4.95,-3.54 -3.89,-7.78 3.54,-0.35 9.9,2.12 2.47,-2.12 h 6.36 l 9.19,-16.97 -0.35,-7.07 8.49,9.19 7.78,0.35 0.35,5.66 5.66,-0.35 9.55,-5.3 11.31,-12.02 6.36,-2.12 10.25,-22.63 11.31,-36.77 -2.83,-6.72 4.24,-5.3 2.12,-8.13 -1.77,-7.78 1.06,-2.83 0.35,-0.35 2.12,-27.22 -4.6,-10.25 -8.13,-0.71 6.72,-4.24 -1.41,-5.66 7.07,-6.72 1.77,-4.95 6.01,-5.66 0.35,-7.07 1.77,-4.6 -1.41,-9.9 3.89,-9.9 -0.71,-5.66 -2.47,-19.8 -13.79,-7.07 6.36,-8.48 13.79,-2.48 4.95,9.9 7.42,2.12 10.61,-4.24 3.89,7.78 h 7.07 l 12.37,-3.18 L 762,11393 l 7,1.5 9,-6.5 0.5,-10.5 7,-3.5 7,1 -2.5,12.5 6,1 12,33.5 4,-0.5 -4,-23.5 1,-15.5 10,-20 v -10 l -14,-12 13.5,-6 -0.5,-8 5.5,1 5,8.5 10,9.5 13,-1 11.5,3 16.5,-10.5 3,-10 11.5,2 14.5,-8 9,8 6.5,-3.5 17,-0.5 31,-6.5 11.5,-18 16.5,-27.5 6,-34.5 8,-22 -7,-4.5 -1,-6 6.5,-13.5 -2.5,-5 1.5,-4 20,-2 -2,-10 7,0.5 2,7 9,-1 8,-21.5 5,-0.5 4.5,2 15.5,-6.5 0.5,-9 26.5,-7.5 -3.5,-6.5 6,-12.5 10.5,-1 4.5,-11 12.5,-6.5 0.5,-15 4.5,-9 -1.5,-20 13.5,-0.5 5.5,-5.5 -2.5,-7 9,-9.5 8,0.5 7,-5 3,-13.5 15,-9 15.5,-4 6.5,-6 10.5,-4 14,-14 5,-2.5 5.5,-31 -4,-3 3.5,-23 -2,-23 4,-23 -2,-12 0.5,-11 -3.5,-52.5 -2,-10 -7,-8.5 4.5,-7 -2.5,-9 v -11 l -3.5,-9 4.5,-2.5 v -12.5 l 8,-10.5 3.5,-9.5 9.5,-9.5 -4,-22.5 8,-7.5 1,-10.5 -1.5,-4.5 14.5,-26.5 -3.5,-23.5 5.5,-12.5 -5.5,-15.5 3.5,-6 -1.5,-9 2.5,-10.5 -4,-4.5 9,-9 -3,-7.5 5.5,-10.5 8.5,2.5 6,-1.5 13,6.5 15.5,-4.5 29,1.5 17.5,9.5 16,5 12,-4 18.5,10.5 18.5,20 8,9 13,3.5 9,6 18,-4 16.5,3.5 30,-8 17,-7.5 23,-33 5.5,-2 14.5,-30 12,-16 20.5,-4.5 5.5,-38 -5,-27 1,-2 20.5,10 10.5,14 7,11 6,5 9,-3.5 4.5,14.5 -1.5,16.5 -7.5,10 -5,12 14.5,-16 10,-18.5 -4.5,-4.5 5.5,-21.5 -12,-4.5 -16,-9 -18.5,-9.5 -15,-16.5 -5.5,-2.5 -1,-3.5 4.5,-3 6.5,-51.5 -4.5,-5.5 -10.5,-4 -4.5,-3.5 0.5,-19 -17,-15.5 -2.5,-4.5 5,-6.5 18,1 15,1 9.5,-13.5 5,-23 2,-24 -4,-11.5 -16,-9.5 25,-6.5 11,-19.5 9,4.5 10.5,-2 11.5,2 10.5,-9 8.5,2.5 3,-4 16,-1 18,-13 23.5,3 8.5,-4.5 3,1.5 15,-12 23,3 9.5,7 5.5,0.5 5,6.5 8,1.5 4.5,-5 8.5,-1.5 0.5,-7 26.5,-3.5 10.5,-3 49,-0.5 13.5,-3 13.5,-17 15,-2.5 30.5,5.5 8,7.5 15.5,-10.5 7,4 3.5,-8.5 12,1 18,-8.5 26.5,3.5 7.5,4.5 13,-1.5 12,-9.5 2,-10 11.5,-7 11.5,12 16.5,6 21.5,1 23.5,2 6,6 23.5,0.5 18,6 54,10.5 5,-3 12,11.5 5.5,5 3,-2 11,-8.5 21,-3 12.5,-6.5 4.5,-9.5 14.5,-2 22.5,-1 19,6 27,11.5 13.5,-3 25.5,19.5 6.5,12.5 6.5,3.5 14.5,-3 9.5,1.5 9,12.5 10.5,16 12,8.5 10,9 15.5,2 27,-4 29.5,5 17.5,-2.5 19,3 10.5,3.5 17,-3 14,1.5 10,-0.5 21.5,-10.5 16.5,-3.5 13,-7 19,-5 17.5,-13 13,-3.5 14,6 21.5,-7.5 9,-10 20,1.5 12,-4 17,7.5 14.5,-3 26.5,12.5 23,-4 35,-26 13,-0.5 -8.5,27 -5,17.5 -16.5,2 -9,7.5 5.5,3 24,-6.5 16,-38 10,-23 8.5,-28.5 -10.5,-17.5 -17.5,-32.5 0.5,-17.5 10,-50 v -43 l -21.5,-4 -6,-9.5 40.5,9 5,6 7,-0.5 11,-47 -3.5,-8 -9.5,-6 -1,-6 34,-13.5 4,-9 1.5,-27.5 -19,-10.5 20,-8.5 h 10.5 l 16.5,-11.5 1.5,11 27,-6.5 18,-13.5 13,-20.5 8,-23.5 4,-2.5 -2.5,-6 20.5,-20 16,-29.5 32.5,-23 15,-19 13.5,-14.5 13.5,0.5 19,-8.5 1,-7.5 14.5,-0.5 6.5,3 22.5,-3.5 7.75,-6 3.25,-6 5.75,-2.25 13.75,11.25 0.25,-7.25 -10.25,-12.25 10,-13.5 8.25,-4.75 22,-32.25 17.25,-31.25 3,-23 2,-15.5 4,-8.25 13.5,-15 17.75,-22 9.75,-23.25 27.5,-18.75 20.5,-21.5 11,-20.25 7,-27.5 17.5,-31.5 39,-28.25 14.5,-4 20.5,-20 10,-18 7,-40.5 10,-1.5 1.5,-5 23,-22 6.5,-1 14,5 h 7 l 18.5,-13 6,-10 10,-2.5 16,-13 9,-4 2,-13 -1.5,-11 -5.5,-10 -19.5,-9.5 -6,-1.5 -9,-6 -27.5,-2 -9.5,-7 -2.5,-8 2.5,-9 10.5,-20.5 7.5,-8.5 5,-2 5,4 5.5,12.5 16.5,11 14.5,1.5 10,8.5 6.5,4.5 11.5,2.5 18.5,-6.5 7,-7.86 0.5,-8.89 -3,-6.25 -13.5,-6.5 -3.5,-0.5 2,9 6,4.75 7.5,1.75 0.25,5.5 -6,6.5 -14.5,4.25 -4.75,-0.25 -16.25,-12 -10,-2.5 -12,-6 -4.25,-3.25 -9,-18.25 -11,-6 -11.25,3 -9.5,9 -7.75,12.75 -3,9.25 -5,9 -0.25,5.75 2.25,7.25 1.25,9.75 11,7.5 5.75,1.5 6.5,-2.25 16.75,2.5 11,5.25 2.75,3.5 v 5.75 l -1.75,4.75 -7.75,5.5 -17.25,7.5 -4.5,6 -9.5,3.5 -14.5,15 -25.25,14.75 -6.5,8 -1.75,9.5 -13,6 -7.75,10 -4.5,12.75 -6.25,17 -16.25,6.5 -9.5,9.25 -23.25,8 -7.5,11 -11.25,-2 -1.75,6.25 -7.25,-2.25 -0.5,2.25 -5,4.25 -2.25,7.5 -25.5,12 -17.75,14.5 -5,8 -10.5,9 -1,2.25 v 4.5 l 3.75,7 -3,5.25 -6,7.25 -1.75,7.5 -7.75,10.25 -2.25,8.5 -7.5,5.25 -2.75,4.5 -2,11.75 1.75,7.75 2,5 v 2.25 l -1.5,8.5 -3.75,3.25 -4.75,-0.25 -4.25,-11.75 5.5,-11 H 3526 l -5.25,7.75 -5.75,14.5 -9.5,5.5 -11.5,7 -11.5,10.75 -6.5,8.5 -4,8.25 -7.5,6.5 -2.25,6.5 -3,1.75 -32.5,1.25 -8.5,0.75 -3.75,3.75 -6.75,0.5 -10.75,7.25 -11,2.75 -29,19 -41.25,25.75 -16.5,9 -21.75,5.75 -5.25,-1.25 -13,7 -4.75,0.5 -6.75,5.25 -11,1 -7.5,5.75 -12,-5.75 -14.25,-2 -29.5,3 -9.75,-3 -16,-10.5 -3.5,0.25 -4.5,-5.25 1,-6.25 14.75,-9.5 3.25,-8.5 -5.5,-10.75 -9.75,-3.25 -6.75,-8 h -4.25 l 7,8.75 12,9.25 2.5,5 -1.25,3.5 -14.25,6.25 -7.75,5.5 -1.75,7.25 -3,2.5 -3.5,15.5 -10.75,11 -32.5,21.25 -14,0.5 -3.75,10.25 -10.75,4.25 -4.75,5.75 -15,8.5 -4.25,-2 -21,15.75 -21.75,9.25 -4.25,-2.25 -4.75,2 -3.25,0.25 -1.25,12.75 -4.5,3.75 1.5,5 -5.25,6 -1.75,6 -4.25,3.25 -6,0.25 5.75,8.75 -0.25,3 -15.25,14 -11.5,15 -6.5,-4.5 2.25,-14.75 -1.5,-2.25 -3,-0.25 -2.75,7.75 -9.5,1 -2.25,1.75 -0.25,6.5 -3,0.25 2,5.75 3.25,5.5 h -9.5 l 7.25,3.25 9.25,-0.25 5.25,4 1.5,8 -8.5,25.25 -1,26 5,14 -9,3.5 -10.5,9 -15,0.5 1,4 -2.24,4.3 -7.42,-0.71 1.41,-4.95 -22.27,-8.84 -8.13,3.18 -7.78,6.36 -18.74,6.01 -16.26,5.3 -2.12,7.42 -12.02,-1.06 -6.01,3.18 -7.42,-1.06 -3.18,2.83 -11.31,-8.49 -12.73,-3.18 -12.02,10.25 h -6.72 l -14.14,9.55 -7.78,1.06 -25.81,-5.66 -4.95,2.83 -46.67,7.07 -10.96,-11.67 -25.1,-6.72 -8.49,2.83 -33.23,-12.02 -8.84,1.41 -14.5,-5.3 -10.96,3.89 -9.19,-9.19 -18.03,-4.6 -15.56,6.01 -28.28,-9.55 -6.36,-9.55 -16.26,-21.21 -12.02,-25.81 -9.19,-9.55 -7.42,-8.49 -4.95,-3.54 -11.67,-16.97 -16.97,-8.13 -10.61,-10.25 -12.73,-23.33 -11.67,-6.72 -13.79,1.77 -10.25,3.89 -14.14,-3.18 -3.89,0.71 -4.6,3.18 -13.08,-2.47 -16.62,-14.85 -16.26,-22.63 v -5.3 l -10.61,-9.19 -12.73,-32.88 -25.1,-67.53 -17.68,-27.22 -15.56,-32.53 -43.13,-43.84 -11.31,-16.26 -31.47,1.77 -16.97,-7.42 -8.49,13.44 -24.75,6.01 -9.19,0.71 -9.55,-1.77 -14.5,2.12 -4.24,4.6 -18.03,10.96 -6.72,14.5 -8.84,8.49 -5.3,15.91 -1.06,15.91 19.8,8.84 -0.35,4.95 -7.07,-2.12 -5.66,3.18 -8.13,0.35 -7.78,2.47 -19.09,-7.07 -6.36,6.01 -13.08,0.35 -5.66,-6.36 -7.07,-2.47 -24.75,10.25 0.71,6.01 -10.96,6.01 -10.61,-9.55 -11.67,1.41 -6.01,-5.66 -15.2,-2.83 -7.78,-4.95 -15.56,-2.47 -20.15,6.72 -11.67,5.66 -6.72,8.13 -1.41,8.49 9.19,6.72 2.47,9.19 1.06,1.41 -10.25,9.19 -10.96,-7.78 -26.52,-5.3 -14.14,1.06 -10.25,7.07 3.18,8.13 -3.54,4.24 -10.96,0.71 -1.06,-5.66 -28.64,-5.66 -6.01,-7.78 -16.97,-9.9 -2.47,-5.66 -13.79,-3.18 -12.02,-10.96 h -12.02 l -3.54,2.12 -5.66,-1.06 -10.25,4.95 -16.97,-10.61 -13.79,-1.77 13.79,-3.89 14.5,8.84 14.5,-14.14 4.6,-18.74 -2.83,-16.97 -10.25,-23.69 -12.37,-18.74 9.9,-2.83 18.74,-12.37 2.12,-7.42 26.52,-13.79 11.67,-15.91 3.89,-15.56 8.13,-1.06 3.18,-3.18 h 5.3 l 1.06,4.95 8.49,1.06 3.54,4.24 -4.24,3.54 1.77,15.91 7.78,3.18 13.79,-2.83 -1.77,-7.42 5.66,3.18 27.22,10.96 0.71,1.77 4.95,2.47 3.54,-4.24 3.89,5.3 10.96,1.06 -0.71,-7.42 7.07,-1.41 0.71,-8.13 13.44,-5.66 3.18,2.83 11.67,-0.35 -2.12,-6.01 6.36,-6.36 16.62,-1.77 3.89,-3.18 3.89,-12.02 7.07,1.06 9.19,-7.42 20.15,-6.36 8.84,-1.06 -5.66,-8.49 3.89,-4.24 8.84,-4.6 2.83,-9.19 -4.24,-13.79 3.18,-1.41 0.71,-6.72 5.3,-14.85 -11.31,4.6 -7.78,-1.41 -3.54,1.77 4.24,27.58 -0.35,6.01 -2.12,8.84 -7.78,4.95 -27.58,9.9 -6.72,-3.18 -15.2,3.54 -4.6,-3.54 -5.3,-0.35 -6.01,3.54 -0.71,5.3 -7.78,1.06 -12.73,-8.84 -13.79,-15.91 -11.31,-25.1 -26.16,-7.78 -5.66,0.71 -22.98,12.37 -21.92,0.71 -22.63,24.75 -26.87,9.19 -20.15,-11.31 -23.69,-3.54 -7.78,-10.61 -10.96,-2.12 -8.13,-11.31 -30.76,-32.88 -12.73,-1.41 -15.91,-7.42 -5.66,-7.42 -9.55,-2.83 -6.01,-4.95 -19.45,-0.35 -7.42,4.95 -3.89,-5.66 2.83,-21.92 18.38,-6.72 19.8,-7.78 14.85,-10.96 1.41,-10.25 -2.47,-3.89 -3.18,3.89 -0.35,-16.62 -3.18,-8.49 -19.09,-6.36 -3.54,-4.24 -16.97,-6.72 -9.19,-9.55 -8.49,-4.6 1.06,-4.95 8.13,-5.66 0.71,-8.84 -9.9,-13.79 -10.96,-1.06 9.19,10.25 -1.06,7.42 -3.54,8.49 -8.84,9.55 6.36,11.31 12.73,6.01 8.13,13.44 10.25,5.3 3.54,8.13 13.79,8.49 -5.66,5.3 -32.88,14.14 -12.02,15.2 -15.91,10.96 -10.96,13.79 -7.07,2.12 3.18,-12.37 -3.18,-18.03 -50.91,-16.97 -35,-3.54 h -18.38 l -11.31,7.07 -36.42,-6.72 -24.04,4.95 -31.82,6.01 -21.92,10.25 -9.19,3.54 -6.36,13.08 -7.42,8.84 4.95,12.73 7.42,10.61 10.25,4.6 -11.67,9.19 -0.35,4.6 -8.49,8.49 -2.12,8.49 -2.12,6.36 -1.77,6.01 1.77,2.83 8.84,2.47 -10.25,7.42 -8.13,7.42 -9.19,13.44 0.71,5.66 3.54,4.6 -13.79,1.41 -18.38,-1.06 -8.13,-3.54 -12.37,-1.77 -6.01,4.24 -1.06,7.42 6.01,6.72 -2.12,2.12 -15.91,1.41 -7.78,5.3 -6.36,11.67 -4.6,-2.12 -6.01,-4.95 -18.74,0.35 -1.77,-11.31 -7.78,-0.35 -11.31,2.83 -3.18,-8.49 -9.03,-0.68 -2,3 -10.75,1.75 -4,-4.5 -12.25,1.75 -5.75,6.5 -0.25,4 3.75,4.5 -10.25,0.5 -9.25,2.5 -2.5,3.5 -1.25,4.75 -10.25,3 -8.5,5.75 -3.5,5.75 1.5,6.75 -4.5,5.25 -0.5,5 7.5,7.75 -2,3 -10,-3 -7,1.25 -2,2.75 -1.5,2.5 -7.25,4 -2.75,6 -3,5.25 1.5,8 -2,1 -4.75,-5.25 -5.5,0.25 -4.25,3.25 -4.25,-1.25 h -6.75 L 780,9410 v -3.25 L 767.25,9402 H 758 l -2.25,-8.25 -8,1.25 -6.75,-4.5 -3,2.75 -2.75,-2.75 -17.25,5.75 -5.25,-1.75 -11,-8.5 -14.25,-4.75 -7,-0.25 -4.5,-3 -17.5,-3.75 -3.5,-3.25 -2.25,-7.5 v -5 l 2.75,-6 5,-3.25 3.98,0.19 2.12,-1.41 -2.12,-4.95 -1.77,-0.35 -3.89,-16.26 2.83,-2.12 -6.72,-15.56 -4.6,-1.06 -9.9,-18.03 -19.8,-3.89 -8.13,-3.18 -6.36,1.41 -11.31,-8.13 -3.89,-3.89 -10.61,5.66 -0.35,-2.12 5.3,-4.24 -3.54,-11.67 -3.18,-4.24 3.54,-4.24 7.78,-1.06 7.42,-2.83 -7.78,-9.9 4.24,-2.12 23.33,4.24 16.97,1.41 2.47,3.54 -6.72,6.36 -5.3,-0.71 2.47,3.54 8.49,7.07 8.13,3.54 7.07,0.71 3.54,-1.41 8.49,3.18 6.01,-0.35 6.01,-2.83 1.41,-6.72 -3.89,-7.42 -13.08,-5.3 5.3,-3.89 2.12,-7.07 18.74,-2.83 9.9,0.71 7.78,5.66 12.02,2.12 3.54,4.24 3.54,-2.83 h 28.28 l 0.71,7.78 -5.66,2.12 7.42,1.77 3.89,5.66 2.47,-8.49 -3.18,-2.12 -0.71,-3.54 8.84,-0.71 3.54,-6.36 6.36,-2.47 3.18,-10.25 10.96,2.83 5.66,-1.41 1.06,-3.54 5.3,-0.35 4.24,-2.83 1.77,-5.66 2.12,-0.71 11.31,7.42 5.66,1.06 9.9,-5.3 3.54,-10.25 h 15.91 l 6.36,-6.72 3.89,-16.26 1.77,-23.69 7.07,-1.77 -10.25,-7.07 -11.31,-5.3 -1.41,-2.12 2.83,-11.67 -0.71,-13.44 4.95,-13.08 0.71,-11.67 3.18,-7.42 -9.9,3.54 -19.45,-8.13 12.02,9.55 3.18,8.49 -6.01,6.72 4.95,10.61 1.06,12.73 -4.24,3.18 -7.07,1.77 7.78,2.47 v 8.13 l 5.66,5.66 11.67,6.36 -0.35,6.72 -0.71,6.36 2.12,5.3 -6.72,12.37 -0.35,9.9 -3.89,4.24 -8.84,-2.83 -8.49,2.12 -7.07,8.13 -6.01,1.41 -11.31,-4.24 h -13.08 l -3.18,6.36 -4.6,0.71 -9.19,-2.12 -16.26,3.54 -11.67,6.01 -9.55,2.83 -16.62,-4.24 -14.85,-5.3 -16.62,-10.25 h -3.54 l -3.89,-1.77 -10.61,4.6 h -4.24 l -11.67,0.71 -4.95,-5.3 -2.12,1.41 -1.77,3.54 -7.42,-0.35 -7.07,3.89 -2.83,-1.41 -5.66,0.71 h -4.95 l -1.06,-4.24 v -7.78 l -7.78,-6.01 -2.12,-6.36 0.35,-5.3 -12.02,-3.18 2.47,6.36 -3.54,4.24 0.71,2.47 -3.89,0.71 -7.07,6.01 2.47,3.54 -5.66,1.41 -2.83,-7.07 -6.72,-4.6 -7.78,0.71 -2.83,2.83 0.71,4.95 -14.14,-2.83 -9.9,2.83 -3.18,-1.41 -4.95,-8.13 -9.9,-4.24 -4.95,7.78 6.72,5.66 0.71,8.13 7.07,6.72 14.14,2.47 -0.35,2.83 -5.66,-1.41 -3.54,3.54 1.41,5.3 3.89,3.18 -2.47,3.54 -5.66,3.18 3.54,5.66 -0.71,3.18 -7.07,2.12 h -7.07 l -2.83,3.54 2.83,7.07 -7.78,3.18 -4.24,-6.72 -4.24,-2.83 v -8.13 l -6.01,-1.06 0.71,-7.42 -3.54,-13.08 2.83,-3.18 0.35,-4.24 -2.83,-3.89 -0.71,-3.54 -8.13,-6.01 -6.01,1.06 -1.41,-4.95 1.06,-6.36 -7.42,-6.72 -11.31,-3.18 -8.49,-1.06 -2.12,6.01 -6.72,3.89 -0.35,-3.18 5.3,-3.54 v -4.6 l -6.72,-5.66 -4.95,-1.41 -7.78,-6.36 -1.77,-5.3 -7.07,-0.71 v -6.36 l -1.77,-3.89 6.01,0.35 6.01,1.77 24.04,-1.06 5.3,4.95 9.19,0.71 7.07,-7.42 3.89,-23.33 -1.41,-2.47 -0.35,-8.13 4.95,3.54 5.3,-5.3 6.36,4.24 6.36,-1.77 3.54,-7.07 4.24,-1.77 -0.35,-6.01 21.92,-17.32 4.24,2.12 10.61,-2.12 10.25,3.54 3.18,-5.3 3.54,1.41 4.6,7.07 h 14.14 l 6.36,-7.07 8.49,-10.25 1.77,-5.66 0.71,-6.36 -3.54,-3.18 1.06,-16.26 -1.77,-3.18 3.18,-28.28 -1.06,-4.95 -7.07,-14.14 v -4.24 l -6.01,-10.25 1.77,-8.49 -0.71,-15.56 -8.13,-20.51 -8.49,-14.14 -2.47,-1.06 -2.83,-6.01 -6.36,-3.54 -5.3,3.18 -7.78,-1.06 -10.25,5.3 -3.89,-5.66 -7.42,-3.18 -9.55,2.47 -6.72,4.95 3.18,-8.84 -3.89,-2.47 -13.79,-1.77 -2.12,-4.95 -2.12,3.89 -16.62,2.12 -4.6,-7.78 -8.13,-3.54 H 448.81 l -6.36,3.89 -9.55,-3.18 -6.01,8.84 -3.54,-8.49 -9.19,5.66 -6.72,-3.54 -7.78,5.3 -1.41,-1.77 -7.42,8.13 -10.61,1.41 -7.42,6.72 -0.71,-7.42 -12.02,3.18 -3.54,4.24 -6.36,2.12 -7.42,-4.95 1.41,-7.42 12.02,-6.72 3.89,-14.14 -6.57,-4.61 -5.75,-10.75 7.5,-4.75 6.75,0.75 11.25,-12.5 -1.25,-8.25 -5.75,-5.75 -3.75,-0.25 -0.5,-5.25 -9.75,2.75 4.5,-9.5 12.25,-4.5 10.5,-9.5 4,-0.5 1.5,6.5 5.75,-3.5 8.25,2.75 4,-6.25 5.75,1.25 14.75,-4.5 -0.5,-6.5 7.25,-5.25 3.75,0.75 7.5,-4.5 1.75,-5.5 7.5,-6.5 8.5,0.25 5.25,-2.75 13,-3 1,-5.75 -2.5,-3 10,-7.75 -0.5,-6 4.75,-0.75 -3,-4.5 6.75,-1 -1.25,-5.25 9.75,2.75 8.25,-3.5 6,-1 3,4.25 4,-2.5 3.5,3.75 6.5,0.5 8.5,-0.75 -2.5,-6.25 9,-2 -0.5,-2.5 7.5,-1.75 0.25,-8.25 -6.25,-1.5 13,-7.25 5.25,3.75 5.75,1 4.75,-1 3.5,2.75 17.25,-3 4.75,-6.25 -1.5,-6.5 8.5,-0.75 13.25,1.5 2.5,-11.25 -4,-11 7,-12.25 -11,-1 2,-7 -7,-4.75 25.5,-19 1,-4.5 -10.5,-1.25 1.75,-12.25 -6.5,-0.75 -2.25,-3 -4,-1 8.75,-16.25 6.75,-3.5 7.75,-3.5 -5,-8 9.25,0.5 6.75,-5 10.75,13 5,-3.25 5.5,2 6.25,-0.75 19.75,4.75 1.5,8 7,-6.25 5.75,1.25 7,-2.5 10.5,-1 2,2.5 3,-1.25 0.75,-4 4.25,4.25 0.5,8 -0.25,5.5 5.75,4 -3.75,10.5 -9.5,10.5 6.75,9 12,-2.5 8.25,9.25 0.5,-9.5 5.75,-1.75 4.75,3.25 4.25,-2.25 -0.25,-3 15,-1.5 6,-7.5 4.25,1 1.75,-4.5 8.25,-0.75 0.5,-3.75 9,2.25 0.25,-9.25 8.5,-6 3.25,-7.25 -7.25,-7.5 V 8583 l 4.75,-3.5 3.75,-5.75 7.25,-1 12.5,9.25 -0.75,11.5 9.75,6 h 16.75 l 16.75,-3.75 16,0.5 7.75,-18.25 -1.5,-5.25 -8.5,-3 v -7.5 l 7,-14.25 2.25,-0.5 2,-6.5 6.75,-1 12.75,-8.25 12.75,-2.75 16.25,-0.25 12.75,-8 1.25,-8.75 7,-2 5,-8.75 18,-16 2.75,-11.5 5.75,-5.75 1.25,-8 8.25,-5 2.25,-10.5 -6,-6 0.5,-3.25 13.75,-7.5 5.75,-17 9.5,5.5 1.5,5 11.25,4.75 2.75,4 20.5,3.5 5.75,8.25 -3.25,2.25 12,11.5 -1,17.25 4.25,-5.5 0.5,-6.25 2.5,-4.75 0.5,-11.5 -8.75,-6.75 h -7 l 3.25,-12.25 -6.5,-18.75 4.25,-13.25 -0.5,-6 h -4.5 l -1,-3.25 4.5,-4.25 3,0.25 0.5,6.25 13.5,2.25 7.25,-6 4.5,0.25 8.75,-4.75 12.75,1 4.5,-2 -2.25,-5.75 3,-2.25 12.25,0.25 15.25,2.5 16,-6 c 0,0 11.5,4 12.75,4.5 l 15.75,1.25 9.5,-12 14.5,-2.75 6.5,6.5 v 4.25 l 7.5,3.5 4.25,4.5 21.25,1.5 11.5,-2.75 22.25,-13 15,-19.25 17.25,-14.5 7.25,-11.25 -3.25,-7.75 4.75,-1.25 6.5,4.75 6.25,1.25 5,-3.25 6.25,-1 6,-8.75 9.5,-3.25 11.25,-11.25 9.25,-14.25 11.75,-6.25 1.25,-5 h 2.75 l 0.5,-4.5 6,-2.75 5,-10.75 10.25,-6.25 6.75,-15 12,-5.5 7.5,-2.25 6.75,4.75 v 7.5 l 7.5,3.75 10.75,-3.5 8.25,-7.75 2.75,3.75 0.5,2.5 6.25,-0.25 13,-6.25 51.5,-43.5 5.5,-3 16,-15.75 6,-0.75 6.75,1 13,-5 5.75,-7 23,-16.5 7.75,-7.25 5.75,-14 7.25,-6 6.25,-12.75 0.5,-3 2,-5.25 1,-5.75 4.75,-3.25 7.25,-2.25 7.5,-6.5 3.5,-9.75 3.25,-9.25 10.89,-8.52 4.6,-10.96 9.55,-8.49 6.01,-24.4 12.37,-13.79 4.6,-19.8 1.41,-4.24 4.95,-23.69 4.95,-6.72 2.47,-18.03 8.49,-10.25 11.31,-25.1 4.95,-6.01 -2.12,-15.2 1.06,-18.74 4.6,-4.24 -0.35,-12.37 8.13,-18.03 -4.6,-8.49 6.72,-22.63 -6.01,-4.24 9.55,-2.12 v -10.96 l 7.42,-9.55 0.71,-10.96 6.36,-10.96 1.77,-7.78 7.78,-3.54 0.71,-13.08 -2.12,-27.93 -0.71,-13.08 -6.72,-33.59 0.71,-10.61 13.79,-14.14 1.41,14.14 4.95,4.6 25.46,3.18 13.79,-2.47 10.25,-12.37 6.36,3.54 33.94,-25.46 0.35,-12.02 -7.78,-5.66 -39.95,13.44 -50.91,13.79 -24.04,-6.01 -12.73,-35 -16.62,-33.94 -16.26,-29.7 -17.68,-27.22 -2.83,-12.37 4.24,-23.69 8.49,-18.74 2.83,-16.62 16.62,-33.59 5.3,-16.26 16.62,-6.01 14.85,-18.38 5.66,-7.78 8.49,-6.72 0.71,-15.2 -6.72,-20.86 12.37,-19.09 -9.55,-2.83 -15.2,-37.12 -20.15,-37.48 -34.29,-43.84 -33.23,-42.43 -7.42,-15.91 -2.12,-5.66 1.06,-13.79 24.75,-19.45 4.95,-10.25 0.71,-12.73 7.78,-14.14 -3.54,-20.86 -19.45,-36.77 -20.15,-27.93 3.18,-8.49 11.31,3.89 5.3,-5.3 h 21.92 l 10.61,-2.47 4.6,-6.72 11.31,0.35 8.13,-5.3 11.31,-0.71 10.61,-17.68 4.95,-7.78 15.91,-9.55 0.71,-7.07 -14.85,-1.41 -17.32,7.07 -1.77,8.13 -12.37,7.78 -8.13,7.07 h -3.54 l -7.42,-5.66 6.01,-15.2 -16.26,-7.07 -5.66,1.06 -8.84,13.79 -8.84,8.84 -10.61,1.77 -4.95,10.61 -20.51,3.18 -8.84,-5.66 -22.98,-14.14 -28.28,-11.67 h -8.13 l -5.66,4.6 -27.93,6.36 -4.95,3.89 -12.73,0.71 -24.4,-0.71 -21.21,3.18 -11.67,3.54 -6.01,6.72 -2.47,13.44 v 10.96 l -63.29,-8.84 -16.62,3.18 -8.13,7.07 -2.83,3.89 7.78,4.95 0.71,7.42 -5.66,2.12 -20.15,3.18 -25.81,9.55 -23.33,9.19 -6.72,5.66 -2.47,3.54 -0.35,8.13 -11.31,7.07 -4.95,9.55 10.96,9.9 -4.6,7.42 -19.45,8.84 -7.78,9.19 -6.36,12.02 -0.35,15.56 6.72,15.2 5.66,4.95 4.24,0.71 6.72,13.44 -1.77,5.3 -2.83,1.06 v 11.67 l -5.66,8.13 -8.84,-5.3 -16.62,1.06 -3.54,2.47 -4.95,12.02 0.71,9.9 -10.61,6.72 h -2.47 l -4.95,-8.49 -8.13,-4.6 -1.77,-18.74 6.01,-10.25 -12.02,-10.25 -29.34,-23.69 -19.45,-9.55 -20.86,-5.3 -10.96,4.95 -12.73,24.04 -7.78,7.42 -7.07,2.47 -7.42,7.78 h -7.07 l -2.12,-7.07 -11.67,-3.54 -10.96,3.89 v 4.24 l -8.49,-0.35 -9.55,10.61 -1.77,5.66 -6.72,-3.54 v -5.66 l -8.13,-6.36 -13.44,-2.47 h -12.02 l -4.24,17.32 -0.35,2.47 -8.13,13.44 v 7.07 l -8.84,-5.3 -4.95,2.12 -13.44,-11.31 -1.77,2.12 -10.25,-11.31 -4.24,-0.35 0.35,-7.78 h 4.95 l 2.47,-7.42 5.66,-2.47 6.36,-5.3 -2.47,-4.95 3.54,-4.95 -1.06,-9.55 12.73,-12.02 v -5.66 l 3.89,-1.06 v -5.66 l 4.24,-5.3 7.42,-8.49 4.24,-2.47 0.71,-13.79 -3.89,-3.18 v -4.24 l 3.89,-7.07 -3.54,-6.01 5.3,-5.66 8.49,3.54 11.31,-9.55 h 8.84 l 2.12,-1.41 4.95,-8.13 v -7.78 l 2.47,-12.02 5.3,-4.24 9.55,2.12 7.42,-3.18 5.66,-9.55 1.77,-9.19 -2.47,-3.54 4.24,-6.72 3.54,-0.71 5.3,-12.73 3.54,-2.12 4.24,-9.19 v -4.6 h 4.6 l 9.19,3.18 0.71,-3.89 h 7.07 l 6.36,-8.49 4.24,-9.19 v -3.89 l 8.49,-12.02 8.13,-1.06 4.6,-4.6 h 9.55 l 6.01,-3.18 5.66,-7.78 7.07,-2.83 v -5.66 l 5.66,-4.95 7.07,-1.06 v -8.13 l 4.95,-10.61 4.24,1.77 -0.35,5.3 -4.24,4.24 2.12,6.72 9.19,2.47 11.31,0.35 8.49,-2.47 4.24,-4.6 2.12,4.6 3.18,1.41 11.67,-1.77 13.08,-10.61 6.72,-6.36 2.47,-5.66 7.07,-1.06 8.13,-9.19 6.72,-7.78 3.18,-9.19 5.3,-5.66 9.19,1.41 3.54,-6.36 9.19,-23.69 21.57,-17.68 6.01,-14.5 11.67,-4.24 21.21,3.18 10.61,-12.73 9.55,-8.13 4.6,-9.19 8.49,-4.24 12.37,-13.79 v -7.07 l 6.36,-3.54 5.66,-9.55 6.01,1.06 6.72,-10.61 v -14.85 l 9.19,-5.3 2.83,-35.36 1.06,-4.95 0.71,-11.67 0.71,-24.4 -12.73,-33.23 -2.12,-9.9 2.83,-10.25 9.55,-8.84 3.18,-8.13 7.07,-3.18 7.07,6.72 4.95,-0.35 -8.84,8.13 -1.06,3.89 7.42,11.67 4.6,17.68 7.78,-4.24 2.83,-9.19 -1.06,-41.01 12.37,-10.61 14.85,-10.25 6.36,-4.6 4.6,-0.35 3.89,-7.42 9.55,-9.19 10.61,-16.62 3.89,-12.37 19.45,-18.38 16.26,-8.13 12.02,-10.25 8.84,-8.84 v -7.42 l 2.47,-24.75 v -5.66 l 14.5,-14.85 6.72,-4.95 6.72,-0.35 10.96,-8.13 12.37,-0.71 7.78,-2.83 6.36,-9.9 12.37,-9.55 10.61,-2.12 8.49,-10.61 7.07,-2.12 2.83,6.01 8.13,4.6 -1.41,-7.78 h 4.24 l 3.89,7.07 5.66,-2.12 5.3,-3.54 3.89,-1.06 6.72,3.18 2.83,5.3 4.6,3.89 19.45,-6.72 17.32,-0.35 24.4,-6.36 4.6,-10.96 21.21,-6.36 7.07,-6.36 7.78,-8.84 9.9,-7.78 21.21,-9.9 11.67,-7.42 24.4,-8.84 27.93,-11.67 19.8,-18.74 23.33,-14.85 H 2079.4 l 6.36,-5.3 -8.13,-9.9 -10.25,1.41 -2.47,-2.47 v -8.84 l 11.67,-3.89 4.6,-3.54 v -21.21 l -2.47,-3.89 2.83,-12.73 -14.5,-9.55 -0.35,-11.31 12.37,-10.96 11.67,4.95 5.3,-1.77 11.31,7.78 16.26,1.06 v 7.42 l 5.66,8.84 3.54,6.36 9.9,5.3 15.2,-1.41 32.53,-9.55 13.08,13.79 6.72,4.95 30.05,8.84 v 9.19 l 2.12,10.96 6.01,8.49 20.86,9.19 18.38,4.24 18.38,-1.77 18.74,4.24 36.77,-4.95 20.15,7.07 12.02,-2.12 40.66,-16.62 37.83,-18.74 30.05,-20.51 3.54,-11.67 10.96,-4.24 -0.35,-7.07 10.61,-0.35 22.27,-0.71 32.53,-9.55 35.36,-14.85 25.1,-12.37 37.83,-12.02 21.57,-7.07 h 15.2 l 20.51,-1.77 28.64,12.73 14.85,16.97 -3.54,16.62 -8.49,-19.45 -11.31,-10.61 -6.72,0.35 -5.66,13.08 7.07,12.02 4.95,10.96 26.52,25.46 8.84,3.18 10.61,-6.72 4.6,14.85 16.97,12.73 13.44,7.42 0.71,2.47 35,21.21 27.58,29.7 26.52,25.1 17.68,16.97 15.2,3.89 8.13,16.97 42.43,20.51 22.98,16.62 -31.82,-33.23 -2.83,-15.56 15.2,-3.54 -2.12,-5.66 -10.61,-1.77 -6.01,-5.66 2.83,-18.38 5.01,-0.08 4.5,7.75 v -7.5 l -0.75,-13.75 H 3022 l -11,-11 -9.25,-2.5 -13,-9.25 v -8 h 3.5 l -8.25,-8.75 -2.25,-5.75 -8.25,-8 4.75,-2.25 -4,-9.75 4.5,-1.5 -5.25,-9 -3.75,-3.75 1.25,-12 -14.5,-13.5 -23.25,-28 -8.25,-5.25 -16.5,-24 -16.5,-22.25 -9,-24.5 -5,-7.25 3.5,-0.25 12,-9.25 18.25,-21 35,-18.5 38.25,-15.25 15.25,-5.5 20.75,-19 19.5,-13 29.25,-9.75 5.25,8.75 3,13.25 21,41.25 1.25,13.5 8.25,22.25 V 5906 l 10.25,18.75 -2,8 16.75,23 8.25,3.5 21.75,38.75 5.5,18.5 8.75,14 16.5,22.25 7.75,10.75 14.75,7.5 32,30 7.5,3.25 43.75,2.5 35.5,-9.25 26.5,-3 27.5,-18.25 22.25,-14.75 7,-12 -10,-12.25 -5.5,-8.5 -1.75,-10.75 3.5,-9.25 19,-19.25 4.5,-0.5 20.5,0.5 15,-8.25 11,-15.5 9.75,-1 21,4 9.5,-5.25 1.5,-5.75 V 5951 l -3.75,-0.5 -2.25,11.25 -2.75,4.75 -7.75,-3.25 -13.5,-5.75 -12,-2.25 -5.25,0.75 -8.75,8.25 -9,2.75 -7.25,1.25 -2.75,5.5 -4.25,0.75 1.25,6.25 -3.25,2.75 -3.75,-1.25 -10.5,-4 -11.25,1.5 -11,3.5 -5.5,4.75 -2.75,7 -7.25,13.25 -1.25,5.75 1,5.5 -7,12 -13.75,3.5 -10.75,-9.5 -14.25,-9 -6.75,-3.5 -5,1.5 -12,9.5 -20.25,0.75 -9.25,-4.75 -21,-11.25 -34.75,-22.5 -12.75,-17 -21,-15.75 -22.25,-14 -18.5,-12.5 -11.25,-12 -7.75,-11 -5.25,-11 -16.75,-42.75 -3,-15.75 -2.5,-30 -34.25,-63.75 -6.5,-21.75 -10.5,-16.5 -7.25,-19 -9.75,-32.5 2.75,-11 -4.75,-14 -9.5,-2 -10,-13 -15.25,-15.5 -6,-11.5 -2,-12.25 0.5,-11 5.75,-22.75 3.75,-9.75 16,-32.25 21.75,-39.25 31,-48.25 9,-10.25 4.75,-14.5 40,-43.75 10.25,-16.25 1,-7.5 14.75,-5.25 7.25,-22.25 20,-14.5 0.5,-9 8,-7 -2.5,-4.75 2,-6 -1.5,-7.25 7,-9.25 13.75,4.25 5,6.25 12,-5.5 -4.25,-9.25 7,-3 10,9 3.75,-5.5 -5.5,-4.25 9.25,-7.75 34,-7.5 8.25,0.75 11,4.5 -6.5,-8 9.5,-6.25 80.5,-32 -1,-1.5 -55.5,17.75 -38.25,14.5 -21.75,5.25 -37.5,6.25 -12.75,1 -8.75,-8.25 -13.75,-5.75 -13.5,7.25 -5.5,3.5 H 3162 l -19.75,-1 -18.25,-7.25 -8.75,3 -6.5,-1 -21,-12.5 -11.5,-12.25 -12.5,-20.25 -10.25,-25.25 -6.75,-15.5 1,-26.25 2,-9.25 v -68 l 2.75,-39.25 7,-36 1.5,-32 1.5,-12.75 -5,-42.25 0.25,-14 2.75,-9 4.75,-3.25 15.5,-5.75 12.5,-0.5 11.5,-5.5 h 3.5 l 4.5,6.75 0.25,6.75 -7,5.75 2.25,5.75 1.25,25.5 -4,4.75 4,11.5 5.5,7.5 11.25,15.5 11.75,8.5 10,4.25 3.75,7.5 0.25,3.25 -3,4 -7.5,-0.25 3.25,16 -1.25,5.5 5.75,1.5 11.25,-2 v -5 l -7,-0.75 1.25,-8.75 6,-8.5 -2.5,-10.5 -12.5,-15.25 -5.75,-5.25 -3.25,-7.25 2,-8.25 -3,-5.25 -6.5,2 -0.5,-10.75 5.25,1 0.75,-5.75 -14.75,-24.5 v -22.75 l 12.25,-2 17.25,-11 45.25,-17.75 27.75,-1.25 2.5,7 13.5,3 20.5,-6 26,-28 10.25,-14.25 12.75,13.75 5.25,-17.5 -6.5,-8 H 3294 l -3.25,3.25 -14.5,-6.75 -8,-2.75 -5,-17 10.25,-7 -1.5,-16.25 7.75,-14 10,-5.5 10.5,1.25 5.25,4 10.5,-6 0.75,-13.5 4,-13 0.5,-27 -3.25,0.5 -3.25,13 -0.25,13.75 -5.25,17.25 -4.75,1.25 -12.5,-3.5 -6.25,4.5 H 3278 l -6,1.75 -4.5,7.25 -2.25,13.5 -6.75,7.25 -0.25,-10 -8,-19.25 -10.5,-6.5 -3.25,-9.5 -5,-21.25 -5.25,3.5 -3.25,-7.25 -4.5,3.25 -2.25,-7.75 -9,-10 3.25,-6.75 7,-5.75 12,-3.5 1,-11.5 -0.75,-10.25 11.25,-1.25 1.75,-13 6.5,-10.5 4,-9.75 2.5,0.5 7.25,-4.25 1.75,-6 -1.5,-5.25 7.5,1.75 4.25,-1.25 12.25,-9 10.75,0.5 9.5,-2.25 10.25,-13 17.25,-5.5 5.25,-22.75 2,-12.5 17.25,-21.25 7.19,-28.33 -9.55,5.3 -6.72,-13.44 v -9.9 l -6.36,2.83 1.06,9.55 -7.42,-9.9 -5.66,-15.91 v -8.84 l 3.54,1.06 -1.06,-12.02 -10.25,3.89 -6.72,-8.84 -3.18,-10.61 3.54,-9.9 -6.01,-15.2 -16.62,-10.25 -14.14,-3.18 -1.41,-4.6 v -17.32 l 4.24,-3.54 h 6.01 l 4.95,-4.95 8.84,-4.6 10.61,-16.62 13.08,5.66 6.01,-13.08 10.61,-7.78 2.83,-10.61 7.42,-3.18 6.01,-7.07 10.25,-9.55 -14.85,-26.16 -3.89,12.02 -2.12,20.51 -15.91,9.9 -16.62,5.3 -11.31,25.81 -35.36,7.07 -35.36,14.5 -7.07,4.95 -13.08,26.87 -3.54,11.67 -10.61,12.73 -5.66,2.83 6.36,19.45 -1.77,11.31 -6.72,-14.14 -7.42,-0.35 -4.95,-3.18 -10.96,12.73 -9.55,5.3 -6.01,-1.06 -11.67,3.54 -14.14,-12.37 -8.13,1.41 0.35,-8.13 -4.24,1.06 v -3.89 l 6.72,-6.36 -2.12,-7.78 4.95,-5.66 -1.06,-11.31 2.12,-6.72 -5.3,-0.71 -11.31,-7.42 -1.77,6.72 -24.4,-22.63 -1.06,-6.36 -6.01,-3.89 9.55,-4.95 1.41,-4.95 h 6.36 l 6.01,-3.18 -3.89,-12.02 -5.3,-4.95 -2.12,-10.61 -4.6,-4.24 -0.71,-13.44 -8.13,-6.36 -18.03,2.12 -3.18,8.49 2.12,7.07 6.36,0.71 12.02,6.72 1.77,9.55 -8.49,11.67 3.89,3.89 -8.13,8.84 -4.95,-3.54 -6.72,6.72 v 14.14 l 2.83,4.24 -8.13,7.42 -5.3,12.37 3.89,6.72 2.12,9.55 -3.18,19.09 -9.55,3.89 -10.25,12.37 -2.83,6.01 -3.54,4.95 -3.54,18.38 -2.12,5.66 -10.25,12.73 -5.3,4.24 -4.24,19.09 -14.5,7.07 -7.78,13.08 -6.36,4.6 -3.54,8.49 -33.94,30.76 -6.72,5.66 -9.9,0.35 -19.09,-16.26 4.6,-6.72 -8.84,-18.74 -27.58,16.97 -7.42,8.49 -8.13,-4.6 -13.08,-18.74 -4.24,-17.68 -2.47,-40.66 7.07,-36.77 2.83,-8.13 -2.83,-5.3 -7.07,-3.18 -2.47,8.84 -8.13,-14.5 -5.66,-7.78 2.47,-9.9 20.86,-4.95 h 15.56 l 10.96,-10.25 2.47,-13.79 -6.01,-7.42 7.42,-2.47 5.66,-24.4 -2.83,-2.83 -1.41,-13.44 4.6,0.71 4.95,-9.55 2.12,-10.25 10.61,-19.8 -7.07,-3.89 -1.77,-19.45 -13.44,-16.97 1.77,-8.49 -10.96,-13.08 -7.07,-5.66 4.24,-8.84 -5.3,-8.13 -0.71,11.31 -4.6,3.89 2.83,16.26 -6.36,9.9 1.77,7.42 -7.78,16.97 -13.44,14.5 -6.72,26.52 -7.78,8.13 20.15,7.78 8.84,11.31 -19.09,24.04 -8.49,-3.18 -8.13,-15.56 -2.47,8.49 h -10.96 l -10.25,5.3 -6.01,8.49 -17.68,4.95 -14.14,-2.83 -13.44,-17.68 -33.23,-59.4 -24.04,-36.42 -18.74,-21.21 -33.23,-62.93 v -14.14 l 3.54,-8.13 4.6,-2.47 1.06,-25.81 -12.02,-38.54 4.6,-24.4 7.42,-8.13 6.01,-11.67 v 15.91 l -1.41,8.84 6.72,6.01 15.2,-7.78 -14.85,-2.83 -0.35,-14.14 -4.95,-9.9 0.35,-11.31 -7.42,1.06 -9.55,-4.24 -7.78,9.55 8.49,3.54 3.18,10.61 -6.36,6.72 h -9.19 l -10.96,-11.67 -24.75,-36.42 -9.19,-16.62 -2.83,-13.08 -10.61,-16.97 -10.61,-19.09 -18.03,-19.45 -32.17,-44.9 -24.04,-30.76 -12.02,-10.96 v -4.6 l -16.97,-22.98 -7.6,-16.97 -12.02,-18.74 -16.62,-16.26 -4.6,2.12 -8.49,-1.24 -4.24,-7.07 -7.6,-19.98 -7.78,-2.83 -6.36,-18.74 3.54,-10.96 13.44,-3.54 6.01,-5.66 9.55,-2.83 9.55,-14.14 2.47,-23.33 5.66,-13.79 10.25,2.47 0.71,-6.36 -2.47,-1.41 3.54,-18.74 5.3,-7.07 0.35,-9.19 3.18,-3.18 -1.77,-9.19 -1.41,-6.01 2.47,-29.7 6.01,-3.54 0.71,-11.31 5.3,-6.72 v -18.38 h 5.3 l -4.6,-11.67 v -14.85 l -6.01,-19.09 v -16.26 l -4.24,-21.92 11.67,8.13 3.89,-12.02 5.3,-6.72 1.06,-10.25 12.02,-12.37 5.3,-10.96 24.4,-23.69 c 0,0 9.55,-17.32 10.61,-18.74 1.06,-1.41 7.42,-24.75 7.42,-24.75 l 1.77,-21.92 7.78,2.47 12.37,-22.27 15.56,-10.25 9.9,-9.9 12.73,-8.84 10.61,-15.56 15.2,-15.2 7.07,-17.68 1.77,-21.92 -0.35,-19.09 -7.07,-28.64 0.71,-11.67 9.19,-18.74 7.78,-21.57 16.26,-34.65 12.73,-59.75 13.08,-12.37 19.8,-30.05 13.08,-12.37 25.81,-11.67 6.01,3.89 -7.42,3.18 7.42,9.55 21.57,6.36 21.92,10.25 4.6,9.19 10.96,-2.83 -4.6,-22.98 4.24,-1.41 21.21,3.18 13.79,-17.68 1.41,-22.27 h -6.36 l -10.25,15.56 -10.96,1.06 -14.85,-8.13 -19.45,-7.07 -9.19,-10.61 -0.35,-7.42 14.5,-21.57 4.95,-1.77 13.44,-23.69 10.25,-2.83 33.59,-2.47 26.87,-17.32 20.15,-6.72 28.99,9.9 10.96,18.38 26.52,9.19 0.35,10.61 12.02,1.41 3.89,3.89 6.01,3.18 13.08,-2.47 21.21,4.24 15.2,-10.96 32.53,-14.85 6.72,-12.02 15.2,-0.71 -10.61,-9.19 -9.19,2.12 -21.21,22.27 -25.1,4.95 -5.3,7.42 -22.63,-4.95 0.35,-13.08 -5.66,-12.73 13.08,-9.9 6.36,6.72 1.41,-8.49 9.19,-5.3 -11.67,-2.47 v -4.6 l 5.66,-10.96 14.14,-4.6 -9.19,-3.18 5.3,-8.49 16.62,5.3 12.02,2.83 9.19,-3.18 2.47,-4.24 -3.89,-6.36 h 4.95 l 12.02,-17.68 14.85,14.5 -0.35,-14.5 -16.97,-7.07 -14.85,12.37 -18.74,5.66 -2.12,6.36 -13.08,-7.07 -21.92,6.72 -11.31,10.25 -19.8,14.5 -10.61,-1.77 -13.08,-10.61 -48.79,-14.5 -35,11.67 -5.66,5.3 -4.6,-6.36 -13.08,-1.41 -8.13,1.77 -2.47,12.02 h -10.96 l -32.88,-12.73 -22.98,-13.08 -9.9,-1.06 -14.85,11.31 -13.79,-2.83 -17.68,7.78 -32.17,-7.42 -19.45,-11.31 -23.33,-18.74 -5.3,-8.49 -6.01,0.71 2.47,7.07 -13.79,26.52 -19.09,11.67 -14.5,5.3 -31.47,-0.35 -31.47,-1.41 -8.49,-2.83 -25.1,-17.32 -1.06,-16.62 -17.32,-22.27 -3.89,0.71 1.06,38.54 -10.25,7.42 9.55,28.99 -11.67,36.77 -1.06,20.86 2.47,10.61 16.62,10.96 1.06,13.79 8.49,20.15 -7.42,11.67 -7.42,16.97 -20.86,14.85 -4.24,11.31 2.83,6.72 0.71,7.78 -14.14,3.54 -4.6,-8.13 -22.98,-3.54 -15.2,-5.3 -67.88,-2.83 -5.3,-7.07 -16.97,7.07 -9.55,-0.35 -6.72,3.89 3.89,5.66 -14.5,15.2 -3.54,11.67 -12.02,1.77 -11.31,13.44 -8.18,-0.41 -23,7.25 -2.5,-3.75 0.75,-9.75 -5.5,-6.5 V 2891 h -6 l -7.25,-7.25 -4.75,-1.75 -3.5,-5 -3.25,-17.5 -8,-6.75 -1.5,6.5 8,16.5 -5.25,-1 -3.25,-9 -7.25,2.25 7.75,15.5 -4,13.25 11.5,7.5 4.25,11.25 3.25,-4.25 4.25,8.75 -2,13.25 -8,0.75 -9.5,-6.5 -6,-10.75 -5.75,-7.5 -4.75,-7.75 V 2890 l -4.75,-2.5 -4.5,3.5 h -5.25 l -2.75,5 3.25,7.5 7,4.5 2.75,5.75 -7,-4 -2,1 4.75,6.25 4.25,0.5 8.25,11.5 -4.75,1 -11.5,-2.75 -7,-7.25 -7,4.75 -5.5,3.75 5.25,9.25 10.75,8 10.75,7.5 6.75,16.25 8.5,-2 4.5,5.25 -1.5,3.75 -7.25,6.75 -5,8.75 -14,2.5 -11.25,-2.25 -9.25,6 -5.5,14.5 -8,5.75 -10.75,2 -4.75,4.75 -19.25,6.25 -3.25,5.5 -24.25,11.5 -14.5,1.25 -2.25,5.5 -13.75,11.25 -6.5,1.5 v 6.75 l -3.25,7 -19.75,7.25 -9,-0.75 -10.75,-0.75 -1.75,-5.75 -11.75,-4 -6.25,7.5 -6.75,0.5 -1.5,-2.25 H 1893 l -6.75,-3.5 -4.25,5.5 -8,1.25 -6.25,0.75 -4.5,-6.5 -4.75,-2.5 -9,-9.25 -3.75,-3.25 -1.5,-10.25 0.75,-15.25 3.5,-6.5 5,-4.25 1.5,-7.75 6,-12.25 5.5,-5 0.75,-8.5 -1.75,-2.75 -3.25,-7 1.75,-4 -6.75,-10.25 -3.5,0.5 -2.75,4 -2.5,10 -4.5,2.75 -5.75,12.75 -3.25,-4 -0.5,-7.5 7,-15.25 7.75,-7.75 0.5,-7.75 -3.5,-6 2.25,-8 8.52,-0.47 -8.13,-5.3 -9.19,19.8 -10.61,14.14 -6.72,15.56 -8.49,3.18 3.54,17.68 -4.6,39.95 1.41,9.9 -2.83,12.37 4.24,7.07 -6.01,15.91 -20.51,-5.66 -2.83,-16.97 -14.5,-1.41 -1.41,-11.67 -9.19,13.79 h -9.55 l -18.03,-6.36 -8.13,-18.38 -7.78,2.12 -13.44,-13.79 -5.3,-17.68 1.77,-6.01 -8.49,-7.07 h -3.54 l -16.62,-9.9 0.71,-14.85 -8.84,-2.47 -4.24,-9.55 6.01,-22.27 -12.02,-4.95 v -4.24 l 4.6,-2.83 -3.18,-13.08 9.9,-12.02 12.02,-22.63 -24.04,3.54 -9.19,24.75 -6.01,1.06 -14.5,17.68 -5.3,2.83 -2.12,4.95 v 6.01 l -6.36,3.18 -24.4,-12.02 -15.56,-6.36 -9.55,2.47 -10.61,-9.9 -12.02,-1.77 -41.37,-25.46 -7.07,-4.24 -12.02,-26.87 -13.44,-4.95 1.77,-5.3 -2.83,-24.4 -13.79,-17.68 -3.89,-7.42 1.41,-7.07 h -4.6 l -4.6,10.61 10.96,20.86 -28.64,14.14 -5.3,8.13 1.41,14.14 2.83,10.25 -6.01,11.67 5.3,2.47 4.6,45.96 3.54,1.77 2.83,21.21 7.78,10.96 h 8.49 l 7.78,4.95 16.97,2.47 15.56,10.61 13.08,4.95 10.25,13.08 6.36,11.67 0.35,9.19 -2.83,13.08 -11.31,1.77 -10.96,-8.84 h -5.3 l -4.95,8.49 9.55,5.66 6.36,25.1 -7.78,0.71 -8.13,3.54 0.35,2.47 7.78,6.36 8.13,-3.89 3.54,9.55 -3.54,7.42 2.47,11.31 -4.6,7.42 0.35,4.95 -6.01,10.25 -1.77,12.73 3.54,5.66 -5.66,17.32 5.66,3.89 -3.89,7.42 3.89,8.84 6.36,3.89 h 6.36 l 2.83,12.73 -2.47,10.96 v 3.54 l -10.61,8.13 1.41,12.37 -8.13,-7.78 0.71,16.97 -10.61,5.66 -13.08,16.26 -10.25,5.66 -17.68,-2.47 -31.11,-22.63 -28.28,-11.67 h -10.25 l -25.46,-10.25 -24.4,-14.5 -18.38,-18.03 -7.78,-13.08 -9.55,-3.54 -4.24,-0.35 -0.35,-10.25 -12.02,-8.13 -24.04,-10.96 -9.55,-22.98 v -7.42 l -7.42,-13.08 -1.06,-13.79 -6.36,-9.19 -13.08,-17.32 -26.52,-9.55 -17.68,-11.67 -18.38,-12.73 -22.27,-11.31 -16.62,-19.09 -17.68,-18.74 -16.26,-10.96 -19.09,-4.24 -15.56,-0.35 -10.25,-4.6 -10.61,2.83 -21.92,-12.37 -6.72,-6.72 -8.84,-18.38 -13.44,-9.55 h -8.49 l -12.37,-7.78 h -22.63 l -24.04,8.49 -21.57,12.02 -17.32,12.02 -18.74,14.85 -22.98,20.15 -16.62,19.09 -8.49,16.97 5.66,15.56 -2.12,6.72 3.18,19.8 4.6,11.31 2.83,0.71 -2.47,26.87 13.79,10.61 2.83,20.51 10.96,10.61 -4.24,13.08 5.66,3.89 1.41,14.14 6.72,3.89 -0.35,13.79 6.36,21.57 -2.47,7.78 2.12,10.25 5.66,4.24 3.89,10.96 4.24,5.3 7.78,-1.77 4.24,10.25 7.42,3.54 8.49,5.3 4.24,-0.71 -12.02,21.57 -7.78,7.42 2.47,2.83 -1.77,28.99 3.89,10.61 2.12,12.73 -1.06,4.95 9.9,3.54 19.09,0.35 1.06,4.24 -8.84,5.3 -6.36,-2.47 -10.96,2.47 -8.84,-3.54 -3.89,-9.9 -9.55,3.18 -11.31,-4.6 -7.42,-4.6 -18.38,-2.12 -15.56,-12.37 -10.25,-12.37 -14.5,-17.32 h -8.13 v -9.55 l -3.54,-8.49 3.89,-8.84 -7.42,-3.18 -3.54,-13.08 1.06,-9.9 16.97,-14.5 12.37,-6.01 v -4.24 l -6.36,-3.89 -9.19,-14.5 -6.01,-15.2 2.83,-9.55 9.55,-2.83 -3.18,-13.44 h -9.19 l -10.61,-4.95 -15.2,0.35 -5.3,-5.3 5.66,-31.82 -16.62,-6.36 -7.07,-13.08 3.89,-6.01 4.6,2.47 v -4.95 l -3.18,-18.38 -4.6,-4.24 -6.36,-14.85 -9.9,-0.71 -16.97,-17.32 h -9.19 l 1.41,-19.8 -8.84,-6.01 -7.78,-11.67 -27.93,-14.85 -12.37,-24.04 -20.51,-4.95 -9.9,-14.5 -15.91,-16.26 -3.54,-11.31 h -9.9 l -13.08,-26.87 2.12,-5.3 4.24,-3.18 -0.35,-7.42 -7.07,-10.61 -15.91,-36.42 -9.19,-14.14 -4.24,-9.9 -7.78,-9.19 -3.89,-15.2 -1.41,-29.34 0.35,-35.36 V 2701.58 l 8.13,-18.74 -1.06,-10.25 v -7.07 l -7.07,-3.54 0.71,-8.13 6.72,-8.84 v -2.47 l 9.19,-16.26 v -10.61 l 3.54,-3.18 v -3.54 l 8.84,-7.42 3.18,-8.13 11.31,-2.47 9.55,5.3 6.72,-4.24 4.95,-4.95 10.25,-1.06 2.12,-7.07 16.26,-7.78 13.79,0.71 8.84,16.26 3.89,20.51 10.96,7.07 1.06,7.42 5.66,8.84 2.83,15.2 1.77,12.73 24.04,12.02 0.71,7.78 -7.42,2.12 -0.35,4.95 -10.96,-9.19 -13.08,8.49 -0.35,6.36 6.01,7.42 -2.47,10.96 4.6,17.32 3.18,19.45 -3.54,3.18 6.01,14.85 10.61,10.25 10.61,4.95 11.67,17.68 8.49,3.54 5.66,-1.06 5.66,4.95 14.5,-9.55 13.44,-12.37 2.83,-12.37 -3.18,-16.26 -4.6,-17.68 -10.96,-14.5 1.06,-18.38 -13.44,-18.74 -3.18,-17.32 -14.5,-6.36 4.24,-9.55 -7.42,-9.19 -2.83,-19.45 -8.13,-21.21 -13.08,-20.51 -7.42,-36.42 9.19,-21.21 2.47,-27.58 20.51,-37.12 9.55,-24.04 16.62,-10.61 5.3,-35.71 8.13,-11.31 7.42,-39.6 -0.35,-17.32 9.19,-16.26 24.4,-20.86 34.29,-22.98 8.49,-16.97 19.09,-42.07 25.81,-27.93 17.32,-23.33 8.13,1.77 8.13,-8.49 7.42,-14.14 -1.14,-17.96 -1.81,-17.04 6.09,-18.63 4.3,-4.35 9.16,-29.4 9.12,-11.22 L 923,1995 l -2.67,-19.62 -0.35,-8.13 -2.47,-22.27 -6.36,-12.02 1.06,-5.3 3.18,-3.18 7.07,-7.42 13.44,-8.13 6.01,0.71 11.31,-9.9 1.06,-15.56 5.3,-8.49 18.03,-10.61 9.55,-3.54 6.36,-6.36 3.18,-3.89 4.95,-18.03 -2.83,-17.68 2.12,-7.42 -2.19,-19.65 4.25,-20.75 6.5,-7 7,-6.75 6.5,-18.25 6,-4.25 11.75,-10.5 4.25,-4 7.5,-3.25 8.25,1 5.5,-5.75 2.75,-8 15.75,-0.25 4,2.25 7.25,-0.75 9.75,-4.25 7.75,-7.5 21.25,-3.75 10.25,-5.25 8.5,-29.25 0.75,-30.75 13.5,-7.25 3.25,-11.25 1.75,-22.25 3.75,-1.75 3.25,-10.25 -1,-17.5 -10.5,-26.25 -5.25,-7.25 -17.25,-12 -9.25,-25.25 -9.75,-8.25 -6.75,3.5 -17.5,-12 0.75,-9.75 8.25,9.5 6.25,0.25 10.75,-4.25 h 3 l 3.25,-1.25 -0.75,-11.25 1,-16.25 -2.25,-8 1.75,-11 -7.25,-20.75 -14.75,-26 -19.25,-22.25 -10.5,-12.25 -34.5,-26 -16.5,-6 -5.75,2.25 -1,-10 -27.25,-11.25 -5.5,-0.25 -13.25,8 0.5,-4.25 -2.75,-0.75 -4,4.25 -3,-1.75 3.25,-8 -5.5,2 -6.25,-7.5 -10,-2.75 -5.5,4.5 -11.25,-4.5 0.75,-5.5 3.75,-0.75 5,1.75 v -2 l -7,-12.25 1.5,-9.5 -9.75,-12.5 -2,-8.5 -16.25,-16.25 -8.5,-10.75 -4,2.5 -2.25,-7.5 v -4.5 l -6.5,-9.75 -14.75,-11.75 -5.5,-3.5 -2,-3.25 -14.75,-7 -8.25,2 -5.5,-12.25 1.5,-10 3.5,-25.5 -1.75,-10.75 3,-4.75 6.75,-6.75 10.5,-2.75 0.5,-5.25 -10.75,-10.5 6,-8 9,4.75 -0.75,15.25 10.75,-0.25 6,-29.25 -5.75,-7.5 2.5,-2 5.5,7.5 9.5,-1.25 3.5,-22.75 -3.25,-17.5 4.75,-5.75 -0.5,-13.25 -5.75,-2.5 -0.75,-14.25 -12,-19.5 1.25,-16.25 -9.25,-9 -7.75,-17 -6.5,-32 -3.25,-29.25 4,-14.25 -2.5,-31.25 2.25,-43.75 -7,-9.75 -3.25,-10.75 3.25,-10 16,-13.75 1.75,-9.5 9,-4 -4,-5.5 h -4.25 l -3.5,-6.75 4.75,-11.5 3.75,-1.75 -1.5,-20.5 -4.75,-6 -1.25,-6.25 5.25,-17.5 9,-3 19.75,-15 28.25,-7.75 11.5,-14.75 4.75,-0.5 6.5,10.75 7.75,-0.75 7.75,-9.75 8,-0.5 20.5,5.25 16.25,9.5 13,19.25 17,2.25 24.5,9 11.25,2 35.5,13.5 10.25,2 23,0.25 2.75,2.25 6.5,0.5 18,-2.5 26,11 10.75,0.5 26.5,9 31.75,-0.75 24,1.75 10.75,-5 13.75,3.25 19.75,-5.25 14.5,4.75 14.5,10 3.75,-2.75 -12.5,-11.25 -19.75,-9 -19.75,3 -11.5,-1 -3.25,-4.75 -35.25,-3.75 -11.75,-7.5 -7,4.25 -4,-7 h -20.75 l -19,-12 -19.25,-8 -8.25,-7 -12.25,-0.5 -26.75,-18.5 -15.25,4 -10.25,-10.25 -10,-17.25 -4,0.5 -3,5.75 -13.75,2.25 -5.5,-8 3.75,-11.25 -6.5,-29.75 -8.5,-14 -14.25,-10.5 -20.5,-5.25 -17.25,-5.25 -2.25,-3.25 -2.5,-9.5 -9.5,-2 -5.25,0.5 -4,-3.25 -6.5,-0.25 -6.5,3.25 -0.5,-2 4.75,-5.25 -1.75,-12.5 -3.75,-8.75 -4.5,-4.75 -16.25,-32 -12.75,-18.5 -1,-10.25 1.5,-14.25 -0.25,-4.5 -9.5,-4.25 -3.25,-21 -3.75,-0.75 H 922 l 1,9.25 -3,7.25 V 358 l -4.25,14 9.5,24.75 3.75,11.25 8.75,26.5 10,15.25 5.5,11.75 6.5,7 12.25,1.75 v 6 l -1.75,4.5 3.75,3.75 1.5,4.25 3.25,5.75 9.5,2.75 7.25,-6.5 6.25,5.75 2.5,6 1.75,4.25 -3,1.75 -3,0.75 1.25,6.5 5.75,3 -3,6 -5.75,1.5 -9.5,-2.75 -5,5 L 972,531 h -6 l -3.75,3.5 -5,1 L 945,530.75 933.5,534 921.75,533.75 906,524 l -4.75,-7.5 2,-15.25 -2,-10.5 L 886,472 l -2,-12.5 3,-17 -2.5,-14.75 1.75,-7.75 -5.75,-15.5 -5.5,-1.25 -6,-10.5 1.25,-19.25 13.5,-24.5 6.5,-21.75 10.5,-25 5,-12.5 4.75,-4.5 9.75,-29 8.25,-8.5 8.5,-7.75 6.5,-16.25 4.25,-22.5 12,-25 21.25,-31.5 1.25,-7 5.25,-8.25 2.25,-12.25 6.25,-4.75 7,-16.5 8.25,-2.75 13,-12 2.25,-4.25 5.5,-17.25 -3.5,-2.25 h -2.75 l -4,7.75 -6,10.25 -9,3.5 -15.5,11.5 2,6.5 -5.5,4.5 h -3 l -2,4.5 -5.25,3 -2.5,18.25 -5.25,3 -0.25,3.75 -4.75,9.75 -8.75,14.25 -8.75,11 -1,9 -2.25,1.25 -3.5,11.75 -6.5,6.75 -1,15 -2,5.75 1,7.5 -5,9.75 h -7 l -6,8.25 -5.75,5 -3.75,7.25 -1.75,2.5 -4.5,16.75 -5.5,9 -5.5,-1.5 -6.25,-7.75 -13.5,1.25 -7,-14.5 -1.25,-10.5 -2.25,-6.25 -0.75,-12 2,-11 7.5,-11 0.5,-22.75 -9.25,-20.5 -4,-2.75 -9,-20.25 0.5,-9.5 -12.75,2.75 -5.25,9.5 4.25,3.75 3.25,11.25 12,20.25 0.5,3.75 -0.75,8.25 v 10 l -1.25,8.25 -7.5,10 -1,8 -3.75,13.5 4.5,5 0.25,11.5 10.25,15.5 6.5,2.5 4.25,5.5 4,0.25 4.75,8.25 7.75,3 2.25,4.75 1,8 -0.75,8.25 -4.5,4.25 -0.5,5.75 -2.75,2.5 -1.75,8.25 -5.5,4 -1.75,7 -2,4.25 -10,22.75 -17,10.75 -1.25,5.75 7.5,9.25 -1.5,7 2.75,6 v 3.75 l 0.25,4.5 -0.75,7.25 4.5,6.75 4.5,18.75 -4.25,6.5 V 474 l 5.25,8 4,20 1,8 -0.25,11.25 -3.5,14.75 -5.75,-0.5 -11,-6.75 -6.5,-0.75 -3.25,-5 -12,-1.25 -10.75,-12.25 -8.5,-1.75 L 781,497 l -0.75,12.75 -9.5,5.75 6,8 13.25,13 3,2 11.5,-0.5 4.5,-0.5 12.25,8.5 8.5,4.25 6,7.75 1.5,12.25 -3.25,15.25 -9.25,14.75 -5.75,3 v 5.25 l 1.25,5 -11.75,4.75 -2.75,12.25 -3.25,10.5 v 10.25 l -10,25 -2,9.5 -2.5,9 0.25,15 -4.5,10 -10.25,20 -12.25,12.5 -4,9.75 -6,25.25 1.25,6.25 -7.5,-1.25 -4.75,-5.5 -4,2.75 -25.75,-3.75 -8,1 -2.5,-8 -13.75,-0.5 -2.75,2.75 -6.25,-7.75 -2.5,2 -1.75,-3.75 3.75,-21.75 -7.5,-20.75 v -16.5 l -1.75,-20 -8.75,-24 2,-15.25 -6.5,-9.25 -0.25,-7.25 -10.75,-35.25 -8.75,-13.25 -10,-9.25 -13,-4.5 -11.5,-14.75 v -10.5 l -7,-23 -4.5,-11.75 -0.5,-4 -7,-7.5 v -4 l 3,-0.25 -1.75,-17.75 -5.75,1.5 -1.75,5 1.5,5.5 -3,11.75 2,9.75 8.25,18 3.75,27.75 8.25,15.5 4,0.75 5.5,11.25 9.75,9 9.25,27.25 6,7 0.25,13.5 3.75,20.25 2.5,4.75 0.25,14.5 2.25,17.75 V 710 l -5.25,7.5 -13.5,-1 -10.5,-4 -5.75,1.25 -11.5,-6.25 -26.25,-27.75 -5.5,-3 L 553,666 l -9,-3 -8,-12 h -3.75 l -4.5,-8.25 -10.25,0.5 -4,-3.25 1.25,-5 -4.5,-5.75 -4,1.75 -0.75,-8.25 -4.25,-7.25 -1.5,-7 5.5,-19 -3.25,-19.5 -0.5,-6.5 6.5,-6.25 -6.5,-9.5 v -5.5 l 3.5,-3.5 -2,-2.5 -6.5,4.25 -0.75,5.5 -2,2.5 v 8.75 L 490,561 l 1.5,15 -2,4.75 1,8.75 -1.25,2 -0.5,11 -3.5,13 1.5,8.25 7.5,9 1.25,3.75 -4.25,4 0.75,2.75 -6.75,8.5 -6,26.5 h -7.75 l -5.5,0.75 -2.75,7.75 -14.25,13 -7.25,8 -2.25,12.75 v 9.25 l 4.25,7.25 14,24.25 14,42 5.5,3.25 0.75,3.75 -0.25,10.5 1.5,14.25 7.75,6.25 1,12 -3,10.5 -3.25,6.75 -6.75,-2.75 -7,0.75 -8,-16 -5.25,-9.75 -7,-2 -5.5,2.5 -13.25,-4.5 -3.25,-18.25 -8.75,-5.5 -9,-0.25 -0.5,6.5 -6.75,1.75 -19.5,-2 2,-16 -4.75,-1.25 -10.5,10.5 -14.5,-0.75 0.25,-8.5 -5.5,-2 1.5,-12.25 7.25,-14.25 -13,-8.25 4.75,-8.5 -6.75,-2.5 -4.5,2.75 v -9.75 l -4.75,-6.75 -4.5,0.75 -2.75,4 -1.25,-10.25 -4.5,-2 -4.75,4.5 -3.25,-3 1.25,-13.5 -3,-4 -5.5,-3.25 12,-12.5 -8.75,-7.5 v -9.5 L 318,668 l -5.25,-2.75 -1.25,-10.5 6,-12 -1,-13 7.5,-16.25 8.5,-19.25 -5.5,-14.25 -8.25,-2.75 -6.75,-10.5 0.5,-16.25 8.25,-11.75 -2.75,-19.25 -0.25,-12 9.75,-7 2.5,-10.5 5.25,-4 0.75,-6 9.5,-1 7.75,-7.5 2.75,-11 9.75,-10 -1,-9.5 11.75,-21 -1.25,-10.75 12,-27.75 17.5,-16 v -8.25 l 4.75,-3.25 0.75,-8.5 24.75,-22.25 v -3.5 l 26.25,-26.25 6.75,-7.75 2.5,-8.75 10.75,-6.5 -5,-3.75 2,-11.75 -4.75,-4.25 3.25,-6.5 -0.25,-6.75 3.75,-3.25 6.25,-12.75 24.25,-14 9.5,-3 12,-6.75 1.5,3.75 9.25,1.75 12.75,-8.75 h 6.5 L 584,177 l 27.25,-18.5 17.25,-18.25 -4,-8.5 10,-37 7.25,-18 11.5,-15.5 1.25,-9 34.25,-32.75 14.75,-8.75 15.75,-9 h 10.25 l 5.75,-7.25 10.75,-1 12.5,-8.5 6.25,-10.5 5.25,-4.75 7.5,-2 2.25,-4 7.25,-2.25 3.25,-10.25 8.5,-4.75 4.5,-0.5 19.5,-25.5 -18.5,0.25 V -74 l -9.75,12 -11.5,8.5 -20.5,7.25 -13,11.75 -19.25,13.75 -8,-0.25 -21.25,5.5 -15,9 -9,3.5 h -6 v -18.25 l -3.75,-8.5 -4.5,-0.25 -5.75,10.25 -17.25,17.5 1.5,7 -5,5 L 636,20.5 624.5,31.25 h -3.75 l -3,7.5 L 614.5,54 603,65.5 l 0.75,5.5 -3.25,10.5 1.25,15.5 -3.5,17 -9.25,11.25 -2.75,9 -6.25,5.75 -11.75,14 -16,9.5 -6.5,-1.75 -16.25,3 -12.75,10.75 -18.75,3.75 -18,15 -4.25,4.75 -8.25,4.5 -9.25,13 -12,7.25 -1.25,8 -8.75,7 -4.75,5.5 -8.5,12 -1,12.75 3,2.75 -7.75,11 2.25,4.75 -0.25,4.5 -6.38,4.75 -6.38,-1 -2.5,4.75 -15.75,10.25 -8.25,12.75 -3.25,11 -2.25,21.25 -6.75,6.5 -17.5,13.75 -10.75,-4.25 -0.75,-18.25 -4,-0.5 -6,0.75 -1.75,8.75 5.5,7.75 4.75,5 -9,8.25 -8.25,7.75 V 398 l 4.25,5 -1,27 -7,12.75 -2.75,10.75 -9.5,-1.75 -3.25,-3.75 h -7 l -3,4.75 -0.75,11.25 -6,8.5 -13.75,17.5 -4.75,-3.25 -6.25,2.25 -4,-3.25 2.5,7.25 -8.25,10.75 -2.5,-2.5 5.5,-10.75 h -3.25 l -5.5,6.25 H 239 l 0.25,-10.25 -8.25,-5.5 -9.25,-1.5 -5.5,-4.5 -2.75,-9.25 1,-15 -3.5,-7.5 -0.5,-20.25 -4.75,-1.75 -3.5,0.25 -5.25,15 -4.25,20.75 -0.5,9 3.25,7.5 -5.5,6.25 2.5,14 -0.75,5.75 3.75,19 -0.5,13 0.75,5.25 -4.25,11.5 1.5,6.25 -2,5 3.75,16.5 2.75,12.75 10.75,5.25 6.5,13.5 1,10 -0.5,12.25 4,12.25 1.5,9.25 -0.75,8.75 2.75,7.25 v 10.75 l 2.5,8.75 v 4.75 l 1.25,11.5 -0.5,11.25 -0.75,8.25 5.25,6.5 3.75,1.5 4,-3.5 8.5,11.25 -3.5,2.5 -5,-2.25 2.25,9.25 14.75,27.5 -4.75,0.25 -4,3.75 -4.5,0.25 v -3.5 l -10,9.25 1.75,3 9,-4 11.25,-0.5 16.5,10.75 -0.5,7.25 8.5,13.75 10.5,5.25 4.5,12.5 10.5,20.25 15.25,10.5 10.5,20.5 0.75,12.75 9.5,12.5 -0.5,8.5 5,6 1,19.5 6.75,9.25 0.5,10.25 -5,5.5 1,6.5 -5,15.5 -8.25,9 -13.5,-1.5 -13.5,0.5 -11.25,12.25 -10.5,7.5 -27.25,11 -3.75,0.75 -13.25,15.5 -7.75,17.5 -13,7.25 -4.5,7.5 v 4 l -10,11 -2.75,8.5 -14.5,20.25 2.5,6.5 1,9.5 1.25,2.75 -4.25,24.75 -12,5.75 2.25,10.75 -5.75,13 0.25,7.5 -4.25,9.75 v 4.5 l -4.25,11.25 -0.25,12.25 -13.75,13.25 -0.75,5.5 3.25,6.25 -0.5,6.75 2.75,4 -1.25,15.25 1.75,10.5 -1.5,5 1.5,6 2.75,25.25 4.25,16.5 4.25,9 h 7.5 l 1.25,3.5 -0.25,10.25 -5.75,1 6.5,9 -0.25,12 -9.75,8.5 -5.25,-18 -19.25,3.75 3.75,7.5 -2.5,5.75 -5.5,3 -3,7.5 4.75,5.75 2,6.75 -6.75,16.5 2.75,9.75 -3.5,7.25 1,10.75 5.5,8 -3,4 0.25,11.25 -7.75,1.25 -6,5.75 v 8.25 l -0.5,17.5 -9.75,20.25 5.5,11 -8.25,3.25 -0.75,6 1.25,7.25 -0.5,6 5,2.5 -2.5,3.75 -13.75,4.25 1.25,12.5 -7.75,0.25 -9,13.25 -7.5,4.5 -3.5,9.75 0.75,13.75 0.5,5.5 -2.75,13.25 -2.75,9 -4.75,2.75 -2.5,5.5 0.25,7 5,3.25 0.5,3.5 -8,0.5 -13,15.25 L 31.75,1719 23,1713.5 7.5,1712.75 6,1715 l 10.25,15.75 8.5,4.75 4.5,4.75 11.25,1.75 9,-1.25 2.5,-9 0.75,-8.75 18,-7.25 8.75,-6.25 8.75,13 -7.5,2.75 -9.5,1.25 -5.75,-7.5 -11.25,4.75 1,9.5 11.75,-1.25 3.75,4.75 5,22 3.75,0.5 1.5,5.75 13.75,13.75 2.25,7.5 1.25,2.5 2.25,14.25 10,33 -3.5,7.75 -1,7.5 -4.75,7.5 -12.5,22 -4,2.25 -9.25,12.5 -0.75,4.5 -9,11.5 -9.75,5.75 -1.75,14.5 -5,1.75 -8.25,7.25 -10.75,4 -17.5,16 -10,6.5 -12.25,-1 -2.5,2.25 -10.5,-2 -0.5,-845.5 3.75,-0.75 6,-7.5 L 1,1084 l 6,-15.5 4,-10.5 -2,-7.5 4.75,-1.25 16,-17.5 L 28.5,1022 41.25,1005 48,993.25 h 3 l 3.75,2.5 11.5,-1 14.25,-17.5 9,-4 11.75,-12 8.25,-3 4.5,-9.25 -1.75,-3.5 9,-12 5.25,0.5 11,-8.5 6.25,-6.5 4,2 6,-5.25 1.25,-10.5 10.25,-8 2,-11 -6.25,-4.5 13.75,-18.5 11,-16.75 5.25,-2 -0.25,-11 -3.25,-0.75 1.75,-10.25 16.5,-19.25 -4,-6.25 -14.25,14 1.75,5.5 -7.75,10.25 -1.5,10.75 -9.5,12.75 -7,-2.25 -4,3.5 -1.5,13.25 -8.75,14.25 -6.25,7.5 -11,5.5 -14.5,20.5 -7.25,7.5 -4,13 -10,4.25 -17,19.5 -6.75,1.5 -12.25,11.25 -15.75,9 -8,-0.25 -1.5,4 -14.5,12.5 -12.25,6.75 -13.5,8.5 L -9,1007 -5.75,996.75 -9.5,990.5 -7,984.75 4.75,975 -6.5,974 -15,964.25 -12.75,956.75 -2,948 l -5.25,-6.5 -15.75,6.25 0.5,-211.5 9,-9.75 -3.5,-9.25 2.75,-7 8.75,-3.75 v -8.75 l 10.25,-19 9.25,-3.5 3.5,-0.75 9.75,-6.25 3.25,-14.25 14,-13.75 -4.75,-9 -6.5,-1.5 -12.5,13.5 L 8,651 l -3.5,-1.5 -6.25,2.25 -6,8.25 h -4.75 l -3.5,9.5 -6.5,8.5 -3.5,-133.5 6.75,-3.5 8.25,-13.75 0.75,-11 L 3.75,497 14,477 h 4.5 l 14,-3.25 5,-6.25 11.75,-23.5 h -4 L 36,456 h -4 l -14.25,11.5 -0.5,-0.75 4,-7.5 -2,-0.75 -5.25,7.25 -0.75,-2.25 9,-15 21.25,-25.5 8,-12.75 -27,22.75 4.5,-14.25 h -3.5 l -4.25,10.5 -3,3 L 15.5,442 2,445.5 5,438.75 26,411.5 29.5,398.75 37.75,386.5 35.25,383 22.5,397.25 v 5.5 l -9.75,20.25 -16,22.75 -7.5,2.25 -4.75,-5.5 -7.25,3.75 2.75,5.75 9.75,3 6.5,2.25 -3,8.75 -16.25,25.25 -1.5,-44.75 2.25,-66.5 11.5,-17.75 1.25,6.75 10.25,-17.25 3,-10.25 6.75,-8.5 4.75,-13 8.75,-6.75 2.5,-11 7.25,-1.5 9,5 3.75,4 4.5,-0.75 7.75,-7.5 8.25,2.25 5,7 -3.5,14.25 13,10.75 13.5,3.75 -3.25,-10.75 3.5,-11 -10,-3.25 -10.25,4.25 5.75,-11 8.25,-7.5 0.75,-8.5 5.5,-1.75 -1.75,-4.25 -5,-6.5 -5.5,3.25 1,-5.75 -4,-0.5 -9.5,7 -7.75,-2.75 9,-16.25 -5,-4.5 -11.25,14.5 1,-9.5 -8,-4.25 -0.25,-5.75 5.75,-13.5 1.5,-9.75 7,-6.75 1.75,-12.75 5.25,-7 3,-15.75 6.75,-5.25 15.25,-25.25 4,-3 9.5,-19.25 -1.25,-10.5 7.75,-13.25 11,-8.75 -5,-8.25 -8.75,-4.25 -15,4 -2.25,9 -10.75,10 -9,8 -2.75,11 -11.75,10.25 -18.5,15.5 -7,3 2.5,3.75 -5,19.25 -12.5,8.75 -0.75,8.25 -0.5,3 -7.5,10.25 -9.25,3.75 -5,-1.75 H -5.5 l -0.75,-4.75 14,-24.5 12.5,-10.75 v -6.25 L 17.75,171 8,184.5 5.75,181 l 7.5,-23.75 -2.75,-2 -5.25,7 -1.75,-3.5 6.5,-13.5 12.75,-9.5 3.5,2 1.25,-4.5 -5.25,-7.25 9.75,-17.75 3,2 5,-7 -0.5,-6 4.75,-4.5 V 83.5 L 53.75,69 58,59.75 V 48.25 L 72,41 l 5.25,-8.25 -3,-3.5 L 71,3.5 60,-1.75 l -5.75,6 -5,-8.25 1,-7.25 12.25,-4.25 6.5,3 11,-4 6.25,-11 6.25,1 5,-4.25 -1,-5.75 5,-0.75 5.5,5.75 h 6.5 l 3,-12.25 12.25,-5.75 3.5,-3.25 15.25,3 v -2.5 l -11.25,-8.25 -5,-4.75 2.25,-13 -15.25,0.5 v 7 L 108.5,-57 107.75,-62.5 101,-63.5 88.5,-54 77,-56.75 h -5 l -16,-3.5 -3.25,3 -9,10.25 H 40 l -2.5,9.75 -7,3 -8,-3.25 -8.75,2.5 -2.5,-7.25 0.75,-9.25 7.25,-13.25 -2.5,-3.75 2,-11.75 -29.25,1.75 -5.25,7.5 -6.75,1.5 v 19.25 l 6.25,-2.25 5.25,-11 8.25,-7.5 4.5,10.25 V -53 l -6.25,7.75 V -40 l -11.5,1.25 -1.5,-4.75 -1.25,2 1.25,8.25 5.5,-0.25 1.25,11.25 -6.75,20.25 -6.5,8 -1.5,-71 0.75,-18.25 182.23,-4.35 243.27,4.35 -2.5,8.5 -5.25,8.5 1.25,3 -6.5,8.75 0.5,5 -1.75,3.25 0.75,10.5 1.5,12 -9,-0.25 -1.75,3.5 -2.5,3.25 -4.5,11 -4,1 -3,6.75 h -3.25 l -2,2 -6.25,5.25 -2.25,8.25 -3.25,5 -10.75,9.25 h -2.75 l -12.75,11.25 -6.25,2 -16.25,17.5 -17,10.5 h -4 l -4.75,0.5 -13.75,9.75 v 5.5 l -6,7.75 -1,-6.5 h -3.5 l -6.25,7.75 -4.5,2.25 h -3 l -3.75,3.25 -12.75,-2.5 -3,6 h 2.5 l 1.75,-3.25 10.5,2.75 v 1.5 l -1,5.25 9.25,0.5 2.25,-2 5.75,0.75 15.75,-6.25 1,-3.75 6.5,-2.5 4,0.25 6,-6 L 308.5,75.25 325,65 335.5,57.25 349.25,42 365,33.25 l 3.5,-5.5 2,-1 20.25,-26.25 -2.25,-5 7.25,-9.25 8,-5.25 1.75,-8 h -2.75 l -1.25,-9 1.75,-8.75 10.75,-11.75 -1,-2.25 8.25,-13.25 -4,-6 4,-4 420.01,-4.19 z"
     id="path4152" />
  <path
     id="path1351"
     d="m 9015.5,12323.5 -665.75,-0.5 15,-23.5 21.25,-14 34.75,-26.25 9.75,-10 10,-16.25 13.5,-39 19.5,-69.25 11.75,-26.25 22.5,-36.25 26.25,-14 35,-14.25 11.75,-0.25 -13.25,11.75 -3,3.5 10,12.25 v 8.75 l 34.5,26 21.5,-13 16.75,1 16.5,7 10.75,9.25 3.5,10.25 4.75,2 20.25,3.25 6.25,-6.25 11.75,-20.5 -12.5,-8 -0.5,-5.5 11.25,-8.25 -8.5,-14.5 -40.05,-19.13 -15.2,1.06 -10.25,6.72 -10.25,-9.55 -12.73,-28.64 -9.55,-14.14 -6.36,-11.67 1.77,-7.42 -6.36,-7.78 -48.44,-1.06 -7.07,-6.72 -3.89,-21.92 v -22.63 l 6.72,-63.29 6.36,-49.14 2.83,-29.7 10.96,-10.96 8.13,6.72 -4.95,7.42 57.63,-6.72 14.5,-8.13 1.77,8.84 8.13,6.72 0.71,-14.5 -7.78,-12.02 -7.42,0.35 -8.13,3.54 -6.01,-3.18 -8.13,-10.61 -4.95,2.48 -4.6,-5.3 -9.55,2.48 -7.07,-2.12 -0.71,-8.84 -3.89,-11.31 -10.61,-13.08 -11.31,2.83 -3.18,-7.42 1.41,-9.55 6.01,-22.98 7.78,-33.23 3.89,-40.66 8.49,-68.59 -2.47,-54.45 6.36,-28.64 6.72,-7.07 10.61,8.48 -3.89,4.6 7.78,10.25 10.96,-2.83 22.27,24.75 10.25,1.77 -7.78,-6.01 -9.55,-25.1 -5.66,-5.66 -6.01,-7.42 -8.49,-2.12 v -16.26 l -18.74,-19.45 -14.5,-18.74 -0.71,-10.96 1.77,-18.39 0.35,-34.65 v -57.27 l -2.12,-22.63 -3.89,-26.52 -8.84,-45.96 -4.95,-27.58 8.84,-15.2 5.3,-22.27 7.07,-20.15 9.55,-6.36 7.42,8.13 v -10.61 l 3.54,-32.53 4.95,-5.3 2.83,-12.37 5.3,-19.8 -2.83,-29.7 4.95,-7.78 -8.49,-30.76 -15.56,-36.42 2.47,-3.89 -10.61,-41.37 -4.95,-9.19 4.24,-28.99 2.12,-4.6 24.75,2.83 20.51,-4.95 25.1,-9.55 23.33,-20.51 20.51,-25.81 15.91,-24.75 21.21,-20.15 5.64,-6.52 30.25,-24.75 50.25,-25.75 34.5,-7.25 26.25,-7 15.75,-7 7.25,-10 21.25,-4.75 9.25,-11 10.75,14.25 12.5,-3.25 20.5,-17 24.5,-4 z"
     style="opacity:1;fill:#ffffff;fill-opacity:1;fill-rule:nonzero;stroke:none;stroke-width:2;stroke-linecap:butt;stroke-linejoin:round;stroke-miterlimit:4;stroke-dasharray:none;stroke-opacity:1" />
  <path
     id="path1311"
     d="m -24.24,3905.08 19.45,-15.2 9.19,6.72 20.51,-14.14 6.36,4.24 12.02,-2.83 2.47,8.49 -8.84,13.79 8.84,4.95 0.71,8.13 8.13,-2.83 -3.18,-6.72 0.35,-8.84 8.84,-1.77 9.55,15.56 4.24,16.97 -6.72,3.18 2.12,11.31 3.54,4.95 v 13.08 l 4.95,3.18 3.18,10.25 -6.01,11.31 6.01,8.84 -2.83,17.32 22.63,11.67 -3.89,8.49 -15.2,-6.36 -0.35,7.42 -14.5,6.36 -3.54,21.57 -7.78,19.09 -16.26,24.4 -13.44,7.78 -11.31,21.57 -12.37,-14.14 5.3,21.57 -12.02,19.8 -10.25,0.35 0.35,-15.91 -12.37,-2.47 z"
     style="opacity:1;fill:#ffffff;fill-opacity:1;fill-rule:nonzero;stroke:none;stroke-width:2;stroke-linecap:butt;stroke-linejoin:round;stroke-miterlimit:4;stroke-dasharray:none;stroke-opacity:1" />
  <path
     id="path1309"
     d="m -17.53,3275.4 15.56,7.78 8.49,-4.6 7.78,-0.71 5.66,5.66 7.42,-6.72 9.9,6.36 2.83,11.67 15.56,18.03 16.26,12.37 9.9,2.83 -2.12,7.42 5.66,12.37 7.78,0.35 3.89,13.44 -6.72,12.37 -1.06,22.27 4.6,9.55 4.6,14.85 7.42,25.81 15.56,8.84 4.6,25.1 8.84,4.6 h 6.72 l 14.14,27.58 -1.06,18.74 -7.42,14.85 3.54,10.61 1.06,13.08 2.12,9.19 7.78,4.6 3.89,10.96 -3.18,13.08 3.89,5.66 3.54,19.09 7.07,21.21 22.27,13.44 4.24,-2.83 4.95,6.36 -0.71,8.49 -7.07,11.67 -1.41,3.54 1.06,6.01 6.36,3.18 -0.35,15.2 -4.95,7.78 4.95,5.3 v 4.95 l -18.74,9.19 -4.6,24.75 -11.31,1.77 -13.79,9.55 -3.89,9.55 v 4.24 l 7.07,5.3 2.47,9.55 6.01,1.41 4.6,11.31 -2.83,28.64 7.78,10.25 -2.47,14.85 -3.18,6.36 -6.01,1.41 -6.36,-2.12 h -9.55 l -9.19,14.5 5.66,5.66 -1.06,6.36 -6.36,0.71 -1.06,13.44 11.31,-1.77 1.06,6.01 -1.41,14.85 -9.9,-2.83 -5.66,13.79 -3.54,17.68 2.83,14.5 -9.9,4.24 -6.01,-12.73 -3.89,-13.08 -12.73,5.3 -7.42,-9.9 -0.71,-21.92 0.35,-5.66 -8.13,-8.84 -4.95,-0.35 0.35,-8.84 -7.07,-15.91 -12.37,-13.44 -7.42,-15.2 -9.55,-1.41 -4.95,-7.42 v -5.3 l -5.3,-4.24 2.12,-14.5 -2.47,-4.6 7.42,-21.57 -3.89,-7.07 6.72,0.35 8.49,-14.85 9.19,1.06 7.07,-12.73 7.07,3.89 -4.95,-8.49 2.83,-3.89 8.13,4.95 4.6,-0.71 -2.83,-12.37 5.66,-19.09 -4.24,-2.12 1.06,-10.61 -7.42,-4.95 -0.35,-9.55 4.95,-6.01 -3.18,-14.14 2.12,-7.42 10.25,-10.25 -12.02,0.71 -2.83,-8.13 6.36,-2.47 -3.89,-14.14 -7.07,2.47 -2.83,-12.02 3.89,-6.01 -7.78,-4.95 -0.35,-14.5 1.77,-9.9 -5.3,-3.18 -5.3,-22.98 -10.96,-8.13 -6.01,4.95 -10.61,-2.12 -8.49,-15.91 h -7.78 l 2.12,-13.08 -6.72,-3.89 H 3.33 l -1.41,-4.24 -8.84,-15.56 h -16.26 v -251.02 z"
     style="opacity:1;fill:#ffffff;fill-opacity:1;fill-rule:nonzero;stroke:none;stroke-width:2;stroke-linecap:butt;stroke-linejoin:round;stroke-miterlimit:4;stroke-dasharray:none;stroke-opacity:1" />
  <path
     id="path1236"
     d="m 5162,11112.5 15.25,-43.5 -5.75,-6.75 -6.75,-16 -4.75,-14.5 1,-17.75 3.25,-6.25 12.5,-4.25 8.25,1.75 13.75,10.5 4.75,10.25 6.75,1.75 12.5,19 8.25,-1.5 10.25,6.5 12,4.75 v 4.25 l 17.5,3.75 14.75,1 16,-3 7,2.5 h 11.25 l 14.25,6.25 10.5,5.75 8.25,-0.25 5,3.75 19.25,6.25 4.5,14.5 2.75,3 1.75,7.5 4.5,3 v 13.25 l 1.25,9.75 -8,-5 -5.75,6 13.75,6 8.5,-9 15,4.75 18.75,19.75 -13.5,8.75 -12.5,7.5 -9.5,1.75 -6.5,5.75 3.25,4 -6.5,6.25 -20.25,-2 -17.5,7 -18.25,10 -15,13.25 -8.25,12.5 -1.75,9.75 -2.5,9.75 -4.25,15.25 -0.75,8.25 1.75,7.5 -4.5,10.5 v 8.75 l -7.25,15.25 -16.5,7.75 -18,3.5 -24.25,12 -22.25,9.25 -16.75,2.75 -12.5,0.25 -22,9 -12.5,-1.25 -8,-6.5 -4.5,-13.5 -14.5,-12.75 -21.25,-20 -17.25,-10.5 -4.75,-0.5 -9.5,-11.75 -23.75,-22.75 -10.25,-3 -13.75,-10.25 -48.25,-17.5 -9,-12.5 -4,2.5 -13,-1.25 1.75,-13.5 -13.75,-14.5 -8.75,-5.75 -26,-2.25 -48.75,11.75 -11.75,-1 -20.25,5.75 -8.75,-7.75 19.75,-2 V 11176 l 27,-7.75 4.5,-19.75 6.5,-0.75 2.5,-5.5 2,-18.5 18.75,-10.25 32.75,1.75 24.75,-6.75 42.5,-25.5 12.5,-4.75 14,2.5 24.5,-10.75 38,-16.25 h 6.5 l 8.25,-7.5 4,-15.75 21.25,-13.5 5.5,-10.5 15.5,-7 11.5,4.25 5.5,10.5 2.75,2.5 -3,12 6.25,18.25 -0.75,6.25 6.75,15.5 v 9.25 l -6.5,22.5 z"
     style="opacity:1;fill:#ffffff;fill-opacity:1;fill-rule:nonzero;stroke:none;stroke-width:2;stroke-linecap:butt;stroke-linejoin:round;stroke-miterlimit:4;stroke-dasharray:none;stroke-opacity:1" />
  <path
     id="path1315"
     d="m 969.6,4539 15.91,2.12 4.95,12.37 8.84,-2.47 1.06,-8.13 h 13.79 l 8.13,-3.54 7.07,-15.91 9.55,7.07 7.07,-4.24 -6.01,-7.78 3.54,-12.37 6.72,-0.35 4.24,-6.72 15.56,-2.12 h 13.44 l 10.96,1.77 3.54,9.55 8.13,7.42 3.18,17.68 7.07,7.07 12.02,-0.71 4.24,-14.5 18.38,-13.08 10.61,-3.18 15.91,12.02 1.41,10.25 -9.55,25.46 7.42,0.35 24.04,-42.43 -13.08,10.61 -3.89,-2.47 -6.72,-8.84 2.47,-8.49 8.13,-1.77 9.9,-9.9 4.6,-10.96 32.17,-22.98 15.56,1.06 18.38,-1.77 5.3,-8.49 3.18,-11.67 14.5,-7.07 -1.41,-13.08 5.3,-9.9 20.51,-2.12 5.66,4.24 24.04,-19.45 22.98,-14.5 -11.31,-6.36 -2.47,-12.73 4.6,-14.14 12.73,-15.2 h 14.5 l 6.72,-7.42 10.96,3.18 14.14,-7.07 2.12,-7.78 16.62,-8.13 10.25,-18.03 8.49,-4.95 5.66,-12.37 -8.49,-11.31 -9.55,-5.3 -2.47,-13.79 5.66,-15.2 9.19,-10.61 7.42,-0.71 17.68,-15.2 1.41,-10.25 4.24,-6.01 -4.6,-8.84 v -6.72 l 18.03,-12.02 12.37,-20.86 1.77,-13.79 20.51,-23.33 -1.77,-20.51 8.84,4.24 6.36,-9.55 5.3,-2.47 -4.6,-10.25 -6.01,-5.66 -27.58,-7.42 h -7.78 l -8.49,-10.61 -16.26,-6.36 -8.49,-16.97 -6.36,-20.15 -2.12,-20.86 7.07,-31.11 14.14,-41.37 6.01,-22.27 -1.06,-55.86 -6.72,-2.83 -7.07,-0.35 -54.8,24.75 -22.63,7.07 -29.7,3.54 -37.83,24.75 -24.4,19.8 -26.87,20.15 -15.2,16.97 -13.08,37.12 -3.89,21.21 -10.61,12.37 -1.77,7.07 -7.07,8.49 -14.14,35 -1.77,17.68 -10.25,20.86 -12.37,18.03 -1.77,8.84 -7.42,7.78 -29.34,35 -14.85,15.2 -6.36,14.85 -20.51,7.78 -12.37,12.73 -13.08,-3.89 -13.08,14.85 -2.83,8.84 -10.61,14.14 5.66,3.54 3.54,10.25 -6.36,11.67 v 11.31 l -2.12,13.79 -15.2,13.44 -6.36,7.42 -4.6,14.5 3.18,7.78 7.42,7.07 3.18,9.55 -3.54,13.44 3.89,7.78 -2.12,13.79 -3.18,9.9 -2.12,13.79 -8.84,7.07 -8.13,28.99 -6.36,-3.54 -9.55,3.18 -10.25,16.97 -6.01,9.19 0.35,7.78 18.38,1.06 v 7.07 l -2.83,4.24 h -8.13 l -10.25,19.09 -9.19,2.47 -1.06,10.25 z"
     style="opacity:1;fill:#ffffff;fill-opacity:1;fill-rule:nonzero;stroke:none;stroke-width:2;stroke-linecap:butt;stroke-linejoin:round;stroke-miterlimit:4;stroke-dasharray:none;stroke-opacity:1" />
  <path
     id="path1270"
     d="m 1596.45,6346.01 9.9,-0.35 27.58,-27.93 15.91,-2.47 11.67,-11.31 5.3,-13.44 -2.83,-14.5 12.37,-23.69 15.91,-6.01 9.55,-1.77 15.2,-14.5 6.01,4.95 6.36,-1.06 13.79,-24.04 30.41,-22.63 26.34,-18.03 7.6,-9.55 13.79,-10.25 -0.88,-11.49 1.94,-12.9 5.3,-1.77 7.42,-11.31 4.24,-14.14 6.72,-8.84 h 8.13 l 1.41,-16.26 15.2,-5.66 4.24,-9.9 -3.18,-3.18 -8.49,-1.06 -10.96,-3.54 -18.03,3.54 -21.92,-6.72 -18.74,-6.72 -14.5,0.71 -12.37,4.24 -14.14,13.44 -3.54,10.96 -18.38,3.89 -12.37,7.42 -32.17,6.72 -13.44,-1.77 -3.18,-3.89 13.08,-32.17 -20.86,-14.85 -9.19,-33.23 -6.72,-2.83 4.24,-11.31 -7.78,-6.01 -0.35,-8.84 7.78,-8.84 -13.08,-0.35 -8.49,-4.24 -16.97,-8.13 -10.25,-16.62 -6.36,-12.02 0.71,-10.25 5.66,-14.14 -5.3,-16.26 -3.18,-8.13 -8.13,-10.25 -7.78,-18.38 -3.18,10.61 -9.55,-6.72 h -11.67 l -17.68,-4.6 -9.9,1.06 -8.13,-6.72 -21.92,11.67 -8.49,-5.3 -2.83,-15.2 -36.06,-0.71 -4.95,6.36 -5.3,-3.18 v -8.49 l -15.2,1.77 -11.31,-3.18 -25.1,10.96 1.77,4.6 -5.3,2.47 3.54,9.55 -7.78,-6.36 -7.07,4.95 -16.26,-5.3 2.12,-7.42 -3.89,-2.83 -11.67,7.42 -2.47,12.02 -7.42,0.71 -1.77,-4.24 -8.49,2.47 -1.77,11.31 -12.73,0.35 7.07,-18.38 h -2.83 l -19.8,11.67 -2.47,6.36 -23.33,5.66 -9.9,2.12 -4.95,-6.72 -13.44,8.13 -2.12,8.13 4.95,4.95 v 12.37 l 6.01,0.35 -2.12,15.2 4.95,4.24 v 7.78 l 7.78,2.83 -1.77,16.97 -4.6,15.91 -4.95,4.24 -3.54,6.36 2.47,4.95 -3.89,9.19 2.12,3.54 -4.24,10.61 1.41,3.18 -0.71,8.84 -12.37,0.71 -2.12,2.83 3.54,14.5 10.61,1.06 3.18,10.61 7.42,2.47 v 22.63 l -4.6,10.61 9.19,6.36 -3.54,3.54 -16.62,16.26 -2.47,6.01 -7.42,4.95 3.18,14.85 -8.49,1.41 -7.78,-2.12 5.66,-10.25 -9.55,-4.6 1.77,-8.13 8.84,-7.78 5.66,-21.21 -7.42,-1.41 -4.24,-5.66 h -5.3 l -8.13,5.3 -6.01,-1.06 -3.89,-16.26 -13.79,-4.95 -7.78,-6.36 -16.97,-5.3 -7.07,-9.19 -9.55,10.61 -8.13,-2.47 -3.18,-4.6 -13.44,-1.06 v 12.73 l -3.18,9.55 h -7.78 l -9.55,9.9 13.08,14.5 8.13,-0.35 2.47,11.31 -7.07,6.72 -1.77,7.07 -0.35,6.72 6.72,6.01 5.66,-7.42 11.67,4.95 8.84,-4.24 0.71,-4.6 8.84,-1.06 0.35,4.95 14.5,0.71 0.35,6.36 22.98,3.18 -7.78,18.74 3.54,7.07 2.12,8.84 6.36,0.35 6.72,15.91 -3.54,10.61 2.83,5.3 6.72,2.12 9.9,9.19 8.13,-7.07 7.42,6.01 29.34,-11.31 10.25,2.12 10.61,10.96 0.71,6.01 20.15,4.6 -6.36,19.09 26.16,13.79 -1.06,4.95 4.6,7.42 -1.06,8.13 8.49,3.54 -8.84,21.92 v 15.2 l 18.74,6.36 1.41,14.85 10.25,-4.95 14.14,-4.24 9.55,7.07 4.24,11.67 5.66,8.84 -2.47,11.67 11.67,2.12 2.47,12.73 13.79,-9.19 12.37,-20.51 9.19,-4.6 1.77,-13.79 10.96,-6.01 7.42,-14.5 12.37,-4.95 5.66,15.2 -6.72,18.74 -22.27,19.09 h -9.55 l -4.95,12.73 8.84,22.98 0.71,6.72 -10.96,19.45 5.66,-0.71 10.96,-13.79 v -7.42 l 10.61,1.41 28.99,16.26 15.91,5.66 18.74,2.83 -1.06,-7.42 11.67,-23.33 19.45,4.24 29.7,-10.96 19.8,-19.45 z"
     style="opacity:1;fill:#ffffff;fill-opacity:1;fill-rule:nonzero;stroke:none;stroke-width:2;stroke-linecap:butt;stroke-linejoin:round;stroke-miterlimit:4;stroke-dasharray:none;stroke-opacity:1" />
  <g
     id="g1626"
     style="display:none">
    <image
       xlink:href="basemap/gbosm.png"
       width="9034.1"
       height="12395.62"
       preserveAspectRatio="none"
       id="image10"
       x="-20"
       y="-74.67" />
    <image
       xlink:href="basemap/railosm.png"
       y="-74.67"
       x="-20"
       id="image863"
       preserveAspectRatio="none"
       height="12395.62"
       width="9034.1"
       style="opacity:0.8" />
  </g>
  <path
     style="opacity:1;fill:#ffffff;fill-opacity:1;fill-rule:nonzero;stroke:none;stroke-width:2;stroke-linecap:butt;stroke-linejoin:round;stroke-miterlimit:4;stroke-dasharray:none;stroke-opacity:1"
     d="m 398.25,9212.97 7.07,4.24 6.01,-1.06 -2.12,5.3 -4.95,-0.35 -0.71,6.72 -9.9,4.95 -12.02,0.71 0.35,-6.01 5.66,-1.41 z"
     id="path869" />
  <path
     style="opacity:1;fill:#ffffff;fill-opacity:1;fill-rule:nonzero;stroke:none;stroke-width:2;stroke-linecap:butt;stroke-linejoin:round;stroke-miterlimit:4;stroke-dasharray:none;stroke-opacity:1"
     d="m 368.56,9132.01 12.73,7.42 h 7.07 l 3.89,11.31 4.24,-4.95 7.07,5.3 9.19,-3.18 1.77,4.24 -4.6,3.54 -4.95,-2.47 -3.89,2.83 -6.01,-0.35 -1.77,4.24 -2.83,-8.84 -8.13,5.66 0.35,5.3 -2.47,4.95 -10.96,-2.12 v -4.95 l -15.2,-2.83 -0.35,-13.79 z"
     id="path871" />
  <path
     style="opacity:1;fill:#ffffff;fill-opacity:1;fill-rule:nonzero;stroke:none;stroke-width:2;stroke-linecap:butt;stroke-linejoin:round;stroke-miterlimit:4;stroke-dasharray:none;stroke-opacity:1"
     d="m 1114.2,10174.99 8.13,3.89 v 6.36 l 5.3,12.73 3.18,10.96 -1.41,5.66 1.77,12.37 -0.35,13.79 5.66,7.78 7.42,1.41 -7.07,3.18 -7.78,0.35 -8.84,4.95 -6.36,-15.56 -3.54,-11.31 1.41,-11.67 6.36,-4.6 -3.89,-6.36 1.06,-10.61 -4.95,-7.42 z"
     id="path873" />
  <path
     style="opacity:1;fill:#ffffff;fill-opacity:1;fill-rule:nonzero;stroke:none;stroke-width:2;stroke-linecap:butt;stroke-linejoin:round;stroke-miterlimit:4;stroke-dasharray:none;stroke-opacity:1"
     d="m 1062.58,9330.35 6.72,-2.47 5.66,4.95 5.66,-3.54 11.67,7.07 8.49,-4.95 15.91,7.78 -8.13,9.55 0.35,6.36 -14.85,-0.35 -0.71,-6.36 -12.73,4.95 1.77,-10.96 -11.67,-9.19 h -7.42 z"
     id="path875" />
  <path
     style="opacity:1;fill:#ffffff;fill-opacity:1;fill-rule:nonzero;stroke:none;stroke-width:2;stroke-linecap:butt;stroke-linejoin:round;stroke-miterlimit:4;stroke-dasharray:none;stroke-opacity:1"
     d="m 319.5,8937.75 10.75,-12.25 -1.5,-26.5 -1,-6.75 6.5,-15.5 -4.25,-0.75 -3.75,1.75 -5,-1.75 -10.75,6.5 6,12.25 -3.5,2.75 -5.75,0.5 -3,4.5 4.5,7.25 -1.5,4 3.5,3.75 6,-3 1.5,7.5 6.75,-0.75 0.75,4.5 z"
     id="path904" />
  <path
     id="path1305"
     d="m 973.5,7134.5 16.75,5 -0.5,14.75 -5.25,11.5 -11.75,-0.75 -2.5,12 -7.25,3 1.25,-12.5 4.75,-11.5 1,-16.75 z"
     style="opacity:1;fill:#ffffff;fill-opacity:1;fill-rule:nonzero;stroke:none;stroke-width:2;stroke-linecap:butt;stroke-linejoin:round;stroke-miterlimit:4;stroke-dasharray:none;stroke-opacity:1" />
  <path
     id="path1307"
     d="m 75.81,3283.88 v -8.13 l 11.67,-6.01 5.66,7.07 8.84,1.06 2.47,14.85 -6.01,5.3 -6.72,-3.89 -6.36,-10.61 -9.19,3.89 z"
     style="opacity:1;fill:#ffffff;fill-opacity:1;fill-rule:nonzero;stroke:none;stroke-width:2;stroke-linecap:butt;stroke-linejoin:round;stroke-miterlimit:4;stroke-dasharray:none;stroke-opacity:1" />
  <path
     id="path1313"
     d="m 938.84,4573.65 -8.84,-16.26 10.25,-8.84 18.38,-6.36 7.07,2.47 -1.06,15.2 -10.25,9.55 -2.47,10.61 -6.01,-7.07 z"
     style="opacity:1;fill:#ffffff;fill-opacity:1;fill-rule:nonzero;stroke:none;stroke-width:2;stroke-linecap:butt;stroke-linejoin:round;stroke-miterlimit:4;stroke-dasharray:none;stroke-opacity:1" />
  <path
     id="path1453"
     d="m 2802.75,4371.5 2.5,-7.25 11.5,-4 -5,-6 -7,5.25 -9.75,3.25 -7.5,10.75 -0.25,9.75 -0.25,19.25 6.75,21 1.75,6.5 1.25,14.5 3,9.5 6.75,13.75 8.75,19 13.75,23.5 7.75,12.75 4.25,3.5 18.5,30.25 5.25,7.75 6.25,9.25 12.5,5.25 7.5,-4.5 20.25,-3.25 4,-14.75 -3,-1 -3.75,2 1.75,4.75 -0.75,7.25 -4.5,-4.5 1,-10 -3.25,0.25 -4.25,4.75 -17,8 -8,-5.5 -4.75,-8.75 2.75,-8.25 -5.5,-4.75 1,-6.75 -5.5,-2.5 -7.75,2.75 -4.5,-3.5 -2.75,-9 -3.25,-11.75 6.75,-4 -3.25,-9.5 -7.75,0.5 v -2 l 4,-5 v -3.75 l -3.5,-0.25 -6.25,7 -13.75,-16 -4.25,-2.5 v -12 l 4.5,3.5 8.25,0.25 -4.5,-13.5 -1,-10 -3.75,-8.5 -0.5,-19.75 -5,-18.25 -5.25,-14 -1.5,-5.75 z"
     style="opacity:1;fill:#ffffff;fill-opacity:1;fill-rule:nonzero;stroke:none;stroke-width:2;stroke-linecap:butt;stroke-linejoin:round;stroke-miterlimit:4;stroke-dasharray:none;stroke-opacity:1" />
  <path
     style="opacity:1;fill:#ffffff;fill-opacity:1;fill-rule:nonzero;stroke:none;stroke-width:2;stroke-linecap:butt;stroke-linejoin:round;stroke-miterlimit:4;stroke-dasharray:none;stroke-opacity:1"
     d="m 3654.13,112.51 -13.44,-8.84 -7.78,-15.56 3.89,-3.89 9.19,12.02 5.3,1.77 8.49,12.02 z"
     id="path1442" />
  <path
     style="opacity:1;fill:#ffffff;fill-opacity:1;fill-rule:nonzero;stroke:none;stroke-width:2;stroke-linecap:butt;stroke-linejoin:round;stroke-miterlimit:4;stroke-dasharray:none;stroke-opacity:1"
     d="M -4,5 -0.75,9.75 3,6 l 6.75,7.25 3.5,-0.75 4,6 V 26 l 3,6.5 L 17,46.25 21.75,49.5 21.25,60.25 -7.5,80.75 -6.75,56.5 -10,56.25 -14.5,49.75 -9.75,19 l 6,-2.25 -4,-6.25 z"
     id="path1771" />
  <path
     style="opacity:1;fill:#ffffff;fill-opacity:1;fill-rule:nonzero;stroke:none;stroke-width:2;stroke-linecap:butt;stroke-linejoin:round;stroke-miterlimit:4;stroke-dasharray:none;stroke-opacity:1"
     d="m 779.25,1074.75 19,-12 1.75,1.75 -3.25,14.75 -4.25,3 -2.25,10.5 4.75,0.5 -2.5,7.25 h -2.25 l -4.75,12.25 -5.5,4.5 -16,-17.25 -0.75,-7.5 3.5,-8.75 z"
     id="path1773" />
  <path
     style="opacity:1;fill:#ffffff;fill-opacity:1;fill-rule:nonzero;stroke:none;stroke-width:2;stroke-linecap:butt;stroke-linejoin:round;stroke-miterlimit:4;stroke-dasharray:none;stroke-opacity:1"
     d="m 816,948.5 9.75,-6.75 10,2.75 3,-4.25 7.5,2.75 1.25,25.75 -2.25,15.5 6.25,15 -12,29.25 -10.25,14.25 -4,-5.75 1.5,-13.5 -2.75,-0.5 -10.5,8.5 -2.75,-3.75 -10.25,8 -2.75,9.75 -9.75,2.75 -3.25,-10.25 -0.5,-15 6,-14.25 2.75,-11.75 7,-7.5 4.25,-15 2.25,-5.75 3.25,-12.25 z"
     id="path1775" />
  <path
     style="opacity:1;fill:#ffffff;fill-opacity:1;fill-rule:nonzero;stroke:none;stroke-width:2;stroke-linecap:butt;stroke-linejoin:round;stroke-miterlimit:4;stroke-dasharray:none;stroke-opacity:1"
     d="m 30.5,2027.75 -3,4 -15.25,-5.5 3.75,-11.25 10.25,-4.75 3.25,5.5 11.75,-4 8,4.25 -0.5,5.5 -5.5,5.25 z"
     id="path2437" />
  <path
     style="opacity:1;fill:#ffffff;fill-opacity:1;fill-rule:nonzero;stroke:none;stroke-width:2;stroke-linecap:butt;stroke-linejoin:round;stroke-miterlimit:4;stroke-dasharray:none;stroke-opacity:1"
     d="m 620.75,1506 -3.75,-18 2.25,-6 15,-0.75 8.5,18 6.5,10.75 3.25,14.25 v 9.25 l -11.25,2.25 -7.5,-22 z"
     id="path2439" />
  <path
     style="opacity:1;fill:#ffffff;fill-opacity:1;fill-rule:nonzero;stroke:none;stroke-width:2;stroke-linecap:butt;stroke-linejoin:round;stroke-miterlimit:4;stroke-dasharray:none;stroke-opacity:1"
     d="m 576,1509 33.5,23.25 8,5.25 13.75,2.25 -6,15.25 -6,4 -3.5,6.75 v 10.75 l -3.5,9.25 8.25,17.75 5.5,20 5,11 -3,7 -3,17.5 -14,8.5 -6.5,12.5 -15.5,8 -9.25,-8.25 -11.25,1.75 -6.25,-3.5 -14.5,6.5 -12.5,-0.5 -9.5,8 -11,6.25 -33.5,2.5 -56.25,-11.25 -14,-15.75 -29,-12.5 -15,-15.75 -17.25,-11.25 -15,-37.75 -0.75,-17 3,-6.25 -7,-12.25 -15.75,-11.25 -12.75,-1.75 1.75,-9.75 3.75,-2.25 -1.5,-22 -3.75,-10.75 4.75,-22.75 9.5,-14 -1.75,-24.25 -4.5,-13.75 -1.5,-13.5 -12.5,-19 -12.5,-11.75 -21.25,-44.75 -9.75,-13 -1.75,-14.25 1.25,-10.75 4,-18.75 5.5,-4 4.5,-12 4.25,-35 9,-26 3.25,-11.75 8.75,-13.75 21.75,-12.25 17.25,-7.25 4.5,-12 9.25,-19.75 9.25,-6.5 12,-2.75 14.5,5.25 1,-2.25 -6.5,-6.75 v -9 l 11.75,-12 31.5,-3.5 19.75,11.75 20,11 32,20.75 8,12.75 34.25,30.75 5.5,19.25 8.25,12.5 -1.75,11 12.75,24.5 4.75,16.75 0.75,14.25 11,45 -1.75,12 -5.5,14.5 -13,10.25 -1,5.5 -10.25,7 v 11 l 6.5,14.5 24.25,1.75 23.25,8.5 12.5,25.25 17,13 1.5,9.25 -10.75,0.25 -6,8.75 -9.5,5 -9.75,1.25 -9.5,10.25 -8.75,12.25 -0.75,9 z"
     id="path2441" />
  <path
     style="opacity:1;fill:#ffffff;fill-opacity:1;fill-rule:nonzero;stroke:none;stroke-width:2;stroke-linecap:butt;stroke-linejoin:round;stroke-miterlimit:4;stroke-dasharray:none;stroke-opacity:1"
     d="m 1194.1,413.38 -8.13,-6.36 12.73,-25.46 9.19,-9.55 h 4.95 l -1.77,16.62 -10.25,10.25 z"
     id="path3108" />
  <path
     style="opacity:1;fill:#ffffff;fill-opacity:1;fill-rule:nonzero;stroke:none;stroke-width:2;stroke-linecap:butt;stroke-linejoin:round;stroke-miterlimit:4;stroke-dasharray:none;stroke-opacity:1"
     d="m 1248.2,341.61 1.77,-3.54 -3.18,-6.01 6.01,-11.31 h 4.6 l 5.66,4.6 -13.44,17.68 z"
     id="path3110" />
  <path
     style="opacity:1;fill:#ffffff;fill-opacity:1;fill-rule:nonzero;stroke:none;stroke-width:2;stroke-linecap:butt;stroke-linejoin:round;stroke-miterlimit:4;stroke-dasharray:none;stroke-opacity:1"
     d="m 1162.64,325.7 9.19,-23.33 7.78,1.06 v 2.83 l -4.24,9.19 v 6.36 l -4.24,3.18 z"
     id="path3112" />
  <path
     style="opacity:1;fill:#ffffff;fill-opacity:1;fill-rule:nonzero;stroke:none;stroke-width:2;stroke-linecap:butt;stroke-linejoin:round;stroke-miterlimit:4;stroke-dasharray:none;stroke-opacity:1"
     d="m 1179.25,324.64 8.13,-8.49 6.72,4.24 7.78,-2.12 -1.41,10.61 -6.36,-2.47 -5.66,3.18 -4.24,-3.89 z"
     id="path3114" />
  <path
     style="opacity:1;fill:#ffffff;fill-opacity:1;fill-rule:nonzero;stroke:none;stroke-width:2;stroke-linecap:butt;stroke-linejoin:round;stroke-miterlimit:4;stroke-dasharray:none;stroke-opacity:1"
     d="m 1226.98,326.76 -2.47,-6.01 11.31,-5.66 7.42,-5.66 2.47,3.89 -9.9,10.61 z"
     id="path3116" />
  <path
     style="opacity:1;fill:#ffffff;fill-opacity:1;fill-rule:nonzero;stroke:none;stroke-width:2;stroke-linecap:butt;stroke-linejoin:round;stroke-miterlimit:4;stroke-dasharray:none;stroke-opacity:1"
     d="m 1209.31,318.63 -4.6,-3.18 -1.41,-8.84 5.3,-0.35 7.78,10.96 -4.95,4.24 z"
     id="path3118" />
  <path
     style="opacity:1;fill:#ffffff;fill-opacity:1;fill-rule:nonzero;stroke:none;stroke-width:2;stroke-linecap:butt;stroke-linejoin:round;stroke-miterlimit:4;stroke-dasharray:none;stroke-opacity:1"
     d="m 1183.14,315.45 7.42,-4.95 -1.41,-6.01 2.83,-6.36 -3.54,-3.54 -6.36,3.89 1.06,6.72 -2.83,6.72 z"
     id="path3120" />
  <path
     style="opacity:1;fill:#ffffff;fill-opacity:1;fill-rule:nonzero;stroke:none;stroke-width:2;stroke-linecap:butt;stroke-linejoin:round;stroke-miterlimit:4;stroke-dasharray:none;stroke-opacity:1"
     d="m 1185.97,282.92 -1.77,-4.95 10.61,-12.02 7.07,-6.01 8.13,8.84 -1.77,3.54 -8.13,6.36 -3.18,-2.47 -5.3,6.72 z"
     id="path3122" />
  <path
     style="opacity:1;fill:#ffffff;fill-opacity:1;fill-rule:nonzero;stroke:none;stroke-width:2;stroke-linecap:butt;stroke-linejoin:round;stroke-miterlimit:4;stroke-dasharray:none;stroke-opacity:1"
     d="m 524.75,944.25 2.25,-30 7.5,-0.75 8,28 6.5,15 v 7.5 l -4,1.5 -3,7.5 -5.5,3 -10.5,-18 z"
     id="path3800" />
  <path
     style="opacity:1;fill:#ffffff;fill-opacity:1;fill-rule:nonzero;stroke:none;stroke-width:2;stroke-linecap:butt;stroke-linejoin:round;stroke-miterlimit:4;stroke-dasharray:none;stroke-opacity:1"
     d="m 586.25,986 15.75,-16.5 5.25,-1.25 6,2.75 -1.75,11.5 6.75,9.5 13.5,2.75 5,9.25 8,1 6.75,9 -1.5,6.75 1.5,6.5 -0.75,9 7.5,9.75 -1,6.75 7.75,5.25 -4.5,7 1.5,2.25 15.5,11.5 4,9.25 7.25,3.25 7.75,-3.75 8,-9.25 11,0.25 -0.5,-6.25 6.25,-0.25 -5,-22.75 -5.25,-8.75 -23.25,-17.25 v -7.75 L 698,1004 l 7.5,-0.75 9,-0.75 9,-8.25 V 979.5 l -1.75,-4.5 -2.75,-1.75 -2.25,-8.75 -6.5,-15.25 -1,-22 -5.25,-13 -3.75,-11 -1.25,-11.75 -0.75,-8.25 2,-14.5 -5,-3.5 2.25,-27.25 -4.75,-9.25 -5.25,-1.25 -15.75,6 -7.75,9 -4.75,0.25 -6.75,-6.75 -2.25,-9.25 1.75,-29.25 -10,-0.5 -6,-2.5 -10.25,1.5 -7.75,-2.75 -1.75,-5.5 0.75,-4 7,-2 11.75,-13 -1,-11.25 -3.25,-8.25 -10.25,-0.25 -8.25,-7 -2.25,-4.75 -11,-4.5 L 587,724.25 570.25,708 557.5,696.75 547.75,683 l -7,-3.25 -5,-14 H 523.5 L 517,663 l -4,-4.75 h -4.5 l -6.5,-3 -3.5,5.75 v 6 l -6,4 -4,10.25 -15.25,8.5 -3.25,9.75 -8.25,7.25 -1.5,4.75 8.25,2.25 1.25,15.25 1.75,16.75 9.5,6.25 14.5,32.5 14.75,7.25 12.75,23.75 7,2.75 11.5,8.75 7.5,-11.25 5.75,0.25 11,7.75 5.25,7.75 0.25,6.75 -1.5,3.75 -6.5,-0.25 -2.75,3.75 -7.75,55.25 2,4 5.25,-1.5 2,3.25 -2.75,5.5 2,9.25 3.25,-2.5 -1,-10.5 2.5,-3.25 6.75,0.25 4.75,19.25 -0.75,4 -0.25,5.75 -5,6.75 v 12 l 3.25,0.25 V 960 l 4.5,5.5 -0.25,13.75 5,7.75 z"
     id="path3802" />
  <path
     style="opacity:1;fill:#ffffff;fill-opacity:1;fill-rule:nonzero;stroke:none;stroke-width:2;stroke-linecap:butt;stroke-linejoin:round;stroke-miterlimit:4;stroke-dasharray:none;stroke-opacity:1"
     d="m 577.51,2089.23 v -13.44 l 6.01,-7.78 18.38,16.26 -6.01,2.12 -2.83,5.66 -8.49,0.35 z"
     id="path4843" />
  <path
     style="opacity:1;fill:#ffffff;fill-opacity:1;fill-rule:nonzero;stroke:none;stroke-width:2;stroke-linecap:butt;stroke-linejoin:round;stroke-miterlimit:4;stroke-dasharray:none;stroke-opacity:1"
     d="m 2.25,484.5 3,-12 3.25,-0.25 0.75,8.5 z"
     id="path4845" />
  <path
     style="opacity:1;fill:#ffffff;fill-opacity:1;fill-rule:nonzero;stroke:none;stroke-width:2;stroke-linecap:butt;stroke-linejoin:round;stroke-miterlimit:4;stroke-dasharray:none;stroke-opacity:1"
     d="m 41.25,225.5 12.25,-26 7.75,-11.5 4.5,0.25 -4.75,4 2,10 -5.5,9.5 z"
     id="path4847" />
  <path
     style="opacity:1;fill:#ffffff;fill-opacity:1;fill-rule:nonzero;stroke:none;stroke-width:2;stroke-linecap:butt;stroke-linejoin:round;stroke-miterlimit:4;stroke-dasharray:none;stroke-opacity:1"
     d="m 61.75,182.25 9,2.25 10.75,-14.25 v -8 L 96.5,143 v -5.75 l -11,6.25 -8,11.25 -2.75,10.25 z"
     id="path4849" />
  <path
     style="opacity:1;fill:#ffffff;fill-opacity:1;fill-rule:nonzero;stroke:none;stroke-width:2;stroke-linecap:butt;stroke-linejoin:round;stroke-miterlimit:4;stroke-dasharray:none;stroke-opacity:1"
     d="M 75,144.25 H 71.75 L 77,129 l 16,-18.5 3.75,2.25 z"
     id="path4851" />
  <path
     style="opacity:1;fill:#ffffff;fill-opacity:1;fill-rule:nonzero;stroke:none;stroke-width:2;stroke-linecap:butt;stroke-linejoin:round;stroke-miterlimit:4;stroke-dasharray:none;stroke-opacity:1"
     d="m 49,164.75 1.5,-6.5 3,3.25 7,-12 8.75,-1.5 -10.75,16 z"
     id="path4853" />
  <path
     style="opacity:1;fill:#ffffff;fill-opacity:1;fill-rule:nonzero;stroke:none;stroke-width:2;stroke-linecap:butt;stroke-linejoin:round;stroke-miterlimit:4;stroke-dasharray:none;stroke-opacity:1"
     d="m -8.75,245.75 5.25,-14 h 6 l -1,4.75 -5.75,9.25 z"
     id="path4855" />
</svg>
