<?xml version="1.0" encoding="UTF-8" standalone="no"?>
<svg
   viewBox="25 -800 1850 900"
   height="900"
   width="1850"
   id="svg2"
   version="1.1"
   xml:space="preserve"
   xmlns:xlink="http://www.w3.org/1999/xlink"
   xmlns="http://www.w3.org/2000/svg"
   xmlns:svg="http://www.w3.org/2000/svg"
   xmlns:rdf="http://www.w3.org/1999/02/22-rdf-syntax-ns#"
   xmlns:cc="http://creativecommons.org/ns#"
   xmlns:dc="http://purl.org/dc/elements/1.1/"><metadata
     id="metadata8"><rdf:RDF><cc:Work
         rdf:about=""><dc:format>image/svg+xml</dc:format><dc:type
           rdf:resource="http://purl.org/dc/dcmitype/StillImage" /></cc:Work></rdf:RDF></metadata><defs
     id="defs6" /><image
     xlink:href="../basemap/scnosm.png"
     y="-1422.33"
     x="-2850"
     id="image10"
     preserveAspectRatio="none"
     height="4847.33"
     width="4847.33"
     style="display:none" /><path
     id="path836"
     d="m -2090.64,370.68 3.43,9.23 1.85,12.13 -0.53,25.31 3.43,20.04 5.01,18.72 28.21,57.22 10.81,18.19 12.13,11.07 16.08,14.77 7.12,14.77 1.58,40.34 0.53,22.68 -7.91,38.23 -2.64,16.61 2.11,23.73 -1.32,11.34 -6.06,22.15 -1.32,16.61 10.02,25.31 3.16,11.87 -2.9,16.35 -3.43,8.44 -7.38,8.7 -18.98,18.72 -8.7,13.97 -3.16,12.66 -0.53,15.82 v 7.12 l 4.75,8.7 7.65,7.91 11.87,24.52 17.93,57.22"
     style="opacity:1;fill:none;fill-rule:nonzero;stroke:#ef7d00;stroke-width:5;stroke-linecap:butt;stroke-linejoin:round;stroke-miterlimit:4;stroke-dasharray:none;stroke-opacity:1" /><path
     id="path838"
     d="m -2007.85,1001.11 3.96,8.44 4.75,18.72 23.73,39.55 24.78,28.74 25.31,36.12 11.07,11.07 7.65,6.59 15.82,26.63 4.22,1.85 16.61,-2.64 19.51,1.32 7.12,9.23 14.77,8.7 32.17,11.6 7.91,-0.26 29.79,-7.38 49.04,8.17 8.17,6.59 25.58,37.97 16.08,13.71 12.13,22.94 51.42,31.64 20.3,13.97 31.64,10.28 5.54,10.28 16.08,15.29 55.9,12.13 65.39,27.95 5.8,6.06 25.31,47.2 22.15,47.99 18.19,66.44"
     style="opacity:1;fill:none;fill-rule:nonzero;stroke:#ef7d00;stroke-width:1;stroke-linecap:butt;stroke-linejoin:round;stroke-miterlimit:4;stroke-dasharray:none;stroke-opacity:1" /><text
     x="114.45"
     y="-593.04"
     id="text3878"
     xml:space="preserve"
     style="font-style:normal;font-weight:normal;font-size:144px;line-height:125%;font-family:Sans;-inkscape-font-specification:Sans;letter-spacing:0px;word-spacing:0px;fill:#000000;fill-opacity:1;stroke:none"><tspan
       x="114.45"
       y="-593.04"
       id="tspan1">2025</tspan></text><path
     style="fill:none;stroke:#a1c617;stroke-width:5;stroke-linejoin:round;stroke-opacity:1"
     d="m 140.62,-525.52 49.95,-10.91 26.61,-3.05 28.35,4.8 53,13.52 29.66,1.74 27.7,-3.27 93.13,-23.99 29.88,-3.93 39.91,1.74 35.33,7.42 38.17,15.27 28.79,19.63 58.23,59.11 23.99,19.85 55.83,37.51 26.17,8.94 h 25.3 l 37.3,-10.47 151.15,-49.29 23.55,-3.93 26.61,1.09 27.48,5.45 90.73,41.66 22.03,16.36 14.39,15.49 63.9,78.3 26.17,22.68 182.12,150.71 27.48,15.05 22.68,6.32 26.83,6.54 14.83,7.42 16.14,23.34 13.52,17.67 10.69,7.85 17.88,6.54 17.67,-1.53 13.52,-5.67 12.87,-11.34 39.91,-49.07 51.47,-57.58"
     id="path1" /></svg>
