<?xml version="1.0" encoding="UTF-8" standalone="no"?>
<svg
   id="svg2"
   viewBox="-400 -150 7250 9950"
   height="9950"
   width="7250"
   version="1.1"
   xmlns:xlink="http://www.w3.org/1999/xlink"
   xmlns="http://www.w3.org/2000/svg"
   xmlns:svg="http://www.w3.org/2000/svg"
   xmlns:rdf="http://www.w3.org/1999/02/22-rdf-syntax-ns#"
   xmlns:cc="http://creativecommons.org/ns#"
   xmlns:dc="http://purl.org/dc/elements/1.1/">
  <metadata
     id="metadata42">
    <rdf:RDF>
      <cc:Work
         rdf:about="">
        <dc:format>image/svg+xml</dc:format>
        <dc:type
           rdf:resource="http://purl.org/dc/dcmitype/StillImage" />
      </cc:Work>
    </rdf:RDF>
  </metadata>
  <defs
     id="defs6" />
  <image
     xlink:href="../../timelines/basemap/sfoosm.png"
     style="display:none"
     id="image12"
     height="12549"
     width="9879"
     y="0"
     x="-534" />
  <path
     style="fill:none;stroke:#d31345;stroke-width:5;stroke-linecap:butt;stroke-linejoin:round;stroke-miterlimit:4;stroke-dasharray:none;stroke-opacity:1"
     id="path2818-8"
     d="m 1522.16,3730.67 -45.94,-46.72 -7.22,-0.7 -28.5,29.25 -107.5,106.5 -57.5,58 -67.83,66.17 -38.67,39.33 -66.5,68.81" />
  <path
     id="path903"
     d="m 2968.46,2981.21 2.18,-14.05 3.73,-6.57 11.89,-9.94 112.85,-18.81 46.49,6.03 13.31,-4.26 176.02,-275.56 10.11,-5.5 19.34,-0.89"
     style="fill:none;fill-rule:nonzero;stroke:#ff6633;stroke-width:1;stroke-linecap:butt;stroke-linejoin:round;stroke-miterlimit:4;stroke-dasharray:none;stroke-opacity:1" />
  <text
     style="font-size:144px;font-style:normal;font-weight:normal;fill:#000000;fill-opacity:1;stroke:none;font-family:Sans;-inkscape-font-specification:Sans"
     xml:space="preserve"
     id="text3639"
     y="9697.96"
     x="-310.55"><tspan
       id="tspan2"
       y="9697.96"
       x="-310.55" /></text>
  <text
     style="font-style:normal;font-weight:normal;font-size:144px;font-family:Sans;-inkscape-font-specification:Sans;fill:#000000;fill-opacity:1;stroke:none"
     xml:space="preserve"
     id="text3639-3"
     y="56.96"
     x="-310.55"><tspan
       id="tspan1"
       y="56.96"
       x="-310.55">1935 proposal</tspan></text>
  <path
     style="fill:none;stroke:#d31345;stroke-width:5;stroke-linecap:butt;stroke-linejoin:round;stroke-miterlimit:4;stroke-opacity:1;stroke-dasharray:none"
     id="path2979"
     d="m 1010.9,4137.3 -4.4,2.2 -22.5,5 -14,6.5 -28.5,21.5 -137,122.5 -35,29.5 -38,36.5 -25,25.5 -29.5,42.5 -23.5,31.5" />
  <path
     style="fill:none;stroke:#d31345;stroke-width:1px;stroke-linecap:butt;stroke-linejoin:round;stroke-opacity:1"
     id="path3594"
     d="m 655,4457.5 -8,15 -15,17 -24.5,24.5 -14.5,18.5 -10,22 -1.5,14 -1.5,44 3.5,5 32,16 8,9.5 11.5,23.5 18.5,16.5 26.5,13.5 31.5,13 71,18.5" />
  <path
     style="fill:none;stroke:#d31345;stroke-width:1px;stroke-linecap:butt;stroke-linejoin:round;stroke-opacity:1"
     id="path2891"
     d="m 781.19,4727.2 1.4,4.2 -0.35,50.4" />
  <path
     style="fill:none;stroke:#d31345;stroke-width:1px;stroke-linecap:butt;stroke-linejoin:round;stroke-opacity:1"
     id="path3592"
     d="m 654.5,4459.5 -5,2.5 -9.5,-6.5 -9,-2.5 -38,3 -4.5,-0.5 -2,-3.5 -1.5,-21 -2.5,-3.5 -152,8 -246.5,14 -15.5,1" />
  <path
     style="fill:none;stroke:#d31345;stroke-width:1;stroke-linecap:butt;stroke-linejoin:round;stroke-miterlimit:4;stroke-dasharray:none;stroke-opacity:1"
     id="path2818"
     d="m 1010.9,4137.3 16.6,-8.3 69.5,-72 5.5,-5.69" />
  <path
     id="path8203"
     d="m 1051.04,4026.36 29.46,-0.36 14.94,-1.87 3.56,3.87 1.68,21.69 1.82,1.62"
     style="fill:none;stroke:#d31345;stroke-width:1px;stroke-linecap:butt;stroke-linejoin:round;stroke-opacity:1" />
  <path
     id="path8197"
     d="m 1051.04,4026.36 -11.04,0.14 -15,2 -35,9.5 -126.5,32 -7.5,3.5 -3.37,4.04"
     style="fill:none;stroke:#d31345;stroke-width:5;stroke-linecap:butt;stroke-linejoin:round;stroke-miterlimit:4;stroke-dasharray:none;stroke-opacity:1" />
  <path
     id="path3600"
     d="m 852.63,4077.54 -1.63,1.96 -98.5,15.5 -2.5,6 -100,6.5 -3,3 0.5,23 -1.5,3 -521,28.5"
     style="fill:none;stroke:#d31345;stroke-width:1px;stroke-linecap:butt;stroke-linejoin:round;stroke-opacity:1" />
  <path
     style="fill:none;stroke:#ff0000;stroke-width:5;stroke-linejoin:round;stroke-opacity:1"
     d="m 2790.64,2971.68 7.88,-22.77"
     id="path2" />
  <path
     style="fill:none;stroke:#ff0000;stroke-width:1;stroke-linejoin:round;stroke-dasharray:none;stroke-opacity:1"
     d="m 2801.81,2962.37 157.21,-83.32 15.04,-10.58 13.39,-11.9 11.08,-14.55 7.87,-11.13 4.21,-8.41 35.54,-119 22.68,-79.72 -14.96,-164.58 -2.57,-14.49 -11.69,-133.02 -3.51,-8.65 -12.39,-11.92 -3.04,-7.25 -3.74,-43.48 -2.1,-6.78 -9.59,-13.33 -1.64,-7.01 -1.4,-41.85 -1.87,-4.68 -10.75,-7.01 -17.77,-0.94 -23.85,-11.46"
     id="path3" />
  <path
     style="fill:none;stroke:#ff0000;stroke-width:1;stroke-linejoin:round;stroke-dasharray:none;stroke-opacity:1"
     d="m 2798.52,2948.9 10.44,-43.05 v -6.37 l -12.89,-58.24 8.89,-68.17 -12.45,-49.05 -110.41,-436.29 -25.64,-81.24 -6.5,-24.94 1.47,-5.03 4.61,-5.66 23.26,-5.45 262.61,-18.86 6.05,0.76"
     id="path4" />
  <path
     style="fill:none;stroke:#ff0000;stroke-width:1;stroke-linejoin:round;stroke-dasharray:none;stroke-opacity:1"
     d="m 3704.67,4040.16 39.08,-38.93 10.52,-6.66 7.95,-4.09 6.43,-1.64 h 138.52 l 192.64,32.61 13.58,2.56 7.56,5.78 32.6,42.98 23.42,17.49 58.69,69.65 152.8,259.36 23.26,43.8 64.97,109.4"
     id="path3-6" />
  <path
     style="fill:none;stroke:#ff0000;stroke-width:5;stroke-linejoin:round;stroke-dasharray:none;stroke-opacity:1"
     d="m 3171.45,3673.22 14.52,13.93 95.14,47.13 28.16,12.74 73.8,46.24 37.64,33.49 116.48,100.77 134.86,116.48 10.37,3.56 10.37,-0.59 11.86,-6.82"
     id="path5" />
  <path
     style="fill:none;stroke:#ff0000;stroke-width:1;stroke-linejoin:round;stroke-dasharray:none;stroke-opacity:1"
     d="m 3171.45,3673.22 -89.51,-61.95 -191.77,-93.36 -201.84,-56.61 -89.21,-26.38 -5.99,-7.04 -1.3,-10.22 1.74,-5.24"
     id="path6" />
  <path
     style="fill:none;stroke:#ff6633;stroke-width:1;stroke-linecap:butt;stroke-linejoin:round;stroke-miterlimit:4;stroke-dasharray:none;stroke-opacity:1"
     d="m 2918.02,3091.65 41.95,-13.58 218.37,44.47 17.73,10.83 17.41,14.01 10.83,6.16 8.39,-0.96 9.64,-5.99"
     id="path1-3" />
  <path
     style="fill:none;stroke:#ff0000;stroke-width:5;stroke-linejoin:round"
     d="m 2593.58,3412.42 6.03,-9.54 17.82,-12.77 84.04,-79.58 22.48,-21.49 20.5,-33.06 25.13,-76.7 7.93,-68.77 0.99,-70.09 -3.97,-40.34 2.65,-9.59 8.76,-14.88 15.87,-13.22"
     id="path1-97" />
  <path
     style="fill:none;stroke:#ff6633;stroke-width:1;stroke-linecap:butt;stroke-linejoin:round;stroke-miterlimit:4;stroke-dasharray:none;stroke-opacity:1"
     d="m 2848.05,3111.34 69.97,-19.69 10.64,-5.06 25.45,-25.75 15.59,-72.84 -4.68,-25.72 37.17,-122.97 4.95,-7.51 4.37,-8.88 4.95,-16.55"
     id="path1-7" />
  <path
     style="fill:none;stroke:#ff6633;stroke-width:5;stroke-linecap:butt;stroke-linejoin:round;stroke-miterlimit:4;stroke-dasharray:none;stroke-opacity:1"
     d="m 1504.84,3767.3 -4.34,-9.8 2,-10 9,-10 21,-19.5 1.5,-6 -2.5,-5.5 -6.5,-6 h -7.5 l -7.5,4 -28,29 -0.5,10 6.5,7.5 31,30 10,3 16,-3 15,-9.5 128.5,-149 174,-206 20,-23 28.52,-35.07 17.98,-8.93 212.5,-89.5 162.57,-31.93 4.26,-4e-4 35.99,-0.01 174.37,-33.27 108.51,-23.58 220.85,-59.87"
     id="path3009-5" />
  <path
     style="fill:none;stroke:#ff6633;stroke-width:1;stroke-linejoin:round;stroke-dasharray:none;stroke-opacity:1"
     d="m 3247.53,3560.69 -61.01,14.82 -8.88,7.01 -3.39,0.12 -52.25,-15.9 -242.08,-122.04 -76.45,-22.56 -5.03,-3.86 -2.22,-4.56 -1.17,-4.79 v -5.26 l 60.78,-210.41 -15.55,-59.15 -2.34,-3.38"
     id="path3-3" />
  <path
     style="fill:none;stroke:#ff6633;stroke-width:5;stroke-linejoin:round;stroke-dasharray:none;stroke-opacity:1"
     d="m 2813.67,3120.66 14.59,1.53 6.08,3.74 3.62,4.8"
     id="path2-7" />
  <path
     style="fill:none;fill-rule:nonzero;stroke:#ff0000;stroke-width:5;stroke-linecap:butt;stroke-linejoin:round;stroke-miterlimit:4;stroke-dasharray:none;stroke-opacity:1"
     d="m 2740.19,3205.09 13.93,-0.38 6.4,-2.89 3.73,-6.27"
     id="path1725" />
  <path
     style="fill:none;fill-rule:nonzero;stroke:#ff0000;stroke-width:5;stroke-linecap:butt;stroke-linejoin:round;stroke-miterlimit:4;stroke-dasharray:none;stroke-opacity:1"
     d="m 2726.66,3200.89 -60.52,-18.77 -55.85,-2 -16.7,3.36 -74.11,16.29 -174.34,33.15 -40.57,-0.56 -161.49,32.43 -212.16,89.09 -17.09,7.87 -28.69,36.08 -19.4,22.22 -174.09,206.41 -128.79,148.99 -16.61,10.7 -18.05,2.9 -11.59,-3.79 -39.45,-39.45 -0.45,-6.41 1.11,-8.41 29.42,-30.43 8.58,-4.79 11.14,0.45 8.36,7.24 3.57,7.58 -1.45,7.69 -30.76,30.09 -1.56,7.58 1.67,6.35 10.83,22.85"
     id="path2-2" />
  <path
     style="fill:none;fill-rule:nonzero;stroke:#ff0000;stroke-width:5;stroke-linecap:butt;stroke-linejoin:round;stroke-miterlimit:4;stroke-dasharray:none;stroke-opacity:1"
     d="m 2751.39,3234.79 0.58,-13.65 -5.65,-10.41 -6.15,-5.65 -13.51,-4.19"
     id="path1-9" />
  <path
     style="fill:none;stroke:#ff6633;stroke-linejoin:round;stroke-opacity:1"
     d="m 2968.46,2981.21 -11.13,-19.73 -6.12,-42.25 -11.68,-92.71 -37.04,-211.47 -5.36,-16.11 -22.28,-256.03 1.74,-5.49 14.47,-20.51 0.03,-4.49 -2.65,-4.03 -4.3,-16.2 0.5,-10.25 6.28,-10.58 2.65,-14.38 12.4,-23.8 9.59,-10.08 10.41,-9.59"
     id="path8" />
  <path
     style="fill:none;fill-rule:nonzero;stroke:#ff6633;stroke-width:1;stroke-linecap:butt;stroke-linejoin:round;stroke-miterlimit:4;stroke-dasharray:none;stroke-opacity:1"
     d="m 3510.58,3400.11 -12.07,2.13 -22.53,1.06 -17.92,5.32 -16.15,1.24 -15.08,0.18 -18.63,-4.08 -16.15,-4.79 -8.52,-4.61 -18.1,-13.49 h -2.84 l -4.26,1.95 -29.81,12.6 -16.15,9.58 -4.26,-0.35 -14.19,-6.39 -5.86,0.71 -4.08,5.15 -9.58,9.94 -8.34,4.97 -10.11,0.71 -67.07,-5.68 -14.19,-3.9 -11.53,-6.57 -11,-11 -6.21,-3.73 -59.09,-12.95 -15.26,-0.18 -75.94,-18.1 -17.21,-2.84 -54.47,-26.97 -12.6,-0.89 -65.83,-17.57 -7.1,-4.08 -6.2,-9.43 -2.78,-13.54"
     id="path909" />
  <path
     style="fill:none;stroke:#d31345;stroke-width:5;stroke-linecap:butt;stroke-linejoin:round;stroke-miterlimit:4;stroke-dasharray:none;stroke-opacity:1"
     d="m 992.77,3806.35 177.23,-27.85 243.85,-39.59"
     id="path7" />
  <path
     style="fill:none;stroke:#d31345;stroke-width:1;stroke-linecap:butt;stroke-linejoin:round;stroke-miterlimit:4;stroke-dasharray:none;stroke-opacity:1"
     d="m 104,3967 14,-1 44.5,-3 4,-3 v -20.5 l 4,-6 149.32,-8.46 2.04,-3.05 -2.86,-49.49 5.5,-4.5 387,-24.5 59.5,-3 49,-7 172.77,-27.15"
     id="path4629" />
  <path
     d="m 727,3842.5 -3.5,-4 -2.5,-48.5 -4.35,-4.53 -242.89,13.79 -155.92,8.49"
     id="path4631"
     style="fill:none;stroke:#d31345;stroke-width:1;stroke-linecap:butt;stroke-linejoin:round;stroke-miterlimit:4;stroke-dasharray:none;stroke-opacity:1" />
  <path
     d="m 1400.3,3612.61 -56.8,-49.52 -110.22,-97.45 -6.1,-3.31 -76.67,12.27 -3.16,0.75 -2.27,2.64 0.92,4.39 4.38,33.51 -3.63,4.79 -195.25,30.85"
     id="path3828"
     style="fill:none;stroke:#d31345;stroke-width:1;stroke-linecap:butt;stroke-linejoin:round;stroke-miterlimit:4;stroke-dasharray:none;stroke-opacity:1" />
  <path
     style="fill:none;stroke:#d31345;stroke-width:5;stroke-linejoin:round;stroke-dasharray:none;stroke-opacity:1"
     d="m 1400.3,3612.61 10.75,9.66 15.73,103.83"
     id="path1" />
  <path
     style="fill:none;stroke:#d31345;stroke-width:1px;stroke-linecap:butt;stroke-linejoin:round;stroke-opacity:1"
     d="m 1130,4441.5 -14,-193.5 4.5,-6.5 -0.5,-10.5 5,-5.5 v -17.5 l -2.5,-2.5 -5,-1 -3.5,-3.5 -0.17,-2.99"
     id="path851" />
  <path
     style="fill:none;stroke:#d31345;stroke-width:1;stroke-linecap:butt;stroke-linejoin:round;stroke-miterlimit:4;stroke-dasharray:none;stroke-opacity:1"
     d="m 1113.83,4198.01 -2.33,-40.01 -2.63,-5.52"
     id="path855" />
  <path
     style="fill:none;stroke:#d31345;stroke-width:1px;stroke-linecap:butt;stroke-linejoin:round;stroke-opacity:1"
     d="m 1108.87,4152.48 -2.37,-4.98 -2.5,-55 -2.77,-35.68 1.26,-5.51"
     id="path3596" />
  <path
     style="fill:none;stroke:#d31345;stroke-width:5;stroke-linecap:butt;stroke-linejoin:round;stroke-miterlimit:4;stroke-dasharray:none;stroke-opacity:1"
     id="path3610"
     d="m 1222.52,3928.69 -2.89,11.94 5.28,27.16 -1.68,8.4 -6.85,14.86 -5.46,15.62 -2.58,15.64 5.62,76.15 15.21,197.79 -2.19,3.5 -40,29.75 -26.5,25.5 -15,21 -6.5,29 1.5,24.5 9,23.5 6.5,19.5 -2.5,28 -8.5,16 -36.5,36 -71.91,44.11" />
</svg>
