<?xml version="1.0" encoding="UTF-8" standalone="no"?>
<svg
   id="svg2"
   height="10100"
   width="7250"
   viewBox="-400 -150 7250 10100"
   version="1.1"
   xmlns:xlink="http://www.w3.org/1999/xlink"
   xmlns="http://www.w3.org/2000/svg"
   xmlns:svg="http://www.w3.org/2000/svg"
   xmlns:rdf="http://www.w3.org/1999/02/22-rdf-syntax-ns#"
   xmlns:cc="http://creativecommons.org/ns#"
   xmlns:dc="http://purl.org/dc/elements/1.1/">
  <metadata
     id="metadata42">
    <rdf:RDF>
      <cc:Work
         rdf:about="">
        <dc:format>image/svg+xml</dc:format>
        <dc:type
           rdf:resource="http://purl.org/dc/dcmitype/StillImage" />
      </cc:Work>
    </rdf:RDF>
  </metadata>
  <defs
     id="defs6" />
  <image
     xlink:href="../../timelines/basemap/sfoosm.png"
     id="image12"
     height="12816"
     width="9879"
     y="-267"
     x="-534"
     style="display:none" />
  <path
     style="fill:none;stroke:#d31345;stroke-width:5;stroke-linecap:butt;stroke-linejoin:miter;stroke-miterlimit:4;stroke-dasharray:none;stroke-opacity:1"
     id="path3598"
     d="m 1129.5,4022.5 -26.5,0.5" />
  <path
     style="fill:none;stroke:#d31345;stroke-width:5;stroke-linecap:butt;stroke-linejoin:round;stroke-miterlimit:4;stroke-dasharray:none;stroke-opacity:1"
     id="path3600-3"
     d="m 1104.5,4023 -24.5,2.5 -40,1 -15,2 -35,9.5 -100.29,25.37 -9.71,4.13 -8,7 -21,5 -78.45,12.34 -11.05,4.16 -11.5,5 -100,6.5 -141,7" />
  <path
     d="m 2005,1428 28,38 28,31 21,17 22,14 16,5 166,-1 71,2 25,5 14.28,8.96 11.86,13.9 192.63,348.88 47.58,127.52 88.34,348.85 6.09,5.65 7.98,2.5 280.4,-46.25 8.12,2.08 4.96,6.49 7.21,87.63 16.33,158.88 -0.49,29.2 -29.7,100.97 -20.29,61.87 -15.12,43.18 -37.17,122.97 4.68,25.72 -15.59,72.84 -19.46,91.32 -0.3,11.57 48.04,190.47 7.83,7.2 67.66,14.1 5.93,8.21 1.04,10.41 -8.39,15.85 -4,9 -64.87,131.2 -4.15,3.45 -6.03,2.79 -7.45,-0.28 -79.65,-40.75 -15.08,-15.65 -232.35,-67.48 -107.42,-4.29 -65,-8.5 -80.36,-7.47 -26.43,2.66 -846.12,190.09 -114.22,20.06 -7.16,5.01 -2.54,8.44 15.83,98.94 -4.91,17.47 -7.08,7.3 -182,180.5 -33.82,34.07 -2.78,10.03 27.74,381.64 -3.28,13.28 -40.83,92.12 -9.66,27.11 -10.18,17.94 -33.4,32.19 -21.27,27.59 -43.85,56.89 -25.16,34.82 -18.75,46.15 -5.06,19.9 -25.01,47.92 -64.06,65.2 -66.39,38.34 -31.66,30.7 -23.92,12.45 -24.68,5.16 -59.5,1 -26.5,-0.5 -14,3.5 -11.5,8.5 -13,16.5 -29.48,45.77 -5.37,15.75 2.22,149.93 1.98,76.23 4.45,14.35 16.83,38.11 116.08,143.15 103.26,114.7 19,28 38,36 41,35 31,25 25,42 19,25 42,34 61,40 25,31 76,111 12,31 23,50 72,149 83,157"
     id="path3610-3"
     style="fill:none;stroke:#009ada;stroke-width:5;stroke-linecap:butt;stroke-linejoin:round;stroke-miterlimit:4;stroke-dasharray:none;stroke-opacity:1" />
  <text
     style="font-style:normal;font-weight:normal;font-size:144px;font-family:Sans;-inkscape-font-specification:Sans;fill:#000000;fill-opacity:1;stroke:none"
     xml:space="preserve"
     id="text3639-3"
     y="56.96"
     x="-310.55"><tspan
       id="tspan1"
       y="56.96"
       x="-310.55">1956 proposal</tspan></text>
  <path
     style="fill:none;stroke:#009ada;stroke-width:5;stroke-linecap:butt;stroke-linejoin:round;stroke-miterlimit:4;stroke-dasharray:none;stroke-opacity:1"
     id="path3083"
     d="m 1412,6357 4,5 28,47 22,30 35,50 50,61 48,59 21,29 30.92,36.67 24.19,22.46 266.61,137.62 336.29,179.08 28.79,24.19 25.91,23.61 43.76,52.4 141.66,161.23 19,28.79 27.64,72.56 12.09,26.49 84.07,122.08 51.83,69.68 20.15,29.37 143.96,127.84 267.76,275.82 195.78,215.94 20.73,21.88 45.49,35.7 89.25,69.1 115.74,93.29 89.25,68.52 309.8,250.49 209.03,165.26 95.01,80.62 273.5,211.85 48.54,39.72 3.15,9.46 3.78,18.91 -1.89,10.4 -34.36,53.27 -8.51,16.71 -3.78,14.5 -0.95,18.6 -0.32,21.12 8.2,29.32 54.22,169.91 25.85,56.43" />
  <path
     style="fill:none;stroke:#009ada;stroke-width:5;stroke-linecap:butt;stroke-linejoin:round;stroke-miterlimit:4;stroke-dasharray:none;stroke-opacity:1"
     id="path2863"
     d="m 2999.25,3526.61 1.01,12.7 3.48,7.03 52.95,25.78 52.85,26.76 51.22,38.71 46,48.57 38.83,17.64 56.42,31.57 85.05,49.7 27.65,20.65 45.85,34.3 11.2,11.2 51.75,43.78 32.65,39.79 119.06,71.26 45.7,48.06 33.59,33.88 163,171 260,278 142,149 14,21 43,79 12,15 55,48 160,140 191,163 213,187 228,200 56,47 27,29 109,180 210,332 23,44 26,60 28,66 17,27 29,35 65,71 79,91 6.95,9.44" />
  <path
     style="opacity:1;fill:none;fill-rule:nonzero;stroke:#009ada;stroke-width:5;stroke-linecap:butt;stroke-linejoin:round;stroke-miterlimit:4;stroke-dasharray:none;stroke-opacity:1"
     d="m 1393.63,3638.27 -5.13,-32.83 -5.99,-9.33 -93.38,-80.9 v 0 l -7.59,-2.43 -365.36,60.37 -9.7,-1.5 -68.8,-61.92 -12,-6.27 -13.37,-1.18 -49.28,7.61 -48.62,18.24 -17.97,2.07 -65.51,-16.42 -13.42,-8.02 -8.52,-10.69 -7.75,-33.84 -4.81,-7.1 -9.71,-7.99 -67.42,-27.91 -7.04,-8.94 -29.72,-323.71 -21.58,-120.93 -26.47,-78.18 -118.49,-257.34 -47.23,-53.34 -89.17,-128.26 -156.36,-149.84 -31.76,-30.95 -38.27,-36.65 -13.44,-20.36 -5.29,-24.43 -26.23,-188.31 0.3,-22 11.26,-74.66 7.38,-27.53 7.7,-14.87 148.21,-161.24 18.32,-23.62 6.51,-21.17 -38.27,-329 2.85,-17.1 25.24,-56.6 26.87,-32.98 16.69,-24.43 4.07,-21.17 -4.89,-26.47 -13.44,-17.92 -78.18,-87.14 -79.4,-88.76 -9.77,-19.14 -1.22,-13.84 14.25,-66.37 6.11,-45.2 -2.44,-24.43 -29.39,-67.8 -19.93,-26.8 -19.93,-21.01 -64.51,-66.76 -12.81,-8.3 -18.59,-1.71 -43.15,-5.11 -10.65,-7.46 -9.62,-11.36 -5.04,-12.75 -1.03,-37.59 2.68,-12.21 7.35,-17.21 26.53,-31.28 14.43,-17.1 54.89,-61.95 9.73,-13.62 8.92,-21.84 58.18,-160.49 24.3,-103.43"
     id="path3280" />
  <path
     d="m 3064.86,3394.12 274.34,-561.45 12.3,-17.36 15.77,-13.7 47.52,-34.65 20.79,-12.37 20.29,-12.37 16.33,-10.89 146.55,-84.06 48.75,-27.5 56,-32 35.75,-20.75 125,-73.25 49.75,-28.5 44,-26.25 45,-27 21,-16 38,-44 28,-54 24,-40 26,-53 25,-29 36,-24 38,-19 45,-8 45,-2 60,11 106,19 25,-2 46,-3 38,7 32,4 30,-2 117,-36 95,-25 153,-31 77,-14 75,-3 83,-1 36.25,6.11 54.21,16.39 56.47,0.47 22.74,6.71 67.19,42.63 10.38,0.81 35.81,-24.58 47,-14.53 13.64,-10.67 5.76,-60.8 -8.99,-58.26 -24.05,-88.13 1.27,-21.62 19.09,-60.75 12.37,-64.26 16.6,-130.34 29.23,-198.05 15.45,-142.49 2.06,-153.24 2.8,-24.11 23.35,-74.94 76.97,-189.65 2.04,-21.29 -2.62,-19.11 -7.49,-17.78 -57.69,-94.42"
     id="path3057-6"
     style="fill:none;stroke:#009ada;stroke-width:5;stroke-linecap:butt;stroke-linejoin:round;stroke-miterlimit:4;stroke-dasharray:none;stroke-opacity:1" />
  <path
     style="fill:none;stroke:#d31345;stroke-width:5;stroke-linecap:butt;stroke-linejoin:round;stroke-miterlimit:4;stroke-dasharray:none;stroke-opacity:1"
     id="path2818"
     d="m 1466.49,3685.82 -25.99,26.68 -107.5,106.5 -57.5,58 -67.83,66.17 -38.67,39.33 -72,74.5 -69.5,72 -21,10.5 -22.5,5 -14,6.5 -28.5,21.5 -137,122.5 -35,29.5 -38,36.5 -25,25.5 -29.5,42.5 -23.5,31.5 -20.64,26.55 -41.01,43.84 -12.73,30.41 -23.33,41.01 -12.02,28.28 -1.41,43.13 -2.12,79.2 -0.77,27.91 3.47,11.03 25.85,32.15 2.84,15.13 13.87,43.19 1.75,39.35 8.1,54.04 0.08,67.38" />
  <path
     style="fill:none;stroke:#d31345;stroke-width:5;stroke-linecap:butt;stroke-linejoin:round;stroke-miterlimit:4;stroke-dasharray:none;stroke-opacity:1"
     id="path2998"
     d="m 424.95,3861.09 348.72,-20.2 120.92,-19.95 504.7,-78.74 11.74,6.14 160.47,163.78 2.21,7.41 15.29,203.16 20.49,275.67 -47.41,172.73" />
</svg>
