<?xml version="1.0" encoding="UTF-8" standalone="no"?>
<svg
   id="svg2"
   height="10100"
   width="7250"
   viewBox="-400 -150 7250 10100"
   version="1.1"
   xmlns:xlink="http://www.w3.org/1999/xlink"
   xmlns="http://www.w3.org/2000/svg"
   xmlns:svg="http://www.w3.org/2000/svg"
   xmlns:rdf="http://www.w3.org/1999/02/22-rdf-syntax-ns#"
   xmlns:cc="http://creativecommons.org/ns#"
   xmlns:dc="http://purl.org/dc/elements/1.1/">
  <metadata
     id="metadata42">
    <rdf:RDF>
      <cc:Work
         rdf:about="">
        <dc:format>image/svg+xml</dc:format>
        <dc:type
           rdf:resource="http://purl.org/dc/dcmitype/StillImage" />
      </cc:Work>
    </rdf:RDF>
  </metadata>
  <defs
     id="defs6" />
  <image
     xlink:href="../../basemap/sfoosm.png"
     id="image12"
     height="12816"
     width="9879"
     y="-267"
     x="-534"
     style="display:none" />
  <path
     d="m 1892.42,1454.45 -0.14,36.98 4.26,13.71 6.77,16.81 11.91,8.07 23.4,3.73 181.37,-0.74 166,-1 71,2 25,5 25,14 21,18 134,219 139,212 13,27 27.63,105.87 28.21,111.37 31.68,89.59 16.33,40.59 7.92,10.39 6.43,7.92 21.28,13.36 11.88,6.93 24.25,12.37 15.84,6.93 8.91,1.98 75.24,-12.37 36.13,-5.94 13.36,7.92 7.42,5.94 4.95,13.36 16.33,158.88 -0.49,29.2 -29.7,100.97 -20.29,61.87 -0.49,16.33 0.49,17.32 18.31,109.88 5.44,26.23 22.77,35.64 8.91,14.35 6.43,22.77 -32.2,164.82 -7.5,36 -9,36.5 -9,43 0.5,17.5 5.5,16 4.5,7.5 21.5,33.5 3,7.5 v 9 l -4,9 -66.5,134.5 -4,7.5 -10,9 -12,6 -11.5,1 -13,-1.5 -20,-12 -27.5,-16.5 -29,-15.5 -27.5,-9.5 -41.5,-10.5 -46.5,-22 -30,-16 -28,-12.5 -51.5,-16 -49,-11 -49.5,-6 -65,-8.5 -46,-4 -63,-9 -49.25,-3.5 -54.75,1.5 -52,5.5 -149.5,32 -187.5,40.5 -80,16.5 -37.5,12 -36.5,16.5 -186,106 -11.54,8.48 -30.46,30.52 -89,89.5 -182,180.5 -6.5,15 -2.5,23 1,30 6.5,88 15.5,201.5 3,45.5 -3.5,13.5 -48,92 -12.45,20.18 -19.46,22.65 -107.59,90.16 -30.5,23.5 -30,23 -31.5,17 -25,15.5 -17.5,15.5 -13.5,19.5 -10,21 -8.5,35 -3.5,33.5 -4.5,39 -7,17.5 -12,18.5 -53.5,55 -15,10 -20,8.5 -59.5,1 -26.5,-0.5 -14,3.5 -11.5,8.5 -13,16.5 -38,59 -7.5,16 -1.5,16.5 v 16.5 l 2,29.2 3.96,32.67 8.41,41.58 1.98,76.23 4.45,14.35 16.83,38.11 20.29,20.29 17.82,14.85 30.69,25.95 11.38,11.88 11.38,15.84 18.31,27.22 19.3,26.73 22.27,17.82 26.23,22.27 24.67,34 17,41 19,28 38,36 41,35 31,25 25,42 19,25 42,34 61,40 25,31 76,111 12,31 23,50 72,149 83,157"
     id="path3610-3"
     style="fill:none;stroke:#009ada;stroke-width:5;stroke-linecap:butt;stroke-linejoin:round;stroke-miterlimit:4;stroke-dasharray:none;stroke-opacity:1" />
  <path
     style="fill:none;stroke:#d31345;stroke-width:1px;stroke-linecap:butt;stroke-linejoin:round;stroke-opacity:1"
     id="path3592"
     d="m 654.5,4459.5 -5,2.5 -9.5,-6.5 -9,-2.5 -38,3 -4.5,-0.5 -2,-3.5 -1.5,-21 -2.5,-3.5 -152,8 -246.5,14 -2.5,3.5 4,80 -2,3 -8,0.5 -2.5,-2.5 -1.5,-23.5 2.5,-3 7.5,-0.5 2,-2.5" />
  <path
     style="fill:none;stroke:#d31345;stroke-width:5;stroke-linecap:butt;stroke-linejoin:round;stroke-miterlimit:4;stroke-dasharray:none;stroke-opacity:1"
     id="path2818"
     d="m 1444.38,3708.52 -3.88,3.98 -107.5,106.5 -57.5,58 -67.83,66.17 -21.81,24.93" />
  <path
     style="fill:none;stroke:#009ada;stroke-width:5;stroke-linecap:butt;stroke-linejoin:round;stroke-miterlimit:4;stroke-dasharray:none;stroke-opacity:1"
     id="path3637"
     d="m 3003.74,3546.35 -7.23,1.15 -10.54,5.97" />
  <text
     style="font-style:normal;font-weight:normal;font-size:144px;font-family:Sans;-inkscape-font-specification:Sans;fill:#000000;fill-opacity:1;stroke:none"
     xml:space="preserve"
     id="text3639-3"
     y="56.96"
     x="-310.55"><tspan
       id="tspan1"
       y="56.96"
       x="-310.55">1961 proposal</tspan></text>
  <path
     style="fill:none;stroke:#009ada;stroke-width:5;stroke-linecap:butt;stroke-linejoin:round;stroke-miterlimit:4;stroke-dasharray:none;stroke-opacity:1"
     id="path3083"
     d="m 1412,6357 4,5 28,47 22,30 35,50 50,61 48,59 21,29 30.92,36.67 24.19,22.46 266.61,137.62 336.29,179.08 28.79,24.19 25.91,23.61 43.76,52.4 141.66,161.23 19,28.79 27.64,72.56 12.09,26.49 84.07,122.08 51.83,69.68 20.15,29.37 143.96,127.84 267.76,275.82 195.78,215.94 20.73,21.88 45.49,35.7 89.25,69.1 115.74,93.29 89.25,68.52 309.8,250.49 209.03,165.26 95.01,80.62" />
  <path
     style="fill:none;stroke:#009ada;stroke-width:5;stroke-linecap:butt;stroke-linejoin:round;stroke-miterlimit:4;stroke-dasharray:none;stroke-opacity:1"
     id="path2863"
     d="m 2999.25,3526.61 1.01,12.7 3.48,7.03 52.95,25.78 53.79,39.05 71.08,63.61 23.93,14.21 39.46,17.32 10.85,3.85 46.2,25.2 85.05,49.7 27.65,20.65 45.85,34.3 11.2,11.2 51.75,43.78 102,71 33.04,19.96 27.7,22.93 34.67,45.23 33.59,33.88 163,171 260,278 142,149 14,21 43,79 12,15 55,48 160,140 191,163 213,187 228,200 56,47 27,29 109,180 210,332 23,44 26,60 28,66 17,27 29,35 65,71 79,91 67,91 60,71 27,41 65,63 195,189 121,116 13,21 50,72 35,38 34,33 36,29" />
  <path
     style="fill:none;stroke:#d31345;stroke-width:1;stroke-linecap:butt;stroke-linejoin:round;stroke-miterlimit:4;stroke-dasharray:none;stroke-opacity:1"
     d="m 1113.83,4198.01 -2.33,-40.01 -2.63,-5.52"
     id="path855" />
  <path
     style="fill:none;stroke:#d31345;stroke-width:1px;stroke-linecap:butt;stroke-linejoin:round;stroke-opacity:1"
     d="m 1108.87,4152.48 -2.37,-4.98 -2.5,-55 -2.71,-34.98 2.51,-7.23"
     id="path3596" />
  <path
     style="fill:none;stroke:#d31345;stroke-width:1px;stroke-linecap:butt;stroke-linejoin:round;stroke-opacity:1"
     id="path3594"
     d="m 655,4457.5 -8,15 -15,17 -24.5,24.5 -14.5,18.5 -10,22 -1.5,14 -1.5,44 3.5,5 32,16 8,9.5 11.5,23.5 18.5,16.5 26.5,13.5 31.5,13 71,18.5 8.43,2.29 4.4,-3.5 -0.26,-7.94" />
  <path
     style="fill:none;stroke:#d31345;stroke-width:1px;stroke-linecap:butt;stroke-linejoin:round;stroke-opacity:1"
     id="path3602"
     d="m 582,4554.5 -30,55 -8,20 -2.5,63 -2.5,88 4,13 37,47 23,29.5 6.5,2.5 78,-1 4,3.5 1,13 3.5,2 72.5,-0.68" />
  <path
     id="path851"
     d="m 1130,4441.5 -14,-193.5 4.5,-6.5 -0.5,-10.5 5,-5.5 v -17.5 l -2.5,-2.5 -5,-1 -3.5,-3.5 -0.17,-2.99"
     style="fill:none;stroke:#d31345;stroke-width:1px;stroke-linecap:butt;stroke-linejoin:round;stroke-opacity:1" />
  <path
     style="opacity:1;fill:none;fill-rule:nonzero;stroke:#009ada;stroke-width:5;stroke-linecap:butt;stroke-linejoin:round;stroke-miterlimit:4;stroke-dasharray:none;stroke-opacity:1"
     d="m 1418.62,3723.76 -490.12,79.24 -54.87,7.4 -15.42,-5.03 -14.98,-11.28 -82.2,-121.36 -212.14,-157.17 -22.39,-44.79 -14.25,-61.48 -29.72,-323.71 -21.58,-120.93 -26.47,-78.18 -118.49,-257.34 -47.23,-53.34 -89.17,-128.26 -156.36,-149.84 -31.76,-30.95 -38.27,-36.65 -13.44,-20.36 -5.29,-24.43 -26.23,-188.31 0.3,-22 11.26,-74.66 7.38,-27.53 7.7,-14.87 148.21,-161.24 18.32,-23.62 6.51,-21.17 -38.27,-329 2.85,-17.1 25.24,-56.6 26.87,-32.98 16.69,-24.43 4.07,-21.17 -4.89,-26.47 -13.44,-17.92 -78.18,-87.14 -79.4,-88.76 -9.77,-19.14 -1.22,-13.84 14.25,-66.37 6.11,-45.2 -2.44,-24.43 -29.39,-67.8 -19.93,-26.8 -19.93,-21.01 -114.41,-179.97 -5.7,-14.25 -1.39,-17.51 2.89,-9.19 25.59,-27.92"
     id="path3280" />
  <path
     d="m 3078.7,3038.19 5.94,-31.68 4.95,-32.17 4.45,-16.83 8.41,-12.37 11.38,-11.88 15.84,-9.9 73.26,-30.19 65.34,-31.18 49.5,-25.24 49.5,-35.14 47.52,-34.65 20.79,-12.37 20.29,-12.37 16.33,-10.89 146.55,-84.06 48.75,-27.5 56,-32 35.75,-20.75 125,-73.25 49.75,-28.5 44,-26.25 45,-27 21,-16 38,-44 28,-54 24,-40 26,-53 25,-29 36,-24 38,-19 45,-8 45,-2 60,11 106,19 25,-2 46,-3 38,7 32,4 30,-2 117,-36 95,-25 153,-31 77,-14 75,-3 83,-1 58,8 h 23 l 24,-3 24,-10 24,-16 17,-20 15,-23 47,-105 16,-47 6,-44 9,-39 13,-34 27,-84 10,-19 31,-32 33,-32 21,-17 298,-193 15,-17 11,-26 3,-20 -4,-27 -16,-56 -57,-172 -3,-38 4,-21 13,-46 18,-49"
     id="path3057-6"
     style="fill:none;stroke:#009ada;stroke-width:5;stroke-linecap:butt;stroke-linejoin:round;stroke-miterlimit:4;stroke-dasharray:none;stroke-opacity:1" />
  <path
     style="fill:none;stroke:#d31345;stroke-width:5;stroke-linecap:butt;stroke-linejoin:round;stroke-miterlimit:4;stroke-dasharray:none;stroke-opacity:1"
     id="path2979"
     d="m 1010.9,4137.3 -4.4,2.2 -22.5,5 -14,6.5 -28.5,21.5 -137,122.5 -35,29.5 -38,36.5 -25,25.5 -29.5,42.5 -23.5,31.5" />
  <path
     style="fill:none;stroke:#d31345;stroke-width:1;stroke-linecap:butt;stroke-linejoin:round;stroke-miterlimit:4;stroke-dasharray:none;stroke-opacity:1"
     d="m 1441.62,3713.42 29.1,-29.42 4.34,0.07 20.44,20.93 v 4.5 l -7,6.5 h -4.5 l -20.41,-19.95 -4.54,-0.54"
     id="path1" />
  <path
     style="fill:none;stroke:#d31345;stroke-width:1;stroke-linecap:butt;stroke-linejoin:round;stroke-miterlimit:4;stroke-dasharray:none;stroke-opacity:1"
     d="m 1010.9,4137.3 16.6,-8.3 69.5,-72 36.07,-35.61 52.79,-53.29"
     id="path2818-7" />
  <path
     id="path8203"
     d="m 1051.04,4026.36 29.46,-0.36 24,-3 28.17,-1.49"
     style="fill:none;stroke:#d31345;stroke-width:1px;stroke-linecap:butt;stroke-linejoin:round;stroke-opacity:1" />
  <path
     id="path8197"
     d="m 1051.04,4026.36 -11.04,0.14 -15,2 -35,9.5 -126.5,32 -7.5,3.5 -3.37,4.04"
     style="fill:none;stroke:#d31345;stroke-width:5;stroke-linecap:butt;stroke-linejoin:round;stroke-miterlimit:4;stroke-dasharray:none;stroke-opacity:1" />
  <path
     id="path3600"
     d="m 852.63,4077.54 -1.63,1.96 -98.5,15.5 -2.5,6 -100,6.5 -3,3 0.5,23 -1.5,3 -521,28.5"
     style="fill:none;stroke:#d31345;stroke-width:1px;stroke-linecap:butt;stroke-linejoin:round;stroke-opacity:1" />
</svg>
