<?xml version="1.0" encoding="UTF-8" standalone="no"?>
<svg
   id="svg2"
   viewBox="-400 -150 7250 10100"
   height="10100"
   width="7250"
   version="1.1"
   xmlns:xlink="http://www.w3.org/1999/xlink"
   xmlns="http://www.w3.org/2000/svg"
   xmlns:svg="http://www.w3.org/2000/svg"
   xmlns:rdf="http://www.w3.org/1999/02/22-rdf-syntax-ns#"
   xmlns:cc="http://creativecommons.org/ns#"
   xmlns:dc="http://purl.org/dc/elements/1.1/">
  <metadata
     id="metadata42">
    <rdf:RDF>
      <cc:Work
         rdf:about="">
        <dc:format>image/svg+xml</dc:format>
        <dc:type
           rdf:resource="http://purl.org/dc/dcmitype/StillImage" />
      </cc:Work>
    </rdf:RDF>
  </metadata>
  <defs
     id="defs6" />
  <image
     xlink:href="../../timelines/basemap/sfoosm.png"
     id="image12"
     height="12816"
     width="9879"
     y="-267"
     x="-534"
     style="display:none" />
  <text
     style="font-size:144px;font-style:normal;font-weight:normal;fill:#000000;fill-opacity:1;stroke:none;font-family:Sans;-inkscape-font-specification:Sans"
     xml:space="preserve"
     id="text3639"
     y="9697.96"
     x="-310.55"><tspan
       id="tspan2"
       y="9697.96"
       x="-310.55" /></text>
  <text
     style="font-style:normal;font-weight:normal;font-size:144px;font-family:Sans;-inkscape-font-specification:Sans;fill:#000000;fill-opacity:1;stroke:none"
     xml:space="preserve"
     id="text3639-3"
     y="56.96"
     x="-310.55"><tspan
       id="tspan1"
       y="56.96"
       x="-310.55">1948 proposal</tspan></text>
  <path
     id="path8197"
     d="m 1051.04,4026.36 -11.04,0.14 -15,2 -35,9.5 -126.5,32 -7.5,3.5 -3.37,4.04"
     style="fill:none;stroke:#005695;stroke-width:5;stroke-linecap:butt;stroke-linejoin:round;stroke-miterlimit:4;stroke-dasharray:none;stroke-opacity:1" />
  <path
     id="path3600"
     d="m 852.63,4077.54 -1.63,1.96 -98.5,15.5 -2.5,6 -100,6.5 -3,3 0.5,23 -1.5,3 -521,28.5"
     style="fill:none;stroke:#005695;stroke-width:1px;stroke-linecap:butt;stroke-linejoin:round;stroke-opacity:1" />
  <path
     style="fill:none;stroke:#ff6633;stroke-width:5;stroke-linecap:butt;stroke-linejoin:round;stroke-miterlimit:4;stroke-dasharray:none;stroke-opacity:1"
     d="m 1504.84,3767.3 -4.34,-9.8 2,-10 9,-10 21,-19.5 1.5,-6 -2.5,-5.5 -6.5,-6 h -7.5 l -7.5,4 -28,29 -0.5,10 6.5,7.5 31,30 10,3 16,-3 15,-9.5 128.5,-149 174,-206 20,-23 28.52,-35.07 17.98,-8.93 212.5,-89.5 162.57,-31.93 4.26,-4e-4 35.99,-0.01 174.37,-33.27 108.51,-23.58 217.97,-59.09"
     id="path3009" />
  <path
     style="fill:none;stroke:#005695;stroke-width:5;stroke-linecap:butt;stroke-linejoin:round;stroke-miterlimit:4;stroke-dasharray:none;stroke-opacity:1"
     id="path2998"
     d="m 1203.87,3770.98 4.4,-5.87 21.95,-4.13 10.72,-4.26 9.04,-5.7 179.52,-29.02 10.23,1.58 21.36,22.04 h 5.26 l 5.43,-5.09" />
  <path
     style="fill:none;stroke:#005695;stroke-width:1;stroke-linejoin:round;stroke-dasharray:none;stroke-opacity:1"
     d="m 1203.87,3770.98 7.64,44.37 0.48,5.63 -0.84,6.59 -5.87,10.19 -17.62,26.85 -5.99,8.87 -2.04,4.08 -0.48,6.23 3.72,22.18 -1.68,6.59 -5.63,9.11 -14.27,9.59 -8.87,3.72 -55.27,9.11 -39.8,9.71 -60.54,4.68 -60.42,14.99 h -34.41 l -46.28,10.91 -28.89,4.68 -20.38,9.23 -6.59,10.55 -12.11,20.74 -10.43,9.59 -55.03,21.1 -49.75,12.95 -133.67,7.07 -23.26,0.6 -2.88,4.08 10.79,170.6 -3.12,2.76 -374.76,20.62"
     id="path1" />
  <path
     style="fill:none;stroke:#005695;stroke-width:1;stroke-linejoin:round;stroke-dasharray:none;stroke-opacity:1"
     d="m 826.79,3989.07 -23.03,-3.88 -10.17,-6.27 -20.01,-15.94 -9.66,-4.92 -33.06,-3.39 -52.22,8.65 -26.96,8.65 -3.39,-0.17 -28.31,-3.22 -13.22,1.02 -5.43,5.93 -6.1,6.27 -4.07,1.02 -5.26,-0.34 -4.07,-3.73 -1.53,-5.76 -3.05,-59.51 -2.2,-3.05 -407.59,23.4 -2.03,1.53 1.53,25.09 -2.2,2.37 -57.65,3.56"
     id="path2" />
  <path
     style="fill:none;stroke:#005695;stroke-width:1;stroke-linejoin:round;stroke-dasharray:none;stroke-opacity:1"
     d="m 606.76,3969.59 -19.84,0.17 -3.73,-2.15 -3.51,-6.85"
     id="path3" />
  <path
     style="fill:none;stroke:#005695;stroke-width:1;stroke-linejoin:round;stroke-dasharray:none;stroke-opacity:1"
     d="m 1203.87,3770.98 -2.19,1.85 -211.17,32.72 -14.84,5.76 -93.76,14.92 -17.04,-0.42 -92.49,14.67 -537.54,30.94 -88.84,-9.66 -30.18,2.46 -10.77,2.37 -13.99,8.22 -5.59,1.36 -5.76,0.34"
     id="path4" />
  <path
     style="fill:none;stroke:#005695;stroke-width:1;stroke-linejoin:round;stroke-dasharray:none;stroke-opacity:1"
     d="m 1201.69,3772.84 29.42,-4.24 1.19,-1.61 -0.51,-2.54 3.8,-5.59"
     id="path5" />
  <path
     style="fill:none;stroke:#d31345;stroke-width:5;stroke-linecap:butt;stroke-linejoin:round;stroke-miterlimit:4;stroke-dasharray:none;stroke-opacity:1"
     id="path2818-7"
     d="m 512.64,4650.88 22.21,0.51 4.07,-2.54 0.17,-18.31 19.45,-33.06 20.58,-36.18 12.73,-30.41 41.01,-43.84 20.64,-26.55 23.5,-31.5 29.5,-42.5 25,-25.5 38,-36.5 35,-29.5 137,-122.5 28.5,-21.5 14,-6.5 22.5,-5 21,-10.5 69.5,-72 72,-74.5 38.67,-39.33 67.83,-66.17 57.5,-58 107.5,-106.5 17.53,-17.99 6.63,-0.83 15.18,14.96 4.13,-0.16 16.55,-16.48 0.17,-4.73 -14.79,-13.46 -5.16,-4.2 -37.76,5.87 -1.8,2.52 4.45,29.25" />
  <path
     id="path8203"
     d="m 1051.04,4026.36 29.46,-0.36 24,-3 24.68,-1.31 9.58,-3.6 74.71,-76.37 59.03,-57.59 55.51,-57.19 110.25,-107.95 33.66,-33.92 3.14,-1.01 20.44,20.93 v 4.5 l -7,6.5 h -4.5 l -20.59,-19.29 -3.68,0.66"
     style="fill:none;stroke:#005695;stroke-width:1px;stroke-linecap:butt;stroke-linejoin:round;stroke-opacity:1" />
  <path
     style="fill:none;stroke:#d31345;stroke-width:5;stroke-linecap:butt;stroke-linejoin:round;stroke-miterlimit:4;stroke-dasharray:none;stroke-opacity:1"
     id="path3610"
     d="m 1222.52,3928.69 -2.89,11.94 5.28,27.16 11.54,40.44 -0.24,9.6 -6.14,46.82 9.29,124.32 -4.55,99.72 4.02,49.27 -1.68,13.84 -9.14,31.11 -38.88,75.01 -9.76,13.91 -34.4,44.68 -36.5,36 -71.91,44.11 -66.75,37.33 -31.41,16.54 -26.61,20.14 -23.26,30.21 -11.03,26.61 -8.15,40.28 -4.32,50.59 -5.99,20.38 -13.67,19.42 -52.51,56.59 -16.81,8.88 -19.89,5.97 -29.55,0.45" />
  <path
     style="fill:none;stroke:#005695;stroke-width:1;stroke-linejoin:round;stroke-dasharray:none;stroke-opacity:1"
     d="m 1461.09,3745.63 104.2,104.85 0.12,3.24 -33.09,33.21 -3.36,0.12 -16.06,-15.71 0.36,-2.4 33.09,-32.97 -0,-4.56"
     id="path6" />
</svg>
