<?xml version="1.0" encoding="UTF-8" standalone="no"?>
<svg
   id="svg2"
   viewBox="35, 1367, 5400, 5350"
   height="5350"
   width="5400"
   version="1.1"
   xmlns:xlink="http://www.w3.org/1999/xlink"
   xmlns="http://www.w3.org/2000/svg"
   xmlns:svg="http://www.w3.org/2000/svg"
   xmlns:rdf="http://www.w3.org/1999/02/22-rdf-syntax-ns#"
   xmlns:cc="http://creativecommons.org/ns#"
   xmlns:dc="http://purl.org/dc/elements/1.1/">
  <metadata
     id="metadata42">
    <rdf:RDF>
      <cc:Work
         rdf:about="">
        <dc:format>image/svg+xml</dc:format>
        <dc:type
           rdf:resource="http://purl.org/dc/dcmitype/StillImage" />
      </cc:Work>
    </rdf:RDF>
  </metadata>
  <defs
     id="defs6" />
  <image
     xlink:href="../../basemap/sfoosm.png"
     style="display:none"
     id="image12"
     height="12816"
     width="9879"
     y="-267"
     x="-534" />
  <text
     style="font-style:normal;font-weight:normal;font-size:144px;font-family:Sans;-inkscape-font-specification:Sans;fill:#000000;fill-opacity:1;stroke:none"
     xml:space="preserve"
     id="text3639"
     y="6624.96"
     x="124.45"><tspan
       id="tspan2"
       y="6624.96"
       x="124.45">1915</tspan></text>
  <text
     style="font-style:normal;font-weight:normal;font-size:144px;font-family:Sans;-inkscape-font-specification:Sans;fill:#000000;fill-opacity:1;stroke:none"
     xml:space="preserve"
     id="text3639-3"
     y="1573.96"
     x="124.45"><tspan
       id="tspan1"
       y="1573.96"
       x="124.45">1915</tspan></text>
  <path
     style="fill:none;stroke:#ff0000;stroke-width:5;stroke-linejoin:round"
     d="m 2790.64,2971.68 7.88,-22.77"
     id="path2" />
  <path
     style="fill:none;stroke:#ff0000;stroke-width:1;stroke-linejoin:round;stroke-dasharray:none"
     d="m 2801.81,2962.37 157.21,-83.32 15.04,-10.58 13.39,-11.9 11.08,-14.55 7.87,-11.13 4.21,-8.41 35.54,-119 22.68,-79.72 -14.96,-164.58 -2.57,-14.49 -11.69,-133.02 -3.51,-8.65 -12.39,-11.92 -3.04,-7.25 -3.74,-43.48 -2.1,-6.78 -9.59,-13.33 -1.64,-7.01 -1.4,-41.85 -1.87,-4.68 -10.75,-7.01 -17.77,-0.94 -23.85,-11.46"
     id="path3" />
  <path
     style="fill:none;stroke:#ff0000;stroke-width:1;stroke-linejoin:round;stroke-dasharray:none;stroke-opacity:1"
     d="m 2798.52,2948.9 10.44,-43.05 v -6.37 l -12.89,-58.24 8.89,-68.17 -12.45,-49.05 -110.41,-436.29 -25.64,-81.24 -6.5,-24.94 1.47,-5.03 4.61,-5.66 23.26,-5.45 262.61,-18.86 6.05,0.76"
     id="path4" />
  <path
     style="fill:none;stroke:#ff0000;stroke-width:1;stroke-linejoin:round;stroke-dasharray:none;stroke-opacity:1"
     d="m 3704.67,4040.16 39.08,-38.93 10.52,-6.66 7.95,-4.09 6.43,-1.64 h 138.52 l 192.64,32.61"
     id="path3-6" />
  <path
     style="fill:none;stroke:#ff0000;stroke-width:5;stroke-linejoin:round;stroke-dasharray:none;stroke-opacity:1"
     d="m 3171.45,3673.22 14.52,13.93 95.14,47.13 28.16,12.74 73.8,46.24 37.64,33.49 116.48,100.77 134.86,116.48 10.37,3.56 10.37,-0.59 11.86,-6.82"
     id="path5" />
  <path
     style="fill:none;stroke:#ff0000;stroke-width:1;stroke-linejoin:round;stroke-dasharray:none;stroke-opacity:1"
     d="m 3171.45,3673.22 -89.51,-61.95 -191.77,-93.36 -201.84,-56.61 -89.21,-26.38 -55.94,-7.65"
     id="path6" />
  <path
     style="fill:none;stroke:#ff0000;stroke-linejoin:round"
     d="m 3029.32,2759.82 4.58,-3.76 65.55,-10.66 11.99,0.99 25.29,-4.13 4.3,-3.14 2.48,-6.12 -3.06,-24.8 -36.7,-226.48"
     id="path7" />
  <path
     style="fill:none;stroke:#ff0000;stroke-linejoin:round"
     d="m 2966.54,2873.76 2.73,-9.92 -42.82,-268.96 -3.47,-10.91 -21.49,-247.97 -4.13,-14.05 -8.93,-13.56 -4.3,-16.2 0.5,-10.25 6.28,-10.58 2.65,-14.38 12.4,-23.8 9.59,-10.08 10.41,-9.59 1.98,-10.08 -8.33,-55.28"
     id="path8" />
  <path
     style="fill:none;stroke:#ff6633;stroke-width:1;stroke-linecap:butt;stroke-linejoin:round;stroke-miterlimit:4;stroke-dasharray:none;stroke-opacity:1"
     d="m 2848.05,3111.34 69.97,-19.69 41.95,-13.58 218.37,44.47 17.73,10.83 17.41,14.01 10.83,6.16 8.39,-0.96 9.64,-5.99"
     id="path1-3" />
  <path
     style="fill:none;stroke:#ff6633;stroke-width:5;stroke-linecap:butt;stroke-linejoin:round;stroke-miterlimit:4;stroke-dasharray:none;stroke-opacity:1"
     d="m 2088.05,3285.01 30.88,13.74 49.01,-12.49 7.18,-4.89 24.31,-26.38 10.4,-3.55 134.5,-23.38 174.37,-33.27 108.51,-23.58 220.85,-59.87"
     id="path3009" />
  <path
     style="fill:none;stroke:#ff0000;stroke-width:5;stroke-linejoin:round"
     d="m 2294.83,3418.53 100.29,-5.57 148.06,14.32 19.23,-3.99 19.37,-7.62 35.65,-25.55 84.04,-79.58 22.48,-21.49 20.5,-33.06 25.13,-76.7 7.93,-68.77 0.99,-70.09 -3.97,-40.34 2.65,-9.59 8.76,-14.88 15.87,-13.22"
     id="path1" />
</svg>
