<?xml version="1.0" encoding="UTF-8" standalone="no"?>
<svg
   id="svg2"
   height="1400"
   width="850"
   version="1.1"
   xmlns:xlink="http://www.w3.org/1999/xlink"
   xmlns="http://www.w3.org/2000/svg"
   xmlns:svg="http://www.w3.org/2000/svg"
   xmlns:rdf="http://www.w3.org/1999/02/22-rdf-syntax-ns#"
   xmlns:cc="http://creativecommons.org/ns#"
   xmlns:dc="http://purl.org/dc/elements/1.1/">
  <metadata
     id="metadata8">
    <rdf:RDF>
      <cc:Work
         rdf:about="">
        <dc:format>image/svg+xml</dc:format>
        <dc:type
           rdf:resource="http://purl.org/dc/dcmitype/StillImage" />
      </cc:Work>
    </rdf:RDF>
  </metadata>
  <defs
     id="defs6" />
  <image
     xlink:href="basemap/dwsosm.png"
     x="-100"
     y="-85"
     width="1188"
     height="1485"
     id="image10"
     style="display:none" />
  <path
     style="fill:none;stroke:#1d96d7;stroke-width:5;stroke-linecap:butt;stroke-linejoin:round;stroke-miterlimit:4;stroke-dasharray:none;stroke-opacity:1"
     id="path3759"
     d="m 272,425 52.5,-85.5 6,-23 -1,-39 -7.5,-11 -12,-3.5 -17.5,3.5 -40,15.5 -12.5,2 -21,-4 -12.5,-3 -17.5,2 -39.5,29 -6,8 v 16.5 l 13.5,98 4,7.5 12,6 54,15.5 15.5,1 10,-6.5 9.5,-10 z" />
  <text
     style="font-style:normal;font-weight:normal;font-size:144px;line-height:125%;font-family:Sans;-inkscape-font-specification:Sans;letter-spacing:0px;word-spacing:0px;fill:#000000;fill-opacity:1;stroke:none"
     xml:space="preserve"
     id="text2984"
     y="206.96"
     x="89.45"><tspan
       id="tspan1"
       y="206.96"
       x="89.45">2025</tspan></text>
  <path
     style="opacity:1;fill:none;fill-rule:nonzero;stroke:#204076;stroke-width:5;stroke-linecap:butt;stroke-linejoin:round;stroke-miterlimit:4;stroke-dasharray:none;stroke-opacity:1"
     d="m 617.27,984.46 -15.1,104.61 141.42,-35.75 -8.21,97.19"
     id="path817" />
  <path
     style="opacity:1;fill:none;fill-rule:nonzero;stroke:#204076;stroke-width:5;stroke-linecap:butt;stroke-linejoin:round;stroke-miterlimit:4;stroke-dasharray:none;stroke-opacity:1"
     d="m 731.14,1152.89 -165.25,0.79"
     id="path819" />
  <path
     style="opacity:1;fill:none;fill-rule:nonzero;stroke:#204076;stroke-width:5;stroke-linecap:butt;stroke-linejoin:round;stroke-miterlimit:4;stroke-dasharray:none;stroke-opacity:1"
     d="m 734.32,1156.34 -12.71,128.71"
     id="path821" />
  <path
     style="fill:none;stroke:#1d96d7;stroke-width:5;stroke-linejoin:round;stroke-opacity:1"
     d="m 272,425 14.49,-6.39 6.61,-0.67 10.93,4.18 4.72,6.61 54.38,146.82 17.68,31.31 63.16,208.09 7.69,14.03 14.71,15.92 14.98,9.18 12.55,5.67 12.01,0.13 15.25,-4.32 31.71,-17.41 11.07,-2.43 12.28,0.54 31.85,9.99 13.49,-0.4 31.44,-5.26 9.04,2.97 8.37,8.5 1.08,11.34 v 26.04 l -7.56,13.22 -10.12,13.49 -2.7,6.75 -0.67,9.99 3.1,7.02 7.42,6.61 8.1,2.97 10.8,-2.02 7.69,-5.8 4.45,-8.1 0.35,-7.23 -1.36,-7.42 -4.52,-6.54 -10.26,-11.61 -4.72,-11.34"
     id="path1" />
  <path
     style="fill:none;stroke:#1d96d7;stroke-width:5;stroke-linejoin:round;stroke-opacity:1"
     d="m 262,444 -3.85,16.03 0.81,9.45 2.7,10.8 7.15,8.91 7.02,4.72 45.75,0.54 6.21,2.7 9.85,9.55"
     id="path2" />
</svg>
