<?xml version="1.0" encoding="UTF-8" standalone="no"?>
<svg
   id="svg2"
   viewBox="0 0 550 750"
   height="750"
   width="550"
   version="1.1"
   xml:space="preserve"
   xmlns:xlink="http://www.w3.org/1999/xlink"
   xmlns="http://www.w3.org/2000/svg"
   xmlns:svg="http://www.w3.org/2000/svg"
   xmlns:rdf="http://www.w3.org/1999/02/22-rdf-syntax-ns#"
   xmlns:cc="http://creativecommons.org/ns#"
   xmlns:dc="http://purl.org/dc/elements/1.1/"><metadata
     id="metadata8"><rdf:RDF><cc:Work
         rdf:about=""><dc:format>image/svg+xml</dc:format><dc:type
           rdf:resource="http://purl.org/dc/dcmitype/StillImage" /></cc:Work></rdf:RDF></metadata><defs
     id="defs6" /><image
     xlink:href="basemap/memosm.png"
     x="-136"
     y="-269"
     width="1104"
     height="1104"
     id="image10"
     style="display:none" /><path
     style="fill:none;stroke:#71a850;stroke-width:1;stroke-linecap:butt;stroke-linejoin:round;stroke-miterlimit:4;stroke-dasharray:none;stroke-opacity:1"
     id="path3757"
     d="m 359.55,252.84 4.89,1.67 1.11,2.45 0.32,4.59 -86.42,261.23 -52.88,89.02 0.19,22.99 -3.46,2.69 -37.93,-1.11 -2.67,-1.67 -1.22,-2.78 0.11,-20.58 1.56,-4.45 35.15,-57.28" /><path
     style="fill:none;stroke:#71a850;stroke-width:5;stroke-linejoin:round;stroke-dasharray:none;stroke-opacity:1"
     d="m 218.28,549.6 26.92,-45.6 12.57,-21.8 5.56,-13.13 3,-9.57 10.9,-32.48 3.45,-6.78 11.46,-22.13 3,-7.23 45.27,-140.26 1.33,-1.78 2.34,-1.22 15.46,5.23"
     id="path1" /><text
     style="font-style:normal;font-weight:normal;font-size:144px;line-height:125%;font-family:Sans;-inkscape-font-specification:Sans;letter-spacing:0px;word-spacing:0px;fill:#000000;fill-opacity:1;stroke:none"
     xml:space="preserve"
     id="text2984"
     y="206.96"
     x="89.45"><tspan
       id="tspan1"
       y="206.96"
       x="89.45">2010</tspan></text></svg>
