<?xml version="1.0" encoding="UTF-8" standalone="no"?>
<svg
   id="svg2"
   viewBox="0 0 1350 1400"
   height="1400"
   width="1350"
   version="1.1"
   xmlns:xlink="http://www.w3.org/1999/xlink"
   xmlns="http://www.w3.org/2000/svg"
   xmlns:svg="http://www.w3.org/2000/svg"
   xmlns:rdf="http://www.w3.org/1999/02/22-rdf-syntax-ns#"
   xmlns:cc="http://creativecommons.org/ns#"
   xmlns:dc="http://purl.org/dc/elements/1.1/">
  <metadata
     id="metadata8">
    <rdf:RDF>
      <cc:Work
         rdf:about="">
        <dc:format>image/svg+xml</dc:format>
        <dc:type
           rdf:resource="http://purl.org/dc/dcmitype/StillImage" />
        <dc:title />
      </cc:Work>
    </rdf:RDF>
  </metadata>
  <defs
     id="defs6" />
  <image
     xlink:href="basemap/rocosm.png"
     x="-120"
     y="-183.17"
     width="1477"
     height="1723.17"
     id="image10"
     style="display:none" />
  <path
     style="fill:none;stroke:#000000;stroke-width:5;stroke-linecap:butt;stroke-linejoin:round;stroke-miterlimit:4;stroke-dasharray:none;stroke-opacity:1"
     id="path2987"
     d="M 97.49,287.81 133,318 l 30,20 40,38 34,25 10,10 9,21 12,32 26,46 22,40 12,30 18,19 35,15 19,9 13,12.5 6.5,11 5,25.5 10,21 8.5,8.5 23,12 21,10.5 20,3 36,-3 31,-7 h 26.5 l 7.5,4 5.5,12 -0.5,23.5 15,36.5 12,7 15,2 17,12 17,30 26,42.5 20,21.5 19.5,8.5 38,2.5 245,-30 33.5,-5 50.5,-11.5 44,-3.5 36,2 15,3.5 9,5.5 7,12 -4,115.5 -9,286" />
  <text
     style="font-style:normal;font-weight:normal;font-size:144px;line-height:125%;font-family:Sans;-inkscape-font-specification:Sans;letter-spacing:0px;word-spacing:0px;fill:#000000;fill-opacity:1;stroke:none"
     xml:space="preserve"
     id="text3769"
     y="206.96"
     x="84.18"><tspan
       id="tspan1"
       y="206.96"
       x="84.18">1955</tspan></text>
</svg>
