<?xml version="1.0" encoding="UTF-8" standalone="no"?>
<!-- Created with Inkscape (http://www.inkscape.org/) -->

<svg
   version="1.1"
   id="svg1"
   width="2500"
   height="2050"
   viewBox="0 -25 2500 2050"
   xml:space="preserve"
   xmlns:xlink="http://www.w3.org/1999/xlink"
   xmlns="http://www.w3.org/2000/svg"
   xmlns:svg="http://www.w3.org/2000/svg"><defs
     id="defs1" /><image
     width="3009.5"
     height="3009.5"
     preserveAspectRatio="none"
     xlink:href="basemap/zinosm.png"
     id="image1"
     x="-340"
     y="-675"
     style="display:none" /><path
     style="fill:none;stroke:#ef7c00;stroke-width:5;stroke-linejoin:round;stroke-opacity:1"
     d="m 380.65,1289.51 2.09,11.39 -1.44,6.42 0.48,8.18 0.32,9.78 3.85,6.58 1.92,7.38 6.74,9.62 10.27,2.73 8.98,6.9 2.57,6.26 0.48,5.45 -4.49,17.16 1.76,18.77 -0.48,14.44 -2.25,3.53 -6.09,6.26 -1.12,4.97 0.16,8.98 0.96,7.54 -4.65,7.86 -0.32,6.74 4.33,4.81 4.01,1.44 6.74,0.8 5.45,4.01 6.74,9.3 9.62,22.29 -0.48,19.73 -3.69,6.9 -0.32,5.93 9.94,17.32 2.25,8.5 10.43,8.98 3.85,9.46 6.42,4.97 7.86,1.6 15.08,0.16 4.65,3.69 6.26,25.5 -1.28,7.86 -12.03,24.54 -4.01,4.97 -8.34,21.97 -3.21,4.65 -3.37,19.09 -1.12,13.31 -6.09,23.42 -5.61,8.18 -3.85,15.4 1.92,10.43 -3.53,19.89"
     id="path1" /><path
     style="fill:none;stroke:#e6007e;stroke-width:5;stroke-linejoin:round;stroke-opacity:1"
     d="m 405.14,1846.69 -42.42,-52.4"
     id="path2" /><path
     style="fill:none;stroke:#227e8e;stroke-width:5;stroke-linejoin:round;stroke-opacity:1"
     d="m 384.82,1292.88 170.18,-33.2"
     id="path3" /><path
     style="fill:none;stroke:#227e8e;stroke-width:5;stroke-linejoin:round;stroke-opacity:1"
     d="m 353.55,881.47 73.14,46.51"
     id="path4" /><path
     style="fill:none;stroke:#227e8e;stroke-width:5;stroke-linejoin:round;stroke-opacity:1"
     d="m 705.69,1144.19 204.15,-105.25"
     id="path5" /><path
     style="fill:none;stroke:#227e8e;stroke-width:5;stroke-linejoin:round;stroke-opacity:1"
     d="m 931.62,1068.88 381.53,-155.15 413.74,-52.17"
     id="path6" /><path
     style="fill:none;stroke:#227e8e;stroke-width:5;stroke-linejoin:round;stroke-opacity:1"
     d="m 1735.97,868.36 -290.34,474.08 -88.01,147.44 -79.84,127.03"
     id="path7" /><path
     style="fill:none;stroke:#227e8e;stroke-width:5;stroke-linejoin:round;stroke-opacity:1"
     d="m 1972.89,856.77 14.44,-145.32 92.07,-191.83 141.15,-176.43 -120.62,-21.17"
     id="path8" /><path
     style="fill:none;stroke:#227e8e;stroke-width:5;stroke-linejoin:round;stroke-opacity:1"
     d="m 2027.74,885.64 99.12,87.25"
     id="path9" /><text
     x="89.45"
     y="181.96"
     id="text3652"
     xml:space="preserve"
     style="font-style:normal;font-weight:normal;font-size:144px;font-family:Sans;-inkscape-font-specification:Sans;fill:#000000;fill-opacity:1;stroke:none"><tspan
       x="89.45"
       y="181.96"
       id="tspan1">2025</tspan></text></svg>
