<?xml version="1.0" encoding="UTF-8" standalone="no"?>
<svg
   xmlns:dc="http://purl.org/dc/elements/1.1/"
   xmlns:cc="http://creativecommons.org/ns#"
   xmlns:rdf="http://www.w3.org/1999/02/22-rdf-syntax-ns#"
   xmlns:svg="http://www.w3.org/2000/svg"
   xmlns="http://www.w3.org/2000/svg"
   xmlns:xlink="http://www.w3.org/1999/xlink"
   id="svg2"
   viewBox="50 0 3350 5000"
   height="5000"
   width="3350"
   version="1.1">
  <metadata
     id="metadata8">
    <rdf:RDF>
      <cc:Work
         rdf:about="">
        <dc:format>image/svg+xml</dc:format>
        <dc:type
           rdf:resource="http://purl.org/dc/dcmitype/StillImage" />
        <dc:title></dc:title>
      </cc:Work>
    </rdf:RDF>
  </metadata>
  <defs
     id="defs6" />
  <image
     xlink:href="../basemap/atlosm.png"
     id="image10"
     height="5334.25"
     width="3649.75"
     y="-103.5"
     x="0"
     style="display:none" />
  <path
     style="fill:none;stroke:#d5aa28;stroke-width:5;stroke-linecap:butt;stroke-linejoin:round;stroke-miterlimit:4;stroke-dasharray:none;stroke-opacity:1"
     id="path3006"
     d="m 712.35,3927.08 1.59,-12.34 23.03,-154.63 34,-139.28 15.35,-35.09 12.06,-18.64 67.99,-73.48 35.09,-53.74 7.68,-25.22 v -82.25 l 10.97,-23.03 25.22,-16.45 37.29,-1.1 25.22,-4.39 65.8,-34 20.84,-18.64 39.48,-60.32 57.03,-84.44 9.87,-12.06 30.03,-27.74 11.28,-20.99 0.36,-42.29 -2.19,-97.6 3.29,-94.31 12.06,-39.48 2.19,-25.22 v -59.22 l -2.99,-45.13 -16.74,-123.76 2.19,-106.38 1.1,-31.8 8.77,-26.32 44.96,-40.58 34,-27.42 34,-30.71 10.97,-15.35 25.22,-49.35 57.03,-78.96 13.16,-38.38 10.97,-49.35 6.58,-36.19 14.26,-24.13 76.77,-73.48 15.35,-27.42 -1.1,-36.19 -10.97,-36.19 -7.68,-21.93 7.68,-30.71 19.74,-25.22 91.02,-61.41 17.55,-24.13 13.16,-41.67 16.45,-17.55 21.93,-14.26 70.19,-31.8 21.93,-27.42 12.36,-26.49" />
  <path
     style="fill:none;stroke:#0b75b3;stroke-width:5;stroke-linecap:butt;stroke-linejoin:round;stroke-miterlimit:4;stroke-dasharray:none;stroke-opacity:1"
     id="path3776"
     d="m 176.57,3084.55 49.35,-5.48 19.74,1.1 30.71,9.87 48.25,23.03 63.61,23.03 19.74,1.1 31.8,-7.68 69.09,-30.71 39.48,-15.35 114.05,-20.84 48.25,-7.68 32.9,-3.29 81.15,1.1 36.19,2.19 93.22,3.29 38.38,-3.29 h 39.48 l 40.58,-2.19 41.67,6.58 28.51,6.58 34,18.64 89.93,69.09 21.34,16.59 27.59,3.64 51.97,-8.15 40.58,-15.35 131.6,-47.16 42.77,-9.87 39.48,-9.87 30.71,-13.16 42.77,-38.38 35.09,-27.42 34,-15.35 63.61,-12.06 52.64,-10.97 36.19,-1.1 27.42,5.48 31.8,18.64 36.19,10.97 31.8,-1.1 36.19,-20.84 42.77,-30.71 36.19,-23.03 42.77,-5.48 41.67,-7.68 26.32,-13.16 17.55,-17.55 16.45,-32.9 15.35,-40.58 16.45,-15.35 23.03,-12.06 21.93,-4.39 h 58.12 l 70.19,1.1 19.74,4.39 23.03,1.1 40.58,-14.26 12.95,-5.38" />
  <text
     x="139.45"
     y="206.96"
     id="text3652"
     xml:space="preserve"
     style="font-style:normal;font-weight:normal;font-size:144px;font-family:Sans;-inkscape-font-specification:Sans;fill:#000000;fill-opacity:1;stroke:none"><tspan
       x="139.45"
       y="206.96"
       id="tspan1">1985</tspan></text>
  <text
     x="139.45"
     y="4897.96"
     id="text3652-1"
     xml:space="preserve"
     style="font-style:normal;font-weight:normal;font-size:144px;font-family:Sans;-inkscape-font-specification:Sans;fill:#000000;fill-opacity:1;stroke:none"><tspan
       x="2977.45"
       y="4897.96"
       id="tspan2">1985</tspan></text>
</svg>
