<?xml version="1.0" encoding="UTF-8" standalone="no"?>
<!-- Created with Inkscape (http://www.inkscape.org/) -->

<svg
   version="1.1"
   id="svg1"
   width="3900"
   height="1650"
   viewBox="0 0 3900 1650"
   xmlns:xlink="http://www.w3.org/1999/xlink"
   xmlns="http://www.w3.org/2000/svg"
   xmlns:svg="http://www.w3.org/2000/svg">
  <defs
     id="defs1" />
  <g
     id="g1">
    <image
       width="3917"
       height="1632.08"
       preserveAspectRatio="none"
       xlink:href="../basemap/dkrosm.png"
       id="image1"
       x="100"
       y="0"
       style="display:none" />
    <path
       style="fill:none;fill-opacity:0.25;stroke:#9c1830;stroke-width:5;stroke-linejoin:round;stroke-opacity:1"
       d="m 289.95,1516.38 -53.3,-101.01 -25.62,-73.92 -40.64,-81.87 -5.01,-18.26 -0.59,-20.32 5.6,-103.08 9.13,-148.13 7.66,-18.85 15.02,-20.03 18.85,-13.25 35.05,-12.66 11.49,-8.84 10.31,-16.79 70.97,-142.24 10.01,-15.61 18.26,-17.08 212.04,-133.7 14.43,-5.01 168.75,-32.69 6.48,-1.18 15.61,-7.95 30.04,-31.81 65.67,-85.7 91,-96.89 24.44,-18.55 30.33,-21.2 138.41,-66.85 48.3,-17.96 34.16,-7.66 40.05,-7.36 164.92,-20.61 55.95,-4.42 23.85,4.71 54.48,19.44 22.09,13.84 14.43,17.38 14.14,25.03 14.43,12.07 14.72,7.95 105.73,21.79 39.46,15.02 26.8,15.31 23.56,20.91 77.16,72.74 23.27,16.79 52.72,24.44 20.32,16.79 30.33,34.75 102.19,117.8 19.44,14.43 324.54,184.36 171.1,97.48 14.14,4.71 66.85,18.26 15.9,6.77 42.7,26.51 225.59,140.48 102.49,83.64 26.8,20.03 22.38,8.25 18.26,2.94 20.32,-1.18 18.85,-6.48 76.57,-28.57 247.09,-91.59 25.03,-16.2 25.62,-22.97 145.19,-141.95"
       id="path1" />
    <text
       style="font-style:normal;font-weight:normal;font-size:144px;line-height:125%;font-family:Sans;-inkscape-font-specification:Sans;letter-spacing:0px;word-spacing:0px;fill:#000000;fill-opacity:1;stroke:none"
       xml:space="preserve"
       id="text3817"
       y="210.96"
       x="89.45"><tspan
         id="tspan1"
         y="210.96"
         x="89.45">2025</tspan></text>
  </g>
</svg>
