<?xml version="1.0" encoding="UTF-8" standalone="no"?>
<svg
   version="1.1"
   width="18050"
   height="20550"
   viewBox="-4650 -7450 18050 20550"
   id="svg2"
   xmlns:xlink="http://www.w3.org/1999/xlink"
   xmlns="http://www.w3.org/2000/svg"
   xmlns:svg="http://www.w3.org/2000/svg"
   xmlns:rdf="http://www.w3.org/1999/02/22-rdf-syntax-ns#"
   xmlns:cc="http://creativecommons.org/ns#"
   xmlns:dc="http://purl.org/dc/elements/1.1/">
  <metadata
     id="metadata8">
    <rdf:RDF>
      <cc:Work
         rdf:about="">
        <dc:format>image/svg+xml</dc:format>
        <dc:type
           rdf:resource="http://purl.org/dc/dcmitype/StillImage" />
      </cc:Work>
    </rdf:RDF>
  </metadata>
  <defs
     id="defs6" />
  <path
     id="path926"
     d="m 2589.63,2371.62 3.22,7.63 14.08,14.25 6.45,11.71 2.21,16.8 -1.7,17.47 0.17,14.59 2.71,5.6"
     style="opacity:1;fill:none;fill-rule:nonzero;stroke:#e02525;stroke-width:5;stroke-linecap:butt;stroke-linejoin:round;stroke-miterlimit:4;stroke-dasharray:none;stroke-opacity:1" />
  <image
     xlink:href="../../basemap/lonosm.png"
     x="-4725.03"
     y="-7482.57"
     width="18289.88"
     height="20602.4"
     id="image12"
     style="display:none" />
  <path
     id="path4485"
     d="m 326.5,3006.5 18.5,-10 29.5,-17 27.14,-16.04 30.86,-29.46 14.5,-18 8.5,-26 1,-22.5 -5,-27 -7.5,-22.5 -16,-59.5 -12,-141 -2,-50 2.5,-25 11.5,-43 17.5,-39.5 11,-12 19,-6.5 16.5,0.5 35,12 31,9.5 47.28,8.87 49.5,8.49 60.61,3.18"
     style="fill:none;fill-rule:evenodd;stroke:#5ac4bd;stroke-width:5;stroke-linecap:butt;stroke-linejoin:round;stroke-miterlimit:4;stroke-dasharray:none;stroke-opacity:1" />
  <path
     style="fill:none;fill-rule:evenodd;stroke:#5ac4bd;stroke-width:5;stroke-linecap:butt;stroke-linejoin:round;stroke-miterlimit:4;stroke-dasharray:none;stroke-opacity:1"
     d="m 326.5,3006.5 -22,26 -8.5,17.5 -5.5,24.5 2.5,23.5 12.5,35.5 18.5,24 22,21 14.5,9.5 28,5 29.5,1.5 18.13,-4.77 13.85,-9.12 21.95,-24.45"
     id="path4483" />
  <path
     d="m 1834.5,692.5 44.5,90.5 26.5,55.5 12,38 28,144 7.5,21 18.5,23.5 37.5,26 17.5,13 13,17 31,59 3,29.5 -7.5,48 -10.5,45 -15,22 -20.5,19 -55,43 -7,15.5 -2,15 9.5,30 15.5,26.5 15,16 18.5,28.5 23,20 28,17.5 26,10.5 33.5,12.5 13,6.5 31,20 22,14 56.5,35.5 73,34 59.5,24.5 30,10 204,50 108.5,28.5 42,7 92,10.5 62.5,-11 30,-1 38.5,-6.5 18.5,6.5 13,9.5 13.23,12.01 20.27,17.99 13.5,19 7.25,14.76 0.64,21.44 -3.91,42.27 -0.98,29.75 -0.33,24.29 4.18,18.1 12.24,16.05 35.57,48.6 9.09,20.06 3.5,22.5 5.75,18.73 13.16,23.81 10.83,13.6 17.45,5.02 21.91,-3.72 57.98,-27.39 15.41,-3.32 15.81,1.65 22.94,13.08 13.45,15.26 5,16.02 0.36,17.64 -5.31,18.8 -15.37,26.25 -8.69,21.49 -1.59,22.41 8.42,68.3 4.95,27.32 8.51,13.81 20.17,18.6 26.61,5.33 19.86,0.33 25.21,0.9 18.73,5.14 11.7,10.62 19.26,26.6 17.59,19.66 20.13,11.57 L 3531,2515 h 24 l 20,-5 65.39,-24.48 37.93,-9.26 38.09,-5.28 14.49,1.4 38.23,3.17 50.27,-2.6 17.01,-1.88 23.52,-10.66 23.59,-6.09 24.99,2.17 19.17,5.71 19.85,13.65 101.16,86.11 18.15,9.41 32.32,0.06 29.35,-5.76 25.96,-4.54 89.57,4.68 22.98,-3.16 25.48,-2.15 141.76,-70.61 21.68,-17.42 17.49,-6.7 15.02,-1.2 53.55,10.43 21.5,4 64.13,12.78 24.37,12.24 45.44,36.02 15.17,6.09 17.07,2.09 24.18,-7.49 33.64,-22.73 19,-16 29.36,-36.33 15.14,-34.65 1.48,-17.59 -4.17,-17.14 -14.81,-33.79 -17.5,-43.05 -20.5,-30.95 -14.5,-36 -7.59,-43.59 L 4776,2178 v -75.5 -41.5 l -1.5,-19 -27,-60.5 -7.5,-20.5 -20.5,-26 -16.5,-35"
     id="path2818"
     style="fill:none;stroke:#7b848b;stroke-width:5;stroke-linecap:butt;stroke-linejoin:round;stroke-miterlimit:4;stroke-opacity:1;stroke-dasharray:none" />
  <path
     d="m 4555,1260.5 -38.5,-11 -49.32,-15 -58.41,-20.13 -69.94,-17.16 -39.12,-0.69 -37.73,5.46 -14.84,-1.19 -22.54,-10.58 -28.1,-11.71 -35,-3.5 -25.07,3.16 -20.41,8.2 -47.27,40.86 -44.76,34.28 -45.23,36.93 -22.08,17.52 -42.68,66.42 -10.41,12.39 -12.1,10.11 -58.2,31.49 -26.95,12.6 -31.57,8.61 -25.95,6.15 -11.82,4.98 -7.91,9.34 -3.04,19.36 -4.86,28.54 -2.19,39.57 -12,54 -1.5,19.5 10.5,46.5 13.5,73.5 8.5,37.5 13.5,52.5 0.5,18.5 -2.24,32.33 -2.24,11.97 -6.57,12.29 -10.72,12.29 -56.36,44.16 -76.62,59.07 -18.76,10.72 -13.31,4.91 -24.05,10.14 -14.19,6.6 -27.91,5 -51.88,32.84 -34.21,30.9 -22.67,31.76 -12,23.1 -5.55,25.1 -1.95,36.4 7.6,27.1 2.84,15.33 -3.36,28.72 L 3368,2357 l -5.17,18.72 -2.09,17.02 0.64,18.03 19.26,46.05 7.5,17.29 L 3393,2496 l -1,24 -11.6,35.09 L 3362,2597.5 l -3.5,14.5 0.11,23.97 4.51,26.89 9.41,16.91 19.49,11.88 24.1,4.92 42.66,3.37 36.33,12.09 25.01,19.51 28,21.76 16.72,15.79 5.94,10.93 16.69,87.98 3,21.54 -0.22,21.1 -4.74,18.81 -23.88,36.15 -16.8,27.85 -9.84,21.95 -1.04,21.41 7.18,22 10.63,15.15 20.66,12.59 40.44,12.05 30.83,11.14"
     id="path3592"
     style="fill:none;stroke:#069ddc;stroke-width:5;stroke-linecap:butt;stroke-linejoin:round;stroke-miterlimit:4;stroke-opacity:1;stroke-dasharray:none" />
  <path
     d="m 3305.43,197.98 41.72,19.8 36.77,4.24 26.87,3.54 37.48,16.26 38.18,26.87 20.51,20.51 9.9,30.41 24.75,114.55 -1.41,18.38 -2.83,16.26 -33.23,41.01 -36.06,36.06 -14.14,21.21 -14.14,26.87 -2.83,28.99 2.83,39.6 5.66,36.77 14.14,22.63 3.54,43.84 1.41,45.25 4.95,14.14 9.19,14.14 28.28,15.56 21.21,14.14 32.53,28.99 12.73,25.46 15.09,32.33 23.77,18.92 33.87,19.48 26.31,19.6 14.8,22.09 11.87,17.75 24.41,34.6 18.8,27.89 3.42,19.76 11.83,19.36 2.92,18.83 14.41,43.34 5.93,31.09 11.56,96.95 12.83,28.7 19.09,41.84 0.76,20.48 -11.24,13.07 -11.75,13.31 -16.41,9.59 -33.89,-0.54 -19.07,9.05 -11.28,15.16 -5.09,28.68 -1.21,25.87 -1.63,16.82 -13.5,66 -4.5,22 -16.5,28 -23.5,36.5 -23,24.5 -16,20.5 -22,43.5 -15.5,43 -10.5,28 -6,41.5 0.5,35 -3,51.5 -10,68.5 -5.5,30 -7.5,22 -0.98,14.18 10.98,38.32 -0.98,13.38 2.35,9.21 29.87,38.47 2.29,13.54 5.27,27.34 -13.15,18.46 -5.71,10.91 -18.24,18.04 -14.5,12.61 -23.69,15.54 -30.02,13 -29,8.5 -21.5,12 -43,25 -35,26 -46,35.5 -22,7 -48.5,11.79 -23.24,3.41 -14.66,5.62 -11.6,11.61 -10.29,15.52 -49.24,42.13 -9.82,11.95 -1.49,9.73 -3.85,8.18 -12.76,7.13 -10.75,14.1 -26.31,-1.68 -27.83,4.84 -20.98,1.14 -25.69,-8.99 -16,-4 -12.5,-4.5 -20.5,0.5 -16.5,9.5 -53,58 -16.5,11.5 -19,2.5 -66,-8.5 -26.5,0 -19.5,1.5 -36.5,-4 -47.5,2 -9,-2.5 -15.5,-8 -24,-35 -7,-5.5 -18,-2.5 -24.5,0 -42.5,-4 -29,-3.5 -34,-9.5 -44,-2.5 -20.5,-1.5 -89.5,-0.5 -52.5,5.5 -44,6 -25,-6 -24.5,-18 -19.5,-23.5 -31,-23.5 -10.5,-17 -14.5,-39 -54.5,-47.5 -13,-2.5 -16.5,0 -36.5,20.5 -74.5,15.5 -22,9 -46.5,28 -70,23 -44,16.5 -37.5,24 -25.5,28.5 -33,31 -37,29.5 -27,23 -29,38 -29.5,36.5 -17,12.5 -54.5,17 -19,15 -10.5,18 -6,22 0.5,47.5 -9.5,22 -11.5,15.5 -22.5,14 -37.5,16 -30.5,6.5 -38,2 -38,-4 -51.5,-32 -21,-8.5 -23.5,-1 -35,9.5 -13.24,-2.46 -56.26,-22.04 -20,-1.5 -92.94,43.52 -78.86,43.57 -48.7,26.91 -52.48,19.93 -36.49,4.66 -33.57,-2.34 -58.21,-6.21 -45.98,-11.57 -38.61,-22.01 -59.93,-42.98 -23.99,-12.67 -36.95,-8.69 -40.17,-4.7 -32.15,4.13 -21.67,9.63 -12.14,13.94 -8.66,22.76 -7.52,25.89 -0.13,28.67 7.67,20.42 10.72,16.11 107.47,107.03 23.97,14.57 27.24,5.15 L 417,3208.5 448.33,3195.37 473,3172 514.93,3119.14 546.5,3084.82 570,3074 l 68.04,-20.91"
     id="path3594"
     style="fill:none;stroke:#29338d;stroke-width:5;stroke-linecap:butt;stroke-linejoin:round;stroke-miterlimit:4;stroke-opacity:1;stroke-dasharray:none" />
  <path
     d="m 1525,1106 38.5,31.5 59,47 47,42.5 13,14.5 33.5,50 25,44.5 20,51 14,39 36,98.5 25.5,70 33.5,85 16.5,34.5 19.5,31 18,26.5 13.5,22.5 14.5,9 49,8.5 23.5,5 33,18 55.5,32.5 57.5,35.5 40,29 62,46 39.5,24.5 59.5,29 28,5.5 39.5,7 15,6.5 13.5,11 19,7 35.5,0.5 68,-6 30,-4 75,-26.5 35,-11.5 56,-14.5 46.5,-13.5 21.5,-2.5 24.5,1.5 20,11.5 17.5,14 19,24.5 43.5,62 3.5,10.5 -7.5,22 -2,26 3.49,13.54 48.58,52.65 5.32,11.71 14.99,37.42 8.07,8.86 5.31,-0.11 4.24,-1.57 26,-22.5 6,-6 3,-24 8,-13 16.5,-12 35.46,-17.11 23.36,-0.44 22.66,-4.41 49.9,-18.4 36.62,-9.14 23,-6.5 11,2.5 8,10 6,20 19.5,69 8.5,5.5 7.5,26 3.57,16.76 8.93,20.74 27.5,50.5 8.5,6 14,2 14,-4.5 12.5,6 8.5,15 8.5,15 6.85,4.25 29.88,2.38 43.7,12.87 13.89,11.64 21.35,15.61 37.49,16.18 6.11,10.65 -5.41,19.78 -0.96,15.43 3.05,8.54 10.05,9.17 16,14.5 18.45,6.93 46.29,-5.41 7.64,2.67 30.4,37.02 20.81,34.31"
     id="path3600"
     style="fill:none;stroke:#b05f0f;stroke-width:5;stroke-linecap:butt;stroke-linejoin:round;stroke-miterlimit:4;stroke-opacity:1;stroke-dasharray:none" />
  <path
     d="m 1854,2303 62.5,-1.5 50,-0.5 27,-0.5 17.5,-6.5 22.5,-20.5 52,-58.5 44.77,-53.95 16.41,-11.72 21.32,-4.34 16.5,1.5 61.5,22 51,17.5 18,11 18,25 26,39.5 13.5,17 19.5,14.5 25,5 46.5,-4.5 45.5,-7.5 30.5,-0.5 23,7.5 19.5,13.5 7.5,24.5 2,25.5 -3.5,37.5 0.5,27 -0.94,23.58 2.43,5.98 5.3,4.28 47.03,10.53 15.75,-1.88 75.4,-25.61 L 2791.5,2411 l 25.5,-10 19.5,-1.5 39.37,-13.75 17.78,-8.57 75.24,-10.36 123.78,-23.28 134.83,-18.03 74.33,-12.17 93.25,-19.22 81.74,-11.87 67.93,-14.71 33.75,-6.53 31.86,-2.54 29.34,-5.37 28.99,1.02 28.77,3.82 23.6,4.61 44.93,25.47 39,18 18.5,8 59,14.5 7.5,-2 19.5,-11 7.72,-9.55 9.53,-8.44 8.71,-13.36 8.28,-27.65 29.76,-34.99 16,-21 14,-16 16.5,-14.5 24.28,-15.48 19.09,-14.6 19.17,-7.38 58.48,-10.54 56.54,-9.87 28.95,2.36 14.36,3.39 16.46,10.86 29.68,25.95 25.01,9.79 38.36,0.78 15.77,-1 23.86,-13.78 32.5,-15 37,-11 32,-12 18,-12.5 6.5,-12.5 2.9,-9.56 L 4524,2065 l 11.5,-12 29,-23.5 24,-18 26.5,-22.5 30.5,-31 42,-55.5 42.5,-46.5 12.5,-15.57 1.89,-21.07 -10.51,-25.32 -26.1,-21.58 L 4677,1753.5 l -15.5,-26.5 -2.5,-19.5 9,-27.5 30,-33.5 49.5,-51 23.5,-28 21.5,-37.5 15.5,-35.5 22.5,-41 20.51,-19.9 13.58,-5.34 51.48,-8.48 84.78,-48.14 49.38,-15.52 53.47,-3.27 L 5178,1359 l 76.5,-4.5 85,-3 39.5,3.5 32.55,13.56 84.69,69.66 20.28,14.46 23.51,6.67 19.46,-0.86 20.5,-9 11.5,-21 4,-26.5 1,-41.5 -8,-41.5 -9,-46 3,-58.5 11.5,-87 24.5,-135 11,-57.5 15,-79.5 -0.5,-18 -13,-29.5 -12.5,-18 -28.5,-16 -58,-27.5 -89,-28.5 -67,-18 -48.5,-6.5 -50,4 -71,19.5 -48.5,12.5 -22,10.5 -11.5,9.5 -11,25.5 -14,27.5 -28.5,60 -10,26 -14,44.5 -14.5,36 -21.5,73 -6.5,30 -7.5,60 -11,47 -8.5,25.5 -20.5,46 -22,54.5 -27,56 -15.5,32.5 -41.49,40.1"
     id="path3602"
     style="fill:none;stroke:#e02525;stroke-width:5;stroke-linecap:butt;stroke-linejoin:round;stroke-miterlimit:4;stroke-opacity:1;stroke-dasharray:none" />
  <path
     d="m 2004.5,2450.5 -15,-19.5 -9.5,-26 -4.5,-32 4,-37 2.5,-17 -11.5,-23.5 -4,-14.5 3,-11.5 10.5,-17 31,-33.5 10.5,-24.5 1,-35.5 -4.5,-38.5 -17,-37.5 -42.5,-42.5 -23.5,-37.5 -42,-78 -37,-24.5 -23.5,-15 -13,-22.5 -10,-28.5 -21,-28 -60,-43.5 -71.5,-48 -52,-29.5 -21,-8.5 -31.5,-4.5 -52,-21.5 -34,-2.5 -19,-4 -26.5,-18 -22,-31 -26,-49 -34,-35 -42,-60 -50.5,-43.5 -33,-21 -45.5,-11.5 -68,-17.5 -44.5,-8 -42,-2 -44.5,2.5 -48.5,11.5 -138,48 -77.5,28 -18.5,7.5 -77.5,52.5 -54.5,37.5 -20,13.5 -17,19.5 -12.5,21 -11,47 -14,31 -23.5,26 -54.5,30.5 -75.5,39 -55.5,27 -12,4.5 -32,3.5 -17.5,0 -16,5 -36.5,23"
     id="path3598"
     style="fill:none;stroke:#1c3f95;stroke-width:5;stroke-linecap:butt;stroke-linejoin:round;stroke-miterlimit:4;stroke-opacity:1;stroke-dasharray:none" />
  <path
     d="m 5125.5,747.5 23,-45.5 13.5,-29 17.5,-57 11,-60 16,-57 20,-40 12.5,-33 13.5,-51 7.5,-14.5 20.5,-14 20,-4.5 30,2.5 54.5,1.5 31,-2.5 68,-20.5 47.5,-23.5 32.5,-27.5 30.5,-34 25,-39.5 19,-37 14,-39 16.5,-43.5 23.5,-50 10.5,-37 4.5,-47 15.5,-57 11,-36.5 38.5,-142.5 26,-94 16,-45.5 12,-20.5"
     id="path3604"
     style="fill:none;stroke:#e02525;stroke-width:5;stroke-linecap:butt;stroke-linejoin:round;stroke-miterlimit:4;stroke-opacity:1;stroke-dasharray:none" />
  <path
     d="m 2184.5,2146.5 -81,-24.5 -137.5,-42.5 -64,-19 -66.5,-15.5 -64,-22.5 -155.5,-62.5 -124,-51.5 -149,-61 -154.5,-63 -54,-22.5 -83,-33 -30.5,-9 -43.5,-24 -68,-44 -87,-45 -49,-25.5 -124.5,-66.5 -80.5,-42.5 -30,-18"
     id="path3606"
     style="fill:none;stroke:#e02525;stroke-width:5;stroke-linecap:butt;stroke-linejoin:round;stroke-miterlimit:4;stroke-opacity:1;stroke-dasharray:none" />
  <path
     d="m 3664,2493 -10,-12 -6.07,-8.21 -0.6,-8.22 3.84,-8 25.91,-15.5 15.5,-10.91 1.76,-8.9 5.69,-13.38 L 3711.5,2394 l 12,-15 6.5,-13.5 5,-15.5 10,-6.5 13.29,1.48 18.71,-0.17 30.83,1.93 27.66,-4.07 L 3873,2328.5"
     id="path3608"
     style="fill:none;stroke:#84cdbc;stroke-width:5;stroke-linecap:butt;stroke-linejoin:round;stroke-miterlimit:4;stroke-opacity:1;stroke-dasharray:none" />
  <path
     d="m 2875,967.5 -43.5,-31.5 -71,-48.5 -24,-17 -20.5,-7"
     id="path3618"
     style="fill:none;stroke:#231f20;stroke-width:5;stroke-linecap:butt;stroke-linejoin:round;stroke-miterlimit:4;stroke-opacity:1;stroke-dasharray:none" />
  <path
     d="m 2098.5,778.5 24.5,21.5 9,10.5 6,15 3,15 10,26.5 16,36 12.5,18.5 21.5,23.5 29,21 37,23 26,17 15.5,14.5 8.5,11 47,54.5 27.5,29.5 25.5,16.5 24.5,12.5 37.5,23 20,14.5 13.5,8.5 27.5,25.5 23.5,29 19,23.5 20,18.5 21.5,21 32,20.5 68.5,48.5 28.5,21 14,7.5 13,2 15.5,0.5 15,-4.5 16,-2.5 11,-0.5 11.5,3 21,11.5 13.5,7 37,11 19,5 20.28,10.28 22.05,14.48 12.17,13.41 6.22,15.12 7.86,21.16 6.91,23.05 3.4,42.92 -1.11,51.38 -2.19,11.26 5.14,9.55 6.09,8.93 8.17,8.47 15.33,8.08 40.49,17.59 28.38,22.64 20.72,20.22 18.54,21.58 17.25,13.79 32.09,31.74 31.1,20.08 28.5,28.47 20.14,11.72 32.28,11.9 17.28,12.24 18.55,17.71 L 3371,1932 l 34.05,62.87 44.51,67.09 4.6,15.14 -0.72,8.4 -3.26,8 -7.52,11 -27.67,18.66 -5.53,13.47 6.26,23.36 33.06,55.59 35.75,55.58 13.93,56.11 8.44,18.94 0.55,24.41 2.84,10.85 6.3,5.08 22.66,14.02 27.98,17.15 48.04,24.24 13.06,14 14.11,21.09 60.33,140.69 22.52,50.96 4,14.76 -1.12,17.18"
     id="path3610"
     style="fill:none;stroke:#231f20;stroke-width:5;stroke-linecap:butt;stroke-linejoin:round;stroke-miterlimit:4;stroke-opacity:1;stroke-dasharray:none" />
  <path
     d="m 2869,207.5 38.5,34 5.5,9.5 15,31 50.5,104.5 28.5,61.5 12,26.5 2,18.5 0,37.5 -2,18 -19,59 -37,98 -4.5,18 -22,112 -6,24 -10,20.5 -14,17.5 -15.5,14 -15,14.5 -5,12 -0.5,12 4,16.5 16.5,12.5 72.5,48 36.5,27.5 55,36.5 23.5,15.5 26.5,24.5 28,33.5 15.5,19 28.5,25 30.5,25.5 30,29.5 31.5,27.5 28.5,19.5 40,28.5 15,12 23.5,35.5 29.5,50.5 18.59,31.27 14.84,30.72 4.54,17.67 0.54,18.34 -20.07,61.82 -3.77,20.47 -5.66,30.81 -5.46,16.62 -20.4,48.24 -2.12,23.74 3.18,11.59 -3.46,29.78 -3.66,21.99 -2.91,21.13 2.9,20.8 -6.76,49.61 L 3371,1932 m 34.05,62.87 -2.55,40.13 7.29,31.76 12.36,26.43 12.57,11.64 9.33,1.24 54.16,-34.26 17.36,-8.03 28.69,-9.62 L 3566,2054 l 47.5,-1.17 74.53,-9.76 20.76,-0.97 20.95,3.78 43.36,15.95 L 3796,2073 l 29,11.5 18.48,7.64 43.88,20.52 7.31,8.21 L 3899,2139 l 5,62.5 -1,21.5 -11.5,38 -10,44.5 1,9 18.5,38 5.06,13.53 -4.81,21.87 5.37,17.14 -6.19,25.19 -12.64,12.57 -24.55,29.86 -20.02,41.84 -34.59,29.05 -22.12,32.45 -9.85,20.27 -4.21,16.81 -0.34,23.69 -30.45,41.81 L 3707,2737 l -46.24,73.74 -69.67,101.51 -33.92,51.71 -17.66,28.96 -23.02,25.74 -22.13,47.9 -23.29,20.01 -52.55,30.26 -35.23,37.34 -36.84,65.53 -24,41.44 -1.33,25.11 -3,33.07 -16.62,41.52 -14.11,14.03 -33.77,61.28 -18.65,51.44 -20.64,26.53 -26.07,21.63 -16.99,21.5 -4.78,19.95 -51.14,80.67 -12.13,24.43 -33.73,44.04 -45.16,73.75 L 3011.5,3813 l -34.5,8.5 -73,6.5 -17,10 -21.97,24.11 -3.26,11.15 1.09,14.48 8.92,37.87 1.53,16.84 -2.31,98.13"
     id="path3612"
     style="fill:none;stroke:#231f20;stroke-width:5;stroke-linecap:butt;stroke-linejoin:round;stroke-miterlimit:4;stroke-opacity:1;stroke-dasharray:none" />
  <path
     d="m 4061,2365.5 -27.5,11 -33.5,12 -28,-1 -11,-3.5 -27.5,-13.5 -19,0.5 -12,-5 -21,-42"
     id="path4329"
     style="fill:none;stroke:#00afa9;stroke-width:5;stroke-linecap:butt;stroke-linejoin:round;stroke-miterlimit:4;stroke-opacity:1;stroke-dasharray:none" />
  <path
     d="m 3147.74,2215.36 -28.28,17.68 -17.68,21.92 -45.96,42.43 -31.82,28.28 -37.48,13.44 -45.96,4.95 -27.58,3.54 -28.28,4.95 -17.68,11.31 -7.07,23.33 1.41,21.21 13.44,53.74 7.78,32.53 12.73,32.53 14.85,17.68 16.97,16.26 6.36,8.49 5.66,19.09 10.61,14.14 22.63,11.31 19.09,3.54 21.79,7.5 19.51,0.15 29.59,-5.9 40.12,2.49 36.77,3.54 50.2,4.24 21.92,7.07 33.23,16.26 31.11,3.54 24.04,-6.36 15.56,-12.02 16.97,-35.36 19.09,-13.44 28.28,-4.95 26.87,-13.44 15.56,-8.49 12.02,-11.31 28.99,-14.14 31.11,0.71 8.49,-1.41 19.09,-12.73 23.33,-14.85 4.95,-7.07 6.36,-36.77 9.19,-32.53 18.38,-36.06 16.97,-16.97 41.72,-16.97 18.38,-2.12 39.6,-0.71 35.36,0.71 13.44,-4.24 19.09,-3.49 36.36,3.04 32.53,-3.45 36.48,3.9 30.41,8.49 10.73,1.63 18.56,-0.27 28.67,13.31 10.63,3.36 13.14,0.28 5.21,-2.25 12.1,0.31 4.9,-4.36 6.36,-11.31 -0.68,-28.54 1.03,-15.73 -7.24,-10.47 -26.32,-27.34 -17.7,-6.31 -31.82,-12.73 -58.69,-21.21 -62.23,-21.92 -19.8,0.71 -37.48,9.9 -9.9,-0.71 -9.9,-7.07 -8.49,-13.44 -13.44,-24.04 -19.09,-19.09 -10.61,-16.97 -24.04,-24.04 -28.28,-28.99 -24.04,-23.33 -21.21,-12.02 -16.26,1.38 -41.01,19.13 -82.73,50.2 -16.26,9.9 -57.98,22.63 -25.46,-0.71 -42.43,12.73 -28.99,2.12 -63.64,17.68 -65.05,18.38"
     id="path3614"
     style="fill:none;stroke:#fece07;stroke-width:5;stroke-linecap:butt;stroke-linejoin:round;stroke-miterlimit:4;stroke-opacity:1;stroke-dasharray:none" />
  <path
     style="fill:none;fill-rule:evenodd;stroke:#5ac4bd;stroke-width:5;stroke-linecap:butt;stroke-linejoin:round;stroke-miterlimit:4;stroke-dasharray:none;stroke-opacity:1"
     d="m 715.39,2484.04 54.88,3.23 79.61,-0.25 76.62,-8.88 72,-12.01 124.39,-28.75 216.34,-51.33 161.77,-36.06 140.5,-22 75,-7.5 131,-12.5 90.5,-2 55.75,-0.68 87.87,-11.84 72.03,-17.59 75.64,-28.2 79.88,-48.76 56.69,-29.01 62.78,-23.92 45.62,-7.62 73.99,-6.08 61.93,4.13 67.72,13.65 52.68,16.81 78.82,30.67 48.43,19.94 57.69,28.49 60,5.5 37,4 14.29,4.64 16.6,19.38"
     id="path4481" />
  <path
     d="m 2581.56,2623.52 -13.64,-118.95 -0.71,-37.48 5.66,-48.79 13.44,-31.82 11.31,-12.02 21.92,-16.26 19.8,-16.26 38.18,-45.25 28.28,-26.87 22.63,-9.19 20.51,-8.49 12.02,-7.78 22.63,-28.28 13.44,-4.95 16.26,-1.41 28.28,12.73 16.26,5.66 38.89,4.95 37.48,6.36 26.87,2.12 23.33,0.71 23.33,4.24 19.09,0.71 21.21,15.56 26.87,-2.83 13.44,-4.24 13.02,-7.28 12.44,-16.76 31.82,-21.33 70.71,-20.38 61.52,-15.76 23.13,-1.91 44.58,-12.76 23.63,0.83 L 3422,2140 l 42.5,-24 25,-15.5 38,-23.62 L 3568,2059 l 20,-0.5 21.5,12 46.5,46.5 31,31 10,16.5 18.5,18 21.5,37.5 8,6 8.5,0.5 35,-9 22,-1.5 66.5,23 89,33.5 17.39,6.28 10.06,9.38"
     id="path3616"
     style="fill:none;stroke:#ee9bac;stroke-width:5;stroke-linecap:butt;stroke-linejoin:round;stroke-miterlimit:4;stroke-opacity:1;stroke-dasharray:none" />
  <path
     d="m 4008.79,2321.09 -5.78,-8.81 -24.12,-24.67 -17.89,-6.58 -62.03,-24.31 -87.96,-30.76 -19.63,0.71 -34.78,9.19 -13.64,0.41 -11.73,-7.66 -13.68,-20.83 -9.69,-19.59 -17.88,-15.76 -10.81,-18.59 -76.33,-75.54 -18.97,-11.31 -14.68,0.55 -36.95,18.35 -103.05,61.17 -56.9,23.04 -25.83,-0.71 -45.25,12.73 -22.63,0.71 -24.06,5.67 -14,-2 -14.75,-17.25 -41,-38.75 -34.5,-25.25 -25.22,-26.85 -36.45,-49.63 -16.89,-22.27 -16.7,-20.76 -5,-10.04 -1.14,-15.59 9.09,-67.43 1.63,-22.52 -2.88,-9.09 L 3049,1849.5 3030.4,1833.54 3017,1820 l -11.5,-8 -18.5,-6.5 -36.5,6.5 -28.5,0.5 -62,10.5 -97,-10 -35,-5.5 -104,-26.5 -123,-31 -90,-21.5 -32.65,-11.4 L 2322,1694.5 l -44,-21 -34,-15 -107.5,-69 -12.5,-6 -61.5,-24 -28,-17.5 -23.5,-20.5 -18.5,-29 -33.5,-35.5 -31.5,-23.5 -45.5,-24.5 -74.5,-41 -43.5,-22.5 -47.5,-15 -26,-5.5 -50,-2 -46,0.5 -51.5,1.5 -15.5,-4.5 -24,-13.5 -26.5,-3.5 -39.5,-1 -34.5,-7.5 -37,-14 -68,-37.5 -39.5,-20 -78.5,-56.5 -55.5,-37.5 -51.5,-38 -34,-19.5 -29,-10 -103.5,-26 -29.5,-11 -31,-19 -46,-32.5 -45.5,-34 -32.5,-29.5 -24,-36.5 -18.5,-47 -9.5,-46 -0.5,-44.5 -2,-25.5 -13.5,-46.5 -26.5,-63.5 -29.5,-71.5"
     id="path3620"
     style="fill:none;stroke:#861a54;stroke-width:5;stroke-linecap:butt;stroke-linejoin:round;stroke-miterlimit:4;stroke-opacity:1;stroke-dasharray:none" />
  <path
     d="m 2974.51,2609.39 18.98,4.18 20.8,6.75 17.61,-0.06 29.71,-5.63 39.39,2.87 38,4 53,4 24.5,8 30,15.5 27.5,3.5 24,-7.5 14,-8.5 15.5,-35.5 20,-14.5 28,-6 43,-21 13.5,-12.5 30,-14.5 33,0.5 7.04,-1.79 L 3539,2507.5 l 7,-7 7,-41.5 8.06,-28.51 19.29,-37.46 16.65,-16.53 43.5,-18 18.5,-3 59.5,0.5 17.5,-1 10.5,-3 11.5,-2 16.5,-0.5 32.5,2 30.5,-4 35.3,4.55 L 3904,2359.5"
     id="path3622"
     style="fill:none;stroke:#04783f;stroke-width:5;stroke-linecap:butt;stroke-linejoin:round;stroke-miterlimit:4;stroke-opacity:1;stroke-dasharray:none" />
  <path
     d="m 4153.5,2221.5 23.5,25.5 11,20 3.5,28.5 -1.5,32 0,47.5 3.5,46.5 7,42.5 15.5,24.5 30,42.5 13.5,30.5 9,41 21,55.5 3.5,19 8.5,32 14,23 3,21 -2,14 4.5,21.5 2.5,32.5 3.5,35.5 11,25.5 13,35.5"
     id="path3899"
     style="fill:none;stroke:#ee1b2d;stroke-width:5;stroke-linecap:butt;stroke-linejoin:round;stroke-miterlimit:4;stroke-opacity:1;stroke-dasharray:none" />
  <path
     d="m 3902.5,2359.5 11.82,1.87 19.95,-0.47 30.37,13.9 8.85,2.73 10.64,0.66 7,-2.48 10.72,0.55 2.65,-2.77 4.91,-8.87 -0.2,-30.5 5.79,-13.12 18.73,-10.58 14.77,-10.42 26.5,-18 28,-17 25.5,-13 13.5,-12.5 24,-8 20.5,2 31,-10 44.5,-14.5 37,-13.5 15,-3 28,-4.5 18.5,-9.5 12.5,-7 21.5,-12.5 33.5,-15.5 8.5,-2.5 54.5,-19 16.8,3.86 15.7,14.14 16,13.5 14,3.5 45.5,0.5 30,-4.5 34.5,-9 22,-10 77,-28 82,-31.5 96,-33.5 70,-28 52.5,-20 61.5,-20.5 88.5,-33 23.5,-9 26.5,-12 31.5,-22.5 15.5,-20 13,-16 21.5,-10 17.5,-1.5 25,5.5 55.5,22.5 23.5,17 44.5,35 21.5,15 18,9 27.5,1.5 48,-4.5 30,-0.5 234,-30 218.5,-23 74.5,-8 41.5,-9 118.5,-32.5 337,-91.5 49,-18.5 123,-43 58,-20.5 42,-21 31,-17.5 27.5,-8.5 29.5,-4.5 27,-0.5 84,5.5"
     id="path3624"
     style="fill:none;stroke:#04783f;stroke-width:5;stroke-linecap:butt;stroke-linejoin:round;stroke-miterlimit:4;stroke-opacity:1;stroke-dasharray:none" />
  <path
     d="m 2939,2572 -5.5,25.5 -19,26.5 -50.5,54.5 -13.61,7.65 -20.37,1.15 -21.52,-10.29 -11.5,-8.5 -12,-1.5 -30,13 -19,3 -12.5,1 -35,-5 -34.5,1.5 -17,0.5 -10,-3.5 -11,-5 -22.5,-33.5 -10,-8 -13,-3 -34,0 -27.41,-2.92 L 2470,2620.5 l -36.5,-10.5 -42.5,-0.5 -18,-3 -93,-0.5 -44,4.5 -51,7.5 -25.5,-6.5 -21.5,-15.5 -22,-26.5 -30,-21 -8.5,-15.5 -16,-40.5 -55.5,-48 -12,-14 -9.5,-26 -5.5,-32 8,-53.5 -12,-25 -15,-5.5 -20,-0.5 -17.5,8 -68,2"
     id="path3626"
     style="fill:none;stroke:#04783f;stroke-width:5;stroke-linecap:butt;stroke-linejoin:round;stroke-miterlimit:4;stroke-opacity:1;stroke-dasharray:none" />
  <path
     d="m 2185,2618 -25,9.5 -27,8.5 -17,9.5 -16.5,22.5 -9,20 -2.5,27 -5.5,28 -7.5,17.5 -40,60 -16.5,31.5 -8.5,34 -14,69 -11,56.5 -10,23.5 -13.5,23.5 -20,19.5 -19.5,6 -51.5,14 -25.5,4"
     id="path3628"
     style="fill:none;stroke:#04783f;stroke-width:5;stroke-linecap:butt;stroke-linejoin:round;stroke-miterlimit:4;stroke-opacity:1;stroke-dasharray:none" />
  <path
     d="m 2811,2679 -16,-31 -14.5,-24 -27.5,-21.5 -27,-35.5"
     id="path3630"
     style="fill:none;stroke:#04783f;stroke-width:5;stroke-linecap:butt;stroke-linejoin:round;stroke-miterlimit:4;stroke-opacity:1;stroke-dasharray:none" />
  <path
     d="m 2864,2678.5 -9.05,11.94 -2.91,11.04 3.11,13.33 10.85,17.19 12,10.5 18,29 6,17 -3,10.5 -23,25 -15.5,22 -4,20 -11.5,19.5 -66,50.5 -10.5,14.5 -4,17 -3.5,13.5 -15.5,12 -7.5,12.5 -2,24 -3.5,20.5 -9.5,27.5 2,26.5 -3,17 -2.5,17 -2.5,26.5 -10.5,18 -6,12.5 0.5,17 5.5,15 13.5,14 9.5,18 17,32.5 6.5,33 7,50.5 4,51 12,39 24,40 21,27 18,28 4,22.5 -2,30.5 -9,25 -25.5,56 -45,47.5"
     id="path3632"
     style="fill:none;stroke:#04783f;stroke-width:5;stroke-linecap:butt;stroke-linejoin:round;stroke-miterlimit:4;stroke-opacity:1;stroke-dasharray:none" />
  <path
     d="m 3993.45,2288.16 14.19,15.08 11.13,4.74 12.28,-1.27 14.45,-10.2 22.5,-16 45.5,-26.5 12,-5.5 11,-10.5 8.5,-5 22,-6.5 18.5,2 75.02,-23.45 39.98,-14.55 41.5,-7 50.5,-28.5 32,-15 69,-23 17.5,5.5 29.96,27.27 L 4555,2152 l 44.5,0.5 28.5,-4 34,-9 22.5,-10 104,-39 77.5,-29 70.45,-24.3 L 5074,1984 l 41.5,-13 111.5,-42 33.5,-14.5 32,-23.5 28,-35 21.61,-10.2 20.26,-2.18 27.62,6.38 56.5,23 28.5,22 36.65,28.01"
     id="path3634"
     style="fill:none;stroke:#ee9bac;stroke-width:5;stroke-linecap:butt;stroke-linejoin:round;stroke-miterlimit:4;stroke-opacity:1;stroke-dasharray:none" />
  <path
     d="m 598.5,530 -12.5,-31 -28,-39.5 -35.5,-32.5 -45.5,-26.5 -37.5,-12 -23.5,-8 -72,-18.5 -36,-7.5 -19,1 -52,14.5 -17,5 -15.5,-1 -16,-4 -17.5,-14.5 -53,-53 -26.5,-22.5 -37.5,-19.5"
     id="path3659"
     style="fill:none;stroke:#861a54;stroke-width:5;stroke-linecap:butt;stroke-linejoin:round;stroke-miterlimit:4;stroke-opacity:1;stroke-dasharray:none" />
  <path
     d="m 440,388 -15.5,-14.5 -7.5,-18 4,-18.5 14.5,-22.5 33.5,-17 26,-14.5 16,-16 L 533.5,237 l 25,-20.5 52.5,-27 56.5,-30.5 35,-22.5 42.5,-29"
     id="path4317"
     style="fill:none;stroke:#861a54;stroke-width:5;stroke-linecap:butt;stroke-linejoin:round;stroke-miterlimit:4;stroke-opacity:1;stroke-dasharray:none" />
  <path
     d="m 4021,2369 7,1.49 18.5,-1.99 15,-3 54.5,-4.5 48,-6.5 34,-2 71.5,-3.5 77,-4.5 25.5,-0.5 23,3 42,15 29,15.5 22.5,15.5 21,10 11.5,2.5 15,-2 13,4.5 32.5,7 10,2.5 31,-1.5 17,-0.5 39.5,-8.5 18.5,-13.5 32.5,-10.5 22,-7.5 13,-13 7,-18.5 4,-20 12.5,-15.5 6.5,-2.5 h 5.5 l 10,13.5 13.5,32 7.5,21 7,24 15.5,30 11.5,11.5 18,5 36,29 29.95,17.1 35.05,9.4 29,1 40.78,-2.05 25.05,-2.35 19.41,0.2 13.76,-5.79 19,-17.5 19.5,0.5 7.5,-3.5 29,2 29.5,21.5 50,4 70.5,6"
     id="path4319"
     style="fill:none;stroke:#00afa9;stroke-width:5;stroke-linecap:butt;stroke-linejoin:round;stroke-miterlimit:4;stroke-dasharray:none;stroke-opacity:1" />
  <path
     d="m 4827,2359.5 17.5,23 15,8.5 26,3.5 27,-4.5 25,-4 30,-1 33.5,0 19.5,-1.5 37.5,5 14,4 13.5,9.5 11.5,3.5 64,4 14,-7 15,-7.5 34.5,1 123,6 19.5,4.5 13,11 15,6.5 14.5,-1.5 9.5,-6.5 4.5,-15 -2.5,-42.5 -1.5,-24.5 -5.5,-11 -14.5,-10 -45.5,-3.5 -35.5,1.5"
     id="path4321"
     style="fill:none;stroke:#00afa9;stroke-width:5;stroke-linecap:butt;stroke-linejoin:round;stroke-miterlimit:4;stroke-opacity:1;stroke-dasharray:none" />
  <path
     d="m 4562.5,2410 -19,5.5 -5,17.5 -11,75 3,7.5 31.5,9 6.5,6 29,5.5 6,5 -0.5,20 -6,36.5 -1.5,40 -4.5,27.5 2.5,10.5 7,10 23.5,21 14,13 5.62,9.68 -0.39,11.95 -12.27,48.59 1.04,25.78 3,18 -6.5,21 -18.5,13.5 -16.5,3 -28,0 -12,6.5 -9.5,13.5 -19.5,7 -7,8.5 2,16 7.5,25.5 1,14 14,20 16.5,16.5 14,5.5 9.5,16.5 15,22.5 15,30"
     id="path4325"
     style="fill:none;stroke:#00afa9;stroke-width:5;stroke-linecap:butt;stroke-linejoin:round;stroke-miterlimit:4;stroke-opacity:1;stroke-dasharray:none" />
  <path
     d="m 4516,2405.5 17.5,6 9,8"
     id="path4327"
     style="fill:none;stroke:#00afa9;stroke-width:5;stroke-linecap:butt;stroke-linejoin:round;stroke-miterlimit:4;stroke-opacity:1;stroke-dasharray:none" />
  <path
     d="m 154.5,1822 36,-23 18,-6 21.5,0 28,-2.5 67.44,-32.59 L 391.5,1724.5 l 62.5,-35 22,-24.5 13,-29 11,-47 13,-23 18.5,-21 81.5,-56 71.5,-48 57,-21.5 173,-61 51.5,-12.5 43.5,-2.5 45.5,1.5 54,10 89,23.5 33,3 32,-13 21.5,-11 31,-25.5 28,-19 25,-9.5 21.5,-5 17.5,-1.5"
     id="path4331"
     style="fill:none;stroke:#861a54;stroke-width:5;stroke-linecap:butt;stroke-linejoin:round;stroke-miterlimit:4;stroke-opacity:1;stroke-dasharray:none" />
  <path
     d="m 2917.5,2619 20,-10 37.01,0.39"
     id="path3627"
     style="fill:none;stroke:#04783f;stroke-width:5;stroke-linecap:butt;stroke-linejoin:round;stroke-miterlimit:4;stroke-opacity:1;stroke-dasharray:none" />
  <path
     d="m 4320.5,2783 13,12.5 27,10.5 25,5 12,9 8.5,16 1,19 11,27"
     id="path4409"
     style="fill:none;stroke:#ee1b2d;stroke-width:5;stroke-linecap:butt;stroke-linejoin:round;stroke-miterlimit:4;stroke-opacity:1;stroke-dasharray:none" />
  <text
     x="-4560.55"
     y="-7243.04"
     id="text3019"
     xml:space="preserve"
     style="font-size:144px;font-style:normal;font-weight:normal;line-height:125%;letter-spacing:0px;word-spacing:0px;fill:#000000;fill-opacity:1;stroke:none;font-family:Sans;-inkscape-font-specification:Sans"><tspan
       x="-4560.55"
       y="-7243.04"
       id="tspan1">2005</tspan></text>
  <text
     x="-4560.55"
     y="12997.96"
     id="text3019-6"
     xml:space="preserve"
     style="font-size:144px;font-style:normal;font-weight:normal;line-height:125%;letter-spacing:0px;word-spacing:0px;fill:#000000;fill-opacity:1;stroke:none;font-family:Sans;-inkscape-font-specification:Sans"><tspan
       x="-4560.55"
       y="12997.96"
       id="tspan2">2005</tspan></text>
  <path
     d="m 1844.5,3097.25 24.25,-3.5 51.5,-14.25 18.5,-5.75 18.75,-18 13.75,-24 9.5,-21.5 10.25,-55.75 14.5,-70.5 9,-34.75 17,-32.75 39.75,-58.5 7,-17.75 5.25,-27.25 2.25,-26.75 10.75,-23.25 17.25,-22.25 10.35,-6.19 4.65,-9.31 2,-42.5 4.75,-21.75 8.5,-15 24.5,-26.5 17,-26 22.5,-45.5 11.5,-38.5 13,-60.5 8.5,-26 22.5,-53 12.5,-29.5 23,-63.5 28.5,-52.5 14,-19.5 17,-8 27,-10.5 9.5,-11.5 3,-17.5 7.5,-15.5 12.5,-9.5 27,-4.5 62.5,-1 51.5,-4 37,-4.5 45,-20.5 32.5,-28.5 58,-69 19.5,-26.5 37.5,-29 36,-19.5 37,-11 44,-11 52.5,-26.5 34.5,-23.5 65,-27.5 85,-38.5 37,-14 65.5,-7 30,7 26.5,17.5 16.5,24 8,29 -0.5,32 6,32 3.5,29 7,30 17.5,15.5 23.5,3.5 21.5,1 48.5,11.5 69,3 22,-2.5 58,-22 120.97,-50 105.66,-37.21 24.78,-8.38 38.22,-3.89 32.88,2.99 129,17.5 137.5,11 23.5,-1 31.5,-4 70,4.5 52.5,3 27,3.5 31,15.5 25.5,25 18.5,9 24,2 59,-4.5 33,7 40.5,24 25.48,14.7 12,1.02 7.02,-1.72 15.5,-18.25 14.4,-15.69"
     id="path3628-0"
     style="fill:none;stroke:#0086c7;stroke-width:5;stroke-linecap:butt;stroke-linejoin:round;stroke-miterlimit:4;stroke-opacity:1;stroke-dasharray:none" />
  <path
     d="m 3952.12,2258.8 12.38,-39.25 14.98,-18.2 29.46,-14.48 60.66,-11.39 63.14,-7.55 36.61,-2.84 10.74,-3.81 10.9,-6.78 8.5,-13.5 -3,-44.5 -5.5,-45 -8,-30 -3,-38.5 -0.5,-30 1.5,-39.5 4,-30 -4.5,-23 -26.5,-81 -11,-25.5 -11,-10.5 -17.5,-20 -39.5,-110.5 -23,-65.5 -15.5,-21.5 -28.5,-30 -15,-19.5 -6.5,-25 -1.5,-25 9.5,-26.5 19,-34 2.5,-27.5 -4,-26.5 -0.5,-25 5.5,-41.5 1.5,-79 9.5,-25 17,-19.5 18,-22.5 4,-13.5 1,-17 -6.5,-27.5 0.5,-67 -7,-78.5 7.5,-33.5 27,-89 51.5,-138.5 10,-29.5"
     id="path4562"
     style="fill:none;stroke:#b2377f;stroke-width:5;stroke-linecap:butt;stroke-linejoin:round;stroke-miterlimit:4;stroke-opacity:1;stroke-dasharray:none" />
  <path
     d="m 4147.5,1766.5 1.5,-18 11,-18.5 8.5,-20.5 3,-24 -0.5,-33.5 0,-26.5 5,-16.5 9.5,-16 40,-59 18.5,-37 16.5,-42 25.5,-46.5 21,-25.5 101,-87.5 40,-20.5 72.5,-14.5 92,-15 29,-7 20.5,-15 24.5,-10 17,-6.5 14.5,-12.5 11.5,-17.5 2,-25.5 -8.5,-43.5 -17.5,-46.5 -2.5,-34 2.5,-53 25.5,-98.5 7.5,-53.5 12.5,-74 -0.5,-28.5 -2,-41 6,-39 18,-63 58,-94.5"
     id="path4564"
     style="fill:none;stroke:#b2377f;stroke-width:5;stroke-linecap:butt;stroke-linejoin:round;stroke-miterlimit:4;stroke-opacity:1;stroke-dasharray:none" />
  <path
     d="m 946,16.5 28.5,31.5 11.5,15 17.5,62.5 0.5,14 0.5,20 -8,15.5 -10.5,9 -19,17 -10,16 -2.5,17 6.5,15 9,7.5 14.5,5.5 31.5,-0.5 17.5,2.5 13,13 3,14.5 1.5,15.5 -15,63 -5,45 2,78 10,49 18,67 39,88 51,75 55,70 77,78 53,45 185.5,144.5 41.5,33.5 58,46 45.5,42 13.5,15 32,49 24.5,43.5 20,50 15,40.5 35.5,100 26,68.5 33,85.5 17,35.5 19,29.5 18.5,26.5 14,23.5 15.5,9.5 50,8.5 22.5,5 32,17.5 57,33.5 56,34 41,29.5 61.5,46.5 39.5,24.5 60,29 32.5,6.5 36,6.5 13.5,5.5 15,11.5 19.5,7.5 37,0 69,-6 30.5,-4 72.5,-26.5 37.5,-11.5 52,-14 52,-19.5 28,-12.5 49.5,-30 33.5,-23.5 54.5,-22 29,-9 54.5,-11.5 33,-10.5 81.5,-13 35,1.5 28.5,15 30.5,29.5 27,37 35.5,48.5 29,41 15,15 21.5,13 13,10.5 13,20"
     id="path3600-8"
     style="fill:none;stroke:#f9a51b;stroke-width:5;stroke-linecap:butt;stroke-linejoin:round;stroke-miterlimit:4;stroke-opacity:1;stroke-dasharray:none" />
  <path
     d="m 3651,2482.5 -12.5,25 -1.5,40 -3.5,32 -9.5,33 -19,30 -33.5,36.5 -6.5,21 -0.5,26.5 -3,23.5 -10.5,27 -14.5,19 -34,19 -144.5,84 -124.5,86 -73.5,50.5 -54.5,34.5 -67.5,27.5 -31.5,13 -86.5,26.5 -70.5,2 -58,7 -45,4 -56.5,-10.5 -37,-12 -34,-16.5 -23.5,-15.5 -139.5,-43.5 -70,-22.5 -53.5,-4 -60.5,3 -41,2.5 -47,-8 -30.5,4 -171.5,42.5 -38.75,13 -73.75,20.75 -25,3.25 -38,-6.5 -20.5,2.5 -16,9 -23,21.5 -102.5,117 -31,27.5 -39,23 -49.5,23 -41.5,9 -44,2 -34,-4.5 -149.5,-34.5 -105,-23.5 -51,-5.5 -59,5 -86.5,21.5 -87,20 -63,22.5 -164,55 -231.73,80.47 -149.27,37.03 -212,48.5 -76,17.5 -36,1.5 -21,-6 -12.9,-5.34 -11.14,0.25 -13.12,5.45 -10.65,9.16 -10.89,12.38 -13.37,8.17 -16.84,6.93 -19.31,0.99 -139.65,-40.36 -24.51,-1.49 -28.47,0.99 -26,7.18 -85.17,44.32 -23.27,17.08 -20.06,18.82 -36.4,48.53 -27.48,59.92 -13.37,53.23 -11.64,120.33 -13.62,106.71 -3.1,12.62"
     id="path4566"
     style="fill:none;stroke:#ee6e73;stroke-width:5;stroke-linecap:butt;stroke-linejoin:round;stroke-miterlimit:4;stroke-opacity:1;stroke-dasharray:none" />
  <path
     d="m 2396.5,3032 -30.5,-24 -95,-90.5 -80,-73 -37.5,-37.5 -62,-58.5 -38,-29.5 -65.5,-27 -57.5,-9 -68.5,5.5 -62,19.5 -106.5,58 -43.5,25.5 -46,44 -130.5,118 L 1271,3118"
     id="path4568"
     style="fill:none;stroke:#ee6e73;stroke-width:5;stroke-linecap:butt;stroke-linejoin:round;stroke-miterlimit:4;stroke-opacity:1;stroke-dasharray:none" />
  <path
     d="m 3542.6,2410.35 20.26,15.98 88.14,42.91 14.25,3.5 29.25,-3.75 21,-3 53.5,4.5 51,-2.5 15,-1.5 28,-13 22,-9 15,0.5 21,9 22.5,24.5 36,31 90.5,77 68,49.5 91.5,64.5 94,62 38,22.5 109.5,65.5 25,10.5 46.5,6.5 28,-1 24,-0.5 14.5,-2.5 15,-11 22,-13.5 11.5,-14.5 32,-18 16,-4 54.5,-5 17.5,1.5 18,-2 57.5,-13 92,-14.5 25,-3 15.5,-10 27,-16.5 39,-9.5 92.5,-50 28,-17.5 22.5,-6 23.5,0 36,10 16,4.5 16.5,-3 32,-9 16,-0.5 39,14 26,15 16,8 22.5,-0.5 100,-5 373.5,-22 283.5,-15.5 44,2.5 34.5,12 25,14.5 26,20 33.5,43.5 82,107 49.5,80 37.5,45.5 32,57"
     id="path4595-7"
     style="fill:none;stroke:#8bb7e0;stroke-width:5;stroke-linecap:butt;stroke-linejoin:round;stroke-miterlimit:4;stroke-opacity:1;stroke-dasharray:none" />
  <path
     d="m 4357.25,2782 16,15.5 13.25,21.25 27.25,65.25 31.75,55.5 27,30 47,38 39,25.5 30.5,19.5 35,13.5 41,5.5 31,0 74.5,-7.5 56,-5.5 34.5,-11.5 17.5,-4.5 18.5,8 45.5,30 71.5,42.5 100.5,59 61,37 13,5 18,-1.5 43.5,-10.5 233.5,-50 85.5,-20.5 34.5,-15 83,-46.5 21.5,-6 22,-3 64.5,10.5 40.5,2.5 191.5,9 51.5,-5.5 122,-18 69.5,1"
     id="path4597-1"
     style="fill:none;stroke:#8bb7e0;stroke-width:5;stroke-linecap:butt;stroke-linejoin:round;stroke-miterlimit:4;stroke-opacity:1;stroke-dasharray:none" />
  <path
     d="m 4592.5,3054 10.5,12.5 6.5,14.75 1,14.5 -11.5,31.25 -2,23 12.5,23 26,19 42,27.5 32.5,32 18,18 31,16.5 116,20.5 75,14 40.5,15 30.5,16 119,76.5 34.5,13 84.5,18.5 161.5,26.5 106.5,20.5 183,38 42.5,3 50.5,-4 174,-24.5 120,-45.5 122.5,-56 150.5,-60.5 78.5,-30.5"
     id="path4599-0"
     style="fill:none;stroke:#8bb7e0;stroke-width:5;stroke-linecap:butt;stroke-linejoin:round;stroke-miterlimit:4;stroke-opacity:1;stroke-dasharray:none" />
  <path
     d="m 3469.5,3677.5 25.5,-16 55,-33.5 18.5,-20.5 40.5,-54 22,-26 40,-20 31.5,-17.5 26,-28.5 15.5,-30 -2,-19.5 -6,-32.5 6,-26 21.5,-18.5 11,-19.5 0.5,-18 -3.17,-33.9 -12.3,-21.4 -15.05,-31.59 -2.98,-9.61 7,-43.5 12,-64 -3.5,-67 6.5,-29.5 12,-29.5 29.5,-35 12.5,-25.5 5.5,-39 -4,-54.5 -1,-53 -8.5,-26.5 -22.5,-64.5 0.5,-25.5 6,-26.5 1,-29 -7,-22.5 -12.5,-26.5 -2.5,-23 -10,-24.5 -9.5,-34 -8.25,-35.75 0.75,-11.75 2,-33.25 -1.5,-34.5 -1,-49.25 -5,-39 -3.5,-11.25 -9.25,-11.5 -12.22,-19.02 -11.1,-21.49 -17.6,-15.62 -10.52,-18.35 -76.81,-76.02 -15.75,-10.5 -12.75,0.75 -14.25,0.5 -20.91,-2.87 -12.65,-11.1 -15.17,-37.54 -7.02,-30.98 -1,-31 -1.5,-24 -16,-43 -4.5,-25 -10.5,-26.5 -28,-43.5 -27.5,-30.5 -13,-11 -31,-16.5 -34.5,-11 -49.5,-6 -64.5,6.5 -176,39 -81,22.5 -24,1.5 -44,-2.5 -38.5,-5.5 -52,-23 -27,-19 -31.5,-33 -50,-80 -36.5,-46 -89.5,-104 -67.5,-79 -34.5,-51 -19,-52.5 -7.5,-39 3,-40.5 14,-52.5 8,-27.5 7,-29.5 4.5,-40 -5,-36.5 -6.5,-39.5 -20.5,-46.5 -94,-151.5 -145.5,-241.5 -63,-134.5 -72.5,-210 -22.5,-48.5 -27.5,-39 -152.5,-203 -144.5,-195.5 -22.5,-45 -73.5,-201.5 -6,-36 -2,-57.5 16.5,-96.5 4.5,-40.5 44,-302 -1.5,-24 -2.5,-28.5 -9,-39 -47,-79 -12,-26 -10.5,-36 -2.5,-33 4.5,-35.5 11.5,-37.5 27.5,-55.5 12.5,-38.5 2,-32.5 -1.5,-53.5 -9,-116.5 -11.5,-50.5 -20,-60 -181.5,-387 -87,-182.5 -11,-40.5 -3,-25 0.68,-43.21 4.32,-49.64 -8.09,-49.1 -23.74,-53.96 -44.79,-60.43 -15.65,-30.76 -11.33,-29.14 -16.19,-74.46 -21.04,-45.33 -21.58,-29.68 -69.07,-87.95 -43.17,-50.72 -10.25,-28.06 -15.11,-50.72 -24.28,-37.23 -21.04,-21.58 -35.61,-26.98 -28.6,-35.61 -81.48,-92.27 -30.76,-20.5 -90.65,-28.06 -50.18,-24.82 -32.92,-25.9 -587.08,-582.22 -30.22,-35.61 -22.12,-42.09 -9.71,-36.69 -4.32,-29.68 11.87,-612.98 39.93,-261.16 0.54,-50.72 -8.09,-66.37 -13.49,-53.96 -20.5,-48.02 -119.25,-203.97 -19.96,-51.26 -19.96,-69.07 -7.01,-44.79 -14.03,-195.87 -5.4,-116.55 2.7,-60.43 18.35,-82.02 19.96,-60.43 42.09,-77.16 137.6,-223.93 24.28,-50.72 16.73,-42.63 61.51,-246.05 6.48,-46.94 1.08,-44.79 5.94,-112.24 21.04,-233.1 -3.78,-35.07 -7.55,-27.52 -8.09,-22.12 -9.71,-18.89"
     id="path4645"
     style="fill:none;stroke:#ea3b8b;stroke-width:5;stroke-linecap:butt;stroke-linejoin:round;stroke-miterlimit:4;stroke-dasharray:none;stroke-opacity:1" />
  <path
     d="m 3323,2799 -1,79.5 0,23.5 -10.5,40 -7.5,13 -12.5,13.75 -13.75,9 -15.75,5 -24.5,5.25 -71,48.25 -41.5,28.25 -18.25,20 -9.25,16.75 -15.25,57 2.25,33.75 6,22.5 42.5,80.5 26.5,53 18,19 19.5,15.5 22.5,8 169,52 165.5,51 91,9.5 28,-2.75 21.75,10 18.5,22.25 12.25,31 15.5,16.5 25.5,10.5 26.5,18.5 27.5,30.5 20.5,10 38,12.5 28,15 46.5,28.5 13,17 12,21 14.5,18 29,16 9.62,11.4 8.63,6.35"
     id="path4714"
     style="fill:none;stroke:#88ac95;stroke-width:5;stroke-linecap:butt;stroke-linejoin:round;stroke-miterlimit:4;stroke-opacity:1;stroke-dasharray:none" />
  <path
     d="m 3884.75,2444.5 -13.25,-0.75 -11,-3.25 -7.5,-10.5 -0.5,-10.25 19.03,-60.3"
     id="path4601"
     style="fill:none;stroke:#8bb7e0;stroke-width:5;stroke-linecap:butt;stroke-linejoin:round;stroke-miterlimit:4;stroke-opacity:1;stroke-dasharray:none" />
  <path
     d="m 3097.75,3068 7.5,-3.75 39.75,-24.75 7,-8.25 2.5,-11.5 -0.25,-10.75 -7.5,-14.75 -14.25,-12 -67.5,-16.25 -24.5,-9 -48,-27.5 -11,-17 -16,-42 -23.5,-34.25 -49.5,-61.5 -17.75,-29.25 -42.25,-37.5 -19.25,-21 -13.75,-19.75 -22.75,-40.25 -27,-21 -27.25,-36"
     id="path4997"
     style="fill:none;stroke:#0086c7;stroke-width:5;stroke-linecap:butt;stroke-linejoin:round;stroke-miterlimit:4;stroke-opacity:1;stroke-dasharray:none" />
  <path
     d="m 3107,3069.5 -14,31 -17.5,65 -16.5,48 -27.5,52.5 -79.5,129.5 -40.5,68 -23.5,48.5 -44,107.5 -8.26,22.14 -24.74,54.61 -47,49.75 -69.5,67 -33.5,35.5 -40,36.5 -44,28 -56,19.5 -228.5,71 -242,79 -117.5,38.5 -46.5,22.5 -64.5,43.5 -132,86.5 -93,49.5 -95.26,33.51 -44.47,6.3 -292.05,21.42 -23.27,2.97 -375.12,98.55 -65.12,18.57 -263.7,95.58 -31.94,17.33 -23.27,18.57 -260.23,209.72 -225.57,151.29 -500.16,324.61 -70.57,46.65 -38.31,24.47 -51.43,26.6 -49.66,18.8 -47.89,13.48 -207.5,52.5 -46.11,8.16 -204.31,30.15 -39.02,3.19"
     id="path4570"
     style="fill:none;stroke:#ee6e73;stroke-width:5;stroke-linecap:butt;stroke-linejoin:round;stroke-miterlimit:4;stroke-opacity:1;stroke-dasharray:none" />
  <path
     d="m 2206,4030 -28,-2.5 -28,-16 -98,-100.5 -29.5,-29.5 -25.5,-11.5 -37.5,-6 -24,0 -39,9.5 -29,-0.5 -75.5,-10 -31.5,-9.5 -133,-94 -52.5,-42 -16,-14.5 -10.5,-16"
     id="path4572"
     style="fill:none;stroke:#ee6e73;stroke-width:5;stroke-linecap:butt;stroke-linejoin:round;stroke-miterlimit:4;stroke-opacity:1;stroke-dasharray:none" />
  <path
     d="m 4601,3121 -28.5,42 -22,46.5 -18,43 -16.5,40.5 -18,83.5 -8,69.5 -6.5,57 -5.5,18.5 -15.5,37.5 -7.5,15.5 -23.5,35 -6.5,31 -10,57.5 -11.5,79.5 -6,43 1,56 -2,13 -8.5,16 -26.5,17.5 -15.5,12 -12.5,26.5 -25,52.5 -17.5,37.5 -20.5,30.5 -8,14.75 -9,14.75 -5,12.25 -0.5,11.75 3.5,10 7.5,8.25 10.5,5.75 12,3.75 111.75,9.75 32.25,6.25 31,14.25 20.5,17.75 25.5,31.75 21.5,36.5 38,42.5 42.5,39 35,28 43,19.5 54,15.5 33.5,2.5 36,-4.5 30.5,8"
     id="path4622"
     style="fill:none;stroke:#8bb7e0;stroke-width:5;stroke-linecap:butt;stroke-linejoin:round;stroke-miterlimit:4;stroke-opacity:1;stroke-dasharray:none" />
  <path
     d="m 3724.75,4464 6,-10.25 15.25,-20.25 3.75,-19 2.75,-6.75 6.75,-5.75 3.75,-11.5 1.5,-4.75 7,-5.25 6.5,-1 2.25,1.5 -0.75,16.75 15.25,32 1.75,2.75 4.5,3.25 8.75,23.75 3.5,2.25"
     id="path6724"
     style="fill:none;stroke:#75bd43;stroke-width:1px;stroke-linecap:butt;stroke-linejoin:round;stroke-opacity:1" />
  <path
     d="m 3750.5,2446.5 9.22,16.05 12.28,12.95 62.44,-3.56 50.64,-22.36 13.64,0.17 18.64,7.87 7.63,7.14 14.75,17.25 122.29,104.15 76.08,56.05 41.2,28.83 59.54,41.6 31.35,37.53 22.14,39.49 26.75,72.6 10.41,25.72 13.41,34.92 17.94,42.79 10.59,42.68 0.7,32.72 -0.33,42.84 -14.02,64.32 -18.43,72.08 -21.35,43.7 -31.85,52.49 -46.29,97.09 -14.84,38.96 -7.37,48.98 6.56,73.94 -4.04,38.08 -9.41,32.98 -3.18,9.53 -21.56,72.92 -20.39,38.77 -18.65,33.05 -49.43,82.91 -32.49,86.08 -37.53,110.58 -26.73,73.81 -24.77,54.05 -39.29,38.78 -22.45,18.53 -44.37,79.72 -10.17,33.5 -10.25,30.5 -1.75,15.75 -2.5,75.75"
     id="path4668"
     style="fill:none;stroke:#ea3b8b;stroke-width:5;stroke-linecap:butt;stroke-linejoin:round;stroke-miterlimit:4;stroke-opacity:1;stroke-dasharray:none" />
  <path
     d="m 3339.5,3426 30,25 14,30 19,65 8.5,45 0,42.5 -4,46 4.5,40.5 15.5,52 27,42.5 34,37 46,27.5 53.5,24.5 31.5,21.5 35.5,29.5 58.5,66 55,59.5 29.16,30.38 24.75,20.15 28.99,18.38 23.69,20.86 16.26,23.33 16.62,38.89 2.16,12.68"
     id="path4716"
     style="fill:none;stroke:#88ac95;stroke-width:5;stroke-linecap:butt;stroke-linejoin:round;stroke-miterlimit:4;stroke-opacity:1;stroke-dasharray:none" />
  <path
     d="m 3892.13,2241.69 6.19,-20.02 0.79,-20.37 -5.03,-61.33 -0.7,-31.18 13.49,-49.97 -2.14,-12.64 L 3895,2021 l -8.5,-19 -11,-23 -23.5,-36 -34.5,-34 -30.5,-25.5 -8.42,-9.37 -10.88,-24.15 -17.97,-27.1 -8.24,-34.38 -7.55,-31.99 -6.95,-39.01 -9,-45 -8.25,-33 -5.25,-16.5 -3,-19.25 3.5,-14.5 3.5,-21 3.25,-44.75 11.75,-69.75 5,-41 2,-36.25 -1,-32 -10,-31.5 -13,-23.5 -38.5,-86 -12,-35 -51,-104 -28.5,-51 -30.5,-36 -69,-70 -67.5,-69 -32,-42.5 -62,-103 -54.5,-90.5 -71,-114 -63,-107.5 -28.5,-84.5 -34,-112 -5,-51 -7.5,-122 -2,-80 -5.5,-118 -12,-40 -35.5,-96.5 -30.5,-71 -21.5,-34 -75.5,-111.5 -51.5,-97.5 -17.5,-49.5 -11.5,-45.5 -5,-23.5 -5,-58 -8.5,-171.5 -11,-47.5 -19,-47 -33.5,-52 -63.5,-92 -19,-35.5 -12,-44.5 -2,-34.5 3.5,-41 13,-39.5 37,-78.5 4,-26.5 3.5,-27 -5,-171 3.5,-34 11.5,-41.5 108,-315"
     id="path4832"
     style="fill:none;stroke:#d3a05d;stroke-width:5;stroke-linecap:butt;stroke-linejoin:round;stroke-miterlimit:4;stroke-dasharray:none;stroke-opacity:1" />
  <path
     d="m 3575.25,1012.25 -14.75,-31 -5.5,-21.25 0.5,-25 27.5,-50 68.5,-125 37,-69 24.5,-49.5 8,-23.5 6,-31 9,-46.5 13,-35.5 24.5,-43.5 10,-41 25,-95 14.5,-46.5 18,-37 15.5,-27 10.5,-37 5,-42.5 -2.5,-26 -6,-23 -8,-28 -14.5,-23.5 -35.5,-50.5 -17,-28.5 -13,-43.5 -42,-138 -25.5,-90 -37,-127.5 -6.5,-44 2.5,-46 17,-137 0,-38.5 -1.5,-46.5 -4.48,-50.42 0.35,-36.42 10.63,-58.16 37,-129.5 35,-168.5 33.5,-81.5 12.5,-35 6.5,-49.5 6.5,-86 11.5,-40.5 61.5,-131.5 12,-44.5 8.5,-52 0,-51.5 -6,-41.5 -17,-59 -27,-93.5 -7.5,-50 -3.5,-73.5"
     id="path4046"
     style="fill:none;stroke:#d3a05d;stroke-width:5;stroke-linecap:butt;stroke-linejoin:round;stroke-miterlimit:4;stroke-dasharray:none;stroke-opacity:1" />
  <path
     d="m 2533,3927.5 -24,21 -21,27 -11,35 -17.5,70.5 -62.5,240.5 -4.5,33.5 -5.5,20.5 1,34.5 3.5,45.5 -0.5,45.5 -0.98,21.98 -9.19,50.56 -13.08,38.54 -39.24,80.61 -25.1,61.16 -103.59,285.67 -5.3,10.96 -14.14,12.73 -21.21,7.07 -46.15,31.22 -43.5,43.5 -63,65 -26,20.5 -60,32 -154,78.5 -64.5,44.5 -60.5,42 -29.5,29 -23.5,31.5 -23.5,45 -8,29 -9.5,57.66"
     id="path4574"
     style="fill:none;stroke:#ee6e73;stroke-width:5;stroke-linecap:butt;stroke-linejoin:round;stroke-miterlimit:4;stroke-dasharray:none;stroke-opacity:1" />
  <path
     d="m 3910.3,4241.55 -3.54,21.21 -11.31,14.14 -32.53,17.68 -71.77,37.83 -17.68,20.15 -10.27,25.91 -9.4,21.86 -17.45,21.52 -19.45,15.91 -13.79,9.55 -13.44,20.51 -20.86,31.47 -37.32,51.71 -14.5,13.5 -19.5,14 -21,11 -30.5,9.5 -400,124 -18.5,1 -22,-1 -17.5,-6 -13.5,-5.5 -29,-21 -32.5,-18.5 -30.5,-4 -34.5,5 -40.5,13 -257,70 -12,5 -25,12.5 -220,156 -16,16.5 -97.5,98.5 -24.5,17 -20.5,7.5 -30.5,2.5 -18.5,-2.5 -11.5,1 -13.5,5"
     id="path6722-6"
     style="fill:none;stroke:#88ac95;stroke-width:5;stroke-linecap:butt;stroke-linejoin:round;stroke-miterlimit:4;stroke-dasharray:none;stroke-opacity:1" />
  <path
     style="fill:none;stroke:#ea3b8b;stroke-width:5;stroke-linecap:butt;stroke-linejoin:round;stroke-miterlimit:4;stroke-dasharray:none;stroke-opacity:1"
     id="path4668-2"
     d="m 3845.25,4500.75 -3.46,143.24 -5.63,88.08 -4.87,47.43 -14.68,49.66 -22.63,42.43 -33.59,43.13 -40.31,35.36 -84.85,82.38 -44.19,52.68 -71.42,101.12 -57.28,79.9 -61.17,97.07 -37.43,71.03 -68.5,156 -8,57.75 -18,86.75 1,48.75 48.75,270 -0.25,46.25 -11.5,58.5 -38.75,98.75 -10.75,43.5 -1.5,71 -11.25,49.75 -19.39,57.68 -27.11,43.07 -62,66.5 -22.6,32.34 -9.09,41.9 -4.2,40.83 4.96,69.06 14.12,59.9 34.72,100.35 14.12,69.44 16.03,103.02 8.78,74.4 2.29,70.97 -1.14,1143.88 1.53,155.41 0.5,351 6.5,44 13,34 16,29.5 82,140 53.5,51.5 24,37 18.5,46 37.5,113.5 25.5,38 38.5,42 61,59.5 28.5,37.5 25.5,43.5 45,89 15,52.5 50,205.5 4.5,37 -0.5,28.5 -5.5,35.5 -9.5,43.5 -135,573.5 -14,48 -310,773.5 -12,27.5 -27.5,83.5 -55.5,170 -12,52 -19,113 2.5,46 12,47.5 48.5,88.5 15.5,33 10.5,45.5 17.5,55.5 3.5,36.5 -2,28 -13,64.5 0.5,42.5 9,60 17,67 15,31.5 19.5,28.5 34.5,33.5 21.5,20.5 14.5,24 15.25,40.25 5.12,14.12 0.25,9.5" />
  <path
     d="m 3956.85,2260.2 12.4,-38.85 13.35,-16.01 28,-13.76 59.43,-11.38 64.57,-7.25 35.46,-3.02 73.43,-22.94 46,-20 65,-13.5 57,-19.5 34.5,-12.5 47.5,-8 20.75,-6.75 9.25,-7.75 10.25,-10 30.5,-25.25 20.11,-15.33 26.39,-21.67 32.25,-32.5 31.75,-42.75 21.5,-26.25 28.25,-29.25 43.41,-23.6 36.09,-11.9 54.5,-16 114.5,-34 61,-16.5 40,-5.5 56.5,-8 39.5,-11.5 44.5,-17 110.5,-57.5 66.5,-28.5 61,-19 97,-34 55,-14 74.5,-11 64.5,-11.5 166.5,-37 65,-14.5 207,-27.5 73,-9.5 47.5,-8.5 64.5,-13.5 59.5,-17.5 86.5,-38 146.5,-70 44.5,-25.5 42,-29.5 191.5,-120.5 44.5,-28.5 276.5,-176.5 174.5,-106 30,-13.5 49.5,-12 43.5,-6 45,1 53.5,8 24,0 28,-1.5 24,-6 21.5,-9 18.5,-9.5 22,-16.5 20.5,-18.5 21.5,-27 13,-25 9.5,-30.5 6,-44 7,-29.5 12,-33 14.5,-27"
     id="path4560"
     style="fill:none;stroke:#9194b8;stroke-width:5;stroke-linecap:butt;stroke-linejoin:round;stroke-miterlimit:4;stroke-dasharray:none;stroke-opacity:1" />
  <path
     d="m 56,262 -158,-45 -57,-16 -20.5,-10 -36,-25.5 -129,-131 -39.5,-39.5 -24.5,-16.5 -33,-13 -26,-6 -27.5,-0.5 -51,5 -13.5,-2 -60,-13 -209,-63.5 -43.5,-11.5 -38,-3.5 -129.5,-9.5 -43,-10"
     id="path3733"
     style="fill:none;stroke:#861a54;stroke-width:5;stroke-linecap:butt;stroke-linejoin:round;stroke-miterlimit:4;stroke-dasharray:none;stroke-dashoffset:0;stroke-opacity:1" />
  <path
     style="fill:none;fill-rule:evenodd;stroke:#75bd43;stroke-width:1px;stroke-linecap:butt;stroke-linejoin:round;stroke-opacity:1"
     d="m 3942.83,4591.92 -6.72,13.79 0.35,4.24 5.66,2.83 21.92,3.89 22.27,2.12 55.15,13.44 20.86,-1.77 33.59,5.66 13.08,6.01 8.49,8.84 7.07,13.79 6.72,7.42 14.5,9.19 13.08,2.12 20.51,2.83 13.08,3.89 5.3,5.3 3.54,10.25 15.2,9.55 21.21,18.38 15.56,11.31 11.67,7.42 19.45,7.78 19.09,4.24 18.03,1.41 10.61,-2.12 8.84,-4.6 7.42,1.41 25.81,12.02 4.6,-1.06 6.01,-10.25 13.79,-14.85 13.79,-8.84 16.26,1.41 8.49,6.36 53.39,49.5 8.84,10.96 5.66,16.62 21.21,55.51 1.77,6.72 12.37,19.45 10.96,21.21 7.42,12.02 8.13,8.84"
     id="path4370" />
  <path
     style="fill:none;stroke:#04783f;stroke-width:5;stroke-linecap:butt;stroke-linejoin:round;stroke-miterlimit:4;stroke-dasharray:none;stroke-opacity:1"
     id="path4222"
     d="m 3148,2220.5 -26,17 -14.5,18 -33,31 -45.5,41 -21.38,9.8 -18.12,5.7 -46.5,4.5 -57.5,9.5 -14,8.5 -7,20.5 2,24.5 20,82 12,29.5 8.5,12.5 24.5,24.5 5,8 2.45,6.36" />
  <path
     style="opacity:1;fill:none;fill-rule:nonzero;stroke:#262626;stroke-width:5;stroke-linecap:butt;stroke-linejoin:round;stroke-miterlimit:4;stroke-dasharray:none;stroke-opacity:1"
     d="m 3050.73,7722.89 42.41,-9.93 12,0.21 9.93,2.69 13.03,9.72 22.76,13.03 12.21,4.55 14.48,5.59 6.41,6 1.86,7.04 3.31,15.93"
     id="path4575" />
  <path
     id="path910"
     d="m 2775.15,3741.34 -20.96,21.6 -7.91,9.44 -1.03,14.61 2.25,10 3.87,5.39"
     style="fill:none;stroke:#75bd43;stroke-width:5;stroke-linecap:butt;stroke-linejoin:round;stroke-miterlimit:4;stroke-dasharray:none;stroke-opacity:1" />
  <path
     id="path908"
     d="m 2751.37,3802.39 7.63,10.61 16,9.5 17,12 8.4,11.2"
     style="fill:none;stroke:#75bd43;stroke-width:1;stroke-linecap:butt;stroke-linejoin:round;stroke-miterlimit:4;stroke-dasharray:none;stroke-opacity:1" />
  <path
     style="fill:none;stroke:#88ac95;stroke-width:5;stroke-linecap:butt;stroke-linejoin:round;stroke-miterlimit:4;stroke-dasharray:none;stroke-opacity:1"
     id="path4718"
     d="m 3412.5,3722.5 1,24 -13,17.5 -56,60.5 -55.5,68 -33,56 -12,27.5 -32.57,106.49 -16.93,45.01 0.5,23 13,17 43,19.5 17.5,16 7,20.5 -8.5,170.5 -5.5,23.5 -9,25 -13,25.5 -29.5,33 -28,29.5 -19.5,12 -41,17.5 -24,26 -19.5,33 -22,21.5 -24.5,12.5 -29.5,9 -14.5,1 -21.5,7" />
  <path
     id="path4556"
     d="m 2800.4,3845.7 8.1,10.8 19,27 67,51 66.5,53.5 46,43.5 48.5,50 19.5,16.5 26,9 25,3.5 19.5,14 31,29.5 20.5,12 9.5,6 41.5,19 29.25,3.75 141.25,54.25 18,2.5 34,16 14.5,13.5 20.5,9.5 16,14.5 35,39.5 85.5,124.5 13,9 17,1 19.5,-5.5 15.5,-22.5 5,-4 5.75,2.5"
     style="fill:none;stroke:#75bd43;stroke-width:5;stroke-linecap:butt;stroke-linejoin:round;stroke-miterlimit:4;stroke-dasharray:none;stroke-opacity:1" />
  <path
     id="path916"
     d="m 4484,3903.5 -21.5,-8.5 -23,-2 -37,1.5 -32.5,6.5 -42,16.5 -35.5,24 -85,66.5 -43,29 -14.5,4 -11.5,5 v 6.5 l 4,6 16.3,17.93"
     style="fill:none;stroke:#75bd43;stroke-width:5;stroke-linecap:butt;stroke-linejoin:round;stroke-miterlimit:4;stroke-dasharray:none;stroke-opacity:1" />
  <path
     id="path914"
     d="m 4158.8,4076.43 3.7,4.07 1,8.75 -4.75,6.75 -9,4 -3.25,4.5 -2.5,7 7.75,32.75 0.92,1.16"
     style="fill:none;stroke:#75bd43;stroke-width:1;stroke-linecap:butt;stroke-linejoin:round;stroke-miterlimit:4;stroke-dasharray:none;stroke-opacity:1" />
  <path
     id="path4558"
     d="m 4152.67,4145.41 4.83,6.09 5,5.75 20.25,14.25 2.75,7.75 -0.75,8.5"
     style="fill:none;stroke:#75bd43;stroke-width:5;stroke-linecap:butt;stroke-linejoin:round;stroke-miterlimit:4;stroke-dasharray:none;stroke-opacity:1" />
  <path
     style="fill:none;stroke:#75bd43;stroke-width:1px;stroke-linecap:butt;stroke-linejoin:round;stroke-opacity:1"
     id="path6210"
     d="m 3716.25,4449.5 2.75,4.25 0.75,7.5 27,15 9.75,-1 13.75,-4 10,-0.5 34.5,-9.5 24,-4.25 25.75,-10 11,1.25 11.5,2.75 h 9 l 14.75,-3 16.5,0.25 12.75,2.75 26.5,-0.75 20.76,0.12 9.39,2.73 12.35,6.4 5.75,1.5 3,-2 9.5,-19.5 5.43,-19.94 2.31,-50.28" />
  <path
     style="fill:none;stroke:#75bd43;stroke-width:5;stroke-linecap:butt;stroke-linejoin:round;stroke-miterlimit:4;stroke-dasharray:none;stroke-opacity:1"
     id="path6212"
     d="m 4034.99,4369.28 1.01,-19.03 5,-19.25 8.75,-17.5 16.75,-17.75 14.75,-11 30.5,-20.75 13.5,-10.5 89.5,-97.75 20.25,-23.75 24,-39" />
  <path
     style="fill:none;stroke:#75bd43;stroke-width:1;stroke-linecap:butt;stroke-linejoin:round;stroke-miterlimit:4;stroke-dasharray:none;stroke-opacity:1"
     id="path6726"
     d="m 4009,4459.5 4.32,3.54 0.22,4.08 -6.5,11.81 -12.37,20.64 -16.57,28.89 -35.27,63.46" />
  <path
     style="opacity:1;fill:none;fill-rule:nonzero;stroke:#80c242;stroke-width:5;stroke-linecap:butt;stroke-linejoin:round;stroke-miterlimit:4;stroke-dasharray:none;stroke-opacity:1"
     d="m 3377.5,12743.62 -5.62,-16.12 -3.62,-32.25 1.5,-9.75 5.5,-10 9.88,-6.88 17.25,-8.12 29.88,-9.62 29,-4.38 13.88,-5 28.5,-15.25 16.38,-11.12 22.88,-23.88 14.5,-18.88 9.12,-18.12 12.25,-24.5 10.25,-15.5 14.5,-18 18.75,-17.25 64,-57.25 44.25,-34.75 18.25,-12 24.75,-12.75 16.5,-10.25 52,-46.75 31,-20 22.5,-11.75 21.25,-8.25 25,-9 23.75,-3 56.5,-3.75 21,-2.5 28.75,-6.25 30.5,-12 29.25,-8 30,-4.5 37.5,0.5 20.5,4.25 54.25,12.25 29.25,2 31.75,0.75 27.75,-3.75 30.5,-3.75 38,-11 42.75,-5 93.25,-15.25 36,-13.75 23.75,-6.75 27,0.25 41,9 32,3.75 28.75,-1.5 26,-5 25.25,-9 20.5,-11.5 17,-15.25 11.5,-7.5"
     id="path1123" />
  <path
     d="m 6269.5,3070.5 68.5,6.5 152,5.5 73.5,1.5 15.5,5.5 17,11 16,26.5"
     id="path4597-7"
     style="fill:none;stroke:#8bb7e0;stroke-width:5;stroke-linecap:butt;stroke-linejoin:round;stroke-miterlimit:4;stroke-dasharray:none;stroke-opacity:1" />
  <path
     style="opacity:1;fill:none;fill-rule:nonzero;stroke:#8bb7e0;stroke-width:5;stroke-linecap:butt;stroke-linejoin:round;stroke-miterlimit:4;stroke-dasharray:none;stroke-opacity:1"
     d="m 5590.5,4484 39.5,83 27.5,43 30,37 89.5,90.5 35.5,45.5 26.5,37.5 21,18 32.5,24 22.5,12.5 86,28 32,12.5 24.5,14.5 20.5,17 18,20 34,59 136,243 12,23.5 7,27 6.5,42.5 12.5,32.5 21,42.5 38.5,71 15,46.5 2,44.5 -0.5,24.5 -19,121.5 2.5,37.5 6,29.5 16.5,30.5 15.5,19 42,38 21.5,33 12.5,31 5.5,32.5 6.5,31.5 18,32 21,29 11.5,23.5 7.5,25.5 94,376.5 44,145 14,39 19.5,37.5 37.5,52 40.5,48.5 39,29.5 28.5,17 105.5,47.5 36,20 27,20 93.5,75.5 58,48.5 19,24 13.5,28 11.5,45.5 11.5,37 11.5,12.5 13.5,8 10,2.5 55,9 24.5,5 11.5,7.5 11,11 5.5,13.5 4,19.5 14,102 5.5,51 -0.5,32.5 -5,28 -27.5,62.5 -4.5,16 0.5,20 9,25 15,16 6.5,11.5 43,83.5 5.5,22 -4,28.5 -11,18.5 -13.5,17.5 -50,82.5 -15,31 -11,27.5 -50.5,66.5 -22.5,38.5 -10.5,21.5 -6.5,23 -1,28 -1,31"
     id="path924" />
  <path
     d="m 3981.5,2354 33.46,10.14 13.24,1.66 13.56,-1.46 19.18,-3.42 52.22,-4.64 49.59,-6.79 43.25,-2 138.25,-7.75 8.75,-1.75 17,-9.5 132.5,-145.5 11,-16 13.5,-7.5 10.85,-1.19 15.52,3.44 46.5,0.75 29.56,-4.6 35.56,-9.02 22.49,-10.5 158.37,-59.37 93.23,-32.08 71.99,-28.95 53.28,-20.4 57.63,-18.92 116.41,-43.66 26.78,-12.38 32.88,-22.98 27.75,-35.71 19.62,-9.55 15.2,-1.06 24.78,5.21 55.08,21.97 32.36,24.86 34.14,26.64 22.2,15.85 18.98,9.34 28.81,2.06 49.5,-4.5 30.5,-1.25 232.8,-29.7 294.7,-31.3 38.5,-8.25 458.5,-124.5 52.52,-19.95 179.23,-63.05 71.25,-38 26,-8 28.75,-4.25 28,-0.69 82.75,5.69 66.75,-4.5 76.94,-25.41 190.56,-55.86 47.02,-8.13 183.14,-19.45 287.08,-30.05 54.99,1.9 313.5,28.5 31,-1 43,-9.5 66.5,-28 62.5,-20.5 42,-7.5 57,2 49.5,13 74,28.5 45.5,7 38,-1 364,-27.5 45,2 41.5,10 252,115.5 24,3.5 47,0.5 32,4 49,18 152,68 41,25.5 196,143.5 38,21.5 30.5,9.5 28,2 691,0.5 34,5.5 36.5,18.5 60.5,11.5 48,-2 61.5,8 35.5,-4.5 41.5,-6.5 41,5 127,34 51,7 46,-5.5 143.5,-32 45,-2.5 219,-5 49.5,8 276.5,56.5 34,10.5 31.5,14 27.5,16 28.5,21"
     id="path4319-3"
     style="fill:none;stroke:#f383bf;stroke-width:5;stroke-linecap:butt;stroke-linejoin:round;stroke-miterlimit:4;stroke-dasharray:none;stroke-opacity:1" />
  <path
     style="fill:none;stroke:#9194b8;stroke-width:5;stroke-linecap:butt;stroke-linejoin:round;stroke-miterlimit:4;stroke-dasharray:none;stroke-opacity:1"
     d="m 7896.5,514.5 70,-96.96 31.5,-23.54 44,-13.5 55.5,-8 31,-0.5 35,4.5 430.5,141.5 46.5,9.5 55,6.5 73.5,26 32,4 31,-0.5 59,-6 51,3.5 31,12.5 168.5,59 44,3.5 42,-9 67.5,-18 53,-2.5 36,3.5 182,50.5 41.5,22 35,26.5 228.5,204 210,182.5 43.5,27.5 44.5,12 205,44 55.5,-2.5 33.5,-12 41.5,-27.5 39,-44 49.5,-73.5 36.5,-38 39,-28 65.5,-36.5 53.5,-23 52.5,-8.5 59.5,6.5 177.5,56.5 74.5,12.5 51.5,22 101.5,74 25.5,27 46.5,70 78.5,123.5 23,49 11,50.5 -1.5,46.5 -7.5,80 1.5,45.5 9,50 41.5,142.5 4.5,23 7,123"
     id="path4560-7" />
  <path
     d="m 4698,1897 -27.5,37 -22,29 -30.5,30.5 -29.5,24.5 -26.25,19.39 L 4537,2058 l -8.15,10.32 -3.35,15.18 8,16.5 17,44 23.5,56 14,37.5 6,30 10,54.5 8.5,52 5.5,27 2.5,6.5 -4.5,8"
     id="path4323"
     style="fill:none;stroke:#00afa9;stroke-width:5;stroke-linecap:butt;stroke-linejoin:round;stroke-miterlimit:4;stroke-opacity:1;stroke-dasharray:none" />
  <path
     style="fill:none;stroke:#8bb7e0;stroke-width:5;stroke-linecap:butt;stroke-linejoin:round;stroke-miterlimit:4;stroke-dasharray:none;stroke-opacity:1"
     id="path4624"
     d="m 4718.5,3260 35,55 113,178.5 32,44 53.5,65.5 141.5,137.5 57.5,57.5 28,33.5 41,64 36.5,54.5 53.5,68.5 40,65 170.5,277.5 55,93.5 15,29.5" />
  <path
     style="fill:none;stroke:#88ac95;stroke-width:5;stroke-linecap:butt;stroke-linejoin:round;stroke-miterlimit:4;stroke-dasharray:none;stroke-opacity:1"
     d="m 3353,2600 -35.5,73.5 -3,25.5 8,31 1.8,30.89 -1.3,38.11"
     id="path4708" />
  <path
     d="m 3920.86,2467.84 17.14,18.92 121.05,103.26 74.57,54.81 52.42,36.94 L 4204,2699 l 14.5,27 6.5,17.5 4.5,29 2.5,29.5 -6,35.5 -27,66.5 -17.5,42 -15,20 -24.5,17 -15.75,3.5 -31.25,3.75 -19.25,5.5 -22.75,11.25 -21.5,4.75 -21,4.25 -18,11.5 -9,22.5 -1.5,29.5 0.5,12.5 -31.5,62.5 -28.5,45 -34.5,39.5 -63.5,55 -27.5,35 -20,30.5 -22.5,57.5 -11.25,27.5 -11.5,20 -22.62,26.48 -4.24,8.13 -0.35,13.08 8.72,20.31"
     id="path4720"
     style="fill:none;stroke:#88ac95;stroke-width:5;stroke-linecap:butt;stroke-linejoin:round;stroke-miterlimit:4;stroke-dasharray:none;stroke-opacity:1" />
  <path
     d="m 3983.5,5868.25 -9,-22 -4,-15 -0.75,-25.5 6.75,-29.5 10.25,-18.5 11.25,-15.25 24.25,-21.75 11,-16 9.75,-22.25 3.5,-24 -1.75,-17 -3.25,-15.75 -7.25,-18.25 -34.25,-59 -32.5,-58.5 -4.75,-18.75 -2.75,-29.25 -3.25,-12.75 -6.75,-24.25 -8.25,-18.25 -23,-31.75 -62.25,-66.75 -33.25,-34.75 -19.25,-16 -23.75,-13.25 -57.75,-24.5 -19.25,-12 -14,-12.75 -11.5,-16.5 -16.5,-38.25 -8.25,-12.75 -23.75,-24.5 -3,-13.75 0.25,-15.25 10.75,-16.5 89.5,-86.5 36.25,-32.5 35.5,-44.5 23,-44 14.5,-50.25 5,-47.5 5.5,-90.75 3.25,-141 2.75,-72.5 2,-19.5 8,-26 12.25,-34 43,-79 23.31,-19.82 39.24,-38.89 25.1,-55.51 27.22,-74.58 29.34,-89.1 38.89,-104.3 6.72,-10.96 51.97,-86.62 31.11,-58.34 23.58,-79.4 11.06,-38.98 4.08,-37.72 -7.01,-73.09 7.44,-48.32 15.01,-38.55 45.77,-96.28 30.59,-50.75 22.81,-46.55 18.44,-71.85 14.14,-64.92 0.23,-40.17 -1.33,-37.12 -10.02,-43.98 -17.84,-41.85 -13.06,-35.68 -13.54,-31.84 -24.5,-67.84 -22.75,-40 -10,-11.96 -77.72,-52.77"
     id="path3055-5"
     style="fill:none;stroke:#88ac95;stroke-width:5;stroke-linecap:butt;stroke-linejoin:round;stroke-miterlimit:4;stroke-dasharray:none;stroke-opacity:1" />
  <path
     style="fill:none;fill-rule:evenodd;stroke:#88ac95;stroke-width:5;stroke-linecap:butt;stroke-linejoin:round;stroke-opacity:1;stroke-miterlimit:4;stroke-dasharray:none"
     d="m 3627.76,5052.38 -17.7,28.65 -10.53,8.43 -23.17,3.37 -13.06,9.27 -9.69,24.02 -8.43,14.33 -77.53,110.81 -10.53,7.58 -15.17,4.21"
     id="path7451" />
  <path
     id="path953"
     d="m 13265,5423.5 -22.5,-7 -5.5,-1.5 -132.5,-4.5 -51,-18.5 -86,-55.5 -76.5,-44 -104,-29.5 -35,-16 -48,-41.5 -46.5,-36.5 -342.5,-145 -51,-13 -211,-31.5 -179,1.5 -50.5,-9 -120,-35 -48.5,-19 -35.5,-21 -63,-41.5 -196.5,-89.5 -37.5,-14.5 -42.5,-0.5 -33,8 -50,21.5 -45.5,4.5 -71.5,-10.5 -216.5,-64 -43,-14 -82.5,-48.5 -96,-32 -45.5,-23.5 -231,-202 -58,-32 -214.5,-89 -28,-4.5 -35.5,-0.5 -37.5,10.5 -24,12 -100,90 -27,24 -26.5,7.5 -31.5,-2 -24,-11.5 -48,-34 -55,-24 -11.5,-11 -20.5,-33.5 -22.5,-26.5 -14.5,-37.5 -13.5,-16 -31,-17 -29.5,-30.5 -7.73,-17.74 -8.63,-16.77 -11.36,-10.99 -17.25,-7.09 -14.97,0.02 -16.3,5.86 -8.5,7.01 -22.77,32.95 -12.5,23.5 -9.5,23.5 -6.75,30.25 -11.25,23.75 -10,15.5 -22.25,26.75 -16.25,17.5 -19.25,16 -21.5,12.5 -75,35.25 -24.25,10.5 -32.75,9.5 -27,2.5 -32,-0.5 -73,-10.5 -24.25,-9.75 -35,-13 -25.5,-4.25 -48.25,2.5 -30.75,-2.5 -25.25,-5.75 -24.75,-11.5 -39.75,-20 -29,-8 -23.75,-3.25 -41.75,2.25 -220.5,17.75 -27.25,-0.75 -31.5,-5.25 -181.75,-55.25 -22,-2 -70.25,-1 -103.5,1.5 -49,-2.5 -42,-10 -389,-173 -67.5,-17 -56.5,-25.5 -35,-12.5 -38,-4.5 -246,15.5 -35.5,1.5 -216.5,-19.5 -57,-6 -52,5.5 -62,9.5 -54.5,11.5 -67,31.5 -111,53.5 -62.5,29 -43,16 -46.5,8.5 -35.5,1 -460,-41 -45,2 -42.5,-1 -55.5,-5 -59.5,4.5 -30.5,-0.5 -34,-4 -36.5,-10.5 -24,-11.5 -63,-41.5 -33.5,-14 -31.77,-8.49 L 5302,4056 l -78.5,5.5 -78.5,7.5 -63,3 -56,1 -109.5,-4.5 -53.5,-3.5 -41,-16.5 -21.5,-17.5 -29,-35.5 -33,-38 -23,-16 -33.5,-11 -185.75,-31.75 -33.25,-8.5 -22.5,-2.25 -40.75,1.75 -38.75,7.75 -34,-4.5 -22.5,-10.5 -32.5,-35 -36,-54 -24.5,-30.5 -30,-25.5 -31,-24 -76.5,-60.5 -55,-44 -27.5,-22.5 -44.5,-35.5 -21,-19.5 -35,-42.5 -25.5,-39 -15.5,-36 -11,-28 -12.5,-32.5 -14.5,-22 -43,-63.49 -13.5,-23 -24.5,-51.51 -33,-36 -27,-35 -14,-15.5 -15,-8.5 -25,-9.5 -23,-0.5 -36,6.5 -22,2 -24,-4.5 -32,-23 -25.5,-22 -24.5,-25 -31.5,-45.5 -18.5,-52 -13.5,-19 -16.5,-29 -8,-32 -8,-21 -6.3,-20.45 1.56,-42.6 -2.16,-32.43 -7.6,-30.01 3,-24.5 34.99,-71.65"
     style="opacity:1;fill:none;fill-rule:nonzero;stroke:#8bb7e0;stroke-width:5;stroke-linecap:butt;stroke-linejoin:round;stroke-miterlimit:4;stroke-dasharray:none;stroke-opacity:1" />
  <path
     d="m 3641,3098 27,3.25 18.5,-3.75 31.5,-8.5 23.5,-15 34.28,-7.33 18.72,-4.67 17.5,-6.5 48,-24.5 54,-24.5 24,-7 h 30.5 l 34,8.5 h 20.5 l 28.57,-5.7 24.93,-14.3 20.5,-5.5 17,3 13,6 42,26.5 33.5,16.5 38.41,8.45"
     id="path4879-9-5"
     style="fill:none;stroke:#8bb7e0;stroke-width:5;stroke-linecap:butt;stroke-linejoin:round;stroke-miterlimit:4;stroke-dasharray:none;stroke-opacity:1" />
  <path
     style="fill:none;stroke:#88ac95;stroke-width:5;stroke-linejoin:round;stroke-opacity:1"
     d="m 1680.23,9178.59 16.11,-28.01 3.15,-12.61 5.6,-44.47 8.75,-33.62 19.96,-36.77 21.71,-28.36 30.46,-30.46 29.76,-17.86 202.74,-90.69 29.76,-19.61 196.79,-138.66 196.79,-120.45 50.07,-25.56 30.11,-19.96 122.55,-100.84 30.11,-12.61 26.96,-5.25 25.91,4.55 211.49,50.42 31.51,4.55 24.51,0.7 150.57,-14.36 23.46,-8.4 14.01,-11.21 5.08,-9.1 6.47,-17.86 4.56,-29.59 0.88,-608.75 0.46,-523.14 -2.29,-71.66 -8.82,-74.11 -15.93,-102.98 -14.3,-70.12 -34.78,-100.61 -13.94,-59 -4.94,-68.34 4,-39.93 8.94,-41.12 21.64,-30.89 62.21,-66.68 27.85,-44.47 19.54,-58.15 11.36,-50.67 1.47,-70.57 10.65,-42.88 38.81,-98.93 11.51,-59.46 0.44,-46.91 -48.78,-269.87 -1.05,-47.98 18,-86.31 7.79,-57.38 32.91,-75.27 34.91,-79.36 37.23,-70.84 61.42,-97.07 128.9,-181.7 41.93,-49.88"
     id="path12" />
  <path
     d="m 3890.85,4193.1 11.92,34.68 0.54,25.43 -2.26,25.43 -6.87,34.18"
     id="path4716-3"
     style="fill:none;stroke:#88ac95;stroke-width:5;stroke-linecap:butt;stroke-linejoin:round;stroke-miterlimit:4;stroke-dasharray:none;stroke-opacity:1" />
  <path
     style="fill:none;stroke:#ee6e73;stroke-width:5;stroke-linejoin:round;stroke-opacity:1"
     d="m -823.82,6567.53 -18.32,-70.57 -1.49,-21.05 5.45,-16.34 9.9,-8.67 12.13,-5.2 13.37,0.5 90.37,30.7 5.94,5.7 17.83,17.08 14.86,6.68 15.6,1.49 17.33,-2.97 14.36,-6.19 11.14,-10.89 18.32,-29.46 12.63,-13.87 154.5,-153.01 26.99,-18.57 33.18,-19.56 31.2,-14.11 43.82,-12.88 49.27,-15.1 25.01,-11.88 54.47,-28.47 26,-8.42 249.58,-50.26 24.26,-9.16 60.17,-27.48 27.24,-8.67 193.87,-46.05 28.47,-10.65 21.29,-9.41 17.08,-11.14 28.47,-18.07 28.72,-24.51 22.53,-24.51 157.97,-194.36"
     id="path1" />
  <path
     style="fill:none;stroke:#5ac4bd;stroke-width:5;stroke-linejoin:round;stroke-opacity:1"
     d="m 492,2442 -75.25,-23.25 -67.25,-17.25 -79.75,-13.5 -48.5,-5.75 -45.25,-3.5 -112.75,0.75 -51.25,3 -106.75,15 -58.5,7.25 -86.75,7.75 -94.75,4 -59.5,-1.75 -58.75,-3 -116,-10.25 -237,-29 -46.25,-8.75 -83.75,-21.75 -109.5,-32.75 -142,-59 -44.5,-18.5 -65.25,-21.75 -97.75,-26 -68,-12.5 -111.75,-9.5 -44.75,-1.5 -73.5,3 -45,3.75 -52,5.75 -311,55.75 -88.25,22.5 -59.28,19.1 -36.07,14.36 -47.97,17.51 -86.49,36.42 -211.14,107.85 -631.33,326.7 -268.92,141.11 -263.67,133.76 -43.42,19.26 -39.57,14.71 -52.87,18.56 -163.52,45.17 -72.83,13.31 -59.53,7 -132.71,2.8 -95.24,1.05 -36.42,-0.35 -66.88,-8.05 -24.16,-3.15"
     id="path7" />
  <path
     id="path1121-6"
     d="m 3382.75,12766.25 -0.5,-9 -4.75,-13.62 -11.75,-10.88 -18,-8.25 -73.5,-6.75 -43.75,-4.25 -46,-9 -88.5,-32 -102.5,-14.5 -78.5,-1.5 -119,8 -307.5,49 -83,16.5 -31.5,2.5 -27,-3.5 -193,-38 -42.5,-5.5 -32.5,1 -38,6.5 -849.63,228.88 -24.75,5.3 h -156.27 l -44.87,4.88 -156.65,14.11 -250.76,-4.88 -106.22,11.14 -225.68,8.36 -59.9,-2.09 -107.27,1.04"
     style="fill:none;fill-rule:nonzero;stroke:#80c242;stroke-width:5;stroke-linecap:butt;stroke-linejoin:round;stroke-miterlimit:4;stroke-dasharray:none;stroke-opacity:1" />
  <path
     style="fill:none;stroke:#80c242;stroke-width:5;stroke-linejoin:round;stroke-opacity:1"
     d="m -1398.33,12742.61 538.2,5.25 23.46,3.85 43.07,14.71"
     id="path16" />
  <path
     style="fill:none;stroke:#80c242;stroke-width:5;stroke-linejoin:round;stroke-opacity:1"
     d="m 10261.2,12322.66 -24.76,11.14 -142.37,32.44"
     id="path17" />
  <path
     style="fill:none;stroke:#67cbdf;stroke-width:5;stroke-linecap:butt;stroke-linejoin:round;stroke-miterlimit:4;stroke-dasharray:none;stroke-opacity:1"
     id="path4288"
     d="m 2215.28,-4472.99 25.24,35.59 18.21,25.24 21.1,24 267.73,279.31 31.45,37.66 50.48,91.04 31.03,53.38 23.17,49.66 60.41,177.11 45.52,134.07 16.14,44.28 36,65.38 17.38,36.83 17.38,41.38 70.76,252.42 9.1,40.97 4.14,88.97 13.66,110.07 11.17,67.45 2.48,33.52 -1.66,26.48 -7.86,36.83 -193.51,607.61 -108,315 -11.5,41.5 -3.29,37.1 5,171 -3.5,27 -4.21,23.81 -36.59,77.05 -13.41,41.78 -3.29,42.86 2,34.5 12,44.5 19,35.5 63.5,92 33.5,52 19,47 11,47.5 8.5,171.5 5,58 5,23.5 11.5,45.5 17.5,49.5 51.5,97.5 75.5,111.5 21.5,34 30.5,71 35.5,96.5 12,40 5.5,118 2,80 7.5,122 5,51 34,112 28.5,84.5 63,107.5 71,114 54.5,90.5 62,103 32.65,43.37 66.85,68.13 70.03,71.86 29.47,34.14 28.5,51 51,104 12,35 38.5,86 13,23.5 10,31.5 0.31,32.28 -1.34,34.96 -5.59,39.31 -11.59,70.97 -2.69,42.21 -3.1,18.83 -3.65,14.79 -6.56,54.49 -15.29,25.91 -23.16,36.37 -22.1,23.66 -22.21,27.33 -18.54,37.03 -25.87,74.65 -6.01,41.73 0.38,40.62 -3,48 -8,29" />
  <path
     d="m 6612,3127 67.5,122 19.5,26 15.5,12 25.5,13.5 43.5,11.5 23,10.5 15.5,11.5 15,8 25.51,2.6 99.76,-7.13 18.32,-3.05 21.38,-10.18 19.68,-16.97 14.59,-15.27 23.07,-13.23 28.16,-3.73 285.7,7.46 31.56,7.46 37.66,8.82 24.43,4.07 35.63,0.68 41.06,-6.11 23.75,0.68 152.69,19 56.67,11.88 31.22,16.29 31.22,20.36 32.57,32.57 34.95,41.74 27.48,21.72 25.79,15.27 36.65,12.55 38,4.41 27.15,-0.68 39.02,-7.8 43.09,-14.93 29.52,-14.25 21.72,-11.88 20.7,-7.8 19.68,-3.73 16.29,0.34"
     id="path4595-7-9"
     style="fill:none;stroke:#8bb7e0;stroke-width:5;stroke-linecap:butt;stroke-linejoin:round;stroke-miterlimit:4;stroke-dasharray:none;stroke-opacity:1" />

  <path
     style="fill:none;stroke:#9194b8;stroke-width:5;stroke-linejoin:round;stroke-opacity:1"
     d="m 4175.82,2168.13 18.82,-10.58 9.7,-15.36 -2.9,-44.12 -5.46,-47.25 -8.13,-30.02 -2.94,-37.27 -0.61,-30.32 1.71,-39.39 3.87,-30.62 -4.84,-24.13 -26.88,-82.21 -5.54,-12.79 1.31,-14.01 10.33,-17.68 9.02,-21.97 3.06,-24.77 -0.55,-33.35 0.2,-26.09 4.64,-15.32 9.94,-16.81 38.82,-57.08 19.7,-39.39 5.95,-41.49 -2.45,-20.48 -6.65,-22.24 -21.07,-28.12 -22.04,-24.02 -19.81,-29.46 -18.82,-47.79 -5.69,-28.97 -0.41,-37.38 2.8,-30.11 4.9,-36.77 36.04,-126.75 152.03,-524.18 62.15,-212.2 11.64,-51.5 6.69,-43.83 6.44,-53.98 35.9,-391.96 31.94,-348.38 36.89,-400.13 5.94,-36.89 7.68,-33.18 12.88,-53.48 19.81,-53.98 25.5,-57.44 19.56,-40.36"
     id="path19" />

<path
     style="fill:none;stroke:#83d78e;stroke-width:5;stroke-linejoin:round"
     d="m 3443.84,2093.18 -12.67,-19.5 -11.41,-9.53 -21.88,-12.92 -16.05,-15.74 -29.21,-41.43 -62.34,-85.29 -29.91,-28.91 -26.27,-14.11 -17.75,-0.31 -32.73,7.02 -114.25,18.94 -37.5,7.96 -28.42,8.84 -53.29,21.57 -33.3,23.3 -49.83,30.07 -28.36,12.72 -52.86,19.88 -51.99,14.02 -38.05,11.57 -72.11,26.59 -32.04,4.14 -68.73,5.98 -37.61,-0.15 -52.98,-19.06 -45.15,-10.66 -20.63,-8.53 -58.97,-28.61 -42.3,-26.2 -117.01,-65.09 -110.48,-58.82 -32.1,-21.07 -58.44,-51.92 -56.31,-76 -15.76,-32.93 -33.39,-84.53 -24.92,-68.19 -36.64,-100.63 -14.54,-40.29 -20.28,-51.72 -25.52,-44.71 -33.48,-50.54 -13.46,-14.97 -45.41,-41.12 -59.38,-47.47 -39.89,-32.32 -47.67,-31.1 -141.2,-110.11 -53.17,-45.09 -76.88,-78 -54.55,-69.66 -50.79,-74.56 -38.12,-86.16 -17.81,-65.09 -10.03,-49.54 -2.01,-77 4.89,-45.65 14.92,-62.45 7.65,-76 -1.13,-30.47 -6.14,-29.47 -12.04,-30.6 -15.3,-29.09 -39.38,-53.3 -16.37,-20.16 -23.14,-25.49 -107.85,-132.56 -222.72,-278.78 -18.18,-31.98 -16.93,-35.49 -13.79,-45.4 -28.59,-154.25 -22.32,-109.36 -13.04,-40.63 -14.55,-31.1 -16.05,-28.09 -18.81,-25.83 -22.82,-23.08 -61.2,-59.95 -88.54,-84.78 -49.41,-37.37 -54.18,-34.86 -50.66,-25.33 -78.25,-30.35 -23.58,-8.03 -143.97,-51.92 -316.53,-129.67 -32.1,-17.56 -42.14,-26.08 -34.11,-24.08 -25.83,-21.07 -33.11,-30.1 -24.33,-15.3 -26.08,-10.79 -33.86,-9.53 -28.59,-7.52 -30.35,-13.54 -42.14,-22.57 -33.11,-23.58 -87.03,-82.27 -38.37,-32.61 -48.66,-34.86 -43.14,-31.1 -63.96,-67.72 -27.09,-39.63 -22.57,-43.89 -12.54,-30.6 -28.34,-79.26 -34.36,-61.2"
     id="path21" />
</svg>
