<?xml version="1.0" encoding="UTF-8" standalone="no"?>
<svg
   version="1.1"
   width="6450"
   height="5250"
   viewBox="-50 -1250 6450 5250"
   id="svg2"
   xml:space="preserve"
   xmlns:xlink="http://www.w3.org/1999/xlink"
   xmlns="http://www.w3.org/2000/svg"
   xmlns:svg="http://www.w3.org/2000/svg"
   xmlns:rdf="http://www.w3.org/1999/02/22-rdf-syntax-ns#"
   xmlns:cc="http://creativecommons.org/ns#"
   xmlns:dc="http://purl.org/dc/elements/1.1/"><metadata
     id="metadata8"><rdf:RDF><cc:Work
         rdf:about=""><dc:format>image/svg+xml</dc:format><dc:type
           rdf:resource="http://purl.org/dc/dcmitype/StillImage" /></cc:Work></rdf:RDF></metadata><defs
     id="defs6" /><image
     xlink:href="../basemap/denosm.png"
     id="image10"
     height="5446.88"
     width="6484.38"
     y="-1328.12"
     x="25"
     style="display:none" /><path
     style="display:inline;fill:none;stroke:#692976;stroke-width:5;stroke-linecap:butt;stroke-linejoin:round;stroke-miterlimit:4;stroke-dasharray:none;stroke-opacity:1"
     d="m 3985.72,3485.38 -4.6,-76.47 -13.12,-36.91 v -39 l -2,-30 -11.46,-32.44 -1.54,-65.56 -11.75,-41.86 0.75,-55.14 -26.45,-109.43 -7.28,-16.31 -17.24,-25.85 -3.08,-9.38 -9.75,-40.77 -64.09,-145.88 -21.08,-32.99 -13.69,-46.03 -63.35,-138.36 -19.03,-30.86 -14.82,-46.21 -69.15,-153.93 -18.5,-32.07 -12.5,-32.93 -62.82,-142.57 -93.61,-218.95 -20.96,-39.27 -7.95,-19.65 -7.71,-33.26 -41.94,-124.68 -13.84,-26.48 -16.4,-21.33 -16,-39.26 -41.63,-78.46 -40.23,-61.44 -9.53,-6.59 -52.31,-10.59 -6.46,-4.45 -25.04,-37.31 -11.18,-10.47 -44.97,-14.33 -28.1,-4.02 -57.34,-0.38 -42.78,8.25 -19.15,0.03 -14.6,-2.47 -37.94,-12.69 -125.36,-77 -12.69,-9.69 -127.08,-145.47 -5.65,-2.28 -5.8,-0.12 -17.1,7.28 -7,-0.04 -10.8,-7.77 -7.93,-71.31 -14.52,-35.82 -16.67,-23.53 -0.01,-0.01 -0.32,-0.51 -21,-39 -0.2,-0.4 v -0.01 l -51.93,-121.85 -47.93,-94.85 -0.39,-1.03 -26,-103 v -0.01 l -0.14,-0.94 v -0.03 l -4.46,-91.59 -9.44,-24.85 1.26,-6.1 2.17,-2.76 7.86,-1.85 60.13,1.41 8.21,-3.65 19.88,-15.03 4.14,-6.91 5.42,-13.81 14.74,-12.52 16,-3.12"
     id="path864" /><path
     style="display:inline;fill:none;stroke:#005ca7;stroke-width:5;stroke-linecap:butt;stroke-linejoin:round;stroke-miterlimit:4;stroke-dasharray:none;stroke-opacity:1"
     d="m 2498.6,448.09 -12.55,2.17 -11.29,9.17 -4.5,11.71 -5.52,9.63 -21.45,16.56 -13.06,6.03 -58.99,-1.74 -4.24,0.52 1.76,3.85 7.32,18.51 v 0 l 0.41,1.75 4.48,91.99 25.74,101.98 47.74,94.49 0.01,0.02 0.12,0.26 0.02,0.03 51.91,121.79 20.75,38.53 16.82,23.75 v 0 l 0.55,1.01 v 0 l 15,37 0.33,1.33 v 0 l 8.13,74.28 1.99,1.67 5.54,0.15 16.13,-7.28 7.76,-0.15 7.84,3.36 126.83,145.26 13.05,10.04 123.98,76.33 37.09,12.34 13.99,2.39 18.31,0.15 43.65,-8.44 58.08,0.57 28.86,4.24 46,14.86 11.74,11.12 24.58,36.87 5.97,3.83 52.43,10.77 10.37,7.22 41.51,63.17 41.41,78.28 15.75,38.7 16.18,20.88 14.59,28.1 41.94,124.76 8,33.93 8.18,19.84 19.85,36.86 92.63,217.43 5.33,9.74 8.51,6.17 19.34,3.13 94,-8.5 46.5,-4.5 29.5,-12 175,-111 30,-20 24,-9.5 34.5,-9 31,-17.5 145.5,-113 80,-32 36,-21"
     id="path876" /><path
     style="fill:none;stroke:#037940;stroke-width:5;stroke-linecap:butt;stroke-linejoin:round;stroke-miterlimit:4;stroke-dasharray:none;stroke-opacity:1"
     d="m 2497.78,443.34 -14.26,2.55 -12.93,10.62 -5.26,13.39 -4.68,7.87 -21.63,16.5 -9.55,4.11 -61.57,-1.51 -4.84,1.41 -1.15,3.46 9.59,24.77 v 0 l 4.49,92.25 0.07,0.49 25.87,102.49 0.19,0.52 47.88,94.75 0.01,0.02 v 0.01 0.01 l 51.94,121.86 0.1,0.21 20.87,38.77 0.16,0.26 16.91,23.87 v 0 0 l 15,37 v 0 l 8,72 10.01,76.99 1.5,28.5 -2,38.5 -25.5,121 -62.15,306.48 -99.85,317.52 -31.66,149.57 -12.64,37.24 -14.7,82.19 -28,130 -13,38 -33.05,69.99 -38.28,90.24 -12.67,93.77 -29.72,200 -24.38,74.14"
     id="path3757" /><path
     style="fill:none;stroke:#005ca7;stroke-width:1;stroke-linecap:butt;stroke-linejoin:round;stroke-miterlimit:4;stroke-dasharray:none;stroke-opacity:1"
     d="m 2499.2,442.79 2.47,-1.29 7.86,7.92 4.38,-0.48 64.44,-64.59 -0.69,-4.85 -6.18,-5.66 -5.36,0.15 -66.31,66.76 -2.26,7.51"
     id="path898" /><path
     style="fill:none;stroke:#037940;stroke-width:1;stroke-linecap:butt;stroke-linejoin:round;stroke-miterlimit:4;stroke-dasharray:none;stroke-opacity:1"
     d="m 2496.07,441.67 6.32,-0.83 7.46,7.61 3.64,-0.48 64.16,-64.31 4.68,-0.61 5.47,5.46 6.21,-0.5 52.5,-53.5 37.5,-35 74.5,-76 0.5,-17"
     id="path882" /><path
     style="fill:none;stroke:#037940;stroke-width:1px;stroke-linecap:butt;stroke-linejoin:round;stroke-opacity:1"
     d="m 2582.32,383.04 -4.73,-4.91 -5.61,-5.2 -6.25,0.08 -66.18,66.81 -1.45,1.58"
     id="path886" /><text
     x="39.45"
     y="-1043.04"
     id="text2990"
     xml:space="preserve"
     style="font-style:normal;font-weight:normal;font-size:144px;line-height:125%;font-family:Sans;-inkscape-font-specification:Sans;letter-spacing:0px;word-spacing:0px;fill:#000000;fill-opacity:1;stroke:none"><tspan
       x="39.45"
       y="-1043.04"
       id="tspan1">2010</tspan></text><text
     x="-2298.55"
     y="3897.96"
     id="text2819-1"
     xml:space="preserve"
     style="font-style:normal;font-weight:normal;font-size:144px;font-family:Sans;-inkscape-font-specification:Sans;fill:#000000;fill-opacity:1;stroke:none"><tspan
       x="39.45"
       y="3897.96"
       id="tspan2"></tspan></text><path
     id="path864-7"
     d="m 2401.83,287.45 -4.13,0.21 -12.02,22.58 -17.18,17.71 -14.04,21.29 -5.55,9.12 -7.43,6.35 -39.18,22.1 -10.38,7.78 -7.42,8.95 -5.99,13.33 -1.61,11.9 0.36,11 3.49,7.78 2.68,1.88 16.28,0.89 5.28,2.15 3.76,3.85 12.72,28.79 6.67,6.58 6.8,2.68 11.55,0.51 5.66,8.79 10,24.62 4.05,92.48 26.46,104.4 47.55,94.27 52.79,123.7 20.97,39.33 17.16,23.83 14.54,35.99 5.9,56.07"
     style="fill:none;stroke:#f79239;stroke-width:5;stroke-linecap:butt;stroke-linejoin:round;stroke-miterlimit:4;stroke-dasharray:none;stroke-opacity:1" /><path
     style="fill:none;fill-rule:evenodd;stroke:#f79239;stroke-width:1px;stroke-linecap:butt;stroke-linejoin:round;stroke-opacity:1"
     d="m 2401.83,287.45 3.34,0.72 9.77,9.77 4.53,-0.48 5.24,-5.01"
     id="path4145" /><path
     id="path1601"
     d="m 2496.48,440.61 6.04,-0.87 7.73,7.66 2.49,-0.12 64.26,-64.39 -0.29,-3 -5.66,-5.05 -4.5,0.17 -63.06,63.5 -2.01,1.49"
     style="fill:none;fill-opacity:1;fill-rule:nonzero;stroke:#692976;stroke-width:1;stroke-linecap:butt;stroke-linejoin:round;stroke-miterlimit:4;stroke-dasharray:none;stroke-opacity:1" /></svg>
