<?xml version="1.0" encoding="UTF-8" standalone="no"?>
<svg
   xmlns:dc="http://purl.org/dc/elements/1.1/"
   xmlns:cc="http://creativecommons.org/ns#"
   xmlns:rdf="http://www.w3.org/1999/02/22-rdf-syntax-ns#"
   xmlns:svg="http://www.w3.org/2000/svg"
   xmlns="http://www.w3.org/2000/svg"
   xmlns:xlink="http://www.w3.org/1999/xlink"
   version="1.1"
   width="9300"
   height="11950"
   id="svg2"
   viewBox="-100 0 9300 11950">
  <metadata
     id="metadata8">
    <rdf:RDF>
      <cc:Work
         rdf:about="">
        <dc:format>image/svg+xml</dc:format>
        <dc:type
           rdf:resource="http://purl.org/dc/dcmitype/StillImage" />
        <dc:title></dc:title>
      </cc:Work>
    </rdf:RDF>
  </metadata>
  <defs
     id="defs6" />
  <image
     xlink:href="basemap/railosm.png"
     style="display:none"
     y="-204.69"
     x="-364.31"
     id="image4234"
     preserveAspectRatio="none"
     height="12304.69"
     width="9570.31" />
  <image
     xlink:href="basemap/caosm.png"
     style="display:none"
     y="-204.69"
     x="-364.31"
     id="image4235"
     preserveAspectRatio="none"
     height="12304.69"
     width="9570.31" />
  <path
     d="m 716.23,1548.27 10.85,12.57 4.15,3.14 17.57,-0.13 9.09,0.26 3.2,0.64 3.2,1.78 2.69,2.31 17.15,28.04 17.79,27.14 1.66,3.45 3.54,13.55 3.61,14.26 4.06,11.47 2.09,5.19 1.01,1.34 0.82,1.01 2.72,1.71 1.52,0.89 3.1,1.58 2.03,0.89 1.14,0.26 9.63,-1.58 4.63,-0.77 1.71,1.01 0.95,0.76 0.63,1.72 2.09,20.34 -0.06,3.74 -3.8,12.92 -2.6,7.93 -0.06,2.08 0.06,2.22 2.34,14.07 0.7,3.35 2.91,4.56 1.14,1.84 0.82,2.92 -4.12,21.11 -0.96,4.6 -1.15,4.68 -1.15,5.5 0.06,2.24 0.7,2.04 0.58,0.96 2.75,4.29 0.38,0.96 0,1.15 -0.51,1.14 -8.51,17.22 -0.51,0.96 -1.28,1.15 -1.54,0.77 -1.47,0.13 -1.66,-0.19 -2.56,-1.54 -3.52,-2.1 -3.71,-1.99 -3.52,-1.22 -5.31,-1.35 -5.95,-2.82 -3.84,-2.04 -3.58,-1.6 -6.59,-2.05 -6.27,-1.41 -6.34,-0.77 -8.32,-1.09 -5.89,-0.5 -8.83,-0.7 -5.89,-0.32 -7.49,0.38 -5.82,0.58 -19.33,3.96 -23.81,4.67 -10.24,2.11 -4.8,1.54 -4.67,2.11 -23.81,13.56 -1.48,1.09 -3.9,3.91 -11.39,11.45 -23.3,23.11 -0.83,1.91 -0.32,2.95 0.13,3.85 0.83,11.26 1.98,25.8 0.38,5.83 -0.45,1.72 -6.14,11.78 -4.54,4.04 -5.95,5.82 -4.93,4.8 -2.43,2.37 -3.9,3.01 -3.84,2.94 -4.03,2.18 -3.2,1.99 -2.24,1.99 -1.73,2.49 -1.28,2.69 -1.09,4.48 -0.45,4.29 -0.58,4.99 -0.9,2.24 -1.54,2.37 -6.85,7.04 -1.92,1.28 -2.56,1.09 -7.62,0.13 -3.39,-0.11 -1.79,0.45 -1.47,1.09 -1.66,2.1 -3.66,5.69"
     id="path3610"
     style="fill:none;stroke:#009ada;stroke-width:5;stroke-linecap:butt;stroke-linejoin:round;stroke-miterlimit:4;stroke-dasharray:none;stroke-opacity:1" />
  <path
     d="m 839.82,1819.94 0.19,1.54 0.77,1.08 10.56,5.32 3.26,2.05 3.39,2.68 3.07,3.27 2.69,2.44 2.69,1.78 5.05,2.22 1.39,0.49 5.91,3.23 10.89,6.37 3.54,2.64 5.87,4.39 1.43,1.44 6.62,5.6 7.42,4.49 5.63,4.6 7.17,4.36 3.07,2.82 7.04,8.06 20.1,22.28 33.28,35.59 18.18,19.07 1.79,2.69 5.89,7.45 3.82,4.59 4.37,6.14 20.48,17.92 24.45,20.86 27.27,23.95 29.19,25.6 7.17,6.01 3.46,3.72 13.95,23.04 26.88,42.5 2.94,5.63 3.33,7.68 3.58,8.45 2.18,3.46 3.71,4.48 8.32,9.09 10.11,11.65 8.58,11.65 7.68,9.09 3.46,5.24 8.32,8.06 24.96,24.19 15.49,14.85 1.66,2.69 6.4,9.22 4.48,4.86 4.35,4.23 4.61,3.72"
     id="path2863"
     style="fill:none;stroke:#009ada;stroke-width:5;stroke-linecap:butt;stroke-linejoin:round;stroke-miterlimit:4;stroke-dasharray:none;stroke-opacity:1" />
  <path
     d="m 840.91,1822.56 -1.47,0.13 -1.47,0.77"
     id="path3637"
     style="fill:none;stroke:#009ada;stroke-width:5;stroke-linecap:butt;stroke-linejoin:round;stroke-miterlimit:4;stroke-dasharray:none;stroke-opacity:1" />
  <path
     d="m 850.28,1756.66 0.76,-4.05 0.63,-4.12 0.57,-2.16 1.08,-1.58 1.46,-1.52 2.03,-1.27 9.38,-3.87 8.36,-3.98 6.34,-3.24 6.34,-4.5 6.08,-4.43 2.66,-1.59 2.6,-1.58 2.09,-1.4 19.43,-11.94 5.25,-4.35 3.71,-2.95 2.56,-2.44 20.99,-11.51 6.27,-1.92 6.53,-2.31 5.76,-3.45 2.69,-2.05 4.86,-5.64 3.58,-6.91 3.07,-5.12 3.33,-6.78 3.2,-3.72 4.61,-3.08 4.86,-2.42 5.76,-1.03 5.76,-0.26 7.68,1.41 13.57,2.42 3.2,-0.26 5.89,-0.38 4.86,0.9 4.1,0.51 3.84,-0.26 14.98,-4.6 12.16,-3.2 19.59,-3.96 9.86,-1.79 9.6,-0.38 10.63,-0.13 7.42,1.03 2.94,0 3.07,-0.38 3.07,-1.28 3.07,-2.05 2.18,-2.55 1.92,-2.95 6.02,-13.44 2.05,-6.02 0.77,-5.63 1.15,-5 1.66,-4.35 3.46,-10.76 1.28,-2.42 3.97,-4.1 4.22,-4.1 2.69,-2.17 38.15,-24.71 1.92,-2.18 1.41,-3.33 0.38,-2.55 -0.51,-3.46 -2.05,-7.17 -7.3,-22.02 -0.38,-4.86 0.51,-2.69 1.66,-5.89 2.3,-6.27"
     id="path3057"
     style="fill:none;stroke:#009ada;stroke-width:5;stroke-linecap:butt;stroke-linejoin:round;stroke-miterlimit:4;stroke-dasharray:none;stroke-opacity:1" />
  <path
     d="m 648.26,1869.59 -6.41,6.41 0.53,2.67 8.01,9.08 4.27,12.28 -4.27,33.11 -3.74,49.13 -6.94,14.95 v 37.38 l 6.94,13.89 11.22,16.56 -1.07,5.87 -28.31,39.52 -6.41,17.09 v 15.74 l 7.48,21.35 15.21,27.69 19.54,22.82 10.11,11.74 61.95,32.04 16.56,10.15 26.17,30.98 11.22,20.29 6.94,13.89 29.37,28.84 19.23,17.62 22.96,26.7 24.57,23.5 37.92,31.51 95.6,74.77 72.1,56.61 51.8,26.7 77.97,33.65 29.37,10.68 42.19,0.53 38.45,20.83 16.69,9.08 46.33,31.04 10.67,8.53 2.1,14.97"
     id="path2987"
     style="fill:none;stroke:#ff0000;stroke-width:5;stroke-linecap:butt;stroke-linejoin:round;stroke-miterlimit:4;stroke-dasharray:none;stroke-opacity:1" />
  <path
     d="m 1049.25,1388.71 -4.18,1.83 -13.35,-3.2 -29.37,-16.56 -11.22,-10.68 -1.07,-12.82 -19.23,-21.36 -33.11,-6.41 -10.15,-3.74 -17.62,2.67 -22.43,-4.81 -13.35,13.35 -17.09,1.6 -3.2,18.16 -15.49,9.61 -4.81,15.49 -11.75,14.42 -9.08,3.2 -11.22,18.69 -15.49,1.07 -14.95,-2.14 -18.16,16.56 -13.35,4.27 -14.42,-3.74 -8.54,2.67 -6.94,9.08 -4.81,71.56 0,26.7 6.41,16.02 19.76,21.36 20.83,20.29 27.24,40.59 11.75,36.85 19.23,77.44 0.53,12.82 -0.53,12.28 -4.81,11.75 -6.13,6.78"
     id="path3159"
     style="fill:none;stroke:#007397;stroke-width:5;stroke-linecap:butt;stroke-linejoin:round;stroke-miterlimit:4;stroke-dasharray:none;stroke-opacity:1" />
  <path
     d="m 7133.86,9006.2 -9.61,-0.53 -6.41,13.35"
     id="path5983"
     style="fill:none;stroke:#007397;stroke-width:5;stroke-linecap:butt;stroke-linejoin:round;stroke-miterlimit:4;stroke-dasharray:none;stroke-opacity:1" />
  <path
     d="m 7133.32,9005.14 1.07,15.49 -7.48,13.89 8.01,50.74 4.27,5.34 104.14,42.19 72.63,29.37 19.23,17.62 30.44,11.22 25.1,28.84 0.53,53.41 11.75,14.95 95.06,65.69 75.3,16.56 42.72,3.2 4.81,6.41 3.74,24.03 20.29,73.17 59.81,27.77 2.67,6.94 4.81,93.46 6.94,8.54 118.03,97.2 105.21,89.19 35.25,40.59 12.28,21.36 2.67,23.5 1.6,64.62 -2.67,48.6 14.95,53.94 3.2,19.23 -9.08,14.95 -12.28,13.88 -5.34,17.09 1.6,12.28 25.1,16.55 47,34.71 39.52,49.13 18.69,33.65 9.61,8.01 29.37,13.35 53.94,34.71 83.85,74.23 31.51,39.52 29.91,41.66 13.89,11.75 32.04,51.27 35.25,37.92 5.34,36.85 43.79,63.02 33.11,41.12 18.69,43.79 25.1,64.09 14.42,52.34 11.75,19.76 1.6,26.17 24.03,47.53 16.56,75.3 -4.27,19.76 12.28,39.52 30.44,31.51 46.46,55.54 25.63,1.07 2.67,4.27 10.68,2.67 15.49,2.67 2.67,11.75 -5.34,11.75 -26.7,16.56 -21.36,-0.53 -38.45,20.29 -2.67,16.56 6.94,18.69 -1.07,12.82 26.7,33.11 10.15,30.98 -2.67,31.51 8.01,21.36 2.67,12.28 15.49,17.09 19.23,13.88 10.15,12.28 5.87,16.55 0,10.15"
     id="path5985"
     style="fill:none;stroke:#007397;stroke-width:5;stroke-linecap:butt;stroke-linejoin:round;stroke-miterlimit:4;stroke-dasharray:none;stroke-opacity:1" />
  <text
     id="text4994-7-3"
     y="11847.96"
     x="-10.55"
     style="font-style:normal;font-weight:normal;font-size:144px;line-height:125%;font-family:Sans;-inkscape-font-specification:Sans;letter-spacing:0px;word-spacing:0px;fill:#000000;fill-opacity:1;stroke:none;stroke-width:2px;stroke-linecap:butt;stroke-linejoin:round;stroke-opacity:1"
     xml:space="preserve"><tspan
       y="11847.96"
       x="-10.55"
       id="tspan4996-9-6">1985</tspan></text>
  <text
     id="text4994-7-3-7"
     y="206.96"
     x="-10.55"
     style="font-style:normal;font-weight:normal;font-size:144px;line-height:125%;font-family:Sans;-inkscape-font-specification:Sans;letter-spacing:0px;word-spacing:0px;fill:#000000;fill-opacity:1;stroke:none;stroke-width:2px;stroke-linecap:butt;stroke-linejoin:round;stroke-opacity:1"
     xml:space="preserve"><tspan
       y="206.96"
       x="-10.55"
       id="tspan4996-9-6-5">1985</tspan></text>
  <path
     style="fill:none;stroke:#aa0000;stroke-width:5;stroke-linecap:butt;stroke-linejoin:round;stroke-miterlimit:4;stroke-dasharray:none;stroke-opacity:1"
     id="path2987-46"
     d="m 8996.41,11830.86 -1.2,-2.29 -2.77,-3.97 -2.41,-2.66 -13.38,-10.84 -43.02,-29.76 -18.8,-14.71 -2.53,-3.25 -1.09,-5.06 0.36,-26.38 -0.72,-6.02 -5.54,-16.99 -18.8,-56.75 -0.96,-4.34 -0.84,-8.32 -1.69,-6.14 -1.69,-3.86 -3.37,-3.74 -11.21,-33.86 -2.77,-8.56 -2.53,-2.88 -25.3,-20.97 -2.89,-1.09 -6.51,-1.44 -2.65,-2.17 -19.28,-15.79 -0.96,-1.69 -0.12,-4.04 -0.08,-19.65 -20.74,-0.16" />
</svg>
