<?xml version="1.0" encoding="UTF-8" standalone="no"?>
<!-- Created with Inkscape (http://www.inkscape.org/) -->

<svg
   version="1.1"
   width="7900"
   height="6850"
   viewBox="-75, -350, 7900, 6850"
   id="svg2"
   xmlns:xlink="http://www.w3.org/1999/xlink"
   xmlns="http://www.w3.org/2000/svg"
   xmlns:svg="http://www.w3.org/2000/svg"
   xmlns:rdf="http://www.w3.org/1999/02/22-rdf-syntax-ns#"
   xmlns:cc="http://creativecommons.org/ns#"
   xmlns:dc="http://purl.org/dc/elements/1.1/">
  <metadata
     id="metadata8">
    <rdf:RDF>
      <cc:Work
         rdf:about="">
        <dc:format>image/svg+xml</dc:format>
        <dc:type
           rdf:resource="http://purl.org/dc/dcmitype/StillImage" />
      </cc:Work>
    </rdf:RDF>
  </metadata>
  <defs
     id="defs6" />
  <image
     xlink:href="../basemap/laxosm.png"
     style="display:none"
     id="image10"
     height="7830.67"
     width="11746"
     y="-1347.67"
     x="-1446.67" />
  <text
     x="89.45"
     y="6330.29"
     id="text2996"
     xml:space="preserve"
     style="font-style:normal;font-weight:normal;font-size:144px;line-height:125%;font-family:Sans;-inkscape-font-specification:Sans;letter-spacing:0px;word-spacing:0px;fill:#000000;fill-opacity:1;stroke:none"><tspan
       x="14.45"
       y="6397.96"
       id="tspan2"></tspan></text>
  <text
     x="89.45"
     y="206.96"
     id="text2996-6"
     xml:space="preserve"
     style="font-style:normal;font-weight:normal;font-size:144px;line-height:125%;font-family:Sans;-inkscape-font-specification:Sans;letter-spacing:0px;word-spacing:0px;fill:#000000;fill-opacity:1;stroke:none"><tspan
       x="14.45"
       y="-143.04"
       id="tspan1">1980</tspan></text>
  <path
     style="fill:none;stroke:#aeb8be;stroke-width:5;stroke-linecap:butt;stroke-linejoin:round;stroke-miterlimit:4;stroke-dasharray:none;stroke-opacity:1"
     d="m 4274.46,1827.51 24.71,-15.39 145.38,-90.79 17.29,-3.78 37.83,1.08 519.9,-6.49 525.85,-8.65 186.39,-1.46 -0.04,6.9 -0.1,14.4"
     id="path1" />
  <path
     style="fill:none;stroke:#aeb8be;stroke-width:5;stroke-linecap:butt;stroke-linejoin:round;stroke-miterlimit:4;stroke-dasharray:none;stroke-opacity:1"
     d="m 3417.25,2001.2 13.42,2.22 h 15.67 l 11.89,-5.4 12.97,-17.83 13.51,-8.65 35.67,-9.73 20.54,-7.57 22.7,-4.32 22.16,1.08 22.16,8.65 31.89,18.38 23.78,8.11 18.92,-1.62 22.7,-9.73 27.02,-10.27 27.02,-4.32 41.61,-2.7 128.08,1.62 21.62,-5.4 157.27,-85.39 27.56,-13.51 24.86,-2.16 59.99,2.7 21.62,-7.57 32.58,-20.28"
     id="path2987" />
  <path
     d="m 3417.25,2001.2 -138.75,-21.37 -12.62,-3.45 -33.38,-26.05 h -6 l -38.17,49.98 -1.26,1.51 -3.7,0.46 -36.97,-28.35 -3.5,0.12 -62.61,80.69 -4.6,0.14 -8.66,-7.06 -3.74,0.47 -22.64,30 -3.97,0.58 -13.42,-10.62 -11.41,-8.95 -43.92,-34.47 -107.58,-57.12"
     id="path3757"
     style="fill:none;stroke:#aeb8be;stroke-width:1px;stroke-linecap:butt;stroke-linejoin:round;stroke-opacity:1" />
  <path
     style="fill:none;stroke:#aeb8be;stroke-linejoin:round;stroke-opacity:1"
     d="m 3220.37,1958.36 3.81,-0.13 42.25,31.63 7.7,3.85 42.84,7.94 5.72,-4.79 22.18,0.23 43.19,7.12 21.13,6.65 3.15,-0.82 1.63,-6.07 3.29,-2.79"
     id="path2" />
  <path
     style="fill:none;stroke:#aeb8be;stroke-width:1;stroke-linejoin:round;stroke-dasharray:none;stroke-opacity:1"
     d="m 3023.26,2068.24 3.93,-1.12 5.54,-7.28 3.89,-0.21 22.58,17.61 3.83,-0.25 17.26,-22.24"
     id="path3" />
  <path
     style="fill:none;stroke:#aeb8be;stroke-linejoin:round"
     d="m 2920.31,2274.37 21.48,-30.58 4.67,-15.87 99.45,-128.86 17.13,-22.08"
     id="path4" />
  <path
     style="fill:none;stroke:#aeb8be;stroke-linejoin:round"
     d="m 5731.67,1723.33 1.87,1.87 23.58,-0.47 2.33,2.1 -0.12,37.7 2.57,3.03 33.09,5.14 19.55,-3.5 51.82,4.2 110.74,-2.59 26.08,0.33 18.82,4.29 30.04,15.52 32.68,16.84 26.74,8.58 54.47,14.53 15.85,3.3 24.1,-2.31 118.19,-19.15 195.44,-32.35 192.47,-30.04 112.25,-17.5 167.57,-20.41 21.6,1.43 6.6,7.1 4.62,2.64 5.78,-1.32 1.82,-2.81 3.96,-0.66 45.23,39.29 7.76,4.13 36.98,-1.65 54.64,2.48 17.66,1.16 23.77,10.23 3.8,-2.48 2.48,-27.4 1.49,-21.46 3.96,-3.47 16.35,-8.42 16.86,-4.33 180.23,2.02 215.58,2.81 40.44,5.12 5.78,6.6 -0.33,3.96 -2.48,3.47 -5.94,1.16 -5.78,-5.45 v -63.39 l 3.63,-3.14 105.48,0.5 4.46,3.63 -0.66,58.27 2.48,2.97 9.82,0.33 3.36,-5.46 5.02,-4.55 26.38,-2.92 97.35,2.45 26.85,3.03 28.95,10.97 38.75,23.81 23.81,12.37 14.71,4.67 23.81,1.63 47.16,-5.14 28.95,-0.7 52.29,2.8 19.61,-1.4 56.26,-9.8 25.91,2.57 29.65,9.1 53.23,19.61 24.28,12.37 30.58,20.08 21.01,8.4 20.54,4.67 71.9,5.14 50.42,-0.47 61.16,-5.14 50.19,-10.51 39.22,-11.44 21.48,-3.74 20.78,1.63 32.92,7.94 53.46,22.41 25.45,16.57 5.37,8.87 0.23,6.3 2.8,3.03 15.64,-0.7 7,3.97 32.45,27.08 38.05,47.86 31.3,39.35 5.86,2.72 101.44,-15.43 623.83,-18.93 2.57,-2.57 -3.5,-97.81 3.03,-9.57 2.8,-2.8 55.15,-0.86 2.31,-2.31 -0.33,-36.81 2.31,-1.98 20.96,-0.17 2.97,2.81 -7.26,27.9 v 7.26 l -2.31,2.81 -18.65,0.5"
     id="path5" />
  <path
     style="fill:none;stroke:#aeb8be;stroke-linejoin:round"
     d="m 6991.81,1712.44 9.33,-8.49 4.9,-6.07 4.32,-1.28 25.83,22.22"
     id="path6" />
  <path
     style="fill:none;stroke:#aeb8be;stroke-linejoin:round"
     d="m 5814.54,1769.2 -52.41,-13.77 -2.77,-1.87"
     id="path7" />
  <path
     style="fill:none;stroke:#aeb8be;stroke-linejoin:round"
     d="m 7229.98,1723.11 0.16,-16.82 1.52,-13.54 3.15,-2.45 5.25,0.47 7.35,8.64 19.73,7.49"
     id="path8" />
  <path
     style="fill:none;stroke:#aeb8be;stroke-linejoin:round"
     d="m 9008.74,1905.3 -6.58,-18.44 -0.66,-11.39 -3.3,-2.48 -6.93,0.5 -4.62,-2.97 -34.17,-20.47 -32.67,-9.88"
     id="path9" />
  <path
     style="fill:none;stroke:#aeb8be;stroke-linejoin:round"
     d="m 8866.34,1817.75 -41.3,-25.15 -14.69,-4.62 -9.41,-0.83 -10.73,4.13 -29.88,17.17 -25.42,11.22 -37.31,6.93 -82.22,12.63"
     id="path10" />
  <path
     style="fill:none;stroke:#aeb8be;stroke-linejoin:round"
     d="m 7854.6,1712.82 -22.99,-4.09 -3.03,-1.98 -1.63,-3.44 -1.94,-1.34 -14.11,-0.17 -3.08,-2.1"
     id="path11" />
  <path
     style="fill:none;stroke:#aeb8be;stroke-linejoin:round"
     d="m 7694.65,1694.88 -4.39,7.32 -5.31,3.97 -20.92,5.68"
     id="path12" />
</svg>
