<?xml version="1.0" encoding="UTF-8" standalone="no"?>
<svg
   xmlns:dc="http://purl.org/dc/elements/1.1/"
   xmlns:cc="http://creativecommons.org/ns#"
   xmlns:rdf="http://www.w3.org/1999/02/22-rdf-syntax-ns#"
   xmlns:svg="http://www.w3.org/2000/svg"
   xmlns="http://www.w3.org/2000/svg"
   xmlns:xlink="http://www.w3.org/1999/xlink"
   version="1.1"
   id="svg2"
   width="8250"
   height="5700"
   viewBox="0 -990 8250 5700">
  <metadata
     id="metadata8">
    <rdf:RDF>
      <cc:Work
         rdf:about="">
        <dc:format>image/svg+xml</dc:format>
        <dc:type
           rdf:resource="http://purl.org/dc/dcmitype/StillImage" />
        <dc:title></dc:title>
      </cc:Work>
    </rdf:RDF>
  </metadata>
  <defs
     id="defs6" />
  <image
     xlink:href="../basemap/tsnosm.png"
     y="-1073.85"
     x="-236.78"
     id="image10"
     preserveAspectRatio="none"
     height="6020.97"
     width="8638.78"
     style="display:none" />
  <path
     style="fill:none;fill-rule:evenodd;stroke:#019fca;stroke-width:5;stroke-linecap:butt;stroke-linejoin:round;stroke-miterlimit:4;stroke-dasharray:none;stroke-opacity:1"
     d="m 113.92,2952.69 7.08,-83.19 5,-17 11,-12 109.5,-114.5 14.5,-7 24.5,-2.5 h 290 l 54,-10 104,1.5 17.5,-4 16,-11.5 10.5,-12.5 6.5,-15 2.5,-18.5 1.5,-63 9,-16 10,-14.5 16,-17.5 142.28,-94.26 70.69,-40.47 22.37,-5.13 272.09,0.52 21.66,-7.53 19.91,-13.13 20.5,-15.5 18,-5.5 38.97,-5.71 100.1,-4.08 21.21,-3.32 7,-4.96 6.65,-6.78 5.07,-10.6 -0,-57.05 0.34,-134.23 3.15,-10.1 6.73,-9.44 127.54,-111.12 27.97,-40.54 63.55,-98 25.42,-49.31 20.1,-63.76 22.82,-57.46 17.47,-46.66 -1.25,-23.36 -3.05,-17.19 -65.95,-135.06 -3.89,-21.64 9.17,-40.52 0.29,-12.61 -21.08,-71.82 -2.25,-17.48 4.12,-13.42 5.02,-9.36 20.98,-17.48 8.6,-8.83 3.67,-14.15 -7.9,-53.05 -7.89,-140.75 2.33,-27.36 59.26,-113.01 22.37,-15.82 51.33,-42.94 6.1,-12.82 0.39,-19.74 -6.03,-19.97 -48.92,-156.45 3.44,-18.63 29.56,-42.67 56.97,-39.28 12,-17.5 91.5,-324.5 11.5,-15.5 19,-13.5 13,-1.5 184,-18.5 37.5,10 15,1 47,-13.5"
     id="path4506" />
  <path
     style="fill:none;fill-rule:evenodd;stroke:#eee11d;stroke-width:5;stroke-linecap:butt;stroke-linejoin:round;stroke-miterlimit:4;stroke-dasharray:none;stroke-opacity:1"
     d="m 452,1587 231,-12 27,3.5 30.5,13 66.5,47 60,58.5 18,9 15.5,1 464,1.5 279,9 71.5,-0.5 67.5,-38.5 h 18.5 l 42.5,6.5 55,21 75.4,26.25 15.46,-0.07 33.64,-13.18 142,-74 34,-16 31.5,-2.5 54.5,-2 42.5,-6 36,-7 88.5,-8.5 24,0.5 142,-39 90,-9 44.5,-15.5 55,-0.5 166.5,-61 197.5,-64 112,-9 50.5,-7.5 91.5,-0.5 20,6 15,13.5 10.5,18.5 172.06,334.81 8.49,11.88 14.21,3.51 18.84,-9.24"
     id="path4533" />
  <path
     style="fill:none;fill-rule:evenodd;stroke:#ca0e1a;stroke-width:5;stroke-linecap:butt;stroke-linejoin:round;stroke-miterlimit:4;stroke-dasharray:none;stroke-opacity:1"
     d="m 749.43,621.85 163.34,272.94 14.85,15.56 337.29,212.13 16.62,15.2 9.55,15.91 7.07,20.86 71.54,287.71 15.87,28.16 34.31,83.38 1.32,30.32 1.06,98.99 7.78,29.34 24.04,67.53 1.41,18.74 -3.54,76.72 0.71,17.68 3.54,6.72 47.02,31.11 99.35,20.86 71.06,7.42 31.82,9.19 27.22,10.96 48.44,11.67 37.83,2.12 32.53,10.25 39.24,8.13 31.11,9.9 27.22,18.38 16.26,15.56 25.1,11.31 11.31,13.79 6.36,13.44 4.95,14.85 4.95,41.01 19.8,52.33 1.06,12.37 -1.06,25.1 -4.24,30.05 v 15.2 l 6.72,24.04 1.06,20.15 -1.41,13.79 4.95,24.4 4.95,6.72 31.7,16.64 104,65.5 61,23.5 51.5,14.5 97,57 89,70 12,12 5.5,12 2.5,11 -3,12 -13,83.5 3.5,14 8,36.5 9,13 11,8 11.5,4 10.5,1 134,-11.5 25.57,-2.39 68.47,16.6 29.05,15.56 38.39,53.43 16.6,17.12 9.2,6.72"
     id="path4535" />
  <path
     style="fill:none;fill-rule:evenodd;stroke:#004ea0;stroke-width:5;stroke-linecap:butt;stroke-linejoin:round;stroke-miterlimit:4;stroke-dasharray:none;stroke-opacity:1"
     d="m 1868.25,1699.93 38.45,14.38 8.23,9.27 7.82,19.54 4.37,41.21 1.41,19.8 4.24,11.31 26.87,26.87 231.93,310.42 93.34,96.87 16.97,6.36 164.05,-13.44 16.26,1.41 17.68,12.73 127.99,75.66 20.51,4.95 181.02,9.9 27.58,5.66 531.04,150.61 480.83,197.99 854.18,360.62 690.84,149.91 21.21,1.41 74.25,-22.63 110.31,-82.02 33.94,-9.9 31.82,2.12 119.5,26.16 311.83,63.64 48.08,-0.71 311.83,-17.68 228.4,33.23 55.15,16.97 77.78,16.97 637.1,186.68 48.08,12.02 142.84,71.42 34.65,1.41 179.61,86.27 h 27.58 l 34.65,-8.49 18.38,-16.26 14.85,-21.21 77.07,-162.63 12.02,-14.14 52.33,-38.89 11.31,-21.92 18.38,-83.44 13.44,-50.2"
     id="path4537" />
  <text
     style="font-style:normal;font-weight:normal;font-size:144px;font-family:Sans;-inkscape-font-specification:Sans;fill:#000000;fill-opacity:1;stroke:none"
     xml:space="preserve"
     id="text2819"
     y="-783.04"
     x="89.45"><tspan
       id="tspan1"
       y="-783.04"
       x="89.45">2015</tspan></text>

<text
     x="7827.45"
     y="4607.96"
     id="text3652-1"
     xml:space="preserve"
     style="font-style:normal;font-weight:normal;font-size:144px;font-family:Sans;-inkscape-font-specification:Sans;fill:#000000;fill-opacity:1;stroke:none"><tspan
       x="7827.45"
       y="4607.96"
       id="tspan2"></tspan></text></svg>
