<?xml version="1.0" encoding="UTF-8" standalone="no"?>
<svg
   viewBox="0 0 3250 2450"
   height="2450"
   width="3250"
   id="svg2"
   version="1.1"
   xmlns:xlink="http://www.w3.org/1999/xlink"
   xmlns="http://www.w3.org/2000/svg"
   xmlns:svg="http://www.w3.org/2000/svg"
   xmlns:rdf="http://www.w3.org/1999/02/22-rdf-syntax-ns#"
   xmlns:cc="http://creativecommons.org/ns#"
   xmlns:dc="http://purl.org/dc/elements/1.1/">
  <metadata
     id="metadata8">
    <rdf:RDF>
      <cc:Work
         rdf:about="">
        <dc:format>image/svg+xml</dc:format>
        <dc:type
           rdf:resource="http://purl.org/dc/dcmitype/StillImage" />
      </cc:Work>
    </rdf:RDF>
  </metadata>
  <defs
     id="defs6" />
  <image
     style="display:none"
     y="67.33"
     x="-202.04"
     id="image10"
     xlink:href="../basemap/grqosm.png"
     preserveAspectRatio="none"
     height="3232.67"
     width="5051.04" />
  <path
     id="path817"
     d="m 352.14,1512.75 32.09,-1.03 24.77,-2.59 12.49,1.83 19.32,7.34 19.32,11.98 205.13,162.64 25.88,14.29 1096.76,549.73 26.66,8.5 30.13,4.64 415.68,23.57 669.88,37.47 18.93,-0.77 186.98,-30.13"
     style="opacity:1;fill:none;fill-opacity:1;fill-rule:nonzero;stroke:#84bf42;stroke-width:5;stroke-linecap:butt;stroke-linejoin:round;stroke-miterlimit:4;stroke-dasharray:none;stroke-opacity:1" />
  <text
     x="89.45"
     y="206.96"
     id="text3019"
     xml:space="preserve"
     style="font-style:normal;font-weight:normal;font-size:144px;line-height:125%;font-family:Sans;-inkscape-font-specification:Sans;letter-spacing:0px;word-spacing:0px;fill:#000000;fill-opacity:1;stroke:none"><tspan
       x="89.45"
       y="206.96"
       id="tspan1">2020</tspan></text>
  <path
     style="fill:none;stroke:#51adde;stroke-width:5;stroke-linejoin:round;stroke-opacity:1"
     d="m 352.14,1512.75 -38.63,-0.76 -99.66,5.79 -20.88,-4.96 -20.06,-11.99 -13.03,-15.71 -30.19,-63.27 -1.86,-16.54 2.89,-18.4 5.58,-14.47 11.37,-16.13 118.06,-122.4 14.68,-17.16 5.58,-9.1 8.27,-16.54 8.68,-33.29 4.96,-26.05 -0.21,-22.33 -9.1,-36.39 -19.02,-73.6 -19.02,-55.41 -26.05,-99.66 -101.52,-342.59 -4.76,-22.74 -0.62,-26.67 6.2,-188.97"
     id="path1" />
</svg>
