<?xml version="1.0" encoding="UTF-8" standalone="no"?>
<!-- Created with Inkscape (http://www.inkscape.org/) -->

<svg
   version="1.1"
   id="svg1"
   width="6600"
   height="3200"
   viewBox="0 0 6600 3200"
   xmlns:xlink="http://www.w3.org/1999/xlink"
   xmlns="http://www.w3.org/2000/svg"
   xmlns:svg="http://www.w3.org/2000/svg">
  <defs
     id="defs1" />
    <image
       width="6848"
       height="3424"
       preserveAspectRatio="none"
       xlink:href="../basemap/achosm.png"
       id="image1"
       x="-200"
       y="-25"
       style="display:none" />
    <path
       style="fill:none;stroke:#006436;stroke-width:5;stroke-linejoin:round;stroke-opacity:1"
       d="m 120.17,1730.75 27.33,3.64 11.71,5.47 11.19,10.41 9.37,15.88 1.56,15.88 -1.04,15.1 -22.91,97.09 -1.3,13.54 2.6,15.1 8.85,19.52 12.75,14.58 17.7,8.33 17.7,3.38 15.1,-0.52 35.92,-10.93 20.56,-2.08 20.56,3.64 85.12,34.1 18.48,0.52 21.34,-5.73 82.52,-58.05 17.96,-8.59 20.3,-4.16 25.51,-1.82 17.96,-4.43 74.45,-33.32 15.88,-2.86 64.56,6.25 23.95,7.55 17.44,11.45 57.01,40.61 39.05,41.65 67.16,43.73 20.56,9.89 28.11,4.43 28.89,4.16 12.75,8.33 17.7,21.08 9.11,17.18 2.08,14.84 -1.04,16.14 -9.89,38.79 0.78,17.18 7.29,14.58 11.97,12.49 15.88,7.81 14.58,1.04 33.32,-2.34 51.8,13.54 19,1.56 30.72,-0.26 113.49,26.29 20.04,10.93 14.06,11.45 10.15,13.28 21.87,40.61 20.3,19.52 22.91,8.85 20.04,1.3 39.31,-8.33 23.69,-0.26 20.04,5.73 20.3,13.28 14.32,12.75 85.9,89.54 16.92,11.45 166.85,78.87 192.1,44.51 21.87,0.52 21.61,-5.47 23.43,-12.23 62.99,-49.72 19.52,-7.81 59.35,-17.18 35.14,-4.43 138.74,-2.08 18.74,4.16 416.49,134.32 20.82,1.56 86.16,-2.08 12.75,-1.82 59.35,-14.32 18.22,-10.15 30.2,-29.67 17.96,-10.41 23.17,-7.81 33.32,-6.77 19.26,-7.55 106.2,-66.12 26.55,-10.41 38.52,-10.41 23.95,-10.93 53.88,-32.02 13.28,-10.41 72.62,-90.33"
       id="path1" />
    <path
       style="fill:none;stroke:#406ab4;stroke-width:5;stroke-linejoin:round;stroke-opacity:1"
       d="m 3534.44,2349.04 40.86,-50.99 13.67,-17.54 4.43,-14.06 5.99,-17.18 8.59,-17.7 14.58,-16.4 21.61,-13.8 85.9,-28.37 44.77,-9.11 25.54,-11.3"
       id="path2" />
    <path
       style="fill:none;stroke:#f2642f;stroke-width:5;stroke-linejoin:round;stroke-opacity:1"
       d="m 3651.45,135.61 -0.26,49.72 -2.6,12.75 -8.33,15.88 -8.33,10.41 -16.14,9.37 -396.96,168.42 -26.55,8.85 -21.87,2.08 -23.69,0.78 -302.73,-39.57 -603.12,-78.35 -33.84,-2.86 -24.73,3.64 -25.25,8.07 -21.61,9.37 -409.72,237.66 -16.66,7.81 -17.96,4.69 -27.07,3.38 -29.67,-4.16 -291.28,-103.08 -19.26,-11.19 -97.87,-84.6 -22.65,-12.75 -313.67,-174.92 -82.78,-46.59"
       id="path3" />
    <text
       style="font-style:normal;font-weight:normal;font-size:144px;line-height:125%;font-family:Sans;-inkscape-font-specification:Sans;letter-spacing:0px;word-spacing:0px;fill:#000000;fill-opacity:1;stroke:none"
       xml:space="preserve"
       id="text3791-5"
       y="206.96"
       x="89.45"><tspan
         id="tspan1"
         y="206.96"
         x="89.45">2020</tspan></text>
    <path
       style="fill:none;stroke:#000000;stroke-width:5;stroke-linejoin:round;stroke-opacity:1"
       d="m 3632.84,2350.48 9.57,10.86 2.39,6.44 5.89,21.35"
       id="path4" />
</svg>
