<?xml version="1.0" encoding="UTF-8" standalone="no"?>
<!-- Created with Inkscape (http://www.inkscape.org/) -->

<svg
   version="1.1"
   id="svg1"
   width="6600"
   height="3200"
   viewBox="0 0 6600 3200"
   xmlns:xlink="http://www.w3.org/1999/xlink"
   xmlns="http://www.w3.org/2000/svg"
   xmlns:svg="http://www.w3.org/2000/svg">
  <defs
     id="defs1" />
    <image
       width="6848"
       height="3424"
       preserveAspectRatio="none"
       xlink:href="../basemap/achosm.png"
       id="image1"
       x="-200"
       y="-25"
       style="display:none" />
    <path
       style="fill:none;stroke:#006436;stroke-width:5;stroke-linejoin:round;stroke-opacity:1"
       d="m 120.17,1730.75 27.33,3.64 11.71,5.47 11.19,10.41 9.37,15.88 1.56,15.88 -1.04,15.1 -22.91,97.09 -1.3,13.54 2.6,15.1 8.85,19.52 12.75,14.58 17.7,8.33 17.7,3.38 15.1,-0.52 35.92,-10.93 20.56,-2.08 20.56,3.64 85.12,34.1 18.48,0.52 21.34,-5.73 82.52,-58.05 17.96,-8.59 20.3,-4.16 25.51,-1.82 17.96,-4.43 74.45,-33.32 15.88,-2.86 64.56,6.25 23.95,7.55 17.44,11.45 57.01,40.61 39.05,41.65 67.16,43.73 20.56,9.89 28.11,4.43 28.89,4.16 12.75,8.33 17.7,21.08 9.11,17.18 2.08,14.84 -1.04,16.14 -9.89,38.79 0.78,17.18 7.29,14.58 11.97,12.49 15.88,7.81 14.58,1.04 33.32,-2.34 51.8,13.54 19,1.56 30.72,-0.26 113.49,26.29 20.04,10.93 14.06,11.45 10.15,13.28 21.87,40.61 20.3,19.52 22.91,8.85 20.04,1.3 39.31,-8.33 23.69,-0.26 20.04,5.73 20.3,13.28 14.32,12.75 85.9,89.54 16.92,11.45 166.85,78.87 192.1,44.51 21.87,0.52 21.61,-5.47 23.43,-12.23 62.99,-49.72 19.52,-7.81 59.35,-17.18 35.14,-4.43 138.74,-2.08 18.74,4.16 416.49,134.32 20.82,1.56 86.16,-2.08 12.75,-1.82 59.35,-14.32 18.22,-10.15 30.2,-29.67 17.96,-10.41 23.17,-7.81 33.32,-6.77 19.26,-7.55 106.2,-66.12 26.55,-10.41 38.52,-10.41 23.95,-10.93 53.88,-32.02 13.28,-10.41 72.62,-90.33"
       id="path1" />
    <path
       style="fill:none;stroke:#406ab4;stroke-width:5;stroke-linejoin:round;stroke-opacity:1"
       d="m 3534.44,2349.04 40.86,-50.99 13.67,-17.54 4.43,-14.06 5.99,-17.18 8.59,-17.7 14.58,-16.4 21.61,-13.8 85.9,-28.37 44.77,-9.11 58.83,-26.03 15.1,-8.33 12.23,-12.23 6.51,-13.28 0.78,-16.66 -4.95,-15.36 -8.07,-11.45 -9.11,-15.1 -3.12,-11.71 0.52,-15.1 7.03,-18.48 20.56,-27.85 3.64,-15.36 0.78,-20.3 4.95,-14.32 28.37,-41.13 3.9,-16.92 3.64,-37.22 -4.43,-23.43 -5.21,-25.51 1.56,-16.4 11.71,-68.46 9.63,-24.73 8.33,-12.23 14.32,-12.75 47.12,-14.84 13.02,-10.15 9.63,-16.14 2.86,-17.7 -0.52,-11.19 -3.38,-13.28 -9.11,-20.56 -2.34,-14.84 4.16,-15.1 9.11,-14.06 10.93,-8.85 15.36,-5.73 15.1,-1.56 18.22,4.43 14.84,10.41 20.56,22.13 16.14,8.07 15.36,2.08 15.36,-3.12 33.06,-17.18 14.32,-2.6 19.26,3.38 14.06,8.59 51.02,54.92 15.88,8.33 18.22,1.82 16.66,-3.38 25.25,-18.48 17.44,-8.33 14.32,-5.99 14.06,-4.16 11.19,1.56 13.54,3.12 17.18,14.84 14.06,9.89 13.28,2.6 15.1,0.52 14.32,-5.73 16.4,-8.59 13.8,-4.43 89.8,-7.29 53.88,-17.44 22.13,-3.64 84.86,2.6 15.1,-2.34 60.91,-20.04 69.24,-9.63 85.64,-8.07 40.35,-4.16 61.17,-16.66 20.82,-2.08 56.75,3.38 22.65,-5.47 117.92,-38.52 56.75,-8.07 54.4,-2.86 20.82,2.34 36.18,10.93 168.68,54.66 20.04,10.93 20.04,17.44 87.46,93.19 19.26,23.43 49.2,92.93 17.44,15.88 15.88,8.07 34.36,9.11 30.2,11.71 58.83,8.07 120.78,44.25 154.36,44.77 88.76,25.51 36.44,14.32 14.84,13.28 13.54,20.82 4.69,16.14 1.56,19 -3.64,19 -7.03,17.44 -11.45,13.8 -51.54,46.07 -10.67,15.88 -6.77,14.06 -4.16,20.04 -34.88,198.61 -5.99,15.88 -59.61,135.36 -16.66,26.55 -14.32,18.74 -15.88,16.14 -15.36,12.23 -563.04,360.26 -9.37,8.59 -124.16,122.34 -8.59,13.8 -5.99,12.49 -13.54,31.5"
       id="path2" />
    <path
       style="fill:none;stroke:#f2642f;stroke-width:5;stroke-linejoin:round;stroke-opacity:1"
       d="m 3651.45,135.61 -0.26,49.72 -2.6,12.75 -8.33,15.88 -8.33,10.41 -16.14,9.37 -396.96,168.42 -26.55,8.85 -21.87,2.08 -23.69,0.78 -302.73,-39.57 -603.12,-78.35 -33.84,-2.86 -24.73,3.64 -25.25,8.07 -21.61,9.37 -409.72,237.66 -16.66,7.81 -17.96,4.69 -27.07,3.38 -29.67,-4.16 -291.28,-103.08 -19.26,-11.19 -97.87,-84.6 -22.65,-12.75 -313.67,-174.92 -82.78,-46.59"
       id="path3" />
    <text
       style="font-style:normal;font-weight:normal;font-size:144px;line-height:125%;font-family:Sans;-inkscape-font-specification:Sans;letter-spacing:0px;word-spacing:0px;fill:#000000;fill-opacity:1;stroke:none"
       xml:space="preserve"
       id="text3791-5"
       y="206.96"
       x="89.45"><tspan
         id="tspan1"
         y="206.96"
         x="89.45">2025</tspan></text>
    <path
       style="fill:none;stroke:#000000;stroke-width:5;stroke-linejoin:round;stroke-opacity:1"
       d="m 3632.84,2350.48 9.57,10.86 2.39,6.44 5.89,21.35"
       id="path4" />
</svg>
