<?xml version="1.0" encoding="UTF-8" standalone="no"?>
<svg
   viewBox="-2100 -150 7150 7550"
   height="7550"
   width="7150"
   id="svg2"
   version="1.1"
   xml:space="preserve"
   xmlns:xlink="http://www.w3.org/1999/xlink"
   xmlns="http://www.w3.org/2000/svg"
   xmlns:svg="http://www.w3.org/2000/svg"
   xmlns:rdf="http://www.w3.org/1999/02/22-rdf-syntax-ns#"
   xmlns:cc="http://creativecommons.org/ns#"
   xmlns:dc="http://purl.org/dc/elements/1.1/"><metadata
     id="metadata8"><rdf:RDF><cc:Work
         rdf:about=""><dc:format>image/svg+xml</dc:format><dc:type
           rdf:resource="http://purl.org/dc/dcmitype/StillImage" /></cc:Work></rdf:RDF></metadata><defs
     id="defs6" /><image
     xlink:href="../basemap/jktosm.png"
     width="7046.66"
     height="8053.33"
     preserveAspectRatio="none"
     id="image10"
     x="-2021.11"
     y="-703.33"
     style="display:none" /><path
     id="path1615"
     d="m 1698.84,989.5 3.04,42.09 -1.37,6.41 -10.5,42 -6,32.5 1,16.5 5,30.5 -0.5,16 -33,43 -15,14 -121.5,56.5 -15,16.5 -25,53 -7,20 -0.5,23 -1,16.5 -7,16.5 -30.5,30 -16,23.5 -33,80.5 -107,186 -18.5,45 -13.5,37 -104,126 -33.5,36 -47.5,38 -43.5,22 -49.5,24 -15,18 -10.5,42 -9,24 -17,21 -44,30.5 -106.5,113 -118.5,97.5 -206,154.5 -33.5,23 -39.5,8.5 -22.5,6 -35,32.5 -22.5,13 -31,7.5 -23.5,10 -219.5,127.5 -146.5,68.5 -132.5,41 -22,10 -51,38.5 -73,41.5 -12.5,9 -23.5,29.5 -11,8 -21,5.5 h -48.5 l -70.56,-0.23 -13.65,4.99 -42.77,27.82 -16.79,5.77 -24.93,3.15 -147.47,6.56 -14.96,4.2 -64.55,31.49 -15.48,3.15 -112.05,2.89 -14.7,5.51 -11.55,9.71 -11.55,9.45 -13.91,6.3 -51.17,9.97 -57.73,6.3 -67.96,27.55 -33.59,30.44 -23.09,11.02 -28.34,9.97 -295.47,62.72 -134.09,62.19 -9.45,8.92 -16.79,18.11 -13.65,7.61 -23.09,4.2 -136.98,-7.87"
     style="opacity:1;fill:none;fill-opacity:1;fill-rule:nonzero;stroke:#96c959;stroke-width:5;stroke-linecap:butt;stroke-linejoin:round;stroke-miterlimit:4;stroke-dasharray:none;stroke-opacity:1" /><path
     id="path826"
     d="m 1885.83,1083.41 1.21,47.81 1.56,20.61 1.73,72.06 -13.16,65.13 -3.64,48.67 -10.74,36.72 -17.15,32.22 -23.21,31.7 -129.91,106.8 -163.87,118.21 -7.28,7.1 -11.06,31.61 0.71,163.8 -10.43,16.96 0.87,40.01 -9.01,72.75 -4.16,81.76 -8.31,87.3 13.16,49.19 -2.77,51.97 6.93,131.65 -13.16,46.42 -8.31,13.16 -5.54,28.41 -2.77,52.66 -7.62,31.87 0.69,23.56 -2.77,14.55 v 15.24 l -5.54,11.78 -12.47,2.77 -114.32,-2.77 -88.69,-23.56 -42.27,-25.64 -62.36,2.77"
     style="opacity:1;fill:none;fill-opacity:1;fill-rule:nonzero;stroke:#cf2a51;stroke-width:5;stroke-linecap:butt;stroke-linejoin:round;stroke-miterlimit:4;stroke-dasharray:none;stroke-opacity:1" /><path
     id="path4506"
     d="m 1883.61,1151.43 1.73,72.48 -13.23,65.58 -3.45,47.75 -10.35,35.09 -17.26,32.22 -23.01,31.06 -35.09,29.34 -93.77,76.51 -163.95,118.51"
     style="opacity:1;fill:none;fill-opacity:1;fill-rule:nonzero;stroke:#06368b;stroke-width:5;stroke-linecap:butt;stroke-linejoin:round;stroke-miterlimit:4;stroke-dasharray:none;stroke-opacity:1" /><path
     style="opacity:1;fill:none;fill-opacity:1;fill-rule:nonzero;stroke:#06368b;stroke-width:1;stroke-linecap:butt;stroke-linejoin:round;stroke-miterlimit:4;stroke-dasharray:none;stroke-opacity:1"
     d="m 1883.61,1151.43 0.03,-2.91 7.16,-4.52 -0.28,-9.43 -6.41,-4.34 -2.07,-77.48 2.07,-70.69 -4.71,-81.06 2.83,-122.91 -23.94,-22.06 -18.85,-85.21 -15.08,-64.85 -25.64,-118.2 -26.39,-109.71 -28.09,-101.42 4.22,-4.74 1.44,-4.88 -3.39,-12.82 -2.26,-2.83 -6.03,1.32 -0.57,3.77 6.6,20.17"
     id="path4485" /><path
     style="opacity:1;fill:none;fill-opacity:1;fill-rule:nonzero;stroke:#06368b;stroke-width:1;stroke-linecap:butt;stroke-linejoin:round;stroke-miterlimit:4;stroke-dasharray:none;stroke-opacity:1"
     d="m 1884.11,1130.24 -7.45,4.81 0.09,8.48 6.88,5"
     id="path4487" /><path
     style="opacity:1;fill:none;fill-opacity:1;fill-rule:nonzero;stroke:#06368b;stroke-width:1;stroke-linecap:butt;stroke-linejoin:round;stroke-miterlimit:4;stroke-dasharray:none;stroke-opacity:1"
     d="m 1525.22,1659.97 -6.64,9.4 -11.2,31.99 0.53,164.49 7.2,10.93 13.06,8 h 38.92 l 4.53,-4.8 -3.47,-12 0.8,-32.52 -4.8,-6.66 -51.19,0.8 -5.33,-5.87"
     id="path4516" /><text
     style="font-style:normal;font-weight:normal;font-size:144px;line-height:125%;font-family:Sans;-inkscape-font-specification:Sans;letter-spacing:0px;word-spacing:0px;fill:#000000;fill-opacity:1;stroke:none"
     xml:space="preserve"
     id="text3019"
     y="56.96"
     x="-2010.55"><tspan
       id="tspan1"
       y="56.96"
       x="-2010.55">2025</tspan></text><text
     style="font-style:normal;font-weight:normal;font-size:144px;line-height:125%;font-family:Sans;-inkscape-font-specification:Sans;letter-spacing:0px;word-spacing:0px;fill:#000000;fill-opacity:1;stroke:none"
     xml:space="preserve"
     id="text3019-6"
     y="7297.96"
     x="-2010.55"><tspan
       id="tspan2"
       y="7297.96"
       x="-2010.55">2025</tspan></text><path
     style="opacity:1;fill:none;fill-opacity:1;fill-rule:nonzero;stroke:#ec1f26;stroke-width:5;stroke-linecap:butt;stroke-linejoin:round;stroke-miterlimit:4;stroke-dasharray:none;stroke-opacity:1"
     d="m 1756.68,255.54 61.08,-15.46 22.62,-1.13 10.93,3.39 10.18,7.92 6.79,11.31 12.06,46.37 48.26,81.06 10.93,27.9 9.05,54.29 v 16.59 l 3.02,114.62 3.77,15.08 9.8,17.34 10.56,20.74 13.57,17.72 6.79,19.98 1.89,23.75 -1.89,23.75 -9.8,39.96 -1.13,14.7 6.03,35.82 24.88,80.31 14.7,93.88 9.8,21.11 233.38,318.59 78.8,107.07 49.39,65.98 13.57,29.41 6.03,18.1 1.51,25.64 v 52.41 207.74 l 5.66,68.62 -4.9,26.01 -18.1,45.62 -149.68,338.94 -12.82,30.16 -6.79,28.28 -15.83,79.55 -7.92,46.37 -7.54,36.57 -9.43,22.62 -43.73,105.57 -3.39,27.9 -4.9,65.6 -17.34,99.16 -30.92,183.61 -6.03,21.87 -10.18,18.1 -26.39,39.21 -8.29,24.13 v 23.38 l 10.18,23 14.7,28.65 2.64,17.34 -0.75,27.15 -2.64,20.74 -27.15,105.57 -26.01,204.35 -2.64,35.44 2.64,24.88 v 0 l 13.57,101.8 -1.51,18.47 -5.28,23.75 -21.87,60.32 -38.83,118.76 -14.7,23 -50.9,59.57 -7.54,18.1 -73.52,171.17 -35.06,157.6 -14.33,77.29 -17.34,78.04 -91.24,257.51 -14.33,32.05 -64.85,136.48 -14.33,50.9 -19.61,93.12 -1.13,43.73 6.79,48.64 22.24,114.99 1.51,31.67 0.75,79.93 -5.28,29.03 -12.44,29.78 -17.34,22.62 -56.55,63.72 -12.06,28.65 -12.06,42.98 -3.39,34.31 v 52.78 l 10.18,98.4 1.51,60.32 16.97,65.98 v 14.7 l -5.66,35.06 3.77,26.39 10.93,15.08 41.85,42.98 9.43,21.11 6.03,22.62 -0.75,31.67 -26.77,308.78 2.64,27.52 48.26,228.1 0.75,20.74 -4.15,24.13 -12.44,27.9 -18.85,35.44 -16.97,17.72 -51.28,28.65 -24.51,21.87 -14.33,23 -8.67,27.52 -1.89,31.67 8.29,55.8 2.26,27.52 -7.54,23.75 -26.77,96.14 -12.44,52.41"
     id="path4893" /><path
     id="path828"
     d="m 2923.24,1112.16 0.69,-124.72 9.7,-63.05 15.24,-40.88 23.56,-31.18 29.1,-20.09 151.74,-242.51 40.74,-65.76 7.87,-6.04 67.96,4.99 6.04,6.3 -1.57,38.05"
     style="opacity:1;fill:none;fill-opacity:1;fill-rule:nonzero;stroke:#f56d37;stroke-width:5;stroke-linecap:butt;stroke-linejoin:round;stroke-miterlimit:4;stroke-dasharray:none;stroke-opacity:1" /><path
     id="path1563"
     d="m 741.38,1777.32 47.98,2.77 21.13,0.87 18.71,-3.12 13.51,-4.85 10.57,-7.1 5.37,-1.04 24.42,9.01 5.37,5.2 8.14,10.05 6.58,2.6 56.64,3.98 7.45,6.41 7.62,-0.17 9.87,-5.37 156.59,5.72 5.2,-2.25 9.7,-9.7 4.5,-1.73 6.76,1.04 5.2,3.64 6.76,8.49 7.1,2.6 41.23,2.08 14.55,4.33 32.39,3.12 25.81,7.28 22.35,2.08 18.19,17.84 6.58,2.6 18.19,0.87 16.8,12.64 10.05,2.94 16.63,0.17 10.57,-1.73 5.02,-2.94 8.83,-20.09 8.49,-6.06 12.82,-1.56 139.96,1.04 20.44,-1.73 26.33,-8.31 20.79,1.04 57.51,-3.46 29.79,-4.5 52.31,1.39 42.27,26.33 8.66,0.69 52.31,-8.66 94.28,1.33"
     style="opacity:1;fill:none;fill-opacity:1;fill-rule:nonzero;stroke:#06368b;stroke-width:5;stroke-linecap:butt;stroke-linejoin:round;stroke-miterlimit:4;stroke-dasharray:none;stroke-opacity:1" /><path
     id="path1607"
     d="m 1999.69,1833.04 24.73,0.06 10.93,2.86 81.63,21.88"
     style="opacity:1;fill:none;fill-opacity:1;fill-rule:nonzero;stroke:#06368b;stroke-width:1;stroke-linecap:butt;stroke-linejoin:round;stroke-miterlimit:4;stroke-dasharray:none;stroke-opacity:1" /><path
     id="path1609"
     d="m 2007.27,1832.85 3.18,-3.18 v -8.35 l -60.59,-38.2"
     style="opacity:1;fill:none;fill-opacity:1;fill-rule:nonzero;stroke:#06368b;stroke-width:1;stroke-linecap:butt;stroke-linejoin:round;stroke-miterlimit:4;stroke-dasharray:none;stroke-opacity:1" /><path
     id="path1611"
     d="m 2010.45,1821.32 24.9,14.64"
     style="opacity:1;fill:none;fill-opacity:1;fill-rule:nonzero;stroke:#06368b;stroke-width:1;stroke-linecap:butt;stroke-linejoin:round;stroke-miterlimit:4;stroke-dasharray:none;stroke-opacity:1" /><path
     id="path1613"
     d="m 1926.19,1830.67 1.73,-14.2 10.05,-19.4 33.65,-39.47 10,-4.89 26.69,-12.94 12.69,-12.67 12.12,-15.97 8.4,-20.57 2.88,-20.01 -6.67,-92.69 -14.63,-47.68 -10.31,-35.29 -7.74,-26.93 -2.82,-77.9 -5.04,-36.01 -11.87,-31.91 -3.27,-4.6 0.94,-4.08 5.2,-12.82 -0.69,-7.97 2.42,-4.16 57.86,10.39 2.77,-1.39 v -7.28 l -4.67,-7.28 -52.88,-8.5 -37.74,-8.7 -3.44,-0.97 v -8.31 l -3.12,-4.33 0.52,-3.46 2.08,-2.6 3.98,0.69 2.42,5.37 0.52,31.35 10.6,14.4 13.23,19.65"
     style="opacity:1;fill:none;fill-opacity:1;fill-rule:nonzero;stroke:#06368b;stroke-width:1;stroke-linecap:butt;stroke-linejoin:round;stroke-miterlimit:4;stroke-dasharray:none;stroke-opacity:1" /><path
     style="fill:none;stroke:#636a72;stroke-linejoin:round;stroke-width:5;stroke-miterlimit:4;stroke-dasharray:none;stroke-opacity:1"
     d="m -671.5,145.7 -10.72,4.27 h -7.96 l -7.35,-5.01 -32.5,-84.03 -1.18,-11.34 6.29,-9.17 25.17,-8.35 5.22,1.65 3.94,3.06 6.92,16.07 4.11,4.18 4.85,0.56 50.16,-18.12 14.8,-17.92 35.6,-14.48 33.96,-22.39 37.43,-14.48"
     id="path874" /><path
     style="fill:none;stroke:#1c4ea3;stroke-width:5;stroke-linejoin:round;stroke-dasharray:none;stroke-opacity:1"
     d="m 1913.14,1291.15 44.22,8.62 6.03,4.08 14.97,22.54 11.12,29.9 4.77,34.86 2.96,78.18 c 0.01,0.2 0.04,0.4 0.1,0.6 l 16.33,56.59 c 0,0.01 0.01,0.03 0.01,0.04 l 16.25,53.17 6.46,90.56 -2.7,18.71 -7.73,18.34 -11.03,14.46 -11.28,11.46 -36.35,17.62 c -0.3,0.14 -0.56,0.35 -0.78,0.6 l -11.13,12.62 c -0.05,0.05 -0.09,0.1 -0.13,0.16 l -6.49,8.72 c -0.3,0.4 -0.47,0.89 -0.49,1.39 l -0.37,8.91 c -0.01,0.24 0.01,0.49 0.07,0.72 l 2.23,8.72 c 0.13,0.53 0.44,1 0.87,1.34 l 7.24,5.75 c 0.09,0.07 0.19,0.14 0.29,0.2 l 73.11,43.05 c 0.19,0.11 0.4,0.2 0.62,0.26 l 127.89,34.47 28.07,11.26 c 0.25,0.1 0.52,0.16 0.8,0.18 l 45.28,2.41 c 0.1,0.01 0.2,0.01 0.3,0 l 103.41,-7.04 72.79,2.78 h 0.14 l 96.03,-1.67 23.45,4.73 76.61,30.72 c 0.1,0.04 0.19,0.07 0.29,0.1 l 49.38,13.04 30.93,25.62 2.03,6.53 -1.57,7.22 -7.09,8.53 -29.65,26.63 -7.87,11.55 -15.74,40.28 -1.18,7.35 2.1,8 17.71,13.65 2.36,6.56 6.17,29.52 -4.33,78.85 4.33,33.59 -9.18,47.63 2.23,56.16 7.48,43.17 20.47,50.38 31.62,73.61 24.4,46.18 30.44,88.43 43.82,105.49 7.09,49.33 11.55,16.27 2.36,8.13 -1.84,6.3 -9.97,19.42 -2.36,12.6 6.56,33.59 3.67,22.04 8.92,14.43 18.63,85.28 3.15,22.04 0.52,24.4 3.15,150.1 17.32,117.3 9.45,31.23 18.11,102.6 40.41,145.38 10.76,56.42 10.23,62.72 4.2,37.52 7.61,18.89 18.63,112.31"
     id="path2" /><path
     style="fill:none;stroke:#026f40;stroke-width:5;stroke-linejoin:round;stroke-dasharray:none;stroke-opacity:1"
     d="m 1914.1,1286.25 44.72,8.72 c 0.33,0.07 0.64,0.19 0.92,0.38 l 6.87,4.64 c 0.27,0.18 0.5,0.42 0.68,0.69 l 15.4,23.2 c 0.11,0.16 0.19,0.33 0.26,0.51 l 11.32,30.43 c 0.06,0.17 0.11,0.35 0.13,0.53 l 4.82,35.25 c 0.01,0.08 0.02,0.16 0.02,0.24 l 2.96,78 16.24,56.28 16.32,53.42 c 0.06,0.18 0.09,0.37 0.1,0.55 l 6.49,91.11 c 0.01,0.18 0.01,0.36 -0.02,0.54 l -2.78,19.3 c -0.03,0.21 -0.09,0.42 -0.17,0.61 l -7.98,18.93 c -0.08,0.19 -0.19,0.38 -0.31,0.54 l -11.32,14.84 c -0.06,0.08 -0.13,0.16 -0.21,0.24 l -11.69,11.88 c -0.2,0.2 -0.43,0.37 -0.69,0.5 l -36.29,17.59 -10.73,12.16 -5.97,8.02 -0.32,7.77 1.93,7.55 6.44,5.12 72.67,42.79 127.71,34.42 c 0.1,0.03 0.19,0.06 0.28,0.09 l 27.82,11.16 44.71,2.38 103.39,-7.04 c 0.09,0 0.18,0 0.27,0 l 72.85,2.78 96.23,-1.67 c 0.18,0 0.36,0.01 0.54,0.05 l 23.94,4.82 c 0.15,0.03 0.3,0.07 0.44,0.13 l 76.68,30.74 49.76,13.13 c 0.35,0.09 0.68,0.26 0.96,0.49 l 31.36,25.98 10.65,7.68 6.49,1.11 12.62,-6.49 23.75,-15.77 12.25,-4.08 53,3.53 17.32,-1.31 23.88,-10.5 41.2,-30.7 20.99,-8.66 26.5,-4.72 28.87,2.89 25.45,10.5 24.93,14.43 17.32,18.37 37.79,60.88 14.7,22.57 24.93,24.67 18.37,10.76 44.87,14.7 77.41,33.59 29.65,7.35 39.36,3.67 176.86,-6.82 171.88,-9.71 49.86,-8.66 40.67,4.72 99.19,-5.25 56.68,-5.77 50.38,-10.76 25.19,-1.31 46.45,-18.11 71.38,-38.84 50.91,-32.28 33.06,-9.71 33.59,-5.51 54.32,0.52 29.65,8.13 38.05,16.01 108.11,50.65 128.06,46.18 339.58,120.96"
     id="path1" /><path
     style="fill:none;fill-opacity:0;stroke:#06368b;stroke-width:1;stroke-linejoin:round;stroke-dasharray:none;stroke-opacity:1"
     d="m 741.38,1777.32 -25.31,-3.49 -17.58,2.36 -35.16,-1.57 -22.3,-13.65 -37,-6.04 -5.51,-4.46 -4.99,-8.92 -5.51,-4.2 -67.7,-17.06 -24.14,-3.15 -76.89,-18.89 -10.1,0.26 -3.8,-2.62 -4.85,-10.23 -7.48,-6.04 -6.95,0.79 -3.81,0.26 -3.02,-1.18 -5.77,-5.77 -10.5,-1.71 -2.49,7.74 2.1,3.67 13.38,-0.26 3.28,1.71 4.2,11.68 5.9,3.94 13.38,0.39 6.43,-2.36"
     id="path3" /><path
     style="fill:none;fill-opacity:0;stroke:#10bef2;stroke-width:5;stroke-linejoin:round;stroke-dasharray:none;stroke-opacity:1"
     d="m 1541.77,358.71 18.56,351.07 6.68,20.78 113.93,163.84 7.24,16.14 10.82,152.96 -4.37,17.65 -5.83,32.55 1.06,16.75 28.02,71.79 13.17,14.29 53.44,14.47 135.08,29.69 72.78,16.75 108.74,17.5 60.88,20.47 18.86,1.32 12.99,-4.45 17.63,-8.54 13.17,0.37 12.39,2.93 8.62,7.65 51.72,70.44 27.32,37.1 13.21,9.76 15.88,6.09 14.1,1.3 17.44,-4.45 88.51,-38.97 14.66,-1.11 13.92,3.53 17.44,12.8 32.1,28.76 15.59,4.82 131.56,-2.04 165.7,-10.21 51.4,-13.17 16.14,-1.67 123.95,1.67 90.55,2.04 1053.3,127.84 21.78,7.35 30.7,18.37 323.81,204.42"
     id="path4" /></svg>
