<?xml version="1.0" encoding="UTF-8" standalone="no"?>
<svg
   id="svg2"
   viewBox="-2350 -1900 10400 9200"
   height="9200"
   width="10400"
   version="1.1"
   xmlns:xlink="http://www.w3.org/1999/xlink"
   xmlns="http://www.w3.org/2000/svg"
   xmlns:svg="http://www.w3.org/2000/svg"
   xmlns:rdf="http://www.w3.org/1999/02/22-rdf-syntax-ns#"
   xmlns:cc="http://creativecommons.org/ns#"
   xmlns:dc="http://purl.org/dc/elements/1.1/">
  <metadata
     id="metadata8">
    <rdf:RDF>
      <cc:Work
         rdf:about="">
        <dc:format>image/svg+xml</dc:format>
        <dc:type
           rdf:resource="http://purl.org/dc/dcmitype/StillImage" />
      </cc:Work>
    </rdf:RDF>
  </metadata>
  <defs
     id="defs6" />
  <image
     xlink:href="../basemap/mowosm.png"
     id="image10"
     height="8932.13"
     width="10452.5"
     y="-1710.41"
     x="-2386.03"
     style="display:none" />
  <path
     style="fill:none;stroke:#925233;stroke-width:5;stroke-linecap:butt;stroke-linejoin:round;stroke-miterlimit:4;stroke-dasharray:none;stroke-opacity:1"
     id="path3788"
     d="m 2265.97,2494.05 -63.61,-17.46 -43.79,-3.43 -24.58,-6.81 -16.86,-15.76 -7.06,-16.74 -4.27,-28.29 2.52,-37.63 4.98,-23.88 8.45,-22.22 47.97,-76.34 33.22,-58.73 5.35,-21.43 4.18,-61.03 10.93,-126.57 7.39,-27.79 10.11,-15.18 13.28,-12.89 28.28,-26.87 16.81,-12.62 13.18,-6.98 108.36,-22.63 73.22,-15.25 17.91,-0.37 131.03,15 60.21,1.85 36.06,-1.41 93.18,-0.49 13.45,3.93 17.23,12.29 12.33,18.99 3.42,20.06 -3.13,26.53 0.37,26.93 7.08,30.2 10.58,24.86 26.63,54.45 11.09,25.63 2.94,26.73 -2.12,26.16 -9.9,40.31 -14.31,61.79 -32.15,137.98 -6.41,19.2 -9.09,16.8 -27.15,35.21 -26.34,21.88 -12.95,17.68 -8.96,15.91 -15.63,34.01 -14.95,17.82 -31.77,23.32 -28.97,18.54 -47.32,15.65 -82.15,11.75 -20.67,1.88 -13.58,-1.22 -17.4,-4.21 -32.67,-18.36 -175.98,-105.13 -18.43,-8.69 -19.52,-6.93" />
  <path
     style="fill:none;stroke:#4baf4f;stroke-width:5;stroke-linecap:butt;stroke-linejoin:round;stroke-miterlimit:4;stroke-dasharray:none;stroke-opacity:1"
     id="path3796"
     d="m 2905,2971 v -55.14 l -6.05,-21.71 -20.45,-44.46 -54.61,-124.84 -12.28,-19.08 -28.53,-36.21 -13.07,-18.2 -64.45,-77.63 -31.86,-40.62 -11.19,-23.25 -4.5,-29.53 1.69,-55.85 -2.96,-22.61 -34.32,-114.73 -14,-33.19 -27.59,-47.1 -25.94,-40.96 -13.4,-24.75 -15.37,-17.52 -42.6,-26.75 -59.94,-43.25 -34.01,-29.75 -45.54,-43.51 -73.62,-80.73 -138.23,-116.56 -53.14,-57.18 -32.03,-26.54 -34.24,-26.85 -171.94,-129.55 -27.73,-20.17 -147.91,-67.71" />
  <text
     style="font-style:normal;font-weight:normal;font-size:144px;line-height:125%;font-family:Sans;-inkscape-font-specification:Sans;letter-spacing:0px;word-spacing:0px;fill:#000000;fill-opacity:1;stroke:none"
     xml:space="preserve"
     id="text6965"
     y="-1693.04"
     x="-2260.55"><tspan
       id="tspan1"
       y="-1693.04"
       x="-2260.55">1960</tspan></text>
  <text
     style="font-style:normal;font-weight:normal;font-size:144px;line-height:125%;font-family:Sans;-inkscape-font-specification:Sans;letter-spacing:0px;word-spacing:0px;fill:#000000;fill-opacity:1;stroke:none"
     xml:space="preserve"
     id="text6965-9"
     y="7197.96"
     x="-2260.55"><tspan
       id="tspan2"
       y="7197.96"
       x="-2260.55">1960</tspan></text>
  <path
     id="path3976"
     d="m 3922.44,1699.86 -20.44,0.5 -38.75,16.25 -12.25,2 -26.47,-7.23 -14.44,-2.36 -86.06,7.56 -30.58,1.9 -15.98,3.04 -144.24,60.62 -23.61,8.07 -40.45,5.61 -125.76,13.33 -18.46,4.26 -18.84,6.37 -27.36,11.55 -30.21,15.33 -33.2,24.53 -52.61,39.84 -51.72,37.32 -37.18,27.78 -25.31,22.85 -79.12,96.05 -7.77,16.12 -20.12,49.76 -10.48,11.4 -9.49,6.84 -16.14,11.29 -13.16,6.24 -16.85,3.43 -75.22,2.5 -136.16,3.24 -90.57,0.82 -12.98,4.47 -17.45,11.71 -13.5,20 -10.17,19.86 -11.28,9.56 -19.44,5.17 -16.61,0.41 -33.78,-1.29 -45.41,8.2 -41.9,8.87 -67.41,41.62 -16.2,7.69 -69.17,21.84 -57.32,17.47 -22.54,12.11 -14.59,6.72"
     style="fill:none;stroke:#0572b9;stroke-width:5;stroke-linecap:butt;stroke-linejoin:round;stroke-miterlimit:4;stroke-dasharray:none;stroke-opacity:1" />
  <path
     style="fill:none;stroke:#24bcef;stroke-width:5;stroke-linecap:butt;stroke-linejoin:round;stroke-miterlimit:4;stroke-dasharray:none;stroke-opacity:1"
     id="path3790"
     d="m 2484.2,2272.04 -11.76,0.47 -29.47,8.78 -5.96,0.94 -49.22,-2.85 -33.3,6.98 -14.5,8.5 -31,15 -34.5,16 -39.5,6 -52.5,4 -20.5,3 -13,9.5 -6,15.5 -11,29 -6.47,5.45 -41.46,21.02 -41.46,15.38 -14.84,14.18 -54.76,24.96 -70,34 -18,3.5 -15,-3.5 -24.5,-38.5 -15,-46 -18.5,-10.5 -25,-3 -17.5,-6 -16,-4.5 -7,1 -17.5,6.5 -10,-0.5 -23,-10.5 -13.5,-9.5 -15.68,-22.11" />
  <path
     style="fill:none;stroke:#e42518;stroke-width:5;stroke-linecap:butt;stroke-linejoin:round;stroke-miterlimit:4;stroke-dasharray:none;stroke-opacity:1"
     id="path2989"
     d="m 3104.5,1705.86 -50,75 -26,26.5 -43.5,41 -92.5,69.5 -16.5,13.5 -11.43,22.07 -7.27,25.56 -6.3,18.87 -15.5,15.5 -21.22,14.92 -32.35,13.27 -23.8,12.18 -27.63,25.13 -18,29.5 -27.5,32 -10.15,7.97 -13.02,5.88 -91.28,19.3 -13.55,6.87 -23.89,23.01 -22.61,37.97 -15,45 -8.37,27.82 -6.85,15.38 -17.51,25.42 -17,16.72 -18.27,21.66 -28.5,47 -21,21.5 -9,24 -13.5,53 -14.5,46 -7,9.5 -69.52,51.02 -27.55,12.71 -101.39,36.26 -18.72,9.85 -66.24,43.38 -12.6,18.68 -2.59,13.59 3.46,20.69 41.69,37.61 6.87,20.72 -1.9,15.5 -5,11.5 -65.5,84 -26.46,34.46 -82.28,122.08 -16.11,18.9 -46.38,28.79 -19.06,19.45" />
  <path
     id="path9704"
     d="m 2764,1194.86 0.73,47.48 -8.74,56.69 -3.41,34.96 -5.3,39.14 -4.78,36.73 -3,30.5 -5.56,92.76 -13.44,118.74 -4.5,23 -3.14,48.73 -9.86,51.77 -11,43 -13.55,26.81"
     style="fill:none;stroke:#ef7e24;stroke-width:5;stroke-linecap:butt;stroke-linejoin:round;stroke-miterlimit:4;stroke-dasharray:none;stroke-opacity:1" />
</svg>
