<?xml version="1.0" encoding="UTF-8" standalone="no"?>
<svg
   xmlns:dc="http://purl.org/dc/elements/1.1/"
   xmlns:cc="http://creativecommons.org/ns#"
   xmlns:rdf="http://www.w3.org/1999/02/22-rdf-syntax-ns#"
   xmlns:svg="http://www.w3.org/2000/svg"
   xmlns="http://www.w3.org/2000/svg"
   xmlns:xlink="http://www.w3.org/1999/xlink"
   viewBox="-25 -25 5600 8000"
   height="8000"
   width="5600"
   id="svg2"
   version="1.1">
  <metadata
     id="metadata8">
    <rdf:RDF>
      <cc:Work
         rdf:about="">
        <dc:format>image/svg+xml</dc:format>
        <dc:type
           rdf:resource="http://purl.org/dc/dcmitype/StillImage" />
        <dc:title></dc:title>
      </cc:Work>
    </rdf:RDF>
  </metadata>
  <defs
     id="defs6" />
  <image
     style="display:none"
     y="-535.66"
     x="-131.16"
     id="image10"
     xlink:href="../basemap/stoosm.png"
     preserveAspectRatio="none"
     height="8607.82"
     width="5853.31" />
  <path
     id="path4506"
     d="m 3564.84,4668.14 -56.17,-24.06 -24.7,-3.89 -39.02,2.38 -15.11,4.59 -43,22.83 -18.01,4.93 -46.06,0.99 -16.94,-3.58 -24.95,-14.42 -77.5,-54.37 -16.22,-7.21 -33.32,-12.05 -13.77,-9.79 -27.08,-26.23 -11.75,-25.25 -11.62,-40.93 -8.5,-18.35 -67.23,-76.42 -9.87,-16.1 -3.67,-17.5 0.25,-26.37 5.39,-48.09 -2.51,-20.87 -11.92,-24.73 -25.99,-40.3 -17.76,-17.28 -50.33,-34.5 -107.42,-119.99 -67.09,-59.4 -12.92,-13.66 -7.44,-17.14 -2.77,-18.54 4.38,-25.43 56.3,-107.43 2.96,-15.04 -0.49,-17.19 -4,-22.25 -14.25,-23 -47.5,-66.25 -20.5,-15.75 -28,-7 -55.25,-15 -18.5,-12.75 -44.75,-60 -12.75,-9.5 -23.5,-11 -51.75,-31.25 -55.25,-65 -25,-13.25 -44.75,-38.5"
     style="fill:none;fill-rule:evenodd;stroke:#0691d2;stroke-width:5;stroke-linecap:butt;stroke-linejoin:round;stroke-miterlimit:4;stroke-dasharray:none;stroke-opacity:1" />
  <path
     id="path4508"
     d="m 2119.98,3649.92 16.03,12.11 12.04,5.13 56.95,11.33 74.51,26.88 24.6,6.59 26.63,0.13 14.36,2.7 20.97,7.02 18.26,10.1 22.67,18.82 33.25,30 11.75,23.45 20.68,80.81 8.61,20.06 25.63,45.96 12.29,13.26 44.79,29.74 74.31,55.85 111.13,68.76 11.13,10.58 6.27,9.91 18.53,57.36 3.32,17.48 -0.66,29.28 -0.1,43.49 3.95,12.22 24.43,42.92 10.98,15.44 13.49,9.18 24.17,7.63 21.9,2.34 61.34,-5.96 24.49,0.1 19.35,6.12 21.86,10.57"
     style="fill:none;fill-rule:evenodd;stroke:#0691d2;stroke-width:5;stroke-linecap:butt;stroke-linejoin:round;stroke-miterlimit:4;stroke-dasharray:none;stroke-opacity:1" />
  <path
     id="path4510"
     d="m 3282,3616.75 34.25,45 16,67.25 1,39.75 -4.5,15 -9,17 -15,16.5 -10.25,15 -6.25,18.75 -1.67,14.81 1.6,12.35 11,34.17 9.3,15.57 15.07,11.96 29.7,14.38 20.25,19.25 10,12 17,31.5 5,11.75 21.75,110.5 8.75,32.25 9.18,44.7 26.26,129.5 4.9,13.94 21.91,30.61 25.75,24.5 31.75,22 61.75,29.25 9,12 10.75,25.75 10,31 0.5,16 -3.25,14 -5.5,9.75 -13.1,9.7 -35.03,21.31 -9.47,1.85 -11.4,0.31 -24.19,-5.01 -16.95,1.54 -9.36,6.46 -5.76,8.1 -4.61,11.67 -5.67,6.96 -20.78,16.32 -5.96,8.7 -1.85,6.64 0.84,13.9 4.41,13.3 8.88,13.95 17.48,20.01 17.27,25.79 11.5,32.5 25.8,31.16 7.09,11.97 3.56,16.71 -0.2,11.91 -4.5,11.5 -11.59,14.1 -12.37,7.11 -18.6,1.31 -24.93,-9.77 -62.36,-22.2 -24.55,-1.92 -24.55,3.48 -88.68,18.85 -31.93,12.76 -17.67,13.77 -42.76,48.27 -28.73,20.23 -30.67,25.86 -18.81,15.18 -25.28,10.23 -46.23,7.67 -92.49,3.28 -17.67,3.67 -51.15,16.64 -17.36,3.62 -95.19,10.14 -29.89,6.82 -26.27,9.16 -28.25,10.5 -22.75,11.5 -27.75,16.5 -11.5,9 -8,10.25 -20.5,31.25 -11.5,10.75 -22.75,10.25 -30.75,11.25 -22.75,5.5 -58,3.5 -21.5,4.75 -16.5,10 -9.5,13 -8.5,14.25 -4.75,22 -5,41.5 -5.79,22.12 -6.71,21.38 -9.5,16.5 -48.75,69.5 -11.75,15 -18.5,15 -12.5,5.25 -4,2 -42.5,2.5 -56.75,4.25 -35,7.5 -45,13.75 -23,12.25 -12,13.81 -10.75,16.39 -4.25,21.55 1.5,17 6,19.5 8.5,20.25 38.75,51.75 13.25,20.75 21,43 6.5,19.5 1,16 -2.5,22.5 -4,16.5 -9.5,22.75 -14.5,19.75 -18,20.25 -17.5,12 -30.5,9.75 -23,2.25 -26.5,-0.25 -35.25,-2.75 -14.5,2.25 -20.5,9.5 -12.75,9.75 -15,19.5 -10.75,18.25 -6.75,19.5 -2.5,21 -4.75,10 -7,9.5 -9.42,12.09 -8.73,8.12 -26.22,9.41 -20.79,4.51 -47.69,0.47 -14.44,-5.3 -47.62,-35.33 -18.09,-12.48 -32.25,-6.5 -117.5,-10.75"
     style="fill:none;fill-rule:evenodd;stroke:#ee1d23;stroke-width:5;stroke-linecap:butt;stroke-linejoin:round;stroke-miterlimit:4;stroke-dasharray:none;stroke-opacity:1" />
  <path
     id="path4512"
     d="m 3147.6,5003.59 -33.5,77.98 -15.31,22.3 -27.2,27.08 -15.1,9.57 -60.24,19.47 -123.21,34.11 -31.63,12.63 -23.38,16.94 -24.03,17.07 -34.25,16.5 -11.75,9 -11.5,11.5 -9.75,15.25 -2.75,11.75 -2.25,16.75 6.5,35.5"
     style="fill:none;fill-rule:evenodd;stroke:#ee1d23;stroke-width:5;stroke-linecap:butt;stroke-linejoin:round;stroke-miterlimit:4;stroke-dasharray:none;stroke-opacity:1" />
  <path
     id="path4516"
     d="m 3625.9,4584.2 24.1,-10.45 42.5,-15 14.5,-7.5 26,-34.5 32.08,-55.4 16.18,-38.85 1.25,-11.75 -11.75,-37.75 -11.25,-38.25 -1.58,-10.17 4.18,-14.19 13.66,-16.14 32.5,-40.75"
     style="fill:none;fill-rule:evenodd;stroke:#ee1d23;stroke-width:5;stroke-linecap:butt;stroke-linejoin:round;stroke-miterlimit:4;stroke-dasharray:none;stroke-opacity:1" />
  <path
     id="path4543"
     d="m 1686.79,4197.24 11.31,-25.1 11.31,-15.56 10.96,-12.37 25.46,-18.74 22.98,-11.67 34.65,-11.31 32.88,-7.42 32.88,-1.41 37.83,2.83 22.63,7.42 16.26,8.84 10.25,9.9 74.6,74.6 27.93,30.76 10.61,19.8 6.72,26.16 1.41,28.28 -2.12,18.38 -4.95,25.81 -1.06,18.03 4.6,18.03 11.31,13.79 10.96,12.73 10.96,7.07 22.63,8.84 36.06,6.72 22.63,7.78 17.68,7.78 36.77,28.28 25.81,18.38 21.57,6.36 17.32,-0.71 21.57,-6.01 48.08,-2.12 h 33.23 l 21.21,6.36 58.69,28.28 20.15,15.2 10.25,6.72 13.44,3.89 42.07,2.47 10.25,1.41 33.23,16.62 136.83,41.72 14.14,6.72 12.02,7.42 9.55,1.06 6.72,-2.47 9.9,-9.9 13.08,-3.18 48.44,12.37 18.03,5.3 16.97,-2.83 36.06,-10.25 45.25,4.6 86.27,28.28 20.51,5.3 26.87,-1.77 95.39,-6.25 16.63,-5.77 9.36,-6.63 12.2,-14.6 5.93,-16.1 18.03,-41.72 24.52,-72.26 7.78,-6.36 104.3,-9.55 20.51,2.12 10.61,4.95 57.98,116.32 3.95,11.85 -0.48,9.13 -2.31,8.13 -4.83,6.04 -20.46,15.95 -7.42,10.44 -2.29,8.07 0.94,14.81 4.39,13.79 9.89,16 17.23,19.67 16.38,24.4 12.37,33.55 25.31,30.8 6.99,11.81 3.4,14.95 4.47,35.91 4.53,21.47 29.68,133.79 21.03,68.73 12.57,54.35 -0.48,7.89 -11.57,20.84 -5.25,23 -6,9.75 -12,6 -26.87,10.88 -10.13,6.12 -9.25,11.75 -6.25,12.75 -2.25,14.5 2,11.75 4,13.5 17.25,26.75 1.25,13.5 -1.5,13 -24.25,45.5 -4.5,13 -1,10.5 1,22.5 -3.5,10.5 -7.5,14.5 -16.5,13.25 -22.75,14.5 -29.75,12.5 -16,4.75 -21,4 -8.75,5.25 -8.75,7.5 -7.25,13.75 -22.5,72.75 -30,45.25 -14.25,27 -13.5,30.5 -14,13.75 -45.75,26.75 -23.5,20.75 -20.5,13.25 -17,7.75 -16.5,2 -15.75,-3.5 -11.25,-4 -13.75,-10 -10.75,-13.75 -8.25,-12.25 -12,-38.25 -13.25,-27.25"
     style="fill:none;fill-rule:evenodd;stroke:#21b259;stroke-width:5;stroke-linecap:butt;stroke-linejoin:round;stroke-miterlimit:4;stroke-dasharray:none;stroke-opacity:1" />
  <path
     id="path4545"
     d="m 3639.03,5162.5 5.29,6.84 4.95,5.21 34.48,12.7 23,17.75 13.75,13.5 3,10.75 -1.75,16.5 -7.25,42.5 2.75,49.5 10.5,39.5 21,62.25 1,15.25 -2.5,39.5 -5.25,15 -6,11.25 -26.25,21.25 -43,42 -9.5,14.5 -7,17 -4.5,20.25 -3,22.25 0.5,17.75 4.25,49.5 -0.25,55 2,9.5 5.5,12.25 11.25,15.75 23,21.25 7,9.5 5.25,11.75 5.25,13.25 4.5,21.25 6.25,60.25 5,21.75 21,40.75 14.5,24.75 8.25,19.5 v 18.25 l 1.75,11.25 4.25,9 33.25,39.5"
     style="fill:none;fill-rule:evenodd;stroke:#21b259;stroke-width:5;stroke-linecap:butt;stroke-linejoin:round;stroke-miterlimit:4;stroke-dasharray:none;stroke-opacity:1" />
  <path
     id="path4547"
     d="m 3720.5,5218.5 15.5,5.5 24.75,-1.25 45.5,-5.25 52.25,0.75 12.75,2.75 12.5,5.75 7.5,6 7.25,8.5 3.75,10.75 3.25,10.75 2.25,19.25 v 14.25 l -2.75,18.25 -8,33 v 14.25 l 2.5,17.25 9,19.75 29.5,42 9.25,11.25 10.25,8 10.25,6.25 49,18 17.25,5.5"
     style="fill:none;fill-rule:evenodd;stroke:#21b259;stroke-width:5;stroke-linecap:butt;stroke-linejoin:round;stroke-miterlimit:4;stroke-dasharray:none;stroke-opacity:1" />
  <path
     id="path4653"
     d="m 3228.37,4526.16 20.13,19.34 34,16 77,22 36,20.5 17.75,15.5 46.5,73 17.5,22 27.25,28 10.75,17.75 11.62,33.75 14.12,51.75 6.5,28.5 -2.25,15.25 -6.75,10.75 -22.75,17.5 -80.5,32.75 -65.5,18.25 -19,11.25 -14.25,13.75 -55.75,95.25 -30.5,34 -36.5,28 -23,25.25 -18.5,31.5 -12.75,37.25 -3.25,57.25 -8,80 -5.75,23.5 -14.25,27 -23,23 -25.36,18.35"
     style="fill:none;fill-rule:evenodd;stroke:#f166a7;stroke-width:5;stroke-linecap:butt;stroke-linejoin:round;stroke-miterlimit:4;stroke-dasharray:none;stroke-opacity:1" />
  <path
     id="path4691"
     d="m 3572.75,4832.25 49.25,21.75 36,14.25 45.75,7 48.75,35 20.75,11 42.75,1.75 16.75,8.5 12.25,11.5 31.25,43.5 15.75,17.25 19,12 50.5,23 11.75,1.75 37,-1 25.25,-2 78.5,-0.75 62.5,-3.5 25.75,-1 13.25,3.25 14.25,7.25 30.75,14.75 35.75,9.5 20.25,3 11.5,-1 36.25,-13.75 22,-3.25 13.25,2.5 17.5,7.25 32,24.75 35.25,22.5 10,4 63.25,16 30.5,9.5 26.25,16.25 25,7.75 15,8 20.75,2.75 15.75,9.75 8,10.75 9.25,10 12.75,5 19.25,2.25 10.5,1.25 15.5,9 11.75,12.25 11.25,5.75 10.25,3 11.5,-0.75 10.25,-2.25 12.5,-7.25 21.5,-24 12.75,-8 14,-3 21.25,2 31.75,0.5 9.5,2 10.25,6.75 15,15.5 8.5,4.5 12.5,3 35.75,-3.75 9.5,-5.5 16.5,-7.25 13.5,-1.25 14.75,2.25 10.5,6.75 30.75,27.75 21.5,26 30.5,29.5 16,10 12.25,3 8,0.5 63.25,-7.75 16,1.75 11.5,8.25 9.25,11.5 18.25,34.75 13,11.25 9,8 34.75,19.5 9.5,10.25 9.5,18.75 5.75,9.25 11.25,8.75 11.5,6 20.75,1.5"
     style="fill:none;fill-rule:evenodd;stroke:#00aaad;stroke-width:5;stroke-linecap:butt;stroke-linejoin:round;stroke-miterlimit:4;stroke-dasharray:none;stroke-opacity:1" />
  <path
     id="path4693"
     d="m 5173.75,5305.75 5.25,14.25 0.75,15 -0.75,20 -3.25,26 -6.5,20 -1,13.25 2.75,9.5 7.75,14.5 10.25,7.5 33,21.75 8.5,13.5 2.75,15 v 13 l -3.75,11.25 -1.75,12.5 3.25,10.75 6.5,13.25 8.75,6.75 12.75,7 39,16 7.5,0.5 21.25,-2"
     style="fill:none;fill-rule:evenodd;stroke:#00aaad;stroke-width:5;stroke-linecap:butt;stroke-linejoin:round;stroke-miterlimit:4;stroke-dasharray:none;stroke-opacity:1" />
  <path
     id="path4732"
     d="m 3827.57,4239.66 67.88,-62.93 11.67,-2.12 13.44,5.3 6.01,7.78 v 8.49 l -0.35,19.45 3.54,8.84 7.42,9.55 24.04,17.32 18.74,5.3 20.86,-0.71 46.67,7.42 16.97,8.49 7.07,12.37 22.63,43.49 8.84,8.49 8.84,8.49 24.4,10.25 22.63,16.97 10.96,11.31 10.25,12.37 24.75,13.79 9.9,12.73 20.51,7.42 19.09,16.26 16.97,7.42 58.69,18.38 h 17.32 l 24.4,-3.54 17.68,-10.25 16.97,-1.41 12.02,1.06 18.38,8.13 19.45,9.55 12.37,4.24 15.91,-0.71 15.91,-4.6 9.19,-4.6 12.02,-12.73 55.51,-53.74 16.62,-7.07 28.28,-6.01 15.2,-8.84 13.08,-14.5 8.49,-5.66 14.85,-3.54 15.56,-7.07 17.32,-20.86 20.51,-12.73 10.25,-10.25 7.78,-19.45 11.31,-9.55 7.78,-5.3 43.49,-10.25 19.8,3.18 h 11.67"
     style="fill:none;fill-rule:evenodd;stroke:#b56631;stroke-width:5;stroke-linecap:butt;stroke-linejoin:round;stroke-miterlimit:4;stroke-dasharray:none;stroke-opacity:1" />
  <text
     x="64.45"
     y="7872.96"
     id="text3765"
     xml:space="preserve"
     style="font-style:normal;font-weight:normal;font-size:144px;line-height:125%;font-family:Sans;-inkscape-font-specification:Sans;letter-spacing:0px;word-spacing:0px;fill:#000000;fill-opacity:1;stroke:none"><tspan
       x="64.45"
       y="7872.96"
       id="tspan2">1985</tspan></text>
  <text
     x="64.45"
     y="181.96"
     id="text3769"
     xml:space="preserve"
     style="font-style:normal;font-weight:normal;font-size:144px;line-height:125%;font-family:Sans;-inkscape-font-specification:Sans;letter-spacing:0px;word-spacing:0px;fill:#000000;fill-opacity:1;stroke:none"><tspan
       x="64.45"
       y="181.96"
       id="tspan1">1985</tspan></text>

  <path
     id="path6975"
     d="m 3828.94,4238.79 -3.78,2.18 -12.29,6.66"
     style="fill:none;fill-rule:evenodd;stroke:#b56631;stroke-width:1px;stroke-linecap:butt;stroke-linejoin:round;stroke-opacity:1" />
</svg>
