<?xml version="1.0" encoding="UTF-8" standalone="no"?>
<svg
   xmlns:dc="http://purl.org/dc/elements/1.1/"
   xmlns:cc="http://creativecommons.org/ns#"
   xmlns:rdf="http://www.w3.org/1999/02/22-rdf-syntax-ns#"
   xmlns:svg="http://www.w3.org/2000/svg"
   xmlns="http://www.w3.org/2000/svg"
   xmlns:xlink="http://www.w3.org/1999/xlink"
   version="1.1"
   width="9300"
   height="11950"
   id="svg2"
   viewBox="-100 0 9300 11950">
  <metadata
     id="metadata8">
    <rdf:RDF>
      <cc:Work
         rdf:about="">
        <dc:format>image/svg+xml</dc:format>
        <dc:type
           rdf:resource="http://purl.org/dc/dcmitype/StillImage" />
        <dc:title></dc:title>
      </cc:Work>
    </rdf:RDF>
  </metadata>
  <defs
     id="defs6" />
  <g
     
     id="g4272"
     style="display:none">
    <image
       xlink:href="basemap/caosm.png"
       width="9570.31"
       height="12304.69"
       preserveAspectRatio="none"
       id="image4235"
       x="-364.31"
       y="-204.69" />
    <image
       xlink:href="basemap/railosm.png"
       style="opacity:0.8"
       width="9570.31"
       height="12304.69"
       preserveAspectRatio="none"
       id="image4234"
       x="-364.31"
       y="-204.69" />
  </g>
  <path
     d="m 970.83,1325.92 -33.11,-6.41 -10.15,-3.74 -17.62,2.67 -22.43,-4.81 -13.35,13.35 -17.09,1.6 -3.2,18.16 -15.49,9.61 -4.81,15.49 -11.75,14.42 -9.08,3.2 -11.22,18.69 -15.49,1.07 -14.95,-2.14 -18.16,16.56 -13.35,4.27 -14.42,-3.74 -8.54,2.67 -6.94,9.08 -4.81,71.56"
     id="path3159-3"
     style="fill:none;stroke:#ff0000;stroke-width:5;stroke-linecap:butt;stroke-linejoin:round;stroke-miterlimit:4;stroke-dasharray:none;stroke-opacity:1" />
  <path
     d="m 1446.22,2743.87 -10.37,-14.14 -6.24,-8.34 -17.12,8.04 -5.07,-3.15 -51.94,-31.04 -16.69,-9.08 -38.45,-20.83 -42.19,-0.53 -29.37,-10.68 -77.97,-33.65 -51.8,-26.7 -72.1,-56.61 -95.6,-74.77 -37.92,-31.51 -24.57,-23.5 -22.96,-26.7 -19.23,-17.62 -29.37,-28.84 -6.94,-13.89 -11.22,-20.29 -26.17,-30.98 -16.56,-10.15 -61.95,-32.04 -10.11,-11.74 -19.54,-22.82 -16.09,-29.9 -25.28,-47.47 -14.85,-9.55 -10.96,-13.44 -10.25,-8.49 -10.25,-15.91 -22.27,-21.57 -5.3,-29.34 8.49,-16.97 12.02,-1.41 12.02,-3.89 7.42,-14.14 0.71,-12.02 31.47,-22.63 1.77,-6.72 -1.77,-10.25 8.84,-10.61 11.67,-14.85 -2.12,-19.45 14.5,-2.12 8.13,-6.01"
     id="path2987"
     style="fill:none;stroke:#ff0000;stroke-width:5;stroke-linecap:butt;stroke-linejoin:round;stroke-miterlimit:4;stroke-dasharray:none;stroke-opacity:1" />
  <path
     d="m 765.56,1810.69 24.76,-10.52 14.95,-16.56 4.81,-11.75 0.53,-12.28 -0.53,-12.82 -19.23,-77.44 -11.75,-36.85 -27.24,-40.59 -20.83,-20.29 -19.76,-21.36 -6.41,-16.02 0,-26.7"
     id="path3159"
     style="fill:none;stroke:#ff0000;stroke-width:5;stroke-linecap:butt;stroke-linejoin:round;stroke-miterlimit:4;stroke-dasharray:none;stroke-opacity:1" />
  <path
     d="m 8530.42,8996.06 19.76,-57.68 0.53,-8.54 3.74,-4.27 8.01,0"
     id="path6033"
     style="fill:none;stroke:#0000ff;stroke-width:5;stroke-linecap:butt;stroke-linejoin:round;stroke-miterlimit:4;stroke-dasharray:none;stroke-opacity:1" />
  <path
     style="fill:none;stroke:#ff0000;stroke-width:5;stroke-linecap:butt;stroke-linejoin:round;stroke-miterlimit:4;stroke-dasharray:none;stroke-opacity:1"
     id="path4161"
     d="m 2033.07,266.88 -24.57,-5.34 -27.24,1.07 -202.94,56.61 -104.68,31.51 -11.22,14.42 -182.65,262.76 -125.5,177.31 -19.76,42.72 -121.77,87.59 -14.42,15.49 -11.75,25.63 -74.77,182.65 -5.34,16.02 1.6,42.72 -10.15,44.86 -31.51,43.26 -0.53,22.96 -4.91,10.44 -13.49,2.52 -34.5,-1.59" />
  <path
     id="path4454"
     d="m 2391.71,1775.67 0.79,-160.17 1,-31.5 1.5,-42 -13,-50 16,-358 0,-17 -57.96,-199.26"
     style="fill:none;fill-rule:evenodd;stroke:#ff0000;stroke-width:5;stroke-linecap:butt;stroke-linejoin:round;stroke-miterlimit:4;stroke-dasharray:none;stroke-opacity:1" />
  <path
     id="path4806"
     d="m 1307,2269.5 20.5,18.5 9,66 72,176 7.5,44.5 5.5,95.5 12.66,41.52 -2.73,10.83"
     style="fill:none;fill-rule:evenodd;stroke:#ff0000;stroke-width:5;stroke-linecap:butt;stroke-linejoin:round;stroke-miterlimit:4;stroke-dasharray:none;stroke-opacity:1" />
  <path
     id="path5206"
     d="m 798.48,1846.01 -4.53,-3.66 -46.16,-13.05"
     style="fill:none;fill-rule:evenodd;stroke:#800000;stroke-width:5;stroke-linecap:butt;stroke-linejoin:round;stroke-miterlimit:4;stroke-dasharray:none;stroke-opacity:1" />
  <path
     id="path5288"
     d="m 765.68,1810.89 -18.74,-2.47 -7.6,0.53"
     style="fill:none;fill-rule:evenodd;stroke:#ff0000;stroke-width:5;stroke-linecap:butt;stroke-linejoin:round;stroke-miterlimit:4;stroke-dasharray:none;stroke-opacity:1" />
  <path
     id="path4884"
     d="m 452.08,1475.25 -1.13,13.03 22.66,22.66 0,9.06 -9.63,13.03 2.27,19.26 4.59,31.04 4.38,15.11 9.96,21.84 15.88,3.01 4.44,14.86 15.47,10.09 20.24,16.29 15.4,13.77"
     style="fill:none;fill-rule:evenodd;stroke:#800080;stroke-width:5;stroke-linecap:butt;stroke-linejoin:round;stroke-miterlimit:4;stroke-dasharray:none;stroke-opacity:1" />
  <path
     style="fill:none;fill-rule:evenodd;stroke:#800000;stroke-width:5;stroke-linecap:butt;stroke-linejoin:round;stroke-miterlimit:4;stroke-dasharray:none;stroke-opacity:1"
     d="m 797.63,1844.03 8.5,31.16 48.72,3.4 48.72,32.86"
     id="path4228" />
  <path
     id="path4229"
     d="m 811.51,1749.71 2.83,-2.55 25.21,-13.31 11.9,-29.46 -6.23,-42.2"
     style="fill:none;fill-rule:evenodd;stroke:#ff0000;stroke-width:5;stroke-linecap:butt;stroke-linejoin:round;stroke-miterlimit:4;stroke-dasharray:none;stroke-opacity:1" />
  <path
     id="path4231"
     d="m 779,1805.11 36.65,10.01 52.07,24.63 12.82,11.62"
     style="fill:none;fill-rule:evenodd;stroke:#ff0000;stroke-width:5;stroke-linecap:butt;stroke-linejoin:round;stroke-miterlimit:4;stroke-dasharray:none;stroke-opacity:1" />
  <text
     xml:space="preserve"
     style="font-style:normal;font-weight:normal;font-size:144px;line-height:125%;font-family:Sans;-inkscape-font-specification:Sans;letter-spacing:0px;word-spacing:0px;fill:#000000;fill-opacity:1;stroke:none;stroke-width:2px;stroke-linecap:butt;stroke-linejoin:round;stroke-opacity:1"
     x="-10.55"
     y="11847.96"
     id="text4994-7-3"><tspan
       id="tspan4996-9-6"
       x="-10.55"
       y="11847.96">1885</tspan></text>
  <text
     xml:space="preserve"
     style="font-style:normal;font-weight:normal;font-size:144px;line-height:125%;font-family:Sans;-inkscape-font-specification:Sans;letter-spacing:0px;word-spacing:0px;fill:#000000;fill-opacity:1;stroke:none;stroke-width:2px;stroke-linecap:butt;stroke-linejoin:round;stroke-opacity:1"
     x="-10.55"
     y="206.96"
     id="text4994-7-3-7"><tspan
       id="tspan4996-9-6-5"
       x="-10.55"
       y="206.96">1885</tspan></text>
  <path
     style="fill:none;stroke:#ff0000;stroke-width:5;stroke-linecap:butt;stroke-linejoin:round;stroke-miterlimit:4;stroke-dasharray:none;stroke-opacity:1"
     id="path4258"
     d="M 652.86,1865.35 641.85,1876" />
  <path
     style="fill:none;stroke:#ff0000;stroke-width:5;stroke-linecap:butt;stroke-linejoin:round;stroke-miterlimit:4;stroke-dasharray:none;stroke-opacity:1"
     id="path4260"
     d="m 1308.89,2276.54 1.6,-4.27 -6.94,-10.15 -35.78,-11.75 -20.29,-13.35 -64.62,-69.96 -69.96,-77.97 -75.84,-82.78 -76.9,-84.38 -30.98,-34.71 -49.51,-36.24" />
  <path
     d="m 7354.1,8844.64 -24.54,0.05 -14.6,-4.88 -21.66,-0.17 -8.76,-2.53 -25.05,1.03 -5.97,10.58 0.54,36.24 -16.22,26.39 -32.02,5.64 -15.39,-4.2 -22.32,12.24 -0.21,9.26 -9.04,9.47 -2.53,12.22 -17.25,19.17 -1.25,12.23 -12.98,13.1"
     id="path4821"
     style="fill:none;stroke:#000080;stroke-width:5;stroke-linecap:butt;stroke-linejoin:round;stroke-miterlimit:4;stroke-dasharray:none;stroke-opacity:1" />
  <path
     style="fill:none;fill-rule:evenodd;stroke:#ff00ff;stroke-width:5;stroke-linecap:butt;stroke-linejoin:round;stroke-miterlimit:4;stroke-dasharray:none;stroke-opacity:1"
     d="m 514.96,1710.34 -10.2,-7.36 -13.03,-2.27 -9.06,-15.29 -35.69,-35.69 -2.27,-36.25 5.66,-13.03 -13.6,-44.75"
     id="path4884-3" />
  <path
     style="fill:none;fill-rule:evenodd;stroke:#ff00ff;stroke-width:5;stroke-linecap:butt;stroke-linejoin:bevel;stroke-miterlimit:4;stroke-dasharray:none;stroke-opacity:1"
     d="m 437.92,1555.69 -28.89,-41.92 -19.83,-29.46"
     id="path5001" />
  <path
     style="fill:none;stroke:#800000;stroke-width:5;stroke-linecap:butt;stroke-linejoin:round;stroke-miterlimit:4;stroke-dasharray:none;stroke-opacity:1"
     id="path3159-36"
     d="m 1215.96,2363.06 34.71,22.96 55.01,64.62 -6.41,87.59 1.07,30.98 48.6,87.05 0.53,26.17 10.01,9.08 47.66,29.07 10.01,27.64" />
  <path
     style="fill:none;fill-rule:evenodd;stroke:#800000;stroke-width:5;stroke-linecap:butt;stroke-linejoin:round;stroke-miterlimit:4;stroke-dasharray:none;stroke-opacity:1"
     d="m 1216.5,2363.5 -16.5,-12.5 -19,-20.5 -15,-86 -85,-95.5 -73,-103 -28,-56.5 -40.39,-30.16 -17.89,-29.24 -18.86,-19.05"
     id="path4731" />
  <path
     d="m 879.66,1850.97 -27.92,-10.76 -37.92,-17.09 -18.16,-3.9 -30.1,-8.54"
     id="path3159-367"
     style="fill:none;stroke:#ff0000;stroke-width:5;stroke-linecap:butt;stroke-linejoin:round;stroke-miterlimit:4;stroke-dasharray:none;stroke-opacity:1" />
</svg>
