<?xml version="1.0" encoding="UTF-8" standalone="no"?>
<svg
   version="1.1"
   width="9300"
   height="11950"
   id="svg2"
   viewBox="-100 0 9300 11950"
   xmlns:xlink="http://www.w3.org/1999/xlink"
   xmlns="http://www.w3.org/2000/svg"
   xmlns:svg="http://www.w3.org/2000/svg"
   xmlns:rdf="http://www.w3.org/1999/02/22-rdf-syntax-ns#"
   xmlns:cc="http://creativecommons.org/ns#"
   xmlns:dc="http://purl.org/dc/elements/1.1/">
  <metadata
     id="metadata8">
    <rdf:RDF>
      <cc:Work
         rdf:about="">
        <dc:format>image/svg+xml</dc:format>
        <dc:type
           rdf:resource="http://purl.org/dc/dcmitype/StillImage" />
      </cc:Work>
    </rdf:RDF>
  </metadata>
  <defs
     id="defs6" />
  <g
     id="g4272"
     style="display:none">
    <image
       xlink:href="basemap/caosm.png"
       y="-204.69"
       x="-364.31"
       id="image4235"
       preserveAspectRatio="none"
       height="12304.69"
       width="9570.31" />
    <image
       xlink:href="basemap/railosm.png"
       y="-204.69"
       x="-364.31"
       id="image4234"
       preserveAspectRatio="none"
       height="12304.69"
       width="9570.31"
       style="opacity:0.8" />
  </g>
  <path
     style="fill:none;stroke:#ff0000;stroke-width:5;stroke-linejoin:round;stroke-dasharray:none;stroke-opacity:1"
     d="m 8538.36,9000.71 -2.49,-3.68 5.84,-24.44 4.36,-1.67 7.59,-8.09 0.22,-37.27 29.51,-0.69"
     id="path19536" />
  <path
     style="fill:none;stroke:#ff0000;stroke-width:5;stroke-linejoin:round;stroke-opacity:1;stroke-dasharray:none"
     d="m 8466.28,8932.28 -0.28,16.78 -41.27,40.68 -2.78,-0.01 -0.35,38.71 2.42,5.54 0.19,15.37 4.85,-0.17 13.33,41.72 8.41,19.09 13.33,16.37 1.53,3.14 -0.3,3.89 4.49,7.28"
     id="path395" />
  <path
     id="path5695"
     d="m 8598.49,8924.73 10.55,0.07 6.75,22.56 h 38.54 l 8.13,15.2 v 14.85 h 94.75 v 42.78"
     style="fill:none;fill-rule:evenodd;stroke:#ff0000;stroke-width:5;stroke-linecap:butt;stroke-linejoin:round;stroke-miterlimit:4;stroke-dasharray:none;stroke-opacity:1" />
  <path
     id="path5693"
     d="m 7287.49,8910.95 -7.78,-15.91 -4.24,-5.66 0,-10.61 5.66,-1.77 -0.71,-28.28 -31.82,-0.35"
     style="fill:none;fill-rule:evenodd;stroke:#ff0000;stroke-width:5;stroke-linecap:butt;stroke-linejoin:round;stroke-miterlimit:4;stroke-dasharray:none;stroke-opacity:1" />
  <path
     d="m 652.86,1865.35 -11,10.65 0.53,2.67 8.01,9.08 4.27,12.28 -4.27,33.11 -3.74,49.13 -6.94,14.95 0,37.38 6.94,13.89 11.22,16.56 -1.07,5.87 -28.31,39.52 -6.41,17.09 0,15.74 7.48,21.35 15.21,27.69 19.54,22.82 10.11,11.74 61.95,32.04 16.56,10.15 26.17,30.98 11.22,20.29 6.94,13.89 29.37,28.84 19.23,17.62 22.96,26.7 24.57,23.5 37.92,31.51 95.6,74.77 72.1,56.61 51.8,26.7 77.97,33.65 29.37,10.68 42.19,0.53 38.45,20.83 16.69,9.08 46.33,31.04 10.67,8.53 3,21.34 8.22,10.65 14.42,4.27 21.9,35.25 22.96,13.35 24.57,10.15 20.83,26.7 33.65,27.77 92.39,64.62 68.36,84.92 86.52,102.54 50.2,64.62 77.97,181.58 17.02,31.92 20.5,23 1.5,7.5 -11,73 3,23 -3,8.5 -12,8.5 -5,9 0,17.5 -1.5,3 -28,-3 -15,-5 -18.5,2.5 -15,-6 -13,-9.5 -8,0 -7.5,-3.5 -8.5,14.5 -1,14 -5.5,6 -24,3 -90.5,-20 -46,11 -8.5,9 2,38.5 -2,8 -12.5,11.5 -3,16 5.5,17 17,10 6,7.5 0,10.5 -14.5,52 -11.5,17.5 28.5,116.5 56.5,75 80,36.5 15,24 138,124.5 84.5,102 123,124 149.5,120.5 41.5,17.5 46.5,11.5 18,12 9,31.5 10,11 4,18 11.5,13.5 20.5,6.5 22.5,15.5 7.5,24 17,9 9,22.5 19,18 22.5,32.5 44.5,148.5 20,29.5 75,30.5 5.5,9 4.5,23 46,71.5 7,7 32.5,16.5 13.5,25 11,8 19,-0.5 39.5,36 41.5,52 11.5,29 60,111.5 -2.5,12 27.5,54 -4.5,31 8.5,23.5 27.5,14.5 13,37 -1.5,22 3.5,10 8.5,2 36.5,28.5 55,4.5 21.5,23 7,37 -7.5,24 11.5,27 22,20 11,19.5 44,33.5 3.5,11.5 -2.5,36 -6.5,14 14,43.5 -1,25 0,10 -5,22 3,17 -3,22 0,9 9,11.5 4.5,56.5 -7,29 -1,34.5 0,27.5 -7,29.5 -18,33 -2.5,11 5,7.5 11,7 32,22 11,8 14.5,18 19,11.5 12,35 15.5,7.5 6.5,23.5 14.5,16.5 13,18 10,22 -2,76 -22.5,14.5 -15.5,2.5 -7.5,14.5 -8,6 -0.5,10 6,6.5 5,45.5 -5,8 17.5,23.5 -1.5,4.5 -10,-2 -20.5,-22 -11.5,-1 -2,-6 0,-8 -2,-1.5 -16,15.5 -12,-2 -4,4.5 -2,14.5 -4,1 -15.5,-13.5 -4,5.5 18.5,16 5,12 14,9.5 7,24 16.5,27 1.5,11.5"
     id="path2987"
     style="fill:none;stroke:#ff0000;stroke-width:5;stroke-linecap:butt;stroke-linejoin:round;stroke-miterlimit:4;stroke-dasharray:none;stroke-opacity:1" />
  <path
     d="m 1308.89,2276.54 1.6,-4.27 -6.94,-10.15 -35.78,-11.75 -20.29,-13.35 -64.62,-69.96 -69.96,-77.97 -75.84,-82.78 -76.9,-84.38 -30.98,-34.71 -49.51,-36.24 -27.92,-10.76 -37.92,-17.09 -18.16,-3.9 -30.1,-8.54 24.76,-10.52 14.95,-16.56 4.81,-11.75 0.53,-12.28 -0.53,-12.82 -19.23,-77.44 -11.75,-36.85 -27.24,-40.59 -20.83,-20.29 -19.76,-21.36 -6.41,-16.02 0,-26.7"
     id="path3159"
     style="fill:none;stroke:#ff0000;stroke-width:5;stroke-linecap:butt;stroke-linejoin:round;stroke-miterlimit:4;stroke-dasharray:none;stroke-opacity:1" />
  <path
     d="m 3358.07,6708.69 -2.14,7.48 16.56,22.43 20.29,28.3 17.09,16.02 2.67,6.94 -3.2,18.16 10.68,48.6 5.34,7.48 -2.67,14.95 -6.94,6.94 -3.2,11.22 -8.01,19.23 -14.95,10.15 3.74,8.01 0.53,9.61 -4.81,8.01 4.81,38.45 8.01,34.18 13.89,19.23 36.85,30.44 2.14,11.22 -5.87,10.15 -5.34,12.82 8.54,63.02 42.72,83.85 0.53,21.36 -9.08,20.29 -2.67,6.94 -0.53,42.72 11.75,19.23 5.87,4.81 -2.14,19.76 50.2,50.74 25.63,16.56 0.53,14.42 -3.74,8.54 -6.94,2.14 -2.14,16.56 4.81,9.08 -2.67,8.01 4.27,21.9 -28.84,9.61 -20.29,13.35 -43.26,-21.36 -18.16,1.6 -10.68,42.19 -6.94,16.02 -14.95,27.24 -4.27,41.66 7.48,11.75 -1.6,13.35 -7.48,23.5 4.27,11.75 8.01,8.01 5.87,27.24 6.41,7.48 5.34,32.58 -13.35,29.91 -4.27,12.82 4.27,15.49 -16.56,21.9 0,14.95 -16.56,25.1 -13.35,41.66 -6.41,22.43 1.07,20.29 -8.01,13.35 14.95,37.92 18.69,6.41 61.42,1.6 49.13,33.11 25.1,8.54 35.25,25.1 18.16,22.96 1.6,13.89 13.35,28.84 18.16,15.49 27.24,46.46 14.42,10.15 52.87,-3.2 26.17,-6.41 90.26,-4.81 18.16,-9.61 19.23,0 26.17,-14.42 16.02,-1.07 20.83,9.61 114.82,-8.01 61.42,2.14 50.2,-7.48 65.16,24.03 21.36,1.07 13.89,-5.87 80.11,3.74 35.25,9.61 38.45,24.57 32.58,11.75 57.14,4.81 21.9,6.41 32.04,-2.67 34.71,-6.94 77.44,-8.01 56.08,0 27.77,11.75 20.29,12.82 24.03,3.74 31.51,27.24 22.96,-4.27 43.79,-16.02 26.17,6.94 33.11,-2.14 29.37,-2.14 35.78,14.42 28.31,-2.67 21.9,16.02 30.44,10.68 15.49,22.43 46.46,11.22 43.26,17.62 26.17,30.98 18.69,1.6 61.95,64.09 10.68,3.2 18.69,-1.6 38.99,31.51 18.16,26.17 36.85,24.57 35.25,1.07 65.69,38.99 35.25,16.56 28.84,-3.74 36.32,22.96 8.01,22.96 -0.53,47.53 6.41,4.27 194.4,1.07 5.34,-5.87 12.82,-28.84 34.71,-39.52 11.75,-22.96 47,-33.65 66.76,-10.68 28.31,-16.02 41.66,-9.08 40.05,0.53 29.91,-12.82 10.15,0.53 18.16,8.54 27.24,1.6 13.35,10.68 16.02,1.6 23.5,10.68 23.5,5.34 95.6,0 13.89,10.68 25.1,2.67 18.16,6.41 12.28,-1.07 5.87,-9.61 43.26,6.94 12.82,-4.27 1.07,-9.08 6.41,-3.74 8.54,0.53 5.34,4.81 -0.53,41.12 8.54,12.28 292.13,71.56 130.31,30.44 64.09,50.74 14.95,23.5 17.62,45.39 27.77,27.77 8.01,20.29 13.35,11.22 2.14,16.02 2.67,19.47 -14.16,9.8 -3.25,11.49 -0.75,11.58"
     id="path5983"
     style="fill:none;stroke:#ff0000;stroke-width:5;stroke-linecap:butt;stroke-linejoin:round;stroke-miterlimit:4;stroke-dasharray:none;stroke-opacity:1" />
  <path
     d="m 6985.46,8771.47 -81.93,-66.99 -156.42,-170.26 -24.44,-4.89 -19.55,-20.37 -22.81,-56.21 -9.78,-13.85 2.44,-20.37 -24.44,-34.22 -1.63,-26.88 -2.44,-26.07 6.52,-3.26 13.03,13.85 9.78,3.26 29.33,-13.03 27.7,-2.44 17.92,20.37 16.29,2.44 47.25,-2.44 26.88,-22.81 17.92,-1.63 22.81,-13.85 11.41,4.07 23.63,-8.15 26.88,8.15 13.03,-13.03 33.4,-8.96 59.47,-1.63 7.33,4.07 36.66,-4.07 13.85,6.52 39.92,0 13.03,-17.11 19.55,-17.92 4.89,-22 13.85,-6.52 20.37,2.44 20.37,-19.55 20.37,0.81 12.22,-7.33 33.4,-24.44 10.59,-28.51 32.59,-21.18 -2.44,-6.52 -17.11,-7.33 -20.37,-41.55 -0.81,-33.4 -30.96,-241.96"
     id="path3066"
     style="fill:none;stroke:#ff0000;stroke-width:5;stroke-linecap:butt;stroke-linejoin:round;stroke-miterlimit:4;stroke-dasharray:none;stroke-opacity:1" />
  <path
     style="fill:none;stroke:#ff0000;stroke-width:5;stroke-linecap:butt;stroke-linejoin:round;stroke-miterlimit:4;stroke-dasharray:none;stroke-opacity:1"
     id="path4161"
     d="m 2520.5,-205.5 -13,17 -33.5,24.5 -13.5,5.5 -47,79.5 -19.5,7 -45,31 -36,54.5 -184.45,218.35 -8.21,13.03 -2.27,23.79 -3.12,5.1 -7.93,3.4 -44.75,-15.86 -15.85,2.91 -13.35,2.67 -24.57,-5.34 -27.24,1.07 -202.94,56.61 -104.68,31.51 -11.22,14.42 -182.65,262.76 -125.5,177.31 -19.76,42.72 -121.77,87.59" />
  <path
     id="path4268"
     d="m 9207,9265.5 -26.5,1.5 -15.5,-6.5 -72.5,0 -16,3.5 -27.5,-18 -10,-16.5 -29.5,-0.5 -29.5,2 -18,-8 -36.5,-39 -19.5,-15.5 -12.5,3 -9.5,-5.5 -11.5,-1.5 -9,-7.5 -15,3.5 -12,-8.5 -11,-0.5 -16.5,-9.5 -6,-9 -10,-1 -17,-26 -14,-7 -13,-15 -21,-9.5 -12.5,-15 -11.5,-3.5 -12,-16.5 -6.5,-2.5 -19.5,-13 -137,-25 -47.5,-5.5 -345.5,11 -161.96,1.01 -145.54,3.49 -30.5,3 -9.5,4 -30.5,46.5 -17,19.5 -14.5,7 -39,28.5 -15.5,1.5 -89.5,-17 -15,-6 -27.5,-28.5 -114,-92.5 -77.5,-33 -13.5,-3 -10.5,1.5 -64,32.5 -28.5,3.5 -14.5,9 -13.5,17.5 -4.5,3 -32,-6.5 -36,7.5 -13.52,3.3"
     style="fill:none;fill-rule:evenodd;stroke:#ff0000;stroke-width:5;stroke-linecap:butt;stroke-linejoin:round;stroke-miterlimit:4;stroke-dasharray:none;stroke-opacity:1" />
  <path
     id="path4387"
     d="M 1671.49,351.42 1628.36,170.4 1627.65,62.21 1408.44,-205.78"
     style="fill:none;fill-rule:evenodd;stroke:#ff0000;stroke-width:5;stroke-linecap:butt;stroke-linejoin:round;stroke-miterlimit:4;stroke-dasharray:none;stroke-opacity:1" />
  <path
     id="path4452"
     d="m 1075.5,1376 37,0 132,-44.5 8,-1.5 53,20.5 98,31.5 37,0 63,26 137.5,34.5 15,10.5 226,313 199,158 78,29.5"
     style="fill:none;fill-rule:evenodd;stroke:#ff0000;stroke-width:5;stroke-linecap:butt;stroke-linejoin:round;stroke-miterlimit:4;stroke-dasharray:none;stroke-opacity:1" />
  <path
     id="path4454"
     d="m 1301,2261.5 14,-5.5 1.5,-15 15.5,-8.5 12.5,-15 13,-1 3.5,3.5 0,8.5 4.5,-1 13,-12 10,1 11.5,9 13,-6 20.5,5 11.5,-9.5 8.5,-6 -3,-15.5 -19.5,-55 37,-51 16,-7 112.5,-14 52,-20.5 84,-45.5 8.5,-27.5 27.5,0 7,-13.5 5.5,-6.5 -0.5,-10.5 16,-9.5 18.5,8.5 24,-7.5 5.5,0 -2,10 3,8.5 8,3 26,-3 11,15 7,3.5 6.5,-2.5 11.5,7 21.5,-9.5 10.5,23.5 30,6 11.5,-3 49.5,6 16.5,-5.5 20.5,0 107,-51.5 73,-34.5 56,-49.5 70,-27 10,-12.5 1,-202.5 1,-31.5 1.5,-42 -13,-50 16,-358 0,-17 -105,-361 -115,-394.5 -27.5,-47.5 -8,-31 -25.33,-13.2"
     style="fill:none;fill-rule:evenodd;stroke:#ff0000;stroke-width:5;stroke-linecap:butt;stroke-linejoin:round;stroke-miterlimit:4;stroke-dasharray:none;stroke-opacity:1" />
  <path
     id="path4517"
     d="m 2392.5,1778 20.5,2.5 218,163 191,201 10.5,26.5 12,14.5 298,333.5 61.5,66 23.5,34 12,9.5 415,191 18.5,15 597,614 196,237 41,25.5 60.5,52 155,176.5 75,84 294,334.5 38.5,20.5 12,17.5 139,262 90,169 189.5,1024.5 74,376 14,30 31.5,33 217.5,200 23,18 41,12.5"
     style="fill:none;fill-rule:evenodd;stroke:#ff0000;stroke-width:5;stroke-linecap:butt;stroke-linejoin:round;stroke-miterlimit:4;stroke-dasharray:none;stroke-opacity:1" />
  <path
     id="path4519"
     d="m 5961.5,6520.5 321,93 14,-8 59.5,8.5 24,3 19.5,20 18,5 27.5,19.5 3.5,8.5 21.5,-4 32.5,16.5 16,-4.5 0.5,9.5 -17.5,5.5 -11,-4.5 -12.5,6.5 -6,-1 13.5,9.5 -2.5,11 20,-8 12,9.5 5.5,10 5.5,2.5 -3,-11.5 4,-4 17,11 13.5,0 6.5,12.5 -0.5,13.5 19,8 13.5,32 22,4.5 6,27.5 9,16.5 19.5,-1 5.5,7.5 -8,4.5 2.5,7 27,10.5 22,18 26,7.5 12.5,8 12,17.5 -1.5,18.5 6.5,20.5 -8,6.5 9.5,11.5 166,29 21.5,-2.5 67.5,46.5 52,-14 26,-0.5 30,-13.5 16,-10.5 23.5,10 17.5,-8 12.5,8.5 11,44.5 0,14.5 17.5,67.5"
     style="fill:none;fill-rule:evenodd;stroke:#ff0000;stroke-width:5;stroke-linecap:butt;stroke-linejoin:round;stroke-miterlimit:4;stroke-dasharray:none;stroke-opacity:1" />
  <path
     id="path4521"
     d="m 7218,7145 38.5,147 -3.5,108.5 -24,47.5 0,10 45.5,350"
     style="fill:none;fill-rule:evenodd;stroke:#ff0000;stroke-width:5;stroke-linecap:butt;stroke-linejoin:round;stroke-miterlimit:4;stroke-dasharray:none;stroke-opacity:1" />
  <path
     id="path4586"
     d="m 8598.49,8924.73 -15.1,0.14 0.06,23.95 -14.95,19.67 -29,29 -10.57,66.71 -16.38,22.45 -16.97,31.11 -21.21,24.4 -9.02,-2.99 -42.59,74.05 -10.96,15.91 -67.18,44.55"
     style="fill:none;fill-rule:evenodd;stroke:#ff0000;stroke-width:5;stroke-linecap:butt;stroke-linejoin:round;stroke-miterlimit:4;stroke-dasharray:none;stroke-opacity:1" />
  <path
     id="path4658"
     d="m 7353.5,9286.5 -105,-70.5 -19.5,-7 -95,-9.5 -8.5,-8 -9.5,-43 -3,-51 4.27,-79.42"
     style="fill:none;fill-rule:evenodd;stroke:#ff0000;stroke-width:5;stroke-linecap:butt;stroke-linejoin:round;stroke-miterlimit:4;stroke-dasharray:none;stroke-opacity:1" />
  <path
     id="path4806"
     d="m 1307,2269.5 20.5,18.5 9,66 72,176 7.5,44.5 5.5,95.5 12.66,41.52 -2.73,10.83 -19.62,11.05"
     style="fill:none;fill-rule:evenodd;stroke:#ff0000;stroke-width:5;stroke-linecap:butt;stroke-linejoin:round;stroke-miterlimit:4;stroke-dasharray:none;stroke-opacity:1" />
  <path
     id="path4881"
     d="m 627.8,2160.2 -24.4,-45.25 -14.85,-9.55 -10.96,-13.44 -10.25,-8.49 -10.25,-15.91 -22.27,-21.57 -5.3,-29.34 8.49,-16.97 12.02,-1.41 12.02,-3.89 7.42,-14.14 0.71,-12.02 31.47,-22.63 1.77,-6.72 -1.77,-10.25 8.84,-10.61 11.67,-14.85 -2.12,-19.45 14.5,-2.12 8.13,-6.01"
     style="fill:none;fill-rule:evenodd;stroke:#ff0000;stroke-width:5;stroke-linecap:butt;stroke-linejoin:round;stroke-miterlimit:4;stroke-dasharray:none;stroke-opacity:1" />
  <path
     id="path4883"
     d="m 1315.46,2888.87 -20.86,61.52"
     style="fill:none;fill-rule:evenodd;stroke:#ff0000;stroke-width:5;stroke-linecap:butt;stroke-linejoin:round;stroke-miterlimit:4;stroke-dasharray:none;stroke-opacity:1" />
  <path
     id="path4889"
     d="m 1664.5,3864.5 -10,13 -51,32 -16.5,32.5 3.5,21.5 -13,24 -4,12.5 -24.5,38 -0.5,22 0,9 -23,27 -13,20.5 -10.5,24.5 -14.5,11.5 -43,19 -13.5,-4 -3,-17.5 -17.5,-22"
     style="fill:none;fill-rule:evenodd;stroke:#ff0000;stroke-width:5;stroke-linecap:butt;stroke-linejoin:round;stroke-miterlimit:4;stroke-dasharray:none;stroke-opacity:1" />
  <path
     id="path4965"
     d="m 1045,2553.5 -2.5,9.5 16,52.5 27.5,43.5 89.5,85 28.5,76 56,33.5 51.87,29.83 4.07,8.05"
     style="fill:none;fill-rule:evenodd;stroke:#ff0000;stroke-width:5;stroke-linecap:butt;stroke-linejoin:round;stroke-miterlimit:4;stroke-dasharray:none;stroke-opacity:1" />
  <path
     id="path5206"
     d="m 911.7,1873.11 -5.66,12.37 -6.72,0.35 -9.55,-7.42 -32.11,-16.27 -22.66,0 -33.52,0.47"
     style="fill:none;fill-rule:evenodd;stroke:#ff0000;stroke-width:5;stroke-linecap:butt;stroke-linejoin:round;stroke-miterlimit:4;stroke-dasharray:none;stroke-opacity:1" />
  <path
     style="opacity:1;fill:none;stroke:#ff6600;stroke-width:5;stroke-linejoin:round;stroke-miterlimit:4;stroke-dasharray:none"
     d="m 734.47,1785.37 95.52,-15.6 5,-14.01 -2.7,-26.88 -5.33,-30.39 -2.42,-35.08 5.79,-11.71"
     id="path922" />
  <path
     id="path5288"
     d="m 765.68,1810.89 -18.74,-2.47 -7.6,0.53"
     style="fill:none;fill-rule:evenodd;stroke:#ff0000;stroke-width:5;stroke-linecap:butt;stroke-linejoin:round;stroke-miterlimit:4;stroke-dasharray:none;stroke-opacity:1" />
  <path
     style="fill:none;fill-rule:evenodd;stroke:#ff0000;stroke-width:5;stroke-linecap:butt;stroke-linejoin:round;stroke-miterlimit:4;stroke-dasharray:none;stroke-opacity:1"
     d="m 6882,9457.5 -1,-28.5 -2,-14 18,-11 19,-8 14.92,-26.48 5.21,-0.32 14.37,-0.7 26.5,-21.59 55,0.09 -0.5,-26.5 18,-7.5 V 9261.5 l 39,-18 13.88,-0.5 4.62,-3.5"
     id="path3995" />
  <path
     style="fill:none;fill-rule:evenodd;stroke:#ff0000;stroke-width:5;stroke-linecap:butt;stroke-linejoin:round;stroke-miterlimit:4;stroke-dasharray:none;stroke-opacity:1"
     d="m 7058.25,9256.75 -25.27,-0.63 -0.59,1.04 -0.39,63.84"
     id="path5371" />
  <path
     style="fill:none;fill-rule:evenodd;stroke:#ff0000;stroke-width:5;stroke-linecap:butt;stroke-linejoin:round;stroke-miterlimit:4;stroke-dasharray:none;stroke-opacity:1"
     d="m 8789.58,11528.3 33.59,25.1 19.8,11.31 20.15,16.97 20.86,52.68 27.58,95.46 0,32.17 7.42,9.55 81.32,61.52 20.7,17.93 4,11 14,13 9,18.5 8,-1.5 17.5,3"
     id="path4283" />
  <path
     id="path4198"
     d="m 7098.98,9042.15 14.62,-22.83 13.02,4.41 26.04,-7.21 13.02,3 7.01,-6.41 8.01,-12.22 5.01,-25.44 8.21,-13.62 13.02,-0.8 14.82,-7.01 10.41,-1 10.01,-9.81 3.81,-13.22 6.41,-1.8 0.4,-28.64 -3.2,-17.22 v -40.06 l 1,-68.7 4.81,-12.42 26.04,8.41 0.8,-12.22 20.03,-18.83"
     style="fill:none;fill-rule:evenodd;stroke:#ff0000;stroke-width:5;stroke-linecap:butt;stroke-linejoin:round;stroke-miterlimit:4;stroke-dasharray:none;stroke-opacity:1" />
  <path
     id="path4317"
     d="m 7165.9,9019.53 13.6,-2.83 17.56,2.83 24.92,-14.16 h 14.16 l 24.92,-15.86 152.38,-3.97 52.12,-3.4 84.4,-22.66 120.09,-0.57 33.44,0.59 46.5,-25 54.5,-0.5 47.5,14 15.5,-6 73,-1 39.5,-5 51,-1 12.5,-1 h 17.5 l 27,-18.5 22,-28 75.5,-0.5 77.5,0.5 56.5,36.5 10.5,7.5 174.5,1 78.84,-0.86"
     style="fill:none;fill-rule:evenodd;stroke:#ff0000;stroke-width:5;stroke-linecap:butt;stroke-linejoin:round;stroke-miterlimit:4;stroke-dasharray:none;stroke-opacity:1" />
  <path
     d="m 9208.5,7488.5 -53,-5 -48,-24.5 -9.5,2 -46.5,-16 -17.5,-25.5 -33,-6.5 -85.5,31.5 -107,51.5 -60,55.5 v 19 l -27.5,29.5 -80,38.5 -17.5,2.5 -75,54 -27,59.5 -22.5,107 v 43.5 l 9.5,73.5 13.5,28.5 3.5,26.5 21.5,12 27,58 20,18 11,49 -6,13 7,58 -27,37 -17.5,100 -5,17.5 -15,22 -68,23.5 -10.5,11.5 -33,14 -28.5,34.5 -19.5,5 -11.5,0.5 -3,-10 -13,-12.5 -25,16.5 -32,9 -16,19.5 41.5,30.5 7.5,9.5 1.5,43 -25,17 6.5,18 30.5,20.5 5.5,7.5 49.5,35.5 15,5 15,19.5 22.5,6.5 95,121 21,18 -1.5,40 h -15 l -0.82,17.38 -19.76,57.68 -7.48,73.17 -0.53,23.5 -4.81,10.15 -40.05,49.13 -20.29,30.44 -4.52,6.35 -8.9,5.75 -6.87,9.26 -52.87,-2.14 -17.62,-18.16 -12.28,-9.61 -34.18,6.94 -8.54,-1.6 -6.94,-5.87 -10.15,-30.44 -8.01,-17.09 -100.94,-58.75 -140.99,-57.14 h -98.27 l -126.57,4.81 -22.96,9.61 -65.69,81.71 -41.12,19.76 -72.1,2.67 -14.42,-6.41 -71.03,-33.65 -38.45,-20.83 -20.29,-4.27 -32.58,4.27 -48.6,39.52 -13.89,9.08 -26.7,-2.14 -178.38,-16.02 -29.13,-11.06 -6.25,-10.75 -4.1,-30.44 -13.33,-6.7 0.91,-7.77"
     id="path6037"
     style="fill:none;stroke:#f0b000;stroke-width:5;stroke-linecap:butt;stroke-linejoin:round;stroke-miterlimit:4;stroke-dasharray:none;stroke-opacity:1" />
  <path
     id="path4202"
     d="m 7252.86,8928.89 15.29,-2.55 33.99,-24.64 52.68,-20.68 42.49,-6.51 19.54,0.57 15.29,-20.96 31.16,-1.98 42.49,0.28 62.6,0 54.1,11.61 12.18,-1.98 17.56,-0.57 20.96,-4.25 5.1,0.57 15.86,0.85"
     style="fill:none;fill-rule:evenodd;stroke:#ff0000;stroke-width:5;stroke-linecap:butt;stroke-linejoin:round;stroke-miterlimit:4;stroke-dasharray:none;stroke-opacity:1" />
  <path
     id="path4204"
     d="m 7242.1,8942.49 9.91,1.98 6.23,2.83 8.5,2.55 16.71,-2.55 27.76,-17.84 55.8,-1.42 33.14,-7.36"
     style="fill:none;fill-rule:evenodd;stroke:#ff0000;stroke-width:5;stroke-linecap:butt;stroke-linejoin:round;stroke-miterlimit:4;stroke-dasharray:none;stroke-opacity:1" />
  <path
     id="path4206"
     d="m 7319.99,8895.18 0,-7.08 8.21,-11.61 -0.85,-32.01 10.76,-9.91 4.25,-15.58 60.05,-0.28"
     style="fill:none;fill-rule:evenodd;stroke:#ff0000;stroke-width:5;stroke-linecap:butt;stroke-linejoin:round;stroke-miterlimit:4;stroke-dasharray:none;stroke-opacity:1" />
  <path
     id="path4299"
     d="m 7099.98,9041.35 -4.81,7.21 12.42,14.82 -0.8,26.44 -0.4,150.61 31.64,68.09 0.8,43.66 29.24,82.11 13.22,28.04 10.41,24.83 v 70.1 l -20.09,-0.49 -1.49,0 -0.25,-11.78 H 7163.5 l 0.02,-12.68 -14.73,-0.06 -5.96,-2.41 -37.54,2.17"
     style="fill:none;fill-rule:evenodd;stroke:#ff0000;stroke-width:5;stroke-linecap:butt;stroke-linejoin:round;stroke-miterlimit:4;stroke-dasharray:none;stroke-opacity:1" />
  <path
     id="path4301"
     d="m 7100.78,9035.75 -16.02,-10.81 6.81,-11.62 -8.41,-7.21 -3.2,-28.84 2.4,-24.43 9.21,-10.01 0,-16.02 -14.82,-11.62 -0.8,-9.61 12.42,-12.42 1.2,-12.02 -0.8,-68.5"
     style="fill:none;fill-rule:evenodd;stroke:#ff0000;stroke-width:5;stroke-linecap:butt;stroke-linejoin:round;stroke-miterlimit:4;stroke-dasharray:none;stroke-opacity:1" />
  <path
     id="path4303"
     d="m 7149.48,9380.93 -19.26,70.24 -25.49,82.7 -16.99,16.99 -20.96,18.69 -13.6,39.09 10e-5,4.71"
     style="fill:none;fill-rule:evenodd;stroke:#ff0000;stroke-width:5;stroke-linecap:butt;stroke-linejoin:round;stroke-miterlimit:4;stroke-dasharray:none;stroke-opacity:1" />
  <path
     id="path4305"
     d="m 7190.83,9486.86 44.75,36.25 44.18,33.99 63.44,58.35 43.05,44.75 41.92,50.98 53.25,54.95 75.91,49.28 22.09,13.6 22.09,24.92 61.18,22.66"
     style="fill:none;fill-rule:evenodd;stroke:#ff0000;stroke-width:5;stroke-linecap:butt;stroke-linejoin:round;stroke-miterlimit:4;stroke-dasharray:none;stroke-opacity:1" />
  <path
     id="path4307"
     d="m 7107.56,9234.78 124.06,64.01 81.57,52.68 185.24,137.09 80.44,59.48 57.21,50.42 65.14,0"
     style="fill:none;fill-rule:evenodd;stroke:#ff0000;stroke-width:5;stroke-linecap:butt;stroke-linejoin:round;stroke-miterlimit:4;stroke-dasharray:none;stroke-opacity:1" />
  <path
     id="path4309"
     d="m 7106.99,9145.28 110.65,14.13"
     style="fill:none;fill-rule:evenodd;stroke:#ff0000;stroke-width:5;stroke-linecap:butt;stroke-linejoin:round;stroke-miterlimit:4;stroke-dasharray:none;stroke-opacity:1" />
  <path
     d="m 7133.32,9005.14 1.07,15.49 -7.48,13.89 8.01,50.74 4.27,5.34 104.14,42.19 72.63,29.37 19.23,17.62 30.44,11.22 25.1,28.84 0.53,53.41 11.75,14.95 95.06,65.69 75.3,16.56 43.22,-0.3 4.31,9.91 3.74,24.03 20.29,73.17 59.81,27.77 2.67,6.94 4.81,93.46 6.94,8.54 118.03,97.2 105.21,89.19 35.25,40.59 12.28,21.36 2.67,23.5 1.6,64.62 -2.67,48.6 14.95,53.94 3.2,19.23 -9.08,14.95 -12.28,13.88 -5.34,17.09 1.6,12.28 25.1,16.55 47,34.71 39.52,49.13 18.69,33.65 9.61,8.01 29.37,13.35 53.94,34.71 83.85,74.23 31.51,39.52 29.91,41.66 13.89,11.75 32.04,51.27 35.25,37.92 5.34,36.85 43.79,63.02 33.11,41.12 18.69,43.79 25.1,64.09 14.42,52.34 11.75,19.76 1.6,26.17 24.03,47.53 16.56,75.3 -4.27,19.76 12.28,39.52 30.44,31.51 46.46,55.54 25.63,1.07 2.67,4.27 10.68,2.67 15.49,2.67 2.67,11.75 -5.34,11.75 -26.7,16.56 -21.36,-0.53 -38.45,20.29 -2.67,16.56 6.94,18.69 -1.07,12.82 26.7,33.11 10.15,30.98 -2.67,31.51 8.01,21.36 2.67,12.28 15.49,17.09 19.23,13.88 10.15,12.28 5.87,16.55 0,10.15"
     id="path5985"
     style="fill:none;stroke:#0000ff;stroke-width:5;stroke-linecap:butt;stroke-linejoin:round;stroke-miterlimit:4;stroke-dasharray:none;stroke-opacity:1" />
  <path
     id="path4313"
     d="m 7053.18,9608.66 -0.47,-11.34 -4.39,-10.26 -3.86,-1.78 -4.8,2.8 -6.88,-7.18 -10.2,-59.48 -0.8,-61.73 -19.77,-6.82 -2.14,-3.33 -0.14,-20.37 21.44,-15.4 -0.87,-66.82"
     style="fill:none;fill-rule:evenodd;stroke:#ff0000;stroke-width:5;stroke-linecap:butt;stroke-linejoin:round;stroke-miterlimit:4;stroke-dasharray:none;stroke-opacity:1" />
  <path
     id="path4315"
     d="m 7033.35,9157.18 -0.57,-95.73 10.2,0 7.36,-14.16 28.89,16.99 17.56,-31.72"
     style="fill:none;fill-rule:evenodd;stroke:#ff0000;stroke-width:5;stroke-linecap:butt;stroke-linejoin:round;stroke-miterlimit:4;stroke-dasharray:none;stroke-opacity:1" />
  <path
     id="path4319"
     d="m 6710.64,9095.43 46.46,-42.86 17.62,-12.42 36.45,-13.62 94.53,-75.71 19.63,0 20.83,-19.23 86.12,0.8 24.03,25.23 12.82,18.43 23.63,4.41 6.41,20.83 7.69,11.47 L 7095.75,9034"
     style="fill:none;fill-rule:evenodd;stroke:#ff0000;stroke-width:5;stroke-linecap:butt;stroke-linejoin:round;stroke-miterlimit:4;stroke-dasharray:none;stroke-opacity:1" />
  <path
     id="path4321"
     d="m 6778.73,9036.55 -10.41,-13.62 -46.46,8.81 -22.03,19.23 -2,10.81 -10.01,12.42 41.66,45.66"
     style="fill:none;fill-rule:evenodd;stroke:#ff0000;stroke-width:5;stroke-linecap:butt;stroke-linejoin:round;stroke-miterlimit:4;stroke-dasharray:none;stroke-opacity:1" />
  <path
     id="path4323"
     d="m 7050.71,9046.96 -13.22,-7.61 -56.88,1.2 -19.63,-6.41 -42.46,8.41 -68.09,47.27 -95.73,61.29"
     style="fill:none;fill-rule:evenodd;stroke:#ff0000;stroke-width:5;stroke-linecap:butt;stroke-linejoin:round;stroke-miterlimit:4;stroke-dasharray:none;stroke-opacity:1" />
  <path
     id="path4325"
     d="m 6872.86,9075 -64.89,100.54 -19.23,23.23 90.13,215.9"
     style="fill:none;fill-rule:evenodd;stroke:#ff0000;stroke-width:5;stroke-linecap:butt;stroke-linejoin:round;stroke-miterlimit:4;stroke-dasharray:none;stroke-opacity:1" />
  <path
     id="path4327"
     d="m 6962.19,9034.54 -35.25,-16.82 -19.23,-16.42 -8.08,-11.63 -3.27,-2.14 -36.39,-0.06"
     style="fill:none;fill-rule:evenodd;stroke:#ff0000;stroke-width:5;stroke-linecap:butt;stroke-linejoin:round;stroke-miterlimit:4;stroke-dasharray:none;stroke-opacity:1" />
  <path
     id="path4329"
     d="m 6757.92,9151.46 -11.23,-13.97 -17.22,-18.02"
     style="fill:none;fill-rule:evenodd;stroke:#ff0000;stroke-width:5;stroke-linecap:butt;stroke-linejoin:round;stroke-miterlimit:4;stroke-dasharray:none;stroke-opacity:1" />
  <path
     id="path4884"
     d="m 514.96,1710.34 -10.2,-7.36 -13.03,-2.27 -9.06,-15.29 -35.69,-35.69 -2.27,-36.25 5.66,-13.03 -13.6,-44.75 29.46,-3.4 -2.27,-19.26 9.63,-13.03 0,-9.06 -22.66,-22.66 2.83,-19.83 -6.23,-13.03 -9.63,-9.06 -15.29,-7.36 0,-7.36 16.43,-16.99 16.99,-63.44 0,-15.29 -7.93,-19.83 -21.53,-22.09 -9.06,-24.36 -33.99,-54.95 0,-21.53 6.8,-19.83 -5.1,-27.76 3.4,-20.96 -15.86,-44.75 -17.56,-32.29 -0.57,-29.46 -39.65,-32.86 -11.33,-17.56 -15.06,-3.59 -14.12,-4.76 -7.08,-5.81 -3.4,-29.46 -34.55,-43.05 2.83,-31.16 -4.53,-9.06 -8.5,-5.1 -7.93,-11.33 -7.36,-21.53 L 142.22,680.49 141.65,564.37 137.69,557 -44.5,291 l -18,-58 -30.5,-13.5 -4,-62 10,-9.5 -20.5,-92.5 -92,-82 -15.5,-32.5 -33,-26.5 -33,-14 -5,-10 0,-7.5 -10,-19 -14,-10.5 2.5,-32.5 -6,-26"
     style="fill:none;fill-rule:evenodd;stroke:#ff0000;stroke-width:5;stroke-linecap:butt;stroke-linejoin:round;stroke-miterlimit:4;stroke-dasharray:none;stroke-opacity:1" />
  <path
     id="path5001"
     d="m 437.92,1555.69 -28.89,-41.92 -19.83,-29.46 -10.2,-11.9 -31.72,-18.69 L 336,1437.5"
     style="fill:none;fill-rule:evenodd;stroke:#ff0000;stroke-width:5;stroke-linecap:butt;stroke-linejoin:bevel;stroke-miterlimit:4;stroke-dasharray:none;stroke-opacity:1" />
  <path
     id="path5003"
     d="m 389.2,1480.92 3.97,-8.5 57.21,11.33"
     style="fill:none;fill-rule:evenodd;stroke:#ff0000;stroke-width:5;stroke-linecap:butt;stroke-linejoin:round;stroke-miterlimit:4;stroke-dasharray:none;stroke-opacity:1" />
  <path
     id="path5121"
     d="m 447.26,1648.31 -31.72,-33.99"
     style="fill:none;fill-rule:evenodd;stroke:#ff0000;stroke-width:5;stroke-linecap:butt;stroke-linejoin:round;stroke-miterlimit:4;stroke-dasharray:none;stroke-opacity:1" />
  <path
     style="fill:none;fill-rule:evenodd;stroke:#ff0000;stroke-width:5;stroke-linecap:butt;stroke-linejoin:round;stroke-miterlimit:4;stroke-dasharray:none;stroke-opacity:1"
     d="m 797.63,1844.03 8.5,31.16 48.72,3.4 48.72,32.86 6.8,-6.8 -3.4,-18.13"
     id="path4228" />
  <path
     style="opacity:1;fill:none;stroke:#ff6600;stroke-width:5;stroke-linejoin:round;stroke-miterlimit:4;stroke-dasharray:none"
     d="m 834.99,1755.76 9.35,-20.43 2.26,-8.71"
     id="path926" />
  <path
     style="opacity:1;fill:none;stroke:#ff6600;stroke-width:5;stroke-linejoin:round;stroke-miterlimit:4;stroke-dasharray:none"
     d="m 836.7,1750.38 18.87,-0.82 27.14,-41.5 2.35,-0.51"
     id="path928" />
  <path
     id="path4231"
     d="m 779,1805.11 36.65,10.01 52.07,24.63 12.82,11.62"
     style="fill:none;fill-rule:evenodd;stroke:#ff0000;stroke-width:5;stroke-linecap:butt;stroke-linejoin:round;stroke-miterlimit:4;stroke-dasharray:none;stroke-opacity:1" />
  <path
     id="path4557"
     d="m 7089.14,8823.09 -16.09,0 -12.2,-2.12 -10.61,-6.01 -47.55,-42.6"
     style="fill:none;fill-rule:evenodd;stroke:#ff0000;stroke-width:5;stroke-linecap:butt;stroke-linejoin:round;stroke-miterlimit:4;stroke-dasharray:none;stroke-opacity:1" />
  <path
     id="path5578"
     d="m 7082.96,9004.11 1.75,14.4 12.92,7.34"
     style="fill:none;fill-rule:evenodd;stroke:#ff0000;stroke-width:5;stroke-linecap:butt;stroke-linejoin:round;stroke-miterlimit:4;stroke-dasharray:none;stroke-opacity:1" />
  <path
     id="path5546"
     d="m 8570,8877.5 1.36,4.75 -1.36,39.75 -7.54,3.56 -7.48,3e-4"
     style="fill:none;fill-rule:evenodd;stroke:#0000ff;stroke-width:5;stroke-linecap:butt;stroke-linejoin:round;stroke-miterlimit:4;stroke-dasharray:none;stroke-opacity:1" />
  <path
     id="path5810"
     d="m 7048.84,8950.9 -89.45,0 0.35,-24.4 4.6,-12.02 -4.95,-17.32 -11.31,-14.5 -9.9,-10.96 -13.44,-4.24 -14.5,-9.55 0,-52.68 -118.09,1.06 -3.89,-3.89 -0.35,-102.18 -4.6,-6.01 -19.09,-0.35 -3.89,-4.24 -0.35,-70.36 5.66,-7.42 16.62,-0.71 19.45,-19.09"
     style="fill:none;fill-rule:evenodd;stroke:#ff0000;stroke-width:5;stroke-linecap:butt;stroke-linejoin:round;stroke-miterlimit:4;stroke-dasharray:none;stroke-opacity:1" />
  <path
     id="path5812"
     d="m 6787.21,8750.08 -4.95,-4.95 -239.36,-0.35"
     style="fill:none;fill-rule:evenodd;stroke:#ff0000;stroke-width:5;stroke-linecap:butt;stroke-linejoin:round;stroke-miterlimit:4;stroke-dasharray:none;stroke-opacity:1" />
  <path
     style="opacity:1;fill:none;stroke:#ff6600;stroke-width:5;stroke-linejoin:round;stroke-miterlimit:4;stroke-dasharray:none"
     d="m 830,1769.77 10.74,-1.76 19.44,0.86 8.72,4.04 3.57,-3.17"
     id="path930" />
  <path
     style="fill:none;fill-rule:evenodd;stroke:#ff0000;stroke-width:5;stroke-linecap:butt;stroke-linejoin:round;stroke-miterlimit:4;stroke-dasharray:none;stroke-opacity:1"
     d="m 798.48,1845.44 -3.85,-2.9 -46.85,-13.24"
     id="path5814" />
  <path
     style="opacity:1;fill:none;stroke:#ff6600;stroke-width:5;stroke-linejoin:round;stroke-miterlimit:4;stroke-dasharray:none"
     d="m 819.2,1772.89 0.63,7.67 -6.13,25.59 11.73,4.59 33.6,15.96 8.46,-2.85"
     id="path932" />
  <path
     id="path5816"
     d="m 814.99,1745.84 -1.06,-26.52 -18.03,-70.36 2.83,-4.24 38.18,-2.12 2.12,3.89 4.03,16.28"
     style="fill:none;fill-rule:evenodd;stroke:#ff0000;stroke-width:5;stroke-linecap:butt;stroke-linejoin:round;stroke-miterlimit:4;stroke-dasharray:none;stroke-opacity:1" />
  <path
     id="path5818"
     d="m 927.77,1886.9 13.79,-9.9 19.09,0 21.57,3.54 14.5,16.62 33.23,56.57"
     style="fill:none;fill-rule:evenodd;stroke:#ff0000;stroke-width:5;stroke-linecap:butt;stroke-linejoin:round;stroke-miterlimit:4;stroke-dasharray:none;stroke-opacity:1" />
  <path
     id="path5939"
     d="m 8571.59,8879.13 -22.98,-19.45 -94.4,-121.27 -24.04,-7.78 -12.02,-18.74 -19.8,-4.6 -46.67,-34.65 -3.18,-8.49 -31.47,-18.74 -4.95,-13.44 23.69,-17.32 -1.52,-46.42 -31.25,-6.25 1.5,-8.75 -29,-26 -1.5,-18 18,-5 5.25,-4.75 32.5,-5 12.25,-8.25 12.25,3.75 9.25,8.5 4,12 15.75,0 21,-5 28.5,-35.25 30.75,-11.75 12,-13.75 67.75,-23.25 17.25,-23.5 4,-12.75 19.25,-105.25 27,-37.25 -7.75,-57.75 6.5,-14.25 -11.25,-51 -21,-19.25 -25.75,-56.5 -22.25,-14 -3.5,-25.25 -13,-26.75 -9,-73.75 -0.5,-43.5 22.5,-105.5 26.75,-57.75 73.25,-52 17.25,-3.25 81.25,-39.75 28.75,-30.5 0,-18.75 58.25,-55.25 106.25,-49.5 84,-31.5 30.5,6.5 16,25.5 48,15.75 11.25,-2 49.5,26 50.75,3.5"
     style="fill:none;fill-rule:evenodd;stroke:#0000ff;stroke-width:5;stroke-linecap:butt;stroke-linejoin:round;stroke-miterlimit:4;stroke-dasharray:none;stroke-opacity:1" />
  <path
     id="path6060"
     d="m 8918,7448.5 -21,-10 -1.5,-28 -6.5,-11 -211,-56 -23.5,-14.5 -204,24.5 -11,-3 -54.5,-46.5 -55,-15.5 -56,-33 -134.5,-10.5"
     style="fill:none;fill-rule:evenodd;stroke:#0000ff;stroke-width:5;stroke-linecap:butt;stroke-linejoin:round;stroke-miterlimit:4;stroke-dasharray:none;stroke-opacity:1" />
  <path
     id="path6536"
     d="m 8671.5,2001.5 3,-38 -14,-10 7,-10 2.5,-30 -1.5,-10.5 4.5,-42.5 -11.5,-115 -20,-101.5 -84.5,-105.5 -32,-81.5 -14.5,-80 10,-50.5 68,-66 23.5,8.5 26.5,0 45.5,24.5"
     style="fill:none;fill-rule:evenodd;stroke:#808000;stroke-width:5;stroke-linecap:butt;stroke-linejoin:round;stroke-miterlimit:4;stroke-dasharray:none;stroke-opacity:1" />
  <path
     id="path6538"
     d="m 8589,1260 -183.5,-68.5 -70,-19 -15,-1 -12,1 -231,118.5 -106,94 -58,27 -66.5,2.5 -150,-31 -33.5,-16 -28.5,-56 -90.5,-246 -6,-14.5 -46,-21 -14.5,-34 -26.5,-31.5 -29,-16.5 -27,-19 -40,-6 -19.5,-15 -0.5,-152 2.5,-31.5 -3.5,-32.5 -19.08,-42.18"
     style="fill:none;fill-rule:evenodd;stroke:#808000;stroke-width:5;stroke-linecap:butt;stroke-linejoin:round;stroke-miterlimit:4;stroke-dasharray:none;stroke-opacity:1" />
  <path
     style="opacity:1;fill:none;stroke:#ff6600;stroke-width:5;stroke-linejoin:round;stroke-miterlimit:4;stroke-dasharray:none"
     d="m 818.71,1790.1 6.7,2.47 23.42,7.61 10.04,2.04 4.89,2.79 10.5,0.6 1.74,-2.09 2.72,0.9 6.06,-2.66 10.71,3.02 11.97,-2.73"
     id="path934" />
  <path
     id="path6772"
     d="m 733.68,1780.49 92.69,-14.79 14.04,-2.62 19.64,0.91 L 863.5,1751 l 9.25,-14.25 13,-8.75 11.5,-2.5 10,7.25 9.5,12.5 19,26.5 10.25,3.5 3.25,-2 2.25,-9 22.25,-12 9,-5 12,6.5 9.25,8.75 9.5,10 22.75,13.5 7.25,-8 4.25,-0.5 6.5,2.75 2.25,-0.5 1.5,-6.75 -0.75,-9.75 4.25,-13 4.75,-5.75 14.75,-5.5 h 5.5 l 5.75,-4.75 1,-4.75 3.5,-1.5 0.75,-6.25 3.25,-3.25 2.5,-3 5.75,-21.25 3.5,-15.75 -1.5,-9.5 -9,-10 -9.25,-4 -3.5,-3.75 v -3 l 2.75,-0.5 8,0.5 12.25,6.25 10,-1.25 13.5,4 8.25,-2.25 16.5,-12 4.5,-9.25 v -7.5 l -3.5,-13.5 3.75,-11 3,-15.75 4.18,-11.28 14.85,-15.56 37.12,-22.27 -2.12,-20.86 -8.13,-22.98 6.36,-18.38 -9.19,-23.33 1.41,-8.49 17.68,-28.64 -18.74,-50.2 9.55,-19.45 30.41,-10.25 20.15,8.84 15.2,-4.95 22.62,8.5 60.11,18.72 8.13,-4.6 6.36,0.71 8.13,-15.2"
     style="fill:none;fill-rule:evenodd;stroke:#008000;stroke-width:5;stroke-linecap:butt;stroke-linejoin:round;stroke-miterlimit:4;stroke-dasharray:none;stroke-opacity:1" />
  <path
     id="path6774"
     d="m 1383.5,1361.17 56.22,6.72"
     style="fill:none;fill-rule:evenodd;stroke:#008000;stroke-width:5;stroke-linecap:butt;stroke-linejoin:round;stroke-miterlimit:4;stroke-dasharray:none;stroke-opacity:1" />
  <path
     id="path6776"
     d="m 1394.46,1326.87 54.45,-50.91 7.07,-13.79 1.41,-17.32 -1.77,-68.59 -6.36,-13.79 -11.67,-14.85 2.83,-32.53 1.41,-45.61 12.02,-26.87 5.66,-48.44 110.31,-160.16 231.22,-330.22 8.84,-4.95 102.88,-10.61 5.3,-3.54 17.32,-50.91 3.89,-1.06 6.72,0 7.07,-8.13 57.28,-135.76 10.61,-13.08 18.03,6.72 3.89,-8.49 18.74,7.42 3.18,-9.19 6.72,2.47 12.02,-34.29 35.36,-21.57 25.46,-23.33 5.66,-19.8 1.41,-27.58 2.12,-45.25 -54.09,-94.4 -62.93,-136.12 -36.42,-78.49"
     style="fill:none;fill-rule:evenodd;stroke:#008000;stroke-width:5;stroke-linecap:butt;stroke-linejoin:round;stroke-miterlimit:4;stroke-dasharray:none;stroke-opacity:1" />
  <path
     id="path6778"
     d="m 2022.02,275.76 -35,-13.79 -19.09,-14.85 -114.9,-143.9 -14.5,-13.44 -11.31,-4.24 -197.28,-1.77"
     style="fill:none;fill-rule:evenodd;stroke:#008000;stroke-width:5;stroke-linecap:butt;stroke-linejoin:round;stroke-miterlimit:4;stroke-dasharray:none;stroke-opacity:1" />
  <path
     d="m 1212.76,935.52 -14.42,15.49 -11.75,25.63 -74.77,182.65 -5.34,16.02 1.6,42.72 -10.15,44.86 -31.51,43.26 -0.53,22.96 17.09,30.44 -3.74,16.02"
     id="path3159-3"
     style="fill:none;stroke:#ff0000;stroke-width:5;stroke-linecap:butt;stroke-linejoin:round;stroke-miterlimit:4;stroke-dasharray:none;stroke-opacity:1" />
  <path
     d="m 1079.25,1375.59 -34.18,14.95 -13.35,-3.2 -29.37,-16.56 -11.22,-10.68 -1.07,-12.82 -19.23,-21.36 -33.11,-6.41 -10.15,-3.74 -17.62,2.67 -22.43,-4.81 -13.35,13.35 -17.09,1.6 -3.2,18.16 -15.49,9.61 -4.81,15.49 -11.75,14.42 -9.08,3.2 -11.22,18.69 -15.49,1.07 -14.95,-2.14 -18.16,16.56 -13.35,4.27 -14.42,-3.74 -8.54,2.67 -6.94,9.08 -4.81,71.56"
     id="path3159-3-6"
     style="fill:none;stroke:#ff0000;stroke-width:5;stroke-linecap:butt;stroke-linejoin:round;stroke-miterlimit:4;stroke-dasharray:none;stroke-opacity:1" />
  <text
     xml:space="preserve"
     style="font-style:normal;font-weight:normal;font-size:144px;line-height:125%;font-family:Sans;-inkscape-font-specification:Sans;letter-spacing:0px;word-spacing:0px;fill:#000000;fill-opacity:1;stroke:none;stroke-width:2px;stroke-linecap:butt;stroke-linejoin:round;stroke-opacity:1"
     x="-10.55"
     y="206.96"
     id="text4994-7"><tspan
       id="tspan4996-9"
       x="-10.55"
       y="206.96">1935</tspan></text>
  <text
     xml:space="preserve"
     style="font-style:normal;font-weight:normal;font-size:144px;line-height:125%;font-family:Sans;-inkscape-font-specification:Sans;letter-spacing:0px;word-spacing:0px;fill:#000000;fill-opacity:1;stroke:none;stroke-width:2px;stroke-linecap:butt;stroke-linejoin:round;stroke-opacity:1"
     x="-10.55"
     y="11847.96"
     id="text4994-7-3"><tspan
       id="tspan4996-9-6"
       x="-10.55"
       y="11847.96">1935</tspan></text>
  <path
     id="path6419-3"
     d="m 852.11,1227.53 -3.18,-8.84 4.6,-8.13 14.14,-8.13 3.54,-15.2 0.35,-12.73 -3.89,-26.52 -1.98,-11.81 -1.06,-10.08 1.99,-72.51 -4.6,-84.15 -15.56,-19.8 -3.89,-23.69 v -19.8 l -4.95,-36.77 -3.18,-15.2 -7.42,-12.73 -6.6,-14.51 -6.41,-10.54 -13.07,-9.67 -13.9,-8.04 -28.25,-42.09 -30.05,-74.6 -43,-54.74 -26.16,-13.68 -8.17,-15.71 -5.7,-15.56 -52.57,-73.03 -12.59,-23.87 -48.51,-54 -5.18,-6.07 -20.35,-21.17 -14.02,-11.02 -3.6,-8.61 0.6,-7.61 -19.63,-35.65 -105.75,-60.48"
     style="fill:none;fill-rule:evenodd;stroke:#00ff00;stroke-width:5;stroke-linecap:butt;stroke-linejoin:round;stroke-miterlimit:4;stroke-dasharray:none;stroke-opacity:1" />
  <path
     style="fill:none;stroke:#ff0000;stroke-width:5;stroke-linejoin:round;stroke-opacity:1"
     d="m 7312.92,8929.41 5.02,10.56 6.34,-1.38 1.77,-9.52"
     id="path7813" />
  <path
     style="fill:none;stroke:#ff0000;stroke-width:5;stroke-linejoin:round;stroke-opacity:1"
     d="m 7089.17,8847.47 25.17,0.09"
     id="path8197" />
  <path
     style="fill:none;stroke:#ff0000;stroke-width:5;stroke-linejoin:round;stroke-opacity:1"
     d="m 7280.42,8848.72 0.36,-58.54"
     id="path8321" />
  <path
     d="m 8554.99,8925.56 -32.04,0 -21.36,13.89 -31.51,1.07 -303.35,8.54 -107.88,0 -11.22,-4.81 -100.4,2.67 -9.08,-1.6 -73.17,1.6 -50.74,-13.89 -53.38,-17.57 -12.43,-21.34 -2.73,-11.57 -7.16,-4.6 -39.94,1.2 -24.31,-18.17 -18.87,4.93 -19.45,0.51 -38.97,12.56 -18.27,2.7 -20.02,-9.61 -70.74,2.37 -36.41,-11.55 -26.66,-19.18 -70.8,0.91 -24.54,0.05 -14.6,-4.88 -21.66,-0.17 -8.76,-2.53 -25.05,1.03 -5.97,10.58 0.54,36.24 -16.22,26.39 -32.02,5.64 -15.39,-4.2 -22.32,12.24 -0.21,9.26 -9.04,9.47 -2.53,12.22 -17.25,19.17 -1.25,12.23 -5.61,18.19"
     id="path6035"
     style="fill:none;stroke:#0000ff;stroke-width:5;stroke-linecap:butt;stroke-linejoin:round;stroke-miterlimit:4;stroke-dasharray:none;stroke-opacity:1" />
  <path
     style="fill:none;stroke:#ff0000;stroke-width:5;stroke-linejoin:round;stroke-opacity:1"
     d="m 6925.34,8950.83 34.05,0.07"
     id="path8648" />
  <path
     id="path4229-6"
     d="m 811.51,1749.71 2.83,-2.55 25.21,-13.31 8.16,-30.47 -4.65,-40.62"
     style="fill:none;fill-rule:evenodd;stroke:#ff0000;stroke-width:5;stroke-linecap:butt;stroke-linejoin:round;stroke-miterlimit:4;stroke-dasharray:none;stroke-opacity:1" />
</svg>
