<?xml version="1.0" encoding="UTF-8" standalone="no"?>
<svg
   version="1.1"
   width="9300"
   height="11950"
   id="svg2"
   viewBox="-100 0 9300 11950"
   xmlns:xlink="http://www.w3.org/1999/xlink"
   xmlns="http://www.w3.org/2000/svg"
   xmlns:svg="http://www.w3.org/2000/svg"
   xmlns:rdf="http://www.w3.org/1999/02/22-rdf-syntax-ns#"
   xmlns:cc="http://creativecommons.org/ns#"
   xmlns:dc="http://purl.org/dc/elements/1.1/">
  <metadata
     id="metadata8">
    <rdf:RDF>
      <cc:Work
         rdf:about="">
        <dc:format>image/svg+xml</dc:format>
        <dc:type
           rdf:resource="http://purl.org/dc/dcmitype/StillImage" />
      </cc:Work>
    </rdf:RDF>
  </metadata>
  <defs
     id="defs6" />
  <g
     style="display:none"
     id="g4272"
     transform="translate(200)">
    <image
       xlink:href="basemap/caosm.png"
       y="-204.69"
       x="-564.31"
       id="image4235"
       preserveAspectRatio="none"
       height="12304.69"
       width="9570.31" />
    <image
       xlink:href="basemap/railosm.png"
       y="-204.69"
       x="-564.31"
       id="image4234"
       preserveAspectRatio="none"
       height="12304.69"
       width="9570.31"
       style="opacity:0.8" />
  </g>
  <path
     d="m 799.15,1790.39 6.13,-6.78 4.81,-11.75 0.53,-12.28 -0.53,-12.82 -19.23,-77.44 -11.75,-36.85 -27.24,-40.59 -20.83,-20.29 -19.76,-21.36 -6.41,-16.02 0,-26.7"
     id="path3159"
     style="fill:none;stroke:#ff0000;stroke-width:5;stroke-linecap:butt;stroke-linejoin:round;stroke-miterlimit:4;stroke-dasharray:none;stroke-opacity:1" />
  <path
     d="m 1079.25,1375.59 -34.18,14.95 -13.35,-3.2 -29.37,-16.56 -11.22,-10.68 -1.07,-12.82 -19.23,-21.36 -33.11,-6.41 -10.15,-3.74 -17.62,2.67 -22.43,-4.81 -13.35,13.35 -17.09,1.6 -3.2,18.16 -15.49,9.61 -4.81,15.49 -11.75,14.42 -9.08,3.2 -11.22,18.69 -15.49,1.07 -14.95,-2.14 -18.16,16.56 -13.35,4.27 -14.42,-3.74 -8.54,2.67 -6.94,9.08 -4.81,71.56"
     id="path3159-3-6"
     style="fill:none;stroke:#ff0000;stroke-width:5;stroke-linecap:butt;stroke-linejoin:round;stroke-miterlimit:4;stroke-dasharray:none;stroke-opacity:1" />
  <path
     d="m 652.86,1865.35 -11,10.65 0.53,2.67 8.01,9.08 4.27,12.28 -4.27,33.11 -3.74,49.13 -6.94,14.95 0,37.38 6.94,13.89 11.22,16.56 -1.07,5.87 -28.31,39.52 -6.41,17.09 0,15.74 7.48,21.35 15.21,27.69 19.54,22.82 10.11,11.74 61.95,32.04 16.56,10.15 26.17,30.98 11.22,20.29 6.94,13.89 29.37,28.84 19.23,17.62 22.96,26.7 24.57,23.5 37.92,31.51 95.6,74.77 72.1,56.61 51.8,26.7 77.97,33.65 29.37,10.68 42.19,0.53 38.45,20.83 16.69,9.08 46.33,31.04 10.67,8.53 3,21.34 8.22,10.65 14.42,4.27 21.9,35.25 22.96,13.35 24.57,10.15 20.83,26.7 33.65,27.77 92.39,64.62 68.36,84.92 86.52,102.54 50.2,64.62 77.97,181.58 17.02,31.92 20.5,23 1.5,7.5 -11,73 3,23 -3,8.5 -12,8.5 -5,9 0,17.5 -1.5,3 -28,-3 -15,-5 -18.5,2.5 -15,-6 -13,-9.5 -8,0 -7.5,-3.5 -8.5,14.5 -1,14 -5.5,6 -24,3 -90.5,-20 -46,11 -8.5,9 2,38.5 -2,8 -12.5,11.5 -3,16 5.5,17 17,10 6,7.5 0,10.5 -14.5,52 -11.5,17.5 28.5,116.5 56.5,75 80,36.5 15,24 138,124.5 84.5,102 123,124 149.5,120.5 41.5,17.5 46.5,11.5 18,12 9,31.5 10,11 4,18 11.5,13.5 20.5,6.5 22.5,15.5 7.5,24 17,9 9,22.5 19,18 22.5,32.5 44.5,148.5 20,29.5 75,30.5 5.5,9 4.5,23 46,71.5 7,7 32.5,16.5 13.5,25 11,8 19,-0.5 39.5,36 41.5,52 11.5,29 60,111.5 -2.5,12 27.5,54 -4.5,31 8.5,23.5 27.5,14.5 13,37 -1.5,22 3.5,10 8.5,2 36.5,28.5 55,4.5 21.5,23 7,37 -7.5,24 11.5,27 22,20 11,19.5 44,33.5 3.5,11.5 -2.5,36 -6.5,14 14,43.5 -1,25 0,10 -5,22 3,17 -3,22 0,9 9,11.5 4.5,56.5 -7,29 -1,34.5 0,27.5 -7,29.5 -18,33 -2.5,11 5,7.5 11,7 32,22 11,8 14.5,18 19,11.5 12,35 15.5,7.5 6.5,23.5 14.5,16.5 13,18 10,22 -2,76 -22.5,14.5 -15.5,2.5 -7.5,14.5 -8,6 -0.5,10 6,6.5 5,45.5 -5,8 17.5,23.5 -1.5,4.5 -10,-2 -20.5,-22 -11.5,-1 -2,-6 0,-8 -2,-1.5 -16,15.5 -12,-2 -4,4.5 -2,14.5 -4,1 -15.5,-13.5 -4,5.5 18.5,16 5,12 14,9.5 7,24 16.5,27 1.5,11.5"
     id="path2987"
     style="fill:none;stroke:#ff0000;stroke-width:5;stroke-linecap:butt;stroke-linejoin:round;stroke-miterlimit:4;stroke-dasharray:none;stroke-opacity:1" />
  <path
     d="m 3358.07,6708.69 -2.14,7.48 16.56,22.43 20.29,28.3 17.09,16.02 2.67,6.94 -3.2,18.16 10.68,48.6 5.34,7.48 -2.67,14.95 -6.94,6.94 -3.2,11.22 -8.01,19.23 -14.95,10.15 3.74,8.01 0.53,9.61 -4.81,8.01 4.81,38.45 8.01,34.18 13.89,19.23 36.85,30.44 2.14,11.22 -5.87,10.15 -5.34,12.82 8.54,63.02 42.72,83.85 0.53,21.36 -9.08,20.29 -2.67,6.94 -0.53,42.72 11.75,19.23 5.87,4.81 -2.14,19.76 50.2,50.74 25.63,16.56 0.53,14.42 -3.74,8.54 -6.94,2.14 -2.14,16.56 4.81,9.08 -2.67,8.01 4.27,21.9 -28.84,9.61 -20.29,13.35 -43.26,-21.36 -18.16,1.6 -10.68,42.19 -6.94,16.02 -14.95,27.24 -4.27,41.66 7.48,11.75 -1.6,13.35 -7.48,23.5 4.27,11.75 8.01,8.01 5.87,27.24 6.41,7.48 5.34,32.58 -13.35,29.91 -4.27,12.82 4.27,15.49 -16.56,21.9 0,14.95 -16.56,25.1 -13.35,41.66 -6.41,22.43 1.07,20.29 -8.01,13.35 14.95,37.92 18.69,6.41 61.42,1.6 49.13,33.11 25.1,8.54 35.25,25.1 18.16,22.96 1.6,13.89 13.35,28.84 18.16,15.49 27.24,46.46 14.42,10.15 52.87,-3.2 26.17,-6.41 90.26,-4.81 18.16,-9.61 19.23,0 26.17,-14.42 16.02,-1.07 20.83,9.61 114.82,-8.01 61.42,2.14 50.2,-7.48 65.16,24.03 21.36,1.07 13.89,-5.87 80.11,3.74 35.25,9.61 38.45,24.57 32.58,11.75 57.14,4.81 21.9,6.41 32.04,-2.67 34.71,-6.94 77.44,-8.01 56.08,0 27.77,11.75 20.29,12.82 24.03,3.74 31.51,27.24 22.96,-4.27 43.79,-16.02 26.17,6.94 33.11,-2.14 29.37,-2.14 35.78,14.42 28.31,-2.67 21.9,16.02 30.44,10.68 15.49,22.43 46.46,11.22 43.26,17.62 26.17,30.98 18.69,1.6 61.95,64.09 10.68,3.2 18.69,-1.6 38.99,31.51 18.16,26.17 36.85,24.57 35.25,1.07 65.69,38.99 35.25,16.56 28.84,-3.74 36.32,22.96 8.01,22.96 -0.53,47.53 6.41,4.27 194.4,1.07 5.34,-5.87 12.82,-28.84 34.71,-39.52 11.75,-22.96 47,-33.65 66.76,-10.68 28.31,-16.02 41.66,-9.08 40.05,0.53 29.91,-12.82 10.15,0.53 18.16,8.54 27.24,1.6 13.35,10.68 16.02,1.6 23.5,10.68 23.5,5.34 95.6,0 13.89,10.68 25.1,2.67 18.16,6.41 12.28,-1.07 5.87,-9.61 43.26,6.94 12.82,-4.27 1.07,-9.08 6.41,-3.74 8.54,0.53 5.34,4.81 -0.53,41.12 8.54,12.28 292.13,71.56 130.31,30.44 64.09,50.74 14.95,23.5 17.62,45.39 27.77,27.77 8.01,20.29 13.35,11.22 2.14,16.02 -0.33,19.87 -3.63,14.44 -9.57,1.92 -6.79,13.57"
     id="path5983"
     style="fill:none;stroke:#ff0000;stroke-width:5;stroke-linecap:butt;stroke-linejoin:round;stroke-miterlimit:4;stroke-dasharray:none;stroke-opacity:1" />
  <path
     d="m 6985.46,8771.47 -81.93,-66.99 -156.42,-170.26 -24.44,-4.89 -19.55,-20.37 -22.81,-56.21 -9.78,-13.85 2.44,-20.37 -24.44,-34.22 -1.63,-26.88 -2.44,-26.07 6.52,-3.26 13.03,13.85 9.78,3.26 29.33,-13.03 27.7,-2.44 17.92,20.37 16.29,2.44 47.25,-2.44 26.88,-22.81 17.92,-1.63 22.81,-13.85 11.41,4.07 23.63,-8.15 26.88,8.15 13.03,-13.03 33.4,-8.96 59.47,-1.63 7.33,4.07 36.66,-4.07 13.85,6.52 39.92,0 13.03,-17.11 19.55,-17.92 4.89,-22 13.85,-6.52 20.37,2.44 20.37,-19.55 20.37,0.81 12.22,-7.33 33.4,-24.44 10.59,-28.51 32.59,-21.18 -2.44,-6.52 -17.11,-7.33 -20.37,-41.55 -0.81,-33.4 -30.96,-241.96"
     id="path3066"
     style="fill:none;stroke:#ff0000;stroke-width:5;stroke-linecap:butt;stroke-linejoin:round;stroke-miterlimit:4;stroke-dasharray:none;stroke-opacity:1" />
  <path
     style="fill:none;stroke:#ff0000;stroke-width:5;stroke-linecap:butt;stroke-linejoin:round;stroke-miterlimit:4;stroke-dasharray:none;stroke-opacity:1"
     id="path4161"
     d="m 2520.5,-205.5 -13,17 -33.5,24.5 -13.5,5.5 -47,79.5 -19.5,7 -45,31 -36,54.5 -184.45,218.35 -8.21,13.03 -2.27,23.79 -3.12,5.1 -7.93,3.4 -44.75,-15.86 -15.85,2.91 -13.35,2.67 -24.57,-5.34 -27.24,1.07 -202.94,56.61 -104.68,31.51 -11.22,14.42 -182.65,262.76 -125.5,177.31 -19.76,42.72 -121.77,87.59" />
  <path
     id="path4268"
     d="m 9207,9265.5 -26.5,1.5 -15.5,-6.5 -72.5,0 -16,3.5 -27.5,-18 -10,-16.5 -29.5,-0.5 -29.5,2 -18,-8 -36.5,-39 -19.5,-15.5 -12.5,3 -9.5,-5.5 -11.5,-1.5 -9,-7.5 -15,3.5 -12,-8.5 -11,-0.5 -16.5,-9.5 -6,-9 -10,-1 -17,-26 -14,-7 -13,-15 -21,-9.5 -12.5,-15 -11.5,-3.5 -12,-16.5 -6.5,-2.5 -19.5,-13 -137,-25 -47.5,-5.5 -345.5,11 -161.96,1.01 -145.54,3.49 -30.5,3 -9.5,4 -30.5,46.5 -17,19.5 -14.5,7 -39,28.5 -15.5,1.5 -89.5,-17 -15,-6 -27.5,-28.5 -114,-92.5 -77.5,-33 -13.5,-3 -10.5,1.5 -64,32.5 -28.5,3.5 -14.5,9 -13.5,17.5 -4.5,3 -32,-6.5 -27.5,5.73 -12.14,-5.53"
     style="fill:none;fill-rule:evenodd;stroke:#ff0000;stroke-width:5;stroke-linecap:butt;stroke-linejoin:round;stroke-miterlimit:4;stroke-dasharray:none;stroke-opacity:1" />
  <path
     id="path4387"
     d="M 1671.49,351.42 1628.36,170.4 1627.65,62.21 1408.44,-205.78"
     style="fill:none;fill-rule:evenodd;stroke:#ff0000;stroke-width:5;stroke-linecap:butt;stroke-linejoin:round;stroke-miterlimit:4;stroke-dasharray:none;stroke-opacity:1" />
  <path
     id="path4519"
     d="m 5961.5,6520.5 321,93 14,-8 59.5,8.5 24,3 19.5,20 18,5 27.5,19.5 3.5,8.5 21.5,-4 32.5,16.5 16,-4.5 0.5,9.5 -17.5,5.5 -11,-4.5 -12.5,6.5 -6,-1 13.5,9.5 -2.5,11 20,-8 12,9.5 5.5,10 5.5,2.5 -3,-11.5 4,-4 17,11 13.5,0 6.5,12.5 -0.5,13.5 19,8 13.5,32 22,4.5 6,27.5 9,16.5 19.5,-1 5.5,7.5 -8,4.5 2.5,7 27,10.5 22,18 26,7.5 12.5,8 12,17.5 -1.5,18.5 6.5,20.5 -8,6.5 9.5,11.5 166,29 21.5,-2.5 67.5,46.5 52,-14 26,-0.5 30,-13.5 16,-10.5 23.5,10 17.5,-8 12.5,8.5 11,44.5 0,14.5 17.5,67.5"
     style="fill:none;fill-rule:evenodd;stroke:#ff0000;stroke-width:5;stroke-linecap:butt;stroke-linejoin:round;stroke-miterlimit:4;stroke-dasharray:none;stroke-opacity:1" />
  <path
     id="path4521"
     d="m 7218,7145 38.5,147 -3.5,108.5 -24,47.5 0,10 45.5,350"
     style="fill:none;fill-rule:evenodd;stroke:#ff0000;stroke-width:5;stroke-linecap:butt;stroke-linejoin:round;stroke-miterlimit:4;stroke-dasharray:none;stroke-opacity:1" />
  <path
     d="m 9208.5,7488.5 -53,-5 -48,-24.5 -9.5,2 -46.5,-16 -17.5,-25.5 -33,-6.5 -85.5,31.5 -107,51.5 -60,55.5 v 19 l -27.5,29.5 -80,38.5 -17.5,2.5 -75,54 -27,59.5 -22.5,107 v 43.5 l 9.5,73.5 13.5,28.5 3.5,26.5 21.5,12 27,58 20,18 11,49 -6,13 7,58 -27,37 -17.5,100 -5,17.5 -15,22 -68,23.5 -10.5,11.5 -33,14 -28.5,34.5 -19.5,5 -11.5,0.5 -3,-10 -13,-12.5 -25,16.5 -32,9 -16,19.5 41.5,30.5 7.5,9.5 1.5,43 -25,17 6.5,18 30.5,20.5 5.5,7.5 49.5,35.5 15,5 15,19.5 22.5,6.5 95,121 21,18 -1.5,40 h -15 l -0.82,17.38 -19.76,57.68 -7.48,73.17 -0.53,23.5 -4.81,10.15 -40.05,49.13 -24.81,36.79 -8.9,5.75 -6.87,9.26 -52.87,-2.14 -17.62,-18.16 -12.28,-9.61 -34.18,6.94 -8.54,-1.6 -6.94,-5.87 -10.15,-30.44 -8.01,-17.09 -100.94,-58.75 -140.99,-57.14 h -98.27 l -126.57,4.81 -22.96,9.61 -65.69,81.71 -41.12,19.76 -72.1,2.67 -14.42,-6.41 -71.03,-33.65 -38.45,-20.83 -20.29,-4.27 -32.58,4.27 -48.6,39.52 -13.89,9.08 -26.7,-2.14 -178.38,-16.02 -29.13,-11.06 -6.25,-10.75 -4.1,-30.44 -2.64,-11.2 7.95,-14.04 -0.35,-9.6 -11.48,-0.5 -5.09,10.85"
     id="path6037"
     style="fill:none;stroke:#f0b000;stroke-width:5;stroke-linecap:butt;stroke-linejoin:round;stroke-miterlimit:4;stroke-dasharray:none;stroke-opacity:1" />
  <path
     d="m 8554.98,8925.56 -32.04,0 -21.36,13.89 -31.51,1.07 -303.35,8.54 -107.88,0 -11.22,-4.81 -100.4,2.67 -9.08,-1.6 -73.17,1.6 -50.74,-13.89 -53.38,-17.57 -12.43,-21.34 -2.73,-11.57 -7.16,-4.6 -39.94,1.2 -24.31,-18.17 -18.87,4.93 -19.45,0.51 -38.97,12.56 -18.27,2.7 -20.02,-9.61 -70.74,2.37 -36.41,-11.55 -26.66,-19.18 -70.8,0.91 -24.54,0.05 -14.6,-4.88 -21.66,-0.17 -8.76,-2.53 -25.05,1.03 -5.97,10.58 0.54,36.24 -16.22,26.39 -32.02,5.64 -15.39,-4.2 -22.32,12.24 -0.21,9.26 -9.04,9.47 -2.53,12.22 -17.25,19.17 -1.25,12.23 -5.61,18.19"
     id="path6035"
     style="fill:none;stroke:#0000ff;stroke-width:5;stroke-linecap:butt;stroke-linejoin:round;stroke-miterlimit:4;stroke-dasharray:none;stroke-opacity:1" />
  <path
     id="path4299"
     d="m 7103.86,9035.34 -3.88,6.01 -4.81,7.21 12.42,14.82 -0.8,26.44 -0.4,150.61 31.64,68.09 0.8,43.66 29.24,82.11 13.22,28.04 10.41,24.83 v 70.1 l -20.09,-0.49"
     style="fill:none;fill-rule:evenodd;stroke:#ff0000;stroke-width:5;stroke-linecap:butt;stroke-linejoin:round;stroke-miterlimit:4;stroke-dasharray:none;stroke-opacity:1" />
  <path
     d="m 7133.32,9005.14 1.07,15.49 -7.48,13.89 8.01,50.74 4.27,5.34 104.14,42.19 72.63,29.37 19.23,17.62 30.44,11.22 25.1,28.84 0.53,53.41 11.75,14.95 95.06,65.69 75.3,16.56 43.22,-0.3 4.31,9.91 3.74,24.03 20.29,73.17 59.81,27.77 2.67,6.94 4.81,93.46 6.94,8.54 118.03,97.2 105.21,89.19 35.25,40.59 12.28,21.36 2.67,23.5 1.6,64.62 -2.67,48.6 14.95,53.94 3.2,19.23 -9.08,14.95 -12.28,13.88 -5.34,17.09 1.6,12.28 25.1,16.55 47,34.71 39.52,49.13 18.69,33.65 9.61,8.01 29.37,13.35 53.94,34.71 83.85,74.23 31.51,39.52 29.91,41.66 13.89,11.75 32.04,51.27 35.25,37.92 5.34,36.85 43.79,63.02 33.11,41.12 18.69,43.79 25.1,64.09 14.42,52.34 11.75,19.76 1.6,26.17 24.03,47.53 16.56,75.3 -4.27,19.76 12.28,39.52 30.44,31.51 46.46,55.54 25.63,1.07 2.67,4.27 10.68,2.67 15.49,2.67 2.67,11.75 -5.34,11.75 -26.7,16.56 -21.36,-0.53 -38.45,20.29 -2.67,16.56 6.94,18.69 -1.07,12.82 26.7,33.11 10.15,30.98 -2.67,31.51 8.01,21.36 2.67,12.28 15.49,17.09 19.23,13.88 10.15,12.28 5.87,16.55 0,10.15"
     id="path5985"
     style="fill:none;stroke:#0000ff;stroke-width:5;stroke-linecap:butt;stroke-linejoin:round;stroke-miterlimit:4;stroke-dasharray:none;stroke-opacity:1" />
  <path
     id="path5939"
     d="m 8571.59,8879.13 -22.98,-19.45 -94.4,-121.27 -24.04,-7.78 -12.02,-18.74 -19.8,-4.6 -46.67,-34.65 -3.18,-8.49 -31.47,-18.74 -4.95,-13.44 23.69,-17.32 -1.52,-46.42 -31.25,-6.25 1.5,-8.75 -29,-26 -1.5,-18 18,-5 5.25,-4.75 32.5,-5 12.25,-8.25 12.25,3.75 9.25,8.5 4,12 15.75,0 21,-5 28.5,-35.25 30.75,-11.75 12,-13.75 67.75,-23.25 17.25,-23.5 4,-12.75 19.25,-105.25 27,-37.25 -7.75,-57.75 6.5,-14.25 -11.25,-51 -21,-19.25 -25.75,-56.5 -22.25,-14 -3.5,-25.25 -13,-26.75 -9,-73.75 -0.5,-43.5 22.5,-105.5 26.75,-57.75 73.25,-52 17.25,-3.25 81.25,-39.75 28.75,-30.5 0,-18.75 58.25,-55.25 106.25,-49.5 84,-31.5 30.5,6.5 16,25.5 48,15.75 11.25,-2 49.5,26 50.75,3.5"
     style="fill:none;fill-rule:evenodd;stroke:#0000ff;stroke-width:5;stroke-linecap:butt;stroke-linejoin:round;stroke-miterlimit:4;stroke-dasharray:none;stroke-opacity:1" />
  <path
     d="m 1212.76,935.52 -14.42,15.49 -11.75,25.63 -74.77,182.65 -5.34,16.02 1.6,42.72 -10.15,44.86 -31.51,43.26 -0.53,22.96 17.09,30.44 -3.74,16.02"
     id="path3159-3"
     style="fill:none;stroke:#ff0000;stroke-width:5;stroke-linecap:butt;stroke-linejoin:round;stroke-miterlimit:4;stroke-dasharray:none;stroke-opacity:1" />
  <text
     xml:space="preserve"
     style="font-style:normal;font-weight:normal;font-size:144px;line-height:125%;font-family:Sans;-inkscape-font-specification:Sans;letter-spacing:0px;word-spacing:0px;fill:#000000;fill-opacity:1;stroke:none;stroke-width:2px;stroke-linecap:butt;stroke-linejoin:round;stroke-opacity:1"
     x="-10.55"
     y="206.96"
     id="text4994-7"><tspan
       id="tspan4996-9"
       x="-10.55"
       y="206.96">1960</tspan></text>
  <text
     xml:space="preserve"
     style="font-style:normal;font-weight:normal;font-size:144px;line-height:125%;font-family:Sans;-inkscape-font-specification:Sans;letter-spacing:0px;word-spacing:0px;fill:#000000;fill-opacity:1;stroke:none;stroke-width:2px;stroke-linecap:butt;stroke-linejoin:round;stroke-opacity:1"
     x="-10.55"
     y="11847.96"
     id="text4994-7-3"><tspan
       id="tspan4996-9-6"
       x="-10.55"
       y="11847.96">1960</tspan></text>
  <path
     style="fill:none;stroke:#0000ff;stroke-width:5;stroke-linecap:butt;stroke-linejoin:round;stroke-miterlimit:4;stroke-dasharray:none;stroke-opacity:1"
     id="path5983-3"
     d="m 7133.86,9006.2 -9.61,-0.53 -6.41,13.35" />
  <path
     style="fill:none;fill-rule:evenodd;stroke:#ff0000;stroke-width:5;stroke-linecap:butt;stroke-linejoin:round;stroke-miterlimit:4;stroke-dasharray:none;stroke-opacity:1"
     d="m 2814.58,2136.69 7.42,7.81 10.5,26.5 12,14.5 298,333.5 61.5,66 23.5,34 12,9.5 415,191 18.5,15 597,614 196,237 41,25.5 60.5,52 155,176.5 75,84 294,334.5 38.5,20.5 12,17.5 139,262 90,169 189.5,1024.5 74,376 14,30 31.5,33 217.5,200 23,18 41,12.5"
     id="path4517-3" />
  <path
     d="m 5918.88,6528.71 -18.16,1.07 -53.94,-1.6 -12.28,-9.08 -83.31,1.07 -10.68,-6.41 -202.41,-202.41 -105.74,-106.28 -18.16,-42.72 3.74,-295.87 -70.5,-253.68 -252.08,-426.18 -169.3,-286.25 -0.53,-134.05 -9.08,-72.1 -18.16,-37.38 0,-119.63 -12.82,-21.36 -22.43,-24.57 -83.31,-241.39 -15.49,-83.31 -1.07,-186.92 -33.15,-40.68 0.57,-21.27 -24.57,-29.91 0.53,-30.98 -34.18,-53.94 -64.62,-51.27 -96.66,-79.04 -154.88,-217.36 -28.3,-36.32 -75.3,-81.71 -102.54,-178.38 -41.66,-76.9 -13.89,-36.32 -220.03,-223.77 -13.89,-9.08 -176.24,-0.53 -97.2,-44.86 -255.28,-202.41 -10.15,-27.24 -120.16,-94.53 -177.31,-220.03 -47.53,-45.93 -3.74,-21.9 -16.02,-73.7 -37.92,-112.15 -16.56,-66.22 -108.95,-105.74 -70.5,-53.94 -91.86,-68.89 -194.4,-146.33 -15.49,-2.14 -151.14,32.04 -103.07,0.53 -151.67,-12.28 -155.94,2.14 -14.42,-5.87 -109.48,-99.87 -60.35,-27.24 -35.78,-9.08 -34.18,-0.53 -14.42,-3.74 -51.8,-10.68 -46.46,-1.07 -41.12,-16.02 -47,2.67 -102,-32.58 -14.03,-7.45 -10.32,4.57 -26.66,-3.89 -3.54,-2.83 -38.89,14.14 -52.33,46.67 -6.72,12.68 -20.5,11.5 -13.5,-6 -18,4 -19.5,16.5 -6,11 -23,6 -10,1 -4,-15 -30.5,-8.5 -43.5,9.5 -20.5,-14 -2,-11.5 -26.5,-3.5 -19.5,-24.5 -17,3.5 -4,14.5 -17.5,3.5 -12,-2 -11,0.5 -9.5,6.5 -41,3 -10.5,7.5 -50.5,16 -3.5,5.5 0.5,20 -9,31 -5,33.5 -25.79,33.26"
     id="path4646"
     style="fill:none;stroke:#0000ff;stroke-width:5;stroke-linecap:butt;stroke-linejoin:round;stroke-miterlimit:4;stroke-dasharray:none;stroke-opacity:1" />
  <path
     id="path5546-6"
     d="m 8570,8877.5 1.36,4.75 -1.36,39.75 -7.54,3.56 -7.48,3e-4"
     style="fill:none;fill-rule:evenodd;stroke:#0000ff;stroke-width:5;stroke-linecap:butt;stroke-linejoin:round;stroke-miterlimit:4;stroke-dasharray:none;stroke-opacity:1" />
</svg>
