<?xml version="1.0" encoding="UTF-8" standalone="no"?>
<svg
   id="svg2"
   viewBox="-100 0 9300 11950"
   height="11950"
   width="9300"
   version="1.1"
   xml:space="preserve"
   xmlns:xlink="http://www.w3.org/1999/xlink"
   xmlns="http://www.w3.org/2000/svg"
   xmlns:svg="http://www.w3.org/2000/svg"
   xmlns:rdf="http://www.w3.org/1999/02/22-rdf-syntax-ns#"
   xmlns:cc="http://creativecommons.org/ns#"
   xmlns:dc="http://purl.org/dc/elements/1.1/"><metadata
     id="metadata8"><rdf:RDF><cc:Work
         rdf:about=""><dc:format>image/svg+xml</dc:format><dc:type
           rdf:resource="http://purl.org/dc/dcmitype/StillImage" /></cc:Work></rdf:RDF></metadata><defs
     id="defs6" />
<g
     id="g925"
     transform="translate(1.15e-4)"
     style="display:none"><image
       xlink:href="basemap/caosm.png"
       width="9570.31"
       height="12304.69"
       preserveAspectRatio="none"
       id="image4235"
       x="-364.31"
       y="-204.69" /><image
       xlink:href="basemap/railosm.png"
       width="9570.31"
       height="12304.69"
       preserveAspectRatio="none"
       id="image4234"
       x="-364.31"
       y="-204.69"
       style="opacity:0.5" /></g><path
     style="fill:none;stroke:#83c343;stroke-width:5;stroke-linecap:butt;stroke-linejoin:round;stroke-miterlimit:4;stroke-dasharray:none;stroke-opacity:1"
     id="path3759-2"
     d="m 1403.38,2577.28 -2.54,0.35 -4.02,1.3 -2.36,1.12 -2.9,3.31 -2.13,1.95 -3.19,1.17 -2.9,0.36 -3.07,-0.72 -8.1,-3.6 -2.6,-0.53 c 0,0 -4.02,0.65 -4.2,0.7 -0.18,0.11 -5.5,1.6 -5.5,1.6 l -9.1,5.49 v 0.83" /><path
     style="fill:none;stroke:#83c343;stroke-width:5;stroke-linecap:butt;stroke-linejoin:round;stroke-miterlimit:4;stroke-dasharray:none;stroke-opacity:1"
     id="path3761-3"
     d="m 1403.08,2577.35 9.52,0.35 1.54,0.7 3.01,2.24 2.48,1.78 10.94,6.73 4.97,3.08 3.31,2.66 4.67,3.66" /><path
     style="fill:none;stroke:#83c343;stroke-width:5;stroke-linecap:butt;stroke-linejoin:round;stroke-miterlimit:4;stroke-dasharray:none;stroke-opacity:1"
     id="path3763-8"
     d="m 1443.28,2598.39 9.28,7.33 12.35,10.29 4.85,4.02 4.97,6.92 13.89,16.08 10.34,11.82 7.15,8.93 10.46,13.23 5.67,7.34 3.31,6.26" /><path
     style="fill:none;stroke:#83c343;stroke-width:5;stroke-linecap:butt;stroke-linejoin:round;stroke-miterlimit:4;stroke-dasharray:none;stroke-opacity:1"
     id="path3767-6"
     d="m 1429.45,2749.18 1.48,2.24 0.71,1.72 1.6,6.74 1.42,3.07 0.59,3.38 0.65,2.24 1.3,3.73 3.19,4.25 2.78,3.55 11.53,18.45 3.31,5.44 1.48,3.02 1.48,4.67 2.96,9.28 1.12,3.36 2.13,4.26 5.08,8.87 2.19,5.74 1.66,5.2 1,5.44 1.06,4.13 2.25,4.14 1.3,2.48 1.42,3.78 0.77,6.09 -0.12,7.09 -1.48,4.56 -1.06,2.54 0.06,1.59 1.12,0.77 10.11,0.11 8.75,0.48 3.67,0.94 23.29,14.13 10.4,6.21 4.02,1.42 4.43,0.59 20.1,0.23 4.37,1.19 15.02,4.85 3.19,1.71 2.48,2.37 0.3,1.59 -1.06,2.89" /><path
     style="fill:none;stroke:#83c343;stroke-width:5;stroke-linecap:butt;stroke-linejoin:round;stroke-miterlimit:4;stroke-dasharray:none;stroke-opacity:1"
     id="path3759-6"
     d="m 1224.2,2581.14 0.89,-0.76 1.66,0.44 2.93,2.42 1.53,1.08 11.97,3.18 1.59,0.82 3.06,3.95 1.21,2.48 0.38,2.42 -1.21,4.45 0.51,1.01 3.31,0.83 1.59,-0.13 3.06,-1.59 9.42,-0.19 10.44,0.26 3.56,-0.58 7.64,0 7.83,0.45 4.71,0 4.07,-0.32 3.06,-0.82 5.86,-3.25 9.87,-4.84 1.72,-1.46 1.97,-3.31 1.59,-1.21 2.74,-0.45 2.61,0.69 7.13,5.29 2.55,0.89 2.23,-0.22 3.15,-2.17 1.59,0.69 46.11,78.85 33.58,56.65 8.93,15.02 0,0.69 -11.78,6.69" /><path
     style="fill:none;stroke:#83c343;stroke-width:5;stroke-linecap:butt;stroke-linejoin:round;stroke-miterlimit:4;stroke-dasharray:none;stroke-opacity:1"
     id="path3804"
     d="m 1224.46,2580.88 -2.8,10.69 0.57,1.72 1.27,3.57 -0.64,3.12 -1.15,0.95 -4.07,1.91 -3.82,0.7 -5.35,0.13 -3.56,1.21 -1.91,-0.26 -13.18,-3.82 -3.88,-2.22 -1.21,0.19 -0.45,0.82 0.45,1.34 1.15,1.78 0.76,0.83 -0.06,1.14 -3.76,13.23 -0.95,1.4 -1.53,0.7 -3.69,1.27 -4.21,3.19 -19.69,-8.4 -6.79,-3.61" /><path
     style="fill:none;stroke:#009ada;stroke-width:5;stroke-linecap:butt;stroke-linejoin:round;stroke-miterlimit:4;stroke-dasharray:none;stroke-opacity:1"
     id="path3610"
     d="m 716.23,1548.27 10.85,12.57 4.15,3.14 17.57,-0.13 9.09,0.26 3.2,0.64 3.2,1.78 2.69,2.31 17.15,28.04 17.79,27.14 1.66,3.45 3.54,13.55 3.61,14.26 4.06,11.47 2.09,5.19 1.01,1.34 0.82,1.01 2.72,1.71 1.52,0.89 3.1,1.58 2.03,0.89 1.14,0.26 9.63,-1.58 4.63,-0.77 1.71,1.01 0.95,0.76 0.63,1.72 2.09,20.34 -0.06,3.74 -3.8,12.92 -2.6,7.93 -0.06,2.08 0.06,2.22 2.34,14.07 0.7,3.35 2.91,4.56 1.14,1.84 0.82,2.92 -4.12,21.11 -0.96,4.6 -1.15,4.68 -1.15,5.5 0.06,2.24 0.7,2.04 0.58,0.96 2.75,4.29 0.38,0.96 0,1.15 -0.51,1.14 -8.51,17.22 -0.51,0.96 -1.28,1.15 -1.54,0.77 -1.47,0.13 -1.66,-0.19 -2.56,-1.54 -3.52,-2.1 -3.71,-1.99 -3.52,-1.22 -5.31,-1.35 -5.95,-2.82 -3.84,-2.04 -3.58,-1.6 -6.59,-2.05 -6.27,-1.41 -6.34,-0.77 -8.32,-1.09 -5.89,-0.5 -8.83,-0.7 -5.89,-0.32 -7.49,0.38 -5.82,0.58 -19.33,3.96 -23.81,4.67 -10.24,2.11 -4.8,1.54 -4.67,2.11 -23.81,13.56 -1.48,1.09 -3.9,3.91 -11.39,11.45 -23.3,23.11 -0.83,1.91 -0.32,2.95 0.13,3.85 0.83,11.26 1.98,25.8 0.38,5.83 -0.45,1.72 -6.14,11.78 -4.54,4.04 -5.95,5.82 -4.93,4.8 -2.43,2.37 -3.9,3.01 -3.84,2.94 -4.03,2.18 -3.2,1.99 -2.24,1.99 -1.73,2.49 -1.28,2.69 -1.09,4.48 -0.45,4.29 -0.58,4.99 -0.9,2.24 -1.54,2.37 -6.85,7.04 -1.92,1.28 -2.56,1.09 -7.62,0.13 -3.39,-0.11 -1.79,0.45 -1.47,1.09 -1.66,2.1 -4.86,7.55 -0.96,2.05 -0.19,2.11 0,2.11 0.26,3.74 0.51,4.18 1.08,5.33 0.25,9.75 0.57,1.84 2.15,4.88 2.6,2.6 2.28,1.9 3.93,3.32 1.46,1.52 1.46,2.03 2.34,3.49 2.47,3.42 2.85,2.27 3.36,2.85 3.16,4.36 2.18,5.24 2.43,3.59 4.86,4.6 5.25,4.49 3.97,3.19 3.2,5.38 2.43,3.19 5.38,4.36 7.81,5.12 3.2,3.97 9.73,14.21 1.54,3.97 2.94,6.4 6.79,20.16 13.05,19.01 2.56,2.44 2.94,1.41 3.71,0.26 4.99,-0.26 4.35,-1.41" /><path
     style="fill:none;stroke:#009ada;stroke-width:5;stroke-linecap:butt;stroke-linejoin:round;stroke-miterlimit:4;stroke-dasharray:none;stroke-opacity:1"
     id="path2863"
     d="m 839.82,1819.94 0.19,1.54 0.77,1.08 10.56,5.32 3.26,2.05 3.39,2.68 3.07,3.27 2.69,2.44 2.69,1.78 5.05,2.22 1.39,0.49 5.91,3.23 10.89,6.37 3.54,2.64 5.87,4.39 1.43,1.44 6.62,5.6 7.42,4.49 5.63,4.6 7.17,4.36 3.07,2.82 7.04,8.06 20.1,22.28 33.28,35.59 18.18,19.07 1.79,2.69 5.89,7.45 3.82,4.59 4.37,6.14 20.48,17.92 24.45,20.86 27.27,23.95 29.19,25.6 7.17,6.01 3.46,3.72 13.95,23.04 26.88,42.5 2.94,5.63 3.33,7.68 3.58,8.45 2.18,3.46 3.71,4.48 8.32,9.09 10.11,11.65 8.58,11.65 7.68,9.09 3.46,5.24 8.32,8.06 24.96,24.19 15.49,14.85 1.66,2.69 6.4,9.22 4.48,4.86 4.35,4.23 4.61,3.72 4.24,3.19 12.58,2.06 6.39,3.92 6.19,9.07 2.68,8.45 2.27,18.97 1.03,12.16 22.89,55.46 44.74,109.07 22.89,52.78 14.23,31.55 17.32,63.3" /><path
     style="fill:none;stroke:#009ada;stroke-width:5;stroke-linecap:butt;stroke-linejoin:round;stroke-miterlimit:4;stroke-dasharray:none;stroke-opacity:1"
     id="path3637"
     d="m 840.91,1822.56 -1.47,0.13 -1.47,0.77" /><path
     style="fill:none;stroke:#009ada;stroke-width:5;stroke-linecap:butt;stroke-linejoin:round;stroke-miterlimit:4;stroke-dasharray:none;stroke-opacity:1"
     id="path3057"
     d="m 850.28,1756.66 0.76,-4.05 0.63,-4.12 0.57,-2.16 1.08,-1.58 1.46,-1.52 2.03,-1.27 9.38,-3.87 8.36,-3.98 6.34,-3.24 6.34,-4.5 6.08,-4.43 2.66,-1.59 2.6,-1.58 2.09,-1.4 19.43,-11.94 5.25,-4.35 3.71,-2.95 2.56,-2.44 20.99,-11.51 6.27,-1.92 6.53,-2.31 5.76,-3.45 2.69,-2.05 4.86,-5.64 3.58,-6.91 3.07,-5.12 3.33,-6.78 3.2,-3.72 4.61,-3.08 4.86,-2.42 5.76,-1.03 5.76,-0.26 7.68,1.41 13.57,2.42 3.2,-0.26 5.89,-0.38 4.86,0.9 4.1,0.51 3.84,-0.26 14.98,-4.6 12.16,-3.2 19.59,-3.96 9.86,-1.79 9.6,-0.38 10.63,-0.13 7.42,1.03 h 2.94 l 3.07,-0.38 3.07,-1.28 3.07,-2.05 2.18,-2.55 1.92,-2.95 6.02,-13.44 2.05,-6.02 0.77,-5.63 1.15,-5 1.66,-4.35 3.46,-10.76 1.28,-2.42 3.97,-4.1 4.22,-4.1 2.69,-2.17 38.15,-24.71 1.92,-2.18 1.41,-3.33 0.38,-2.55 -0.51,-3.46 -2.05,-7.17 -7.3,-22.02 -0.38,-4.86 0.51,-2.69 1.66,-5.89 2.3,-6.27 0.64,-2.95 -0.9,-2.69 -2.3,-4.73 -1.66,-4.49 -3.2,-9.85 -0.26,-3.97 0.38,-3.46 1.41,-3.58 4.35,-7.42 8.19,-13.96 6.91,-10.87 2.82,-2.69 22.79,-4.23 6.91,-1.53 5.25,-2.18 3.33,-1.67 4.22,-3.2 4.99,-3.71 4.99,-2.56 9.09,-4.99 4.99,-1.92 5.5,-0.51 4.61,0.77 8.19,2.05 12.29,2.81 6.4,2.18 4.35,1.54 3.58,0.51 3.97,-0.13 26.37,-0.39 9.9,-2.06 32.58,0.21 131.13,43.5 29.28,-1.03 29.69,7.42" /><path
     style="fill:none;stroke:#009ada;stroke-width:5;stroke-linecap:butt;stroke-linejoin:round;stroke-miterlimit:4;stroke-dasharray:none;stroke-opacity:1"
     id="path3083"
     d="m 623.41,2162.47 14.64,27.87 3.63,5.45 6.1,7.48 6.94,8.09 4.26,5.12 2.42,2.36" /><path
     style="fill:none;stroke:#009ada;stroke-width:5;stroke-linecap:butt;stroke-linejoin:round;stroke-miterlimit:4;stroke-dasharray:none;stroke-opacity:1"
     id="path3956"
     d="m 1084.55,2040.24 3.8,1.54 3.44,0 3.26,-0.27 11.41,-1.54 11.68,-1.54 6.97,-0.28 6.25,-0.27 16.93,-0.18 5.34,-0.11 4.98,-1.19 4.62,-1.18 8.6,-2.71 3.53,-0.45 5.97,0.18 3.8,0.27 2.81,-0.73 3.89,-1.54 2.26,-1.72 4.16,-4.71 3.98,-4.43 2.08,-1.72 3.08,-1.27 3.71,-1.26 4.89,0.45 3.44,1.17 5.97,1.27 2.99,-0.18 3.26,-0.99 4.34,-1.82 3.8,-1.08 23.63,-1.45 4.71,0.54 5.07,1.72 8.15,4.35 4.16,1.08 8.33,1.27 11.04,2.53 4.16,0.73 5.16,0.28 4.8,-0.46 7.15,-1.09 3.89,-1.08 6.52,0.18 28.6,0.27 2.9,-0.36 15.75,-4.43 6.97,-1.9 7.24,-0.18 25.89,0.36" /><path
     d="m 1428.29,2748.47 -1.05,0.64 -0.89,0.38 -1.53,-2.36 -0.25,-2.22 -1.02,-0.64 -4.46,1.21 -2.1,-0.11 -1.66,-1.46 -1.02,0.32 v 4.26 l 0.76,5.09 0.13,2.41 -2.16,2.94 -21.2,24.31 -30.81,35.26 -5.73,8.79 -12.4,20.33"
     id="path4238"
     style="fill:none;stroke:#83c343;stroke-width:5;stroke-linecap:butt;stroke-linejoin:round;stroke-miterlimit:4;stroke-dasharray:none;stroke-opacity:1" /><path
     style="fill:none;stroke:#e03d40;stroke-width:5;stroke-linecap:butt;stroke-linejoin:round;stroke-miterlimit:4;stroke-dasharray:none;stroke-opacity:1"
     id="path2987"
     d="m 648.26,1869.59 -6.41,6.41 0.53,2.67 8.01,9.08 4.27,12.28 -4.27,33.11 -3.74,49.13 -6.94,14.95 0,37.38 6.94,13.89 11.22,16.56 -1.07,5.87 -28.31,39.52 -6.41,17.09 0,15.74 7.48,21.35 15.21,27.69 19.54,22.82 10.11,11.74 61.95,32.04 16.56,10.15 26.17,30.98 11.22,20.29 6.94,13.89 29.37,28.84 19.23,17.62 22.96,26.7 24.57,23.5 37.92,31.51 95.6,74.77 72.1,56.61 51.8,26.7 77.97,33.65 29.37,10.68 42.19,0.53 38.45,20.83 13.89,13.89 49.13,28.84 7.79,12.51 1.07,11.93 13.04,13.48 14.42,4.27 21.9,35.25 22.96,13.35 24.57,10.15 20.83,26.7 33.65,27.77 92.39,64.62 68.36,84.92 86.52,102.54 50.2,64.62 77.97,181.58" /><path
     style="fill:none;stroke:#ffcb00;stroke-width:5;stroke-linecap:butt;stroke-linejoin:round;stroke-miterlimit:4;stroke-dasharray:none;stroke-opacity:1"
     id="path3765"
     d="m 2062.21,299.01 -11.41,-3.49 -0.14,-0.38 1.54,-4.47 -0.29,-0.78 -9.5,-3.31 -0.33,-0.94 2.76,-7.67 1.92,-6.12 -0.53,-1.05 -5.81,-2.14" /><path
     style="fill:none;stroke:#007397;stroke-width:5;stroke-linecap:butt;stroke-linejoin:round;stroke-miterlimit:4;stroke-dasharray:none;stroke-opacity:1"
     id="path3159"
     d="m 2046.42,264.21 -13.35,2.67 -24.57,-5.34 -27.24,1.07 -202.94,56.61 -104.68,31.51 -11.22,14.42 -182.65,262.76 -125.5,177.31 -19.76,42.72 -121.77,87.59 -14.42,15.49 -11.75,25.63 -74.77,182.65 -5.34,16.02 1.6,42.72 -10.15,44.86 -31.51,43.26 -0.53,22.96 17.09,30.44 -3.74,16.02 -34.18,14.95 -13.35,-3.2 -29.37,-16.56 -11.22,-10.68 -1.07,-12.82 -19.23,-21.36 -33.11,-6.41 -10.15,-3.74 -17.62,2.67 -22.43,-4.81 -13.35,13.35 -17.09,1.6 -3.2,18.16 -15.49,9.61 -4.81,15.49 -11.75,14.42 -9.08,3.2 -11.22,18.69 -15.49,1.07 -14.95,-2.14 -18.16,16.56 -13.35,4.27 -14.42,-3.74 -8.54,2.67 -6.94,9.08 -4.81,71.56 v 26.7 l 6.41,16.02 19.76,21.36 20.83,20.29 27.24,40.59 11.75,36.85 19.23,77.44 0.53,12.82 -0.53,12.28 -4.81,11.75 -14.95,16.56 -2.14,13.35 7.48,7.48 18.16,2.14 37.92,17.09 27.92,10.76 49.51,36.24 30.98,34.71 76.9,84.38 75.84,82.78 69.96,77.97 64.62,69.96 20.29,13.35 35.78,11.75 6.94,10.15 -1.6,4.27 -56.61,18.69 -38.45,62.48 2.14,5.34 34.71,22.96 55.01,64.62 -6.41,87.59 1.07,30.98 48.6,87.05 0.53,26.17 8.05,14.88 48.15,28.32 8.73,14.39 0.76,10.24" /><path
     style="fill:none;stroke:#007397;stroke-width:5;stroke-linecap:butt;stroke-linejoin:round;stroke-miterlimit:4;stroke-dasharray:none;stroke-opacity:1"
     id="path4646"
     d="m 1077.64,1376.66 33.65,-1.07 130.84,-44.86 12.82,-1.07 47.53,14.95 102,32.58 47,-2.67 41.12,16.02 46.46,1.07 51.8,10.68 14.42,3.74 34.18,0.53 35.78,9.08 60.35,27.24 109.48,99.87 14.42,5.87 155.94,-2.14 151.67,12.28 103.07,-0.53 151.14,-32.04 15.49,2.14 194.4,146.33 91.86,68.89 70.5,53.94 108.95,105.74 16.56,66.22 37.92,112.15 16.02,73.7 3.74,21.9 47.53,45.93 177.31,220.03 120.16,94.53 10.15,27.24 255.28,202.41 97.2,44.86 176.24,0.53 13.89,9.08 220.03,223.77 13.89,36.32 41.66,76.9 102.54,178.38 75.3,81.71 28.3,36.32 154.88,217.36 96.66,79.04 64.62,51.27 34.18,53.94 -0.53,30.98 24.57,29.91 -1.07,27.77 33.65,34.18 1.07,186.92 15.49,83.31 83.31,241.39 22.43,24.57 12.82,21.36 0,119.63 18.16,37.38 9.08,72.1 0.53,134.05 169.3,286.25 252.08,426.18 70.5,253.68 -3.74,295.87 18.16,42.72 105.74,106.28 202.41,202.41 10.68,6.41 83.31,-1.07 12.28,9.08 53.94,1.6 18.16,-1.07" /><path
     style="fill:none;stroke:#ffcb00;stroke-width:5;stroke-linecap:butt;stroke-linejoin:round;stroke-miterlimit:4;stroke-dasharray:none;stroke-opacity:1"
     id="path2987-2"
     d="m 2065.93,302.09 v 2.2 l -5.31,15.94 -1.04,6.09 0.65,6.47 6.22,26.03 27.46,113.06 5.43,21.76 -1.46,4.67 3.21,16.04 3.95,2.13 11.34,-4.12 4.74,-2.89 1.86,2.89 7.22,0.21 23.3,8.25 13.61,-0.41 1.86,2.06 0.21,14.02" /><path
     style="fill:none;stroke:#ffcb00;stroke-width:5;stroke-linecap:butt;stroke-linejoin:round;stroke-miterlimit:4;stroke-dasharray:none;stroke-opacity:1"
     id="path3757"
     d="m 2106.54,226.01 16.71,0.13 2.59,1.1 0,1.42 0.39,0.72 2.65,0.32 2.14,-0.7 2.07,-2.14 24.02,-28.43 13.73,-16.51 4.27,-6.67 3.37,-3.11 4.6,-3.11 6.54,-3.82 5.31,-3.17 3.43,-2.07 5.89,-5.69 3.17,-1.82 7.2,-2.67 9.35,-1.2" /><path
     style="fill:none;stroke:#ffcb00;stroke-width:5;stroke-linecap:butt;stroke-linejoin:round;stroke-miterlimit:4;stroke-dasharray:none;stroke-opacity:1"
     id="path3759"
     d="m 2106.79,225.94 -4.73,2.46 -8.74,5.24 -1.3,2.92 -1.23,1.94 -9.78,5.5 -3.17,2.47 -2.14,3.36 -2.78,1.94 -8.94,5.63 -8.22,23.57 -0.65,0.13 -9.26,-3.24" /><path
     style="fill:none;stroke:#ffcb00;stroke-width:5;stroke-linecap:butt;stroke-linejoin:round;stroke-miterlimit:4;stroke-dasharray:none;stroke-opacity:1"
     id="path3763"
     d="m 2062.11,298.92 2.78,0.97 1.81,2.07 61.39,21.44 33.54,11.78 2.4,1.62 0.84,0.38 3.04,0 13.53,4.73 6.99,1.61 8.42,0.97 8.61,-0.13 3.89,-0.58 4.73,-1.04 5.57,-1.69 6.54,-2.79 6.09,-3.24 173.54,-110.34 31.52,-20.85 64.09,-30.44 6.94,-5.34 25.63,-27.77 2.67,-7.48 -3.74,-19.76 5.87,-27.77" /><path
     style="fill:none;stroke:#a56ca5;stroke-width:5;stroke-linecap:butt;stroke-linejoin:round;stroke-miterlimit:4;stroke-dasharray:none;stroke-opacity:1"
     id="path5943"
     d="m 1419.44,2750.25 -0.46,-11.46 -9.54,-16.31 -48.57,-27.98 -6.77,-13.42 -0.83,-26.43 -48.03,-86.27 -1.16,-29.14 6.47,-89.95 -56.54,-66.65 -33.93,-22.45 -1.13,-2.31 36.84,-58.97 55.23,-18.11 3.74,-12.28 5.93,-11.89 2.08,-13.74 11.22,-5.87 32.58,-4.27 6.94,-7.48 6.41,-4.27 8.54,1.6 10.68,9.61 14.95,-6.41 22.43,3.74 10.68,-10.15 9.61,-5.34 2.14,-13.35 -8.01,-28.31 -17.62,-43.26 1.07,-9.61 20.83,-32.04 28.84,-11.22 115.36,-16.02 28.12,-11.9 19.02,-3.21 31.11,-16.04 50.93,-9.51 4.77,-4.36 7.03,-12.66 -4.81,-27.77 2.67,-6.41 9.71,4.44 7.12,-1.45 8.51,2.51 3.9,-2.32 0.67,-5.85 1.07,-5.87 6.41,-6.41 -1.07,-13.89 21.36,-13.89 11.75,8.01 8.01,3.2 6.94,-3.2 5.87,6.94 6.41,-1.07 6.94,17.62 7.48,3.2 18.69,-2.67 11.75,6.94 28.84,34.18 41.12,14.95 18.16,-4.27 10.15,3.2 16.02,-4.27 28.84,10.68 17.62,-6.94 18.69,14.95 122.83,-1.07 121.77,-105.74 24.03,-31.51 16.02,-22.43 10.68,-5.34 40.61,-18.27 7.69,-5.7 6.69,-9.99 2.74,-13.44 -3.26,-71.16 -2.02,-74.17 -14.09,-57.94 1.06,-64.45 -7.65,-32.41" /><path
     style="fill:none;stroke:#262626;stroke-width:5;stroke-linecap:butt;stroke-linejoin:round;stroke-miterlimit:4;stroke-dasharray:none;stroke-opacity:1"
     id="path2987-4"
     d="m 6899.1,8805.08 24.44,49.24 0.86,2.57 -0.24,1.46 -1.34,2.81 -2.93,6.96 -0.86,2.45 0,2.2 0.98,2.69 16.86,36.66 6.35,15.52 1.1,2.32 1.47,1.35 2.2,0.98 82.12,-0.25 1.1,0.25 1.22,0.97 -0.24,47.42 0.24,21.75 0.73,1.71 1.71,1.59 1.59,0.98 7.09,-0.13 1.96,0.85 6.48,4.15 1.59,1.23 1.1,1.83 1.96,1.35 4.64,2.69 15.4,8.31 3.67,1.95 3.79,2.2 5.25,4.52 1.34,-0.12 7.33,-9.54 4.03,-5.37 3.3,-3.79 1.71,-1.46 2.08,-0.85 3.06,-0.25 3.67,0.25 3.42,0.61 1.59,2.08 1.71,3.17" /><path
     style="fill:none;stroke:#262626;stroke-width:5;stroke-linecap:butt;stroke-linejoin:round;stroke-miterlimit:4;stroke-dasharray:none;stroke-opacity:1"
     id="path2990"
     d="m 7115.71,9026.02 -0.12,3.97 0.37,0.92 0.67,0.25 12.71,2.02 4.64,0.48 4.03,0.31" /><path
     style="fill:none;stroke:#262626;stroke-width:5;stroke-linecap:butt;stroke-linejoin:round;stroke-miterlimit:4;stroke-dasharray:none;stroke-opacity:1"
     id="path3761-2"
     d="m 7169.97,8924.23 -1.65,2.81 -1.1,2.93 0.37,4.28 -0.61,2.07 -1.83,2.08 -3.06,2.07 -0.86,1.23 -0.49,1.46 -1.96,2.81 -1.47,1.59 -0.24,2.45 0.24,4.16 -0.86,2.69 -2.57,3.29 -6.6,7.46 -7.21,6.24 -1.71,1.83 -1.83,4.04 -2.08,7.7 -1.34,1.46 -2.32,1.35 -5.99,2.69 -3.06,2.68 -1.59,3.79 -1.59,5.5 0.24,1.84 1.34,1.46 2.32,1.59 0.24,1.71 -1.1,3.3 -0.79,2.25 -0.37,2.69 -0.43,2.14 -0.43,0.74 -0.73,0.18 -2.26,-0.36 -0.67,0.49 -0.18,3.54" /><path
     style="fill:none;stroke:#007397;stroke-width:5;stroke-linecap:butt;stroke-linejoin:round;stroke-miterlimit:4;stroke-dasharray:none;stroke-opacity:1"
     id="path5983"
     d="m 3358.07,6708.69 -2.14,7.48 16.56,22.43 20.29,28.3 17.09,16.02 2.67,6.94 -3.2,18.16 10.68,48.6 5.34,7.48 -2.67,14.95 -6.94,6.94 -3.2,11.22 -8.01,19.23 -14.95,10.15 3.74,8.01 0.53,9.61 -4.81,8.01 4.81,38.45 8.01,34.18 13.89,19.23 36.85,30.44 2.14,11.22 -5.87,10.15 -5.34,12.82 8.54,63.02 42.72,83.85 0.53,21.36 -9.08,20.29 -2.67,6.94 -0.53,42.72 11.75,19.23 5.87,4.81 -2.14,19.76 50.2,50.74 25.63,16.56 0.53,14.42 -3.74,8.54 -6.94,2.14 -2.14,16.56 4.81,9.08 -2.67,8.01 4.27,21.9 -28.84,9.61 -20.29,13.35 -43.26,-21.36 -18.16,1.6 -10.68,42.19 -6.94,16.02 -14.95,27.24 -4.27,41.66 7.48,11.75 -1.6,13.35 -7.48,23.5 4.27,11.75 8.01,8.01 5.87,27.24 6.41,7.48 5.34,32.58 -13.35,29.91 -4.27,12.82 4.27,15.49 -16.56,21.9 0,14.95 -16.56,25.1 -13.35,41.66 -6.41,22.43 1.07,20.29 -8.01,13.35 14.95,37.92 18.69,6.41 61.42,1.6 49.13,33.11 25.1,8.54 35.25,25.1 18.16,22.96 1.6,13.89 13.35,28.84 18.16,15.49 27.24,46.46 14.42,10.15 52.87,-3.2 26.17,-6.41 90.26,-4.81 18.16,-9.61 19.23,0 26.17,-14.42 16.02,-1.07 20.83,9.61 114.82,-8.01 61.42,2.14 50.2,-7.48 65.16,24.03 21.36,1.07 13.89,-5.87 80.11,3.74 35.25,9.61 38.45,24.57 32.58,11.75 57.14,4.81 21.9,6.41 32.04,-2.67 34.71,-6.94 77.44,-8.01 56.08,0 27.77,11.75 20.29,12.82 24.03,3.74 31.51,27.24 22.96,-4.27 43.79,-16.02 26.17,6.94 33.11,-2.14 29.37,-2.14 35.78,14.42 28.31,-2.67 21.9,16.02 30.44,10.68 15.49,22.43 46.46,11.22 43.26,17.62 26.17,30.98 18.69,1.6 61.95,64.09 10.68,3.2 18.69,-1.6 38.99,31.51 18.16,26.17 36.85,24.57 35.25,1.07 65.69,38.99 35.25,16.56 28.84,-3.74 36.32,22.96 8.01,22.96 -0.53,47.53 6.41,4.27 194.4,1.07 5.34,-5.87 12.82,-28.84 34.71,-39.52 11.75,-22.96 47,-33.65 66.76,-10.68 28.31,-16.02 41.66,-9.08 40.05,0.53 29.91,-12.82 10.15,0.53 18.16,8.54 27.24,1.6 13.35,10.68 16.02,1.6 23.5,10.68 23.5,5.34 95.6,0 13.89,10.68 25.1,2.67 18.16,6.41 12.28,-1.07 5.87,-9.61 43.26,6.94 12.82,-4.27 1.07,-9.08 6.41,-3.74 8.54,0.53 5.34,4.81 -0.53,41.12 8.54,12.28 292.13,71.56 130.31,30.44 64.09,50.74 14.95,23.5 17.62,45.39 27.77,27.77 8.01,20.29 13.35,11.22 2.14,16.02 2.67,28.3 -2.14,11.22 -9.61,-0.53 -6.41,13.35" /><path
     style="fill:none;stroke:#3fb4da;stroke-width:5;stroke-linecap:butt;stroke-linejoin:round;stroke-miterlimit:4;stroke-dasharray:none;stroke-opacity:1"
     id="path6008"
     d="m 5621.66,8649.94 1.73,5.79 29.24,16.64 8.01,22.96 -0.53,47.53 6.41,4.27 188.52,0.53 3.2,-6.94 10.68,-24.57 37.38,-41.66 9.61,-22.43 51.27,-36.32 68.89,-10.68 22.96,-14.42 45.39,-10.68 40.05,1.07 26.7,-12.28 18.16,1.07 18.16,8.54 27.24,1.6 13.35,10.68 16.02,1.6 23.5,10.68 19.23,4.27 99.87,1.07 13.89,10.68 25.1,2.67 18.16,6.41 5.34,-1.6 5.87,-10.68 45.39,7.48 8.01,-2.14 1.6,-8.54 8.01,-6.41 11.75,0 10.28,9.22 -1.2,40.45 5.87,9.61 294.8,72.1 130.31,30.44 61.42,50.74 17.09,24.03 18.69,48.07 27.24,24.57 8.01,21.9 13.35,9.61 2.14,16.02 2.67,28.3 -2.4,16.29 -10.41,2.67 -5.34,11.22" /><path
     style="fill:none;stroke:#3fb4da;stroke-width:5;stroke-linecap:butt;stroke-linejoin:round;stroke-miterlimit:4;stroke-dasharray:none;stroke-opacity:1"
     id="path6029"
     d="m 7138.66,9006.2 1.07,18.16 -7.48,12.28 6.94,45.39 4.27,5.34 102.54,41.66 74.77,30.44 17.09,16.02 32.58,12.82 25.1,28.84 0.53,53.41 11.75,14.95 91.86,63.02 73.7,17.62 43.26,2.14 8.54,8.54 4.27,24.57 20.29,73.17 59.81,27.77 2.67,6.94 4.81,93.46 6.94,8.54 118.03,97.2 105.21,89.19 35.25,40.59 12.28,21.36 2.67,23.5 1.6,64.62 -2.67,48.6 14.95,53.94 3.2,19.23 -9.08,20.29 -11.75,13.35 -5.34,14.42 1.07,10.15 25.1,16.56 47,34.71 39.52,49.13 18.69,33.65 9.61,8.01 29.37,13.35 53.94,34.71 83.85,74.23 31.51,39.52 29.91,41.66 13.89,11.75 32.04,51.27 35.25,37.92 5.34,36.85 11.48,16.56" /><path
     style="fill:none;stroke:#3fb4da;stroke-width:5;stroke-linecap:butt;stroke-linejoin:round;stroke-miterlimit:4;stroke-dasharray:none;stroke-opacity:1"
     id="path6033"
     d="m 7620.92,9372.57 53.41,-1.07 18.16,-3.2 66.22,2.14 51.27,9.08 15.49,-1.6 9.61,-7.48 11.22,-10.15 30.98,-7.48 13.35,-13.35 8.54,0.53 11.22,14.95 6.94,4.81 34.18,-8.01 24.57,2.14 13.89,5.87 9.08,-2.67 19.76,-9.61 60.35,-9.08 45.93,-10.68 13.89,2.14 23.5,11.22 35.78,10.68 21.9,-4.27 60.88,-24.57 60.35,-23.5 19.76,-17.62 20.29,-5.87 38.45,-32.58 19.23,-17.62 17.09,-22.96 1.07,-20.29 20.29,-30.44 40.05,-49.13 4.81,-10.15 0.53,-23.5 7.48,-73.17 19.76,-57.68 0.53,-8.54 3.74,-4.27 8.01,0" /><path
     style="fill:none;stroke:#3fb4da;stroke-width:5;stroke-linecap:butt;stroke-linejoin:round;stroke-miterlimit:4;stroke-dasharray:none;stroke-opacity:1"
     id="path6037"
     d="m 7173.38,9098.06 178.38,16.02 26.7,2.14 13.89,-9.08 48.6,-39.52 32.58,-4.27 20.29,4.27 38.45,20.83 71.03,33.65 14.42,6.41 72.1,-2.67 41.12,-19.76 65.69,-81.71 22.96,-9.61 126.57,-4.81 98.27,0 140.99,57.14 100.94,58.75 8.01,17.09 10.15,30.44 6.94,5.87 8.54,1.6 34.18,-6.94 12.28,9.61 17.62,18.16 52.87,2.14 18.16,-17.09" /><path
     style="fill:none;stroke:#3fb4da;stroke-width:5;stroke-linecap:butt;stroke-linejoin:round;stroke-miterlimit:4;stroke-dasharray:none;stroke-opacity:1"
     id="path6039"
     d="m 7710.64,9503.41 -3.74,-16.02 33.65,-110.55 6.94,-8.01" /><path
     style="fill:none;stroke:#262626;stroke-width:5;stroke-linecap:butt;stroke-linejoin:round;stroke-miterlimit:4;stroke-dasharray:none;stroke-opacity:1"
     id="path3757-2"
     d="m 7004.07,9007.26 18.58,0.11 1.53,-0.61 2.02,-1.16 1.41,-0.67 2.57,-1.04 1.04,0.25 2.08,0.97 3.18,1.61" /><path
     style="fill:none;stroke:#262626;stroke-width:5;stroke-linecap:butt;stroke-linejoin:round;stroke-miterlimit:4;stroke-dasharray:none;stroke-opacity:1"
     id="path2988"
     d="m 7185.24,8914.93 -14.3,8.62 -1.16,1.04" /><path
     style="fill:none;stroke:#262626;stroke-width:5;stroke-linecap:butt;stroke-linejoin:round;stroke-miterlimit:4;stroke-dasharray:none;stroke-opacity:1"
     id="path2992"
     d="m 7137.83,9033.9 6.6,0.49 1.34,0.12 9.47,5.26 2.02,-0.11 2.81,1.53 22.3,11.97" /><path
     style="fill:none;stroke:#262626;stroke-width:5;stroke-linecap:butt;stroke-linejoin:round;stroke-miterlimit:4;stroke-dasharray:none;stroke-opacity:1"
     id="path3762"
     d="m 7181.94,9052.97 4.64,2.51 0.24,0.54 0,4.04 0.61,0.48 35.81,0 20.53,-0.18" /><path
     style="fill:none;stroke:#262626;stroke-width:5;stroke-linecap:butt;stroke-linejoin:round;stroke-miterlimit:4;stroke-dasharray:none;stroke-opacity:1"
     id="path3764"
     d="m 7084.42,9030.66 -11.08,14.06" /><path
     style="fill:none;stroke:#262626;stroke-width:5;stroke-linecap:butt;stroke-linejoin:round;stroke-miterlimit:4;stroke-dasharray:none;stroke-opacity:1"
     id="path3766"
     d="m 7073.48,9044.54 -2.44,3.35 -0.98,1.84 -2.63,4.89 -2.26,4.34 0,0.73 5.01,2.87 9.59,5.26 17.29,9.84 8.86,5.93 1.47,0.92 0.55,1.22" /><path
     style="fill:none;stroke:#262626;stroke-width:5;stroke-linecap:butt;stroke-linejoin:round;stroke-miterlimit:4;stroke-dasharray:none;stroke-opacity:1"
     id="path3768"
     d="m 7190.99,9485.15 -5.13,-12.89 -2.81,-7.64 -0.92,-1.71 -7.64,-13.57 -3.91,-7.21 -4.28,-10.08 -1.96,-5.62 -3.54,-9.78 -1.83,-5.5 -4.09,-11.3 -4.28,-12.77 -9.96,-28.77 -1.16,-3.85 -0.43,-2.02 -0.49,-9.05 -1.28,-23.95 -0.67,-12.1 -0.18,-1.84 -0.43,-2.14 -9.35,-21.5 -5.19,-12.1 -10.75,-24.57 -2.08,-4.95 -0.55,-2.14 -0.49,-5.63 -0.06,-51.75 0,-33.73 0,-21.88 0.35,-39.23 -0.29,-0.97" /><path
     style="fill:none;stroke:#262626;stroke-width:5;stroke-linecap:butt;stroke-linejoin:round;stroke-miterlimit:4;stroke-dasharray:none;stroke-opacity:1"
     id="path3770"
     d="m 7190.8,9484.9 0.55,1.77 0.06,29.69 -0.06,17.85 0.06,22.85 -0.37,0.61 -6.11,0.11 -0.43,-0.36 0.12,-15.09 0.73,-0.56 5.56,0 0.49,-0.43" /><path
     style="fill:none;stroke:#262626;stroke-width:5;stroke-linecap:butt;stroke-linejoin:round;stroke-miterlimit:4;stroke-dasharray:none;stroke-opacity:1"
     id="path3763-3"
     d="m 6913.27,9321.76 -24.07,-21.99 -1.71,-1.95 -0.73,-1.72 -0.24,-11.97 -0.37,-1.83 -0.98,-1.23 -1.59,-1.95 -0.49,-1.71 0.37,-18.57 1.34,-1.23 6.6,-2.81 7.21,0.25 2.2,0 3.18,-0.73 7.33,0.12 2.81,-0.25 2.57,-0.85 6.84,-2.45 5.38,-2.07 4.52,-1.35 3.54,0.12 2.69,0.37 2.69,1.1 2.57,1.1 11.37,8.54 2.93,2.33 3.06,1.83 2.93,0.85 4.03,0.49 4.28,-0.36 5.38,-0.74 5.62,-0.36 8.07,0 9.65,0.25 2.93,-0.36 22.12,-5.75 5.01,-0.25 6.97,0.36 10.39,-0.25 5.62,0.25 7.09,1.59 5.25,0.36 10.88,-0.25 6.72,0.13 5.38,-0.85 5.25,-0.98 4.52,-0.49 7.21,0.37 4.64,0.49 12.83,0.48 3.3,-0.85 6.23,-1.71 3.42,-0.25 3.79,0.25 3.79,1.35 8.31,4.27 9.29,5.14 16.25,8.43 8.19,4.28 12.59,5.62 6.6,2.81 4.64,1.59 6.11,1.22 7.58,-0.36 10.51,-0.97 20.77,-2.33 4.89,-0.25 18.7,0.13 7.33,-0.13 17.23,-1.35 7.45,-0.23 6.6,0.23 6.84,-0.85" /><path
     style="fill:none;stroke:#000080;stroke-width:5;stroke-linecap:butt;stroke-linejoin:round;stroke-miterlimit:4;stroke-dasharray:none;stroke-opacity:1"
     id="path6834"
     d="m 8457.69,10651.24 12.12,-0.94 6.54,-14.82 34.85,-18.02 20.29,-0.53 9.08,-2.67 12.82,1.07 35.25,-5.34 28.31,-12.82 6.41,-4.81 9.08,-10.68 11.75,-2.14 2.14,8.54 2.14,14.95 8.01,3.74 8.54,8.01 6.94,15.49 6.41,4.27 9.61,2.14 7.48,9.61 8.01,4.27 11.75,13.88 10.15,2.67 -2.14,10.68 4.81,3.2 3.2,3.2 2.67,14.42 12.82,14.95 29.37,5.34 13.35,4.81 7.48,4.27 3.2,10.15 20.83,-8.01 13.89,2.14 44.33,26.17 19.76,9.08" /><path
     style="fill:none;stroke:#aa0000;stroke-width:5;stroke-linejoin:round;stroke-miterlimit:4;stroke-dasharray:none;stroke-opacity:1"
     d="m 9067.26,11287.4 0.23,16.85 3.81,6.12 6.12,2.14 2.1,6.97 -0.23,6.27 -2.07,4.18 0.77,12.58 2.41,3.81 -1.58,19.21 -0.31,16.2 -4.8,7.84 -8.28,6.43 -4.04,2.02 -3.72,-1.53 -8.08,-9.08 -5.98,-1.19 -5.52,1.19 -13.62,6.17 -20.79,15.21 -10.57,0.54 -11.64,2.23 -7.32,-1.69 -9.79,-5.66 -6.55,-2.93 -14.46,-2.13 -2.55,-0.24 -3.36,1.64 -0.15,4.4 -1.58,3.97 h -4.27 l -4.22,-2.7 -3.5,-7.83 -3.5,-0.94 -17.18,-2.04 -11.35,0.58 -5,-0.96 -8.56,2.7 -11.32,-4.29 -14.46,0.73 -6.02,2.77 -4.87,4.87 -10.6,3.86 -11.3,2.71 -7.05,3.98 -4.79,-0.12 -4.45,2.34 -4.36,-1.33 -20.92,10.33 -7.22,-1.7 -27.62,6.68 -5.97,-2.5 -7.36,1.48 1.13,10.91 13.96,16.09 18.46,12.9 12.61,13.91 5.79,21.17 -0.27,20.16 23.32,16.33"
     id="path917" /><path
     style="fill:none;stroke:#aa0000;stroke-width:5;stroke-linecap:butt;stroke-linejoin:round;stroke-miterlimit:4;stroke-dasharray:none;stroke-opacity:1"
     id="path2987-46"
     d="m 8996.41,11830.86 -1.2,-2.29 -2.77,-3.97 -2.41,-2.66 -13.38,-10.84 -43.02,-29.76 -18.8,-14.71 -2.53,-3.25 -1.09,-5.06 0.36,-26.38 -0.72,-6.02 -5.54,-16.99 -18.8,-56.75 -0.96,-4.34 -0.84,-8.32 -1.69,-6.14 -1.69,-3.86 -3.37,-3.74 -11.21,-33.86 -2.77,-8.56 -2.53,-2.88 -25.3,-20.97 -2.89,-1.09 -6.51,-1.44 -2.65,-2.17 -19.28,-15.79 -0.96,-1.69 -0.12,-4.04 -0.08,-19.65 -20.74,-0.16" /><path
     style="fill:none;stroke:#007397;stroke-width:5;stroke-linecap:butt;stroke-linejoin:round;stroke-miterlimit:4;stroke-dasharray:none;stroke-opacity:1"
     id="path5985"
     d="m 7133.32,9005.14 1.07,15.49 -7.48,13.89 8.01,50.74 4.27,5.34 104.14,42.19 72.63,29.37 19.23,17.62 30.44,11.22 25.1,28.84 0.53,53.41 11.75,14.95 95.06,65.69 75.3,16.56 42.72,3.2 4.81,6.41 3.74,24.03 20.29,73.17 59.81,27.77 2.67,6.94 4.81,93.46 6.94,8.54 118.03,97.2 105.21,89.19 35.25,40.59 12.28,21.36 2.67,23.5 1.6,64.62 -2.67,48.6 14.95,53.94 3.2,19.23 -9.08,14.95 -12.28,13.88 -5.34,17.09 1.6,12.28 25.1,16.55 47,34.71 39.52,49.13 18.69,33.65 9.61,8.01 29.37,13.35 53.94,34.71 83.85,74.23 31.51,39.52 29.91,41.66 13.89,11.75 32.04,51.27 35.25,37.92 5.34,36.85 43.79,63.02 33.11,41.12 18.69,43.79 25.1,64.09 14.42,52.34 11.75,19.76 1.6,26.17 24.03,47.53 16.56,75.3 -4.27,19.76 12.28,39.52 30.44,31.51 46.46,55.54 25.63,1.07 2.67,4.27 10.68,2.67 15.49,2.67 2.67,11.75 -5.34,11.75 -26.7,16.56 -21.36,-0.53 -38.45,20.29 -2.67,16.56 6.94,18.69 -1.07,12.82 26.7,33.11 10.15,30.98 -2.67,31.51 8.01,21.36 2.67,12.28 15.49,17.09 19.23,13.88 10.15,12.28 5.87,16.55 0,10.15" /><path
     style="fill:none;stroke:#000080;stroke-width:5;stroke-linecap:butt;stroke-linejoin:round;stroke-miterlimit:4;stroke-dasharray:none;stroke-opacity:1"
     id="path6031"
     d="m 8442.83,10626 36.32,53.41 33.11,41.12 18.69,43.79 25.1,64.09 14.42,52.34 11.75,19.76 1.6,26.17 24.03,47.53 15.49,72.63 -3.74,20.83 12.82,41.12 30.44,31.51 46.46,55.54 27.24,2.14 1.07,3.2 10.68,2.67 15.49,4.27 1.6,8.54 -4.27,8.54 -24.03,13.88 -20.29,-0.53 -41.66,21.36 -3.2,22.96 6.94,18.69 -1.07,12.82 26.7,33.11 9.52,29.14 -2.82,30.78 8.79,23.94 2.67,12.28 15.49,17.09 19.23,13.89 10.15,12.28 4.81,12.82 -0.07,10.9" /><path
     style="fill:none;stroke:#3fb4da;stroke-width:5;stroke-linecap:butt;stroke-linejoin:round;stroke-miterlimit:4;stroke-dasharray:none;stroke-opacity:1"
     id="path3066"
     d="m 6993.96,8770.47 -90.43,-65.99 -156.42,-170.26 -24.44,-4.89 -19.55,-20.37 -22.81,-56.21 -9.78,-13.85 2.44,-20.37 -24.44,-34.22 -1.63,-26.88 -2.44,-26.07 6.52,-3.26 13.03,13.85 9.78,3.26 29.33,-13.03 27.7,-2.44 17.92,20.37 16.29,2.44 47.25,-2.44 26.88,-22.81 17.92,-1.63 22.81,-13.85 11.41,4.07 23.63,-8.15 26.88,8.15 13.03,-13.03 33.4,-8.96 59.47,-1.63 7.33,4.07 36.66,-4.07 13.85,6.52 39.92,0 13.03,-17.11 19.55,-17.92 4.89,-22 13.85,-6.52 20.37,2.44 20.37,-19.55 20.37,0.81 12.22,-7.33 33.4,-24.44 10.59,-28.51 32.59,-21.18 -2.44,-6.52 -17.11,-7.33 -20.37,-41.55 -0.81,-33.4 -30.96,-241.96" /><text
     xml:space="preserve"
     style="font-style:normal;font-weight:normal;font-size:144px;line-height:125%;font-family:Sans;-inkscape-font-specification:Sans;letter-spacing:0px;word-spacing:0px;fill:#000000;fill-opacity:1;stroke:none;stroke-width:2px;stroke-linecap:butt;stroke-linejoin:round;stroke-opacity:1"
     x="-10.55"
     y="11847.96"
     id="text4994-7-3"><tspan
       id="tspan4996-9-6"
       x="-10.55"
       y="11847.96">2025</tspan></text><text
     xml:space="preserve"
     style="font-style:normal;font-weight:normal;font-size:144px;line-height:125%;font-family:Sans;-inkscape-font-specification:Sans;letter-spacing:0px;word-spacing:0px;fill:#000000;fill-opacity:1;stroke:none;stroke-width:2px;stroke-linecap:butt;stroke-linejoin:round;stroke-opacity:1"
     x="-10.55"
     y="206.96"
     id="text4994-7-3-7"><tspan
       id="tspan4996-9-6-5"
       x="-10.55"
       y="206.96">2025</tspan></text><path
     style="fill:none;stroke:#aa0000;stroke-width:5;stroke-linejoin:round;stroke-miterlimit:4;stroke-dasharray:none;stroke-opacity:1"
     d="m 8799.01,11533.59 48.18,-0.15 1.35,-5.7 4.37,-0.23 1.88,5.88 h 6.48 l 11.29,-6.62 21.02,0.56 8.89,-2.54 32.41,1.18 30.59,-4.33 20.03,-27.43 7.74,-17.45 1.31,-16.18 19.81,-12.23 2.09,-4.33 -1.09,-8.96 -11.69,-26.29"
     id="path921" /><path
     d="m 7185.05,8915.01 3.91,-2.08 2.32,-0.61 1.59,0.24 9.66,3.3 1.96,0.49 2.08,0.24 5.99,-1.22 5.87,-1.71 2.32,-0.98 13.2,-1.1 2.32,-0.37 2.44,-2.57 4.16,-4.4 7.33,-6.6 0.98,-1.47 0.37,-2.08 -0.24,-3.79 0.61,-1.34 3.42,-3.67 0.24,-2.08 v -33.61 l -0.12,-2.69 3.18,-8.07 1.71,-0.98 h 14.67 l 12.22,0.24 7.94,-1.1 1.83,0.12 39.35,-0.61 3.67,0.12 3.3,1.1 2.57,1.59 1.47,1.22 4.03,3.3 2.44,0.98 3.06,0.61 2.32,0.12 2.57,-0.04 4.77,-0.31 10.08,-1.44 45.22,-0.27 2.51,0.34 2.81,1.13 2.17,1.25 10.66,8.04 8.65,6.78 2.63,1.96 2.26,1.04 28.6,9.5 3.67,0.92 2.05,0.12 69.94,-0.43 2.69,0.34 2.54,0.92 13.23,5.68 2.81,0.82 3.57,0.06 17.02,-2.51 4.55,-1.53 27.93,-10.45 3.39,-0.79 4.61,-0.52 2.84,0.03 6.54,0.43 3.76,-0.24 3.64,-0.64 9.11,-2.29 4.08,-0.77 4.19,0.17 3.59,0.77 2.45,1.17 1.97,1.46 13.98,11.1 2.45,1.14 2.71,0.86 2.17,-0.03 33.04,-0.06 2.2,0.43 2.48,0.85 1.77,1.23 1.94,2.42 0.91,1.91 0.68,2.25 0.66,5.91 0.86,2.08 1.37,2.54 5.62,8.84 3.51,4.68 3.17,3.05 4.05,2.74 3.62,1.71 10.7,3.28 17.38,4.79 17.54,0.55 50.32,13.47 7.12,0.16"
     id="path3759-5"
     style="fill:none;stroke:#262626;stroke-width:5;stroke-linecap:butt;stroke-linejoin:round;stroke-miterlimit:4;stroke-dasharray:none;stroke-opacity:1" /><path
     d="m 6998.5,9088.21 46.49,0.26 3.93,-0.3 1.17,-0.78 15.08,-27.7"
     id="path3773"
     style="fill:none;stroke:#262626;stroke-width:5;stroke-linecap:butt;stroke-linejoin:round;stroke-dasharray:none;stroke-opacity:1" /><path
     d="m 6998.54,9088.17 -5.01,-0.52 -10.11,-2.55 -17.28,-4.67 -9.59,-1.69 -19.96,-2.42 -12.75,-1.34 -13.87,-1.6 -29.34,-3.22 -28.72,-3.17 -2.75,-0.55 -2.78,-0.89 -2.47,-1.07 -1.68,-1.96 -1.92,-0.92 -1.07,-0.95 -2.41,-4.83 -1.53,-1.62 -2.75,-1.28 -2.51,-0.18 -21.08,3.76 -47.91,11.85 -3.09,1.19 -10.27,4.52 -3.21,2.05 -1.74,1.22 -1.83,0.49"
     id="path3775"
     style="fill:none;stroke:#262626;stroke-width:5;stroke-linecap:butt;stroke-linejoin:round;stroke-miterlimit:4;stroke-dasharray:none;stroke-opacity:1" /><path
     style="fill:none;stroke:#262626;stroke-width:5;stroke-linejoin:round;stroke-dasharray:none;stroke-opacity:1"
     d="m 6971.7,9143.46 -0.04,19.3 -0.03,0.88 -0.35,0.8 -0.5,0.53 -2.92,1.7 -24.06,13.61 -1.81,1.2 -1.17,1.13 -2.69,3.57 -1.1,0.69 -1.77,0.65 -1.65,0.31 -1.34,-0.07 -1.95,-0.82 -1.13,-0.42 -1.64,-0.26 -5.81,-0.46 -1.3,0.31 -2.09,0.9 -11.56,5.47 -3.71,1.82 -2.23,1.27 -1.18,1.38 -1.13,1.43 -0.74,1.81 -0.46,2.03 -0.22,1.97 -0.22,19.23 -0.16,29.62 -0.09,0.73 -0.48,0.47 -0.82,0.21"
     id="path19146" /><path
     style="fill:none;stroke:#262626;stroke-width:5;stroke-linejoin:round;stroke-dasharray:none;stroke-opacity:1"
     d="m 6971.7,9143.46 0.12,-21"
     id="path19148" /><path
     style="fill:none;stroke:#262626;stroke-width:5;stroke-linejoin:round;stroke-dasharray:none;stroke-opacity:1"
     d="m 6971.82,9122.46 -0.09,-2.82 -0.38,-1.37 -1.34,-2.95 -2.2,-2.5 -1.29,-1.78 -1.29,-2.58 -0.45,-2.52 0.11,-8.95 0.64,-16.22"
     id="path20430" /><path
     style="fill:none;stroke:#3fb4da;stroke-width:5;stroke-linecap:butt;stroke-linejoin:round;stroke-miterlimit:4;stroke-dasharray:none;stroke-opacity:1"
     id="path6035"
     d="m 8554.98,8925.56 -32.04,0 -21.36,13.89 -31.51,1.07 -303.35,8.54 -107.88,0 -11.22,-4.81 -100.4,2.67 -9.08,-1.6 -73.17,1.6 -50.74,-13.89 -84.38,-1.07 -45.93,18.16 -121.23,-1.07 -65.16,76.9 -6.94,3.2 -59.81,-49.67 -5.87,-1.07 -14.95,8.01 -146.87,1.6 -34.71,19.76 -8.54,-0.53 -24.03,11.22 -35.25,2.67 -11.75,-4.27 -9.61,-4.81" /><path
     style="fill:none;fill-opacity:0.25;stroke:#3fb4da;stroke-width:5;stroke-linejoin:round;stroke-dasharray:none;stroke-opacity:1"
     d="m 8520.02,9097.83 3.25,3.98 -0.82,33.4 6.6,13.61 13.61,11.13 6.19,1.24 10.31,-1.03 2.89,1.86 v 14.84 l -4.12,7.42 0.21,11.55 7.83,5.77 8.87,15.05 3.3,2.68 1.44,8.45 5.15,4.95 1.65,9.48 6.19,9.69 v 21.03 l -1.24,6.8 20,27.42 27.22,77.93 47.83,129.68 -1.24,22.89 41.85,31.13"
     id="path1" /><path
     style="fill:none;fill-opacity:0.25;stroke:#aa0000;stroke-width:5;stroke-linejoin:round;stroke-dasharray:none;stroke-opacity:1"
     d="m 8730.95,11438.45 -3.22,-14.52 -6.71,-18.66 3.06,-29.3 -11.37,-34.11 -25.51,-31.49 0.58,-11.81 -6.56,-18.81 1.75,-29.59 1.17,-20.85 -2.04,-4.37 3.06,-5.98 -3.79,-4.96 -0.15,-3.94 10.79,-5.25 16.62,9.48 0.29,14.87"
     id="path2" /><path
     style="fill:none;fill-opacity:0.25;stroke:#3fb4da;stroke-width:5;stroke-linejoin:round;stroke-dasharray:none;stroke-opacity:1"
     d="m 8562.48,8925.59 4.15,-0.32 2.33,1.9 0.15,4.81 2.77,2.92 24.35,0.15 3.06,2.62 2.19,12.1 2.33,20.26 2.92,5.39 17.49,8.89 33.53,0.44 17.35,14.14 29.74,-0.29 38.93,13.85 43.21,-0.13"
     id="path3" /><path
     id="path4884"
     d="m 463.96,1533.04 9.63,-13.03 v -9.06 l -22.66,-22.66 2.83,-19.83 -6.23,-13.03 -9.63,-9.06 -15.29,-7.36 v -7.36 l 16.43,-16.99 16.99,-63.44 v -15.29 l -7.93,-19.83 -21.53,-22.09 -9.06,-24.36 -33.99,-54.95 v -21.53 l 6.8,-19.83 -5.1,-27.76 3.4,-20.96 -15.86,-44.75 -17.56,-32.29 -0.57,-29.46 -39.65,-32.86 -11.33,-17.56 -15.06,-3.59 -14.12,-4.76 -7.08,-5.81 -3.4,-29.46 -34.55,-43.05 2.83,-31.16 -4.53,-9.06 -8.5,-5.1 -7.93,-11.33 -7.36,-21.53 -61.73,-122.36 -0.57,-116.12 -3.96,-7.37 -148.47,-216.77"
     style="fill:none;fill-rule:evenodd;stroke:#e48d1a;stroke-width:5;stroke-linecap:butt;stroke-linejoin:round;stroke-miterlimit:4;stroke-dasharray:none;stroke-opacity:1" /></svg>
