<?xml version="1.0" encoding="UTF-8" standalone="no"?>
<svg
   id="svg2"
   version="1.1"
   width="10600"
   height="9000"
   viewBox="-2550 -1200 10600 9000"
   xmlns:xlink="http://www.w3.org/1999/xlink"
   xmlns="http://www.w3.org/2000/svg"
   xmlns:svg="http://www.w3.org/2000/svg"
   xmlns:rdf="http://www.w3.org/1999/02/22-rdf-syntax-ns#"
   xmlns:cc="http://creativecommons.org/ns#"
   xmlns:dc="http://purl.org/dc/elements/1.1/">
  <metadata
     id="metadata8">
    <rdf:RDF>
      <cc:Work
         rdf:about="">
        <dc:format>image/svg+xml</dc:format>
        <dc:type
           rdf:resource="http://purl.org/dc/dcmitype/StillImage" />
      </cc:Work>
    </rdf:RDF>
  </metadata>
  <defs
     id="defs6" />
  <image
     width="10966.66"
     height="9047.49"
     preserveAspectRatio="none"
     xlink:href="../../basemap/throsm.png"
     id="image10"
     x="-2741.67"
     y="-1228.33"
     style="display:none" />
  <path
     style="fill:none;fill-rule:evenodd;stroke:#024697;stroke-width:5;stroke-linecap:butt;stroke-linejoin:round;stroke-miterlimit:4;stroke-dasharray:none;stroke-opacity:1"
     d="m 5241.5,2778.5 46,-7 10,2 86.5,10.5 21,22 62,86.5 25.5,41.5 174.5,112.5 342.5,166 55.5,27 195.5,28 119.5,-2"
     id="path4201" />
  <path
     style="fill:none;fill-rule:evenodd;stroke:#000000;stroke-width:5;stroke-linecap:butt;stroke-linejoin:round;stroke-miterlimit:4;stroke-dasharray:none;stroke-opacity:1"
     d="m 6194.5,1211 14,-198.5 L 6103,622 6209.5,251"
     id="path4205" />
  <text
     x="-2460.55"
     y="-993.04"
     id="text3019"
     xml:space="preserve"
     style="font-style:normal;font-weight:normal;font-size:144px;line-height:125%;font-family:Sans;-inkscape-font-specification:Sans;letter-spacing:0px;word-spacing:0px;fill:#000000;fill-opacity:1;stroke:none"><tspan
       x="-2460.55"
       y="-993.04"
       id="tspan1">2000</tspan></text>
  <text
     x="-2460.55"
     y="7697.96"
     id="text3019-6"
     xml:space="preserve"
     style="font-style:normal;font-weight:normal;font-size:144px;line-height:125%;font-family:Sans;-inkscape-font-specification:Sans;letter-spacing:0px;word-spacing:0px;fill:#000000;fill-opacity:1;stroke:none"><tspan
       x="-2460.55"
       y="7697.96"
       id="tspan2"></tspan></text>
  <path
     id="path4195"
     d="m 1143.61,1716.22 77.39,29.78 69,33.5 103.5,58 200.5,120 105,62 193.5,91 82.5,44 92.5,61 73.5,42.5 101.5,44.5 69,21.5 96.5,18.5 68,7.5 69.5,2 197.5,-7 69,0.5 52,3 77.5,15.5 70.5,18.5 50,17.5 68.5,31 77.5,42 191.5,109.5 148.5,72 87,36 46,16 77.5,21.5 86,20.5 93.5,14 217.5,27 152,17.5 111.5,1.5 337.5,-20 176,-11 63,-2 87.5,8 52.5,2 117,-13"
     style="fill:none;fill-rule:evenodd;stroke:#028256;stroke-width:5;stroke-linecap:butt;stroke-linejoin:round;stroke-miterlimit:4;stroke-dasharray:none;stroke-opacity:1" />
</svg>
